<?xml version="1.0" encoding="utf-8"?>
<!-- Generator: Adobe Illustrator 23.1.1, SVG Export Plug-In . SVG Version: 6.00 Build 0)  -->
<svg version="1.1" id="Layer_1" xmlns="http://www.w3.org/2000/svg" xmlns:xlink="http://www.w3.org/1999/xlink" x="0px" y="0px"
	 viewBox="0 0 400 400" style="enable-background:new 0 0 400 400;" xml:space="preserve">
<style type="text/css">
	.st0{fill:#BC520A;}
	.st1{fill:#A84807;}
	.st2{fill:#C5CAD6;}
</style>
<g>
	<path class="st0" d="M399.5,200.7C399.5,285,347.1,357,273,386c-0.2,0.1-0.3,0.1-0.5,0.2c-22.3,8.7-46.6,13.4-72,13.4
		c-109.9,0-199-89.1-199-199c0-109.9,89.1-199,199-199c99.7,0,182.3,73.3,196.8,169c0,0,0,0.1,0,0.1
		C398.7,180.5,399.5,190.5,399.5,200.7z"/>
</g>
<g>
	<path class="st1" d="M399.5,200.7C399.5,285,347.1,357,273,386c-0.2,0.1-0.3,0.1-0.5,0.2L126.3,240.1L279.4,87l17.1-17.1l17.4,17.4
		l83.3,83.3c0,0,0,0.1,0,0.1C398.7,180.5,399.5,190.5,399.5,200.7z"/>
</g>
<polygon class="st2" points="314,87.7 201,200.7 314,313.7 314,314.2 200.5,314.2 87,200.7 87,200.7 200.5,87.2 314,87.2 "/>
<polygon class="st2" points="200.5,200.7 200.5,200.7 200.5,200.7 "/>
<g>
	<rect x="214" y="56.2" class="st0" width="118" height="31"/>
</g>
</svg>
