<?xml version="1.0" encoding="utf-8"?>
<!-- Generator: Adobe Illustrator 23.1.1, SVG Export Plug-In . SVG Version: 6.00 Build 0)  -->
<svg version="1.1" xmlns="http://www.w3.org/2000/svg" xmlns:xlink="http://www.w3.org/1999/xlink" x="0px" y="0px"
	 viewBox="0 0 600 792" style="enable-background:new 0 0 600 792;" xml:space="preserve">
<style type="text/css">
	.st0{display:none;}
	.st1{display:inline;fill:#C5CAD6;}
	.st2{fill:none;stroke:#383735;stroke-width:7;stroke-linecap:round;stroke-miterlimit:10;}
	.st3{fill:none;stroke:#000000;stroke-width:5;stroke-miterlimit:10;}
	.st4{fill:#9B450B;}
	.st5{fill:#383735;}
	.st6{fill:#273244;}
	.st7{fill:#BC520A;}
	.st8{fill:#C5CAD6;}
	.st9{fill:none;stroke:#383735;stroke-width:7;stroke-linecap:round;stroke-linejoin:round;stroke-miterlimit:10;}
	.st10{fill:none;stroke:#383735;stroke-width:2;stroke-linecap:round;stroke-linejoin:round;stroke-miterlimit:10;}
	.st11{fill:none;stroke:#383735;stroke-width:7;stroke-miterlimit:10;}
	.st12{fill:none;stroke:#383735;stroke-width:5;stroke-linecap:round;stroke-linejoin:round;stroke-miterlimit:10;}
</style>
<g id="Layer_2" class="st0">
	<rect x="-457.2" y="-59" class="st1" width="664.1" height="842"/>
</g>
<g id="Layer_1">
	
		<image style="overflow:visible;" width="359" height="600" xlink:href="../../../../../cocktail_glass_icons_collection_handdrawn_outline_6833759-1.jpg"  transform="matrix(2.6718 0 0 2.6718 -270.0792 921.9996)">
	</image>
	<path class="st2" d="M-559,258.1h-116c-3.2,0-5.8-2.6-5.8-5.8V139.5c0-3.2,2.6-5.8,5.8-5.8h116c3.2,0,5.8,2.6,5.8,5.8v112.8
		C-553.1,255.5-555.8,258.1-559,258.1z"/>
	<g>
		<circle class="st2" cx="-977.7" cy="169" r="28.3"/>
		<line class="st2" x1="-978.1" y1="108.4" x2="-978.1" y2="326.4"/>
	</g>
	<circle class="st2" cx="-1082.3" cy="169" r="20.1"/>
	<line class="st2" x1="-1082.8" y1="108.4" x2="-1082.8" y2="386.7"/>
	<path class="st3" d="M-554.4,691c0,0.1,0,0.2,0.1,0.4c-0.1-0.3-0.1-0.6-0.2-0.9C-554.5,690.6-554.5,690.8-554.4,691z"/>
	<path class="st3" d="M-554.2,692.5c-0.1-0.4-0.1-0.8-0.2-1.1c0,0.2,0.1,0.4,0.1,0.6C-554.2,692.1-554.2,692.3-554.2,692.5z"/>
	<path class="st3" d="M-554,694c0-0.3-0.1-0.6-0.1-0.9c0,0.2,0.1,0.4,0.1,0.7C-554,693.9-554,693.9-554,694z"/>
	<path class="st3" d="M-554.1,693.1c0-0.2-0.1-0.4-0.1-0.6C-554.1,692.7-554.1,692.9-554.1,693.1z"/>
	<path class="st3" d="M-553.9,694.9c0-0.3-0.1-0.6-0.1-1c0,0.1,0,0.3,0,0.4C-553.9,694.6-553.9,694.8-553.9,694.9z"/>
	<path class="st3" d="M-553.7,697.1c0-0.7-0.1-1.4-0.2-2.1c0,0.4,0.1,0.8,0.1,1.1c0,0.1,0,0.2,0,0.3
		C-553.7,696.7-553.7,696.9-553.7,697.1z"/>
	<g>
		<circle class="st4" cx="-710.2" cy="654.6" r="164.7"/>
		<g>
			<path class="st2" d="M-772.1,726.9c-0.3,0.3-0.6,0.7-0.9,1c-0.5,0.6-1.1,1.2-1.6,1.7c-0.1,0.1-0.2,0.2-0.3,0.3
				c-0.5,0.5-1.1,1-1.6,1.5c-0.2,0.2-0.5,0.5-0.8,0.7l2.4-2.4L-772.1,726.9z"/>
			<path class="st2" d="M-803.9,655.9h1.8c-0.3,0-0.5,0-0.8,0c-0.8,0-1.6,0.1-2.4,0.1s-1.6,0-2.4-0.1c-0.3,0-0.5,0-0.8,0h1.8
				c0.5,0,0.9,0,1.3,0S-804.3,655.9-803.9,655.9z"/>
			<path class="st2" d="M-773.2,583.8c0.2,0.2,0.4,0.4,0.5,0.6l-1.5-1.5l-1.5-1.5l-1.2-1.2c0.2,0.1,0.3,0.3,0.4,0.4
				C-775.2,581.7-774.2,582.8-773.2,583.8L-773.2,583.8z"/>
			<path class="st2" d="M-701.2,551.7c0,0.4,0,0.7,0,1.1v-2.2C-701.2,551-701.2,551.3-701.2,551.7z"/>
			<path class="st2" d="M-688.5,655.9c0,3.5-1.4,6.7-3.7,9s-5.5,3.7-9,3.7s-6.7-1.4-9-3.7c-2.3-2.3-3.7-5.5-3.7-9s1.4-6.7,3.7-9
				c2.3-2.3,5.5-3.7,9-3.7s6.7,1.4,9,3.7C-689.9,649.3-688.5,652.4-688.5,655.9z"/>
			<path class="st2" d="M-701.2,761.8v-2.7c0,0.2,0,0.4,0,0.6v0.2v0.5c0,0.1,0,0.2,0,0.4c0,0.1,0,0.1,0,0.2
				c0.3,23.7,19.6,42.8,43.3,42.8c23.9,0,43.3-19.4,43.3-43.3c0-10.7-3.9-20.5-10.4-28.1c-1.8-1.5-3.5-3.2-5-5
				c-0.2-0.2-0.4-0.5-0.6-0.8l1.6,1.6l3.4,3.4l1.2,1.2"/>
			<path class="st2" d="M-701.2,820.4c45.4,0,86.5-18.4,116.3-48.2"/>
			<path class="st2" d="M-628.5,583.3l-1,1c0.1-0.2,0.2-0.3,0.4-0.4c1-1.1,2-2.1,3.1-3.1c0,0,0,0,0,0c0.1-0.1,0.2-0.2,0.3-0.3
				l-0.7,0.7C-627.1,581.9-627.8,582.6-628.5,583.3z"/>
			<path class="st2" d="M-601.1,656.1c-0.1,0-0.2,0-0.4,0c0,0,0,0,0,0C-601.4,656.2-601.3,656.2-601.1,656.1z"/>
			<path class="st2" d="M-599.8,656c-0.2,0-0.5,0-0.7,0c0.1,0,0.3,0,0.5,0C-599.9,656-599.9,656-599.8,656z"/>
			<path class="st2" d="M-594,655.9c-0.2,0-0.4,0-0.6,0h-0.1c-0.8,0.1-1.6,0.1-2.4,0.1c-0.8,0-1.5,0-2.2-0.1h-0.1
				c-0.3,0-0.6,0-0.9-0.1h2.1c0.4,0,0.8,0,1.2,0c0.5,0,0.9,0,1.3,0H-594z"/>
			<path class="st2" d="M-593.6,656.1L-593.6,656.1c-0.4,0-0.7,0-1-0.1C-594.3,656-594,656-593.6,656.1
				C-593.6,656-593.6,656-593.6,656.1z"/>
			<path class="st2" d="M-592.1,656.2c-0.2,0-0.3,0-0.5-0.1h0c-0.2,0-0.4,0-0.5,0c0.2,0,0.4,0,0.6,0
				C-592.4,656.2-592.2,656.2-592.1,656.2z"/>
			<path class="st2" d="M-556.3,684.3c0-0.1-0.1-0.3-0.2-0.4c-0.2-0.5-0.4-1-0.6-1.5c-0.2-0.4-0.3-0.8-0.5-1.2
				c-0.2-0.4-0.3-0.8-0.5-1.2c-0.1-0.2-0.2-0.5-0.4-0.7c-0.1-0.3-0.3-0.5-0.4-0.8c-0.1-0.1-0.1-0.2-0.2-0.3
				c-0.2-0.4-0.5-0.9-0.7-1.3c-0.3-0.5-0.6-0.9-0.9-1.4c-0.3-0.5-0.6-0.9-0.9-1.3v0c-0.3-0.4-0.6-0.9-1-1.3s-0.7-0.8-1-1.2
				c-0.3-0.4-0.6-0.8-1-1.1c-0.1-0.1-0.1-0.2-0.2-0.2c-0.3-0.3-0.6-0.7-0.9-1c0,0,0-0.1-0.1-0.1c-0.4-0.4-0.7-0.7-1.1-1.1
				c-0.3-0.3-0.7-0.6-1-0.9c-0.5-0.4-0.9-0.8-1.4-1.2c-0.4-0.3-0.8-0.7-1.2-1c-0.5-0.4-1-0.8-1.5-1.1c-0.3-0.2-0.7-0.5-1-0.7
				c-0.3-0.2-0.6-0.4-0.9-0.6c-0.3-0.2-0.7-0.4-1-0.6c-0.6-0.4-1.2-0.7-1.8-1c-0.2-0.1-0.5-0.3-0.8-0.4c-0.4-0.2-0.8-0.4-1.3-0.6
				c-0.5-0.2-1-0.5-1.5-0.7c-0.4-0.2-0.8-0.3-1.2-0.5c-0.3-0.1-0.7-0.3-1-0.4c-0.1,0-0.3-0.1-0.4-0.1c-0.3-0.1-0.6-0.2-0.8-0.3
				c-0.2-0.1-0.5-0.2-0.7-0.2c-0.2-0.1-0.5-0.1-0.7-0.2c-0.3-0.1-0.6-0.2-0.9-0.2c-0.2-0.1-0.4-0.1-0.6-0.2c-0.3-0.1-0.6-0.2-1-0.2
				c-0.7-0.2-1.4-0.3-2.1-0.4c-0.3,0-0.6-0.1-0.9-0.1c0.2,0,0.4,0.1,0.6,0.1h0c0.5,0.1,1,0.2,1.4,0.3c0.2,0,0.4,0.1,0.6,0.1
				c0,0,0.1,0,0.1,0c0,0,0.1,0,0.1,0c0.5,0.1,0.9,0.2,1.4,0.3c0.1,0,0.3,0.1,0.4,0.1c0.5,0.1,0.9,0.2,1.4,0.4
				c0.6,0.2,1.2,0.4,1.8,0.6c0.5,0.2,1,0.3,1.5,0.5c0.3,0.1,0.6,0.2,0.8,0.3c0.5,0.2,1.1,0.5,1.6,0.7c0.3,0.1,0.5,0.2,0.8,0.4
				c0.6,0.3,1.2,0.6,1.7,0.9c0,0,0,0,0,0c0.6,0.3,1.1,0.6,1.7,1c0.3,0.2,0.6,0.3,0.8,0.5c0.3,0.2,0.7,0.4,1,0.6
				c0.3,0.2,0.7,0.4,1,0.7c0.6,0.5,1.3,0.9,1.9,1.4c0.2,0.2,0.4,0.3,0.6,0.5c0,0,0.1,0.1,0.1,0.1c0.4,0.3,0.8,0.6,1.1,1
				c0.4,0.3,0.8,0.7,1.1,1c0,0,0,0,0.1,0.1c0.2,0.2,0.5,0.4,0.7,0.7c0.2,0.2,0.5,0.5,0.7,0.7c0.3,0.4,0.7,0.7,1,1.1
				c0.3,0.4,0.6,0.7,0.9,1.1c0.2,0.2,0.4,0.5,0.6,0.8c0,0,0,0,0.1,0.1c0.3,0.4,0.7,0.9,1,1.3c0.2,0.3,0.5,0.7,0.7,1
				c0.3,0.4,0.5,0.8,0.8,1.2c0.3,0.4,0.5,0.8,0.8,1.2c0.2,0.3,0.3,0.6,0.5,0.9c0.3,0.6,0.6,1.1,0.9,1.7c0.3,0.6,0.6,1.2,0.8,1.8
				c0.1,0.3,0.3,0.6,0.4,0.9c0.4,0.9,0.7,1.8,1.1,2.8c0.1,0.3,0.2,0.6,0.3,1c0.1,0.3,0.2,0.6,0.3,1c0.1,0.5,0.3,1,0.4,1.5
				c0,0,0,0.1,0,0.1c0.1,0.5,0.2,0.9,0.3,1.4c0,0.1,0.1,0.3,0.1,0.4c-0.2-1.1-0.5-2.2-0.8-3.2C-555.6,686.3-555.9,685.3-556.3,684.3
				z"/>
			<path class="st2" d="M-688.5,655.9c0,3.5-1.4,6.7-3.7,9s-5.5,3.7-9,3.7s-6.7-1.4-9-3.7c-2.3-2.3-3.7-5.5-3.7-9s1.4-6.7,3.7-9
				c2.3-2.3,5.5-3.7,9-3.7s6.7,1.4,9,3.7C-689.9,649.3-688.5,652.4-688.5,655.9z"/>
			<line class="st2" x1="-595.5" y1="655.9" x2="-598.2" y2="655.9"/>
			<line class="st2" x1="-803.9" y1="655.9" x2="-806.5" y2="655.9"/>
			<line class="st2" x1="-774.1" y1="583" x2="-775.6" y2="581.5"/>
			<line class="st2" x1="-626.4" y1="581.2" x2="-628.5" y2="583.3"/>
			<path class="st2" d="M-701.2,550.6v92.6c-3.5,0-6.7,1.4-9,3.7l-62.5-62.5c-0.2-0.2-0.3-0.4-0.5-0.6l0,0c-1-1.1-2-2.1-3.1-3.1
				c-7-7.7-11.2-17.9-11.2-29c0-23.8,19.3-43.2,43.2-43.2C-720.9,508.5-701.8,527.3-701.2,550.6z"/>
			<path class="st2" d="M-773.2,583.8c-0.3-0.3-0.6-0.6-0.9-0.9l-1.5-1.5c-0.2-0.2-0.5-0.5-0.7-0.8
				C-775.2,581.7-774.2,582.8-773.2,583.8z"/>
			<path class="st2" d="M-701.2,551.7c0,0.4,0,0.7,0,1.1v-2.2C-701.2,551-701.2,551.3-701.2,551.7z"/>
			<path class="st2" d="M-614.8,551.7c0,11.2-4.2,21.4-11.2,29c0,0,0,0,0,0c-1.1,1-2.1,2-3.1,3.1c-0.1,0.1-0.3,0.3-0.4,0.4
				l-62.7,62.7c-2.3-2.3-5.5-3.7-9-3.7v-90.4c0-0.4,0-0.7,0-1.1c0-23.8,19.3-43.2,43.2-43.2S-614.8,527.9-614.8,551.7z"/>
			<path class="st2" d="M-626,580.8c-0.1,0.1-0.3,0.3-0.4,0.5c-0.6,0.7-1.3,1.4-2,2c-0.2,0.2-0.4,0.4-0.6,0.6
				C-628.1,582.8-627.1,581.7-626,580.8z"/>
			<path class="st2" d="M-614.5,760.4c0,23.9-19.4,43.3-43.3,43.3c-23.7,0-43-19.1-43.3-42.8c0-0.1,0-0.1,0-0.2c0-0.1,0-0.2,0-0.4
				v-0.7c0-0.2,0-0.4,0-0.6v-90.4c3.5,0,6.7-1.4,9-3.7l61.6,61.6c0.2,0.2,0.4,0.5,0.6,0.8c1.5,1.8,3.2,3.5,5,5
				C-618.4,739.9-614.5,749.7-614.5,760.4z"/>
			<path class="st2" d="M-701.2,760.4c0-0.2,0-0.4,0-0.6L-701.2,760.4c0,0.1,0,0.2,0,0.4V760.4z"/>
			<path class="st2" d="M-624.9,732.3c-1.8-1.5-3.5-3.2-5-5c0.3,0.3,0.6,0.5,0.9,0.8c0.3,0.3,0.7,0.6,1,0.9l0.6,0.6
				c0.1,0.1,0.2,0.2,0.3,0.3c0,0,0.1,0.1,0.2,0.2c0.1,0.1,0.1,0.1,0.2,0.2c0.4,0.4,0.7,0.8,1.1,1.2
				C-625.3,731.8-625.1,732.1-624.9,732.3z"/>
			<path class="st2" d="M-701.2,759.7v0.7c0,0.1,0,0.2,0,0.4c0,0.1,0,0.1,0,0.2c0,0.3,0,0.5,0,0.8v-2.7
				C-701.2,759.3-701.2,759.5-701.2,759.7z"/>
			<path class="st2" d="M-701.2,668.7v93.1c-0.7,23.2-19.8,41.9-43.2,41.9c-23.9,0-43.2-19.3-43.2-43.2c0-11.9,4.8-22.6,12.6-30.4
				c0.1-0.1,0.2-0.2,0.3-0.3c0.6-0.6,1.1-1.1,1.6-1.7c0.3-0.3,0.6-0.7,0.9-1l62-62C-707.9,667.2-704.7,668.7-701.2,668.7z"/>
			<path class="st2" d="M-599.8,656c-0.2,0-0.5,0-0.7,0c0.1,0,0.3,0,0.5,0C-599.9,656-599.9,656-599.8,656z"/>
			<path class="st2" d="M-701.2,820.4c-90.8,0-164.5-73.6-164.5-164.5s73.6-164.5,164.5-164.5c90.8,0,164.5,73.6,164.5,164.5
				c0,45.4-18.4,86.5-48.2,116.3"/>
			<path class="st2" d="M-624.3,732.8l-1.2-1.2l-3.4-3.4c0.3,0.3,0.7,0.6,1,0.9l0.6,0.6c0.1,0.1,0.2,0.2,0.3,0.3
				c0,0.1,0.1,0.1,0.2,0.2c0.1,0.1,0.1,0.1,0.2,0.2c0.4,0.4,0.8,0.8,1.2,1.1c0.1,0.1,0.2,0.2,0.3,0.3c0.4,0.3,0.7,0.6,1.1,0.9
				c0,0,0,0.1,0.1,0.1c0.5,0.4,0.9,0.7,1.4,1.1c0.5,0.4,0.9,0.7,1.4,1c0.3,0.2,0.5,0.4,0.8,0.5c0.3,0.2,0.6,0.4,0.9,0.5
				c0.3,0.2,0.5,0.3,0.8,0.5c0,0,0,0,0,0c0.2,0.1,0.3,0.2,0.4,0.3c0.3,0.1,0.5,0.3,0.8,0.4c0.8,0.4,1.6,0.8,2.4,1.2
				c0.3,0.2,0.6,0.3,0.9,0.4c0.3,0.1,0.6,0.3,0.9,0.4c1.1,0.5,2.3,0.9,3.5,1.2c0.3,0.1,0.7,0.2,1,0.3c0.7,0.2,1.4,0.4,2.1,0.5
				c0.3,0.1,0.7,0.2,1,0.2c0.3,0.1,0.6,0.1,0.9,0.2c0.3,0.1,0.6,0.1,0.8,0.2c0.5,0.1,1,0.2,1.5,0.2c0.3,0,0.6,0.1,0.8,0.1
				c0.2,0,0.4,0,0.6,0.1c0.3,0,0.5,0,0.8,0.1c0.7,0,1.3,0.1,2,0.1c0.4,0,0.8,0,1.3,0c0.4,0,0.8,0,1.2,0c0.7,0,1.4-0.1,2.1-0.1
				c0.2,0,0.3,0,0.5,0c0.5,0,1-0.1,1.5-0.2c0.1,0,0.1,0,0.2,0c0.3,0,0.7-0.1,1-0.1c0.7-0.1,1.4-0.2,2.1-0.4c0.3-0.1,0.7-0.1,1-0.2
				c0.4-0.1,0.9-0.2,1.3-0.3c0.2,0,0.3-0.1,0.4-0.1c0.4-0.1,0.8-0.2,1.2-0.4c0.4-0.1,0.8-0.2,1.1-0.4c0.2-0.1,0.3-0.1,0.5-0.2
				c0.4-0.1,0.8-0.3,1.2-0.5c0.3-0.1,0.6-0.2,1-0.4c0.3-0.1,0.6-0.3,1-0.4c0.3-0.1,0.5-0.2,0.8-0.4c0.3-0.2,0.7-0.3,1.1-0.5
				c0.3-0.2,0.6-0.3,0.9-0.5c0.3-0.1,0.5-0.3,0.8-0.4c0.3-0.2,0.7-0.4,1-0.6c0.3-0.2,0.6-0.4,0.9-0.5c0.3-0.2,0.6-0.4,0.9-0.5
				c0.3-0.2,0.6-0.4,0.8-0.6c0.6-0.4,1.1-0.8,1.7-1.2c0.3-0.2,0.5-0.4,0.8-0.6c0.3-0.2,0.5-0.4,0.8-0.6c0.3-0.2,0.5-0.4,0.8-0.7
				c0.2-0.2,0.5-0.5,0.8-0.7c0.2-0.2,0.5-0.5,0.7-0.7c1-1,1.9-2,2.8-3c0,0,0,0,0,0c0.2-0.2,0.4-0.5,0.6-0.7c0.3-0.4,0.7-0.8,1-1.3
				c0.3-0.4,0.6-0.9,0.9-1.3c0.4-0.5,0.7-1,1.1-1.6c0.3-0.6,0.7-1.1,1-1.7c0.1-0.2,0.3-0.5,0.4-0.7c0.2-0.3,0.4-0.7,0.5-1
				c0.2-0.4,0.4-0.8,0.6-1.2c0.1-0.3,0.3-0.6,0.4-0.8c0.1-0.2,0.2-0.5,0.3-0.7c0-0.1,0.1-0.1,0.1-0.2c0.1-0.2,0.2-0.5,0.3-0.8v0
				c0-0.1,0.1-0.2,0.1-0.3c0-0.1,0.1-0.3,0.2-0.4c0.1-0.2,0.1-0.3,0.2-0.5c0.1-0.3,0.2-0.5,0.3-0.8c0.1-0.2,0.2-0.5,0.2-0.8
				c0.1-0.4,0.2-0.7,0.3-1.1c0,0,0-0.1,0-0.1c0.1-0.3,0.2-0.7,0.3-1c0-0.1,0-0.1,0-0.2c0,0,0,0,0,0c0.2-0.6,0.3-1.2,0.4-1.8
				c0,0,0-0.1,0-0.1c0-0.2,0.1-0.3,0.1-0.5c0-0.2,0.1-0.4,0.1-0.6c0-0.1,0-0.1,0-0.2c0-0.2,0.1-0.5,0.1-0.8c0,0,0,0,0,0
				c0-0.3,0.1-0.7,0.1-1c0,0,0,0,0,0c0-0.1,0-0.2,0-0.3c0-0.1,0-0.2,0-0.4c0-0.1,0-0.2,0-0.3c0-0.1,0-0.2,0-0.3c0-0.2,0-0.4,0.1-0.7
				c0-0.1,0-0.2,0-0.3c0-0.3,0-0.6,0-0.9c0-0.1,0-0.3,0-0.4c0-0.2,0-0.5,0-0.7c0-0.3,0-0.7,0-1c0-0.7,0-1.4,0-2.2c0-0.2,0-0.4,0-0.6
				c0-0.1,0-0.2,0-0.3c0-0.4-0.1-0.8-0.1-1.1c0,0,0,0,0-0.1c0-0.2,0-0.4,0-0.5c0-0.1,0-0.3,0-0.4c0-0.1,0-0.1,0-0.2
				c-0.1-0.6-0.2-1.2-0.3-1.8c0-0.2-0.1-0.4-0.1-0.6c0-0.1,0-0.2-0.1-0.4c0-0.2-0.1-0.3-0.1-0.5c0-0.1,0-0.3-0.1-0.4
				c-0.1-0.5-0.2-0.9-0.3-1.4c0,0,0-0.1,0-0.1c-0.1-0.5-0.3-1-0.4-1.5c-0.1-0.3-0.2-0.6-0.3-1c-0.1-0.3-0.2-0.6-0.3-0.9
				c-0.3-0.9-0.7-1.9-1.1-2.8c-0.1-0.3-0.3-0.6-0.4-0.9c-0.3-0.6-0.5-1.2-0.8-1.8c-0.3-0.6-0.6-1.2-0.9-1.7
				c-0.2-0.3-0.3-0.6-0.5-0.9c-0.2-0.4-0.5-0.8-0.8-1.2c-0.3-0.4-0.5-0.8-0.8-1.2c-0.2-0.3-0.5-0.7-0.7-1c-0.3-0.5-0.7-0.9-1-1.3
				c0,0,0,0-0.1-0.1c-0.2-0.3-0.4-0.5-0.6-0.8c-0.3-0.4-0.6-0.7-0.9-1.1c-0.3-0.4-0.7-0.7-1-1.1c-0.2-0.2-0.4-0.5-0.7-0.7
				c-0.2-0.2-0.5-0.5-0.7-0.7c0,0,0,0-0.1-0.1c-0.4-0.4-0.8-0.7-1.1-1c-0.4-0.3-0.7-0.6-1.1-1c0,0-0.1-0.1-0.1-0.1
				c-0.2-0.2-0.4-0.3-0.6-0.5c-0.6-0.5-1.2-1-1.9-1.4c-0.3-0.2-0.6-0.5-1-0.7c-0.3-0.2-0.6-0.4-1-0.6c-0.3-0.2-0.5-0.3-0.8-0.5
				c-0.6-0.3-1.1-0.6-1.7-1c0,0,0,0,0,0c-0.6-0.3-1.2-0.6-1.7-0.9c-0.3-0.1-0.6-0.3-0.8-0.4c-0.5-0.2-1-0.5-1.6-0.7
				c-0.3-0.1-0.6-0.2-0.8-0.3c-0.5-0.2-1-0.4-1.5-0.5c-0.6-0.2-1.2-0.4-1.8-0.6c-0.5-0.1-0.9-0.3-1.4-0.4c-0.1,0-0.3-0.1-0.4-0.1
				c-0.5-0.1-0.9-0.2-1.4-0.3c0,0-0.1,0-0.1,0c0,0-0.1,0-0.1,0c-0.2,0-0.4-0.1-0.6-0.1c0,0-0.1,0-0.1,0c-0.4-0.1-0.7-0.1-1.1-0.2
				c-0.1,0-0.2,0-0.2-0.1h0c-0.2,0-0.4-0.1-0.6-0.1c0,0-0.1,0-0.1,0c0,0-0.1,0-0.1,0c-0.3,0-0.5-0.1-0.8-0.1c0,0-0.1,0-0.1,0
				c-0.2,0-0.3,0-0.5,0s-0.3,0-0.5-0.1c-0.3,0-0.7-0.1-1-0.1h0c0,0,0,0,0,0c0,0,0,0,0,0c-0.3,0-0.6,0-1-0.1c0.2,0,0.4,0,0.6,0
				c22.4-1.6,40-20.3,40-43.1c0-23.8-19.3-43.2-43.2-43.2c-11,0-21,4.1-28.6,10.8c-0.1,0.1-0.2,0.2-0.3,0.3c7-7.7,11.2-17.9,11.2-29
				c0-23.9-19.3-43.2-43.2-43.2s-43.2,19.3-43.2,43.2c0-0.4,0-0.7,0-1.1c-0.6-23.3-19.7-42.1-43.2-42.1c-23.9,0-43.2,19.3-43.2,43.2
				c0,11.2,4.2,21.4,11.2,29c-0.1-0.1-0.3-0.3-0.4-0.4c-7.6-6.6-17.6-10.7-28.4-10.7c-23.9,0-43.2,19.3-43.2,43.2
				c0,22.8,17.6,41.5,40,43.1c0.3,0,0.5,0,0.8,0c-22.8,1.2-40.8,20.1-40.8,43.1c0,23.9,19.3,43.2,43.2,43.2
				c10.6,0,20.3-3.8,27.8-10.1c0.3-0.2,0.5-0.4,0.8-0.7c0.6-0.5,1.1-1,1.6-1.5c-7.8,7.8-12.6,18.6-12.6,30.4
				c0,23.9,19.3,43.2,43.2,43.2c23.4,0,42.5-18.6,43.2-41.8"/>
			<path class="st2" d="M-773,727.9c-0.5,0.6-1.1,1.2-1.6,1.7c-0.1,0.1-0.2,0.2-0.3,0.3c-0.5,0.5-1.1,1-1.6,1.5
				c0.5-0.6,1.1-1.2,1.6-1.7C-774.3,729.1-773.7,728.5-773,727.9z"/>
			<path class="st2" d="M-710.2,647c-2.3,2.3-3.7,5.5-3.7,9h-90c-0.4,0-0.9,0-1.3,0s-0.9,0-1.3,0h-1.8c-22.4-1.6-40-20.3-40-43.1
				c0-23.9,19.3-43.2,43.2-43.2c10.9,0,20.8,4,28.4,10.7l1.2,1.2c0.5,0.5,1,1,1.5,1.5l1.5,1.5L-710.2,647z"/>
			<path class="st2" d="M-803.9,655.9h1.8c-0.3,0-0.5,0-0.8,0c-0.8,0-1.6,0.1-2.4,0.1s-1.6,0-2.4-0.1c-0.3,0-0.5,0-0.8,0h1.8
				c0.5,0,0.9,0,1.3,0S-804.3,655.9-803.9,655.9z"/>
			<path class="st2" d="M-772.7,584.4l-1.5-1.5l-1.5-1.5l-1.2-1.2c0.2,0.1,0.3,0.3,0.4,0.4c1.1,1,2.1,2,3.1,3.1l0,0
				C-773,584-772.8,584.2-772.7,584.4z"/>
			<path class="st2" d="M-554,612.9c0,22.8-17.6,41.5-40,43.1h-1.6c-0.5,0-0.9,0-1.3,0c-0.4,0-0.8,0-1.2,0h-90.3
				c0-3.5-1.4-6.7-3.7-9l62.7-62.7l1-1c0.7-0.7,1.4-1.3,2-2l0.7-0.7c7.6-6.7,17.6-10.8,28.6-10.8C-573.3,569.7-554,589-554,612.9z"
				/>
			<path class="st2" d="M-626,580.7c0.1-0.1,0.2-0.2,0.3-0.3l-0.7,0.7c-0.6,0.7-1.3,1.4-2,2l-1,1c0.1-0.2,0.2-0.3,0.4-0.4
				C-628.1,582.8-627.1,581.7-626,580.7C-626,580.7-626,580.7-626,580.7z"/>
			<path class="st2" d="M-594,655.9c-0.2,0-0.4,0-0.6,0h-0.1c-0.8,0.1-1.6,0.1-2.4,0.1c-0.8,0-1.5,0-2.2-0.1h-0.1
				c-0.3,0-0.6,0-0.9-0.1h2.1c0.4,0,0.8,0,1.2,0c0.5,0,0.9,0,1.3,0H-594z"/>
			<path class="st2" d="M-710.2,664.9l-62,62l-2.8,2.9l-2.4,2.4c-7.5,6.3-17.2,10.1-27.8,10.1c-23.9,0-43.2-19.3-43.2-43.2
				c0-23.1,18.1-41.9,40.8-43.1c0.8,0,1.6,0.1,2.4,0.1s1.6,0,2.4-0.1c0.3,0,0.5,0,0.8,0h88.1C-713.9,659.5-712.5,662.6-710.2,664.9z
				"/>
			<path class="st2" d="M-802.8,656c-0.8,0-1.6,0.1-2.4,0.1s-1.6,0-2.4-0.1c0.3,0,0.7,0,1,0c0.5,0,0.9,0,1.3,0s0.9,0,1.3,0
				C-803.5,656-803.2,656-802.8,656z"/>
			<path class="st2" d="M-772.1,726.9c-0.3,0.3-0.6,0.7-0.9,1c-0.5,0.6-1.1,1.2-1.6,1.7c-0.1,0.1-0.2,0.2-0.3,0.3
				c-0.5,0.5-1.1,1-1.6,1.5c-0.2,0.2-0.5,0.5-0.8,0.7l2.4-2.4L-772.1,726.9z"/>
			<path class="st2" d="M-553.7,697.1c0-0.7-0.1-1.4-0.2-2.1c0,0,0-0.1,0-0.1c0-0.3-0.1-0.6-0.1-1c-0.1-0.9-0.2-1.8-0.4-2.7
				c-0.1-0.3-0.1-0.6-0.2-0.9c-0.2-1.1-0.5-2.2-0.8-3.2c-0.3-1-0.6-2.1-1-3.1c-0.2-0.6-0.5-1.2-0.7-1.8c-0.2-0.4-0.3-0.8-0.5-1.2
				c-0.2-0.4-0.3-0.8-0.5-1.2c-0.1-0.2-0.2-0.5-0.4-0.7c-0.1-0.3-0.3-0.5-0.4-0.8c-0.1-0.1-0.1-0.2-0.2-0.3
				c-0.2-0.4-0.5-0.9-0.7-1.3c-0.3-0.5-0.6-0.9-0.9-1.4c-0.3-0.5-0.6-0.9-0.9-1.3v0c-0.3-0.4-0.6-0.9-1-1.3c-0.3-0.4-0.7-0.8-1-1.2
				c-0.3-0.4-0.6-0.8-1-1.1c-0.1-0.1-0.1-0.2-0.2-0.2c-0.3-0.3-0.6-0.7-0.9-1c0,0,0-0.1-0.1-0.1c-0.4-0.4-0.7-0.7-1.1-1.1
				c-0.3-0.3-0.7-0.6-1-0.9c-0.5-0.4-0.9-0.8-1.4-1.2c-0.4-0.3-0.8-0.7-1.2-1c-0.5-0.4-1-0.8-1.5-1.1c-0.3-0.2-0.7-0.5-1-0.7
				c-0.3-0.2-0.6-0.4-0.9-0.6c-0.3-0.2-0.7-0.4-1-0.6c-0.6-0.4-1.2-0.7-1.8-1c-0.2-0.1-0.5-0.3-0.8-0.4c-0.4-0.2-0.8-0.4-1.3-0.6
				c-0.5-0.2-1-0.4-1.5-0.7c-0.4-0.2-0.8-0.3-1.2-0.5c-0.3-0.1-0.7-0.3-1-0.4c-0.1,0-0.3-0.1-0.4-0.1c-0.3-0.1-0.6-0.2-0.8-0.3
				c-0.2-0.1-0.5-0.2-0.7-0.2c-0.2-0.1-0.5-0.1-0.7-0.2c-0.3-0.1-0.6-0.2-0.9-0.2c-0.2-0.1-0.4-0.1-0.6-0.2c-0.3-0.1-0.6-0.2-1-0.2
				c-0.7-0.2-1.4-0.3-2.1-0.4c-0.3,0-0.6-0.1-0.9-0.1c0,0-0.1,0-0.1,0c0,0-0.1,0-0.1,0c-0.3,0-0.5-0.1-0.8-0.1c0,0-0.1,0-0.1,0
				c-0.2,0-0.3,0-0.5,0c-0.2,0-0.3,0-0.5-0.1h0c-0.2,0-0.4,0-0.5,0c-0.1,0-0.3,0-0.4,0h-0.1c-0.3,0-0.6,0-1-0.1h-0.1
				c-0.8,0.1-1.6,0.1-2.4,0.1c-0.8,0-1.5,0-2.2-0.1h-0.1c-0.1,0-0.2,0-0.3,0c0.1,0,0.1,0,0.2,0c-0.3,0-0.5,0-0.8-0.1h-88.2
				c0,3.5-1.4,6.7-3.7,9l61.6,61.6l1.6,1.6c0.3,0.3,0.7,0.6,1,0.9l0.6,0.6c0.1,0.1,0.2,0.2,0.3,0.3c0,0,0.1,0.1,0.2,0.2
				c0.1,0.1,0.1,0.1,0.2,0.2c0.4,0.4,0.8,0.8,1.2,1.1c0.1,0.1,0.2,0.2,0.3,0.3c0.3,0.3,0.7,0.6,1.1,0.9c0,0,0,0,0.1,0.1
				c0.5,0.4,0.9,0.7,1.4,1c0.5,0.4,0.9,0.7,1.4,1c0.3,0.2,0.5,0.4,0.8,0.5c0.3,0.2,0.6,0.4,0.9,0.5c0.3,0.2,0.5,0.3,0.8,0.5
				c0,0,0,0,0,0c0.2,0.1,0.3,0.2,0.4,0.3c0.3,0.2,0.5,0.3,0.8,0.5c0.8,0.4,1.6,0.8,2.4,1.2c0.3,0.2,0.6,0.3,0.9,0.4
				c0.3,0.1,0.6,0.3,0.9,0.4c1.1,0.5,2.3,0.9,3.5,1.2c0.3,0.1,0.7,0.2,1,0.3c0.7,0.2,1.4,0.4,2.1,0.5c0.3,0.1,0.7,0.2,1,0.2
				c0.3,0.1,0.6,0.1,0.9,0.2c0.3,0,0.6,0.1,0.8,0.2c0.5,0.1,1,0.1,1.5,0.2c0.3,0,0.6,0.1,0.8,0.1c0.2,0,0.4,0,0.6,0.1
				c0.3,0,0.5,0,0.8,0.1c0.7,0,1.3,0.1,2,0.1c0.4,0,0.8,0,1.3,0c0.4,0,0.8,0,1.2,0c0.7,0,1.4-0.1,2.1-0.1c0.2,0,0.3,0,0.5,0
				c0.5,0,1-0.1,1.5-0.2c0.1,0,0.1,0,0.2,0c0.3,0,0.7-0.1,1-0.1c0.7-0.1,1.4-0.2,2.1-0.4c0.4-0.1,0.7-0.2,1.1-0.2
				c0.4-0.1,0.9-0.2,1.3-0.3c0.1,0,0.3-0.1,0.4-0.1c0.4-0.1,0.8-0.2,1.2-0.4c0.4-0.1,0.8-0.2,1.1-0.4c0.2-0.1,0.3-0.1,0.5-0.2
				c0.4-0.1,0.8-0.3,1.2-0.5c0.3-0.1,0.6-0.2,1-0.4c0.3-0.1,0.6-0.3,1-0.4c0.3-0.1,0.5-0.2,0.8-0.4c0.3-0.2,0.7-0.3,1.1-0.5
				c0.3-0.1,0.6-0.3,0.9-0.5c0.3-0.1,0.5-0.3,0.8-0.4c0.3-0.2,0.7-0.4,1-0.6c0.3-0.2,0.6-0.4,0.9-0.5c0.3-0.2,0.6-0.4,0.9-0.6
				c0.3-0.2,0.6-0.4,0.8-0.6c0.6-0.4,1.1-0.8,1.7-1.2c0.3-0.2,0.5-0.4,0.8-0.6c0.3-0.2,0.5-0.4,0.8-0.6c0.3-0.2,0.5-0.4,0.8-0.7
				c0.2-0.2,0.5-0.4,0.8-0.7c0.2-0.2,0.5-0.5,0.7-0.7c1-1,1.9-2,2.8-3c0,0,0,0,0,0c0.2-0.2,0.4-0.5,0.6-0.7c0.3-0.4,0.7-0.8,1-1.3
				c0.3-0.4,0.6-0.9,0.9-1.3c0.4-0.5,0.7-1,1.1-1.6c0.3-0.5,0.7-1.1,1-1.7c0.1-0.2,0.3-0.5,0.4-0.7c0.2-0.3,0.4-0.7,0.5-1
				c0.2-0.4,0.4-0.8,0.6-1.2c0.1-0.3,0.3-0.6,0.4-0.8c0.1-0.2,0.2-0.5,0.3-0.7c0-0.1,0.1-0.2,0.1-0.2c0.1-0.2,0.2-0.5,0.3-0.8v0
				c0-0.1,0.1-0.2,0.1-0.3c0-0.1,0.1-0.3,0.2-0.5c0.1-0.1,0.1-0.3,0.2-0.5c0.1-0.3,0.2-0.5,0.3-0.8c0.1-0.2,0.2-0.5,0.2-0.8
				c0.1-0.4,0.2-0.8,0.3-1.1c0-0.1,0-0.1,0-0.1c0.1-0.3,0.2-0.7,0.3-1c0,0,0-0.1,0-0.1c0,0,0,0,0,0c0.2-0.6,0.3-1.2,0.4-1.8
				c0,0,0-0.1,0-0.1c0-0.2,0.1-0.4,0.1-0.5c0-0.2,0.1-0.4,0.1-0.6c0-0.3,0.1-0.6,0.2-1c0,0,0,0,0,0c0-0.3,0.1-0.7,0.1-1c0,0,0,0,0,0
				c0-0.1,0-0.2,0-0.3c0-0.1,0-0.2,0-0.4c0-0.1,0-0.2,0-0.3c0-0.1,0-0.2,0-0.3c0-0.6,0.1-1.1,0.1-1.7c0,0,0-0.1,0-0.2
				c0-0.1,0-0.3,0-0.4c0-0.2,0-0.5,0-0.7c0-0.3,0-0.7,0-1C-553.7,698.5-553.7,697.8-553.7,697.1z M-604.3,656.6
				c0.2,0,0.5-0.1,0.8-0.1c0.3-0.1,0.7-0.1,1-0.1C-603.1,656.4-603.7,656.5-604.3,656.6z M-601.5,656.2c-0.2,0-0.5,0-0.7,0.1
				C-602,656.2-601.7,656.2-601.5,656.2c0.1,0,0.2,0,0.4,0C-601.3,656.2-601.4,656.2-601.5,656.2z M-600.5,656.1c0.1,0,0.3,0,0.5,0
				c0.1,0,0.2,0,0.2,0C-600,656-600.2,656.1-600.5,656.1z"/>
			<path class="st2" d="M-602.5,656.3c-0.6,0.1-1.2,0.2-1.8,0.3c0.2,0,0.5-0.1,0.8-0.1C-603.2,656.4-602.9,656.3-602.5,656.3z"/>
			<path class="st2" d="M-599.8,656c-0.2,0-0.5,0-0.7,0c0.1,0,0.3,0,0.5,0C-599.9,656-599.9,656-599.8,656z"/>
			<path class="st2" d="M-599.4,656c-0.1,0-0.2,0-0.3,0C-599.6,656-599.6,656-599.4,656L-599.4,656z"/>
			<path class="st2" d="M-594.7,656c-0.8,0.1-1.6,0.1-2.4,0.1c-0.8,0-1.5,0-2.2-0.1c0.4,0,0.7,0,1.1-0.1h0.1c0.4,0,0.8,0,1.2,0
				c0.5,0,0.9,0,1.3,0h0.1C-595.3,656-595,656-594.7,656z"/>
			<path class="st2" d="M-557.8,717.5c0.1-0.3,0.3-0.6,0.4-0.8c-6.7,15.2-21.9,25.9-39.6,25.9c-10.4,0-19.9-3.7-27.3-9.7
				c-0.2-0.2-0.4-0.3-0.6-0.5c-1.8-1.5-3.5-3.2-5-5c-0.2-0.2-0.4-0.5-0.6-0.8l1.6,1.6c0.3,0.3,0.7,0.6,1,0.9l0.6,0.6
				c0.1,0.1,0.2,0.2,0.3,0.3c0,0,0.1,0.1,0.2,0.2c0.1,0.1,0.1,0.1,0.2,0.2c0.4,0.4,0.8,0.8,1.2,1.1c0.1,0.1,0.2,0.2,0.3,0.3
				c0.3,0.3,0.7,0.6,1.1,0.9c0,0,0,0,0.1,0.1c0.5,0.4,0.9,0.7,1.4,1c0.5,0.4,0.9,0.7,1.4,1c0.3,0.2,0.5,0.4,0.8,0.5
				c0.3,0.2,0.6,0.4,0.9,0.5c0.3,0.2,0.5,0.3,0.8,0.5c0,0,0,0,0,0c0.2,0.1,0.3,0.2,0.4,0.3c0.3,0.2,0.5,0.3,0.8,0.5
				c0.8,0.4,1.6,0.8,2.4,1.2c0.3,0.2,0.6,0.3,0.9,0.4c0.3,0.1,0.6,0.3,0.9,0.4c1.1,0.5,2.3,0.9,3.5,1.2c0.3,0.1,0.7,0.2,1,0.3
				c0.7,0.2,1.4,0.4,2.1,0.5c0.3,0.1,0.7,0.2,1,0.2c0.3,0.1,0.6,0.1,0.9,0.2c0.3,0,0.6,0.1,0.8,0.2c0.5,0.1,1,0.1,1.5,0.2
				c0.3,0,0.6,0.1,0.8,0.1c0.2,0,0.4,0,0.6,0.1c0.3,0,0.5,0,0.8,0.1c0.7,0,1.3,0.1,2,0.1c0.4,0,0.8,0,1.3,0c0.4,0,0.8,0,1.2,0
				c0.7,0,1.4-0.1,2.1-0.1c0.2,0,0.3,0,0.5,0c0.5,0,1-0.1,1.5-0.2c0.1,0,0.1,0,0.2,0c0.3,0,0.7-0.1,1-0.1c0.7-0.1,1.4-0.2,2.1-0.4
				c0.4-0.1,0.7-0.2,1.1-0.2c0.4-0.1,0.9-0.2,1.3-0.3c0.1,0,0.3-0.1,0.4-0.1c0.4-0.1,0.8-0.2,1.2-0.4c0.4-0.1,0.8-0.2,1.1-0.4
				c0.2-0.1,0.3-0.1,0.5-0.2c0.4-0.1,0.8-0.3,1.2-0.5c0.3-0.1,0.6-0.2,1-0.4c0.3-0.1,0.6-0.3,1-0.4c0.3-0.1,0.5-0.2,0.8-0.4
				c0.3-0.2,0.7-0.3,1.1-0.5c0.3-0.1,0.6-0.3,0.9-0.5c0.3-0.1,0.5-0.3,0.8-0.4c0.3-0.2,0.7-0.4,1-0.6c0.3-0.2,0.6-0.4,0.9-0.5
				c0.3-0.2,0.6-0.4,0.9-0.6c0.3-0.2,0.6-0.4,0.8-0.6c0.6-0.4,1.1-0.8,1.7-1.2c0.3-0.2,0.5-0.4,0.8-0.6c0.3-0.2,0.5-0.4,0.8-0.6
				c0.3-0.2,0.5-0.4,0.8-0.7c0.2-0.2,0.5-0.4,0.8-0.7c0.2-0.2,0.5-0.5,0.7-0.7c1-1,1.9-2,2.8-3c0,0,0,0,0,0c0.2-0.2,0.4-0.5,0.6-0.7
				c0.3-0.4,0.7-0.8,1-1.3c0.3-0.4,0.6-0.9,0.9-1.3c0.4-0.5,0.7-1,1.1-1.6c0.3-0.5,0.7-1.1,1-1.7c0.1-0.2,0.3-0.5,0.4-0.7
				c0.2-0.3,0.4-0.7,0.5-1C-558.1,718.3-557.9,717.9-557.8,717.5z"/>
		</g>
	</g>
	<path class="st2" d="M-1172.4,702.7V98.2c0,0,4-54.4-47,0.2c-51,54.6-93.4,98.4-93.4,98.4"/>
	<rect x="-1275.3" y="2238.4" class="st5" width="270.9" height="270.9"/>
	<rect x="-1546.9" y="2238.4" class="st6" width="270.9" height="270.9"/>
	<rect x="-1004.4" y="2238.4" class="st7" width="270.9" height="270.9"/>
	<rect x="-738.7" y="2235.8" class="st8" width="270.9" height="270.9"/>
	<rect x="-1574.1" y="320.5" class="st9" width="9" height="415.9"/>
	<line class="st9" x1="-1809.7" y1="395.8" x2="-1574.1" y2="325.9"/>
	<line class="st9" x1="-1310.8" y1="395.8" x2="-1565.2" y2="325.9"/>
	<line class="st9" x1="-1438.4" y1="401" x2="-1565.2" y2="325.9"/>
	<line class="st9" x1="-1700.4" y1="401" x2="-1574.1" y2="325.9"/>
	<line class="st9" x1="-1794.8" y1="391.3" x2="-1327.1" y2="391.3"/>
	<line class="st10" x1="-1574.2" y1="325.9" x2="-1565.2" y2="325.9"/>
	<g>
		<path class="st7" d="M-630-494.1c0,0,0,0.1,0,0.3c0,0,0,0,0,0c-1,11.2-26.6,298.5-35,361.1c-8.1,59.9-51.1,61.7-51.1,61.7
			s-101,8.7-132.8-4.4c-31.8-13.1-38.7-59.9-38.7-59.9l-39.3-358.5l0-0.4"/>
		<path class="st2" d="M-904.3,22.4L-904.3,22.4c0,0.1,0,0.1,0,0.1c0,6.1,55.9,11,124.9,11c19.6,0,38.2-0.4,54.7-1.1"/>
		<path class="st2" d="M-707.9,31.5c32.3-2,53.4-5.3,53.4-9c0,0,0-0.1,0-0.1v0"/>
		<path class="st2" d="M-648-59.2c0,0,0,0.1,0,0.1c0,0.1,0,0.2,0,0.3l0,0C-649.9-52.8-708-48-779.4-48c-5.5,0-10.8,0-16.1-0.1"/>
		<path class="st2" d="M-833-49c-45-1.7-76.6-5.4-77.7-9.8v0c0-0.1,0-0.1,0-0.2c0,0,0-0.1,0-0.1v0"/>
		<path class="st2" d="M-801.4-544.3c7.2,0.1,14.6,0.1,22,0.1c91.8,0,166.7-7.1,171.1-15.9c0.1-0.3,0.2-0.5,0.2-0.8
			c0-9.3-76.7-16.8-171.3-16.8c-53.5,0-101.2,2.4-132.6,6.1c-24.2,2.9-38.6,6.6-38.6,10.6c0,4.6,19.3,8.8,50.5,11.9
			c18.5,1.8,41.3,3.2,66.6,4"/>
		<ellipse class="st4" cx="-778.5" cy="-494" rx="148.5" ry="16.8"/>
		<circle class="st11" cx="-948.6" cy="-641.8" r="18.8"/>
		<line class="st2" x1="-940.2" y1="-625.1" x2="-750.1" y2="-264"/>
		<path class="st11" d="M-786.6-139.4l-36.9,21.3c-8.6,4.9-19.6,2-24.6-6.6l-20.3-35.2c-4.9-8.6-2-19.6,6.6-24.6l36.9-21.3
			c8.6-4.9,19.6-2,24.6,6.6L-780-164C-775-155.4-778-144.4-786.6-139.4z"/>
		<path class="st11" d="M-780.9-219.7l-42.5,3.2c-9.9,0.7-18.6-6.7-19.3-16.6l-3-40.5c-0.7-9.9,6.7-18.6,16.6-19.3l42.5-3.2
			c9.9-0.7,18.6,6.7,19.3,16.6l3,40.5C-763.6-229.1-771.1-220.4-780.9-219.7z"/>
		<path class="st11" d="M-694.8-237.4l-42.5-3.5c-9.9-0.8-17.3-9.5-16.5-19.4l3.3-40.5c0.8-9.9,9.5-17.3,19.4-16.5l42.5,3.5
			c9.9,0.8,17.3,9.5,16.5,19.4l-3.3,40.5C-676.2-244-684.9-236.6-694.8-237.4z"/>
		<path class="st11" d="M-702.4-338.7l-20.4-1.7c-9.9-0.8-17.3-9.5-16.5-19.4l1.6-19c0.8-9.9,9.5-17.3,19.4-16.5l20.4,1.7
			c9.9,0.8,17.3,9.5,16.5,19.4l-1.6,19C-683.8-345.3-692.6-337.9-702.4-338.7z"/>
		<path class="st11" d="M-758.6-367.5l-19.8,5c-9.6,2.4-19.4-3.5-21.8-13.1l-4.6-18.5c-2.4-9.6,3.5-19.4,13.1-21.8l19.8-5
			c9.6-2.4,19.4,3.5,21.8,13.1l4.6,18.5C-743.1-379.7-749-369.9-758.6-367.5z"/>
		<path class="st11" d="M-857.1-411.4l-20.4-1.1c-9.9-0.5-17.5-9-17-18.9l1-19c0.5-9.9,9-17.5,18.9-17l20.4,1.1
			c9.9,0.5,17.5,9,17,18.9l-1,19C-838.7-418.5-847.2-410.9-857.1-411.4z"/>
		<path class="st11" d="M-778.1-297.4l-30.1,30.1c-7,7-18.5,7-25.5,0l-28.7-28.7c-7-7-7-18.5,0-25.5l30.1-30.1c7-7,18.5-7,25.5,0
			l28.7,28.7C-771.1-315.9-771.1-304.4-778.1-297.4z"/>
		<line class="st2" x1="-925.1" y1="-239.3" x2="-925.9" y2="-248.9"/>
		<polyline class="st2" points="-921.9,-199.1 -910.8,-59.2 -910.8,-59.1 -910.8,-58.8 -910.8,-58.8 -904.3,22.4 -904.3,22.4 		"/>
		<line class="st2" x1="-928.9" y1="-286.4" x2="-950.7" y2="-561.2"/>
		<polyline class="st2" points="-608.2,-561.3 -608.3,-560.1 -612.8,-503.8 		"/>
		<polyline class="st2" points="-654.5,22.6 -654.5,22.4 -654.5,22.4 -648.1,-58.7 -648.1,-58.8 -648,-59.2 -621,-399.9 		"/>
		<line class="st2" x1="-616.3" y1="-459.4" x2="-617" y2="-450.3"/>
		<g>
			
				<rect x="-692.4" y="-751.5" transform="matrix(0.9739 0.2268 -0.2268 0.9739 -144.3136 141.5529)" class="st9" width="8.4" height="388.7"/>
			<line class="st9" x1="-878.5" y1="-728.8" x2="-649.3" y2="-742.5"/>
			<line class="st9" x1="-424.5" y1="-623" x2="-641.2" y2="-740.6"/>
			<line class="st9" x1="-541.7" y1="-645.4" x2="-641.2" y2="-740.6"/>
			<line class="st9" x1="-780.1" y1="-700.9" x2="-649.3" y2="-742.5"/>
			<line class="st9" x1="-864" y1="-729.8" x2="-438.3" y2="-630.7"/>
			<line class="st10" x1="-649.4" y1="-742.5" x2="-641.2" y2="-740.6"/>
		</g>
	</g>
	<g>
		<path class="st7" d="M107-473.2c0,0-0.3,1.3-0.9,3.7c-7.1,28.3-54.2,211.1-96.2,232c-24.4,12.1-75.7,16.9-128.4,10.7
			c-17.9-2.1-32.1-8.8-43.2-16.8c-16.9-12.2-29.1-29.8-35.2-49.6l-53.8-175.4l-1.4-4.6H107z"/>
		<path class="st11" d="M-85-346.3l-47.5,11.9c-9.6,2.4-19.4-3.5-21.8-13.1l-11.3-45.4c-2.4-9.6,3.5-19.4,13.1-21.8l47.5-11.9
			c9.6-2.4,19.4,3.5,21.8,13.1l11.3,45.4C-69.5-358.5-75.3-348.7-85-346.3z"/>
		<path class="st9" d="M-201.7-607c-3.8,0.6-7.4,1.3-11,2"/>
		<path class="st9" d="M-152.6-613.2c23.8-2.1,49.7-3.2,76.7-3.2c65.5,0,124.1,6.7,163.3,17.3c30.7,8.3,49.5,19,50.3,30.6
			c0,0.3,0,0.5,0,0.8c0,0.9-0.1,1.7-0.3,2.6v0c-3.8,16.5-43.4,30.8-101.4,38.9c-32.6,4.6-70.9,7.2-111.9,7.2
			c-113.9,0-206.9-20.3-213.3-46v0c-0.2-0.9-0.4-1.8-0.4-2.8c0-9.6,12.3-18.6,33.4-26.2"/>
		<ellipse class="st4" cx="-72.5" cy="-473.2" rx="179.6" ry="36.4"/>
		<path class="st9" d="M104-139.2L104-139.2c0.1,0.6,0.1,1.1,0.1,1.7c0,22.7-80.6,41.1-180,41.1s-180-18.4-180-41.1c0,0,0,0,0-0.1"
			/>
		<line class="st9" x1="-289.4" y1="-567.6" x2="-255.8" y2="-137.2"/>
		<line class="st9" x1="109.9" y1="-214" x2="103.8" y2="-136.7"/>
		<polyline class="st9" points="137.7,-568.5 137.5,-565.1 137.5,-565.1 119.6,-337.7 112.9,-252.3 112.9,-252.3 		"/>
		<line class="st9" x1="-152.2" y1="-100.3" x2="-156.6" y2="-171"/>
		<path class="st9" d="M-159.2-210.9l-2.1-32.5l-5.7-90c-17.5-18.5-34.9-25.3-50.2-26.1c-28.6-1.4-50.5,18.2-54.3,21.8
			c-0.4,0.4-0.6,0.6-0.6,0.6"/>
		<path class="st9" d="M119.6-337.6c0,0-61.5-49.8-108.2,6.8L-3.4-100.3"/>
		<path class="st9" d="M-166.9-333.3c0,0,99-63.9,178.3,2.5"/>
		<g>
			<circle class="st2" cx="127.8" cy="-655.5" r="39"/>
			<line class="st2" x1="175.3" y1="-724.1" x2="2.5" y2="-478.4"/>
		</g>
	</g>
	<path class="st7" d="M1371,978.4c0,0-0.3,1.1-0.7,3c-5.8,23.1-15.1,236.9-44,262.1c-19.8,17.3-90,22.1-134.5,20.8
		c-14.7-0.4-45.3-8.6-55.6-12.9c-22-9.1-29.7-26.2-35.1-42.9c-2.7-8.1-5.4-21.8-6.1-30.3L1079,986c-0.2-2.6-0.7-5.1-1.5-7.6v0H1371z
		"/>
	<path class="st11" d="M1191.3,1100.8l-51.7,12.9c-9.6,2.4-19.4-3.5-21.8-13.1l-12.4-49.5c-2.4-9.6,3.5-19.4,13.1-21.8l51.7-12.9
		c9.6-2.4,19.4,3.5,21.8,13.1l12.4,49.5C1206.8,1088.5,1200.9,1098.4,1191.3,1100.8z"/>
	<path class="st11" d="M1215.5,1200.8l-51.4-14.1c-9.5-2.6-15.2-12.6-12.6-22.1l13.5-49.2c2.6-9.5,12.6-15.2,22.1-12.6l51.4,14.1
		c9.5,2.6,15.2,12.6,12.6,22.1l-13.5,49.2C1235,1197.8,1225,1203.5,1215.5,1200.8z"/>
	<path class="st11" d="M1315.5,1147.3h-53.3c-9.9,0-18-8.1-18-18v-51c0-9.9,8.1-18,18-18h53.3c9.9,0,18,8.1,18,18v51
		C1333.5,1139.2,1325.4,1147.3,1315.5,1147.3z"/>
	<path class="st9" d="M1124.3,868.1c-2.9,0.4-5.8,0.9-8.5,1.4"/>
	<path class="st9" d="M1073.5,880.1c-16.8,6.1-26.6,13.4-26.6,21.1c0,0.8,0.1,1.5,0.3,2.2l0,0c5.2,20.9,81.2,37.6,174.3,37.6
		c33.6,0,64.9-2.2,91.5-5.9c11.4-1.6,21.9-3.5,31.3-5.6"/>
	<path class="st9" d="M1366.6,923.4c17-5.8,27.5-12.6,29.2-20c0.2-0.7,0.2-1.4,0.2-2.1c0-0.2,0-0.5,0-0.7c-0.7-9.5-16-18.2-41.1-25
		c-32-8.6-79.9-14.1-133.4-14.1c-21.5,0-42,0.9-61,2.5"/>
	<ellipse class="st4" cx="1224.3" cy="978.4" rx="146.8" ry="29.7"/>
	<path class="st9" d="M1368.5,1251.5L1368.5,1251.5c0.1,0.5,0.1,0.9,0.1,1.4c0,18.5-65.9,33.6-147.1,33.6
		c-81.2,0-147.1-15-147.1-33.6c0,0,0,0,0-0.1"/>
	<line class="st9" x1="1047" y1="901.3" x2="1074.4" y2="1253.1"/>
	<line class="st9" x1="1375.1" y1="1168.5" x2="1374.5" y2="1176"/>
	<line class="st9" x1="1370.1" y1="1231.2" x2="1368.4" y2="1253.5"/>
	<polyline class="st9" points="1378.3,1127.8 1395.9,903.4 1396.1,900.6 	"/>
	<circle class="st2" cx="1388" cy="829.5" r="26.1"/>
	<line class="st2" x1="1426.8" y1="773.4" x2="1213.2" y2="1077.1"/>
	<path class="st7" d="M2624.1,1515.7c0,0-0.3,1.4-0.7,3.9c-5.8,30.1-15.1,308.6-44,341.4c-19.8,22.5-90,28.8-134.5,27.1
		c-14.7-0.6-45.3-11.2-55.6-16.8c-22-11.9-29.7-34.1-35.1-55.8c-2.7-10.6-5.4-28.4-6.1-39.5l-15.9-250.4c-0.2-3.4-0.7-6.7-1.5-9.9
		l0,0H2624.1z"/>
	<path class="st11" d="M2439.8,1637.6l-51.7,12.9c-9.6,2.4-19.4-3.5-21.8-13.1l-12.4-49.5c-2.4-9.6,3.5-19.4,13.1-21.8l51.7-12.9
		c9.6-2.4,19.4,3.5,21.8,13.1l12.4,49.5C2455.3,1625.4,2449.4,1635.2,2439.8,1637.6z"/>
	<path class="st11" d="M2443.9,1836l-51.4-14.1c-9.5-2.6-15.2-12.6-12.6-22.1l13.5-49.2c2.6-9.5,12.6-15.2,22.1-12.6l51.4,14.1
		c9.5,2.6,15.2,12.6,12.6,22.1l-13.5,49.2C2463.4,1832.9,2453.4,1838.6,2443.9,1836z"/>
	<path class="st11" d="M2558.1,1773.2h-53.3c-9.9,0-18-8.1-18-18v-51c0-9.9,8.1-18,18-18h53.3c9.9,0,18,8.1,18,18v51
		C2576.1,1765.1,2568,1773.2,2558.1,1773.2z"/>
	<path class="st9" d="M2377.5,1372c-2.9,0.6-5.8,1.2-8.5,1.8"/>
	<path class="st9" d="M2326.6,1387.6c-16.8,8-26.6,17.4-26.6,27.5c0,1,0.1,1.9,0.3,2.9l0,0.1c5.2,27.3,81.2,48.9,174.3,48.9
		c33.6,0,64.9-2.8,91.5-7.7c11.4-2.1,21.9-4.5,31.3-7.3"/>
	<path class="st9" d="M2619.8,1444c17-7.5,27.5-16.5,29.2-26.1c0.2-0.9,0.2-1.8,0.2-2.8c0-0.3,0-0.6,0-0.9
		c-0.7-12.4-16.1-23.8-41.1-32.6c-32-11.3-79.9-18.4-133.4-18.4c-21.5,0-42,1.1-61,3.3"/>
	<ellipse class="st4" cx="2477.4" cy="1509.4" rx="146.8" ry="32.4"/>
	<path class="st9" d="M2621.6,1871.4L2621.6,1871.4c0.1,0.6,0.1,1.2,0.1,1.8c0,24.2-65.9,43.7-147.1,43.7
		c-81.2,0-147.1-19.6-147.1-43.7c0,0,0,0,0-0.1"/>
	<line class="st9" x1="2300.1" y1="1415.2" x2="2327.6" y2="1873.5"/>
	<line class="st9" x1="2633.1" y1="1660.1" x2="2632.2" y2="1669.6"/>
	<line class="st9" x1="2627.6" y1="1729.7" x2="2621.8" y2="1833.7"/>
	<line class="st9" x1="2649.3" y1="1415.2" x2="2633.1" y2="1644.3"/>
	<line class="st9" x1="2648.6" y1="1410.6" x2="2648.6" y2="1410.6"/>
	<g>
		<path class="st7" d="M-1695.2-582.3C-1695.2-582.3-1695.2-582.3-1695.2-582.3c-1.1,0.9-38,31-75,61c0,0,0,0,0,0
			c-7,5.7-14,11.4-20.8,16.9c-25,20.4-46.7,38-52.6,42.8c-16.2,13.1-31.8,0-31.8,0L-2011.6-572l-17.4-14.1c0,0-0.1-0.1-0.1-0.1
			l-0.1-0.1l-0.8-0.7l11.4,0.2l215.7,3h0L-1695.2-582.3z"/>
		<path class="st4" d="M-1684.6-591.8c0,3.3-3.8,6.5-10.6,9.5c-18.7,8.1-60.4,14.4-112.5,16.9c-1.5,0.1-3,0.1-4.5,0.2
			c-7.9,0.3-16,0.6-24.2,0.8c-7.3,0.2-14.7,0.2-22.2,0.2c-67.3,0-125.6-6.1-154.6-14.9c-7.2-2.2-12.5-4.6-15.8-7
			c0,0-0.1-0.1-0.1-0.1c-0.3-0.2-0.6-0.5-0.9-0.7c-1.2-1.1-2-2.2-2.4-3.3c-0.2-0.5-0.3-1-0.3-1.6c0-8.8,25.8-16.6,66.1-21.6
			c29.7-3.7,67.2-6,108-6c25.8,0,50.2,0.9,72.2,2.5c12.7,0.9,24.5,2.1,35.3,3.4C-1710.6-608.4-1684.6-600.6-1684.6-591.8z"/>
		<path class="st2" d="M-1759.2-15.6c1.3,0.8,1.9,1.5,1.9,2.3c0,6.6-45.3,11.9-101.2,11.9c-55.9,0-101.2-5.3-101.2-11.9
			c0-0.5,0.3-1.1,0.9-1.6c0,0,0,0,0.1-0.1l0.2-0.2"/>
		<line class="st2" x1="-1764.8" y1="-20.1" x2="-1764.8" y2="-20.1"/>
		<path class="st2" d="M-1938.3-18c15.6,2.5,39.4,4.3,66.7,4.7"/>
		<polyline class="st9" points="-1959.7,-13.3 -1958.7,-14.9 -1958.7,-14.9 -1958.7,-14.9 -1958.5,-15.1 -1957.8,-15.6 
			-1951.3,-20.9 -1947.9,-23.6 -1858.6,-95.7 -1850.9,-89.5 		"/>
		<polyline class="st9" points="-1807.4,-54.4 -1764.8,-20.1 -1764.8,-20.1 -1759.3,-15.6 -1757.9,-14.5 -1757.3,-13.3 		"/>
		<line class="st9" x1="-1832.5" y1="-74.7" x2="-1834.8" y2="-76.5"/>
		<line class="st11" x1="-1859.7" y1="-431" x2="-1859.7" y2="-95.7"/>
		<g>
			<line class="st2" x1="-1704.2" y1="-782.1" x2="-1863" y2="-463.2"/>
			
				<ellipse transform="matrix(0.4459 -0.8951 0.8951 0.4459 -534.1016 -1931.9524)" class="st2" cx="-1827.5" cy="-534.6" rx="36.8" ry="27.1"/>
		</g>
		<ellipse class="st2" cx="-1859.5" cy="-641" rx="257.7" ry="30.3"/>
		<polyline class="st9" points="-2117.1,-641 -2114.8,-636.9 -2114.8,-636.9 -2114.1,-636.4 -2068.6,-599.6 		"/>
		<polyline class="st9" points="-2015.7,-556.9 -1859.7,-431 -1819.7,-463.3 		"/>
		<polyline class="st9" points="-1754.4,-516 -1606.8,-635.1 -1606.8,-635.1 -1603.2,-638 -1601.8,-641 		"/>
		<line class="st9" x1="-1789.2" y1="-487.9" x2="-1793.8" y2="-484.2"/>
		<line class="st9" x1="-2044.1" y1="-579.8" x2="-2049" y2="-583.8"/>
	</g>
	<path class="st2" d="M1530.3,942.2c-1.2-1-2.5-2.1-3.6-3.2"/>
	<g>
		<path class="st2" d="M880.1-794.9L880.1-794.9c-2,0-4.1,0-6.1,0c-82.7,0-149.7-8.5-149.7-18.9c0-5,15.2-9.5,40.1-12.9"/>
		<path class="st2" d="M796.4-830c22.6-1.7,49.2-2.7,77.6-2.7c82.7,0,149.7,8.5,149.7,19c0,0.2,0,0.3-0.1,0.5c0,0.1-0.1,0.3-0.1,0.4
			c0,0,0,0.1,0,0.1c-0.1,0.1-0.1,0.2-0.2,0.4c-0.4,0.7-1,1.3-1.9,2c-0.2,0.2-0.5,0.3-0.7,0.5c-0.5,0.3-1.1,0.7-1.8,1
			c-0.3,0.1-0.5,0.2-0.8,0.4c-0.3,0.2-0.7,0.3-1,0.4c-0.4,0.1-0.7,0.3-1.1,0.4c-0.4,0.1-0.8,0.3-1.2,0.4c-0.2,0.1-0.4,0.1-0.6,0.2
			c-0.7,0.2-1.4,0.4-2.1,0.7c-0.9,0.3-2,0.6-3,0.8c-0.5,0.1-1,0.3-1.6,0.4c-0.5,0.1-1,0.3-1.6,0.4c-1.9,0.4-4,0.9-6.2,1.3
			c-0.9,0.2-1.8,0.4-2.8,0.5c-1.3,0.2-2.5,0.4-3.9,0.7c-1.1,0.2-2.2,0.4-3.4,0.6c-2.3,0.3-4.7,0.7-7.2,1c-0.6,0.1-1.2,0.2-1.8,0.2
			c-5.3,0.7-11,1.3-17.1,1.9c-0.9,0.1-1.9,0.2-2.8,0.2c-5.9,0.5-12.2,1-18.7,1.4c-2.1,0.1-4.2,0.3-6.3,0.4c-0.4,0-0.8,0.1-1.2,0.1
			c-1.5,0.1-3,0.2-4.5,0.2c-3,0.2-6.1,0.3-9.2,0.4"/>
		<path class="st2" d="M933.5-104.1c-1.8-0.1-3.5-0.2-5.3-0.3"/>
		<path class="st2" d="M967.7-101.5c34.2,3.5,56,8.8,56,14.8c0,10.5-67,18.9-149.7,18.9c-82.7,0-149.7-8.5-149.7-18.9
			c0-9.8,58.4-17.8,133.4-18.8"/>
		<path class="st2" d="M905.2-105.3c-4.7-0.1-9.5-0.2-14.3-0.3"/>
		<path class="st2" d="M843.5-460.1c-23.4-4.2-45.1-13-64.2-25.6c0,0,0,0,0,0"/>
		<path class="st2" d="M745.8-514.3c-27.8-30.7-44.7-71.4-44.7-116c0-8.6,0.6-17.1,1.9-25.4l21.4-158c0,10.5,67,18.9,149.7,18.9
			c2,0,4.1,0,6.1,0h0"/>
		<path class="st2" d="M905.1-460.2C905.1-460.2,905.1-460.2,905.1-460.2c80.7-14.7,141.8-85.2,141.8-170.1c0-8.6-0.6-17.1-1.9-25.4
			h0l-21.4-158c0,0.2,0,0.3-0.1,0.5c0,0.1-0.1,0.3-0.1,0.4c0,0,0,0.1,0,0.1c-0.1,0.1-0.1,0.2-0.2,0.4c-0.4,0.7-1,1.3-1.9,2
			c-0.2,0.2-0.5,0.3-0.7,0.5c-0.5,0.3-1.1,0.7-1.8,1c-0.3,0.1-0.5,0.2-0.8,0.4c-0.3,0.2-0.7,0.3-1,0.4c-0.4,0.1-0.7,0.3-1.1,0.4
			c-0.4,0.1-0.8,0.3-1.2,0.4c-0.2,0.1-0.4,0.1-0.6,0.2c-0.7,0.2-1.4,0.4-2.1,0.7c-0.9,0.3-2,0.6-3,0.8c-0.5,0.1-1.1,0.3-1.6,0.4
			c-0.5,0.1-1,0.3-1.6,0.4c-1.9,0.4-4,0.9-6.2,1.3c-0.9,0.2-1.8,0.4-2.8,0.5c-1.3,0.2-2.5,0.4-3.9,0.7c-1.1,0.2-2.2,0.4-3.4,0.6
			c-2.3,0.3-4.7,0.7-7.2,1c-0.6,0.1-1.2,0.2-1.8,0.2c-5.3,0.7-11,1.3-17.1,1.9c-0.9,0.1-1.9,0.2-2.8,0.2c-5.9,0.5-12.2,1-18.7,1.4
			c-2.1,0.1-4.2,0.3-6.3,0.4c-0.4,0-0.8,0.1-1.2,0.1c-1.5,0.1-3,0.2-4.5,0.2c-3,0.2-6.1,0.3-9.2,0.4"/>
		<path class="st2" d="M867.4-375.2c0-2.5,0-5,0-7.5"/>
		<path class="st2" d="M867.5-343.3c-0.1,93.5-1.5,218.9-1.5,218.9s-0.2,8-8.2,18.9c-0.1,0.1-0.2,0.3-0.3,0.4"/>
		<path class="st2" d="M843.5-460.1c5.6,2.2,19.8,8.7,22.5,17.3c0.7,2.2,1.1,16.2,1.3,37.4"/>
		<path class="st11" d="M891.2-105.2c-9-11.1-8.9-19.3-8.9-19.3s-3.4-307.7,0-318.4c2.7-8.7,17.4-15.2,22.9-17.4c0,0,0,0,0,0"/>
		<path class="st7" d="M1016-764.6c0,0,12.6,71.4,19.3,124.6c6.7,53.3-25.2,88.6-42,111c-16.8,22.4-50.4,46.5-81.3,54.9
			c-30.8,8.4-62.2,0-62.2,0s-66.2-18.5-107.1-66.7c-40.9-48.2-29.1-105.4-29.1-105.4l16.1-118.5H1016z"/>
		<ellipse class="st4" cx="872.8" cy="-764.6" rx="143.2" ry="18.9"/>
	</g>
	<path class="st11" d="M-958.3,1689.2c-0.7,2-1.4,4-2.1,5.9"/>
	<path class="st12" d="M1392.3,1470.9c0,0.1,0,0.3,0,0.4v-0.8C1392.3,1470.7,1392.3,1470.8,1392.3,1470.9z"/>
	<path class="st12" d="M1392.3,1549.5v-1c0,0.1,0,0.2,0,0.2v0.1v0.2c0,0,0,0.1,0,0.1c0,0,0,0,0,0.1c0.1,8.8,7.3,16,16.2,16
		c8.9,0,16.2-7.3,16.2-16.2c0-4-1.5-7.7-3.9-10.5c-0.7-0.6-1.3-1.2-1.9-1.9c-0.1-0.1-0.2-0.2-0.2-0.3l0.6,0.6l1.3,1.3l0.5,0.5"/>
	<path class="st12" d="M1419.5,1482.7l-0.4,0.4c0-0.1,0.1-0.1,0.1-0.2c0.4-0.4,0.8-0.8,1.2-1.2c0,0,0,0,0,0c0,0,0.1-0.1,0.1-0.1
		l-0.3,0.3C1420,1482.2,1419.8,1482.5,1419.5,1482.7z"/>
	<path class="st12" d="M1429.7,1510c0,0-0.1,0-0.1,0c0,0,0,0,0,0C1429.6,1510,1429.7,1510,1429.7,1510z"/>
	<path class="st12" d="M1430.2,1509.9c-0.1,0-0.2,0-0.3,0C1430,1510,1430.1,1510,1430.2,1509.9
		C1430.2,1509.9,1430.2,1509.9,1430.2,1509.9z"/>
	<path class="st12" d="M1432.4,1509.9c-0.1,0-0.2,0-0.2,0h0c-0.3,0-0.6,0-0.9,0c-0.3,0-0.6,0-0.8,0h0c-0.1,0-0.2,0-0.3,0h0.8
		c0.1,0,0.3,0,0.5,0c0.2,0,0.3,0,0.5,0H1432.4z"/>
	<path class="st12" d="M1432.5,1510L1432.5,1510c-0.1,0-0.3,0-0.4,0C1432.3,1509.9,1432.4,1509.9,1432.5,1510
		C1432.5,1509.9,1432.5,1509.9,1432.5,1510z"/>
	<path class="st12" d="M1433.1,1510c-0.1,0-0.1,0-0.2,0h0c-0.1,0-0.1,0-0.2,0c0.1,0,0.1,0,0.2,0C1433,1510,1433,1510,1433.1,1510z"
		/>
	<path class="st12" d="M1446.5,1520.5c0-0.1,0-0.1-0.1-0.2c-0.1-0.2-0.2-0.4-0.2-0.6c-0.1-0.2-0.1-0.3-0.2-0.5
		c-0.1-0.1-0.1-0.3-0.2-0.4c0-0.1-0.1-0.2-0.1-0.3c0-0.1-0.1-0.2-0.2-0.3c0,0,0-0.1-0.1-0.1c-0.1-0.2-0.2-0.3-0.3-0.5
		c-0.1-0.2-0.2-0.3-0.3-0.5c-0.1-0.2-0.2-0.3-0.3-0.5v0c-0.1-0.2-0.2-0.3-0.4-0.5s-0.2-0.3-0.4-0.5c-0.1-0.1-0.2-0.3-0.4-0.4
		c0,0,0-0.1-0.1-0.1c-0.1-0.1-0.2-0.3-0.3-0.4c0,0,0,0,0,0c-0.1-0.1-0.3-0.3-0.4-0.4c-0.1-0.1-0.2-0.2-0.4-0.4
		c-0.2-0.2-0.3-0.3-0.5-0.5c-0.2-0.1-0.3-0.3-0.5-0.4c-0.2-0.1-0.4-0.3-0.6-0.4c-0.1-0.1-0.2-0.2-0.4-0.3c-0.1-0.1-0.2-0.1-0.3-0.2
		c-0.1-0.1-0.3-0.2-0.4-0.2c-0.2-0.1-0.4-0.3-0.7-0.4c-0.1-0.1-0.2-0.1-0.3-0.1c-0.2-0.1-0.3-0.2-0.5-0.2c-0.2-0.1-0.4-0.2-0.6-0.2
		c-0.1-0.1-0.3-0.1-0.5-0.2c-0.1-0.1-0.3-0.1-0.4-0.1c0,0-0.1,0-0.1-0.1c-0.1,0-0.2-0.1-0.3-0.1c-0.1,0-0.2-0.1-0.3-0.1
		c-0.1,0-0.2-0.1-0.3-0.1c-0.1,0-0.2-0.1-0.3-0.1c-0.1,0-0.1,0-0.2-0.1c-0.1,0-0.2-0.1-0.4-0.1c-0.3-0.1-0.5-0.1-0.8-0.2
		c-0.1,0-0.2,0-0.3,0c0.1,0,0.1,0,0.2,0h0c0.2,0,0.4,0.1,0.5,0.1c0.1,0,0.1,0,0.2,0c0,0,0,0,0,0c0,0,0,0,0,0c0.2,0,0.3,0.1,0.5,0.1
		c0.1,0,0.1,0,0.1,0c0.2,0,0.3,0.1,0.5,0.1c0.2,0.1,0.4,0.1,0.7,0.2c0.2,0.1,0.4,0.1,0.5,0.2c0.1,0,0.2,0.1,0.3,0.1
		c0.2,0.1,0.4,0.2,0.6,0.3c0.1,0,0.2,0.1,0.3,0.1c0.2,0.1,0.4,0.2,0.7,0.3c0,0,0,0,0,0c0.2,0.1,0.4,0.2,0.6,0.4
		c0.1,0.1,0.2,0.1,0.3,0.2c0.1,0.1,0.2,0.2,0.4,0.2c0.1,0.1,0.2,0.2,0.4,0.3c0.2,0.2,0.5,0.3,0.7,0.5c0.1,0.1,0.2,0.1,0.2,0.2
		c0,0,0,0,0,0c0.1,0.1,0.3,0.2,0.4,0.4c0.1,0.1,0.3,0.3,0.4,0.4c0,0,0,0,0,0c0.1,0.1,0.2,0.2,0.3,0.3c0.1,0.1,0.2,0.2,0.3,0.3
		c0.1,0.1,0.2,0.3,0.4,0.4c0.1,0.1,0.2,0.3,0.4,0.4c0.1,0.1,0.2,0.2,0.2,0.3c0,0,0,0,0,0c0.1,0.2,0.3,0.3,0.4,0.5
		c0.1,0.1,0.2,0.2,0.3,0.4c0.1,0.2,0.2,0.3,0.3,0.5c0.1,0.2,0.2,0.3,0.3,0.5c0.1,0.1,0.1,0.2,0.2,0.3c0.1,0.2,0.2,0.4,0.3,0.7
		c0.1,0.2,0.2,0.4,0.3,0.7c0.1,0.1,0.1,0.2,0.1,0.3c0.1,0.3,0.3,0.7,0.4,1c0,0.1,0.1,0.2,0.1,0.4c0,0.1,0.1,0.2,0.1,0.4
		c0.1,0.2,0.1,0.4,0.1,0.6c0,0,0,0,0,0c0,0.2,0.1,0.3,0.1,0.5c0,0.1,0,0.1,0,0.2c-0.1-0.4-0.2-0.8-0.3-1.2
		C1446.7,1521.2,1446.6,1520.9,1446.5,1520.5z"/>
	<line class="st12" x1="1431.8" y1="1509.9" x2="1430.8" y2="1509.9"/>
	<line class="st12" x1="1420.3" y1="1482" x2="1419.5" y2="1482.7"/>
	<path class="st12" d="M1392.3,1470.9c0,0.1,0,0.3,0,0.4v-0.8C1392.3,1470.7,1392.3,1470.8,1392.3,1470.9z"/>
	<path class="st12" d="M1420.4,1481.8c-0.1,0.1-0.1,0.1-0.2,0.2c-0.2,0.3-0.5,0.5-0.8,0.8c-0.1,0.1-0.2,0.1-0.2,0.2
		C1419.6,1482.5,1420,1482.2,1420.4,1481.8z"/>
	<path class="st12" d="M1392.3,1549c0-0.1,0-0.1,0-0.2L1392.3,1549c0,0,0,0.1,0,0.1V1549z"/>
	<path class="st12" d="M1420.8,1538.5c-0.7-0.6-1.3-1.2-1.9-1.9c0.1,0.1,0.2,0.2,0.4,0.3c0.1,0.1,0.3,0.2,0.4,0.3l0.2,0.2
		c0,0,0.1,0.1,0.1,0.1c0,0,0,0,0.1,0.1c0,0,0,0,0.1,0.1c0.1,0.1,0.3,0.3,0.4,0.4C1420.7,1538.3,1420.8,1538.4,1420.8,1538.5z"/>
	<path class="st12" d="M1392.3,1548.7v0.3c0,0,0,0.1,0,0.1c0,0,0,0,0,0.1c0,0.1,0,0.2,0,0.3v-1
		C1392.3,1548.5,1392.3,1548.6,1392.3,1548.7z"/>
	<path class="st12" d="M1430.2,1509.9c-0.1,0-0.2,0-0.3,0C1430,1510,1430.1,1510,1430.2,1509.9
		C1430.2,1509.9,1430.2,1509.9,1430.2,1509.9z"/>
	<path class="st12" d="M1420.4,1481.8c0,0,0.1-0.1,0.1-0.1l-0.3,0.3c-0.2,0.3-0.5,0.5-0.8,0.8l-0.4,0.4c0-0.1,0.1-0.1,0.1-0.2
		C1419.6,1482.5,1420,1482.2,1420.4,1481.8C1420.4,1481.8,1420.4,1481.8,1420.4,1481.8z"/>
	<path class="st12" d="M1432.4,1509.9c-0.1,0-0.2,0-0.2,0h0c-0.3,0-0.6,0-0.9,0c-0.3,0-0.6,0-0.8,0h0c-0.1,0-0.2,0-0.3,0h0.8
		c0.1,0,0.3,0,0.5,0c0.2,0,0.3,0,0.5,0H1432.4z"/>
	<path class="st12" d="M1447.5,1525.3c0-0.1,0-0.2,0-0.3c0-0.1,0-0.1,0-0.2c0-0.1,0-0.1,0-0.2v0c0-0.1,0-0.2,0-0.4c0,0,0-0.1,0-0.1
		c0-0.2-0.1-0.5-0.1-0.7c0-0.1,0-0.2,0-0.2c0-0.1,0-0.2-0.1-0.3c-0.1-0.4-0.2-0.8-0.3-1.2c-0.1-0.4-0.2-0.7-0.4-1.1c0,0,0,0,0-0.1
		c-0.1-0.2-0.2-0.4-0.3-0.7c-0.1-0.2-0.1-0.3-0.2-0.5c-0.1-0.1-0.1-0.3-0.2-0.4c0-0.1-0.1-0.2-0.1-0.3c-0.1-0.1-0.1-0.2-0.2-0.3
		c0,0-0.1-0.1-0.1-0.1c0,0,0,0,0,0c0,0,0,0,0,0c-0.1-0.1-0.2-0.3-0.2-0.4c-0.1-0.2-0.2-0.3-0.3-0.5c-0.1-0.2-0.2-0.3-0.3-0.5v0
		c-0.1-0.2-0.2-0.3-0.4-0.5c-0.1-0.2-0.2-0.3-0.4-0.5c-0.1-0.1-0.2-0.3-0.4-0.4c0,0,0-0.1-0.1-0.1c-0.1-0.1-0.2-0.2-0.4-0.4l0,0
		c-0.1-0.1-0.3-0.3-0.4-0.4c-0.1-0.1-0.2-0.2-0.4-0.3c-0.2-0.2-0.3-0.3-0.5-0.5c-0.2-0.1-0.3-0.2-0.5-0.4c-0.2-0.1-0.4-0.3-0.6-0.4
		c-0.1-0.1-0.2-0.2-0.4-0.2c-0.1-0.1-0.2-0.2-0.3-0.2c-0.1-0.1-0.3-0.2-0.4-0.2c-0.2-0.1-0.4-0.2-0.7-0.4c-0.1-0.1-0.2-0.1-0.3-0.2
		c-0.1,0-0.2-0.1-0.2-0.1c-0.1,0-0.1-0.1-0.2-0.1c0,0,0,0,0,0c-0.2-0.1-0.4-0.2-0.6-0.2c0,0,0,0-0.1,0c-0.1,0-0.3-0.1-0.4-0.2
		c-0.1,0-0.3-0.1-0.4-0.1c0,0-0.1,0-0.1,0c-0.1,0-0.2-0.1-0.3-0.1c-0.1,0-0.2-0.1-0.3-0.1c-0.1,0-0.2,0-0.2-0.1
		c-0.1,0-0.2-0.1-0.3-0.1c-0.1,0-0.2,0-0.2-0.1c-0.1,0-0.2-0.1-0.4-0.1c0,0-0.1,0-0.1,0c0,0,0,0-0.1,0c-0.2-0.1-0.4-0.1-0.7-0.1
		c0,0-0.1,0-0.1,0c-0.1,0-0.1,0-0.2,0c0,0,0,0,0,0h0c-0.1,0-0.2,0-0.3,0c0,0,0,0,0,0c-0.1,0-0.1,0-0.2,0c-0.1,0-0.1,0-0.2,0h0
		c-0.1,0-0.1,0-0.2,0c-0.1,0-0.1,0-0.2,0h0c-0.1,0-0.2,0-0.4,0h0c-0.3,0-0.6,0-0.9,0c-0.3,0-0.6,0-0.8,0h0c0,0,0,0,0,0
		c-0.1,0-0.2,0-0.3,0h-33c0,1.3-0.5,2.5-1.4,3.4l23,23l0.6,0.6c0.1,0.1,0.2,0.2,0.4,0.3l0.4,0.4c0,0,0,0,0.1,0.1c0,0,0,0,0.1,0.1
		c0.2,0.2,0.3,0.3,0.5,0.4c0,0,0.1,0.1,0.1,0.1c0.1,0.1,0.3,0.2,0.4,0.3c0,0,0,0,0,0c0.2,0.1,0.3,0.3,0.5,0.4
		c0.2,0.1,0.4,0.3,0.5,0.4c0.1,0.1,0.2,0.1,0.3,0.2c0.1,0.1,0.2,0.1,0.3,0.2c0.1,0.1,0.2,0.1,0.3,0.2h0c0.1,0,0.1,0.1,0.2,0.1
		c0.1,0.1,0.2,0.1,0.3,0.2c0.3,0.2,0.6,0.3,0.9,0.4c0.1,0.1,0.2,0.1,0.3,0.2c0.1,0.1,0.2,0.1,0.3,0.2c0.4,0.2,0.9,0.3,1.3,0.5
		c0.1,0,0.2,0.1,0.4,0.1c0.2,0.1,0.5,0.1,0.8,0.2c0.1,0,0.3,0.1,0.4,0.1c0.1,0,0.2,0,0.3,0.1c0.1,0,0.2,0,0.3,0.1
		c0.2,0,0.4,0.1,0.6,0.1c0.1,0,0.2,0,0.3,0c0.1,0,0.2,0,0.2,0c0.1,0,0.2,0,0.3,0c0.2,0,0.5,0,0.7,0h0.9c0.3,0,0.5,0,0.8,0
		c0.1,0,0.1,0,0.2,0c0.2,0,0.4,0,0.6-0.1c0,0,0,0,0.1,0c0.1,0,0.2,0,0.4-0.1c0.3,0,0.5-0.1,0.8-0.1c0.1,0,0.3-0.1,0.4-0.1
		c0.2,0,0.3-0.1,0.5-0.1c0.1,0,0.1,0,0.2-0.1c0.2,0,0.3-0.1,0.5-0.1c0.1,0,0.3-0.1,0.4-0.1c0.1,0,0.1,0,0.2-0.1
		c0.2-0.1,0.3-0.1,0.5-0.2c0.1,0,0.2-0.1,0.4-0.2l0.4-0.1c0.1,0,0.2-0.1,0.3-0.1c0.1-0.1,0.3-0.1,0.4-0.2c0.1-0.1,0.2-0.1,0.3-0.2
		c0.1-0.1,0.2-0.1,0.3-0.2c0.1-0.1,0.2-0.1,0.4-0.2l0.3-0.2c0.1-0.1,0.2-0.1,0.3-0.2c0.1-0.1,0.2-0.1,0.3-0.2
		c0.2-0.1,0.4-0.3,0.6-0.5c0.1-0.1,0.2-0.2,0.3-0.2c0.1-0.1,0.2-0.2,0.3-0.2c0.1-0.1,0.2-0.2,0.3-0.2c0.1-0.1,0.2-0.2,0.3-0.3
		c0.1-0.1,0.2-0.2,0.3-0.3c0.4-0.4,0.7-0.7,1.1-1.1c0,0,0,0,0,0c0.1-0.1,0.2-0.2,0.2-0.3c0.1-0.2,0.2-0.3,0.4-0.5
		c0.1-0.2,0.2-0.3,0.3-0.5c0.1-0.2,0.3-0.4,0.4-0.6c0.1-0.1,0.1-0.2,0.2-0.3c0.1-0.1,0.1-0.2,0.2-0.3c0-0.1,0.1-0.2,0.2-0.3
		c0,0,0,0,0,0c0,0,0-0.1,0.1-0.1c0-0.1,0.1-0.1,0.1-0.2c0.1-0.2,0.1-0.3,0.2-0.4c0.1-0.1,0.1-0.2,0.2-0.3c0-0.1,0.1-0.2,0.1-0.3
		c0,0,0,0,0-0.1c0-0.1,0.1-0.2,0.1-0.3c0,0,0-0.1,0-0.1c0,0,0-0.1,0.1-0.2c0-0.1,0-0.1,0.1-0.2c0-0.1,0.1-0.2,0.1-0.3
		c0-0.1,0.1-0.2,0.1-0.3c0.1-0.1,0.1-0.3,0.1-0.4c0,0,0,0,0-0.1c0-0.1,0.1-0.3,0.1-0.4c0,0,0,0,0,0s0,0,0,0c0.1-0.2,0.1-0.4,0.2-0.7
		c0,0,0,0,0,0c0-0.1,0-0.1,0-0.2c0-0.1,0-0.2,0-0.2c0-0.1,0-0.2,0.1-0.4v0c0-0.1,0-0.2,0.1-0.4l0,0c0,0,0-0.1,0-0.1c0,0,0-0.1,0-0.1
		c0,0,0-0.1,0-0.1c0,0,0-0.1,0-0.1c0-0.1,0-0.2,0-0.4c0-0.1,0-0.2,0-0.3v-0.1c0-0.1,0-0.1,0-0.2c0-0.1,0-0.2,0-0.3
		c0-0.1,0-0.2,0-0.4C1447.5,1525.8,1447.5,1525.5,1447.5,1525.3z"/>
	<path class="st12" d="M1429.2,1510c-0.2,0-0.4,0.1-0.7,0.1c0.1,0,0.2,0,0.3-0.1C1428.9,1510.1,1429.1,1510.1,1429.2,1510z"/>
	<path class="st12" d="M1430.2,1509.9c-0.1,0-0.2,0-0.3,0C1430,1510,1430.1,1510,1430.2,1509.9
		C1430.2,1509.9,1430.2,1509.9,1430.2,1509.9z"/>
	<path class="st12" d="M1430.4,1509.9C1430.3,1509.9,1430.3,1509.9,1430.4,1509.9C1430.3,1509.9,1430.3,1509.9,1430.4,1509.9
		L1430.4,1509.9z"/>
	<path class="st12" d="M1432.1,1509.9c-0.3,0-0.6,0-0.9,0c-0.3,0-0.6,0-0.8,0c0.1,0,0.3,0,0.4,0h0c0.1,0,0.3,0,0.5,0
		c0.2,0,0.3,0,0.5,0h0C1431.9,1509.9,1432,1509.9,1432.1,1509.9z"/>
	<path class="st12" d="M1445.9,1532.9c0.1-0.1,0.1-0.2,0.1-0.3c-2.5,5.7-8.2,9.7-14.8,9.7c-3.9,0-7.4-1.4-10.2-3.6
		c-0.1-0.1-0.1-0.1-0.2-0.2c-0.7-0.6-1.3-1.2-1.9-1.9c-0.1-0.1-0.2-0.2-0.2-0.3l0.6,0.6c0.1,0.1,0.3,0.2,0.4,0.3l0.2,0.2
		c0,0,0.1,0.1,0.1,0.1c0,0,0,0,0.1,0.1c0,0,0,0,0.1,0.1c0.1,0.1,0.3,0.3,0.5,0.4c0,0,0.1,0.1,0.1,0.1c0.1,0.1,0.3,0.2,0.4,0.3
		c0,0,0,0,0,0c0.2,0.1,0.3,0.3,0.5,0.4c0.2,0.1,0.4,0.3,0.5,0.4c0.1,0.1,0.2,0.1,0.3,0.2c0.1,0.1,0.2,0.1,0.3,0.2
		c0.1,0.1,0.2,0.1,0.3,0.2c0,0,0,0,0,0c0.1,0,0.1,0.1,0.2,0.1c0.1,0.1,0.2,0.1,0.3,0.2c0.3,0.2,0.6,0.3,0.9,0.4
		c0.1,0.1,0.2,0.1,0.3,0.2c0.1,0.1,0.2,0.1,0.4,0.1c0.4,0.2,0.9,0.3,1.3,0.5c0.1,0,0.3,0.1,0.4,0.1c0.3,0.1,0.5,0.1,0.8,0.2
		c0.1,0,0.3,0.1,0.4,0.1c0.1,0,0.2,0,0.3,0.1c0.1,0,0.2,0,0.3,0.1c0.2,0,0.4,0.1,0.6,0.1c0.1,0,0.2,0,0.3,0c0.1,0,0.2,0,0.2,0
		c0.1,0,0.2,0,0.3,0c0.2,0,0.5,0,0.7,0c0.2,0,0.3,0,0.5,0c0.1,0,0.3,0,0.4,0c0.3,0,0.5,0,0.8,0c0.1,0,0.1,0,0.2,0
		c0.2,0,0.4,0,0.6-0.1c0,0,0.1,0,0.1,0c0.1,0,0.3,0,0.4-0.1c0.3,0,0.5-0.1,0.8-0.1c0.1,0,0.3-0.1,0.4-0.1c0.2,0,0.3-0.1,0.5-0.1
		c0.1,0,0.1,0,0.2,0c0.2,0,0.3-0.1,0.5-0.1c0.1,0,0.3-0.1,0.4-0.1c0.1,0,0.1,0,0.2-0.1c0.2-0.1,0.3-0.1,0.5-0.2
		c0.1,0,0.2-0.1,0.4-0.1c0.1-0.1,0.2-0.1,0.4-0.2c0.1,0,0.2-0.1,0.3-0.1c0.1-0.1,0.3-0.1,0.4-0.2c0.1-0.1,0.2-0.1,0.3-0.2
		c0.1-0.1,0.2-0.1,0.3-0.2c0.1-0.1,0.3-0.1,0.4-0.2c0.1-0.1,0.2-0.1,0.3-0.2c0.1-0.1,0.2-0.1,0.3-0.2c0.1-0.1,0.2-0.1,0.3-0.2
		c0.2-0.1,0.4-0.3,0.6-0.5c0.1-0.1,0.2-0.2,0.3-0.2c0.1-0.1,0.2-0.2,0.3-0.2c0.1-0.1,0.2-0.2,0.3-0.3c0.1-0.1,0.2-0.2,0.3-0.3
		c0.1-0.1,0.2-0.2,0.3-0.3c0.4-0.4,0.7-0.7,1.1-1.1c0,0,0,0,0,0c0.1-0.1,0.1-0.2,0.2-0.3c0.1-0.2,0.3-0.3,0.4-0.5
		c0.1-0.2,0.2-0.3,0.4-0.5c0.1-0.2,0.3-0.4,0.4-0.6c0.1-0.2,0.3-0.4,0.4-0.6c0.1-0.1,0.1-0.2,0.1-0.3c0.1-0.1,0.1-0.3,0.2-0.4
		C1445.8,1533.2,1445.9,1533.1,1445.9,1532.9z"/>
	<g>
		<path class="st9" d="M1399.3-769.7c-2.8-0.2-5.7-0.4-8.6-0.5"/>
		<path class="st9" d="M1365-770.9c-0.2,0-0.5,0-0.7,0c-13.2,0-25.8,0.5-37.5,1.4c-43.1,3.3-73.9,12-73.9,22.2
			c0,0.9,0.2,1.7,0.7,2.6c0.1,0.2,0.2,0.4,0.3,0.6c0,0,0,0,0,0c0.1,0.2,0.2,0.3,0.3,0.5c0.1,0.1,0.2,0.3,0.3,0.4c0,0,0,0,0,0
			c0.1,0.1,0.2,0.2,0.3,0.3c0.1,0.1,0.2,0.2,0.3,0.3c0.2,0.2,0.4,0.4,0.6,0.5c0.1,0.1,0.3,0.2,0.4,0.4c0.1,0.1,0.3,0.2,0.4,0.4
			c0.1,0.1,0.3,0.2,0.5,0.4c0.8,0.6,1.7,1.2,2.7,1.8c0.2,0.1,0.4,0.2,0.6,0.3c1,0.5,2,1.1,3.1,1.6c0.3,0.1,0.6,0.3,0.9,0.4
			c0.3,0.1,0.6,0.3,1,0.4c0.4,0.2,0.8,0.3,1.2,0.5c1.1,0.4,2.3,0.8,3.5,1.3c0.4,0.1,0.8,0.3,1.2,0.4c0.5,0.2,1,0.3,1.5,0.5
			c0.5,0.2,1,0.3,1.6,0.5c0.2,0.1,0.4,0.1,0.6,0.2c0.4,0.1,0.8,0.2,1.3,0.4c0.4,0.1,0.9,0.2,1.3,0.4c0.4,0.1,0.8,0.2,1.2,0.3
			c0.8,0.2,1.7,0.4,2.6,0.6c0.8,0.2,1.7,0.4,2.6,0.6c0,0,0.1,0,0.1,0c0.1,0,0.2,0,0.4,0.1c0.6,0.1,1.2,0.2,1.8,0.4c0,0,0,0,0,0
			c0.6,0.1,1.2,0.2,1.8,0.4c0.5,0.1,1,0.2,1.5,0.3c0.5,0.1,1,0.2,1.5,0.3c0.5,0.1,1.1,0.2,1.6,0.3c0.4,0.1,0.7,0.1,1.1,0.2
			c0.6,0.1,1.3,0.2,1.9,0.3c3.9,0.7,8.1,1.3,12.4,1.8c0.7,0.1,1.4,0.2,2.2,0.3c0.7,0.1,1.5,0.2,2.2,0.3c0.7,0.1,1.5,0.2,2.2,0.2
			c0.7,0.1,1.5,0.2,2.3,0.2c0.8,0.1,1.5,0.2,2.3,0.2s1.5,0.1,2.3,0.2c1.5,0.1,2.9,0.3,4.4,0.4c2.5,0.2,5.1,0.4,7.6,0.5
			c0.2,0,0.5,0,0.7,0c1.1,0.1,2.3,0.1,3.4,0.2c1,0,2,0.1,3,0.1c0.1,0,0.2,0,0.3,0c1.7,0.1,3.4,0.1,5.1,0.2c0.5,0,1.1,0,1.6,0.1
			c2.6,0.1,5.2,0.1,7.9,0.2c0.9,0,1.9,0,2.9,0c2,0,4,0,6.1,0c57.1,0,104.3-9.1,110.7-20.9c0.5-0.9,0.7-1.8,0.7-2.7
			c0-8.6-21.5-16.1-53.8-20.2h0"/>
		<path class="st9" d="M1442.5-207.6c-2.6,1.6-5.3,3.1-8,4.5"/>
		<path class="st9" d="M1257.3-524.2c-5.3,35.6-15,77.7-32.3,126.2c-8,18.5-12.5,38.9-12.5,60.4c0,79.1,60.6,144.1,137.9,151.1"/>
		<path class="st9" d="M1261.9-566.1c3.4-49.1-1.4-80.5-0.3-93.1c1.8-21-6.2-73.2-8.1-85.4c0.1,0.2,0.2,0.4,0.3,0.6c0,0,0,0,0,0
			c0.1,0.2,0.2,0.3,0.3,0.5c0.1,0.1,0.2,0.3,0.3,0.4c0,0,0,0,0,0c0.1,0.1,0.2,0.2,0.3,0.3c0.1,0.1,0.2,0.2,0.3,0.3
			c0.2,0.2,0.4,0.4,0.6,0.5c0.1,0.1,0.3,0.2,0.4,0.4c0.1,0.1,0.3,0.2,0.4,0.4c0.1,0.1,0.3,0.2,0.5,0.4c0.8,0.6,1.7,1.2,2.7,1.8
			c0.2,0.1,0.4,0.2,0.6,0.3c1,0.5,2,1.1,3.1,1.6c0.6,0.3,1.2,0.5,1.9,0.8c0.4,0.2,0.8,0.3,1.2,0.5c1.1,0.4,2.3,0.8,3.5,1.3
			c0.4,0.1,0.8,0.3,1.2,0.4c0.5,0.2,1,0.3,1.5,0.5c0.5,0.2,1,0.3,1.6,0.5c0.2,0.1,0.4,0.1,0.6,0.2c0.4,0.1,0.8,0.2,1.3,0.4
			c0.4,0.1,0.9,0.2,1.3,0.4c0.4,0.1,0.8,0.2,1.2,0.3c1.7,0.4,3.4,0.8,5.3,1.3c0.7,0.2,1.4,0.3,2.1,0.5c0.6,0.1,1.2,0.2,1.8,0.4
			c0.5,0.1,1,0.2,1.5,0.3c0.5,0.1,1,0.2,1.5,0.3c0.5,0.1,1.1,0.2,1.6,0.3c0.4,0.1,0.7,0.1,1.1,0.2c0.6,0.1,1.3,0.2,1.9,0.3
			c3.9,0.7,8.1,1.3,12.4,1.8c0.7,0.1,1.4,0.2,2.2,0.3c0.7,0.1,1.5,0.2,2.2,0.3c0.7,0.1,1.5,0.2,2.2,0.2c0.7,0.1,1.5,0.2,2.3,0.2
			c0.8,0.1,1.5,0.2,2.3,0.2s1.5,0.1,2.3,0.2c1.5,0.1,2.9,0.3,4.4,0.4c2.5,0.2,5.1,0.4,7.6,0.5c0.2,0,0.5,0,0.7,0
			c1.1,0.1,2.3,0.1,3.4,0.2c1,0,2,0.1,3,0.1c0.1,0,0.2,0,0.3,0c1.7,0.1,3.4,0.1,5.1,0.2c0.5,0,1.1,0,1.6,0.1
			c2.6,0.1,5.2,0.1,7.9,0.2c0.9,0,1.9,0,2.9,0c2,0,4,0,6.1,0c57.1,0,104.3-9.1,110.7-20.9c-2,12.5-9.9,64.3-8.1,85.2
			c2,23.6-16.5,112.5,36.3,260.4c8.3,18.7,12.8,39.4,12.8,61.2c0,42.9-17.8,81.6-46.4,109.2"/>
		<path class="st9" d="M1410.6-193.2c-10.4,3.3-21.3,5.6-32.5,6.6"/>
		<path class="st9" d="M1253.5-744.7c-0.3-1.7-0.4-2.6-0.4-2.6"/>
		<path class="st11" d="M1505-393.6c-0.6-1.7-1.3-3.5-1.9-5.2"/>
		<path class="st9" d="M1475.4-747.2c0,0-0.2,1-0.4,2.7"/>
		<line class="st9" x1="1461.7" y1="-87" x2="1461.7" y2="-87"/>
		<line class="st9" x1="1266.8" y1="-87" x2="1266.8" y2="-87"/>
		<path class="st9" d="M1395.7-107.1c37.7,2.9,65,10.8,66,20.1h-194.9c1-9.3,28.2-17.2,65.8-20.1"/>
		<g>
			<path class="st11" d="M1350.4-186.6c2.8,26.7,2.9,69.7-18.5,79.8"/>
			<path class="st11" d="M1396.3-106.8c-21.4-10.1-20.9-53.1-18.2-79.7"/>
		</g>
		<g>
			<g>
				<path class="st7" d="M1271.7-677.5L1271.7-677.5c-0.1-0.5-0.2-1-0.3-1.4L1271.7-677.5z"/>
				<path class="st7" d="M1498.1-360.2c0,66.7-50.3,129.5-115.1,136.9c-4.1,1.5-9.8,2.1-16.1,1.8c-0.8,0-1.6,0.1-2.4,0.1
					c-5.6,0-11-0.8-15.7-2.2c-63.3-8.4-110.6-52.8-110.6-118.6c0-18.4,3.8-53.8,10.7-69.7c45.5-127.1,28.6-194,28.1-214.3
					c-0.1-7.4-0.8-15.5-1.6-23.2c-1.2-11.1-2.8-21.5-3.8-28.1l0,0l4.2-1.9l182.9,0c-0.1,0.6-0.2,1.3-0.3,2.1v0
					c-2.1,11.8-7.7,36.5-6.2,53.4c1.8,20.2-10.3,84.7,34.9,211.3C1494.2-396.6,1498.1-378.9,1498.1-360.2z"/>
				<path class="st7" d="M1275.4-649.4l-3.8-28.1C1272.7-670.9,1274.3-660.5,1275.4-649.4z"/>
			</g>
		</g>
		<path class="st4" d="M1458.7-679.4c0,0.9-0.2,1.8-0.6,2.7c-5.4,11.8-45,20.9-93.1,20.9c-48.3,0-88.1-9.2-93.1-21.1
			c-0.4-0.8-0.6-1.7-0.6-2.6c0-13.1,41.9-23.6,93.7-23.6C1416.8-703.1,1458.7-692.5,1458.7-679.4z"/>
		<path class="st11" d="M1346.4-357.2l-44.2,11c-9.6,2.4-19.4-3.5-21.8-13.1l-10.5-42.2c-2.4-9.6,3.5-19.4,13.1-21.8l44.2-11
			c9.6-2.4,19.4,3.5,21.8,13.1l10.5,42.2C1361.9-369.4,1356-359.6,1346.4-357.2z"/>
		<path class="st11" d="M1368.5-266.6l-43.9-12.1c-9.5-2.6-15.2-12.6-12.6-22.1l11.5-41.9c2.6-9.5,12.6-15.2,22.1-12.6l43.9,12.1
			c9.5,2.6,15.2,12.6,12.6,22.1l-11.5,41.9C1388-269.7,1378-264,1368.5-266.6z"/>
		<path class="st11" d="M1459.7-315.1h-45.5c-9.9,0-18-8.1-18-18v-43.5c0-9.9,8.1-18,18-18h45.5c9.9,0,18,8.1,18,18v43.5
			C1477.7-323.2,1469.6-315.1,1459.7-315.1z"/>
		
			<ellipse transform="matrix(2.499669e-02 -0.9997 0.9997 2.499669e-02 1819.874 894.5604)" class="st4" cx="1368.5" cy="-485.7" rx="63" ry="61.3"/>
		<g>
			<path class="st12" d="M1349.8-456.7c-0.1,0.1-0.2,0.3-0.3,0.4c-0.2,0.2-0.4,0.4-0.6,0.6c0,0-0.1,0.1-0.1,0.1
				c-0.2,0.2-0.4,0.4-0.6,0.6c-0.1,0.1-0.2,0.2-0.3,0.2l0.9-0.9L1349.8-456.7z"/>
			<path class="st12" d="M1338.1-482.8h0.7c-0.1,0-0.2,0-0.3,0c-0.3,0-0.6,0-0.9,0s-0.6,0-0.9,0c-0.1,0-0.2,0-0.3,0h0.7
				c0.2,0,0.3,0,0.5,0C1337.8-482.9,1337.9-482.9,1338.1-482.8z"/>
			<path class="st12" d="M1349.4-509.4c0.1,0.1,0.1,0.1,0.2,0.2l-0.5-0.5l-0.5-0.5l-0.4-0.4c0.1,0,0.1,0.1,0.2,0.1
				C1348.6-510.2,1349-509.8,1349.4-509.4L1349.4-509.4z"/>
			<path class="st12" d="M1375.9-521.2c0,0.1,0,0.3,0,0.4v-0.8C1375.9-521.5,1375.9-521.3,1375.9-521.2z"/>
			<path class="st12" d="M1380.6-482.8c0,1.3-0.5,2.5-1.4,3.3c-0.8,0.8-2,1.4-3.3,1.4s-2.5-0.5-3.3-1.4c-0.8-0.8-1.4-2-1.4-3.3
				c0-1.3,0.5-2.5,1.4-3.3c0.8-0.8,2-1.4,3.3-1.4s2.5,0.5,3.3,1.4C1380-485.3,1380.6-484.1,1380.6-482.8z"/>
			<path class="st12" d="M1375.9-443.9v-1c0,0.1,0,0.2,0,0.2v0.1v0.2c0,0,0,0.1,0,0.1c0,0,0,0,0,0.1c0.1,8.7,7.2,15.7,15.9,15.7
				c8.8,0,15.9-7.1,15.9-15.9c0-3.9-1.4-7.6-3.8-10.3c-0.7-0.6-1.3-1.2-1.9-1.8c-0.1-0.1-0.2-0.2-0.2-0.3l0.6,0.6l1.3,1.3l0.5,0.5"
				/>
			<path class="st12" d="M1375.9-422.3c16.7,0,31.8-6.8,42.8-17.7"/>
			<path class="st12" d="M1402.6-509.6l-0.4,0.4c0-0.1,0.1-0.1,0.1-0.2c0.4-0.4,0.7-0.8,1.1-1.1c0,0,0,0,0,0c0,0,0.1-0.1,0.1-0.1
				l-0.3,0.3C1403.2-510.1,1402.9-509.8,1402.6-509.6z"/>
			<path class="st12" d="M1412.7-482.8c0,0-0.1,0-0.1,0c0,0,0,0,0,0C1412.6-482.8,1412.7-482.8,1412.7-482.8z"/>
			<path class="st12" d="M1413.2-482.8c-0.1,0-0.2,0-0.3,0C1413-482.8,1413.1-482.8,1413.2-482.8
				C1413.1-482.8,1413.2-482.8,1413.2-482.8z"/>
			<path class="st12" d="M1415.3-482.8c-0.1,0-0.2,0-0.2,0h0c-0.3,0-0.6,0-0.9,0c-0.3,0-0.5,0-0.8,0h0c-0.1,0-0.2,0-0.3,0h0.8
				c0.1,0,0.3,0,0.4,0c0.2,0,0.3,0,0.5,0H1415.3z"/>
			<path class="st12" d="M1415.5-482.8L1415.5-482.8c-0.1,0-0.3,0-0.4,0C1415.2-482.8,1415.3-482.8,1415.5-482.8
				C1415.5-482.8,1415.5-482.8,1415.5-482.8z"/>
			<path class="st12" d="M1416-482.8c-0.1,0-0.1,0-0.2,0h0c-0.1,0-0.1,0-0.2,0c0.1,0,0.1,0,0.2,0
				C1415.9-482.8,1416-482.8,1416-482.8z"/>
			<path class="st12" d="M1429.2-472.4c0,0,0-0.1-0.1-0.1c-0.1-0.2-0.1-0.4-0.2-0.6c-0.1-0.2-0.1-0.3-0.2-0.4
				c-0.1-0.1-0.1-0.3-0.2-0.4c0-0.1-0.1-0.2-0.1-0.3c0-0.1-0.1-0.2-0.2-0.3c0,0,0-0.1-0.1-0.1c-0.1-0.2-0.2-0.3-0.3-0.5
				c-0.1-0.2-0.2-0.3-0.3-0.5c-0.1-0.2-0.2-0.3-0.3-0.5v0c-0.1-0.2-0.2-0.3-0.3-0.5c-0.1-0.2-0.2-0.3-0.4-0.5
				c-0.1-0.1-0.2-0.3-0.4-0.4c0,0,0-0.1-0.1-0.1c-0.1-0.1-0.2-0.3-0.3-0.4c0,0,0,0,0,0c-0.1-0.1-0.3-0.3-0.4-0.4
				c-0.1-0.1-0.2-0.2-0.4-0.3c-0.2-0.2-0.3-0.3-0.5-0.4c-0.2-0.1-0.3-0.2-0.5-0.4c-0.2-0.1-0.4-0.3-0.6-0.4
				c-0.1-0.1-0.2-0.2-0.4-0.2c-0.1-0.1-0.2-0.1-0.3-0.2c-0.1-0.1-0.3-0.2-0.4-0.2c-0.2-0.1-0.4-0.3-0.7-0.4
				c-0.1-0.1-0.2-0.1-0.3-0.1c-0.2-0.1-0.3-0.2-0.5-0.2c-0.2-0.1-0.4-0.2-0.5-0.2c-0.1-0.1-0.3-0.1-0.4-0.2
				c-0.1-0.1-0.3-0.1-0.4-0.1c0,0-0.1,0-0.1-0.1c-0.1,0-0.2-0.1-0.3-0.1c-0.1,0-0.2-0.1-0.3-0.1c-0.1,0-0.2-0.1-0.3-0.1
				c-0.1,0-0.2-0.1-0.3-0.1c-0.1,0-0.1,0-0.2-0.1c-0.1,0-0.2-0.1-0.4-0.1c-0.3-0.1-0.5-0.1-0.8-0.2c-0.1,0-0.2,0-0.3,0
				c0.1,0,0.1,0,0.2,0h0c0.2,0,0.4,0.1,0.5,0.1c0.1,0,0.1,0,0.2,0c0,0,0,0,0,0c0,0,0,0,0,0c0.2,0,0.3,0.1,0.5,0.1c0.1,0,0.1,0,0.1,0
				c0.2,0,0.3,0.1,0.5,0.1c0.2,0.1,0.4,0.1,0.7,0.2c0.2,0.1,0.4,0.1,0.5,0.2c0.1,0,0.2,0.1,0.3,0.1c0.2,0.1,0.4,0.2,0.6,0.3
				c0.1,0,0.2,0.1,0.3,0.1c0.2,0.1,0.4,0.2,0.6,0.3c0,0,0,0,0,0c0.2,0.1,0.4,0.2,0.6,0.4c0.1,0.1,0.2,0.1,0.3,0.2
				c0.1,0.1,0.2,0.2,0.4,0.2c0.1,0.1,0.2,0.2,0.4,0.2c0.2,0.2,0.5,0.3,0.7,0.5c0.1,0.1,0.2,0.1,0.2,0.2c0,0,0,0,0,0
				c0.1,0.1,0.3,0.2,0.4,0.4c0.1,0.1,0.3,0.3,0.4,0.4c0,0,0,0,0,0c0.1,0.1,0.2,0.2,0.3,0.3c0.1,0.1,0.2,0.2,0.3,0.3
				c0.1,0.1,0.2,0.3,0.4,0.4c0.1,0.1,0.2,0.3,0.3,0.4c0.1,0.1,0.2,0.2,0.2,0.3c0,0,0,0,0,0c0.1,0.2,0.2,0.3,0.4,0.5
				c0.1,0.1,0.2,0.2,0.3,0.4c0.1,0.2,0.2,0.3,0.3,0.4c0.1,0.2,0.2,0.3,0.3,0.5c0.1,0.1,0.1,0.2,0.2,0.3c0.1,0.2,0.2,0.4,0.3,0.6
				c0.1,0.2,0.2,0.4,0.3,0.7c0.1,0.1,0.1,0.2,0.1,0.3c0.1,0.3,0.3,0.7,0.4,1c0,0.1,0.1,0.2,0.1,0.3c0,0.1,0.1,0.2,0.1,0.4
				c0.1,0.2,0.1,0.4,0.1,0.5c0,0,0,0,0,0c0,0.2,0.1,0.3,0.1,0.5c0,0.1,0,0.1,0,0.2c-0.1-0.4-0.2-0.8-0.3-1.2
				C1429.5-471.7,1429.3-472.1,1429.2-472.4z"/>
			<path class="st12" d="M1380.6-482.8c0,1.3-0.5,2.5-1.4,3.3c-0.8,0.8-2,1.4-3.3,1.4s-2.5-0.5-3.3-1.4c-0.8-0.8-1.4-2-1.4-3.3
				c0-1.3,0.5-2.5,1.4-3.3c0.8-0.8,2-1.4,3.3-1.4s2.5,0.5,3.3,1.4C1380-485.3,1380.6-484.1,1380.6-482.8z"/>
			<line class="st12" x1="1414.8" y1="-482.8" x2="1413.8" y2="-482.8"/>
			<line class="st12" x1="1338.1" y1="-482.8" x2="1337.1" y2="-482.8"/>
			<line class="st12" x1="1349" y1="-509.7" x2="1348.5" y2="-510.2"/>
			<line class="st12" x1="1403.4" y1="-510.3" x2="1402.6" y2="-509.6"/>
			<path class="st12" d="M1375.9-521.6v34.1c-1.3,0-2.5,0.5-3.3,1.4l-23-23c-0.1-0.1-0.1-0.1-0.2-0.2l0,0c-0.4-0.4-0.7-0.8-1.1-1.1
				c-2.6-2.8-4.1-6.6-4.1-10.7c0-8.8,7.1-15.9,15.9-15.9C1368.6-537.1,1375.7-530.2,1375.9-521.6z"/>
			<path class="st12" d="M1349.4-509.4c-0.1-0.1-0.2-0.2-0.3-0.3l-0.5-0.5c-0.1-0.1-0.2-0.2-0.3-0.3
				C1348.6-510.2,1349-509.8,1349.4-509.4z"/>
			<path class="st12" d="M1375.9-521.2c0,0.1,0,0.3,0,0.4v-0.8C1375.9-521.5,1375.9-521.3,1375.9-521.2z"/>
			<path class="st12" d="M1407.7-521.2c0,4.1-1.6,7.9-4.1,10.7c0,0,0,0,0,0c-0.4,0.4-0.8,0.7-1.1,1.1c0,0.1-0.1,0.1-0.1,0.2
				l-23.1,23.1c-0.8-0.9-2-1.4-3.3-1.4v-33.3c0-0.1,0-0.3,0-0.4c0-8.8,7.1-15.9,15.9-15.9S1407.7-530,1407.7-521.2z"/>
			<path class="st12" d="M1403.5-510.5c-0.1,0.1-0.1,0.1-0.2,0.2c-0.2,0.3-0.5,0.5-0.8,0.8c-0.1,0.1-0.2,0.1-0.2,0.2
				C1402.8-509.8,1403.1-510.2,1403.5-510.5z"/>
			<path class="st12" d="M1407.8-444.4c0,8.8-7.1,15.9-15.9,15.9c-8.7,0-15.8-7-15.9-15.7c0,0,0,0,0-0.1c0,0,0-0.1,0-0.1v-0.3
				c0-0.1,0-0.2,0-0.2v-33.3c1.3,0,2.5-0.5,3.3-1.4l22.7,22.7c0.1,0.1,0.2,0.2,0.2,0.3c0.6,0.7,1.2,1.3,1.9,1.8
				C1406.3-452,1407.8-448.3,1407.8-444.4z"/>
			<path class="st12" d="M1375.9-444.4c0-0.1,0-0.1,0-0.2L1375.9-444.4c0,0,0,0.1,0,0.1V-444.4z"/>
			<path class="st12" d="M1404-454.7c-0.7-0.6-1.3-1.2-1.9-1.8c0.1,0.1,0.2,0.2,0.3,0.3c0.1,0.1,0.3,0.2,0.4,0.3l0.2,0.2
				c0,0,0.1,0.1,0.1,0.1c0,0,0,0,0.1,0.1c0,0,0,0,0.1,0.1c0.1,0.1,0.3,0.3,0.4,0.4C1403.8-454.9,1403.9-454.8,1404-454.7z"/>
			<path class="st12" d="M1375.9-444.7v0.3c0,0,0,0.1,0,0.1c0,0,0,0,0,0.1c0,0.1,0,0.2,0,0.3v-1
				C1375.9-444.8,1375.9-444.7,1375.9-444.7z"/>
			<path class="st12" d="M1375.9-478.2v34.3c-0.3,8.5-7.3,15.4-15.9,15.4c-8.8,0-15.9-7.1-15.9-15.9c0-4.4,1.8-8.3,4.6-11.2
				c0,0,0.1-0.1,0.1-0.1c0.2-0.2,0.4-0.4,0.6-0.6c0.1-0.1,0.2-0.2,0.3-0.4l22.8-22.8C1373.4-478.7,1374.6-478.2,1375.9-478.2z"/>
			<path class="st12" d="M1413.2-482.8c-0.1,0-0.2,0-0.3,0C1413-482.8,1413.1-482.8,1413.2-482.8
				C1413.1-482.8,1413.2-482.8,1413.2-482.8z"/>
			<path class="st12" d="M1375.9-422.3c-33.4,0-60.5-27.1-60.5-60.5s27.1-60.5,60.5-60.5c33.4,0,60.5,27.1,60.5,60.5
				c0,16.7-6.8,31.8-17.7,42.8"/>
			<path class="st12" d="M1404.2-454.6l-0.5-0.5l-1.3-1.3c0.1,0.1,0.3,0.2,0.4,0.3l0.2,0.2c0,0,0.1,0.1,0.1,0.1c0,0,0,0,0.1,0.1
				c0,0,0,0,0.1,0.1c0.1,0.1,0.3,0.3,0.5,0.4c0,0,0.1,0.1,0.1,0.1C1404-454.8,1404.1-454.7,1404.2-454.6c0.1,0,0.1,0,0.1,0
				c0.2,0.1,0.3,0.3,0.5,0.4c0.2,0.1,0.3,0.3,0.5,0.4c0.1,0.1,0.2,0.1,0.3,0.2c0.1,0.1,0.2,0.1,0.3,0.2c0.1,0.1,0.2,0.1,0.3,0.2
				c0,0,0,0,0,0c0.1,0,0.1,0.1,0.2,0.1c0.1,0.1,0.2,0.1,0.3,0.2c0.3,0.2,0.6,0.3,0.9,0.4c0.1,0.1,0.2,0.1,0.3,0.2
				c0.1,0.1,0.2,0.1,0.3,0.1c0.4,0.2,0.8,0.3,1.3,0.5c0.1,0,0.2,0.1,0.4,0.1c0.3,0.1,0.5,0.1,0.8,0.2c0.1,0,0.3,0.1,0.4,0.1
				c0.1,0,0.2,0,0.3,0.1c0.1,0,0.2,0,0.3,0.1c0.2,0,0.4,0.1,0.5,0.1c0.1,0,0.2,0,0.3,0c0.1,0,0.2,0,0.2,0c0.1,0,0.2,0,0.3,0
				c0.2,0,0.5,0,0.7,0c0.2,0,0.3,0,0.5,0c0.1,0,0.3,0,0.4,0c0.3,0,0.5,0,0.8,0c0.1,0,0.1,0,0.2,0c0.2,0,0.4,0,0.6-0.1
				c0,0,0.1,0,0.1,0c0.1,0,0.2,0,0.4-0.1c0.3,0,0.5-0.1,0.8-0.1c0.1,0,0.3-0.1,0.4-0.1c0.2,0,0.3-0.1,0.5-0.1c0.1,0,0.1,0,0.2,0
				c0.2,0,0.3-0.1,0.5-0.1c0.1,0,0.3-0.1,0.4-0.1c0.1,0,0.1,0,0.2-0.1c0.2-0.1,0.3-0.1,0.5-0.2c0.1,0,0.2-0.1,0.4-0.1
				c0.1-0.1,0.2-0.1,0.3-0.2c0.1,0,0.2-0.1,0.3-0.1c0.1-0.1,0.3-0.1,0.4-0.2c0.1-0.1,0.2-0.1,0.3-0.2c0.1-0.1,0.2-0.1,0.3-0.2
				c0.1-0.1,0.3-0.1,0.4-0.2c0.1-0.1,0.2-0.1,0.3-0.2s0.2-0.1,0.3-0.2c0.1-0.1,0.2-0.1,0.3-0.2c0.2-0.1,0.4-0.3,0.6-0.4
				c0.1-0.1,0.2-0.2,0.3-0.2c0.1-0.1,0.2-0.2,0.3-0.2s0.2-0.2,0.3-0.2c0.1-0.1,0.2-0.2,0.3-0.3c0.1-0.1,0.2-0.2,0.3-0.3
				c0.4-0.4,0.7-0.7,1-1.1c0,0,0,0,0,0c0.1-0.1,0.1-0.2,0.2-0.3c0.1-0.2,0.2-0.3,0.4-0.5c0.1-0.2,0.2-0.3,0.3-0.5
				c0.1-0.2,0.3-0.4,0.4-0.6c0.1-0.2,0.3-0.4,0.4-0.6c0.1-0.1,0.1-0.2,0.1-0.3c0.1-0.1,0.1-0.3,0.2-0.4c0.1-0.1,0.1-0.3,0.2-0.4
				c0.1-0.1,0.1-0.2,0.1-0.3c0-0.1,0.1-0.2,0.1-0.3c0,0,0-0.1,0-0.1c0-0.1,0.1-0.2,0.1-0.3v0c0,0,0-0.1,0-0.1c0-0.1,0-0.1,0.1-0.2
				s0-0.1,0.1-0.2c0-0.1,0.1-0.2,0.1-0.3c0-0.1,0.1-0.2,0.1-0.3c0-0.1,0.1-0.3,0.1-0.4c0,0,0,0,0-0.1c0-0.1,0.1-0.3,0.1-0.4
				c0,0,0,0,0-0.1c0,0,0,0,0,0c0.1-0.2,0.1-0.4,0.2-0.7c0,0,0,0,0,0c0-0.1,0-0.1,0-0.2c0-0.1,0-0.2,0-0.2c0,0,0-0.1,0-0.1
				c0-0.1,0-0.2,0-0.3c0,0,0,0,0,0c0-0.1,0-0.3,0.1-0.4c0,0,0,0,0,0c0,0,0-0.1,0-0.1c0,0,0-0.1,0-0.1c0,0,0-0.1,0-0.1
				c0,0,0-0.1,0-0.1c0-0.1,0-0.2,0-0.2c0,0,0-0.1,0-0.1c0-0.1,0-0.2,0-0.3c0-0.1,0-0.1,0-0.2c0-0.1,0-0.2,0-0.3c0-0.1,0-0.2,0-0.4
				c0-0.3,0-0.5,0-0.8c0-0.1,0-0.2,0-0.2c0,0,0-0.1,0-0.1c0-0.1,0-0.3,0-0.4c0,0,0,0,0,0c0-0.1,0-0.1,0-0.2c0-0.1,0-0.1,0-0.2
				c0,0,0,0,0-0.1c0-0.2-0.1-0.4-0.1-0.7c0-0.1,0-0.2,0-0.2c0,0,0-0.1,0-0.1c0-0.1,0-0.1,0-0.2c0-0.1,0-0.1,0-0.2
				c0-0.2-0.1-0.3-0.1-0.5c0,0,0,0,0,0c0-0.2-0.1-0.4-0.1-0.5c0-0.1-0.1-0.2-0.1-0.4c0-0.1-0.1-0.2-0.1-0.3c-0.1-0.3-0.3-0.7-0.4-1
				c0-0.1-0.1-0.2-0.1-0.3c-0.1-0.2-0.2-0.4-0.3-0.7c-0.1-0.2-0.2-0.4-0.3-0.6c-0.1-0.1-0.1-0.2-0.2-0.3c-0.1-0.2-0.2-0.3-0.3-0.5
				c-0.1-0.2-0.2-0.3-0.3-0.4c-0.1-0.1-0.2-0.2-0.3-0.4c-0.1-0.2-0.2-0.3-0.4-0.5c0,0,0,0,0,0c-0.1-0.1-0.2-0.2-0.2-0.3
				c-0.1-0.1-0.2-0.3-0.3-0.4c-0.1-0.1-0.2-0.3-0.4-0.4c-0.1-0.1-0.2-0.2-0.3-0.3c-0.1-0.1-0.2-0.2-0.3-0.3c0,0,0,0,0,0
				c-0.1-0.1-0.3-0.3-0.4-0.4c-0.1-0.1-0.3-0.2-0.4-0.4c0,0,0,0,0,0c-0.1-0.1-0.2-0.1-0.2-0.2c-0.2-0.2-0.5-0.3-0.7-0.5
				c-0.1-0.1-0.2-0.2-0.4-0.2c-0.1-0.1-0.2-0.2-0.4-0.2c-0.1-0.1-0.2-0.1-0.3-0.2c-0.2-0.1-0.4-0.2-0.6-0.4c0,0,0,0,0,0
				c-0.2-0.1-0.4-0.2-0.6-0.3c-0.1-0.1-0.2-0.1-0.3-0.1c-0.2-0.1-0.4-0.2-0.6-0.3c-0.1,0-0.2-0.1-0.3-0.1c-0.2-0.1-0.4-0.1-0.5-0.2
				c-0.2-0.1-0.4-0.1-0.7-0.2c-0.2-0.1-0.3-0.1-0.5-0.1c0,0-0.1,0-0.1,0c-0.2,0-0.3-0.1-0.5-0.1c0,0,0,0,0,0c0,0,0,0,0,0
				c-0.1,0-0.1,0-0.2,0c0,0,0,0,0,0c-0.1,0-0.3,0-0.4-0.1c0,0-0.1,0-0.1,0h0c-0.1,0-0.1,0-0.2,0c0,0,0,0,0,0c0,0,0,0,0,0
				c-0.1,0-0.2,0-0.3,0c0,0,0,0,0,0c-0.1,0-0.1,0-0.2,0c-0.1,0-0.1,0-0.2,0c-0.1,0-0.2,0-0.4,0h0c0,0,0,0,0,0c0,0,0,0,0,0
				c-0.1,0-0.2,0-0.4,0c0.1,0,0.2,0,0.2,0c8.2-0.6,14.7-7.5,14.7-15.9c0-8.8-7.1-15.9-15.9-15.9c-4,0-7.7,1.5-10.5,4
				c0,0-0.1,0.1-0.1,0.1c2.6-2.8,4.1-6.6,4.1-10.7c0-8.8-7.1-15.9-15.9-15.9s-15.9,7.1-15.9,15.9c0-0.1,0-0.3,0-0.4
				c-0.2-8.6-7.2-15.5-15.9-15.5c-8.8,0-15.9,7.1-15.9,15.9c0,4.1,1.6,7.9,4.1,10.7c-0.1,0-0.1-0.1-0.2-0.1
				c-2.8-2.4-6.5-3.9-10.5-3.9c-8.8,0-15.9,7.1-15.9,15.9c0,8.4,6.5,15.3,14.7,15.9c0.1,0,0.2,0,0.3,0c-8.4,0.5-15,7.4-15,15.9
				c0,8.8,7.1,15.9,15.9,15.9c3.9,0,7.5-1.4,10.2-3.7c0.1-0.1,0.2-0.2,0.3-0.2c0.2-0.2,0.4-0.4,0.6-0.6c-2.9,2.9-4.6,6.8-4.6,11.2
				c0,8.8,7.1,15.9,15.9,15.9c8.6,0,15.6-6.9,15.9-15.4"/>
			<path class="st12" d="M1349.4-456.4c-0.2,0.2-0.4,0.4-0.6,0.6c0,0-0.1,0.1-0.1,0.1c-0.2,0.2-0.4,0.4-0.6,0.6
				c0.2-0.2,0.4-0.4,0.6-0.6C1349-455.9,1349.2-456.1,1349.4-456.4z"/>
			<path class="st12" d="M1372.6-486.2c-0.8,0.8-1.4,2-1.4,3.3h-33.1c-0.2,0-0.3,0-0.5,0c-0.2,0-0.3,0-0.5,0h-0.7
				c-8.2-0.6-14.7-7.5-14.7-15.9c0-8.8,7.1-15.9,15.9-15.9c4,0,7.7,1.5,10.5,3.9l0.4,0.4c0.2,0.2,0.4,0.4,0.5,0.5l0.5,0.5
				L1372.6-486.2z"/>
			<path class="st12" d="M1338.1-482.8h0.7c-0.1,0-0.2,0-0.3,0c-0.3,0-0.6,0-0.9,0s-0.6,0-0.9,0c-0.1,0-0.2,0-0.3,0h0.7
				c0.2,0,0.3,0,0.5,0C1337.8-482.9,1337.9-482.9,1338.1-482.8z"/>
			<path class="st12" d="M1349.6-509.2l-0.5-0.5l-0.5-0.5l-0.4-0.4c0.1,0,0.1,0.1,0.2,0.1c0.4,0.4,0.8,0.7,1.1,1.1l0,0
				C1349.4-509.3,1349.5-509.2,1349.6-509.2z"/>
			<path class="st12" d="M1430.1-498.7c0,8.4-6.5,15.3-14.7,15.9h-0.6c-0.2,0-0.3,0-0.5,0c-0.2,0-0.3,0-0.4,0h-33.2
				c0-1.3-0.5-2.5-1.4-3.3l23.1-23.1l0.4-0.4c0.3-0.2,0.5-0.5,0.8-0.8l0.3-0.3c2.8-2.5,6.5-4,10.5-4
				C1423-514.6,1430.1-507.5,1430.1-498.7z"/>
			<path class="st12" d="M1403.6-510.5c0,0,0.1-0.1,0.1-0.1l-0.3,0.3c-0.2,0.3-0.5,0.5-0.8,0.8l-0.4,0.4c0-0.1,0.1-0.1,0.1-0.2
				C1402.8-509.8,1403.1-510.2,1403.6-510.5C1403.5-510.5,1403.6-510.5,1403.6-510.5z"/>
			<path class="st12" d="M1415.3-482.8c-0.1,0-0.2,0-0.2,0h0c-0.3,0-0.6,0-0.9,0c-0.3,0-0.5,0-0.8,0h0c-0.1,0-0.2,0-0.3,0h0.8
				c0.1,0,0.3,0,0.4,0c0.2,0,0.3,0,0.5,0H1415.3z"/>
			<path class="st12" d="M1372.6-479.5l-22.8,22.8l-1,1l-0.9,0.9c-2.8,2.3-6.3,3.7-10.2,3.7c-8.8,0-15.9-7.1-15.9-15.9
				c0-8.5,6.6-15.4,15-15.9c0.3,0,0.6,0,0.9,0s0.6,0,0.9,0c0.1,0,0.2,0,0.3,0h32.4C1371.2-481.6,1371.7-480.4,1372.6-479.5z"/>
			<path class="st12" d="M1338.5-482.8c-0.3,0-0.6,0-0.9,0s-0.6,0-0.9,0c0.1,0,0.3,0,0.4,0c0.2,0,0.3,0,0.5,0c0.2,0,0.3,0,0.5,0
				C1338.2-482.8,1338.4-482.8,1338.5-482.8z"/>
			<path class="st12" d="M1349.8-456.7c-0.1,0.1-0.2,0.3-0.3,0.4c-0.2,0.2-0.4,0.4-0.6,0.6c0,0-0.1,0.1-0.1,0.1
				c-0.2,0.2-0.4,0.4-0.6,0.6c-0.1,0.1-0.2,0.2-0.3,0.2l0.9-0.9L1349.8-456.7z"/>
			<path class="st12" d="M1430.2-467.7c0-0.3,0-0.5-0.1-0.8c0,0,0,0,0,0c0-0.1,0-0.2,0-0.4c0-0.3-0.1-0.7-0.1-1c0-0.1,0-0.2-0.1-0.3
				c-0.1-0.4-0.2-0.8-0.3-1.2c-0.1-0.4-0.2-0.8-0.4-1.1c-0.1-0.2-0.2-0.4-0.3-0.7c-0.1-0.2-0.1-0.3-0.2-0.4
				c-0.1-0.1-0.1-0.3-0.2-0.4c0-0.1-0.1-0.2-0.1-0.3c0-0.1-0.1-0.2-0.2-0.3c0,0,0-0.1-0.1-0.1c-0.1-0.2-0.2-0.3-0.3-0.5
				c-0.1-0.2-0.2-0.3-0.3-0.5c-0.1-0.2-0.2-0.3-0.3-0.5v0c-0.1-0.2-0.2-0.3-0.3-0.5c-0.1-0.2-0.2-0.3-0.4-0.5
				c-0.1-0.1-0.2-0.3-0.4-0.4c0,0,0-0.1-0.1-0.1c-0.1-0.1-0.2-0.2-0.3-0.4c0,0,0,0,0,0c-0.1-0.1-0.3-0.3-0.4-0.4
				c-0.1-0.1-0.2-0.2-0.4-0.3c-0.2-0.2-0.3-0.3-0.5-0.4c-0.2-0.1-0.3-0.2-0.5-0.4c-0.2-0.1-0.4-0.3-0.6-0.4
				c-0.1-0.1-0.2-0.2-0.4-0.2c-0.1-0.1-0.2-0.1-0.3-0.2c-0.1-0.1-0.3-0.2-0.4-0.2c-0.2-0.1-0.4-0.3-0.7-0.4
				c-0.1-0.1-0.2-0.1-0.3-0.1c-0.2-0.1-0.3-0.2-0.5-0.2c-0.2-0.1-0.4-0.2-0.5-0.2c-0.1-0.1-0.3-0.1-0.4-0.2
				c-0.1-0.1-0.3-0.1-0.4-0.1c0,0-0.1,0-0.1-0.1c-0.1,0-0.2-0.1-0.3-0.1c-0.1,0-0.2-0.1-0.3-0.1c-0.1,0-0.2-0.1-0.3-0.1
				c-0.1,0-0.2-0.1-0.3-0.1c-0.1,0-0.1,0-0.2-0.1c-0.1,0-0.2-0.1-0.4-0.1c-0.3-0.1-0.5-0.1-0.8-0.2c-0.1,0-0.2,0-0.3,0c0,0,0,0,0,0
				c0,0,0,0,0,0c-0.1,0-0.2,0-0.3,0c0,0,0,0,0,0c-0.1,0-0.1,0-0.2,0c-0.1,0-0.1,0-0.2,0h0c-0.1,0-0.1,0-0.2,0c-0.1,0-0.1,0-0.2,0h0
				c-0.1,0-0.2,0-0.4,0h0c-0.3,0-0.6,0-0.9,0c-0.3,0-0.5,0-0.8,0h0c0,0-0.1,0-0.1,0c0,0,0,0,0.1,0c-0.1,0-0.2,0-0.3,0h-32.4
				c0,1.3-0.5,2.5-1.4,3.3l22.7,22.7l0.6,0.6c0.1,0.1,0.3,0.2,0.4,0.3l0.2,0.2c0,0,0.1,0.1,0.1,0.1c0,0,0,0,0.1,0.1c0,0,0,0,0.1,0.1
				c0.1,0.1,0.3,0.3,0.5,0.4c0,0,0.1,0.1,0.1,0.1c0.1,0.1,0.3,0.2,0.4,0.3c0,0,0,0,0,0c0.2,0.1,0.3,0.3,0.5,0.4
				c0.2,0.1,0.3,0.3,0.5,0.4c0.1,0.1,0.2,0.1,0.3,0.2c0.1,0.1,0.2,0.1,0.3,0.2c0.1,0.1,0.2,0.1,0.3,0.2c0,0,0,0,0,0
				c0.1,0,0.1,0.1,0.2,0.1c0.1,0.1,0.2,0.1,0.3,0.2c0.3,0.2,0.6,0.3,0.9,0.4c0.1,0.1,0.2,0.1,0.3,0.2c0.1,0.1,0.2,0.1,0.3,0.1
				c0.4,0.2,0.8,0.3,1.3,0.5c0.1,0,0.2,0.1,0.4,0.1c0.3,0.1,0.5,0.1,0.8,0.2c0.1,0,0.3,0.1,0.4,0.1c0.1,0,0.2,0,0.3,0.1
				c0.1,0,0.2,0,0.3,0.1c0.2,0,0.4,0.1,0.5,0.1c0.1,0,0.2,0,0.3,0c0.1,0,0.2,0,0.2,0c0.1,0,0.2,0,0.3,0c0.2,0,0.5,0,0.7,0
				c0.2,0,0.3,0,0.5,0c0.1,0,0.3,0,0.4,0c0.3,0,0.5,0,0.8,0c0.1,0,0.1,0,0.2,0c0.2,0,0.4,0,0.6-0.1c0,0,0.1,0,0.1,0
				c0.1,0,0.2,0,0.4-0.1c0.3,0,0.5-0.1,0.8-0.1c0.1,0,0.3-0.1,0.4-0.1c0.2,0,0.3-0.1,0.5-0.1c0.1,0,0.1,0,0.2,0
				c0.2,0,0.3-0.1,0.5-0.1c0.1,0,0.3-0.1,0.4-0.1c0.1,0,0.1,0,0.2-0.1c0.2-0.1,0.3-0.1,0.5-0.2c0.1,0,0.2-0.1,0.4-0.1
				c0.1-0.1,0.2-0.1,0.3-0.2c0.1,0,0.2-0.1,0.3-0.1c0.1-0.1,0.3-0.1,0.4-0.2c0.1-0.1,0.2-0.1,0.3-0.2c0.1-0.1,0.2-0.1,0.3-0.2
				c0.1-0.1,0.3-0.1,0.4-0.2c0.1-0.1,0.2-0.1,0.3-0.2s0.2-0.1,0.3-0.2c0.1-0.1,0.2-0.1,0.3-0.2c0.2-0.1,0.4-0.3,0.6-0.4
				c0.1-0.1,0.2-0.2,0.3-0.2c0.1-0.1,0.2-0.2,0.3-0.2s0.2-0.2,0.3-0.2c0.1-0.1,0.2-0.2,0.3-0.3c0.1-0.1,0.2-0.2,0.3-0.3
				c0.4-0.4,0.7-0.7,1-1.1c0,0,0,0,0,0c0.1-0.1,0.1-0.2,0.2-0.3c0.1-0.2,0.2-0.3,0.4-0.5c0.1-0.2,0.2-0.3,0.3-0.5
				c0.1-0.2,0.3-0.4,0.4-0.6c0.1-0.2,0.3-0.4,0.4-0.6c0.1-0.1,0.1-0.2,0.1-0.3c0.1-0.1,0.1-0.3,0.2-0.4c0.1-0.1,0.1-0.3,0.2-0.4
				c0.1-0.1,0.1-0.2,0.1-0.3c0-0.1,0.1-0.2,0.1-0.3c0,0,0-0.1,0-0.1c0-0.1,0.1-0.2,0.1-0.3v0c0,0,0-0.1,0-0.1c0-0.1,0-0.1,0.1-0.2
				s0-0.1,0.1-0.2c0-0.1,0.1-0.2,0.1-0.3c0-0.1,0.1-0.2,0.1-0.3c0-0.1,0.1-0.3,0.1-0.4c0,0,0,0,0-0.1c0-0.1,0.1-0.3,0.1-0.4
				c0,0,0,0,0-0.1c0,0,0,0,0,0c0.1-0.2,0.1-0.4,0.2-0.7c0,0,0,0,0,0c0-0.1,0-0.1,0-0.2c0-0.1,0-0.2,0-0.2c0-0.1,0-0.2,0.1-0.4
				c0,0,0,0,0,0c0-0.1,0-0.3,0.1-0.4c0,0,0,0,0,0c0,0,0-0.1,0-0.1c0,0,0-0.1,0-0.1c0,0,0-0.1,0-0.1c0,0,0-0.1,0-0.1
				c0-0.2,0-0.4,0-0.6c0,0,0,0,0-0.1c0-0.1,0-0.1,0-0.2c0-0.1,0-0.2,0-0.3c0-0.1,0-0.2,0-0.4
				C1430.2-467.2,1430.2-467.4,1430.2-467.7z M1411.5-482.6c0.1,0,0.2,0,0.3-0.1c0.1,0,0.3,0,0.4-0.1
				C1412-482.7,1411.7-482.7,1411.5-482.6z M1412.6-482.8c-0.1,0-0.2,0-0.3,0C1412.4-482.7,1412.5-482.8,1412.6-482.8
				c0,0,0.1,0,0.1,0C1412.7-482.8,1412.6-482.8,1412.6-482.8z M1412.9-482.8c0.1,0,0.1,0,0.2,0c0,0,0.1,0,0.1,0
				C1413.1-482.8,1413-482.8,1412.9-482.8z"/>
			<path class="st12" d="M1412.2-482.7c-0.2,0-0.4,0.1-0.7,0.1c0.1,0,0.2,0,0.3-0.1C1411.9-482.7,1412.1-482.7,1412.2-482.7z"/>
			<path class="st12" d="M1413.2-482.8c-0.1,0-0.2,0-0.3,0C1413-482.8,1413.1-482.8,1413.2-482.8
				C1413.1-482.8,1413.2-482.8,1413.2-482.8z"/>
			<path class="st12" d="M1413.3-482.8C1413.3-482.8,1413.3-482.8,1413.3-482.8C1413.3-482.8,1413.3-482.8,1413.3-482.8
				L1413.3-482.8z"/>
			<path class="st12" d="M1415.1-482.8c-0.3,0-0.6,0-0.9,0c-0.3,0-0.5,0-0.8,0c0.1,0,0.3,0,0.4,0h0c0.1,0,0.3,0,0.4,0
				c0.2,0,0.3,0,0.5,0h0C1414.9-482.8,1415-482.8,1415.1-482.8z"/>
			<path class="st12" d="M1428.7-460.2c0.1-0.1,0.1-0.2,0.1-0.3c-2.5,5.6-8.1,9.5-14.6,9.5c-3.8,0-7.3-1.3-10.1-3.6
				c-0.1-0.1-0.1-0.1-0.2-0.2c-0.7-0.6-1.3-1.2-1.9-1.8c-0.1-0.1-0.2-0.2-0.2-0.3l0.6,0.6c0.1,0.1,0.3,0.2,0.4,0.3l0.2,0.2
				c0,0,0.1,0.1,0.1,0.1c0,0,0,0,0.1,0.1c0,0,0,0,0.1,0.1c0.1,0.1,0.3,0.3,0.5,0.4c0,0,0.1,0.1,0.1,0.1c0.1,0.1,0.3,0.2,0.4,0.3
				c0,0,0,0,0,0c0.2,0.1,0.3,0.3,0.5,0.4c0.2,0.1,0.3,0.3,0.5,0.4c0.1,0.1,0.2,0.1,0.3,0.2c0.1,0.1,0.2,0.1,0.3,0.2
				c0.1,0.1,0.2,0.1,0.3,0.2c0,0,0,0,0,0c0.1,0,0.1,0.1,0.2,0.1c0.1,0.1,0.2,0.1,0.3,0.2c0.3,0.2,0.6,0.3,0.9,0.4
				c0.1,0.1,0.2,0.1,0.3,0.2c0.1,0.1,0.2,0.1,0.3,0.1c0.4,0.2,0.8,0.3,1.3,0.5c0.1,0,0.2,0.1,0.4,0.1c0.3,0.1,0.5,0.1,0.8,0.2
				c0.1,0,0.3,0.1,0.4,0.1c0.1,0,0.2,0,0.3,0.1c0.1,0,0.2,0,0.3,0.1c0.2,0,0.4,0.1,0.5,0.1c0.1,0,0.2,0,0.3,0c0.1,0,0.2,0,0.2,0
				c0.1,0,0.2,0,0.3,0c0.2,0,0.5,0,0.7,0c0.2,0,0.3,0,0.5,0c0.1,0,0.3,0,0.4,0c0.3,0,0.5,0,0.8,0c0.1,0,0.1,0,0.2,0
				c0.2,0,0.4,0,0.6-0.1c0,0,0.1,0,0.1,0c0.1,0,0.2,0,0.4-0.1c0.3,0,0.5-0.1,0.8-0.1c0.1,0,0.3-0.1,0.4-0.1c0.2,0,0.3-0.1,0.5-0.1
				c0.1,0,0.1,0,0.2,0c0.2,0,0.3-0.1,0.5-0.1c0.1,0,0.3-0.1,0.4-0.1c0.1,0,0.1,0,0.2-0.1c0.2-0.1,0.3-0.1,0.5-0.2
				c0.1,0,0.2-0.1,0.4-0.1c0.1-0.1,0.2-0.1,0.3-0.2c0.1,0,0.2-0.1,0.3-0.1c0.1-0.1,0.3-0.1,0.4-0.2c0.1-0.1,0.2-0.1,0.3-0.2
				c0.1-0.1,0.2-0.1,0.3-0.2c0.1-0.1,0.3-0.1,0.4-0.2c0.1-0.1,0.2-0.1,0.3-0.2s0.2-0.1,0.3-0.2c0.1-0.1,0.2-0.1,0.3-0.2
				c0.2-0.1,0.4-0.3,0.6-0.4c0.1-0.1,0.2-0.2,0.3-0.2c0.1-0.1,0.2-0.2,0.3-0.2s0.2-0.2,0.3-0.2c0.1-0.1,0.2-0.2,0.3-0.3
				c0.1-0.1,0.2-0.2,0.3-0.3c0.4-0.4,0.7-0.7,1-1.1c0,0,0,0,0,0c0.1-0.1,0.1-0.2,0.2-0.3c0.1-0.2,0.2-0.3,0.4-0.5
				c0.1-0.2,0.2-0.3,0.3-0.5c0.1-0.2,0.3-0.4,0.4-0.6c0.1-0.2,0.3-0.4,0.4-0.6c0.1-0.1,0.1-0.2,0.1-0.3c0.1-0.1,0.1-0.3,0.2-0.4
				C1428.5-459.9,1428.6-460.1,1428.7-460.2z"/>
		</g>
		<path class="st2" d="M1458.6-333l-156.3-517.2c0,0-10.6-47.6-40.2,12.3c-29.5,59.9-54.4,108.3-54.4,108.3"/>
	</g>
	<path class="st2" d="M2496.3,1813.6l-158.7-525.3c0,0-10.8-48.3-40.8,12.5s-55.3,110-55.3,110"/>
	<polyline class="st12" points="1392.3,1549.5 1392.3,1549.2 1392.3,1541.3 	"/>
	<g>
		<g>
			<circle class="st7" cx="524.7" cy="200.6" r="71"/>
			<path class="st12" d="M519.2,281.6c19.6,0,37.4-8,50.2-20.8"/>
			<path class="st12" d="M524.7,210.6c0,1.5-0.6,2.9-1.6,3.9s-2.4,1.6-3.9,1.6s-2.9-0.6-3.9-1.6c-1-1-1.6-2.4-1.6-3.9
				s0.6-2.9,1.6-3.9c1-1,2.4-1.6,3.9-1.6s2.9,0.6,3.9,1.6C524.1,207.7,524.7,209.1,524.7,210.6z"/>
			<path class="st12" d="M556.6,165.6c0,4.8-1.8,9.2-4.8,12.5c0,0,0,0,0,0c-0.5,0.4-0.9,0.9-1.3,1.3c-0.1,0.1-0.1,0.1-0.2,0.2
				l-27.1,27.1c-1-1-2.4-1.6-3.9-1.6v-39.1c0-0.2,0-0.3,0-0.5c0-10.3,8.4-18.7,18.7-18.7S556.6,155.3,556.6,165.6z"/>
			<path class="st12" d="M556.7,255.7c0,10.3-8.4,18.7-18.7,18.7c-10.3,0-18.6-8.3-18.7-18.5c0,0,0-0.1,0-0.1c0-0.1,0-0.1,0-0.2
				v-0.3c0-0.1,0-0.2,0-0.3v-39.1c1.5,0,2.9-0.6,3.9-1.6l26.6,26.6c0.1,0.1,0.2,0.2,0.3,0.3c0.7,0.8,1.4,1.5,2.2,2.2
				C555,246.9,556.7,251.1,556.7,255.7z"/>
			<path class="st12" d="M519.3,281.6c-4.9,0-9.6-0.5-14.2-1.4v0c-14-2.8-26.4-9.8-36.1-19.5c-1.5-1.5-3-3.2-4.4-4.8
				c-2.4-2.9-4.7-6.1-6.6-9.4c-6.2-10.5-9.7-22.8-9.7-35.9c0-1.7,0.1-3.3,0.2-4.9c0.7-10.2,3.5-19.8,8.1-28.3v0
				c11.9-22.5,35.6-37.8,62.8-37.8c39.2,0,71,31.8,71,71c0,14.3-4.2,27.6-11.5,38.8c-2.7,4.1-5.8,8-9.3,11.5"/>
			<path class="st12" d="M552.5,243.8l-0.5-0.5l-1.5-1.5c0.2,0.1,0.3,0.3,0.4,0.4l0.4,0.4c0,0,0,0,0.1,0.1c0,0,0.1,0.1,0.1,0.1
				c0.2,0.2,0.3,0.3,0.5,0.5c0,0,0.1,0.1,0.1,0.1c0.2,0.1,0.3,0.3,0.5,0.4c0,0,0,0,0,0c0.2,0.2,0.4,0.3,0.6,0.5
				c0.2,0.2,0.4,0.3,0.6,0.4c0.1,0.1,0.2,0.2,0.4,0.2c0.1,0.1,0.3,0.2,0.4,0.2c0.1,0.1,0.2,0.1,0.3,0.2h0c0.1,0,0.1,0.1,0.2,0.1
				c0.1,0.1,0.2,0.1,0.4,0.2c0.3,0.2,0.7,0.4,1,0.5c0.1,0.1,0.3,0.1,0.4,0.2c0.1,0.1,0.3,0.1,0.4,0.2c0.5,0.2,1,0.4,1.5,0.5
				c0.2,0,0.3,0.1,0.4,0.1c0.3,0.1,0.6,0.2,0.9,0.2c0.2,0,0.3,0.1,0.5,0.1c0.1,0,0.3,0,0.4,0.1c0.1,0,0.2,0,0.4,0.1
				c0.2,0,0.4,0.1,0.6,0.1c0.1,0,0.2,0,0.4,0c0.1,0,0.2,0,0.3,0c0.1,0,0.2,0,0.3,0c0.3,0,0.6,0,0.8,0h1.1c0.3,0,0.6,0,0.9,0
				c0.1,0,0.1,0,0.2,0c0.2,0,0.5,0,0.7-0.1c0,0,0.1,0,0.1,0c0.1,0,0.3,0,0.4-0.1c0.3,0,0.6-0.1,0.9-0.2c0.2,0,0.3-0.1,0.5-0.1
				c0.2,0,0.4-0.1,0.6-0.1c0.1,0,0.1,0,0.2-0.1c0.2,0,0.4-0.1,0.5-0.2c0.2,0,0.3-0.1,0.5-0.2c0.1,0,0.2-0.1,0.2-0.1
				c0.2-0.1,0.4-0.1,0.5-0.2c0.1-0.1,0.3-0.1,0.4-0.2l0.4-0.2c0.1,0,0.2-0.1,0.3-0.2c0.2-0.1,0.3-0.1,0.5-0.2
				c0.1-0.1,0.3-0.1,0.4-0.2c0.1-0.1,0.2-0.1,0.3-0.2c0.2-0.1,0.3-0.2,0.4-0.2l0.4-0.2c0.1-0.1,0.2-0.2,0.4-0.2
				c0.1-0.1,0.3-0.2,0.4-0.3c0.2-0.2,0.5-0.3,0.7-0.5c0.1-0.1,0.2-0.2,0.3-0.3s0.2-0.2,0.3-0.3c0.1-0.1,0.2-0.2,0.3-0.3
				c0.1-0.1,0.2-0.2,0.3-0.3c0.1-0.1,0.2-0.2,0.3-0.3c0.4-0.4,0.8-0.9,1.2-1.3c0,0,0,0,0,0c0.1-0.1,0.2-0.2,0.3-0.3
				c0.2-0.2,0.3-0.4,0.4-0.5c0.1-0.2,0.3-0.4,0.4-0.6c0.2-0.2,0.3-0.5,0.5-0.7c0.2-0.2,0.3-0.5,0.4-0.7c0.1-0.1,0.1-0.2,0.2-0.3
				c0.1-0.2,0.2-0.3,0.2-0.4c0.1-0.2,0.2-0.3,0.2-0.5c0.1-0.1,0.1-0.2,0.2-0.4c0-0.1,0.1-0.2,0.1-0.3c0,0,0-0.1,0-0.1
				c0-0.1,0.1-0.2,0.1-0.3c0,0,0-0.1,0-0.1c0-0.1,0-0.1,0.1-0.2c0-0.1,0-0.1,0.1-0.2c0-0.1,0.1-0.2,0.1-0.3c0-0.1,0.1-0.2,0.1-0.3
				c0.1-0.2,0.1-0.3,0.2-0.5c0,0,0,0,0-0.1c0-0.2,0.1-0.3,0.1-0.5c0,0,0,0,0-0.1s0,0,0,0c0.1-0.3,0.1-0.5,0.2-0.8c0,0,0,0,0,0
				c0-0.1,0-0.2,0-0.2c0-0.1,0-0.2,0-0.3c0-0.1,0-0.3,0.1-0.4v0c0-0.2,0-0.3,0.1-0.5l0,0c0-0.1,0-0.1,0-0.2c0-0.1,0-0.1,0-0.2
				c0,0,0-0.1,0-0.1c0,0,0-0.1,0-0.1c0-0.1,0-0.2,0-0.3c0,0,0-0.1,0-0.1c0-0.1,0-0.2,0-0.3v-0.1c0-0.1,0-0.1,0-0.2
				c0-0.1,0-0.2,0-0.3c0-0.1,0-0.3,0-0.4c0-0.3,0-0.6,0-0.9c0-0.1,0-0.3,0-0.4c0-0.1,0-0.2,0-0.2c0-0.1,0-0.2,0-0.2v0
				c0-0.1,0-0.3,0-0.4c0,0,0-0.1,0-0.1c0-0.3-0.1-0.5-0.1-0.8c0-0.1,0-0.2,0-0.3c0-0.1,0-0.3-0.1-0.4c0-0.1,0-0.1,0-0.2
				c0-0.2-0.1-0.4-0.1-0.6c0,0,0,0,0,0c-0.1-0.2-0.1-0.4-0.2-0.6c0-0.1-0.1-0.3-0.1-0.4c0-0.1-0.1-0.3-0.1-0.4
				c0-0.2-0.1-0.3-0.2-0.4c-0.1-0.3-0.2-0.5-0.3-0.8c-0.1-0.1-0.1-0.3-0.2-0.4c-0.1-0.3-0.2-0.5-0.4-0.8c0-0.1-0.1-0.1-0.1-0.2
				c-0.1-0.1-0.1-0.2-0.2-0.3c0,0-0.1-0.1-0.1-0.2c0,0,0-0.1,0-0.1c-0.1-0.1-0.1-0.2-0.2-0.4c-0.1-0.2-0.2-0.4-0.3-0.5
				c-0.1-0.2-0.2-0.3-0.3-0.5c-0.1-0.1-0.2-0.3-0.3-0.4c-0.1-0.2-0.3-0.4-0.4-0.6c0,0,0,0,0,0c-0.1-0.1-0.2-0.2-0.3-0.3
				c-0.1-0.2-0.3-0.3-0.4-0.5c-0.1-0.2-0.3-0.3-0.4-0.5c-0.1-0.1-0.2-0.2-0.3-0.3c-0.1-0.1-0.2-0.2-0.3-0.3c0,0,0,0,0,0
				c-0.2-0.2-0.3-0.3-0.5-0.5c-0.2-0.1-0.3-0.3-0.5-0.4c0,0,0,0-0.1,0c-0.1-0.1-0.2-0.2-0.3-0.2c-0.3-0.2-0.5-0.4-0.8-0.6
				c-0.1-0.1-0.3-0.2-0.4-0.3c-0.1-0.1-0.3-0.2-0.4-0.3c-0.1-0.1-0.2-0.2-0.4-0.2c-0.2-0.1-0.5-0.3-0.7-0.4c0,0,0,0,0,0
				c-0.2-0.1-0.3-0.2-0.5-0.2c-0.1-0.1-0.2-0.1-0.3-0.2c-0.1,0-0.2-0.1-0.3-0.1c0,0-0.1,0-0.1-0.1c-0.2-0.1-0.4-0.2-0.5-0.2
				c0,0,0,0-0.1,0c0,0,0,0-0.1,0c-0.1,0-0.2-0.1-0.4-0.1c-0.2-0.1-0.4-0.2-0.6-0.2c-0.3-0.1-0.5-0.2-0.8-0.2c-0.1,0-0.1,0-0.2-0.1
				c-0.1,0-0.3-0.1-0.4-0.1c-0.1,0-0.1,0-0.2,0c-0.2,0-0.3-0.1-0.5-0.1c0,0-0.1,0-0.1,0c0,0,0,0,0,0c0,0,0,0,0,0
				c-0.3-0.1-0.5-0.1-0.8-0.1c0,0-0.1,0-0.1,0c-0.1,0-0.2,0-0.3,0c0,0,0,0,0,0h0c-0.1,0-0.2,0-0.3,0c0,0,0,0,0,0c-0.1,0-0.1,0-0.2,0
				c-0.1,0-0.1,0-0.2,0h0c-0.1,0-0.3,0-0.4,0h0c-0.1,0-0.3,0-0.4,0c0.1,0,0.2,0,0.3,0c9.7-0.7,17.3-8.8,17.3-18.6
				c0-10.3-8.3-18.7-18.7-18.7c-4.7,0-9,1.8-12.3,4.7c0,0-0.1,0.1-0.1,0.1c3-3.3,4.8-7.7,4.8-12.5c0-10.3-8.4-18.7-18.7-18.7
				c-10.3,0-18.7,8.4-18.7,18.7c0-0.2,0-0.3,0-0.5c-0.3-10.1-8.5-18.2-18.7-18.2c-10.3,0-18.7,8.4-18.7,18.7c0,4.8,1.8,9.2,4.9,12.5
				c-0.1-0.1-0.1-0.1-0.2-0.2c-3.3-2.9-7.6-4.6-12.3-4.6c-10.3,0-18.7,8.4-18.7,18.7c0,0.4,0,0.8,0,1.2c0,0.1,0,0.1,0,0.2
				c0,0.3,0,0.6,0.1,0.8c0.1,0.6,0.2,1.2,0.3,1.7c0.1,0.3,0.1,0.6,0.2,0.9c0,0,0,0.1,0,0.1c0.1,0.3,0.2,0.6,0.2,0.8
				c0.3,0.9,0.6,1.7,1,2.5c0.1,0.2,0.2,0.5,0.4,0.7c0.2,0.4,0.4,0.7,0.6,1.1c0.1,0.2,0.3,0.5,0.5,0.7c0.2,0.2,0.3,0.5,0.5,0.7
				c0.3,0.4,0.6,0.7,0.9,1.1c0.3,0.3,0.6,0.6,0.9,1c0.1,0.1,0.3,0.3,0.4,0.4c0,0,0,0,0.1,0.1c0.2,0.2,0.5,0.4,0.7,0.6
				c0.3,0.2,0.6,0.5,0.9,0.7c0.3,0.2,0.6,0.4,1,0.6h0c0.3,0.2,0.6,0.3,0.8,0.5c1,0.6,2.1,1,3.3,1.4c0.3,0.1,0.6,0.2,1,0.3
				c0.3,0.1,0.6,0.2,0.9,0.2c0.2,0,0.3,0.1,0.5,0.1c0.3,0.1,0.6,0.1,0.8,0.1c0.4,0,0.7,0.1,1.1,0.1c0.1,0,0.2,0,0.3,0
				c-0.6,0-1.3,0.1-1.9,0.2"/>
			<path class="st12" d="M515.4,206.7c-1,1-1.6,2.4-1.6,3.9h-38.9c-0.2,0-0.4,0-0.6,0c-0.2,0-0.4,0-0.6,0H473
				c-0.4,0-0.7-0.1-1.1-0.1c-0.3,0-0.6-0.1-0.8-0.1c-0.2,0-0.3-0.1-0.5-0.1c-0.3-0.1-0.6-0.1-0.9-0.2c-0.3-0.1-0.6-0.2-1-0.3
				c-1.2-0.4-2.3-0.8-3.3-1.4c-0.3-0.2-0.6-0.3-0.8-0.5h0c-0.3-0.2-0.6-0.4-1-0.6c-0.3-0.2-0.6-0.5-0.9-0.7
				c-0.2-0.2-0.5-0.4-0.7-0.6l-0.1-0.1c-0.2-0.1-0.3-0.3-0.4-0.4c-0.3-0.3-0.6-0.6-0.9-1c-0.3-0.3-0.6-0.7-0.9-1.1
				c-0.2-0.2-0.3-0.5-0.5-0.7c-0.2-0.2-0.3-0.5-0.5-0.7c-0.2-0.3-0.4-0.7-0.6-1.1c-0.1-0.2-0.3-0.5-0.4-0.7c-0.4-0.8-0.8-1.7-1-2.5
				c-0.1-0.3-0.2-0.5-0.2-0.8c0,0,0-0.1,0-0.1c-0.1-0.3-0.2-0.6-0.2-0.9c-0.1-0.6-0.2-1.1-0.3-1.7c0-0.3-0.1-0.5-0.1-0.8
				c0-0.1,0-0.1,0-0.2c0-0.4,0-0.8,0-1.2c0-10.3,8.3-18.7,18.6-18.7c4.7,0,9,1.7,12.3,4.6l0.5,0.5c0.2,0.2,0.4,0.4,0.6,0.6l0.6,0.6
				L515.4,206.7z"/>
			<path class="st12" d="M582.8,192c0,9.8-7.6,17.9-17.3,18.6h-0.7c-0.2,0-0.4,0-0.6,0c-0.2,0-0.3,0-0.5,0h-39
				c0-1.5-0.6-2.9-1.6-3.9l27.1-27.1l0.4-0.4c0.3-0.3,0.6-0.6,0.9-0.9l0.3-0.3c3.3-2.9,7.6-4.7,12.3-4.7
				C574.5,173.3,582.8,181.7,582.8,192z"/>
		</g>
		<path class="st7" d="M63.1,294.7c0.2,0.4,0.5,0.9,0.7,1.3c35,63.1,112.1,109.6,198.1,109.6c86.6,0,164.3-47.2,198.9-111H63.1z"/>
		<path class="st12" d="M137.4,202.2c-5.7,0.4-11.2,0.8-16.6,1.2"/>
		<path class="st12" d="M381.2,201.9c25.1,1.5,47.7,3.6,67,6c2,0.3,4,0.5,5.9,0.8c39.5,5.2,63.6,12.1,64,19.6c0,0.1,0,0.2,0,0.2
			c0,0.8-0.3,1.6-0.8,2.3c-3.7,5.6-20.7,10.8-47.4,15.2c-3.6,0.6-7.4,1.2-11.4,1.7c-39.2,5.5-94.8,9.3-157.9,10.4
			c-12.7,0.2-25.7,0.3-38.9,0.3c-134.9,0-245.4-12.2-255.6-27.6c-0.5-0.8-0.8-1.6-0.8-2.3c0-0.1,0-0.1,0-0.2
			c0.5-8.4,30.7-16,79-21.4"/>
		<path class="st12" d="M188.4,199.7c23.3-0.8,47.9-1.3,73.4-1.3c15.8,0,31.2,0.2,46.2,0.5"/>
		<ellipse class="st4" cx="261.9" cy="293.8" rx="198.9" ry="23.1"/>
		<path class="st12" d="M244.6,748.9c-77.6,1-137.9,8.7-137.9,18c0,6.1,25.4,11.4,64.5,14.7"/>
		<path class="st12" d="M279,748.9c77.6,1,137.9,8.7,137.9,18c0,10-69.4,18.1-155.1,18.1c-18.8,0-36.8-0.4-53.5-1.1"/>
		<path class="st12" d="M287.3,419.4c109.3-10.4,199.4-86.6,230.1-188.6c0.3-0.9,0.5-1.7,0.8-2.6"/>
		<path class="st12" d="M5.4,228.2c0.2,0.9,0.5,1.7,0.8,2.6C36.9,332.8,127,409,236.3,419.4"/>
		<g>
			<path class="st12" d="M236.3,419.4c7.2,8.1,19.4,37.4,18.8,142.8c-0.9,143.8,2.6,172-10.5,186.8"/>
			<path class="st12" d="M268.7,671.4c0-3.6,0-7.4,0-11.4"/>
			<path class="st12" d="M268.7,644.3c0-22.1,0-49.1-0.2-82.2c-0.7-105.3,11.6-134.6,18.8-142.8"/>
			<path class="st12" d="M279,748.9c-5.7-6.4-8.2-15.3-9.4-34.8"/>
		</g>
		<g>
			<circle class="st2" cx="344.7" cy="196.5" r="36.9"/>
			<line class="st2" x1="389.7" y1="131.6" x2="226.4" y2="363.6"/>
		</g>
	</g>
	<line class="st9" x1="913" y1="2543.9" x2="914.2" y2="2580.7"/>
	<g>
		<path class="st4" d="M-1411.8,831.8c0,40.7,10.4,78.9,28.8,112.2c23.1,41.9,58.8,76,102,97c30.8,15,65.3,23.4,101.8,23.4
			c28.3,0,55.4-5,80.4-14.3c51.1-18.8,93.8-55.1,120.9-101.7c19.9-34.3,31.4-74.2,31.4-116.7"/>
		<path class="st9" d="M-1421.3,839.6c0,40.7,10.5,79,28.8,112.3c23.2,42,58.9,76.1,102.1,97.2c30.8,15,65.4,23.4,102,23.4
			c28.3,0,55.4-5.1,80.5-14.3c51.2-18.9,93.9-55.2,121-101.8c20-34.3,31.4-74.3,31.4-116.9"/>
		<polyline class="st9" points="-955.5,839.6 -995,839.6 -1169.2,839.6 -1188.4,839.6 -1207.6,839.6 -1381.8,839.6 -1421.3,839.6 		
			"/>
		<path class="st9" d="M-1169.2,839.6c0,3.5-0.9,6.8-2.6,9.7c-2.2,3.8-5.8,6.8-10,8.4c-2.1,0.8-4.3,1.2-6.7,1.2
			c-3,0-5.9-0.7-8.4-1.9c-3.6-1.7-6.5-4.6-8.4-8c-1.5-2.8-2.4-5.9-2.4-9.3"/>
		<line class="st9" x1="-1205.2" y1="848.8" x2="-1357.8" y2="932.8"/>
		<line class="st9" x1="-1021.1" y1="936.6" x2="-1171.8" y2="849.2"/>
		<line class="st9" x1="-1121.5" y1="1021.1" x2="-1181.7" y2="857.6"/>
		<line class="st9" x1="-1196.8" y1="856.8" x2="-1273" y2="1013.5"/>
		<path class="st9" d="M-1385.3,839.6c0,108.8,88.2,196.9,196.9,196.9c108.8,0,196.9-88.2,196.9-196.9"/>
	</g>
	<g>
		<ellipse class="st2" cx="-1234.9" cy="-650.4" rx="141.5" ry="12.5"/>
		<path class="st2" d="M-1376.2-1.8c-0.2,0.2-0.2,0.5-0.2,0.7s0.1,0.5,0.2,0.7c4.3,6.5,65.9,11.7,141.3,11.7
			c75.3,0,136.9-5.2,141.3-11.7c0.2-0.2,0.2-0.5,0.2-0.7s-0.1-0.5-0.2-0.7"/>
		<path class="st2" d="M-1376.2-86.1c-0.2,0.2-0.2,0.5-0.2,0.7s0.1,0.5,0.2,0.7c4.3,6.5,65.9,11.7,141.3,11.7
			c75.3,0,136.9-5.2,141.3-11.7c0.2-0.2,0.2-0.5,0.2-0.7s-0.1-0.5-0.2-0.7"/>
		<line class="st2" x1="-1093.7" y1="-419.7" x2="-1093.7" y2="-611.6"/>
		<polyline class="st2" points="-1093.7,-313.6 -1093.7,-86.1 -1093.7,-84.6 -1093.7,-67 		"/>
		<line class="st2" x1="-1093.7" y1="0.7" x2="-1093.7" y2="-33.3"/>
		<line class="st2" x1="-1093.7" y1="-370" x2="-1093.7" y2="-375.8"/>
		<polyline class="st2" points="-1093.7,-639.2 -1093.7,-646.9 -1093.7,-649.7 		"/>
		<line class="st2" x1="-1376.2" y1="-586.3" x2="-1376.2" y2="-593"/>
		<polyline class="st2" points="-1376.2,-548.3 -1376.2,-86.1 -1376.2,-84.6 -1376.2,0.7 		"/>
		<polyline class="st2" points="-1376.2,-616.4 -1376.2,-649.7 -1376.2,-651.2 -1376.2,-651.2 		"/>
		<ellipse class="st4" cx="-1234.9" cy="-567.1" rx="124.6" ry="11"/>
		<path class="st7" d="M-1110.3-567.1c0,0-7.2,377-12,419.7c-3.1,28-37.8,43.4-71.7,51c-23.8,5.3-67,6.9-90.7,0.9
			c-26.4-6.6-55.2-21.2-61-53.1c-11.1-61.6-13.8-418.4-13.8-418.4c0,6.1,55.8,11,124.6,11S-1110.3-561-1110.3-567.1z"/>
		<circle class="st11" cx="-1134.6" cy="-745.9" r="21.3"/>
		<line class="st2" x1="-1144.3" y1="-727.1" x2="-1345.8" y2="-311"/>
		<path class="st11" d="M-1187.9-187l-45.9,26.5c-8.6,4.9-19.6,2-24.6-6.6l-25.4-44c-4.9-8.6-2-19.6,6.6-24.6l45.9-26.5
			c8.6-4.9,19.6-2,24.6,6.6l25.4,44C-1176.4-203-1179.4-192-1187.9-187z"/>
		<path class="st11" d="M-1181.3-276.9l-52.9,4c-9.9,0.7-18.6-6.7-19.3-16.6l-3.8-50.7c-0.7-9.9,6.7-18.6,16.6-19.3l52.9-4
			c9.9-0.7,18.6,6.7,19.3,16.6l3.8,50.7C-1163.9-286.3-1171.4-277.7-1181.3-276.9z"/>
		<path class="st11" d="M-1178.7-366.5l-37.5,37.5c-7,7-18.5,7-25.5,0l-35.9-35.9c-7-7-7-18.5,0-25.5l37.5-37.5c7-7,18.5-7,25.5,0
			l35.9,35.9C-1171.7-385-1171.7-373.5-1178.7-366.5z"/>
		<g>
			<path class="st4" d="M-1223.2-536.8c-8.6,8.8-14.4,19.2-17.4,30.3c-3.9,13.9-3.3,28.8,1.5,42.4c3.5,9.7,9.1,18.8,17,26.5
				c6.1,6,13,10.6,20.4,13.9c15,6.7,31.8,7.9,47.5,3.6c11.5-3.2,22.4-9.4,31.4-18.6"/>
			<path class="st9" d="M-1226.9-537.2c-8.6,8.8-14.4,19.2-17.5,30.3c-3.9,13.9-3.3,28.8,1.6,42.5c3.5,9.7,9.2,18.8,17,26.5
				c6.1,6,13,10.6,20.4,13.9c15,6.7,31.9,7.9,47.5,3.6c11.5-3.2,22.4-9.4,31.4-18.6"/>
			<polyline class="st9" points="-1126.4,-439 -1135,-447.3 -1172.5,-484 -1176.7,-488.1 -1180.8,-492.1 -1218.3,-528.8 
				-1226.9,-537.2 			"/>
			<path class="st9" d="M-1172.5-484c-0.7,0.8-1.6,1.3-2.6,1.5c-1.3,0.4-2.7,0.3-3.9-0.3c-0.6-0.3-1.2-0.7-1.7-1.1
				c-0.7-0.6-1.1-1.4-1.4-2.2c-0.4-1.1-0.4-2.4-0.1-3.5c0.3-0.9,0.7-1.8,1.4-2.5"/>
			<line class="st9" x1="-1182.2" y1="-489.6" x2="-1232.8" y2="-503.7"/>
			<line class="st9" x1="-1161" y1="-431.9" x2="-1175.1" y2="-482.5"/>
			<line class="st9" x1="-1200.5" y1="-434.9" x2="-1179" y2="-482.8"/>
			<line class="st9" x1="-1182.1" y1="-486.1" x2="-1231.6" y2="-468.4"/>
			<path class="st9" d="M-1219.1-529.6c-22.9,23.5-22.5,61,1,84c23.4,22.9,61,22.5,84-1"/>
		</g>
	</g>
	<g>
		<path class="st12" d="M1864.6-786.3c-0.1,0-0.2,0-0.3,0c-0.3,0-0.7,0-1,0c-0.3,0-0.7,0-1,0c-0.1,0-0.2,0-0.3,0h0.8
			c0.2,0,0.4,0,0.6,0c0.2,0,0.4,0,0.6,0H1864.6z"/>
		<path class="st12" d="M1876.6-816.4c0.1,0.1,0.2,0.2,0.2,0.3l-0.6-0.6l-0.6-0.6l-0.5-0.5c0.1,0.1,0.1,0.1,0.2,0.2
			C1875.8-817.3,1876.2-816.9,1876.6-816.4L1876.6-816.4z"/>
		<path class="st12" d="M1912.1-786.3c0,1.5-0.6,2.8-1.6,3.8c-1,1-2.3,1.6-3.8,1.6c-1.5,0-2.8-0.6-3.8-1.6c-1-1-1.6-2.3-1.6-3.8
			c0-1.5,0.6-2.8,1.6-3.8c1-1,2.3-1.6,3.8-1.6c1.5,0,2.8,0.6,3.8,1.6C1911.5-789.1,1912.1-787.7,1912.1-786.3z"/>
		<line class="st12" x1="1863.8" y1="-786.3" x2="1862.7" y2="-786.3"/>
		<line class="st12" x1="1876.2" y1="-816.8" x2="1875.6" y2="-817.4"/>
		<path class="st12" d="M1906.7-830.3v38.7c-1.5,0-2.8,0.6-3.8,1.6l-26.1-26.1c-0.1-0.1-0.1-0.2-0.2-0.3l0,0
			c-0.4-0.5-0.8-0.9-1.3-1.3c-2.9-3.2-4.7-7.5-4.7-12.1c0-10,8.1-18.1,18.1-18.1C1898.5-847.9,1906.5-840.1,1906.7-830.3z"/>
		<path class="st12" d="M1876.6-816.4c-0.1-0.1-0.3-0.2-0.4-0.4l-0.6-0.6c-0.1-0.1-0.2-0.2-0.3-0.3
			C1875.8-817.3,1876.2-816.9,1876.6-816.4z"/>
		<path class="st12" d="M1854.2-752.6c-0.1-0.1-0.3-0.2-0.4-0.2"/>
		<line class="st12" x1="1893.9" y1="-725.3" x2="1893.9" y2="-725.3"/>
		<path class="st12" d="M1864.6-786.3c-0.1,0-0.2,0-0.3,0c-0.3,0-0.7,0-1,0c-0.3,0-0.7,0-1,0c-0.1,0-0.2,0-0.3,0h0.8
			c0.2,0,0.4,0,0.6,0c0.2,0,0.4,0,0.6,0H1864.6z"/>
		<path class="st12" d="M1876.8-816.2l-0.6-0.6l-0.6-0.6l-0.5-0.5c0.1,0.1,0.1,0.1,0.2,0.2c0.5,0.4,0.9,0.8,1.3,1.3l0,0
			C1876.7-816.3,1876.8-816.2,1876.8-816.2z"/>
		<g>
			<circle class="st7" cx="1912.1" cy="-795.9" r="68.8"/>
			<path class="st12" d="M1906.7-717.5c19,0,36.2-7.7,48.6-20.1"/>
			<path class="st12" d="M1912.1-786.3c0,1.5-0.6,2.8-1.6,3.8c-1,1-2.3,1.6-3.8,1.6c-1.5,0-2.8-0.6-3.8-1.6c-1-1-1.6-2.3-1.6-3.8
				c0-1.5,0.6-2.8,1.6-3.8c1-1,2.3-1.6,3.8-1.6c1.5,0,2.8,0.6,3.8,1.6C1911.5-789.1,1912.1-787.7,1912.1-786.3z"/>
			<path class="st12" d="M1942.9-829.8c0,4.7-1.8,8.9-4.7,12.1c0,0,0,0,0,0c-0.5,0.4-0.9,0.8-1.3,1.3c-0.1,0.1-0.1,0.1-0.2,0.2
				l-26.2,26.2c-1-1-2.3-1.6-3.8-1.6v-37.8c0-0.2,0-0.3,0-0.5c0-10,8.1-18.1,18.1-18.1S1942.9-839.8,1942.9-829.8z"/>
			<path class="st12" d="M1943-742.6c0,10-8.1,18.1-18.1,18.1c-9.9,0-18-8-18.1-17.9c0,0,0-0.1,0-0.1c0-0.1,0-0.1,0-0.2v-0.3
				c0-0.1,0-0.2,0-0.3v-37.8c1.5,0,2.8-0.6,3.8-1.6l25.8,25.8c0.1,0.1,0.2,0.2,0.3,0.3c0.6,0.8,1.3,1.5,2.1,2.1
				C1941.3-751.2,1943-747.1,1943-742.6z"/>
			<path class="st12" d="M1906.7-717.5c-4.7,0-9.3-0.5-13.8-1.4v0c-13.5-2.7-25.6-9.4-34.9-18.8c-1.5-1.5-2.9-3.1-4.3-4.7
				c-2.4-2.9-4.5-5.9-6.4-9.1c-6-10.2-9.4-22-9.4-34.7c0-1.6,0.1-3.2,0.2-4.8c0.7-9.9,3.4-19.1,7.8-27.4v0
				c11.6-21.7,34.4-36.5,60.8-36.5c38,0,68.7,30.8,68.7,68.7c0,13.9-4.1,26.7-11.1,37.5c-2.6,4-5.6,7.7-9,11.1"/>
			<path class="st12" d="M1938.9-754.1l-0.5-0.5l-1.4-1.4c0.1,0.1,0.3,0.3,0.4,0.4l0.4,0.4c0,0,0,0,0.1,0.1c0,0,0.1,0.1,0.1,0.1
				c0.2,0.2,0.3,0.3,0.5,0.5c0,0,0.1,0.1,0.1,0.1c0.2,0.1,0.3,0.2,0.4,0.4c0,0,0,0,0,0c0.2,0.2,0.4,0.3,0.6,0.4
				c0.2,0.1,0.4,0.3,0.6,0.4c0.1,0.1,0.2,0.2,0.3,0.2c0.1,0.1,0.2,0.1,0.4,0.2c0.1,0.1,0.2,0.1,0.3,0.2h0c0.1,0,0.1,0.1,0.2,0.1
				c0.1,0.1,0.2,0.1,0.3,0.2c0.3,0.2,0.7,0.3,1,0.5c0.1,0.1,0.3,0.1,0.4,0.2c0.1,0.1,0.3,0.1,0.4,0.2c0.5,0.2,1,0.4,1.5,0.5
				c0.1,0,0.3,0.1,0.4,0.1c0.3,0.1,0.6,0.2,0.9,0.2c0.2,0,0.3,0.1,0.4,0.1c0.1,0,0.2,0,0.4,0.1c0.1,0,0.2,0,0.3,0.1
				c0.2,0,0.4,0.1,0.6,0.1c0.1,0,0.2,0,0.4,0c0.1,0,0.2,0,0.3,0c0.1,0,0.2,0,0.3,0c0.3,0,0.5,0,0.8,0h1c0.3,0,0.6,0,0.9,0
				c0.1,0,0.1,0,0.2,0c0.2,0,0.4,0,0.6-0.1c0,0,0.1,0,0.1,0c0.1,0,0.3,0,0.4-0.1c0.3,0,0.6-0.1,0.9-0.2c0.1,0,0.3-0.1,0.4-0.1
				c0.2,0,0.4-0.1,0.5-0.1c0.1,0,0.1,0,0.2-0.1c0.2,0,0.3-0.1,0.5-0.1c0.2,0,0.3-0.1,0.5-0.1c0.1,0,0.1-0.1,0.2-0.1
				c0.2-0.1,0.3-0.1,0.5-0.2c0.1-0.1,0.3-0.1,0.4-0.2l0.4-0.2c0.1,0,0.2-0.1,0.3-0.2c0.1-0.1,0.3-0.1,0.4-0.2
				c0.1-0.1,0.3-0.1,0.4-0.2c0.1-0.1,0.2-0.1,0.3-0.2c0.1-0.1,0.3-0.2,0.4-0.2l0.4-0.2c0.1-0.1,0.2-0.1,0.3-0.2
				c0.1-0.1,0.2-0.2,0.4-0.2c0.2-0.2,0.5-0.3,0.7-0.5c0.1-0.1,0.2-0.2,0.3-0.3c0.1-0.1,0.2-0.2,0.3-0.3c0.1-0.1,0.2-0.2,0.3-0.3
				c0.1-0.1,0.2-0.2,0.3-0.3c0.1-0.1,0.2-0.2,0.3-0.3c0.4-0.4,0.8-0.8,1.2-1.3c0,0,0,0,0,0c0.1-0.1,0.2-0.2,0.2-0.3
				c0.1-0.2,0.3-0.3,0.4-0.5c0.1-0.2,0.3-0.4,0.4-0.5c0.2-0.2,0.3-0.4,0.4-0.7c0.2-0.2,0.3-0.5,0.4-0.7c0.1-0.1,0.1-0.2,0.2-0.3
				c0.1-0.1,0.1-0.3,0.2-0.4c0.1-0.2,0.2-0.3,0.2-0.5c0.1-0.1,0.1-0.2,0.2-0.4c0-0.1,0.1-0.2,0.1-0.3c0,0,0-0.1,0-0.1
				c0-0.1,0.1-0.2,0.1-0.3c0,0,0-0.1,0-0.1c0-0.1,0-0.1,0.1-0.2c0-0.1,0-0.1,0.1-0.2c0-0.1,0.1-0.2,0.1-0.3c0-0.1,0.1-0.2,0.1-0.3
				c0.1-0.2,0.1-0.3,0.1-0.5c0,0,0,0,0-0.1c0-0.1,0.1-0.3,0.1-0.4c0,0,0,0,0-0.1s0,0,0,0c0.1-0.3,0.1-0.5,0.2-0.8c0,0,0,0,0,0
				c0-0.1,0-0.1,0-0.2c0-0.1,0-0.2,0-0.3c0-0.1,0-0.3,0.1-0.4v0c0-0.1,0-0.3,0.1-0.4l0,0c0-0.1,0-0.1,0-0.1c0-0.1,0-0.1,0-0.2
				c0,0,0-0.1,0-0.1c0,0,0-0.1,0-0.1c0-0.1,0-0.2,0-0.3c0,0,0-0.1,0-0.1c0-0.1,0-0.2,0-0.3v-0.1c0-0.1,0-0.1,0-0.2
				c0-0.1,0-0.2,0-0.3c0-0.1,0-0.3,0-0.4c0-0.3,0-0.6,0-0.9c0-0.1,0-0.3,0-0.4c0-0.1,0-0.2,0-0.2c0-0.1,0-0.2,0-0.2v0
				c0-0.1,0-0.3,0-0.4c0,0,0-0.1,0-0.1c0-0.3-0.1-0.5-0.1-0.8c0-0.1,0-0.2,0-0.3c0-0.1,0-0.2-0.1-0.4c0-0.1,0-0.1,0-0.2
				c0-0.2-0.1-0.4-0.1-0.6c0,0,0,0,0,0c-0.1-0.2-0.1-0.4-0.2-0.6c0-0.1-0.1-0.3-0.1-0.4c0-0.1-0.1-0.3-0.1-0.4
				c0-0.1-0.1-0.3-0.2-0.4c-0.1-0.2-0.2-0.5-0.3-0.7c-0.1-0.1-0.1-0.3-0.2-0.4c-0.1-0.3-0.2-0.5-0.4-0.7c0-0.1-0.1-0.1-0.1-0.2
				c-0.1-0.1-0.1-0.2-0.2-0.3c0,0-0.1-0.1-0.1-0.1c0,0,0-0.1,0-0.1c-0.1-0.1-0.1-0.2-0.2-0.3c-0.1-0.2-0.2-0.4-0.3-0.5
				s-0.2-0.3-0.3-0.5c-0.1-0.1-0.2-0.3-0.3-0.4c-0.1-0.2-0.3-0.4-0.4-0.5c0,0,0,0,0,0c-0.1-0.1-0.2-0.2-0.3-0.3
				c-0.1-0.2-0.3-0.3-0.4-0.5c-0.1-0.2-0.3-0.3-0.4-0.4c-0.1-0.1-0.2-0.2-0.3-0.3c-0.1-0.1-0.2-0.2-0.3-0.3c0,0,0,0,0,0
				c-0.2-0.1-0.3-0.3-0.5-0.4c-0.1-0.1-0.3-0.3-0.5-0.4c0,0,0,0-0.1,0c-0.1-0.1-0.2-0.1-0.3-0.2c-0.3-0.2-0.5-0.4-0.8-0.6
				c-0.1-0.1-0.3-0.2-0.4-0.3c-0.1-0.1-0.3-0.2-0.4-0.3c-0.1-0.1-0.2-0.1-0.3-0.2c-0.2-0.1-0.5-0.3-0.7-0.4c0,0,0,0,0,0
				c-0.1-0.1-0.3-0.2-0.4-0.2c-0.1-0.1-0.2-0.1-0.3-0.1c-0.1,0-0.2-0.1-0.2-0.1c0,0-0.1,0-0.1-0.1c-0.2-0.1-0.3-0.2-0.5-0.2
				c0,0,0,0-0.1,0c0,0,0,0-0.1,0c-0.1,0-0.2-0.1-0.4-0.1c-0.2-0.1-0.4-0.2-0.6-0.2c-0.2-0.1-0.5-0.2-0.7-0.2c-0.1,0-0.1,0-0.2-0.1
				c-0.1,0-0.3-0.1-0.4-0.1c-0.1,0-0.1,0-0.2,0c-0.2,0-0.3-0.1-0.5-0.1c0,0-0.1,0-0.1,0c0,0,0,0,0,0c0,0,0,0,0,0
				c-0.2-0.1-0.5-0.1-0.7-0.1c0,0-0.1,0-0.1,0c-0.1,0-0.2,0-0.2,0c0,0,0,0,0,0h0c-0.1,0-0.2,0-0.3,0c0,0,0,0,0,0c-0.1,0-0.1,0-0.2,0
				c-0.1,0-0.1,0-0.2,0h0c-0.1,0-0.3,0-0.4,0h0c-0.1,0-0.3,0-0.4,0c0.1,0,0.2,0,0.3,0c9.4-0.7,16.7-8.5,16.7-18
				c0-10-8.1-18.1-18-18.1c-4.6,0-8.8,1.7-11.9,4.5c0,0-0.1,0.1-0.1,0.1c2.9-3.2,4.7-7.5,4.7-12.1c0-10-8.1-18.1-18-18.1
				c-10,0-18.1,8.1-18.1,18.1c0-0.2,0-0.3,0-0.5c-0.3-9.8-8.2-17.6-18-17.6c-10,0-18.1,8.1-18.1,18.1c0,4.7,1.8,8.9,4.7,12.1
				c-0.1-0.1-0.1-0.1-0.2-0.2c-3.2-2.8-7.3-4.5-11.9-4.5c-10,0-18,8.1-18,18.1c0,0.4,0,0.8,0,1.2c0,0.1,0,0.1,0,0.2
				c0,0.3,0,0.5,0.1,0.8c0.1,0.6,0.1,1.1,0.3,1.7c0.1,0.3,0.1,0.6,0.2,0.8c0,0,0,0.1,0,0.1c0.1,0.3,0.1,0.5,0.2,0.8
				c0.3,0.8,0.6,1.7,1,2.4c0.1,0.2,0.2,0.5,0.4,0.7c0.2,0.3,0.4,0.7,0.6,1c0.1,0.2,0.3,0.5,0.5,0.7c0.1,0.2,0.3,0.4,0.5,0.7
				c0.3,0.4,0.6,0.7,0.9,1.1c0.3,0.3,0.6,0.6,0.9,0.9c0.1,0.1,0.3,0.3,0.4,0.4c0,0,0,0,0.1,0.1c0.2,0.2,0.4,0.4,0.7,0.6
				c0.3,0.2,0.6,0.5,0.9,0.7c0.3,0.2,0.6,0.4,0.9,0.6h0c0.3,0.2,0.5,0.3,0.8,0.5c1,0.5,2.1,1,3.2,1.4c0.3,0.1,0.6,0.2,0.9,0.3
				c0.3,0.1,0.6,0.1,0.9,0.2c0.2,0,0.3,0.1,0.5,0.1c0.3,0.1,0.5,0.1,0.8,0.1c0.3,0,0.7,0.1,1.1,0.1c0.1,0,0.2,0,0.3,0
				c-0.6,0-1.2,0.1-1.8,0.2"/>
			<path class="st12" d="M1903-790c-1,1-1.6,2.3-1.6,3.8h-37.6c-0.2,0-0.4,0-0.6,0c-0.2,0-0.4,0-0.6,0h-0.8c-0.4,0-0.7-0.1-1.1-0.1
				c-0.3,0-0.5-0.1-0.8-0.1c-0.2,0-0.3-0.1-0.5-0.1c-0.3-0.1-0.6-0.1-0.9-0.2c-0.3-0.1-0.6-0.2-0.9-0.3c-1.1-0.4-2.2-0.8-3.2-1.4
				c-0.3-0.1-0.5-0.3-0.8-0.5h0c-0.3-0.2-0.6-0.4-0.9-0.6c-0.3-0.2-0.6-0.4-0.9-0.7c-0.2-0.2-0.5-0.4-0.7-0.6l-0.1-0.1
				c-0.1-0.1-0.3-0.3-0.4-0.4c-0.3-0.3-0.6-0.6-0.9-0.9c-0.3-0.3-0.6-0.7-0.9-1.1c-0.2-0.2-0.3-0.4-0.5-0.7
				c-0.2-0.2-0.3-0.4-0.5-0.7c-0.2-0.3-0.4-0.7-0.6-1c-0.1-0.2-0.2-0.4-0.4-0.7c-0.4-0.8-0.7-1.6-1-2.4c-0.1-0.3-0.2-0.5-0.2-0.8
				c0,0,0-0.1,0-0.1c-0.1-0.3-0.1-0.6-0.2-0.8c-0.1-0.5-0.2-1.1-0.3-1.7c0-0.3-0.1-0.5-0.1-0.8c0-0.1,0-0.1,0-0.2c0-0.4,0-0.8,0-1.2
				c0-10,8.1-18.1,18-18.1c4.6,0,8.7,1.7,11.9,4.5l0.5,0.5c0.2,0.2,0.4,0.4,0.6,0.6l0.6,0.6L1903-790z"/>
			<path class="st12" d="M1968.3-804.3c0,9.5-7.4,17.3-16.7,18h-0.7c-0.2,0-0.4,0-0.6,0c-0.2,0-0.3,0-0.5,0h-37.7
				c0-1.5-0.6-2.8-1.6-3.8l26.2-26.2l0.4-0.4c0.3-0.3,0.6-0.6,0.9-0.9l0.3-0.3c3.2-2.8,7.4-4.5,11.9-4.5
				C1960.2-822.3,1968.3-814.2,1968.3-804.3z"/>
		</g>
		<path class="st12" d="M1864.3-786.2c-0.3,0-0.7,0-1,0s-0.7,0-1,0c0.1,0,0.3,0,0.4,0c0.2,0,0.4,0,0.6,0s0.4,0,0.6,0
			C1864-786.3,1864.1-786.3,1864.3-786.2z"/>
		<path class="st12" d="M1856.3-752.9c-0.7,0.1-1.4,0.2-2.1,0.3c-0.1,0-0.3,0-0.4,0.1c-2.1,0.3-4.2,0.6-6.4,1
			c-3.9,0.5-8,1.1-12.2,1.5c-24.8,2.8-54.9,4.5-87.4,4.5c-81.8,0-148.5-10.5-153-23.8c0,0,0,0,0,0c0,0,0-0.1,0-0.1
			c-0.1-0.4-0.2-0.9-0.2-1.3c0-13.9,68.6-25.2,153.2-25.2c33.8,0,65,1.8,90.4,4.9c1.5,0.2,3,0.4,4.4,0.6c3.9,0.5,7.6,1,11.2,1.6h0
			c5.2,0.8,10.1,1.7,14.5,2.6c0.3,0.1,0.6,0.1,1,0.2h-8.8"/>
		<path class="st12" d="M1869.3-786.1c19.9,4.2,31.7,9.6,31.7,15.3c0,0.4-0.1,0.9-0.2,1.3c0,0,0,0.1,0,0.1c0,0,0,0,0,0
			c-1,3-5.2,5.9-12.1,8.5c-5.1,2-11.6,3.8-19.4,5.4"/>
		<g>
			<path class="st12" d="M1865.7-103.2c0.6,0.8,0.9,1.6,0.9,2.4c0,10.8-53.2,19.5-118.8,19.5c-65.6,0-118.8-8.7-118.8-19.5
				c0-0.8,0.3-1.7,0.9-2.4"/>
			<path class="st12" d="M1607.3-686c-0.3-1.8-0.5-3.5-0.8-5.3"/>
			<path class="st12" d="M1614.3-635.5c22.1,166.1,50.5,437.6,15.6,532.3c-0.3,0.8-0.6,1.6-0.9,2.4"/>
			<path class="st12" d="M1602.4-719.9c-4-26.7-6.8-44.4-7.6-49.4c0,0,0,0,0,0c0,0,0-0.1,0-0.1c-0.1-0.9-0.2-1.3-0.2-1.3"/>
			<path class="st12" d="M1852-176.2c-0.3-3.4-0.5-6.9-0.8-10.4"/>
			<path class="st12" d="M1856.7-138.6c2.3,13.5,5.3,25.4,9,35.4c0.3,0.8,0.6,1.6,0.9,2.4"/>
			<path class="st12" d="M1849.3-251.5c0.3-155.9,29.2-370.1,43.7-467.3v0c0.3-2.2,0.6-4.3,1-6.4h0c0.1-0.5,0.1-1,0.2-1.4
				c0.1-0.9,0.3-1.8,0.4-2.7c3.2-21.4,5.5-35.6,6.2-39.9c0,0,0,0,0,0c0,0,0-0.1,0-0.1c0.1-0.9,0.2-1.3,0.2-1.3"/>
		</g>
		<path class="st12" d="M1869.3-755.4c-4,0.9-8.3,1.7-13,2.4"/>
		<line class="st12" x1="1853.8" y1="-752.5" x2="1853.8" y2="-752.8"/>
		<path class="st7" d="M1875-703.4c-79.3,548.2-49.9,548.3-42,569.1c2,5.4,0.6,9.2-2.6,11.9c-10.1,11.1-43.3,19.2-82.8,19.2
			c-38.1,0-70.4-7.5-81.7-18c-7.6-5-3.9-11.8-3.9-11.8c39.4-158.4-36.3-544.5-41.4-570.1c-0.2-0.9-0.3-1.3-0.3-1.3h254.8
			C1875.1-704.1,1875-703.7,1875-703.4z"/>
		<path class="st11" d="M1752.6-534.1l-61.9,15.5c-9.6,2.4-19.4-3.5-21.8-13.1l-14.9-59.5c-2.4-9.6,3.5-19.4,13.1-21.8l61.9-15.5
			c9.6-2.4,19.4,3.5,21.8,13.1l14.9,59.5C1768.1-546.3,1762.2-536.5,1752.6-534.1z"/>
		<path class="st11" d="M1779.6-421.1l-61.6-16.9c-9.5-2.6-15.2-12.6-12.6-22.1l16.3-59.1c2.6-9.5,12.6-15.2,22.1-12.6l61.6,16.9
			c9.5,2.6,15.2,12.6,12.6,22.1l-16.3,59.1C1799.1-424.1,1789.2-418.5,1779.6-421.1z"/>
		<ellipse class="st4" cx="1747.8" cy="-704.4" rx="127.4" ry="21"/>
	</g>
</g>
</svg>
