<?xml version="1.0" encoding="utf-8"?>
<!-- Generator: Adobe Illustrator 23.1.1, SVG Export Plug-In . SVG Version: 6.00 Build 0)  -->
<svg version="1.1" xmlns="http://www.w3.org/2000/svg" xmlns:xlink="http://www.w3.org/1999/xlink" x="0px" y="0px"
	 viewBox="0 0 399 792" style="enable-background:new 0 0 399 792;" xml:space="preserve">
<style type="text/css">
	.st0{display:none;}
	.st1{display:inline;fill:#C5CAD6;}
	.st2{fill:none;stroke:#383735;stroke-width:7;stroke-linecap:round;stroke-miterlimit:10;}
	.st3{fill:none;stroke:#000000;stroke-width:5;stroke-miterlimit:10;}
	.st4{fill:#9B450B;}
	.st5{fill:#383735;}
	.st6{fill:#273244;}
	.st7{fill:#BC520A;}
	.st8{fill:#C5CAD6;}
	.st9{fill:none;stroke:#383735;stroke-width:7;stroke-linecap:round;stroke-linejoin:round;stroke-miterlimit:10;}
	.st10{fill:none;stroke:#383735;stroke-width:2;stroke-linecap:round;stroke-linejoin:round;stroke-miterlimit:10;}
	.st11{fill:none;stroke:#383735;stroke-width:7;stroke-miterlimit:10;}
	.st12{fill:none;stroke:#383735;stroke-width:5;stroke-linecap:round;stroke-linejoin:round;stroke-miterlimit:10;}
</style>
<g id="Layer_2" class="st0">
	<rect x="-540.9" y="-59" class="st1" width="664.1" height="842"/>
</g>
<g id="Layer_1">
	
		<image style="overflow:visible;" width="359" height="600" xlink:href="../../../../../cocktail_glass_icons_collection_handdrawn_outline_6833759-1.jpg"  transform="matrix(2.6718 0 0 2.6718 -353.8302 921.9996)">
	</image>
	<path class="st2" d="M-642.7,258.1h-116c-3.2,0-5.8-2.6-5.8-5.8V139.5c0-3.2,2.6-5.8,5.8-5.8h116c3.2,0,5.8,2.6,5.8,5.8v112.8
		C-636.9,255.5-639.5,258.1-642.7,258.1z"/>
	<g>
		<circle class="st2" cx="-1061.4" cy="169" r="28.3"/>
		<line class="st2" x1="-1061.9" y1="108.4" x2="-1061.9" y2="326.4"/>
	</g>
	<circle class="st2" cx="-1166.1" cy="169" r="20.1"/>
	<line class="st2" x1="-1166.5" y1="108.4" x2="-1166.5" y2="386.7"/>
	<path class="st3" d="M-638.2,691c0,0.1,0,0.2,0.1,0.4c-0.1-0.3-0.1-0.6-0.2-0.9C-638.2,690.6-638.2,690.8-638.2,691z"/>
	<path class="st3" d="M-637.9,692.5c-0.1-0.4-0.1-0.8-0.2-1.1c0,0.2,0.1,0.4,0.1,0.6C-638,692.1-638,692.3-637.9,692.5z"/>
	<path class="st3" d="M-637.7,694c0-0.3-0.1-0.6-0.1-0.9c0,0.2,0.1,0.4,0.1,0.7C-637.7,693.9-637.7,693.9-637.7,694z"/>
	<path class="st3" d="M-637.8,693.1c0-0.2-0.1-0.4-0.1-0.6C-637.9,692.7-637.9,692.9-637.8,693.1z"/>
	<path class="st3" d="M-637.6,694.9c0-0.3-0.1-0.6-0.1-1c0,0.1,0,0.3,0,0.4C-637.6,694.6-637.6,694.8-637.6,694.9z"/>
	<path class="st3" d="M-637.5,697.1c0-0.7-0.1-1.4-0.2-2.1c0,0.4,0.1,0.8,0.1,1.1c0,0.1,0,0.2,0,0.3
		C-637.5,696.7-637.5,696.9-637.5,697.1z"/>
	<g>
		<circle class="st4" cx="-793.9" cy="654.6" r="164.7"/>
		<g>
			<path class="st2" d="M-855.9,726.9c-0.3,0.3-0.6,0.7-0.9,1c-0.5,0.6-1.1,1.2-1.6,1.7c-0.1,0.1-0.2,0.2-0.3,0.3
				c-0.5,0.5-1.1,1-1.6,1.5c-0.2,0.2-0.5,0.5-0.8,0.7l2.4-2.4L-855.9,726.9z"/>
			<path class="st2" d="M-887.6,655.9h1.8c-0.3,0-0.5,0-0.8,0c-0.8,0-1.6,0.1-2.4,0.1s-1.6,0-2.4-0.1c-0.3,0-0.5,0-0.8,0h1.8
				c0.5,0,0.9,0,1.3,0S-888,655.9-887.6,655.9z"/>
			<path class="st2" d="M-857,583.8c0.2,0.2,0.4,0.4,0.5,0.6l-1.5-1.5l-1.5-1.5l-1.2-1.2c0.2,0.1,0.3,0.3,0.4,0.4
				C-859,581.7-857.9,582.8-857,583.8L-857,583.8z"/>
			<path class="st2" d="M-784.9,551.7c0,0.4,0,0.7,0,1.1v-2.2C-784.9,551-784.9,551.3-784.9,551.7z"/>
			<path class="st2" d="M-772.2,655.9c0,3.5-1.4,6.7-3.7,9s-5.5,3.7-9,3.7s-6.7-1.4-9-3.7c-2.3-2.3-3.7-5.5-3.7-9s1.4-6.7,3.7-9
				c2.3-2.3,5.5-3.7,9-3.7s6.7,1.4,9,3.7C-773.6,649.3-772.2,652.4-772.2,655.9z"/>
			<path class="st2" d="M-784.9,761.8v-2.7c0,0.2,0,0.4,0,0.6v0.2v0.5c0,0.1,0,0.2,0,0.4c0,0.1,0,0.1,0,0.2
				c0.3,23.7,19.6,42.8,43.3,42.8c23.9,0,43.3-19.4,43.3-43.3c0-10.7-3.9-20.5-10.4-28.1c-1.8-1.5-3.5-3.2-5-5
				c-0.2-0.2-0.4-0.5-0.6-0.8l1.6,1.6l3.4,3.4l1.2,1.2"/>
			<path class="st2" d="M-784.9,820.4c45.4,0,86.5-18.4,116.3-48.2"/>
			<path class="st2" d="M-712.2,583.3l-1,1c0.1-0.2,0.2-0.3,0.4-0.4c1-1.1,2-2.1,3.1-3.1c0,0,0,0,0,0c0.1-0.1,0.2-0.2,0.3-0.3
				l-0.7,0.7C-710.8,581.9-711.5,582.6-712.2,583.3z"/>
			<path class="st2" d="M-684.9,656.1c-0.1,0-0.2,0-0.4,0c0,0,0,0,0,0C-685.1,656.2-685,656.2-684.9,656.1z"/>
			<path class="st2" d="M-683.5,656c-0.2,0-0.5,0-0.7,0c0.1,0,0.3,0,0.5,0C-683.7,656-683.6,656-683.5,656z"/>
			<path class="st2" d="M-677.7,655.9c-0.2,0-0.4,0-0.6,0h-0.1c-0.8,0.1-1.6,0.1-2.4,0.1c-0.8,0-1.5,0-2.2-0.1h-0.1
				c-0.3,0-0.6,0-0.9-0.1h2.1c0.4,0,0.8,0,1.2,0c0.5,0,0.9,0,1.3,0H-677.7z"/>
			<path class="st2" d="M-677.3,656.1L-677.3,656.1c-0.4,0-0.7,0-1-0.1C-678,656-677.7,656-677.3,656.1
				C-677.4,656-677.4,656-677.3,656.1z"/>
			<path class="st2" d="M-675.8,656.2c-0.2,0-0.3,0-0.5-0.1h0c-0.2,0-0.4,0-0.5,0c0.2,0,0.4,0,0.6,0
				C-676.1,656.2-676,656.2-675.8,656.2z"/>
			<path class="st2" d="M-640,684.3c0-0.1-0.1-0.3-0.2-0.4c-0.2-0.5-0.4-1-0.6-1.5c-0.2-0.4-0.3-0.8-0.5-1.2
				c-0.2-0.4-0.3-0.8-0.5-1.2c-0.1-0.2-0.2-0.5-0.4-0.7c-0.1-0.3-0.3-0.5-0.4-0.8c-0.1-0.1-0.1-0.2-0.2-0.3
				c-0.2-0.4-0.5-0.9-0.7-1.3c-0.3-0.5-0.6-0.9-0.9-1.4c-0.3-0.5-0.6-0.9-0.9-1.3v0c-0.3-0.4-0.6-0.9-1-1.3s-0.7-0.8-1-1.2
				c-0.3-0.4-0.6-0.8-1-1.1c-0.1-0.1-0.1-0.2-0.2-0.2c-0.3-0.3-0.6-0.7-0.9-1c0,0,0-0.1-0.1-0.1c-0.4-0.4-0.7-0.7-1.1-1.1
				c-0.3-0.3-0.7-0.6-1-0.9c-0.5-0.4-0.9-0.8-1.4-1.2c-0.4-0.3-0.8-0.7-1.2-1c-0.5-0.4-1-0.8-1.5-1.1c-0.3-0.2-0.7-0.5-1-0.7
				c-0.3-0.2-0.6-0.4-0.9-0.6c-0.3-0.2-0.7-0.4-1-0.6c-0.6-0.4-1.2-0.7-1.8-1c-0.2-0.1-0.5-0.3-0.8-0.4c-0.4-0.2-0.8-0.4-1.3-0.6
				c-0.5-0.2-1-0.5-1.5-0.7c-0.4-0.2-0.8-0.3-1.2-0.5c-0.3-0.1-0.7-0.3-1-0.4c-0.1,0-0.3-0.1-0.4-0.1c-0.3-0.1-0.6-0.2-0.8-0.3
				c-0.2-0.1-0.5-0.2-0.7-0.2c-0.2-0.1-0.5-0.1-0.7-0.2c-0.3-0.1-0.6-0.2-0.9-0.2c-0.2-0.1-0.4-0.1-0.6-0.2c-0.3-0.1-0.6-0.2-1-0.2
				c-0.7-0.2-1.4-0.3-2.1-0.4c-0.3,0-0.6-0.1-0.9-0.1c0.2,0,0.4,0.1,0.6,0.1h0c0.5,0.1,1,0.2,1.4,0.3c0.2,0,0.4,0.1,0.6,0.1
				c0,0,0.1,0,0.1,0c0,0,0.1,0,0.1,0c0.5,0.1,0.9,0.2,1.4,0.3c0.1,0,0.3,0.1,0.4,0.1c0.5,0.1,0.9,0.2,1.4,0.4
				c0.6,0.2,1.2,0.4,1.8,0.6c0.5,0.2,1,0.3,1.5,0.5c0.3,0.1,0.6,0.2,0.8,0.3c0.5,0.2,1.1,0.5,1.6,0.7c0.3,0.1,0.5,0.2,0.8,0.4
				c0.6,0.3,1.2,0.6,1.7,0.9c0,0,0,0,0,0c0.6,0.3,1.1,0.6,1.7,1c0.3,0.2,0.6,0.3,0.8,0.5c0.3,0.2,0.7,0.4,1,0.6
				c0.3,0.2,0.7,0.4,1,0.7c0.6,0.5,1.3,0.9,1.9,1.4c0.2,0.2,0.4,0.3,0.6,0.5c0,0,0.1,0.1,0.1,0.1c0.4,0.3,0.8,0.6,1.1,1
				c0.4,0.3,0.8,0.7,1.1,1c0,0,0,0,0.1,0.1c0.2,0.2,0.5,0.4,0.7,0.7c0.2,0.2,0.5,0.5,0.7,0.7c0.3,0.4,0.7,0.7,1,1.1
				c0.3,0.4,0.6,0.7,0.9,1.1c0.2,0.2,0.4,0.5,0.6,0.8c0,0,0,0,0.1,0.1c0.3,0.4,0.7,0.9,1,1.3c0.2,0.3,0.5,0.7,0.7,1
				c0.3,0.4,0.5,0.8,0.8,1.2c0.3,0.4,0.5,0.8,0.8,1.2c0.2,0.3,0.3,0.6,0.5,0.9c0.3,0.6,0.6,1.1,0.9,1.7c0.3,0.6,0.6,1.2,0.8,1.8
				c0.1,0.3,0.3,0.6,0.4,0.9c0.4,0.9,0.7,1.8,1.1,2.8c0.1,0.3,0.2,0.6,0.3,1c0.1,0.3,0.2,0.6,0.3,1c0.1,0.5,0.3,1,0.4,1.5
				c0,0,0,0.1,0,0.1c0.1,0.5,0.2,0.9,0.3,1.4c0,0.1,0.1,0.3,0.1,0.4c-0.2-1.1-0.5-2.2-0.8-3.2C-639.4,686.3-639.7,685.3-640,684.3z"
				/>
			<path class="st2" d="M-772.2,655.9c0,3.5-1.4,6.7-3.7,9s-5.5,3.7-9,3.7s-6.7-1.4-9-3.7c-2.3-2.3-3.7-5.5-3.7-9s1.4-6.7,3.7-9
				c2.3-2.3,5.5-3.7,9-3.7s6.7,1.4,9,3.7C-773.6,649.3-772.2,652.4-772.2,655.9z"/>
			<line class="st2" x1="-679.3" y1="655.9" x2="-681.9" y2="655.9"/>
			<line class="st2" x1="-887.6" y1="655.9" x2="-890.3" y2="655.9"/>
			<line class="st2" x1="-857.9" y1="583" x2="-859.4" y2="581.5"/>
			<line class="st2" x1="-710.2" y1="581.2" x2="-712.2" y2="583.3"/>
			<path class="st2" d="M-784.9,550.6v92.6c-3.5,0-6.7,1.4-9,3.7l-62.5-62.5c-0.2-0.2-0.3-0.4-0.5-0.6l0,0c-1-1.1-2-2.1-3.1-3.1
				c-7-7.7-11.2-17.9-11.2-29c0-23.8,19.3-43.2,43.2-43.2C-804.6,508.5-785.5,527.3-784.9,550.6z"/>
			<path class="st2" d="M-857,583.8c-0.3-0.3-0.6-0.6-0.9-0.9l-1.5-1.5c-0.2-0.2-0.5-0.5-0.7-0.8C-859,581.7-857.9,582.8-857,583.8z
				"/>
			<path class="st2" d="M-784.9,551.7c0,0.4,0,0.7,0,1.1v-2.2C-784.9,551-784.9,551.3-784.9,551.7z"/>
			<path class="st2" d="M-698.5,551.7c0,11.2-4.2,21.4-11.2,29c0,0,0,0,0,0c-1.1,1-2.1,2-3.1,3.1c-0.1,0.1-0.3,0.3-0.4,0.4
				l-62.7,62.7c-2.3-2.3-5.5-3.7-9-3.7v-90.4c0-0.4,0-0.7,0-1.1c0-23.8,19.3-43.2,43.2-43.2S-698.5,527.9-698.5,551.7z"/>
			<path class="st2" d="M-709.8,580.8c-0.1,0.1-0.3,0.3-0.4,0.5c-0.6,0.7-1.3,1.4-2,2c-0.2,0.2-0.4,0.4-0.6,0.6
				C-711.9,582.8-710.8,581.7-709.8,580.8z"/>
			<path class="st2" d="M-698.3,760.4c0,23.9-19.4,43.3-43.3,43.3c-23.7,0-43-19.1-43.3-42.8c0-0.1,0-0.1,0-0.2c0-0.1,0-0.2,0-0.4
				v-0.7c0-0.2,0-0.4,0-0.6v-90.4c3.5,0,6.7-1.4,9-3.7l61.6,61.6c0.2,0.2,0.4,0.5,0.6,0.8c1.5,1.8,3.2,3.5,5,5
				C-702.2,739.9-698.3,749.7-698.3,760.4z"/>
			<path class="st2" d="M-784.9,760.4c0-0.2,0-0.4,0-0.6L-784.9,760.4c0,0.1,0,0.2,0,0.4V760.4z"/>
			<path class="st2" d="M-708.6,732.3c-1.8-1.5-3.5-3.2-5-5c0.3,0.3,0.6,0.5,0.9,0.8c0.3,0.3,0.7,0.6,1,0.9l0.6,0.6
				c0.1,0.1,0.2,0.2,0.3,0.3c0,0,0.1,0.1,0.2,0.2c0.1,0.1,0.1,0.1,0.2,0.2c0.4,0.4,0.7,0.8,1.1,1.2
				C-709.1,731.8-708.8,732.1-708.6,732.3z"/>
			<path class="st2" d="M-784.9,759.7v0.7c0,0.1,0,0.2,0,0.4c0,0.1,0,0.1,0,0.2c0,0.3,0,0.5,0,0.8v-2.7
				C-784.9,759.3-784.9,759.5-784.9,759.7z"/>
			<path class="st2" d="M-784.9,668.7v93.1c-0.7,23.2-19.8,41.9-43.2,41.9c-23.9,0-43.2-19.3-43.2-43.2c0-11.9,4.8-22.6,12.6-30.4
				c0.1-0.1,0.2-0.2,0.3-0.3c0.6-0.6,1.1-1.1,1.6-1.7c0.3-0.3,0.6-0.7,0.9-1l62-62C-791.6,667.2-788.4,668.7-784.9,668.7z"/>
			<path class="st2" d="M-683.5,656c-0.2,0-0.5,0-0.7,0c0.1,0,0.3,0,0.5,0C-683.7,656-683.6,656-683.5,656z"/>
			<path class="st2" d="M-784.9,820.4c-90.8,0-164.5-73.6-164.5-164.5s73.6-164.5,164.5-164.5c90.8,0,164.5,73.6,164.5,164.5
				c0,45.4-18.4,86.5-48.2,116.3"/>
			<path class="st2" d="M-708.1,732.8l-1.2-1.2l-3.4-3.4c0.3,0.3,0.7,0.6,1,0.9l0.6,0.6c0.1,0.1,0.2,0.2,0.3,0.3
				c0,0.1,0.1,0.1,0.1,0.2c0.1,0.1,0.1,0.1,0.2,0.2c0.4,0.4,0.8,0.8,1.2,1.1c0.1,0.1,0.2,0.2,0.3,0.3c0.3,0.3,0.7,0.6,1.1,0.9
				c0,0,0.1,0.1,0.1,0.1c0.5,0.4,0.9,0.7,1.4,1.1c0.5,0.4,0.9,0.7,1.4,1c0.3,0.2,0.5,0.4,0.8,0.5c0.3,0.2,0.6,0.4,0.9,0.5
				c0.3,0.2,0.5,0.3,0.8,0.5c0,0,0,0,0,0c0.1,0.1,0.3,0.2,0.4,0.3c0.3,0.1,0.5,0.3,0.8,0.4c0.8,0.4,1.6,0.8,2.4,1.2
				c0.3,0.2,0.6,0.3,0.9,0.4c0.3,0.1,0.6,0.3,0.9,0.4c1.1,0.5,2.3,0.9,3.5,1.2c0.3,0.1,0.7,0.2,1,0.3c0.7,0.2,1.4,0.4,2.1,0.5
				c0.4,0.1,0.7,0.2,1.1,0.2c0.3,0.1,0.6,0.1,0.9,0.2c0.3,0.1,0.6,0.1,0.8,0.2c0.5,0.1,1,0.2,1.5,0.2c0.3,0,0.6,0.1,0.8,0.1
				c0.2,0,0.4,0,0.6,0.1c0.3,0,0.5,0,0.8,0.1c0.7,0,1.3,0.1,2,0.1c0.4,0,0.8,0,1.3,0c0.4,0,0.8,0,1.2,0c0.7,0,1.4-0.1,2.1-0.1
				c0.2,0,0.3,0,0.5,0c0.5,0,1-0.1,1.6-0.2c0.1,0,0.1,0,0.2,0c0.3,0,0.7-0.1,1-0.1c0.7-0.1,1.4-0.2,2.1-0.4c0.3-0.1,0.7-0.1,1-0.2
				c0.4-0.1,0.9-0.2,1.3-0.3c0.2,0,0.3-0.1,0.4-0.1c0.4-0.1,0.8-0.2,1.2-0.4c0.4-0.1,0.8-0.2,1.1-0.4c0.2-0.1,0.3-0.1,0.5-0.2
				c0.4-0.1,0.8-0.3,1.2-0.5c0.3-0.1,0.6-0.2,1-0.4c0.3-0.1,0.6-0.3,1-0.4c0.3-0.1,0.5-0.2,0.8-0.4c0.4-0.2,0.7-0.3,1.1-0.5
				c0.3-0.2,0.6-0.3,0.9-0.5c0.3-0.1,0.5-0.3,0.8-0.4c0.3-0.2,0.7-0.4,1-0.6c0.3-0.2,0.6-0.4,0.9-0.5s0.6-0.4,0.8-0.5
				c0.3-0.2,0.6-0.4,0.9-0.6c0.6-0.4,1.1-0.8,1.6-1.2c0.3-0.2,0.5-0.4,0.8-0.6c0.3-0.2,0.5-0.4,0.8-0.6c0.3-0.2,0.5-0.4,0.8-0.7
				c0.2-0.2,0.5-0.5,0.8-0.7c0.2-0.2,0.5-0.5,0.7-0.7c1-1,1.9-2,2.8-3c0,0,0,0,0,0c0.2-0.2,0.4-0.5,0.6-0.7c0.3-0.4,0.7-0.8,1-1.3
				c0.3-0.4,0.6-0.9,0.9-1.3c0.4-0.5,0.7-1,1-1.6c0.4-0.6,0.7-1.1,1-1.7c0.1-0.2,0.3-0.5,0.4-0.7c0.2-0.3,0.4-0.7,0.5-1
				c0.2-0.4,0.4-0.8,0.6-1.2c0.1-0.3,0.3-0.6,0.4-0.8c0.1-0.2,0.2-0.5,0.3-0.7c0-0.1,0.1-0.1,0.1-0.2c0.1-0.2,0.2-0.5,0.3-0.8v0
				c0-0.1,0.1-0.2,0.1-0.3c0.1-0.1,0.1-0.3,0.2-0.4c0.1-0.2,0.1-0.3,0.2-0.5c0.1-0.3,0.2-0.5,0.3-0.8c0.1-0.2,0.2-0.5,0.2-0.8
				c0.1-0.4,0.2-0.7,0.3-1.1c0,0,0-0.1,0-0.1c0.1-0.3,0.2-0.7,0.3-1c0-0.1,0-0.1,0-0.2c0,0,0,0,0,0c0.2-0.6,0.3-1.2,0.4-1.8
				c0,0,0-0.1,0-0.1c0-0.2,0.1-0.3,0.1-0.5c0-0.2,0.1-0.4,0.1-0.6c0-0.1,0-0.1,0-0.2c0-0.2,0.1-0.5,0.1-0.8c0,0,0,0,0,0
				c0-0.3,0.1-0.7,0.1-1c0,0,0,0,0,0c0-0.1,0-0.2,0-0.3c0-0.1,0-0.2,0-0.4c0-0.1,0-0.2,0-0.3c0-0.1,0-0.2,0-0.3c0-0.2,0-0.4,0.1-0.7
				c0-0.1,0-0.2,0-0.3c0-0.3,0-0.6,0-0.9c0-0.1,0-0.3,0-0.4c0-0.2,0-0.5,0-0.7c0-0.3,0-0.7,0-1c0-0.7,0-1.4,0-2.2c0-0.2,0-0.4,0-0.6
				c0-0.1,0-0.2,0-0.3c0-0.4-0.1-0.8-0.1-1.1c0,0,0,0,0-0.1c0-0.2,0-0.4,0-0.5c0-0.1,0-0.3-0.1-0.4c0-0.1,0-0.1,0-0.2
				c-0.1-0.6-0.2-1.2-0.3-1.8c0-0.2-0.1-0.4-0.1-0.6c0-0.1,0-0.2-0.1-0.4c0-0.2-0.1-0.3-0.1-0.5c0-0.1,0-0.3-0.1-0.4
				c-0.1-0.5-0.2-0.9-0.3-1.4c0,0,0-0.1,0-0.1c-0.1-0.5-0.3-1-0.4-1.5c-0.1-0.3-0.2-0.6-0.3-1c-0.1-0.3-0.2-0.6-0.3-0.9
				c-0.3-0.9-0.7-1.9-1.1-2.8c-0.1-0.3-0.3-0.6-0.4-0.9c-0.3-0.6-0.5-1.2-0.8-1.8c-0.3-0.6-0.6-1.2-0.9-1.7
				c-0.2-0.3-0.3-0.6-0.5-0.9c-0.2-0.4-0.5-0.8-0.8-1.2c-0.3-0.4-0.5-0.8-0.8-1.2c-0.2-0.3-0.5-0.7-0.7-1c-0.3-0.5-0.6-0.9-1-1.3
				c0,0,0,0-0.1-0.1c-0.2-0.3-0.4-0.5-0.6-0.8c-0.3-0.4-0.6-0.7-1-1.1c-0.3-0.4-0.6-0.7-1-1.1c-0.2-0.2-0.5-0.5-0.7-0.7
				c-0.2-0.2-0.5-0.5-0.7-0.7c0,0,0,0-0.1-0.1c-0.4-0.4-0.8-0.7-1.1-1c-0.4-0.3-0.7-0.6-1.1-1c0,0-0.1-0.1-0.1-0.1
				c-0.2-0.2-0.4-0.3-0.7-0.5c-0.6-0.5-1.2-1-1.9-1.4c-0.3-0.2-0.6-0.5-1-0.7c-0.3-0.2-0.7-0.4-1-0.6c-0.3-0.2-0.5-0.3-0.8-0.5
				c-0.6-0.3-1.1-0.6-1.7-1c0,0,0,0,0,0c-0.6-0.3-1.1-0.6-1.7-0.9c-0.3-0.1-0.5-0.3-0.8-0.4c-0.5-0.2-1-0.5-1.6-0.7
				c-0.3-0.1-0.6-0.2-0.9-0.3c-0.5-0.2-1-0.4-1.5-0.5c-0.6-0.2-1.2-0.4-1.8-0.6c-0.5-0.1-0.9-0.3-1.4-0.4c-0.1,0-0.3-0.1-0.4-0.1
				c-0.4-0.1-0.9-0.2-1.4-0.3c0,0-0.1,0-0.1,0c0,0-0.1,0-0.1,0c-0.2,0-0.4-0.1-0.6-0.1c0,0-0.1,0-0.1,0c-0.3-0.1-0.7-0.1-1.1-0.2
				c-0.1,0-0.2,0-0.2-0.1h0c-0.2,0-0.4-0.1-0.6-0.1c0,0-0.1,0-0.1,0c0,0-0.1,0-0.1,0c-0.3,0-0.5-0.1-0.8-0.1c0,0-0.1,0-0.1,0
				c-0.1,0-0.3,0-0.5,0c-0.1,0-0.3,0-0.4-0.1c-0.3,0-0.7-0.1-1-0.1h-0.1c0,0,0,0,0,0c0,0,0,0,0,0c-0.3,0-0.6,0-1-0.1
				c0.2,0,0.4,0,0.6,0c22.4-1.6,40-20.3,40-43.1c0-23.8-19.3-43.2-43.2-43.2c-11,0-21,4.1-28.6,10.8c-0.1,0.1-0.2,0.2-0.3,0.3
				c7-7.7,11.2-17.9,11.2-29c0-23.9-19.3-43.2-43.2-43.2c-23.9,0-43.2,19.3-43.2,43.2c0-0.4,0-0.7,0-1.1
				c-0.6-23.3-19.7-42.1-43.2-42.1c-23.9,0-43.2,19.3-43.2,43.2c0,11.2,4.2,21.4,11.2,29c-0.1-0.1-0.3-0.3-0.4-0.4
				c-7.6-6.6-17.5-10.7-28.4-10.7c-23.9,0-43.2,19.3-43.2,43.2c0,22.8,17.6,41.5,40,43.1c0.3,0,0.5,0,0.8,0
				c-22.8,1.2-40.8,20.1-40.8,43.1c0,23.9,19.3,43.2,43.2,43.2c10.6,0,20.3-3.8,27.8-10.1c0.3-0.2,0.5-0.4,0.8-0.7
				c0.6-0.5,1.1-1,1.6-1.5c-7.8,7.8-12.6,18.6-12.6,30.4c0,23.9,19.3,43.2,43.2,43.2c23.4,0,42.5-18.6,43.2-41.8"/>
			<path class="st2" d="M-856.8,727.9c-0.5,0.6-1.1,1.2-1.6,1.7c-0.1,0.1-0.2,0.2-0.3,0.3c-0.5,0.5-1.1,1-1.6,1.5
				c0.5-0.6,1.1-1.2,1.6-1.7C-858.1,729.1-857.4,728.5-856.8,727.9z"/>
			<path class="st2" d="M-793.9,647c-2.3,2.3-3.7,5.5-3.7,9h-90c-0.4,0-0.9,0-1.3,0s-0.9,0-1.3,0h-1.8c-22.4-1.6-40-20.3-40-43.1
				c0-23.9,19.3-43.2,43.2-43.2c10.9,0,20.8,4,28.4,10.7l1.2,1.2c0.5,0.5,1,1,1.5,1.5l1.5,1.5L-793.9,647z"/>
			<path class="st2" d="M-887.6,655.9h1.8c-0.3,0-0.5,0-0.8,0c-0.8,0-1.6,0.1-2.4,0.1s-1.6,0-2.4-0.1c-0.3,0-0.5,0-0.8,0h1.8
				c0.5,0,0.9,0,1.3,0S-888,655.9-887.6,655.9z"/>
			<path class="st2" d="M-856.4,584.4l-1.5-1.5l-1.5-1.5l-1.2-1.2c0.2,0.1,0.3,0.3,0.4,0.4c1.1,1,2.1,2,3.1,3.1l0,0
				C-856.8,584-856.6,584.2-856.4,584.4z"/>
			<path class="st2" d="M-637.7,612.9c0,22.8-17.6,41.5-40,43.1h-1.6c-0.5,0-0.9,0-1.3,0c-0.4,0-0.8,0-1.2,0h-90.3
				c0-3.5-1.4-6.7-3.7-9l62.7-62.7l1-1c0.7-0.7,1.4-1.3,2-2l0.7-0.7c7.6-6.7,17.6-10.8,28.6-10.8C-657,569.7-637.7,589-637.7,612.9z
				"/>
			<path class="st2" d="M-709.7,580.7c0.1-0.1,0.2-0.2,0.3-0.3l-0.7,0.7c-0.6,0.7-1.3,1.4-2,2l-1,1c0.1-0.2,0.2-0.3,0.4-0.4
				C-711.9,582.8-710.8,581.7-709.7,580.7C-709.8,580.7-709.7,580.7-709.7,580.7z"/>
			<path class="st2" d="M-677.7,655.9c-0.2,0-0.4,0-0.6,0h-0.1c-0.8,0.1-1.6,0.1-2.4,0.1c-0.8,0-1.5,0-2.2-0.1h-0.1
				c-0.3,0-0.6,0-0.9-0.1h2.1c0.4,0,0.8,0,1.2,0c0.5,0,0.9,0,1.3,0H-677.7z"/>
			<path class="st2" d="M-793.9,664.9l-62,62l-2.8,2.9l-2.4,2.4c-7.5,6.3-17.2,10.1-27.8,10.1c-23.9,0-43.2-19.3-43.2-43.2
				c0-23.1,18.1-41.9,40.8-43.1c0.8,0,1.6,0.1,2.4,0.1s1.6,0,2.4-0.1c0.3,0,0.5,0,0.8,0h88.1C-797.6,659.5-796.2,662.6-793.9,664.9z
				"/>
			<path class="st2" d="M-886.6,656c-0.8,0-1.6,0.1-2.4,0.1s-1.6,0-2.4-0.1c0.3,0,0.7,0,1,0c0.5,0,0.9,0,1.3,0s0.9,0,1.3,0
				C-887.3,656-886.9,656-886.6,656z"/>
			<path class="st2" d="M-855.9,726.9c-0.3,0.3-0.6,0.7-0.9,1c-0.5,0.6-1.1,1.2-1.6,1.7c-0.1,0.1-0.2,0.2-0.3,0.3
				c-0.5,0.5-1.1,1-1.6,1.5c-0.2,0.2-0.5,0.5-0.8,0.7l2.4-2.4L-855.9,726.9z"/>
			<path class="st2" d="M-637.5,697.1c0-0.7-0.1-1.4-0.2-2.1c0,0,0-0.1,0-0.1c0-0.3-0.1-0.6-0.1-1c-0.1-0.9-0.2-1.8-0.4-2.7
				c-0.1-0.3-0.1-0.6-0.2-0.9c-0.2-1.1-0.5-2.2-0.8-3.2c-0.3-1-0.6-2.1-1-3.1c-0.2-0.6-0.5-1.2-0.7-1.8c-0.2-0.4-0.3-0.8-0.5-1.2
				c-0.2-0.4-0.3-0.8-0.5-1.2c-0.1-0.2-0.2-0.5-0.4-0.7c-0.1-0.3-0.3-0.5-0.4-0.8c-0.1-0.1-0.1-0.2-0.2-0.3
				c-0.2-0.4-0.5-0.9-0.7-1.3c-0.3-0.5-0.6-0.9-0.9-1.4c-0.3-0.5-0.6-0.9-0.9-1.3v0c-0.3-0.4-0.6-0.9-1-1.3c-0.3-0.4-0.7-0.8-1-1.2
				c-0.3-0.4-0.6-0.8-1-1.1c-0.1-0.1-0.1-0.2-0.2-0.2c-0.3-0.3-0.6-0.7-0.9-1c0,0,0-0.1-0.1-0.1c-0.4-0.4-0.7-0.7-1.1-1.1
				c-0.3-0.3-0.7-0.6-1-0.9c-0.5-0.4-0.9-0.8-1.4-1.2c-0.4-0.3-0.8-0.7-1.2-1c-0.5-0.4-1-0.8-1.5-1.1c-0.3-0.2-0.7-0.5-1-0.7
				c-0.3-0.2-0.6-0.4-0.9-0.6c-0.3-0.2-0.7-0.4-1-0.6c-0.6-0.4-1.2-0.7-1.8-1c-0.2-0.1-0.5-0.3-0.8-0.4c-0.4-0.2-0.8-0.4-1.3-0.6
				c-0.5-0.2-1-0.4-1.5-0.7c-0.4-0.2-0.8-0.3-1.2-0.5c-0.3-0.1-0.7-0.3-1-0.4c-0.1,0-0.3-0.1-0.4-0.1c-0.3-0.1-0.6-0.2-0.8-0.3
				c-0.2-0.1-0.5-0.2-0.7-0.2c-0.2-0.1-0.5-0.1-0.7-0.2c-0.3-0.1-0.6-0.2-0.9-0.2c-0.2-0.1-0.4-0.1-0.6-0.2c-0.3-0.1-0.6-0.2-1-0.2
				c-0.7-0.2-1.4-0.3-2.1-0.4c-0.3,0-0.6-0.1-0.9-0.1c0,0-0.1,0-0.1,0c0,0-0.1,0-0.1,0c-0.3,0-0.5-0.1-0.8-0.1c0,0-0.1,0-0.1,0
				c-0.2,0-0.3,0-0.5,0c-0.2,0-0.3,0-0.5-0.1h0c-0.2,0-0.4,0-0.5,0c-0.1,0-0.3,0-0.4,0h-0.1c-0.3,0-0.6,0-1-0.1h-0.1
				c-0.8,0.1-1.6,0.1-2.4,0.1c-0.8,0-1.5,0-2.2-0.1h-0.1c-0.1,0-0.2,0-0.3,0c0.1,0,0.1,0,0.2,0c-0.3,0-0.5,0-0.8-0.1h-88.2
				c0,3.5-1.4,6.7-3.7,9l61.6,61.6l1.6,1.6c0.3,0.3,0.7,0.6,1,0.9l0.6,0.6c0.1,0.1,0.2,0.2,0.3,0.3c0,0,0.1,0.1,0.2,0.2
				c0.1,0.1,0.1,0.1,0.2,0.2c0.4,0.4,0.8,0.8,1.2,1.1c0.1,0.1,0.2,0.2,0.3,0.3c0.3,0.3,0.7,0.6,1.1,0.9c0,0,0,0,0.1,0.1
				c0.5,0.4,0.9,0.7,1.4,1c0.5,0.4,0.9,0.7,1.4,1c0.3,0.2,0.5,0.4,0.8,0.5c0.3,0.2,0.6,0.4,0.9,0.5c0.3,0.2,0.5,0.3,0.8,0.5
				c0,0,0,0,0,0c0.2,0.1,0.3,0.2,0.4,0.3c0.3,0.2,0.5,0.3,0.8,0.5c0.8,0.4,1.6,0.8,2.4,1.2c0.3,0.2,0.6,0.3,0.9,0.4
				c0.3,0.1,0.6,0.3,0.9,0.4c1.1,0.5,2.3,0.9,3.5,1.2c0.3,0.1,0.7,0.2,1,0.3c0.7,0.2,1.4,0.4,2.1,0.5c0.3,0.1,0.7,0.2,1,0.2
				c0.3,0.1,0.6,0.1,0.9,0.2c0.3,0,0.6,0.1,0.8,0.2c0.5,0.1,1,0.1,1.5,0.2c0.3,0,0.6,0.1,0.8,0.1c0.2,0,0.4,0,0.6,0.1
				c0.3,0,0.5,0,0.8,0.1c0.7,0,1.3,0.1,2,0.1c0.4,0,0.8,0,1.3,0c0.4,0,0.8,0,1.2,0c0.7,0,1.4-0.1,2.1-0.1c0.2,0,0.3,0,0.5,0
				c0.5,0,1-0.1,1.5-0.2c0.1,0,0.1,0,0.2,0c0.3,0,0.7-0.1,1-0.1c0.7-0.1,1.4-0.2,2.1-0.4c0.4-0.1,0.7-0.2,1.1-0.2
				c0.4-0.1,0.9-0.2,1.3-0.3c0.1,0,0.3-0.1,0.4-0.1c0.4-0.1,0.8-0.2,1.2-0.4c0.4-0.1,0.8-0.2,1.1-0.4c0.2-0.1,0.3-0.1,0.5-0.2
				c0.4-0.1,0.8-0.3,1.2-0.5c0.3-0.1,0.6-0.2,1-0.4c0.3-0.1,0.6-0.3,1-0.4c0.3-0.1,0.5-0.2,0.8-0.4c0.3-0.2,0.7-0.3,1.1-0.5
				c0.3-0.1,0.6-0.3,0.9-0.5c0.3-0.1,0.5-0.3,0.8-0.4c0.3-0.2,0.7-0.4,1-0.6c0.3-0.2,0.6-0.4,0.9-0.5c0.3-0.2,0.6-0.4,0.9-0.6
				c0.3-0.2,0.6-0.4,0.8-0.6c0.6-0.4,1.1-0.8,1.7-1.2c0.3-0.2,0.5-0.4,0.8-0.6c0.3-0.2,0.5-0.4,0.8-0.6c0.3-0.2,0.5-0.4,0.8-0.7
				c0.2-0.2,0.5-0.4,0.8-0.7c0.2-0.2,0.5-0.5,0.7-0.7c1-1,1.9-2,2.8-3c0,0,0,0,0,0c0.2-0.2,0.4-0.5,0.6-0.7c0.3-0.4,0.7-0.8,1-1.3
				c0.3-0.4,0.6-0.9,0.9-1.3c0.4-0.5,0.7-1,1.1-1.6c0.3-0.5,0.7-1.1,1-1.7c0.1-0.2,0.3-0.5,0.4-0.7c0.2-0.3,0.4-0.7,0.5-1
				c0.2-0.4,0.4-0.8,0.6-1.2c0.1-0.3,0.3-0.6,0.4-0.8c0.1-0.2,0.2-0.5,0.3-0.7c0-0.1,0.1-0.2,0.1-0.2c0.1-0.2,0.2-0.5,0.3-0.8v0
				c0-0.1,0.1-0.2,0.1-0.3c0-0.1,0.1-0.3,0.2-0.5c0.1-0.1,0.1-0.3,0.2-0.5c0.1-0.3,0.2-0.5,0.3-0.8c0.1-0.2,0.2-0.5,0.2-0.8
				c0.1-0.4,0.2-0.8,0.3-1.1c0-0.1,0-0.1,0-0.1c0.1-0.3,0.2-0.7,0.3-1c0,0,0-0.1,0-0.1c0,0,0,0,0,0c0.2-0.6,0.3-1.2,0.4-1.8
				c0,0,0-0.1,0-0.1c0-0.2,0.1-0.4,0.1-0.5c0-0.2,0.1-0.4,0.1-0.6c0-0.3,0.1-0.6,0.2-1c0,0,0,0,0,0c0-0.3,0.1-0.7,0.1-1c0,0,0,0,0,0
				c0-0.1,0-0.2,0-0.3c0-0.1,0-0.2,0-0.4c0-0.1,0-0.2,0-0.3c0-0.1,0-0.2,0-0.3c0-0.6,0.1-1.1,0.1-1.7c0,0,0-0.1,0-0.2
				c0-0.1,0-0.3,0-0.4c0-0.2,0-0.5,0-0.7c0-0.3,0-0.7,0-1C-637.4,698.5-637.4,697.8-637.5,697.1z M-688.1,656.6
				c0.2,0,0.5-0.1,0.8-0.1c0.3-0.1,0.7-0.1,1-0.1C-686.9,656.4-687.5,656.5-688.1,656.6z M-685.3,656.2c-0.2,0-0.5,0-0.7,0.1
				C-685.7,656.2-685.5,656.2-685.3,656.2c0.1,0,0.2,0,0.4,0C-685,656.2-685.1,656.2-685.3,656.2z M-684.2,656.1c0.1,0,0.3,0,0.5,0
				c0.1,0,0.2,0,0.2,0C-683.8,656-684,656.1-684.2,656.1z"/>
			<path class="st2" d="M-686.3,656.3c-0.6,0.1-1.2,0.2-1.8,0.3c0.2,0,0.5-0.1,0.8-0.1C-687,656.4-686.6,656.3-686.3,656.3z"/>
			<path class="st2" d="M-683.5,656c-0.2,0-0.5,0-0.7,0c0.1,0,0.3,0,0.5,0C-683.7,656-683.6,656-683.5,656z"/>
			<path class="st2" d="M-683.2,656c-0.1,0-0.2,0-0.3,0C-683.4,656-683.3,656-683.2,656L-683.2,656z"/>
			<path class="st2" d="M-678.5,656c-0.8,0.1-1.6,0.1-2.4,0.1c-0.8,0-1.5,0-2.2-0.1c0.4,0,0.7,0,1.1-0.1h0.1c0.4,0,0.8,0,1.2,0
				c0.5,0,0.9,0,1.3,0h0.1C-679,656-678.7,656-678.5,656z"/>
			<path class="st2" d="M-641.5,717.5c0.1-0.3,0.3-0.6,0.4-0.8c-6.7,15.2-21.9,25.9-39.6,25.9c-10.4,0-19.9-3.7-27.3-9.7
				c-0.2-0.2-0.4-0.3-0.6-0.5c-1.8-1.5-3.5-3.2-5-5c-0.2-0.2-0.4-0.5-0.6-0.8l1.6,1.6c0.3,0.3,0.7,0.6,1,0.9l0.6,0.6
				c0.1,0.1,0.2,0.2,0.3,0.3c0,0,0.1,0.1,0.2,0.2c0.1,0.1,0.1,0.1,0.2,0.2c0.4,0.4,0.8,0.8,1.2,1.1c0.1,0.1,0.2,0.2,0.3,0.3
				c0.3,0.3,0.7,0.6,1.1,0.9c0,0,0,0,0.1,0.1c0.5,0.4,0.9,0.7,1.4,1c0.5,0.4,0.9,0.7,1.4,1c0.3,0.2,0.5,0.4,0.8,0.5
				c0.3,0.2,0.6,0.4,0.9,0.5c0.3,0.2,0.5,0.3,0.8,0.5c0,0,0,0,0,0c0.2,0.1,0.3,0.2,0.4,0.3c0.3,0.2,0.5,0.3,0.8,0.5
				c0.8,0.4,1.6,0.8,2.4,1.2c0.3,0.2,0.6,0.3,0.9,0.4c0.3,0.1,0.6,0.3,0.9,0.4c1.1,0.5,2.3,0.9,3.5,1.2c0.3,0.1,0.7,0.2,1,0.3
				c0.7,0.2,1.4,0.4,2.1,0.5c0.3,0.1,0.7,0.2,1,0.2c0.3,0.1,0.6,0.1,0.9,0.2c0.3,0,0.6,0.1,0.8,0.2c0.5,0.1,1,0.1,1.5,0.2
				c0.3,0,0.6,0.1,0.8,0.1c0.2,0,0.4,0,0.6,0.1c0.3,0,0.5,0,0.8,0.1c0.7,0,1.3,0.1,2,0.1c0.4,0,0.8,0,1.3,0c0.4,0,0.8,0,1.2,0
				c0.7,0,1.4-0.1,2.1-0.1c0.2,0,0.3,0,0.5,0c0.5,0,1-0.1,1.5-0.2c0.1,0,0.1,0,0.2,0c0.3,0,0.7-0.1,1-0.1c0.7-0.1,1.4-0.2,2.1-0.4
				c0.4-0.1,0.7-0.2,1.1-0.2c0.4-0.1,0.9-0.2,1.3-0.3c0.1,0,0.3-0.1,0.4-0.1c0.4-0.1,0.8-0.2,1.2-0.4c0.4-0.1,0.8-0.2,1.1-0.4
				c0.2-0.1,0.3-0.1,0.5-0.2c0.4-0.1,0.8-0.3,1.2-0.5c0.3-0.1,0.6-0.2,1-0.4c0.3-0.1,0.6-0.3,1-0.4c0.3-0.1,0.5-0.2,0.8-0.4
				c0.3-0.2,0.7-0.3,1.1-0.5c0.3-0.1,0.6-0.3,0.9-0.5c0.3-0.1,0.5-0.3,0.8-0.4c0.3-0.2,0.7-0.4,1-0.6c0.3-0.2,0.6-0.4,0.9-0.5
				c0.3-0.2,0.6-0.4,0.9-0.6c0.3-0.2,0.6-0.4,0.8-0.6c0.6-0.4,1.1-0.8,1.7-1.2c0.3-0.2,0.5-0.4,0.8-0.6c0.3-0.2,0.5-0.4,0.8-0.6
				c0.3-0.2,0.5-0.4,0.8-0.7c0.2-0.2,0.5-0.4,0.8-0.7c0.2-0.2,0.5-0.5,0.7-0.7c1-1,1.9-2,2.8-3c0,0,0,0,0,0c0.2-0.2,0.4-0.5,0.6-0.7
				c0.3-0.4,0.7-0.8,1-1.3c0.3-0.4,0.6-0.9,0.9-1.3c0.4-0.5,0.7-1,1.1-1.6c0.3-0.5,0.7-1.1,1-1.7c0.1-0.2,0.3-0.5,0.4-0.7
				c0.2-0.3,0.4-0.7,0.5-1C-641.9,718.3-641.7,717.9-641.5,717.5z"/>
		</g>
	</g>
	<path class="st2" d="M-1256.1,702.7V98.2c0,0,4-54.4-47,0.2c-51,54.6-93.4,98.4-93.4,98.4"/>
	<rect x="-1359.1" y="2238.4" class="st5" width="270.9" height="270.9"/>
	<rect x="-1630.7" y="2238.4" class="st6" width="270.9" height="270.9"/>
	<rect x="-1088.2" y="2238.4" class="st7" width="270.9" height="270.9"/>
	<rect x="-822.4" y="2235.8" class="st8" width="270.9" height="270.9"/>
	<rect x="-1657.9" y="320.5" class="st9" width="9" height="415.9"/>
	<line class="st9" x1="-1893.5" y1="395.8" x2="-1657.9" y2="325.9"/>
	<line class="st9" x1="-1394.5" y1="395.8" x2="-1649" y2="325.9"/>
	<line class="st9" x1="-1522.1" y1="401" x2="-1649" y2="325.9"/>
	<line class="st9" x1="-1784.1" y1="401" x2="-1657.9" y2="325.9"/>
	<line class="st9" x1="-1878.5" y1="391.3" x2="-1410.8" y2="391.3"/>
	<line class="st10" x1="-1658" y1="325.9" x2="-1649" y2="325.9"/>
	<g>
		<path class="st7" d="M-713.7-494.1c0,0,0,0.1,0,0.3c0,0,0,0,0,0c-1,11.2-26.6,298.5-35,361.1c-8.1,59.9-51.1,61.7-51.1,61.7
			s-101,8.7-132.8-4.4c-31.8-13.1-38.7-59.9-38.7-59.9l-39.3-358.5l0-0.4"/>
		<path class="st2" d="M-988.1,22.4L-988.1,22.4c0,0.1,0,0.1,0,0.1c0,6.1,55.9,11,124.9,11c19.6,0,38.2-0.4,54.7-1.1"/>
		<path class="st2" d="M-791.7,31.5c32.3-2,53.4-5.3,53.4-9c0,0,0-0.1,0-0.1v0"/>
		<path class="st2" d="M-731.8-59.2c0,0,0,0.1,0,0.1c0,0.1,0,0.2,0,0.3l0,0c-1.8,5.9-59.9,10.7-131.3,10.7c-5.5,0-10.8,0-16.1-0.1"
			/>
		<path class="st2" d="M-916.8-49c-45-1.7-76.6-5.4-77.7-9.8v0c0-0.1,0-0.1,0-0.2c0,0,0-0.1,0-0.1v0"/>
		<path class="st2" d="M-885.2-544.3c7.2,0.1,14.6,0.1,22,0.1c91.8,0,166.7-7.1,171.1-15.9c0.1-0.3,0.2-0.5,0.2-0.8
			c0-9.3-76.7-16.8-171.3-16.8c-53.5,0-101.2,2.4-132.6,6.1c-24.2,2.9-38.6,6.6-38.6,10.6c0,4.6,19.3,8.8,50.5,11.9
			c18.5,1.8,41.3,3.2,66.6,4"/>
		<ellipse class="st4" cx="-862.2" cy="-494" rx="148.5" ry="16.8"/>
		<circle class="st11" cx="-1032.3" cy="-641.8" r="18.8"/>
		<line class="st2" x1="-1024" y1="-625.1" x2="-833.9" y2="-264"/>
		<path class="st11" d="M-870.3-139.4l-36.9,21.3c-8.6,4.9-19.6,2-24.6-6.6l-20.3-35.2c-4.9-8.6-2-19.6,6.6-24.6l36.9-21.3
			c8.6-4.9,19.6-2,24.6,6.6l20.3,35.2C-858.8-155.4-861.7-144.4-870.3-139.4z"/>
		<path class="st11" d="M-864.7-219.7l-42.5,3.2c-9.9,0.7-18.6-6.7-19.3-16.6l-3-40.5c-0.7-9.9,6.7-18.6,16.6-19.3l42.5-3.2
			c9.9-0.7,18.6,6.7,19.3,16.6l3,40.5C-847.4-229.1-854.8-220.4-864.7-219.7z"/>
		<path class="st11" d="M-778.5-237.4l-42.5-3.5c-9.9-0.8-17.3-9.5-16.5-19.4l3.3-40.5c0.8-9.9,9.5-17.3,19.4-16.5l42.5,3.5
			c9.9,0.8,17.3,9.5,16.5,19.4l-3.3,40.5C-759.9-244-768.7-236.6-778.5-237.4z"/>
		<path class="st11" d="M-786.2-338.7l-20.4-1.7c-9.9-0.8-17.3-9.5-16.5-19.4l1.6-19c0.8-9.9,9.5-17.3,19.4-16.5l20.4,1.7
			c9.9,0.8,17.3,9.5,16.5,19.4l-1.6,19C-767.6-345.3-776.3-337.9-786.2-338.7z"/>
		<path class="st11" d="M-842.3-367.5l-19.8,5c-9.6,2.4-19.4-3.5-21.8-13.1l-4.6-18.5c-2.4-9.6,3.5-19.4,13.1-21.8l19.8-5
			c9.6-2.4,19.4,3.5,21.8,13.1l4.6,18.5C-826.8-379.7-832.7-369.9-842.3-367.5z"/>
		<path class="st11" d="M-940.9-411.4l-20.4-1.1c-9.9-0.5-17.5-9-17-18.9l1-19c0.5-9.9,9-17.5,18.9-17l20.4,1.1
			c9.9,0.5,17.5,9,17,18.9l-1,19C-922.5-418.5-931-410.9-940.9-411.4z"/>
		<path class="st11" d="M-861.9-297.4l-30.1,30.1c-7,7-18.5,7-25.5,0l-28.7-28.7c-7-7-7-18.5,0-25.5l30.1-30.1c7-7,18.5-7,25.5,0
			l28.7,28.7C-854.9-315.9-854.9-304.4-861.9-297.4z"/>
		<line class="st2" x1="-1008.9" y1="-239.3" x2="-1009.6" y2="-248.9"/>
		<polyline class="st2" points="-1005.7,-199.1 -994.5,-59.2 -994.5,-59.1 -994.5,-58.8 -994.5,-58.8 -988.1,22.4 -988.1,22.4 		"/>
		<line class="st2" x1="-1012.6" y1="-286.4" x2="-1034.5" y2="-561.2"/>
		<polyline class="st2" points="-692,-561.3 -692.1,-560.1 -696.5,-503.8 		"/>
		<polyline class="st2" points="-738.3,22.6 -738.3,22.4 -738.3,22.4 -731.8,-58.7 -731.8,-58.8 -731.8,-59.2 -704.8,-399.9 		"/>
		<line class="st2" x1="-700.1" y1="-459.4" x2="-700.8" y2="-450.3"/>
		<g>
			
				<rect x="-776.1" y="-751.5" transform="matrix(0.9739 0.2268 -0.2268 0.9739 -146.4962 160.5482)" class="st9" width="8.4" height="388.7"/>
			<line class="st9" x1="-962.3" y1="-728.8" x2="-733.1" y2="-742.5"/>
			<line class="st9" x1="-508.2" y1="-623" x2="-724.9" y2="-740.6"/>
			<line class="st9" x1="-625.4" y1="-645.4" x2="-724.9" y2="-740.6"/>
			<line class="st9" x1="-863.9" y1="-700.9" x2="-733.1" y2="-742.5"/>
			<line class="st9" x1="-947.7" y1="-729.8" x2="-522.1" y2="-630.7"/>
			<line class="st10" x1="-733.1" y1="-742.5" x2="-725" y2="-740.6"/>
		</g>
	</g>
	<g>
		<path class="st7" d="M23.3-473.2c0,0-0.3,1.3-0.9,3.7c-7.1,28.3-54.2,211.1-96.2,232c-24.4,12.1-75.7,16.9-128.4,10.7
			c-17.9-2.1-32.1-8.8-43.2-16.8c-16.9-12.2-29.1-29.8-35.2-49.6l-53.8-175.4l-1.4-4.6H23.3z"/>
		<path class="st11" d="M-168.7-346.3l-47.5,11.9c-9.6,2.4-19.4-3.5-21.8-13.1l-11.3-45.4c-2.4-9.6,3.5-19.4,13.1-21.8l47.5-11.9
			c9.6-2.4,19.4,3.5,21.8,13.1l11.3,45.4C-153.2-358.5-159.1-348.7-168.7-346.3z"/>
		<path class="st9" d="M-285.5-607c-3.8,0.6-7.4,1.3-11,2"/>
		<path class="st9" d="M-236.3-613.2c23.8-2.1,49.7-3.2,76.7-3.2c65.5,0,124.1,6.7,163.3,17.3c30.7,8.3,49.5,19,50.3,30.6
			c0,0.3,0,0.5,0,0.8c0,0.9-0.1,1.7-0.3,2.6v0c-3.8,16.5-43.4,30.8-101.4,38.9c-32.6,4.6-70.9,7.2-111.9,7.2
			c-113.9,0-206.9-20.3-213.3-46v0c-0.2-0.9-0.4-1.8-0.4-2.8c0-9.6,12.3-18.6,33.4-26.2"/>
		<ellipse class="st4" cx="-156.3" cy="-473.2" rx="179.6" ry="36.4"/>
		<path class="st9" d="M20.2-139.2L20.2-139.2c0.1,0.6,0.1,1.1,0.1,1.7c0,22.7-80.6,41.1-180,41.1s-180-18.4-180-41.1c0,0,0,0,0-0.1
			"/>
		<line class="st9" x1="-373.1" y1="-567.6" x2="-339.6" y2="-137.2"/>
		<line class="st9" x1="26.1" y1="-214" x2="20" y2="-136.7"/>
		<polyline class="st9" points="54,-568.5 53.7,-565.1 53.7,-565.1 35.8,-337.7 29.1,-252.3 29.1,-252.3 		"/>
		<line class="st9" x1="-235.9" y1="-100.3" x2="-240.4" y2="-171"/>
		<path class="st9" d="M-242.9-210.9l-2.1-32.5l-5.7-90c-17.5-18.5-34.9-25.3-50.2-26.1c-28.6-1.4-50.5,18.2-54.3,21.8
			c-0.4,0.4-0.6,0.6-0.6,0.6"/>
		<path class="st9" d="M35.8-337.6c0,0-61.5-49.8-108.2,6.8l-14.8,230.6"/>
		<path class="st9" d="M-250.7-333.3c0,0,99-63.9,178.3,2.5"/>
		<g>
			<circle class="st2" cx="44" cy="-655.5" r="39"/>
			<line class="st2" x1="91.6" y1="-724.1" x2="-81.2" y2="-478.4"/>
		</g>
	</g>
	<path class="st7" d="M1287.3,978.4c0,0-0.3,1.1-0.7,3c-5.8,23.1-15.1,236.9-44,262.1c-19.8,17.3-90,22.1-134.5,20.8
		c-14.7-0.4-45.3-8.6-55.6-12.9c-22-9.1-29.7-26.2-35.1-42.9c-2.7-8.1-5.4-21.8-6.1-30.3L995.2,986c-0.2-2.6-0.7-5.1-1.5-7.6v0
		H1287.3z"/>
	<path class="st11" d="M1107.5,1100.8l-51.7,12.9c-9.6,2.4-19.4-3.5-21.8-13.1l-12.4-49.5c-2.4-9.6,3.5-19.4,13.1-21.8l51.7-12.9
		c9.6-2.4,19.4,3.5,21.8,13.1l12.4,49.5C1123,1088.5,1117.1,1098.4,1107.5,1100.8z"/>
	<path class="st11" d="M1131.8,1200.8l-51.4-14.1c-9.5-2.6-15.2-12.6-12.6-22.1l13.5-49.2c2.6-9.5,12.6-15.2,22.1-12.6l51.4,14.1
		c9.5,2.6,15.2,12.6,12.6,22.1l-13.5,49.2C1151.3,1197.8,1141.3,1203.5,1131.8,1200.8z"/>
	<path class="st11" d="M1231.7,1147.3h-53.3c-9.9,0-18-8.1-18-18v-51c0-9.9,8.1-18,18-18h53.3c9.9,0,18,8.1,18,18v51
		C1249.7,1139.2,1241.6,1147.3,1231.7,1147.3z"/>
	<path class="st9" d="M1040.6,868.1c-2.9,0.4-5.8,0.9-8.5,1.4"/>
	<path class="st9" d="M989.7,880.1c-16.8,6.1-26.6,13.4-26.6,21.1c0,0.8,0.1,1.5,0.3,2.2l0,0c5.2,20.9,81.2,37.6,174.3,37.6
		c33.5,0,64.9-2.2,91.5-5.9c11.4-1.6,21.9-3.5,31.3-5.6"/>
	<path class="st9" d="M1282.9,923.4c17-5.8,27.5-12.6,29.2-20c0.2-0.7,0.2-1.4,0.2-2.1c0-0.2,0-0.5,0-0.7
		c-0.7-9.5-16.1-18.2-41.1-25c-32-8.6-79.9-14.1-133.4-14.1c-21.5,0-42,0.9-61,2.5"/>
	<ellipse class="st4" cx="1140.5" cy="978.4" rx="146.8" ry="29.7"/>
	<path class="st9" d="M1284.8,1251.5L1284.8,1251.5c0.1,0.5,0.1,0.9,0.1,1.4c0,18.5-65.9,33.6-147.1,33.6s-147.1-15-147.1-33.6
		c0,0,0,0,0-0.1"/>
	<line class="st9" x1="963.3" y1="901.3" x2="990.7" y2="1253.1"/>
	<line class="st9" x1="1291.3" y1="1168.5" x2="1290.7" y2="1176"/>
	<line class="st9" x1="1286.4" y1="1231.2" x2="1284.6" y2="1253.5"/>
	<polyline class="st9" points="1294.5,1127.8 1312.1,903.4 1312.4,900.6 	"/>
	<circle class="st2" cx="1304.2" cy="829.5" r="26.1"/>
	<line class="st2" x1="1343.1" y1="773.4" x2="1129.5" y2="1077.1"/>
	<path class="st7" d="M2540.4,1515.7c0,0-0.3,1.4-0.7,3.9c-5.8,30.1-15.1,308.6-44,341.4c-19.8,22.5-90,28.8-134.5,27.1
		c-14.7-0.6-45.3-11.2-55.6-16.8c-22-11.9-29.7-34.1-35.1-55.8c-2.7-10.6-5.4-28.4-6.1-39.5l-15.9-250.4c-0.2-3.4-0.7-6.7-1.5-9.9
		l0,0H2540.4z"/>
	<path class="st11" d="M2356,1637.6l-51.7,12.9c-9.6,2.4-19.4-3.5-21.8-13.1l-12.4-49.5c-2.4-9.6,3.5-19.4,13.1-21.8l51.7-12.9
		c9.6-2.4,19.4,3.5,21.8,13.1l12.4,49.5C2371.5,1625.4,2365.6,1635.2,2356,1637.6z"/>
	<path class="st11" d="M2360.1,1836l-51.4-14.1c-9.5-2.6-15.2-12.6-12.6-22.1l13.5-49.2c2.6-9.5,12.6-15.2,22.1-12.6l51.4,14.1
		c9.5,2.6,15.2,12.6,12.6,22.1l-13.5,49.2C2379.6,1832.9,2369.7,1838.6,2360.1,1836z"/>
	<path class="st11" d="M2474.3,1773.2h-53.3c-9.9,0-18-8.1-18-18v-51c0-9.9,8.1-18,18-18h53.3c9.9,0,18,8.1,18,18v51
		C2492.3,1765.1,2484.2,1773.2,2474.3,1773.2z"/>
	<path class="st9" d="M2293.7,1372c-2.9,0.6-5.8,1.2-8.5,1.8"/>
	<path class="st9" d="M2242.8,1387.6c-16.8,8-26.6,17.4-26.6,27.5c0,1,0.1,1.9,0.3,2.9l0,0.1c5.2,27.3,81.2,48.9,174.3,48.9
		c33.6,0,64.9-2.8,91.5-7.7c11.4-2.1,21.9-4.5,31.3-7.3"/>
	<path class="st9" d="M2536,1444c17-7.5,27.5-16.5,29.2-26.1c0.2-0.9,0.2-1.8,0.2-2.8c0-0.3,0-0.6,0-0.9
		c-0.7-12.4-16.1-23.8-41.1-32.6c-32-11.3-79.9-18.4-133.4-18.4c-21.5,0-42,1.1-61,3.3"/>
	<ellipse class="st4" cx="2393.6" cy="1509.4" rx="146.8" ry="32.4"/>
	<path class="st9" d="M2537.9,1871.4L2537.9,1871.4c0.1,0.6,0.1,1.2,0.1,1.8c0,24.2-65.9,43.7-147.1,43.7s-147.1-19.6-147.1-43.7
		c0,0,0,0,0-0.1"/>
	<line class="st9" x1="2216.4" y1="1415.2" x2="2243.8" y2="1873.5"/>
	<line class="st9" x1="2549.3" y1="1660.1" x2="2548.4" y2="1669.6"/>
	<line class="st9" x1="2543.8" y1="1729.7" x2="2538" y2="1833.7"/>
	<line class="st9" x1="2565.5" y1="1415.2" x2="2549.3" y2="1644.3"/>
	<line class="st9" x1="2564.8" y1="1410.6" x2="2564.8" y2="1410.6"/>
	<g>
		<path class="st7" d="M-1779-582.3C-1779-582.3-1779-582.3-1779-582.3c-1.1,0.9-38,31-75,61c0,0,0,0,0,0c-7,5.7-14,11.4-20.8,16.9
			c-25,20.4-46.7,38-52.6,42.8c-16.2,13.1-31.8,0-31.8,0L-2095.4-572l-17.4-14.1c0,0-0.1-0.1-0.1-0.1l-0.1-0.1l-0.8-0.7l11.4,0.2
			l215.7,3h0L-1779-582.3z"/>
		<path class="st4" d="M-1768.3-591.8c0,3.3-3.8,6.5-10.6,9.5c-18.7,8.1-60.4,14.4-112.5,16.9c-1.5,0.1-3,0.1-4.5,0.2
			c-7.9,0.3-16,0.6-24.2,0.8c-7.3,0.2-14.7,0.2-22.2,0.2c-67.3,0-125.6-6.1-154.6-14.9c-7.2-2.2-12.5-4.6-15.8-7
			c0,0-0.1-0.1-0.1-0.1c-0.3-0.2-0.6-0.5-0.9-0.7c-1.2-1.1-2-2.2-2.4-3.3c-0.2-0.5-0.3-1-0.3-1.6c0-8.8,25.8-16.6,66.1-21.6
			c29.7-3.7,67.2-6,108-6c25.8,0,50.2,0.9,72.2,2.5c12.7,0.9,24.5,2.1,35.3,3.4C-1794.3-608.4-1768.3-600.6-1768.3-591.8z"/>
		<path class="st2" d="M-1843-15.6c1.3,0.8,1.9,1.5,1.9,2.3c0,6.6-45.3,11.9-101.2,11.9c-55.9,0-101.2-5.3-101.2-11.9
			c0-0.5,0.3-1.1,0.9-1.6c0,0,0,0,0.1-0.1l0.2-0.2"/>
		<line class="st2" x1="-1848.5" y1="-20.1" x2="-1848.6" y2="-20.1"/>
		<path class="st2" d="M-2022-18c15.6,2.5,39.4,4.3,66.7,4.7"/>
		<polyline class="st9" points="-2043.4,-13.3 -2042.5,-14.9 -2042.5,-14.9 -2042.4,-14.9 -2042.2,-15.1 -2041.6,-15.6 
			-2035.1,-20.9 -2031.7,-23.6 -1942.3,-95.7 -1934.6,-89.5 		"/>
		<polyline class="st9" points="-1891.1,-54.4 -1848.6,-20.1 -1848.5,-20.1 -1843,-15.6 -1841.6,-14.5 -1841.1,-13.3 		"/>
		<line class="st9" x1="-1916.2" y1="-74.7" x2="-1918.5" y2="-76.5"/>
		<line class="st11" x1="-1943.5" y1="-431" x2="-1943.5" y2="-95.7"/>
		<g>
			<line class="st2" x1="-1787.9" y1="-782.1" x2="-1946.8" y2="-463.2"/>
			
				<ellipse transform="matrix(0.4459 -0.8951 0.8951 0.4459 -580.5089 -2006.917)" class="st2" cx="-1911.2" cy="-534.6" rx="36.8" ry="27.1"/>
		</g>
		<ellipse class="st2" cx="-1943.2" cy="-641" rx="257.7" ry="30.3"/>
		<polyline class="st9" points="-2200.9,-641 -2198.5,-636.9 -2198.5,-636.9 -2197.9,-636.4 -2152.4,-599.6 		"/>
		<polyline class="st9" points="-2099.4,-556.9 -1943.5,-431 -1903.5,-463.3 		"/>
		<polyline class="st9" points="-1838.1,-516 -1690.5,-635.1 -1690.5,-635.1 -1687,-638 -1685.6,-641 		"/>
		<line class="st9" x1="-1872.9" y1="-487.9" x2="-1877.5" y2="-484.2"/>
		<line class="st9" x1="-2127.8" y1="-579.8" x2="-2132.8" y2="-583.8"/>
	</g>
	<path class="st2" d="M1446.6,942.2c-1.2-1-2.5-2.1-3.6-3.2"/>
	<g>
		<path class="st2" d="M796.4-794.9L796.4-794.9c-2,0-4.1,0-6.1,0c-82.7,0-149.7-8.5-149.7-18.9c0-5,15.2-9.5,40.1-12.9"/>
		<path class="st2" d="M712.6-830c22.6-1.7,49.2-2.7,77.6-2.7c82.7,0,149.7,8.5,149.7,19c0,0.2,0,0.3-0.1,0.5c0,0.1-0.1,0.3-0.1,0.4
			c0,0,0,0.1,0,0.1c-0.1,0.1-0.1,0.2-0.2,0.4c-0.4,0.7-1,1.3-1.9,2c-0.2,0.2-0.5,0.3-0.7,0.5c-0.5,0.3-1.1,0.7-1.8,1
			c-0.3,0.1-0.5,0.2-0.8,0.4c-0.3,0.2-0.7,0.3-1,0.4c-0.4,0.1-0.7,0.3-1.1,0.4c-0.4,0.1-0.8,0.3-1.2,0.4c-0.2,0.1-0.4,0.1-0.6,0.2
			c-0.7,0.2-1.4,0.4-2.1,0.7c-0.9,0.3-2,0.6-3,0.8c-0.5,0.1-1,0.3-1.6,0.4c-0.5,0.1-1,0.3-1.6,0.4c-1.9,0.4-4,0.9-6.2,1.3
			c-0.9,0.2-1.8,0.4-2.8,0.5c-1.3,0.2-2.5,0.4-3.9,0.7c-1.1,0.2-2.2,0.4-3.4,0.6c-2.3,0.3-4.7,0.7-7.2,1c-0.6,0.1-1.2,0.2-1.8,0.2
			c-5.3,0.7-11,1.3-17.1,1.9c-0.9,0.1-1.9,0.2-2.8,0.2c-5.9,0.5-12.2,1-18.7,1.4c-2.1,0.1-4.2,0.3-6.3,0.4c-0.4,0-0.8,0.1-1.2,0.1
			c-1.5,0.1-3,0.2-4.5,0.2c-3,0.2-6.1,0.3-9.2,0.4"/>
		<path class="st2" d="M849.8-104.1c-1.8-0.1-3.5-0.2-5.3-0.3"/>
		<path class="st2" d="M883.9-101.5c34.2,3.5,56,8.8,56,14.8c0,10.5-67,18.9-149.7,18.9c-82.7,0-149.7-8.5-149.7-18.9
			c0-9.8,58.4-17.8,133.4-18.8"/>
		<path class="st2" d="M821.4-105.3c-4.7-0.1-9.5-0.2-14.3-0.3"/>
		<path class="st2" d="M759.7-460.1c-23.4-4.2-45.1-13-64.2-25.6c0,0,0,0,0,0"/>
		<path class="st2" d="M662.1-514.3c-27.8-30.7-44.7-71.4-44.7-116c0-8.6,0.6-17.1,1.9-25.4l21.4-158c0,10.5,67,18.9,149.7,18.9
			c2,0,4.1,0,6.1,0h0"/>
		<path class="st2" d="M821.4-460.2C821.4-460.2,821.4-460.2,821.4-460.2c80.7-14.7,141.8-85.2,141.8-170.1c0-8.6-0.6-17.1-1.9-25.4
			h0l-21.4-158c0,0.2,0,0.3-0.1,0.5c0,0.1-0.1,0.3-0.1,0.4c0,0,0,0.1,0,0.1c-0.1,0.1-0.1,0.2-0.2,0.4c-0.4,0.7-1,1.3-1.9,2
			c-0.2,0.2-0.5,0.3-0.7,0.5c-0.5,0.3-1.1,0.7-1.8,1c-0.3,0.1-0.5,0.2-0.8,0.4c-0.3,0.2-0.7,0.3-1,0.4c-0.4,0.1-0.7,0.3-1.1,0.4
			c-0.4,0.1-0.8,0.3-1.2,0.4c-0.2,0.1-0.4,0.1-0.6,0.2c-0.7,0.2-1.4,0.4-2.1,0.7c-0.9,0.3-2,0.6-3,0.8c-0.5,0.1-1.1,0.3-1.6,0.4
			c-0.5,0.1-1,0.3-1.6,0.4c-1.9,0.4-4,0.9-6.2,1.3c-0.9,0.2-1.8,0.4-2.8,0.5c-1.3,0.2-2.5,0.4-3.9,0.7c-1.1,0.2-2.2,0.4-3.4,0.6
			c-2.3,0.3-4.7,0.7-7.2,1c-0.6,0.1-1.2,0.2-1.8,0.2c-5.3,0.7-11,1.3-17.1,1.9c-0.9,0.1-1.9,0.2-2.8,0.2c-5.9,0.5-12.2,1-18.7,1.4
			c-2.1,0.1-4.2,0.3-6.3,0.4c-0.4,0-0.8,0.1-1.2,0.1c-1.5,0.1-3,0.2-4.5,0.2c-3,0.2-6.1,0.3-9.2,0.4"/>
		<path class="st2" d="M783.7-375.2c0-2.5,0-5,0-7.5"/>
		<path class="st2" d="M783.7-343.3c-0.1,93.5-1.5,218.9-1.5,218.9s-0.2,8-8.2,18.9c-0.1,0.1-0.2,0.3-0.3,0.4"/>
		<path class="st2" d="M759.7-460.1c5.6,2.2,19.8,8.7,22.5,17.3c0.7,2.2,1.1,16.2,1.3,37.4"/>
		<path class="st11" d="M807.4-105.2c-9-11.1-8.9-19.3-8.9-19.3s-3.4-307.7,0-318.4c2.7-8.7,17.4-15.2,22.9-17.4c0,0,0,0,0,0"/>
		<path class="st7" d="M932.2-764.6c0,0,12.6,71.4,19.3,124.6c6.7,53.3-25.2,88.6-42,111c-16.8,22.4-50.4,46.5-81.3,54.9
			c-30.8,8.4-62.2,0-62.2,0s-66.2-18.5-107.1-66.7C618-589,629.8-646.1,629.8-646.1l16.1-118.5H932.2z"/>
		<ellipse class="st4" cx="789.1" cy="-764.6" rx="143.2" ry="18.9"/>
	</g>
	<path class="st11" d="M-1042.1,1689.2c-0.7,2-1.4,4-2.1,5.9"/>
	<path class="st12" d="M1308.6,1470.9c0,0.1,0,0.3,0,0.4v-0.8C1308.6,1470.7,1308.6,1470.8,1308.6,1470.9z"/>
	<path class="st12" d="M1308.6,1549.5v-1c0,0.1,0,0.2,0,0.2v0.1v0.2c0,0,0,0.1,0,0.1c0,0,0,0,0,0.1c0.1,8.8,7.3,16,16.2,16
		c8.9,0,16.2-7.3,16.2-16.2c0-4-1.5-7.7-3.9-10.5c-0.7-0.6-1.3-1.2-1.9-1.9c-0.1-0.1-0.2-0.2-0.2-0.3l0.6,0.6l1.3,1.3l0.5,0.5"/>
	<path class="st12" d="M1335.7,1482.7l-0.4,0.4c0-0.1,0.1-0.1,0.1-0.2c0.4-0.4,0.8-0.8,1.2-1.2c0,0,0,0,0,0c0,0,0.1-0.1,0.1-0.1
		l-0.3,0.3C1336.3,1482.2,1336,1482.5,1335.7,1482.7z"/>
	<path class="st12" d="M1346,1510c0,0-0.1,0-0.1,0c0,0,0,0,0,0C1345.9,1510,1345.9,1510,1346,1510z"/>
	<path class="st12" d="M1346.5,1509.9c-0.1,0-0.2,0-0.3,0C1346.3,1510,1346.3,1510,1346.5,1509.9
		C1346.4,1509.9,1346.4,1509.9,1346.5,1509.9z"/>
	<path class="st12" d="M1348.6,1509.9c-0.1,0-0.2,0-0.2,0h0c-0.3,0-0.6,0-0.9,0c-0.3,0-0.6,0-0.8,0h0c-0.1,0-0.2,0-0.3,0h0.8
		c0.1,0,0.3,0,0.5,0c0.2,0,0.3,0,0.5,0H1348.6z"/>
	<path class="st12" d="M1348.8,1510L1348.8,1510c-0.1,0-0.3,0-0.4,0C1348.5,1509.9,1348.6,1509.9,1348.8,1510
		C1348.8,1509.9,1348.8,1509.9,1348.8,1510z"/>
	<path class="st12" d="M1349.3,1510c-0.1,0-0.1,0-0.2,0h0c-0.1,0-0.1,0-0.2,0c0.1,0,0.1,0,0.2,0
		C1349.2,1510,1349.3,1510,1349.3,1510z"/>
	<path class="st12" d="M1362.7,1520.5c0-0.1,0-0.1-0.1-0.2c-0.1-0.2-0.2-0.4-0.2-0.6c-0.1-0.2-0.1-0.3-0.2-0.5
		c-0.1-0.1-0.1-0.3-0.2-0.4c0-0.1-0.1-0.2-0.1-0.3c0-0.1-0.1-0.2-0.2-0.3c0,0,0-0.1-0.1-0.1c-0.1-0.2-0.2-0.3-0.3-0.5
		c-0.1-0.2-0.2-0.3-0.3-0.5c-0.1-0.2-0.2-0.3-0.3-0.5v0c-0.1-0.2-0.2-0.3-0.4-0.5s-0.2-0.3-0.4-0.5c-0.1-0.1-0.2-0.3-0.4-0.4
		c0,0,0-0.1-0.1-0.1c-0.1-0.1-0.2-0.3-0.3-0.4c0,0,0,0,0,0c-0.1-0.1-0.3-0.3-0.4-0.4c-0.1-0.1-0.2-0.2-0.4-0.4
		c-0.2-0.2-0.3-0.3-0.5-0.5c-0.2-0.1-0.3-0.3-0.5-0.4c-0.2-0.1-0.4-0.3-0.6-0.4c-0.1-0.1-0.2-0.2-0.4-0.3c-0.1-0.1-0.2-0.1-0.3-0.2
		c-0.1-0.1-0.3-0.2-0.4-0.2c-0.2-0.1-0.4-0.3-0.7-0.4c-0.1-0.1-0.2-0.1-0.3-0.1c-0.2-0.1-0.3-0.2-0.5-0.2c-0.2-0.1-0.4-0.2-0.6-0.2
		c-0.1-0.1-0.3-0.1-0.5-0.2c-0.1-0.1-0.3-0.1-0.4-0.1c0,0-0.1,0-0.1-0.1c-0.1,0-0.2-0.1-0.3-0.1c-0.1,0-0.2-0.1-0.3-0.1
		c-0.1,0-0.2-0.1-0.3-0.1c-0.1,0-0.2-0.1-0.3-0.1c-0.1,0-0.1,0-0.2-0.1c-0.1,0-0.2-0.1-0.4-0.1c-0.3-0.1-0.5-0.1-0.8-0.2
		c-0.1,0-0.2,0-0.3,0c0.1,0,0.1,0,0.2,0h0c0.2,0,0.4,0.1,0.5,0.1c0.1,0,0.1,0,0.2,0c0,0,0,0,0,0c0,0,0,0,0,0c0.2,0,0.3,0.1,0.5,0.1
		c0.1,0,0.1,0,0.1,0c0.2,0,0.3,0.1,0.5,0.1c0.2,0.1,0.4,0.1,0.7,0.2c0.2,0.1,0.4,0.1,0.5,0.2c0.1,0,0.2,0.1,0.3,0.1
		c0.2,0.1,0.4,0.2,0.6,0.3c0.1,0,0.2,0.1,0.3,0.1c0.2,0.1,0.4,0.2,0.7,0.3c0,0,0,0,0,0c0.2,0.1,0.4,0.2,0.6,0.4
		c0.1,0.1,0.2,0.1,0.3,0.2c0.1,0.1,0.2,0.2,0.4,0.2c0.1,0.1,0.2,0.2,0.4,0.3c0.2,0.2,0.5,0.3,0.7,0.5c0.1,0.1,0.2,0.1,0.2,0.2
		c0,0,0,0,0,0c0.1,0.1,0.3,0.2,0.4,0.4c0.1,0.1,0.3,0.3,0.4,0.4c0,0,0,0,0,0c0.1,0.1,0.2,0.2,0.3,0.3c0.1,0.1,0.2,0.2,0.3,0.3
		c0.1,0.1,0.2,0.3,0.4,0.4c0.1,0.1,0.2,0.3,0.4,0.4c0.1,0.1,0.2,0.2,0.2,0.3c0,0,0,0,0,0c0.1,0.2,0.3,0.3,0.4,0.5
		c0.1,0.1,0.2,0.2,0.3,0.4c0.1,0.2,0.2,0.3,0.3,0.5c0.1,0.2,0.2,0.3,0.3,0.5c0.1,0.1,0.1,0.2,0.2,0.3c0.1,0.2,0.2,0.4,0.3,0.7
		c0.1,0.2,0.2,0.4,0.3,0.7c0.1,0.1,0.1,0.2,0.1,0.3c0.1,0.3,0.3,0.7,0.4,1c0,0.1,0.1,0.2,0.1,0.4s0.1,0.2,0.1,0.4
		c0.1,0.2,0.1,0.4,0.1,0.6c0,0,0,0,0,0c0,0.2,0.1,0.3,0.1,0.5c0,0.1,0,0.1,0,0.2c-0.1-0.4-0.2-0.8-0.3-1.2
		C1363,1521.2,1362.9,1520.9,1362.7,1520.5z"/>
	<line class="st12" x1="1348.1" y1="1509.9" x2="1347.1" y2="1509.9"/>
	<line class="st12" x1="1336.5" y1="1482" x2="1335.7" y2="1482.7"/>
	<path class="st12" d="M1308.6,1470.9c0,0.1,0,0.3,0,0.4v-0.8C1308.6,1470.7,1308.6,1470.8,1308.6,1470.9z"/>
	<path class="st12" d="M1336.7,1481.8c-0.1,0.1-0.1,0.1-0.2,0.2c-0.2,0.3-0.5,0.5-0.8,0.8c-0.1,0.1-0.2,0.1-0.2,0.2
		C1335.9,1482.5,1336.3,1482.2,1336.7,1481.8z"/>
	<path class="st12" d="M1308.6,1549c0-0.1,0-0.1,0-0.2L1308.6,1549c0,0,0,0.1,0,0.1V1549z"/>
	<path class="st12" d="M1337.1,1538.5c-0.7-0.6-1.3-1.2-1.9-1.9c0.1,0.1,0.2,0.2,0.4,0.3c0.1,0.1,0.3,0.2,0.4,0.3l0.2,0.2
		c0,0,0.1,0.1,0.1,0.1c0,0,0,0,0.1,0.1c0,0,0,0,0.1,0.1c0.1,0.1,0.3,0.3,0.4,0.4C1336.9,1538.3,1337,1538.4,1337.1,1538.5z"/>
	<path class="st12" d="M1308.6,1548.7v0.3c0,0,0,0.1,0,0.1c0,0,0,0,0,0.1c0,0.1,0,0.2,0,0.3v-1
		C1308.6,1548.5,1308.6,1548.6,1308.6,1548.7z"/>
	<path class="st12" d="M1346.5,1509.9c-0.1,0-0.2,0-0.3,0C1346.3,1510,1346.3,1510,1346.5,1509.9
		C1346.4,1509.9,1346.4,1509.9,1346.5,1509.9z"/>
	<g>
		<circle class="st7" cx="1953.6" cy="1573.3" r="61.5"/>
		<path class="st12" d="M1948.8,1643.4c17,0,32.4-6.9,43.5-18"/>
		<path class="st12" d="M1953.6,1581.9c0,1.3-0.5,2.5-1.4,3.4c-0.9,0.9-2,1.4-3.4,1.4c-1.3,0-2.5-0.5-3.4-1.4
			c-0.9-0.9-1.4-2-1.4-3.4c0-1.3,0.5-2.5,1.4-3.4c0.9-0.9,2-1.4,3.4-1.4c1.3,0,2.5,0.5,3.4,1.4
			C1953,1579.4,1953.6,1580.6,1953.6,1581.9z"/>
		<path class="st12" d="M1981.1,1542.9c0,4.2-1.6,8-4.2,10.9c0,0,0,0,0,0c-0.4,0.4-0.8,0.7-1.2,1.2c0,0.1-0.1,0.1-0.1,0.2
			l-23.4,23.4c-0.9-0.9-2-1.4-3.4-1.4v-33.8c0-0.1,0-0.3,0-0.4c0-8.9,7.2-16.1,16.1-16.1S1981.1,1534,1981.1,1542.9z"/>
		<path class="st12" d="M1981.2,1621c0,8.9-7.3,16.2-16.2,16.2c-8.9,0-16.1-7.1-16.2-16c0,0,0,0,0-0.1c0,0,0-0.1,0-0.1v-0.3
			c0-0.1,0-0.2,0-0.2v-33.8c1.3,0,2.5-0.5,3.4-1.4l23,23c0.1,0.1,0.2,0.2,0.2,0.3c0.6,0.7,1.2,1.3,1.9,1.9
			C1979.7,1613.3,1981.2,1617,1981.2,1621z"/>
		<path class="st12" d="M1948.8,1643.4c-4.2,0-8.3-0.4-12.3-1.2v0c-12.1-2.5-22.9-8.4-31.2-16.8c-1.3-1.3-2.6-2.7-3.8-4.2
			c-2.1-2.6-4-5.3-5.7-8.2c-5.3-9.1-8.4-19.7-8.4-31c0-1.4,0.1-2.9,0.2-4.3c0.6-8.8,3.1-17.1,7-24.5v0
			c10.3-19.4,30.8-32.7,54.3-32.7c34,0,61.5,27.5,61.5,61.5c0,12.4-3.7,23.9-10,33.6c-2.3,3.6-5,6.9-8,9.9"/>
		<path class="st12" d="M1977.5,1610.6l-0.5-0.5l-1.3-1.3c0.1,0.1,0.2,0.2,0.4,0.3l0.4,0.4c0,0,0,0,0.1,0.1c0,0,0.1,0,0.1,0.1
			c0.2,0.2,0.3,0.3,0.5,0.4c0,0,0.1,0.1,0.1,0.1c0.1,0.1,0.3,0.2,0.4,0.3c0,0,0,0,0,0c0.2,0.1,0.3,0.3,0.5,0.4
			c0.2,0.1,0.4,0.3,0.5,0.4c0.1,0.1,0.2,0.1,0.3,0.2c0.1,0.1,0.2,0.1,0.3,0.2c0.1,0.1,0.2,0.1,0.3,0.2h0c0,0,0.1,0.1,0.2,0.1
			c0.1,0.1,0.2,0.1,0.3,0.2c0.3,0.2,0.6,0.3,0.9,0.4c0.1,0.1,0.2,0.1,0.3,0.2c0.1,0.1,0.2,0.1,0.3,0.2c0.4,0.2,0.9,0.3,1.3,0.5
			c0.1,0,0.2,0.1,0.4,0.1c0.2,0.1,0.5,0.1,0.8,0.2c0.1,0,0.3,0.1,0.4,0.1c0.1,0,0.2,0,0.3,0.1c0.1,0,0.2,0,0.3,0.1
			c0.2,0,0.4,0.1,0.6,0.1c0.1,0,0.2,0,0.3,0c0.1,0,0.2,0,0.2,0c0.1,0,0.2,0,0.3,0c0.2,0,0.5,0,0.7,0h0.9c0.3,0,0.5,0,0.8,0
			c0.1,0,0.1,0,0.2,0c0.2,0,0.4,0,0.6-0.1c0,0,0.1,0,0.1,0c0.1,0,0.2,0,0.4,0c0.3,0,0.5-0.1,0.8-0.1c0.1,0,0.3-0.1,0.4-0.1
			c0.2,0,0.3-0.1,0.5-0.1c0.1,0,0.1,0,0.2-0.1c0.2,0,0.3-0.1,0.5-0.1c0.1,0,0.3-0.1,0.4-0.1c0.1,0,0.1,0,0.2-0.1
			c0.2-0.1,0.3-0.1,0.5-0.2c0.1-0.1,0.2-0.1,0.4-0.2l0.4-0.2c0.1,0,0.2-0.1,0.3-0.1c0.1-0.1,0.3-0.1,0.4-0.2
			c0.1-0.1,0.2-0.1,0.3-0.2c0.1-0.1,0.2-0.1,0.3-0.2c0.1-0.1,0.2-0.1,0.4-0.2l0.3-0.2c0.1-0.1,0.2-0.1,0.3-0.2
			c0.1-0.1,0.2-0.1,0.3-0.2c0.2-0.1,0.4-0.3,0.6-0.5c0.1-0.1,0.2-0.2,0.3-0.2s0.2-0.2,0.3-0.2c0.1-0.1,0.2-0.2,0.3-0.2
			c0.1-0.1,0.2-0.2,0.3-0.3c0.1-0.1,0.2-0.2,0.3-0.3c0.4-0.4,0.7-0.7,1.1-1.1c0,0,0,0,0,0c0.1-0.1,0.1-0.2,0.2-0.3
			c0.1-0.1,0.2-0.3,0.4-0.5s0.2-0.3,0.3-0.5c0.1-0.2,0.3-0.4,0.4-0.6c0.1-0.2,0.3-0.4,0.4-0.6c0-0.1,0.1-0.2,0.2-0.3
			c0.1-0.1,0.1-0.2,0.2-0.4c0.1-0.2,0.1-0.3,0.2-0.4c0.1-0.1,0.1-0.2,0.2-0.3c0-0.1,0.1-0.2,0.1-0.3c0,0,0,0,0-0.1
			c0-0.1,0.1-0.2,0.1-0.3c0,0,0-0.1,0-0.1c0-0.1,0-0.1,0.1-0.2c0,0,0-0.1,0.1-0.2c0-0.1,0.1-0.2,0.1-0.3c0-0.1,0.1-0.2,0.1-0.3
			c0.1-0.1,0.1-0.3,0.1-0.4c0,0,0,0,0-0.1c0-0.1,0.1-0.3,0.1-0.4c0,0,0,0,0,0s0,0,0,0c0.1-0.2,0.1-0.5,0.2-0.7c0,0,0,0,0,0
			c0-0.1,0-0.1,0-0.2c0-0.1,0-0.2,0-0.2c0-0.1,0-0.2,0.1-0.4v0c0-0.1,0-0.2,0-0.4l0,0c0,0,0-0.1,0-0.1c0,0,0-0.1,0-0.1
			c0,0,0-0.1,0-0.1c0,0,0-0.1,0-0.1c0-0.1,0-0.2,0-0.2c0,0,0-0.1,0-0.1c0-0.1,0-0.2,0-0.3v-0.1c0-0.1,0-0.1,0-0.2c0-0.1,0-0.2,0-0.3
			c0-0.1,0-0.2,0-0.4c0-0.3,0-0.5,0-0.8c0-0.1,0-0.2,0-0.4c0-0.1,0-0.1,0-0.2c0-0.1,0-0.1,0-0.2v0c0-0.1,0-0.2,0-0.4
			c0,0,0-0.1,0-0.1c0-0.2-0.1-0.5-0.1-0.7c0-0.1,0-0.2,0-0.2c0-0.1,0-0.2-0.1-0.3c0,0,0-0.1,0-0.1c0-0.2-0.1-0.4-0.1-0.5
			c0,0,0,0,0,0c-0.1-0.2-0.1-0.4-0.2-0.5c0-0.1-0.1-0.2-0.1-0.4c0-0.1-0.1-0.2-0.1-0.4c0-0.1-0.1-0.3-0.1-0.4
			c-0.1-0.2-0.2-0.4-0.2-0.7c0-0.1-0.1-0.2-0.2-0.3c-0.1-0.2-0.2-0.4-0.3-0.7c0-0.1-0.1-0.1-0.1-0.2c-0.1-0.1-0.1-0.2-0.2-0.3
			c0,0-0.1-0.1-0.1-0.1c0,0,0,0,0-0.1c-0.1-0.1-0.1-0.2-0.2-0.3c-0.1-0.2-0.2-0.3-0.3-0.5c-0.1-0.2-0.2-0.3-0.3-0.5
			c-0.1-0.1-0.2-0.2-0.3-0.4c-0.1-0.2-0.2-0.3-0.4-0.5c0,0,0,0,0,0c-0.1-0.1-0.2-0.2-0.2-0.3c-0.1-0.1-0.2-0.3-0.4-0.4
			c-0.1-0.1-0.2-0.3-0.4-0.4c-0.1-0.1-0.2-0.2-0.2-0.3c-0.1-0.1-0.2-0.2-0.3-0.2c0,0,0,0,0,0c-0.1-0.1-0.3-0.3-0.4-0.4
			c-0.1-0.1-0.3-0.2-0.4-0.4c0,0,0,0-0.1,0c-0.1-0.1-0.2-0.1-0.2-0.2c-0.2-0.2-0.5-0.3-0.7-0.5c-0.1-0.1-0.2-0.2-0.4-0.2
			c-0.1-0.1-0.2-0.2-0.4-0.2c-0.1-0.1-0.2-0.1-0.3-0.2c-0.2-0.1-0.4-0.2-0.6-0.4c0,0,0,0,0,0c-0.1-0.1-0.3-0.1-0.4-0.2
			c-0.1-0.1-0.2-0.1-0.2-0.1c-0.1,0-0.1-0.1-0.2-0.1c0,0-0.1,0-0.1-0.1c-0.2-0.1-0.3-0.1-0.5-0.2c0,0,0,0-0.1,0s0,0-0.1,0
			c-0.1,0-0.2-0.1-0.3-0.1c-0.2-0.1-0.4-0.1-0.5-0.2c-0.2-0.1-0.4-0.2-0.7-0.2c-0.1,0-0.1,0-0.2,0c-0.1,0-0.2-0.1-0.3-0.1
			c-0.1,0-0.1,0-0.1,0c-0.2,0-0.3-0.1-0.4-0.1c0,0-0.1,0-0.1,0c0,0,0,0,0,0c0,0,0,0,0,0c-0.2-0.1-0.4-0.1-0.7-0.1c0,0-0.1,0-0.1,0
			c-0.1,0-0.1,0-0.2,0c0,0,0,0,0,0h0c-0.1,0-0.2,0-0.3,0c0,0,0,0,0,0c-0.1,0-0.1,0-0.2,0c-0.1,0-0.1,0-0.2,0h0c-0.1,0-0.2,0-0.4,0h0
			c-0.1,0-0.2,0-0.4,0c0.1,0,0.2,0,0.2,0c8.4-0.6,15-7.6,15-16.1c0-8.9-7.2-16.1-16.1-16.1c-4.1,0-7.8,1.5-10.7,4
			c0,0-0.1,0.1-0.1,0.1c2.6-2.9,4.2-6.7,4.2-10.9c0-8.9-7.2-16.1-16.1-16.1c-8.9,0-16.2,7.2-16.2,16.1c0-0.1,0-0.3,0-0.4
			c-0.2-8.7-7.4-15.7-16.1-15.7c-8.9,0-16.1,7.2-16.1,16.1c0,4.2,1.6,8,4.2,10.9c-0.1-0.1-0.1-0.1-0.2-0.1c-2.8-2.5-6.6-4-10.6-4
			c-8.9,0-16.1,7.2-16.1,16.1c0,0.4,0,0.7,0,1c0,0.1,0,0.1,0,0.2c0,0.2,0,0.5,0.1,0.7c0,0.5,0.1,1,0.2,1.5c0,0.2,0.1,0.5,0.2,0.8
			c0,0,0,0.1,0,0.1c0.1,0.2,0.1,0.5,0.2,0.7c0.2,0.8,0.5,1.5,0.9,2.2c0.1,0.2,0.2,0.4,0.3,0.6c0.2,0.3,0.3,0.6,0.5,0.9
			c0.1,0.2,0.3,0.4,0.4,0.6c0.1,0.2,0.3,0.4,0.4,0.6c0.2,0.3,0.5,0.6,0.8,0.9c0.2,0.3,0.5,0.6,0.8,0.8c0.1,0.1,0.2,0.2,0.4,0.3
			c0,0,0,0,0,0.1c0.2,0.2,0.4,0.3,0.6,0.5c0.3,0.2,0.5,0.4,0.8,0.6c0.3,0.2,0.6,0.4,0.8,0.6h0c0.2,0.1,0.5,0.3,0.7,0.4
			c0.9,0.5,1.8,0.9,2.8,1.2c0.3,0.1,0.5,0.2,0.8,0.2c0.3,0.1,0.5,0.1,0.8,0.2c0.2,0,0.3,0.1,0.4,0.1c0.2,0.1,0.5,0.1,0.7,0.1
			c0.3,0,0.6,0.1,0.9,0.1c0.1,0,0.2,0,0.3,0c-0.6,0-1.1,0.1-1.6,0.2"/>
		<path class="st12" d="M1945.4,1578.5c-0.9,0.9-1.4,2-1.4,3.4h-33.6c-0.2,0-0.3,0-0.5,0c-0.2,0-0.3,0-0.5,0h-0.7
			c-0.3,0-0.6-0.1-0.9-0.1c-0.2,0-0.5-0.1-0.7-0.1c-0.2,0-0.3,0-0.5-0.1c-0.3-0.1-0.5-0.1-0.8-0.2c-0.3-0.1-0.6-0.2-0.8-0.2
			c-1-0.3-1.9-0.7-2.8-1.2c-0.2-0.1-0.5-0.3-0.7-0.4h0c-0.3-0.2-0.6-0.4-0.8-0.6c-0.3-0.2-0.5-0.4-0.8-0.6c-0.2-0.2-0.4-0.3-0.6-0.5
			l0,0c-0.1-0.1-0.3-0.2-0.4-0.4c-0.3-0.3-0.6-0.5-0.8-0.8c-0.3-0.3-0.5-0.6-0.8-0.9c-0.1-0.2-0.3-0.4-0.4-0.6
			c-0.1-0.2-0.3-0.4-0.4-0.6c-0.2-0.3-0.4-0.6-0.5-0.9c-0.1-0.2-0.2-0.4-0.3-0.6c-0.3-0.7-0.6-1.4-0.9-2.2c-0.1-0.2-0.2-0.5-0.2-0.7
			c0,0,0-0.1,0-0.1c-0.1-0.2-0.1-0.5-0.2-0.8c-0.1-0.5-0.2-1-0.2-1.5c0-0.2-0.1-0.5-0.1-0.7c0-0.1,0-0.1,0-0.2c0-0.3,0-0.7,0-1
			c0-8.9,7.2-16.2,16.1-16.2c4.1,0,7.8,1.5,10.6,4l0.4,0.4c0.2,0.2,0.4,0.4,0.6,0.5l0.6,0.6L1945.4,1578.5z"/>
		<path class="st12" d="M2003.8,1565.8c0,8.5-6.6,15.5-15,16.1h-0.6c-0.2,0-0.3,0-0.5,0c-0.2,0-0.3,0-0.5,0h-33.7
			c0-1.3-0.5-2.5-1.4-3.4l23.4-23.4l0.4-0.4c0.3-0.2,0.5-0.5,0.8-0.8l0.3-0.3c2.8-2.5,6.6-4,10.7-4
			C1996.6,1549.7,2003.8,1556.9,2003.8,1565.8z"/>
	</g>
	<path class="st12" d="M1336.7,1481.8c0,0,0.1-0.1,0.1-0.1l-0.3,0.3c-0.2,0.3-0.5,0.5-0.8,0.8l-0.4,0.4c0-0.1,0.1-0.1,0.1-0.2
		C1335.9,1482.5,1336.3,1482.2,1336.7,1481.8C1336.7,1481.8,1336.7,1481.8,1336.7,1481.8z"/>
	<path class="st12" d="M1348.6,1509.9c-0.1,0-0.2,0-0.2,0h0c-0.3,0-0.6,0-0.9,0c-0.3,0-0.6,0-0.8,0h0c-0.1,0-0.2,0-0.3,0h0.8
		c0.1,0,0.3,0,0.5,0c0.2,0,0.3,0,0.5,0H1348.6z"/>
	<path class="st12" d="M1363.7,1525.3c0-0.1,0-0.2,0-0.3c0-0.1,0-0.1,0-0.2c0-0.1,0-0.1,0-0.2v0c0-0.1,0-0.2,0-0.4c0,0,0-0.1,0-0.1
		c0-0.2-0.1-0.5-0.1-0.7c0-0.1,0-0.2,0-0.2c0-0.1,0-0.2-0.1-0.3c-0.1-0.4-0.2-0.8-0.3-1.2c-0.1-0.4-0.2-0.7-0.4-1.1c0,0,0,0,0-0.1
		c-0.1-0.2-0.2-0.4-0.3-0.7c-0.1-0.2-0.1-0.3-0.2-0.5c-0.1-0.1-0.1-0.3-0.2-0.4c0-0.1-0.1-0.2-0.1-0.3c-0.1-0.1-0.1-0.2-0.2-0.3
		c0,0-0.1-0.1-0.1-0.1c0,0,0,0,0,0c0,0,0,0,0,0c-0.1-0.1-0.2-0.3-0.2-0.4c-0.1-0.2-0.2-0.3-0.3-0.5c-0.1-0.2-0.2-0.3-0.3-0.5v0
		c-0.1-0.2-0.2-0.3-0.4-0.5c-0.1-0.2-0.2-0.3-0.4-0.5c-0.1-0.1-0.2-0.3-0.4-0.4c0,0,0-0.1-0.1-0.1c-0.1-0.1-0.2-0.2-0.4-0.4l0,0
		c-0.1-0.1-0.3-0.3-0.4-0.4c-0.1-0.1-0.2-0.2-0.4-0.3c-0.2-0.2-0.3-0.3-0.5-0.5c-0.2-0.1-0.3-0.2-0.5-0.4c-0.2-0.1-0.4-0.3-0.6-0.4
		c-0.1-0.1-0.2-0.2-0.4-0.2c-0.1-0.1-0.2-0.2-0.3-0.2c-0.1-0.1-0.3-0.2-0.4-0.2c-0.2-0.1-0.4-0.2-0.7-0.4c-0.1-0.1-0.2-0.1-0.3-0.2
		c-0.1,0-0.2-0.1-0.2-0.1c-0.1,0-0.1-0.1-0.2-0.1c0,0,0,0,0,0c-0.2-0.1-0.4-0.2-0.6-0.2c0,0,0,0-0.1,0c-0.1,0-0.3-0.1-0.4-0.2
		c-0.1,0-0.3-0.1-0.4-0.1c0,0-0.1,0-0.1,0c-0.1,0-0.2-0.1-0.3-0.1c-0.1,0-0.2-0.1-0.3-0.1c-0.1,0-0.2,0-0.2-0.1
		c-0.1,0-0.2-0.1-0.3-0.1c-0.1,0-0.2,0-0.2-0.1c-0.1,0-0.2-0.1-0.4-0.1c0,0-0.1,0-0.1,0c0,0,0,0-0.1,0c-0.2-0.1-0.4-0.1-0.7-0.1
		c0,0-0.1,0-0.1,0c-0.1,0-0.1,0-0.2,0c0,0,0,0,0,0h0c-0.1,0-0.2,0-0.3,0c0,0,0,0,0,0c-0.1,0-0.1,0-0.2,0c-0.1,0-0.1,0-0.2,0h0
		c-0.1,0-0.1,0-0.2,0c-0.1,0-0.1,0-0.2,0h0c-0.1,0-0.2,0-0.4,0h0c-0.3,0-0.6,0-0.9,0c-0.3,0-0.6,0-0.8,0h0c0,0,0,0,0,0
		c-0.1,0-0.2,0-0.3,0h-33c0,1.3-0.5,2.5-1.4,3.4l23,23l0.6,0.6c0.1,0.1,0.2,0.2,0.4,0.3l0.4,0.4c0,0,0,0,0.1,0.1c0,0,0,0,0.1,0.1
		c0.2,0.2,0.3,0.3,0.5,0.4c0,0,0.1,0.1,0.1,0.1c0.1,0.1,0.3,0.2,0.4,0.3c0,0,0,0,0,0c0.2,0.1,0.3,0.3,0.5,0.4
		c0.2,0.1,0.4,0.3,0.5,0.4c0.1,0.1,0.2,0.1,0.3,0.2c0.1,0.1,0.2,0.1,0.3,0.2c0.1,0.1,0.2,0.1,0.3,0.2h0c0.1,0,0.1,0.1,0.2,0.1
		c0.1,0.1,0.2,0.1,0.3,0.2c0.3,0.2,0.6,0.3,0.9,0.4c0.1,0.1,0.2,0.1,0.3,0.2c0.1,0.1,0.2,0.1,0.3,0.2c0.4,0.2,0.9,0.3,1.3,0.5
		c0.1,0,0.2,0.1,0.4,0.1c0.2,0.1,0.5,0.1,0.8,0.2c0.1,0,0.3,0.1,0.4,0.1c0.1,0,0.2,0,0.3,0.1c0.1,0,0.2,0,0.3,0.1
		c0.2,0,0.4,0.1,0.6,0.1c0.1,0,0.2,0,0.3,0c0.1,0,0.2,0,0.2,0c0.1,0,0.2,0,0.3,0c0.2,0,0.5,0,0.7,0h0.9c0.3,0,0.5,0,0.8,0
		c0.1,0,0.1,0,0.2,0c0.2,0,0.4,0,0.6-0.1c0,0,0,0,0.1,0c0.1,0,0.2,0,0.4-0.1c0.3,0,0.5-0.1,0.8-0.1c0.1,0,0.3-0.1,0.4-0.1
		c0.2,0,0.3-0.1,0.5-0.1c0.1,0,0.1,0,0.2-0.1c0.2,0,0.3-0.1,0.5-0.1c0.1,0,0.3-0.1,0.4-0.1c0.1,0,0.1,0,0.2-0.1
		c0.2-0.1,0.3-0.1,0.5-0.2c0.1,0,0.2-0.1,0.4-0.2l0.4-0.1c0.1,0,0.2-0.1,0.3-0.1c0.1-0.1,0.3-0.1,0.4-0.2c0.1-0.1,0.2-0.1,0.3-0.2
		c0.1-0.1,0.2-0.1,0.3-0.2c0.1-0.1,0.2-0.1,0.4-0.2l0.3-0.2c0.1-0.1,0.2-0.1,0.3-0.2c0.1-0.1,0.2-0.1,0.3-0.2
		c0.2-0.1,0.4-0.3,0.6-0.5c0.1-0.1,0.2-0.2,0.3-0.2c0.1-0.1,0.2-0.2,0.3-0.2c0.1-0.1,0.2-0.2,0.3-0.2c0.1-0.1,0.2-0.2,0.3-0.3
		c0.1-0.1,0.2-0.2,0.3-0.3c0.4-0.4,0.7-0.7,1.1-1.1c0,0,0,0,0,0c0.1-0.1,0.2-0.2,0.2-0.3c0.1-0.2,0.2-0.3,0.4-0.5
		c0.1-0.2,0.2-0.3,0.3-0.5c0.1-0.2,0.3-0.4,0.4-0.6c0.1-0.1,0.1-0.2,0.2-0.3c0.1-0.1,0.1-0.2,0.2-0.3c0-0.1,0.1-0.2,0.2-0.3
		c0,0,0,0,0,0c0,0,0-0.1,0.1-0.1c0-0.1,0.1-0.1,0.1-0.2c0.1-0.2,0.1-0.3,0.2-0.4c0.1-0.1,0.1-0.2,0.2-0.3c0-0.1,0.1-0.2,0.1-0.3
		c0,0,0,0,0-0.1c0-0.1,0.1-0.2,0.1-0.3c0,0,0-0.1,0-0.1c0,0,0-0.1,0.1-0.2c0-0.1,0-0.1,0.1-0.2c0-0.1,0.1-0.2,0.1-0.3
		c0-0.1,0.1-0.2,0.1-0.3c0.1-0.1,0.1-0.3,0.1-0.4c0,0,0,0,0-0.1c0-0.1,0.1-0.3,0.1-0.4c0,0,0,0,0,0s0,0,0,0c0.1-0.2,0.1-0.4,0.2-0.7
		c0,0,0,0,0,0c0-0.1,0-0.1,0-0.2c0-0.1,0-0.2,0-0.2c0-0.1,0-0.2,0.1-0.4v0c0-0.1,0-0.2,0.1-0.4l0,0c0,0,0-0.1,0-0.1c0,0,0-0.1,0-0.1
		c0,0,0-0.1,0-0.1c0,0,0-0.1,0-0.1c0-0.1,0-0.2,0-0.4c0-0.1,0-0.2,0-0.3v-0.1c0-0.1,0-0.1,0-0.2c0-0.1,0-0.2,0-0.3
		c0-0.1,0-0.2,0-0.4C1363.7,1525.8,1363.7,1525.5,1363.7,1525.3z"/>
	<path class="st12" d="M1345.4,1510c-0.2,0-0.4,0.1-0.7,0.1c0.1,0,0.2,0,0.3-0.1C1345.2,1510.1,1345.3,1510.1,1345.4,1510z"/>
	<path class="st12" d="M1346.5,1509.9c-0.1,0-0.2,0-0.3,0C1346.3,1510,1346.3,1510,1346.5,1509.9
		C1346.4,1509.9,1346.4,1509.9,1346.5,1509.9z"/>
	<path class="st12" d="M1346.6,1509.9C1346.6,1509.9,1346.5,1509.9,1346.6,1509.9C1346.5,1509.9,1346.6,1509.9,1346.6,1509.9
		L1346.6,1509.9z"/>
	<path class="st12" d="M1348.4,1509.9c-0.3,0-0.6,0-0.9,0c-0.3,0-0.6,0-0.8,0c0.1,0,0.3,0,0.4,0h0c0.1,0,0.3,0,0.5,0
		c0.2,0,0.3,0,0.5,0h0C1348.2,1509.9,1348.3,1509.9,1348.4,1509.9z"/>
	<path class="st12" d="M1362.2,1532.9c0.1-0.1,0.1-0.2,0.1-0.3c-2.5,5.7-8.2,9.7-14.8,9.7c-3.9,0-7.4-1.4-10.2-3.6
		c-0.1-0.1-0.1-0.1-0.2-0.2c-0.7-0.6-1.3-1.2-1.9-1.9c-0.1-0.1-0.2-0.2-0.2-0.3l0.6,0.6c0.1,0.1,0.3,0.2,0.4,0.3l0.2,0.2
		c0,0,0.1,0.1,0.1,0.1c0,0,0,0,0.1,0.1c0,0,0,0,0.1,0.1c0.1,0.1,0.3,0.3,0.5,0.4c0,0,0.1,0.1,0.1,0.1c0.1,0.1,0.3,0.2,0.4,0.3
		c0,0,0,0,0,0c0.2,0.1,0.3,0.3,0.5,0.4c0.2,0.1,0.4,0.3,0.5,0.4c0.1,0.1,0.2,0.1,0.3,0.2c0.1,0.1,0.2,0.1,0.3,0.2
		c0.1,0.1,0.2,0.1,0.3,0.2c0,0,0,0,0,0c0.1,0,0.1,0.1,0.2,0.1c0.1,0.1,0.2,0.1,0.3,0.2c0.3,0.2,0.6,0.3,0.9,0.4
		c0.1,0.1,0.2,0.1,0.3,0.2c0.1,0.1,0.2,0.1,0.4,0.1c0.4,0.2,0.9,0.3,1.3,0.5c0.1,0,0.3,0.1,0.4,0.1c0.3,0.1,0.5,0.1,0.8,0.2
		c0.1,0,0.3,0.1,0.4,0.1c0.1,0,0.2,0,0.3,0.1c0.1,0,0.2,0,0.3,0.1c0.2,0,0.4,0.1,0.6,0.1c0.1,0,0.2,0,0.3,0c0.1,0,0.2,0,0.2,0
		c0.1,0,0.2,0,0.3,0c0.2,0,0.5,0,0.7,0c0.2,0,0.3,0,0.5,0c0.1,0,0.3,0,0.4,0c0.3,0,0.5,0,0.8,0c0.1,0,0.1,0,0.2,0
		c0.2,0,0.4,0,0.6-0.1c0,0,0.1,0,0.1,0c0.1,0,0.3,0,0.4-0.1c0.3,0,0.5-0.1,0.8-0.1c0.1,0,0.3-0.1,0.4-0.1c0.2,0,0.3-0.1,0.5-0.1
		c0.1,0,0.1,0,0.2,0c0.2,0,0.3-0.1,0.5-0.1c0.1,0,0.3-0.1,0.4-0.1c0.1,0,0.1,0,0.2-0.1c0.2-0.1,0.3-0.1,0.5-0.2
		c0.1,0,0.2-0.1,0.4-0.1c0.1-0.1,0.2-0.1,0.4-0.2c0.1,0,0.2-0.1,0.3-0.1c0.1-0.1,0.3-0.1,0.4-0.2c0.1-0.1,0.2-0.1,0.3-0.2
		c0.1-0.1,0.2-0.1,0.3-0.2c0.1-0.1,0.3-0.1,0.4-0.2c0.1-0.1,0.2-0.1,0.3-0.2s0.2-0.1,0.3-0.2c0.1-0.1,0.2-0.1,0.3-0.2
		c0.2-0.1,0.4-0.3,0.6-0.5c0.1-0.1,0.2-0.2,0.3-0.2c0.1-0.1,0.2-0.2,0.3-0.2c0.1-0.1,0.2-0.2,0.3-0.3c0.1-0.1,0.2-0.2,0.3-0.3
		c0.1-0.1,0.2-0.2,0.3-0.3c0.4-0.4,0.7-0.7,1.1-1.1c0,0,0,0,0,0c0.1-0.1,0.1-0.2,0.2-0.3c0.1-0.2,0.3-0.3,0.4-0.5
		c0.1-0.2,0.2-0.3,0.4-0.5c0.1-0.2,0.3-0.4,0.4-0.6c0.1-0.2,0.3-0.4,0.4-0.6c0.1-0.1,0.1-0.2,0.1-0.3c0.1-0.1,0.1-0.3,0.2-0.4
		C1362,1533.2,1362.1,1533.1,1362.2,1532.9z"/>
	<g>
		<path class="st9" d="M1315.6-769.7c-2.8-0.2-5.7-0.4-8.6-0.5"/>
		<path class="st9" d="M1281.2-770.9c-0.2,0-0.5,0-0.7,0c-13.2,0-25.8,0.5-37.5,1.4c-43.1,3.3-73.9,12-73.9,22.2
			c0,0.9,0.2,1.7,0.7,2.6c0.1,0.2,0.2,0.4,0.3,0.6c0,0,0,0,0,0c0.1,0.2,0.2,0.3,0.3,0.5c0.1,0.1,0.2,0.3,0.3,0.4c0,0,0,0,0,0
			c0.1,0.1,0.2,0.2,0.3,0.3c0.1,0.1,0.2,0.2,0.3,0.3c0.2,0.2,0.4,0.4,0.6,0.5c0.1,0.1,0.3,0.2,0.4,0.4c0.1,0.1,0.3,0.2,0.4,0.4
			c0.1,0.1,0.3,0.2,0.5,0.4c0.8,0.6,1.7,1.2,2.7,1.8c0.2,0.1,0.4,0.2,0.6,0.3c1,0.5,2,1.1,3.1,1.6c0.3,0.1,0.6,0.3,0.9,0.4
			c0.3,0.1,0.6,0.3,1,0.4c0.4,0.2,0.8,0.3,1.2,0.5c1.1,0.4,2.3,0.8,3.5,1.3c0.4,0.1,0.8,0.3,1.2,0.4c0.5,0.2,1,0.3,1.5,0.5
			c0.5,0.2,1,0.3,1.6,0.5c0.2,0.1,0.4,0.1,0.6,0.2c0.4,0.1,0.8,0.2,1.3,0.4c0.4,0.1,0.9,0.2,1.3,0.4c0.4,0.1,0.8,0.2,1.2,0.3
			c0.8,0.2,1.7,0.4,2.6,0.6c0.8,0.2,1.7,0.4,2.6,0.6c0,0,0.1,0,0.1,0c0.1,0,0.2,0,0.4,0.1c0.6,0.1,1.2,0.2,1.8,0.4c0,0,0,0,0,0
			c0.6,0.1,1.2,0.2,1.8,0.4c0.5,0.1,1,0.2,1.5,0.3c0.5,0.1,1,0.2,1.5,0.3c0.5,0.1,1.1,0.2,1.6,0.3c0.4,0.1,0.7,0.1,1.1,0.2
			c0.6,0.1,1.3,0.2,1.9,0.3c3.9,0.7,8.1,1.3,12.4,1.8c0.7,0.1,1.4,0.2,2.2,0.3c0.7,0.1,1.5,0.2,2.2,0.3c0.7,0.1,1.5,0.2,2.2,0.2
			c0.7,0.1,1.5,0.2,2.3,0.2c0.8,0.1,1.5,0.2,2.3,0.2c0.8,0.1,1.5,0.1,2.3,0.2c1.5,0.1,2.9,0.3,4.4,0.4c2.5,0.2,5.1,0.4,7.6,0.5
			c0.2,0,0.5,0,0.7,0c1.1,0.1,2.3,0.1,3.4,0.2c1,0,2,0.1,3,0.1c0.1,0,0.2,0,0.3,0c1.7,0.1,3.4,0.1,5.1,0.2c0.5,0,1.1,0,1.6,0.1
			c2.6,0.1,5.2,0.1,7.9,0.2c0.9,0,1.9,0,2.9,0c2,0,4,0,6.1,0c57.1,0,104.3-9.1,110.7-20.9c0.5-0.9,0.7-1.8,0.7-2.7
			c0-8.6-21.5-16.1-53.8-20.2h0"/>
		<path class="st9" d="M1358.7-207.6c-2.6,1.6-5.3,3.1-8,4.5"/>
		<path class="st9" d="M1173.6-524.2c-5.3,35.6-15,77.7-32.3,126.2c-8,18.5-12.5,38.9-12.5,60.4c0,79.1,60.6,144.1,137.9,151.1"/>
		<path class="st9" d="M1178.2-566.1c3.4-49.1-1.4-80.5-0.3-93.1c1.8-21-6.2-73.2-8.1-85.4c0.1,0.2,0.2,0.4,0.3,0.6c0,0,0,0,0,0
			c0.1,0.2,0.2,0.3,0.3,0.5c0.1,0.1,0.2,0.3,0.3,0.4c0,0,0,0,0,0c0.1,0.1,0.2,0.2,0.3,0.3c0.1,0.1,0.2,0.2,0.3,0.3
			c0.2,0.2,0.4,0.4,0.6,0.5c0.1,0.1,0.3,0.2,0.4,0.4c0.1,0.1,0.3,0.2,0.4,0.4c0.1,0.1,0.3,0.2,0.5,0.4c0.8,0.6,1.7,1.2,2.7,1.8
			c0.2,0.1,0.4,0.2,0.6,0.3c1,0.5,2,1.1,3.1,1.6c0.6,0.3,1.2,0.5,1.9,0.8c0.4,0.2,0.8,0.3,1.2,0.5c1.1,0.4,2.3,0.8,3.5,1.3
			c0.4,0.1,0.8,0.3,1.2,0.4c0.5,0.2,1,0.3,1.5,0.5c0.5,0.2,1,0.3,1.6,0.5c0.2,0.1,0.4,0.1,0.6,0.2c0.4,0.1,0.8,0.2,1.3,0.4
			c0.4,0.1,0.9,0.2,1.3,0.4c0.4,0.1,0.8,0.2,1.2,0.3c1.7,0.4,3.4,0.8,5.3,1.3c0.7,0.2,1.4,0.3,2.1,0.5c0.6,0.1,1.2,0.2,1.8,0.4
			c0.5,0.1,1,0.2,1.5,0.3c0.5,0.1,1,0.2,1.5,0.3c0.5,0.1,1.1,0.2,1.6,0.3c0.4,0.1,0.7,0.1,1.1,0.2c0.6,0.1,1.3,0.2,1.9,0.3
			c3.9,0.7,8.1,1.3,12.4,1.8c0.7,0.1,1.4,0.2,2.2,0.3c0.7,0.1,1.5,0.2,2.2,0.3c0.7,0.1,1.5,0.2,2.2,0.2c0.7,0.1,1.5,0.2,2.3,0.2
			c0.8,0.1,1.5,0.2,2.3,0.2c0.8,0.1,1.5,0.1,2.3,0.2c1.5,0.1,2.9,0.3,4.4,0.4c2.5,0.2,5.1,0.4,7.6,0.5c0.2,0,0.5,0,0.7,0
			c1.1,0.1,2.3,0.1,3.4,0.2c1,0,2,0.1,3,0.1c0.1,0,0.2,0,0.3,0c1.7,0.1,3.4,0.1,5.1,0.2c0.5,0,1.1,0,1.6,0.1
			c2.6,0.1,5.2,0.1,7.9,0.2c0.9,0,1.9,0,2.9,0c2,0,4,0,6.1,0c57.1,0,104.3-9.1,110.7-20.9c-2,12.5-9.9,64.3-8.1,85.2
			c2,23.6-16.5,112.5,36.3,260.4c8.3,18.7,12.8,39.4,12.8,61.2c0,42.9-17.8,81.6-46.4,109.2"/>
		<path class="st9" d="M1326.9-193.2c-10.4,3.3-21.3,5.6-32.5,6.6"/>
		<path class="st9" d="M1169.8-744.7c-0.3-1.7-0.4-2.6-0.4-2.6"/>
		<path class="st11" d="M1421.3-393.6c-0.6-1.7-1.3-3.5-1.9-5.2"/>
		<path class="st9" d="M1391.6-747.2c0,0-0.2,1-0.4,2.7"/>
		<line class="st9" x1="1378" y1="-87" x2="1378" y2="-87"/>
		<line class="st9" x1="1183.1" y1="-87" x2="1183" y2="-87"/>
		<path class="st9" d="M1312-107.1c37.7,2.9,65,10.8,66,20.1h-194.9c1-9.3,28.2-17.2,65.8-20.1"/>
		<g>
			<path class="st11" d="M1266.7-186.6c2.8,26.7,2.9,69.7-18.5,79.8"/>
			<path class="st11" d="M1312.5-106.8c-21.4-10.1-20.9-53.1-18.2-79.7"/>
		</g>
		<g>
			<g>
				<path class="st7" d="M1187.9-677.5L1187.9-677.5c-0.1-0.5-0.2-1-0.3-1.4L1187.9-677.5z"/>
				<path class="st7" d="M1414.3-360.2c0,66.7-50.3,129.5-115.1,136.9c-4.1,1.5-9.8,2.1-16.1,1.8c-0.8,0-1.6,0.1-2.4,0.1
					c-5.6,0-11-0.8-15.7-2.2c-63.3-8.4-110.6-52.8-110.6-118.6c0-18.4,3.8-53.8,10.7-69.7c45.5-127.1,28.6-194,28.1-214.3
					c-0.1-7.4-0.8-15.5-1.6-23.2c-1.2-11.1-2.8-21.5-3.8-28.1l0,0l4.2-1.9l182.9,0c-0.1,0.6-0.2,1.3-0.3,2.1v0
					c-2.1,11.8-7.7,36.5-6.2,53.4c1.8,20.2-10.3,84.7,34.9,211.3C1410.4-396.6,1414.3-378.9,1414.3-360.2z"/>
				<path class="st7" d="M1191.7-649.4l-3.8-28.1C1188.9-670.9,1190.5-660.5,1191.7-649.4z"/>
			</g>
		</g>
		<path class="st4" d="M1375-679.4c0,0.9-0.2,1.8-0.6,2.7c-5.4,11.8-45,20.9-93.1,20.9c-48.3,0-88.1-9.2-93.1-21.1
			c-0.4-0.8-0.6-1.7-0.6-2.6c0-13.1,41.9-23.6,93.7-23.6C1333-703.1,1375-692.5,1375-679.4z"/>
		<path class="st11" d="M1262.6-357.2l-44.2,11c-9.6,2.4-19.4-3.5-21.8-13.1l-10.5-42.2c-2.4-9.6,3.5-19.4,13.1-21.8l44.2-11
			c9.6-2.4,19.4,3.5,21.8,13.1l10.5,42.2C1278.1-369.4,1272.2-359.6,1262.6-357.2z"/>
		<path class="st11" d="M1284.7-266.6l-43.9-12.1c-9.5-2.6-15.2-12.6-12.6-22.1l11.5-41.9c2.6-9.5,12.6-15.2,22.1-12.6l43.9,12.1
			c9.5,2.6,15.2,12.6,12.6,22.1l-11.5,41.9C1304.2-269.7,1294.3-264,1284.7-266.6z"/>
		<path class="st11" d="M1376-315.1h-45.5c-9.9,0-18-8.1-18-18v-43.5c0-9.9,8.1-18,18-18h45.5c9.9,0,18,8.1,18,18v43.5
			C1394-323.2,1385.9-315.1,1376-315.1z"/>
		
			<ellipse transform="matrix(2.499669e-02 -0.9997 0.9997 2.499669e-02 1738.2164 810.8356)" class="st4" cx="1284.8" cy="-485.7" rx="63" ry="61.3"/>
		<g>
			<path class="st12" d="M1266-456.7c-0.1,0.1-0.2,0.3-0.3,0.4c-0.2,0.2-0.4,0.4-0.6,0.6c0,0-0.1,0.1-0.1,0.1
				c-0.2,0.2-0.4,0.4-0.6,0.6c-0.1,0.1-0.2,0.2-0.3,0.2l0.9-0.9L1266-456.7z"/>
			<path class="st12" d="M1254.3-482.8h0.7c-0.1,0-0.2,0-0.3,0c-0.3,0-0.6,0-0.9,0s-0.6,0-0.9,0c-0.1,0-0.2,0-0.3,0h0.7
				c0.2,0,0.3,0,0.5,0S1254.2-482.9,1254.3-482.8z"/>
			<path class="st12" d="M1265.6-509.4c0.1,0.1,0.1,0.1,0.2,0.2l-0.5-0.5l-0.5-0.5l-0.4-0.4c0.1,0,0.1,0.1,0.2,0.1
				C1264.9-510.2,1265.3-509.8,1265.6-509.4L1265.6-509.4z"/>
			<path class="st12" d="M1292.1-521.2c0,0.1,0,0.3,0,0.4v-0.8C1292.1-521.5,1292.1-521.3,1292.1-521.2z"/>
			<path class="st12" d="M1296.8-482.8c0,1.3-0.5,2.5-1.4,3.3c-0.8,0.8-2,1.4-3.3,1.4c-1.3,0-2.5-0.5-3.3-1.4
				c-0.8-0.8-1.4-2-1.4-3.3c0-1.3,0.5-2.5,1.4-3.3c0.8-0.8,2-1.4,3.3-1.4c1.3,0,2.5,0.5,3.3,1.4
				C1296.3-485.3,1296.8-484.1,1296.8-482.8z"/>
			<path class="st12" d="M1292.1-443.9v-1c0,0.1,0,0.2,0,0.2v0.1v0.2c0,0,0,0.1,0,0.1c0,0,0,0,0,0.1c0.1,8.7,7.2,15.7,15.9,15.7
				c8.8,0,15.9-7.1,15.9-15.9c0-3.9-1.4-7.6-3.8-10.3c-0.7-0.6-1.3-1.2-1.9-1.8c-0.1-0.1-0.2-0.2-0.2-0.3l0.6,0.6l1.3,1.3l0.5,0.5"
				/>
			<path class="st12" d="M1292.1-422.3c16.7,0,31.8-6.8,42.8-17.7"/>
			<path class="st12" d="M1318.9-509.6l-0.4,0.4c0-0.1,0.1-0.1,0.1-0.2c0.4-0.4,0.7-0.8,1.1-1.1c0,0,0,0,0,0c0,0,0.1-0.1,0.1-0.1
				l-0.3,0.3C1319.4-510.1,1319.1-509.8,1318.9-509.6z"/>
			<path class="st12" d="M1328.9-482.8c0,0-0.1,0-0.1,0c0,0,0,0,0,0C1328.9-482.8,1328.9-482.8,1328.9-482.8z"/>
			<path class="st12" d="M1329.5-482.8c-0.1,0-0.2,0-0.3,0C1329.3-482.8,1329.3-482.8,1329.5-482.8
				C1329.4-482.8,1329.4-482.8,1329.5-482.8z"/>
			<path class="st12" d="M1331.6-482.8c-0.1,0-0.2,0-0.2,0h0c-0.3,0-0.6,0-0.9,0c-0.3,0-0.5,0-0.8,0h0c-0.1,0-0.2,0-0.3,0h0.8
				c0.1,0,0.3,0,0.4,0c0.2,0,0.3,0,0.5,0H1331.6z"/>
			<path class="st12" d="M1331.7-482.8L1331.7-482.8c-0.1,0-0.3,0-0.4,0C1331.5-482.8,1331.6-482.8,1331.7-482.8
				C1331.7-482.8,1331.7-482.8,1331.7-482.8z"/>
			<path class="st12" d="M1332.3-482.8c-0.1,0-0.1,0-0.2,0h0c-0.1,0-0.1,0-0.2,0c0.1,0,0.1,0,0.2,0
				C1332.2-482.8,1332.2-482.8,1332.3-482.8z"/>
			<path class="st12" d="M1345.5-472.4c0,0,0-0.1-0.1-0.1c-0.1-0.2-0.1-0.4-0.2-0.6c-0.1-0.2-0.1-0.3-0.2-0.4
				c-0.1-0.1-0.1-0.3-0.2-0.4c0-0.1-0.1-0.2-0.1-0.3c0-0.1-0.1-0.2-0.2-0.3c0,0,0-0.1-0.1-0.1c-0.1-0.2-0.2-0.3-0.3-0.5
				c-0.1-0.2-0.2-0.3-0.3-0.5c-0.1-0.2-0.2-0.3-0.3-0.5v0c-0.1-0.2-0.2-0.3-0.3-0.5c-0.1-0.2-0.2-0.3-0.4-0.5
				c-0.1-0.1-0.2-0.3-0.4-0.4c0,0,0-0.1-0.1-0.1c-0.1-0.1-0.2-0.3-0.3-0.4c0,0,0,0,0,0c-0.1-0.1-0.3-0.3-0.4-0.4
				c-0.1-0.1-0.2-0.2-0.4-0.3c-0.2-0.2-0.3-0.3-0.5-0.4c-0.2-0.1-0.3-0.2-0.5-0.4c-0.2-0.1-0.4-0.3-0.6-0.4
				c-0.1-0.1-0.2-0.2-0.4-0.2c-0.1-0.1-0.2-0.1-0.3-0.2c-0.1-0.1-0.3-0.2-0.4-0.2c-0.2-0.1-0.4-0.3-0.7-0.4
				c-0.1-0.1-0.2-0.1-0.3-0.1c-0.2-0.1-0.3-0.2-0.5-0.2c-0.2-0.1-0.4-0.2-0.5-0.2c-0.1-0.1-0.3-0.1-0.4-0.2
				c-0.1-0.1-0.3-0.1-0.4-0.1c0,0-0.1,0-0.1-0.1c-0.1,0-0.2-0.1-0.3-0.1c-0.1,0-0.2-0.1-0.3-0.1c-0.1,0-0.2-0.1-0.3-0.1
				c-0.1,0-0.2-0.1-0.3-0.1c-0.1,0-0.1,0-0.2-0.1c-0.1,0-0.2-0.1-0.4-0.1c-0.3-0.1-0.5-0.1-0.8-0.2c-0.1,0-0.2,0-0.3,0
				c0.1,0,0.1,0,0.2,0h0c0.2,0,0.4,0.1,0.5,0.1c0.1,0,0.1,0,0.2,0c0,0,0,0,0,0c0,0,0,0,0,0c0.2,0,0.3,0.1,0.5,0.1c0.1,0,0.1,0,0.1,0
				c0.2,0,0.3,0.1,0.5,0.1c0.2,0.1,0.4,0.1,0.7,0.2c0.2,0.1,0.4,0.1,0.5,0.2c0.1,0,0.2,0.1,0.3,0.1c0.2,0.1,0.4,0.2,0.6,0.3
				c0.1,0,0.2,0.1,0.3,0.1c0.2,0.1,0.4,0.2,0.6,0.3c0,0,0,0,0,0c0.2,0.1,0.4,0.2,0.6,0.4c0.1,0.1,0.2,0.1,0.3,0.2
				c0.1,0.1,0.2,0.2,0.4,0.2c0.1,0.1,0.2,0.2,0.4,0.2c0.2,0.2,0.5,0.3,0.7,0.5c0.1,0.1,0.2,0.1,0.2,0.2c0,0,0,0,0,0
				c0.1,0.1,0.3,0.2,0.4,0.4c0.1,0.1,0.3,0.3,0.4,0.4c0,0,0,0,0,0c0.1,0.1,0.2,0.2,0.3,0.3c0.1,0.1,0.2,0.2,0.3,0.3
				c0.1,0.1,0.2,0.3,0.4,0.4c0.1,0.1,0.2,0.3,0.3,0.4c0.1,0.1,0.2,0.2,0.2,0.3c0,0,0,0,0,0c0.1,0.2,0.2,0.3,0.4,0.5
				c0.1,0.1,0.2,0.2,0.3,0.4c0.1,0.2,0.2,0.3,0.3,0.4c0.1,0.2,0.2,0.3,0.3,0.5c0.1,0.1,0.1,0.2,0.2,0.3c0.1,0.2,0.2,0.4,0.3,0.6
				c0.1,0.2,0.2,0.4,0.3,0.7c0.1,0.1,0.1,0.2,0.1,0.3c0.1,0.3,0.3,0.7,0.4,1c0,0.1,0.1,0.2,0.1,0.3c0,0.1,0.1,0.2,0.1,0.4
				c0.1,0.2,0.1,0.4,0.1,0.5c0,0,0,0,0,0c0,0.2,0.1,0.3,0.1,0.5c0,0.1,0,0.1,0,0.2c-0.1-0.4-0.2-0.8-0.3-1.2
				C1345.7-471.7,1345.6-472.1,1345.5-472.4z"/>
			<path class="st12" d="M1296.8-482.8c0,1.3-0.5,2.5-1.4,3.3c-0.8,0.8-2,1.4-3.3,1.4c-1.3,0-2.5-0.5-3.3-1.4
				c-0.8-0.8-1.4-2-1.4-3.3c0-1.3,0.5-2.5,1.4-3.3c0.8-0.8,2-1.4,3.3-1.4c1.3,0,2.5,0.5,3.3,1.4
				C1296.3-485.3,1296.8-484.1,1296.8-482.8z"/>
			<line class="st12" x1="1331" y1="-482.8" x2="1330" y2="-482.8"/>
			<line class="st12" x1="1254.3" y1="-482.8" x2="1253.4" y2="-482.8"/>
			<line class="st12" x1="1265.3" y1="-509.7" x2="1264.7" y2="-510.2"/>
			<line class="st12" x1="1319.6" y1="-510.3" x2="1318.9" y2="-509.6"/>
			<path class="st12" d="M1292.1-521.6v34.1c-1.3,0-2.5,0.5-3.3,1.4l-23-23c-0.1-0.1-0.1-0.1-0.2-0.2l0,0c-0.4-0.4-0.7-0.8-1.1-1.1
				c-2.6-2.8-4.1-6.6-4.1-10.7c0-8.8,7.1-15.9,15.9-15.9C1284.9-537.1,1291.9-530.2,1292.1-521.6z"/>
			<path class="st12" d="M1265.6-509.4c-0.1-0.1-0.2-0.2-0.3-0.3l-0.5-0.5c-0.1-0.1-0.2-0.2-0.3-0.3
				C1264.9-510.2,1265.3-509.8,1265.6-509.4z"/>
			<path class="st12" d="M1292.1-521.2c0,0.1,0,0.3,0,0.4v-0.8C1292.1-521.5,1292.1-521.3,1292.1-521.2z"/>
			<path class="st12" d="M1323.9-521.2c0,4.1-1.6,7.9-4.1,10.7c0,0,0,0,0,0c-0.4,0.4-0.8,0.7-1.1,1.1c0,0.1-0.1,0.1-0.1,0.2
				l-23.1,23.1c-0.8-0.9-2-1.4-3.3-1.4v-33.3c0-0.1,0-0.3,0-0.4c0-8.8,7.1-15.9,15.9-15.9C1316.8-537.1,1323.9-530,1323.9-521.2z"/>
			<path class="st12" d="M1319.8-510.5c-0.1,0.1-0.1,0.1-0.2,0.2c-0.2,0.3-0.5,0.5-0.8,0.8c-0.1,0.1-0.2,0.1-0.2,0.2
				C1319-509.8,1319.4-510.2,1319.8-510.5z"/>
			<path class="st12" d="M1324-444.4c0,8.8-7.1,15.9-15.9,15.9c-8.7,0-15.8-7-15.9-15.7c0,0,0,0,0-0.1c0,0,0-0.1,0-0.1v-0.3
				c0-0.1,0-0.2,0-0.2v-33.3c1.3,0,2.5-0.5,3.3-1.4l22.7,22.7c0.1,0.1,0.2,0.2,0.2,0.3c0.6,0.7,1.2,1.3,1.9,1.8
				C1322.6-452,1324-448.3,1324-444.4z"/>
			<path class="st12" d="M1292.1-444.4c0-0.1,0-0.1,0-0.2L1292.1-444.4c0,0,0,0.1,0,0.1V-444.4z"/>
			<path class="st12" d="M1320.2-454.7c-0.7-0.6-1.3-1.2-1.9-1.8c0.1,0.1,0.2,0.2,0.3,0.3c0.1,0.1,0.3,0.2,0.4,0.3l0.2,0.2
				c0,0,0.1,0.1,0.1,0.1c0,0,0,0,0.1,0.1c0,0,0,0,0.1,0.1c0.1,0.1,0.3,0.3,0.4,0.4C1320-454.9,1320.1-454.8,1320.2-454.7z"/>
			<path class="st12" d="M1292.1-444.7v0.3c0,0,0,0.1,0,0.1c0,0,0,0,0,0.1c0,0.1,0,0.2,0,0.3v-1
				C1292.1-444.8,1292.1-444.7,1292.1-444.7z"/>
			<path class="st12" d="M1292.1-478.2v34.3c-0.3,8.5-7.3,15.4-15.9,15.4c-8.8,0-15.9-7.1-15.9-15.9c0-4.4,1.8-8.3,4.6-11.2
				c0,0,0.1-0.1,0.1-0.1c0.2-0.2,0.4-0.4,0.6-0.6c0.1-0.1,0.2-0.2,0.3-0.4l22.8-22.8C1289.7-478.7,1290.8-478.2,1292.1-478.2z"/>
			<path class="st12" d="M1329.5-482.8c-0.1,0-0.2,0-0.3,0C1329.3-482.8,1329.3-482.8,1329.5-482.8
				C1329.4-482.8,1329.4-482.8,1329.5-482.8z"/>
			<path class="st12" d="M1292.1-422.3c-33.4,0-60.5-27.1-60.5-60.5s27.1-60.5,60.5-60.5c33.4,0,60.5,27.1,60.5,60.5
				c0,16.7-6.8,31.8-17.7,42.8"/>
			<path class="st12" d="M1320.4-454.6l-0.5-0.5l-1.3-1.3c0.1,0.1,0.3,0.2,0.4,0.3l0.2,0.2c0,0,0.1,0.1,0.1,0.1c0,0,0,0,0.1,0.1
				c0,0,0,0,0.1,0.1c0.1,0.1,0.3,0.3,0.5,0.4c0,0,0.1,0.1,0.1,0.1C1320.3-454.8,1320.4-454.7,1320.4-454.6c0.1,0,0.1,0,0.1,0
				c0.2,0.1,0.3,0.3,0.5,0.4c0.2,0.1,0.3,0.3,0.5,0.4c0.1,0.1,0.2,0.1,0.3,0.2c0.1,0.1,0.2,0.1,0.3,0.2c0.1,0.1,0.2,0.1,0.3,0.2
				c0,0,0,0,0,0c0.1,0,0.1,0.1,0.2,0.1c0.1,0.1,0.2,0.1,0.3,0.2c0.3,0.2,0.6,0.3,0.9,0.4c0.1,0.1,0.2,0.1,0.3,0.2
				c0.1,0.1,0.2,0.1,0.3,0.1c0.4,0.2,0.8,0.3,1.3,0.5c0.1,0,0.2,0.1,0.4,0.1c0.3,0.1,0.5,0.1,0.8,0.2c0.1,0,0.3,0.1,0.4,0.1
				c0.1,0,0.2,0,0.3,0.1c0.1,0,0.2,0,0.3,0.1c0.2,0,0.4,0.1,0.5,0.1c0.1,0,0.2,0,0.3,0c0.1,0,0.2,0,0.2,0c0.1,0,0.2,0,0.3,0
				c0.2,0,0.5,0,0.7,0c0.2,0,0.3,0,0.5,0c0.1,0,0.3,0,0.4,0c0.3,0,0.5,0,0.8,0c0.1,0,0.1,0,0.2,0c0.2,0,0.4,0,0.6-0.1
				c0,0,0.1,0,0.1,0c0.1,0,0.2,0,0.4-0.1c0.3,0,0.5-0.1,0.8-0.1c0.1,0,0.3-0.1,0.4-0.1c0.2,0,0.3-0.1,0.5-0.1c0.1,0,0.1,0,0.2,0
				c0.2,0,0.3-0.1,0.5-0.1c0.1,0,0.3-0.1,0.4-0.1c0.1,0,0.1,0,0.2-0.1c0.2-0.1,0.3-0.1,0.5-0.2c0.1,0,0.2-0.1,0.4-0.1
				c0.1-0.1,0.2-0.1,0.3-0.2c0.1,0,0.2-0.1,0.3-0.1c0.1-0.1,0.3-0.1,0.4-0.2c0.1-0.1,0.2-0.1,0.3-0.2c0.1-0.1,0.2-0.1,0.3-0.2
				c0.1-0.1,0.3-0.1,0.4-0.2c0.1-0.1,0.2-0.1,0.3-0.2c0.1-0.1,0.2-0.1,0.3-0.2c0.1-0.1,0.2-0.1,0.3-0.2c0.2-0.1,0.4-0.3,0.6-0.4
				c0.1-0.1,0.2-0.2,0.3-0.2c0.1-0.1,0.2-0.2,0.3-0.2s0.2-0.2,0.3-0.2c0.1-0.1,0.2-0.2,0.3-0.3c0.1-0.1,0.2-0.2,0.3-0.3
				c0.4-0.4,0.7-0.7,1-1.1c0,0,0,0,0,0c0.1-0.1,0.1-0.2,0.2-0.3c0.1-0.2,0.2-0.3,0.4-0.5c0.1-0.2,0.2-0.3,0.3-0.5
				c0.1-0.2,0.3-0.4,0.4-0.6c0.1-0.2,0.3-0.4,0.4-0.6c0.1-0.1,0.1-0.2,0.1-0.3c0.1-0.1,0.1-0.3,0.2-0.4c0.1-0.1,0.1-0.3,0.2-0.4
				c0.1-0.1,0.1-0.2,0.1-0.3c0-0.1,0.1-0.2,0.1-0.3c0,0,0-0.1,0-0.1c0-0.1,0.1-0.2,0.1-0.3v0c0,0,0-0.1,0-0.1c0-0.1,0-0.1,0.1-0.2
				c0-0.1,0-0.1,0.1-0.2c0-0.1,0.1-0.2,0.1-0.3c0-0.1,0.1-0.2,0.1-0.3c0-0.1,0.1-0.3,0.1-0.4c0,0,0,0,0-0.1c0-0.1,0.1-0.3,0.1-0.4
				c0,0,0,0,0-0.1c0,0,0,0,0,0c0.1-0.2,0.1-0.4,0.2-0.7c0,0,0,0,0,0c0-0.1,0-0.1,0-0.2c0-0.1,0-0.2,0-0.2c0,0,0-0.1,0-0.1
				c0-0.1,0-0.2,0-0.3c0,0,0,0,0,0c0-0.1,0-0.3,0.1-0.4c0,0,0,0,0,0c0,0,0-0.1,0-0.1c0,0,0-0.1,0-0.1c0,0,0-0.1,0-0.1
				c0,0,0-0.1,0-0.1c0-0.1,0-0.2,0-0.2c0,0,0-0.1,0-0.1c0-0.1,0-0.2,0-0.3c0-0.1,0-0.1,0-0.2c0-0.1,0-0.2,0-0.3c0-0.1,0-0.2,0-0.4
				c0-0.3,0-0.5,0-0.8c0-0.1,0-0.2,0-0.2c0,0,0-0.1,0-0.1c0-0.1,0-0.3,0-0.4c0,0,0,0,0,0c0-0.1,0-0.1,0-0.2c0-0.1,0-0.1,0-0.2
				c0,0,0,0,0-0.1c0-0.2-0.1-0.4-0.1-0.7c0-0.1,0-0.2,0-0.2c0,0,0-0.1,0-0.1c0-0.1,0-0.1,0-0.2c0-0.1,0-0.1,0-0.2
				c0-0.2-0.1-0.3-0.1-0.5c0,0,0,0,0,0c0-0.2-0.1-0.4-0.1-0.5c0-0.1-0.1-0.2-0.1-0.4c0-0.1-0.1-0.2-0.1-0.3c-0.1-0.3-0.3-0.7-0.4-1
				c0-0.1-0.1-0.2-0.1-0.3c-0.1-0.2-0.2-0.4-0.3-0.7c-0.1-0.2-0.2-0.4-0.3-0.6c-0.1-0.1-0.1-0.2-0.2-0.3c-0.1-0.2-0.2-0.3-0.3-0.5
				c-0.1-0.2-0.2-0.3-0.3-0.4c-0.1-0.1-0.2-0.2-0.3-0.4c-0.1-0.2-0.2-0.3-0.4-0.5c0,0,0,0,0,0c-0.1-0.1-0.2-0.2-0.2-0.3
				c-0.1-0.1-0.2-0.3-0.3-0.4c-0.1-0.1-0.2-0.3-0.4-0.4c-0.1-0.1-0.2-0.2-0.3-0.3c-0.1-0.1-0.2-0.2-0.3-0.3c0,0,0,0,0,0
				c-0.1-0.1-0.3-0.3-0.4-0.4c-0.1-0.1-0.3-0.2-0.4-0.4c0,0,0,0,0,0c-0.1-0.1-0.2-0.1-0.2-0.2c-0.2-0.2-0.5-0.3-0.7-0.5
				c-0.1-0.1-0.2-0.2-0.4-0.2c-0.1-0.1-0.2-0.2-0.4-0.2c-0.1-0.1-0.2-0.1-0.3-0.2c-0.2-0.1-0.4-0.2-0.6-0.4c0,0,0,0,0,0
				c-0.2-0.1-0.4-0.2-0.6-0.3c-0.1-0.1-0.2-0.1-0.3-0.1c-0.2-0.1-0.4-0.2-0.6-0.3c-0.1,0-0.2-0.1-0.3-0.1c-0.2-0.1-0.4-0.1-0.5-0.2
				c-0.2-0.1-0.4-0.1-0.7-0.2c-0.2-0.1-0.3-0.1-0.5-0.1c0,0-0.1,0-0.1,0c-0.2,0-0.3-0.1-0.5-0.1c0,0,0,0,0,0c0,0,0,0,0,0
				c-0.1,0-0.1,0-0.2,0c0,0,0,0,0,0c-0.1,0-0.3,0-0.4-0.1c0,0-0.1,0-0.1,0h0c-0.1,0-0.1,0-0.2,0c0,0,0,0,0,0c0,0,0,0,0,0
				c-0.1,0-0.2,0-0.3,0c0,0,0,0,0,0c-0.1,0-0.1,0-0.2,0s-0.1,0-0.2,0c-0.1,0-0.2,0-0.4,0h0c0,0,0,0,0,0c0,0,0,0,0,0
				c-0.1,0-0.2,0-0.4,0c0.1,0,0.2,0,0.2,0c8.2-0.6,14.7-7.5,14.7-15.9c0-8.8-7.1-15.9-15.9-15.9c-4,0-7.7,1.5-10.5,4
				c0,0-0.1,0.1-0.1,0.1c2.6-2.8,4.1-6.6,4.1-10.7c0-8.8-7.1-15.9-15.9-15.9s-15.9,7.1-15.9,15.9c0-0.1,0-0.3,0-0.4
				c-0.2-8.6-7.2-15.5-15.9-15.5c-8.8,0-15.9,7.1-15.9,15.9c0,4.1,1.6,7.9,4.1,10.7c-0.1,0-0.1-0.1-0.2-0.1
				c-2.8-2.4-6.5-3.9-10.5-3.9c-8.8,0-15.9,7.1-15.9,15.9c0,8.4,6.5,15.3,14.7,15.9c0.1,0,0.2,0,0.3,0c-8.4,0.5-15,7.4-15,15.9
				c0,8.8,7.1,15.9,15.9,15.9c3.9,0,7.5-1.4,10.2-3.7c0.1-0.1,0.2-0.2,0.3-0.2c0.2-0.2,0.4-0.4,0.6-0.6c-2.9,2.9-4.6,6.8-4.6,11.2
				c0,8.8,7.1,15.9,15.9,15.9c8.6,0,15.6-6.9,15.9-15.4"/>
			<path class="st12" d="M1265.7-456.4c-0.2,0.2-0.4,0.4-0.6,0.6c0,0-0.1,0.1-0.1,0.1c-0.2,0.2-0.4,0.4-0.6,0.6
				c0.2-0.2,0.4-0.4,0.6-0.6C1265.2-455.9,1265.4-456.1,1265.7-456.4z"/>
			<path class="st12" d="M1288.8-486.2c-0.8,0.8-1.4,2-1.4,3.3h-33.1c-0.2,0-0.3,0-0.5,0s-0.3,0-0.5,0h-0.7
				c-8.2-0.6-14.7-7.5-14.7-15.9c0-8.8,7.1-15.9,15.9-15.9c4,0,7.7,1.5,10.5,3.9l0.4,0.4c0.2,0.2,0.4,0.4,0.5,0.5l0.5,0.5
				L1288.8-486.2z"/>
			<path class="st12" d="M1254.3-482.8h0.7c-0.1,0-0.2,0-0.3,0c-0.3,0-0.6,0-0.9,0s-0.6,0-0.9,0c-0.1,0-0.2,0-0.3,0h0.7
				c0.2,0,0.3,0,0.5,0S1254.2-482.9,1254.3-482.8z"/>
			<path class="st12" d="M1265.8-509.2l-0.5-0.5l-0.5-0.5l-0.4-0.4c0.1,0,0.1,0.1,0.2,0.1c0.4,0.4,0.8,0.7,1.1,1.1l0,0
				C1265.7-509.3,1265.8-509.2,1265.8-509.2z"/>
			<path class="st12" d="M1346.3-498.7c0,8.4-6.5,15.3-14.7,15.9h-0.6c-0.2,0-0.3,0-0.5,0c-0.2,0-0.3,0-0.4,0h-33.2
				c0-1.3-0.5-2.5-1.4-3.3l23.1-23.1l0.4-0.4c0.3-0.2,0.5-0.5,0.8-0.8l0.3-0.3c2.8-2.5,6.5-4,10.5-4
				C1339.2-514.6,1346.3-507.5,1346.3-498.7z"/>
			<path class="st12" d="M1319.8-510.5c0,0,0.1-0.1,0.1-0.1l-0.3,0.3c-0.2,0.3-0.5,0.5-0.8,0.8l-0.4,0.4c0-0.1,0.1-0.1,0.1-0.2
				C1319-509.8,1319.4-510.2,1319.8-510.5C1319.8-510.5,1319.8-510.5,1319.8-510.5z"/>
			<path class="st12" d="M1331.6-482.8c-0.1,0-0.2,0-0.2,0h0c-0.3,0-0.6,0-0.9,0c-0.3,0-0.5,0-0.8,0h0c-0.1,0-0.2,0-0.3,0h0.8
				c0.1,0,0.3,0,0.4,0c0.2,0,0.3,0,0.5,0H1331.6z"/>
			<path class="st12" d="M1288.8-479.5l-22.8,22.8l-1,1l-0.9,0.9c-2.8,2.3-6.3,3.7-10.2,3.7c-8.8,0-15.9-7.1-15.9-15.9
				c0-8.5,6.6-15.4,15-15.9c0.3,0,0.6,0,0.9,0s0.6,0,0.9,0c0.1,0,0.2,0,0.3,0h32.4C1287.5-481.6,1288-480.4,1288.8-479.5z"/>
			<path class="st12" d="M1254.7-482.8c-0.3,0-0.6,0-0.9,0s-0.6,0-0.9,0c0.1,0,0.3,0,0.4,0c0.2,0,0.3,0,0.5,0s0.3,0,0.5,0
				C1254.5-482.8,1254.6-482.8,1254.7-482.8z"/>
			<path class="st12" d="M1266-456.7c-0.1,0.1-0.2,0.3-0.3,0.4c-0.2,0.2-0.4,0.4-0.6,0.6c0,0-0.1,0.1-0.1,0.1
				c-0.2,0.2-0.4,0.4-0.6,0.6c-0.1,0.1-0.2,0.2-0.3,0.2l0.9-0.9L1266-456.7z"/>
			<path class="st12" d="M1346.4-467.7c0-0.3,0-0.5-0.1-0.8c0,0,0,0,0,0c0-0.1,0-0.2,0-0.4c0-0.3-0.1-0.7-0.1-1c0-0.1,0-0.2-0.1-0.3
				c-0.1-0.4-0.2-0.8-0.3-1.2c-0.1-0.4-0.2-0.8-0.4-1.1c-0.1-0.2-0.2-0.4-0.3-0.7c-0.1-0.2-0.1-0.3-0.2-0.4
				c-0.1-0.1-0.1-0.3-0.2-0.4c0-0.1-0.1-0.2-0.1-0.3c0-0.1-0.1-0.2-0.2-0.3c0,0,0-0.1-0.1-0.1c-0.1-0.2-0.2-0.3-0.3-0.5
				c-0.1-0.2-0.2-0.3-0.3-0.5c-0.1-0.2-0.2-0.3-0.3-0.5v0c-0.1-0.2-0.2-0.3-0.3-0.5c-0.1-0.2-0.2-0.3-0.4-0.5
				c-0.1-0.1-0.2-0.3-0.4-0.4c0,0,0-0.1-0.1-0.1c-0.1-0.1-0.2-0.2-0.3-0.4c0,0,0,0,0,0c-0.1-0.1-0.3-0.3-0.4-0.4
				c-0.1-0.1-0.2-0.2-0.4-0.3c-0.2-0.2-0.3-0.3-0.5-0.4c-0.2-0.1-0.3-0.2-0.5-0.4c-0.2-0.1-0.4-0.3-0.6-0.4
				c-0.1-0.1-0.2-0.2-0.4-0.2c-0.1-0.1-0.2-0.1-0.3-0.2c-0.1-0.1-0.3-0.2-0.4-0.2c-0.2-0.1-0.4-0.3-0.7-0.4
				c-0.1-0.1-0.2-0.1-0.3-0.1c-0.2-0.1-0.3-0.2-0.5-0.2c-0.2-0.1-0.4-0.2-0.5-0.2c-0.1-0.1-0.3-0.1-0.4-0.2
				c-0.1-0.1-0.3-0.1-0.4-0.1c0,0-0.1,0-0.1-0.1c-0.1,0-0.2-0.1-0.3-0.1c-0.1,0-0.2-0.1-0.3-0.1c-0.1,0-0.2-0.1-0.3-0.1
				c-0.1,0-0.2-0.1-0.3-0.1c-0.1,0-0.1,0-0.2-0.1c-0.1,0-0.2-0.1-0.4-0.1c-0.3-0.1-0.5-0.1-0.8-0.2c-0.1,0-0.2,0-0.3,0c0,0,0,0,0,0
				c0,0,0,0,0,0c-0.1,0-0.2,0-0.3,0c0,0,0,0,0,0c-0.1,0-0.1,0-0.2,0s-0.1,0-0.2,0h0c-0.1,0-0.1,0-0.2,0c-0.1,0-0.1,0-0.2,0h0
				c-0.1,0-0.2,0-0.4,0h0c-0.3,0-0.6,0-0.9,0c-0.3,0-0.5,0-0.8,0h0c0,0-0.1,0-0.1,0c0,0,0,0,0.1,0c-0.1,0-0.2,0-0.3,0h-32.4
				c0,1.3-0.5,2.5-1.4,3.3l22.7,22.7l0.6,0.6c0.1,0.1,0.3,0.2,0.4,0.3l0.2,0.2c0,0,0.1,0.1,0.1,0.1c0,0,0,0,0.1,0.1c0,0,0,0,0.1,0.1
				c0.1,0.1,0.3,0.3,0.5,0.4c0,0,0.1,0.1,0.1,0.1c0.1,0.1,0.3,0.2,0.4,0.3c0,0,0,0,0,0c0.2,0.1,0.3,0.3,0.5,0.4
				c0.2,0.1,0.3,0.3,0.5,0.4c0.1,0.1,0.2,0.1,0.3,0.2c0.1,0.1,0.2,0.1,0.3,0.2c0.1,0.1,0.2,0.1,0.3,0.2c0,0,0,0,0,0
				c0.1,0,0.1,0.1,0.2,0.1c0.1,0.1,0.2,0.1,0.3,0.2c0.3,0.2,0.6,0.3,0.9,0.4c0.1,0.1,0.2,0.1,0.3,0.2c0.1,0.1,0.2,0.1,0.3,0.1
				c0.4,0.2,0.8,0.3,1.3,0.5c0.1,0,0.2,0.1,0.4,0.1c0.3,0.1,0.5,0.1,0.8,0.2c0.1,0,0.3,0.1,0.4,0.1c0.1,0,0.2,0,0.3,0.1
				c0.1,0,0.2,0,0.3,0.1c0.2,0,0.4,0.1,0.5,0.1c0.1,0,0.2,0,0.3,0c0.1,0,0.2,0,0.2,0c0.1,0,0.2,0,0.3,0c0.2,0,0.5,0,0.7,0
				c0.2,0,0.3,0,0.5,0c0.1,0,0.3,0,0.4,0c0.3,0,0.5,0,0.8,0c0.1,0,0.1,0,0.2,0c0.2,0,0.4,0,0.6-0.1c0,0,0.1,0,0.1,0
				c0.1,0,0.2,0,0.4-0.1c0.3,0,0.5-0.1,0.8-0.1c0.1,0,0.3-0.1,0.4-0.1c0.2,0,0.3-0.1,0.5-0.1c0.1,0,0.1,0,0.2,0
				c0.2,0,0.3-0.1,0.5-0.1c0.1,0,0.3-0.1,0.4-0.1c0.1,0,0.1,0,0.2-0.1c0.2-0.1,0.3-0.1,0.5-0.2c0.1,0,0.2-0.1,0.4-0.1
				c0.1-0.1,0.2-0.1,0.3-0.2c0.1,0,0.2-0.1,0.3-0.1c0.1-0.1,0.3-0.1,0.4-0.2c0.1-0.1,0.2-0.1,0.3-0.2c0.1-0.1,0.2-0.1,0.3-0.2
				c0.1-0.1,0.3-0.1,0.4-0.2c0.1-0.1,0.2-0.1,0.3-0.2c0.1-0.1,0.2-0.1,0.3-0.2c0.1-0.1,0.2-0.1,0.3-0.2c0.2-0.1,0.4-0.3,0.6-0.4
				c0.1-0.1,0.2-0.2,0.3-0.2c0.1-0.1,0.2-0.2,0.3-0.2s0.2-0.2,0.3-0.2c0.1-0.1,0.2-0.2,0.3-0.3c0.1-0.1,0.2-0.2,0.3-0.3
				c0.4-0.4,0.7-0.7,1-1.1c0,0,0,0,0,0c0.1-0.1,0.1-0.2,0.2-0.3c0.1-0.2,0.2-0.3,0.4-0.5c0.1-0.2,0.2-0.3,0.3-0.5
				c0.1-0.2,0.3-0.4,0.4-0.6c0.1-0.2,0.3-0.4,0.4-0.6c0.1-0.1,0.1-0.2,0.1-0.3c0.1-0.1,0.1-0.3,0.2-0.4c0.1-0.1,0.1-0.3,0.2-0.4
				c0.1-0.1,0.1-0.2,0.1-0.3c0-0.1,0.1-0.2,0.1-0.3c0,0,0-0.1,0-0.1c0-0.1,0.1-0.2,0.1-0.3v0c0,0,0-0.1,0-0.1c0-0.1,0-0.1,0.1-0.2
				c0-0.1,0-0.1,0.1-0.2c0-0.1,0.1-0.2,0.1-0.3c0-0.1,0.1-0.2,0.1-0.3c0-0.1,0.1-0.3,0.1-0.4c0,0,0,0,0-0.1c0-0.1,0.1-0.3,0.1-0.4
				c0,0,0,0,0-0.1c0,0,0,0,0,0c0.1-0.2,0.1-0.4,0.2-0.7c0,0,0,0,0,0c0-0.1,0-0.1,0-0.2c0-0.1,0-0.2,0-0.2c0-0.1,0-0.2,0.1-0.4
				c0,0,0,0,0,0c0-0.1,0-0.3,0.1-0.4c0,0,0,0,0,0c0,0,0-0.1,0-0.1c0,0,0-0.1,0-0.1c0,0,0-0.1,0-0.1c0,0,0-0.1,0-0.1
				c0-0.2,0-0.4,0-0.6c0,0,0,0,0-0.1c0-0.1,0-0.1,0-0.2c0-0.1,0-0.2,0-0.3c0-0.1,0-0.2,0-0.4
				C1346.4-467.2,1346.4-467.4,1346.4-467.7z M1327.8-482.6c0.1,0,0.2,0,0.3-0.1c0.1,0,0.3,0,0.4-0.1
				C1328.2-482.7,1328-482.7,1327.8-482.6z M1328.8-482.8c-0.1,0-0.2,0-0.3,0C1328.6-482.7,1328.7-482.8,1328.8-482.8
				c0,0,0.1,0,0.1,0C1328.9-482.8,1328.9-482.8,1328.8-482.8z M1329.2-482.8c0.1,0,0.1,0,0.2,0c0,0,0.1,0,0.1,0
				C1329.4-482.8,1329.3-482.8,1329.2-482.8z"/>
			<path class="st12" d="M1328.4-482.7c-0.2,0-0.4,0.1-0.7,0.1c0.1,0,0.2,0,0.3-0.1C1328.2-482.7,1328.3-482.7,1328.4-482.7z"/>
			<path class="st12" d="M1329.5-482.8c-0.1,0-0.2,0-0.3,0C1329.3-482.8,1329.3-482.8,1329.5-482.8
				C1329.4-482.8,1329.4-482.8,1329.5-482.8z"/>
			<path class="st12" d="M1329.6-482.8C1329.6-482.8,1329.5-482.8,1329.6-482.8C1329.5-482.8,1329.5-482.8,1329.6-482.8
				L1329.6-482.8z"/>
			<path class="st12" d="M1331.3-482.8c-0.3,0-0.6,0-0.9,0c-0.3,0-0.5,0-0.8,0c0.1,0,0.3,0,0.4,0h0c0.1,0,0.3,0,0.4,0
				c0.2,0,0.3,0,0.5,0h0C1331.1-482.8,1331.2-482.8,1331.3-482.8z"/>
			<path class="st12" d="M1344.9-460.2c0.1-0.1,0.1-0.2,0.1-0.3c-2.5,5.6-8.1,9.5-14.6,9.5c-3.8,0-7.3-1.3-10.1-3.6
				c-0.1-0.1-0.1-0.1-0.2-0.2c-0.7-0.6-1.3-1.2-1.9-1.8c-0.1-0.1-0.2-0.2-0.2-0.3l0.6,0.6c0.1,0.1,0.3,0.2,0.4,0.3l0.2,0.2
				c0,0,0.1,0.1,0.1,0.1c0,0,0,0,0.1,0.1c0,0,0,0,0.1,0.1c0.1,0.1,0.3,0.3,0.5,0.4c0,0,0.1,0.1,0.1,0.1c0.1,0.1,0.3,0.2,0.4,0.3
				c0,0,0,0,0,0c0.2,0.1,0.3,0.3,0.5,0.4c0.2,0.1,0.3,0.3,0.5,0.4c0.1,0.1,0.2,0.1,0.3,0.2c0.1,0.1,0.2,0.1,0.3,0.2
				c0.1,0.1,0.2,0.1,0.3,0.2c0,0,0,0,0,0c0.1,0,0.1,0.1,0.2,0.1c0.1,0.1,0.2,0.1,0.3,0.2c0.3,0.2,0.6,0.3,0.9,0.4
				c0.1,0.1,0.2,0.1,0.3,0.2c0.1,0.1,0.2,0.1,0.3,0.1c0.4,0.2,0.8,0.3,1.3,0.5c0.1,0,0.2,0.1,0.4,0.1c0.3,0.1,0.5,0.1,0.8,0.2
				c0.1,0,0.3,0.1,0.4,0.1c0.1,0,0.2,0,0.3,0.1c0.1,0,0.2,0,0.3,0.1c0.2,0,0.4,0.1,0.5,0.1c0.1,0,0.2,0,0.3,0c0.1,0,0.2,0,0.2,0
				c0.1,0,0.2,0,0.3,0c0.2,0,0.5,0,0.7,0c0.2,0,0.3,0,0.5,0c0.1,0,0.3,0,0.4,0c0.3,0,0.5,0,0.8,0c0.1,0,0.1,0,0.2,0
				c0.2,0,0.4,0,0.6-0.1c0,0,0.1,0,0.1,0c0.1,0,0.2,0,0.4-0.1c0.3,0,0.5-0.1,0.8-0.1c0.1,0,0.3-0.1,0.4-0.1c0.2,0,0.3-0.1,0.5-0.1
				c0.1,0,0.1,0,0.2,0c0.2,0,0.3-0.1,0.5-0.1c0.1,0,0.3-0.1,0.4-0.1c0.1,0,0.1,0,0.2-0.1c0.2-0.1,0.3-0.1,0.5-0.2
				c0.1,0,0.2-0.1,0.4-0.1c0.1-0.1,0.2-0.1,0.3-0.2c0.1,0,0.2-0.1,0.3-0.1c0.1-0.1,0.3-0.1,0.4-0.2c0.1-0.1,0.2-0.1,0.3-0.2
				c0.1-0.1,0.2-0.1,0.3-0.2c0.1-0.1,0.3-0.1,0.4-0.2c0.1-0.1,0.2-0.1,0.3-0.2c0.1-0.1,0.2-0.1,0.3-0.2c0.1-0.1,0.2-0.1,0.3-0.2
				c0.2-0.1,0.4-0.3,0.6-0.4c0.1-0.1,0.2-0.2,0.3-0.2c0.1-0.1,0.2-0.2,0.3-0.2s0.2-0.2,0.3-0.2c0.1-0.1,0.2-0.2,0.3-0.3
				c0.1-0.1,0.2-0.2,0.3-0.3c0.4-0.4,0.7-0.7,1-1.1c0,0,0,0,0,0c0.1-0.1,0.1-0.2,0.2-0.3c0.1-0.2,0.2-0.3,0.4-0.5
				c0.1-0.2,0.2-0.3,0.3-0.5c0.1-0.2,0.3-0.4,0.4-0.6c0.1-0.2,0.3-0.4,0.4-0.6c0.1-0.1,0.1-0.2,0.1-0.3c0.1-0.1,0.1-0.3,0.2-0.4
				C1344.8-459.9,1344.8-460.1,1344.9-460.2z"/>
		</g>
		<path class="st2" d="M1374.9-333l-156.3-517.2c0,0-10.6-47.6-40.2,12.3S1124-729.5,1124-729.5"/>
	</g>
	<path class="st2" d="M2412.6,1813.6l-158.7-525.3c0,0-10.8-48.3-40.8,12.5c-30,60.8-55.3,110-55.3,110"/>
	<polyline class="st12" points="1308.6,1549.5 1308.6,1549.2 1308.6,1541.3 	"/>
	<path class="st7" d="M1554,1654.7c0.2,0.4,0.4,0.8,0.6,1.1c30.3,54.6,97,94.9,171.4,94.9c75,0,142.2-40.8,172.1-96H1554z"/>
	<path class="st12" d="M1618.4,1574.6c-4.9,0.3-9.7,0.7-14.4,1"/>
	<path class="st12" d="M1829.3,1574.4c21.7,1.3,41.3,3.1,58,5.2c1.7,0.2,3.4,0.4,5.1,0.7c34.2,4.5,55,10.5,55.4,17
		c0,0.1,0,0.1,0,0.2c0,0.7-0.2,1.4-0.7,2c-3.2,4.9-17.9,9.4-41,13.1c-3.1,0.5-6.4,1-9.8,1.5c-33.9,4.7-82,8.1-136.7,9
		c-11,0.2-22.2,0.3-33.7,0.3c-116.7,0-212.4-10.5-221.2-23.9c-0.4-0.7-0.7-1.3-0.7-2c0-0.1,0-0.1,0-0.2c0.4-7.3,26.6-13.9,68.4-18.6
		"/>
	<path class="st12" d="M1662.4,1572.5c20.1-0.7,41.5-1.1,63.5-1.1c13.7,0,27,0.1,40,0.4"/>
	<ellipse class="st4" cx="1726.1" cy="1653.9" rx="172.2" ry="20"/>
	<path class="st12" d="M1711.1,2047.8c-67.1,0.9-119.3,7.5-119.3,15.6c0,5.2,22,9.9,55.8,12.7"/>
	<path class="st12" d="M1740.9,2047.8c67.1,0.9,119.3,7.5,119.3,15.6c0,8.7-60.1,15.7-134.2,15.7c-16.3,0-31.8-0.3-46.3-1"/>
	<path class="st12" d="M1748,1762.6c94.6-9,172.6-74.9,199.2-163.2c0.2-0.7,0.5-1.5,0.7-2.2"/>
	<path class="st12" d="M1504.1,1597.1c0.2,0.7,0.4,1.5,0.7,2.2c26.6,88.3,104.6,154.2,199.2,163.2"/>
	<g>
		<path class="st12" d="M1703.9,1762.6c6.2,7,16.8,32.4,16.2,123.6c-0.8,124.5,2.3,148.8-9.1,161.7"/>
		<path class="st12" d="M1732,1980.7c0-3.1,0-6.4,0-9.8"/>
		<path class="st12" d="M1731.9,1957.2c0-19.1,0-42.5-0.2-71.1c-0.6-91.2,10-116.5,16.2-123.6"/>
		<path class="st12" d="M1740.9,2047.8c-4.9-5.5-7.1-13.2-8.1-30.1"/>
	</g>
	<g>
		<circle class="st2" cx="1797.8" cy="1569.7" r="31.9"/>
		<line class="st2" x1="1836.6" y1="1513.6" x2="1695.4" y2="1714.4"/>
	</g>
	<line class="st9" x1="829.3" y1="2543.9" x2="830.5" y2="2580.7"/>
	<g>
		<path class="st4" d="M-1495.5,831.8c0,40.7,10.4,78.9,28.8,112.2c23.1,41.9,58.8,76,102,97c30.8,15,65.3,23.4,101.8,23.4
			c28.3,0,55.4-5,80.4-14.3c51.1-18.8,93.8-55.1,120.9-101.7c19.9-34.3,31.4-74.2,31.4-116.7"/>
		<path class="st9" d="M-1505.1,839.6c0,40.7,10.5,79,28.8,112.3c23.2,42,58.9,76.1,102.1,97.2c30.8,15,65.4,23.4,102,23.4
			c28.3,0,55.4-5.1,80.5-14.3c51.2-18.9,93.9-55.2,121-101.8c20-34.3,31.4-74.3,31.4-116.9"/>
		<polyline class="st9" points="-1039.2,839.6 -1078.8,839.6 -1252.9,839.6 -1272.1,839.6 -1291.4,839.6 -1465.5,839.6 
			-1505.1,839.6 		"/>
		<path class="st9" d="M-1252.9,839.6c0,3.5-0.9,6.8-2.6,9.7c-2.2,3.8-5.8,6.8-10,8.4c-2.1,0.8-4.3,1.2-6.7,1.2
			c-3,0-5.9-0.7-8.4-1.9c-3.6-1.7-6.5-4.6-8.4-8c-1.5-2.8-2.4-5.9-2.4-9.3"/>
		<line class="st9" x1="-1289" y1="848.8" x2="-1441.6" y2="932.8"/>
		<line class="st9" x1="-1104.8" y1="936.6" x2="-1255.5" y2="849.2"/>
		<line class="st9" x1="-1205.3" y1="1021.1" x2="-1265.5" y2="857.6"/>
		<line class="st9" x1="-1280.6" y1="856.8" x2="-1356.8" y2="1013.5"/>
		<path class="st9" d="M-1469.1,839.6c0,108.8,88.2,196.9,196.9,196.9c108.8,0,196.9-88.2,196.9-196.9"/>
	</g>
	<g>
		<ellipse class="st2" cx="-1318.7" cy="-650.4" rx="141.5" ry="12.5"/>
		<path class="st2" d="M-1460-1.8c-0.2,0.2-0.2,0.5-0.2,0.7s0.1,0.5,0.2,0.7c4.3,6.5,65.9,11.7,141.3,11.7
			c75.3,0,136.9-5.2,141.3-11.7c0.2-0.2,0.2-0.5,0.2-0.7s-0.1-0.5-0.2-0.7"/>
		<path class="st2" d="M-1460-86.1c-0.2,0.2-0.2,0.5-0.2,0.7s0.1,0.5,0.2,0.7c4.3,6.5,65.9,11.7,141.3,11.7
			c75.3,0,136.9-5.2,141.3-11.7c0.2-0.2,0.2-0.5,0.2-0.7s-0.1-0.5-0.2-0.7"/>
		<line class="st2" x1="-1177.4" y1="-419.7" x2="-1177.4" y2="-611.6"/>
		<polyline class="st2" points="-1177.4,-313.6 -1177.4,-86.1 -1177.4,-84.6 -1177.4,-67 		"/>
		<line class="st2" x1="-1177.4" y1="0.7" x2="-1177.4" y2="-33.3"/>
		<line class="st2" x1="-1177.4" y1="-370" x2="-1177.4" y2="-375.8"/>
		<polyline class="st2" points="-1177.4,-639.2 -1177.4,-646.9 -1177.4,-649.7 		"/>
		<line class="st2" x1="-1460" y1="-586.3" x2="-1460" y2="-593"/>
		<polyline class="st2" points="-1460,-548.3 -1460,-86.1 -1460,-84.6 -1460,0.7 		"/>
		<polyline class="st2" points="-1460,-616.4 -1460,-649.7 -1460,-651.2 -1460,-651.2 		"/>
		<ellipse class="st4" cx="-1318.7" cy="-567.1" rx="124.6" ry="11"/>
		<path class="st7" d="M-1194.1-567.1c0,0-7.2,377-12,419.7c-3.1,28-37.8,43.4-71.7,51c-23.8,5.3-67,6.9-90.7,0.9
			c-26.4-6.6-55.2-21.2-61-53.1c-11.1-61.6-13.8-418.4-13.8-418.4c0,6.1,55.8,11,124.6,11C-1249.9-556.1-1194.1-561-1194.1-567.1z"
			/>
		<circle class="st11" cx="-1218.4" cy="-745.9" r="21.3"/>
		<line class="st2" x1="-1228" y1="-727.1" x2="-1429.5" y2="-311"/>
		<path class="st11" d="M-1271.7-187l-45.9,26.5c-8.6,4.9-19.6,2-24.6-6.6l-25.4-44c-4.9-8.6-2-19.6,6.6-24.6l45.9-26.5
			c8.6-4.9,19.6-2,24.6,6.6l25.4,44C-1260.1-203-1263.1-192-1271.7-187z"/>
		<path class="st11" d="M-1265-276.9l-52.9,4c-9.9,0.7-18.6-6.7-19.3-16.6l-3.8-50.7c-0.7-9.9,6.7-18.6,16.6-19.3l52.9-4
			c9.9-0.7,18.6,6.7,19.3,16.6l3.8,50.7C-1247.7-286.3-1255.1-277.7-1265-276.9z"/>
		<path class="st11" d="M-1262.5-366.5L-1300-329c-7,7-18.5,7-25.5,0l-35.9-35.9c-7-7-7-18.5,0-25.5l37.5-37.5c7-7,18.5-7,25.5,0
			l35.9,35.9C-1255.5-385-1255.5-373.5-1262.5-366.5z"/>
		<g>
			<path class="st4" d="M-1306.9-536.8c-8.6,8.8-14.4,19.2-17.4,30.3c-3.9,13.9-3.3,28.8,1.5,42.4c3.5,9.7,9.1,18.8,17,26.5
				c6.1,6,13,10.6,20.4,13.9c15,6.7,31.8,7.9,47.5,3.6c11.5-3.2,22.4-9.4,31.4-18.6"/>
			<path class="st9" d="M-1310.6-537.2c-8.6,8.8-14.4,19.2-17.5,30.3c-3.9,13.9-3.3,28.8,1.6,42.5c3.5,9.7,9.2,18.8,17,26.5
				c6.1,6,13,10.6,20.4,13.9c15,6.7,31.9,7.9,47.5,3.6c11.5-3.2,22.4-9.4,31.4-18.6"/>
			<polyline class="st9" points="-1210.2,-439 -1218.7,-447.3 -1256.3,-484 -1260.4,-488.1 -1264.6,-492.1 -1302.1,-528.8 
				-1310.6,-537.2 			"/>
			<path class="st9" d="M-1256.3-484c-0.7,0.8-1.6,1.3-2.6,1.5c-1.3,0.4-2.7,0.3-3.9-0.3c-0.6-0.3-1.2-0.7-1.7-1.1
				c-0.7-0.6-1.1-1.4-1.4-2.2c-0.4-1.1-0.4-2.4-0.1-3.5c0.3-0.9,0.7-1.8,1.4-2.5"/>
			<line class="st9" x1="-1266" y1="-489.6" x2="-1316.6" y2="-503.7"/>
			<line class="st9" x1="-1244.8" y1="-431.9" x2="-1258.9" y2="-482.5"/>
			<line class="st9" x1="-1284.2" y1="-434.9" x2="-1262.8" y2="-482.8"/>
			<line class="st9" x1="-1265.9" y1="-486.1" x2="-1315.3" y2="-468.4"/>
			<path class="st9" d="M-1302.9-529.6c-22.9,23.5-22.5,61,1,84c23.4,22.9,61,22.5,84-1"/>
		</g>
	</g>
	<path class="st12" d="M278.6,80.9c-0.1,0-0.2,0-0.3,0c-0.3,0-0.7,0-1,0c-0.3,0-0.7,0-1,0c-0.1,0-0.2,0-0.3,0h0.8c0.2,0,0.4,0,0.6,0
		c0.2,0,0.4,0,0.6,0H278.6z"/>
	<path class="st12" d="M290.6,50.7c0.1,0.1,0.2,0.2,0.2,0.3l-0.6-0.6l-0.6-0.6l-0.5-0.5c0.1,0.1,0.1,0.1,0.2,0.2
		C289.7,49.8,290.2,50.3,290.6,50.7L290.6,50.7z"/>
	<path class="st12" d="M326,80.9c0,1.5-0.6,2.8-1.6,3.8s-2.3,1.6-3.8,1.6s-2.8-0.6-3.8-1.6c-1-1-1.6-2.3-1.6-3.8s0.6-2.8,1.6-3.8
		c1-1,2.3-1.6,3.8-1.6s2.8,0.6,3.8,1.6C325.4,78.1,326,79.4,326,80.9z"/>
	<line class="st12" x1="277.8" y1="80.9" x2="276.7" y2="80.9"/>
	<line class="st12" x1="290.2" y1="50.4" x2="289.6" y2="49.8"/>
	<path class="st12" d="M320.7,36.8v38.7c-1.5,0-2.8,0.6-3.8,1.6L290.8,51c-0.1-0.1-0.1-0.2-0.2-0.3l0,0c-0.4-0.5-0.8-0.9-1.3-1.3
		c-2.9-3.2-4.7-7.5-4.7-12.1c0-10,8.1-18.1,18.1-18.1C312.5,19.2,320.5,27.1,320.7,36.8z"/>
	<path class="st12" d="M290.6,50.7c-0.1-0.1-0.3-0.2-0.4-0.4l-0.6-0.6c-0.1-0.1-0.2-0.2-0.3-0.3C289.7,49.8,290.2,50.3,290.6,50.7z"
		/>
	<path class="st12" d="M268.2,114.6c-0.1-0.1-0.3-0.2-0.4-0.2"/>
	<line class="st12" x1="307.9" y1="141.8" x2="307.9" y2="141.8"/>
	<path class="st12" d="M278.6,80.9c-0.1,0-0.2,0-0.3,0c-0.3,0-0.7,0-1,0c-0.3,0-0.7,0-1,0c-0.1,0-0.2,0-0.3,0h0.8c0.2,0,0.4,0,0.6,0
		c0.2,0,0.4,0,0.6,0H278.6z"/>
	<path class="st12" d="M290.8,51l-0.6-0.6l-0.6-0.6l-0.5-0.5c0.1,0.1,0.1,0.1,0.2,0.2c0.5,0.4,0.9,0.8,1.3,1.3l0,0
		C290.7,50.8,290.7,50.9,290.8,51z"/>
	<g>
		<circle class="st7" cx="326" cy="71.2" r="68.8"/>
		<path class="st12" d="M320.7,149.6c19,0,36.2-7.7,48.6-20.1"/>
		<path class="st12" d="M326,80.9c0,1.5-0.6,2.8-1.6,3.8s-2.3,1.6-3.8,1.6s-2.8-0.6-3.8-1.6c-1-1-1.6-2.3-1.6-3.8s0.6-2.8,1.6-3.8
			c1-1,2.3-1.6,3.8-1.6s2.8,0.6,3.8,1.6C325.4,78.1,326,79.4,326,80.9z"/>
		<path class="st12" d="M356.8,37.3c0,4.7-1.8,8.9-4.7,12.1c0,0,0,0,0,0c-0.5,0.4-0.9,0.8-1.3,1.3c-0.1,0.1-0.1,0.1-0.2,0.2
			l-26.2,26.2c-1-1-2.3-1.6-3.8-1.6V37.8c0-0.2,0-0.3,0-0.5c0-10,8.1-18.1,18.1-18.1S356.8,27.3,356.8,37.3z"/>
		<path class="st12" d="M356.9,124.6c0,10-8.1,18.1-18.1,18.1c-9.9,0-18-8-18.1-17.9c0,0,0-0.1,0-0.1c0-0.1,0-0.1,0-0.2v-0.3
			c0-0.1,0-0.2,0-0.3V86.2c1.5,0,2.8-0.6,3.8-1.6l25.8,25.8c0.1,0.1,0.2,0.2,0.3,0.3c0.6,0.8,1.3,1.5,2.1,2.1
			C355.3,116,356.9,120.1,356.9,124.6z"/>
		<path class="st12" d="M320.7,149.6c-4.7,0-9.3-0.5-13.8-1.4v0c-13.5-2.7-25.6-9.4-34.9-18.8c-1.5-1.5-2.9-3.1-4.3-4.7
			c-2.4-2.9-4.5-5.9-6.4-9.1c-6-10.2-9.4-22-9.4-34.7c0-1.6,0.1-3.2,0.2-4.8c0.7-9.9,3.4-19.1,7.8-27.4v0
			c11.6-21.7,34.4-36.5,60.8-36.5c38,0,68.7,30.8,68.7,68.7c0,13.9-4.1,26.7-11.1,37.5c-2.6,4-5.6,7.7-9,11.1"/>
		<path class="st12" d="M352.8,113l-0.5-0.5l-1.4-1.4c0.1,0.1,0.3,0.3,0.4,0.4l0.4,0.4c0,0,0,0,0.1,0.1c0,0,0.1,0.1,0.1,0.1
			c0.2,0.2,0.3,0.3,0.5,0.5c0,0,0.1,0.1,0.1,0.1c0.2,0.1,0.3,0.2,0.4,0.4c0,0,0,0,0,0c0.2,0.2,0.4,0.3,0.6,0.4
			c0.2,0.1,0.4,0.3,0.6,0.4c0.1,0.1,0.2,0.2,0.3,0.2c0.1,0.1,0.2,0.1,0.4,0.2c0.1,0.1,0.2,0.1,0.3,0.2h0c0.1,0,0.1,0.1,0.2,0.1
			c0.1,0.1,0.2,0.1,0.3,0.2c0.3,0.2,0.7,0.3,1,0.5c0.1,0.1,0.3,0.1,0.4,0.2c0.1,0.1,0.3,0.1,0.4,0.2c0.5,0.2,1,0.4,1.5,0.5
			c0.1,0,0.3,0.1,0.4,0.1c0.3,0.1,0.6,0.2,0.9,0.2c0.2,0,0.3,0.1,0.4,0.1c0.1,0,0.2,0,0.4,0.1c0.1,0,0.2,0,0.3,0.1
			c0.2,0,0.4,0.1,0.6,0.1c0.1,0,0.2,0,0.4,0c0.1,0,0.2,0,0.3,0c0.1,0,0.2,0,0.3,0c0.3,0,0.5,0,0.8,0h1c0.3,0,0.6,0,0.9,0
			c0.1,0,0.1,0,0.2,0c0.2,0,0.4,0,0.6-0.1c0,0,0.1,0,0.1,0c0.1,0,0.3,0,0.4-0.1c0.3,0,0.6-0.1,0.9-0.2c0.1,0,0.3-0.1,0.4-0.1
			c0.2,0,0.4-0.1,0.5-0.1c0.1,0,0.1,0,0.2-0.1c0.2,0,0.3-0.1,0.5-0.1c0.2,0,0.3-0.1,0.5-0.1c0.1,0,0.1-0.1,0.2-0.1
			c0.2-0.1,0.3-0.1,0.5-0.2c0.1-0.1,0.3-0.1,0.4-0.2l0.4-0.2c0.1,0,0.2-0.1,0.3-0.2c0.1-0.1,0.3-0.1,0.4-0.2
			c0.1-0.1,0.3-0.1,0.4-0.2c0.1-0.1,0.2-0.1,0.3-0.2c0.1-0.1,0.3-0.2,0.4-0.2l0.4-0.2c0.1-0.1,0.2-0.1,0.3-0.2
			c0.1-0.1,0.2-0.2,0.4-0.2c0.2-0.2,0.5-0.3,0.7-0.5c0.1-0.1,0.2-0.2,0.3-0.3c0.1-0.1,0.2-0.2,0.3-0.3c0.1-0.1,0.2-0.2,0.3-0.3
			c0.1-0.1,0.2-0.2,0.3-0.3c0.1-0.1,0.2-0.2,0.3-0.3c0.4-0.4,0.8-0.8,1.2-1.3c0,0,0,0,0,0c0.1-0.1,0.2-0.2,0.2-0.3
			c0.1-0.2,0.3-0.3,0.4-0.5c0.1-0.2,0.3-0.4,0.4-0.5c0.2-0.2,0.3-0.4,0.4-0.7c0.2-0.2,0.3-0.5,0.4-0.7c0.1-0.1,0.1-0.2,0.2-0.3
			c0.1-0.1,0.1-0.3,0.2-0.4c0.1-0.2,0.2-0.3,0.2-0.5c0.1-0.1,0.1-0.2,0.2-0.4c0-0.1,0.1-0.2,0.1-0.3c0,0,0-0.1,0-0.1
			c0-0.1,0.1-0.2,0.1-0.3c0,0,0-0.1,0-0.1c0-0.1,0-0.1,0.1-0.2c0-0.1,0-0.1,0.1-0.2c0-0.1,0.1-0.2,0.1-0.3c0-0.1,0.1-0.2,0.1-0.3
			c0.1-0.2,0.1-0.3,0.1-0.5c0,0,0,0,0-0.1c0-0.1,0.1-0.3,0.1-0.4c0,0,0,0,0-0.1c0,0,0,0,0,0c0.1-0.3,0.1-0.5,0.2-0.8c0,0,0,0,0,0
			c0-0.1,0-0.1,0-0.2c0-0.1,0-0.2,0-0.3c0-0.1,0-0.3,0.1-0.4v0c0-0.1,0-0.3,0.1-0.4l0,0c0-0.1,0-0.1,0-0.1c0-0.1,0-0.1,0-0.2
			c0,0,0-0.1,0-0.1c0,0,0-0.1,0-0.1c0-0.1,0-0.2,0-0.3c0,0,0-0.1,0-0.1c0-0.1,0-0.2,0-0.3v-0.1c0-0.1,0-0.1,0-0.2c0-0.1,0-0.2,0-0.3
			c0-0.1,0-0.3,0-0.4c0-0.3,0-0.6,0-0.9c0-0.1,0-0.3,0-0.4c0-0.1,0-0.2,0-0.2c0-0.1,0-0.2,0-0.2v0c0-0.1,0-0.3,0-0.4
			c0,0,0-0.1,0-0.1c0-0.3-0.1-0.5-0.1-0.8c0-0.1,0-0.2,0-0.3c0-0.1,0-0.2-0.1-0.4c0-0.1,0-0.1,0-0.2c0-0.2-0.1-0.4-0.1-0.6
			c0,0,0,0,0,0c-0.1-0.2-0.1-0.4-0.2-0.6c0-0.1-0.1-0.3-0.1-0.4c0-0.1-0.1-0.3-0.1-0.4c0-0.1-0.1-0.3-0.2-0.4
			c-0.1-0.2-0.2-0.5-0.3-0.7c-0.1-0.1-0.1-0.3-0.2-0.4c-0.1-0.3-0.2-0.5-0.4-0.7c0-0.1-0.1-0.1-0.1-0.2c-0.1-0.1-0.1-0.2-0.2-0.3
			c0,0-0.1-0.1-0.1-0.1c0,0,0-0.1,0-0.1c-0.1-0.1-0.1-0.2-0.2-0.3c-0.1-0.2-0.2-0.4-0.3-0.5c-0.1-0.2-0.2-0.3-0.3-0.5
			c-0.1-0.1-0.2-0.3-0.3-0.4c-0.1-0.2-0.3-0.4-0.4-0.5c0,0,0,0,0,0c-0.1-0.1-0.2-0.2-0.3-0.3c-0.1-0.2-0.3-0.3-0.4-0.5
			c-0.1-0.2-0.3-0.3-0.4-0.4c-0.1-0.1-0.2-0.2-0.3-0.3c-0.1-0.1-0.2-0.2-0.3-0.3c0,0,0,0,0,0c-0.2-0.1-0.3-0.3-0.5-0.4
			c-0.1-0.1-0.3-0.3-0.5-0.4c0,0,0,0-0.1,0c-0.1-0.1-0.2-0.1-0.3-0.2c-0.3-0.2-0.5-0.4-0.8-0.6c-0.1-0.1-0.3-0.2-0.4-0.3
			c-0.1-0.1-0.3-0.2-0.4-0.3c-0.1-0.1-0.2-0.1-0.3-0.2c-0.2-0.1-0.5-0.3-0.7-0.4c0,0,0,0,0,0c-0.1-0.1-0.3-0.2-0.4-0.2
			c-0.1-0.1-0.2-0.1-0.3-0.1c-0.1,0-0.2-0.1-0.2-0.1c0,0-0.1,0-0.1-0.1c-0.2-0.1-0.3-0.2-0.5-0.2c0,0,0,0-0.1,0c0,0,0,0-0.1,0
			c-0.1,0-0.2-0.1-0.4-0.1c-0.2-0.1-0.4-0.2-0.6-0.2c-0.2-0.1-0.5-0.2-0.7-0.2c-0.1,0-0.1,0-0.2-0.1c-0.1,0-0.3-0.1-0.4-0.1
			c-0.1,0-0.1,0-0.2,0c-0.2,0-0.3-0.1-0.5-0.1c0,0-0.1,0-0.1,0c0,0,0,0,0,0c0,0,0,0,0,0c-0.2-0.1-0.5-0.1-0.7-0.1c0,0-0.1,0-0.1,0
			c-0.1,0-0.2,0-0.2,0c0,0,0,0,0,0h0c-0.1,0-0.2,0-0.3,0c0,0,0,0,0,0c-0.1,0-0.1,0-0.2,0c-0.1,0-0.1,0-0.2,0h0c-0.1,0-0.3,0-0.4,0h0
			c-0.1,0-0.3,0-0.4,0c0.1,0,0.2,0,0.3,0c9.4-0.7,16.7-8.5,16.7-18c0-10-8.1-18.1-18-18.1c-4.6,0-8.8,1.7-11.9,4.5
			c0,0-0.1,0.1-0.1,0.1c2.9-3.2,4.7-7.5,4.7-12.1c0-10-8.1-18.1-18-18.1c-10,0-18.1,8.1-18.1,18.1c0-0.2,0-0.3,0-0.5
			c-0.3-9.8-8.2-17.6-18-17.6c-10,0-18.1,8.1-18.1,18.1c0,4.7,1.8,8.9,4.7,12.1c-0.1-0.1-0.1-0.1-0.2-0.2c-3.2-2.8-7.3-4.5-11.9-4.5
			c-10,0-18,8.1-18,18.1c0,0.4,0,0.8,0,1.2c0,0.1,0,0.1,0,0.2c0,0.3,0,0.5,0.1,0.8c0.1,0.6,0.1,1.1,0.3,1.7c0.1,0.3,0.1,0.6,0.2,0.8
			c0,0,0,0.1,0,0.1c0.1,0.3,0.1,0.5,0.2,0.8c0.3,0.8,0.6,1.7,1,2.4c0.1,0.2,0.2,0.5,0.4,0.7c0.2,0.3,0.4,0.7,0.6,1
			c0.1,0.2,0.3,0.5,0.5,0.7c0.1,0.2,0.3,0.4,0.5,0.7c0.3,0.4,0.6,0.7,0.9,1.1c0.3,0.3,0.6,0.6,0.9,0.9c0.1,0.1,0.3,0.3,0.4,0.4
			c0,0,0,0,0.1,0.1c0.2,0.2,0.4,0.4,0.7,0.6c0.3,0.2,0.6,0.5,0.9,0.7c0.3,0.2,0.6,0.4,0.9,0.6h0c0.3,0.2,0.5,0.3,0.8,0.5
			c1,0.5,2.1,1,3.2,1.4c0.3,0.1,0.6,0.2,0.9,0.3c0.3,0.1,0.6,0.1,0.9,0.2c0.2,0,0.3,0.1,0.5,0.1c0.3,0.1,0.5,0.1,0.8,0.1
			c0.3,0,0.7,0.1,1.1,0.1c0.1,0,0.2,0,0.3,0c-0.6,0-1.2,0.1-1.8,0.2"/>
		<path class="st12" d="M317,77.1c-1,1-1.6,2.3-1.6,3.8h-37.6c-0.2,0-0.4,0-0.6,0c-0.2,0-0.4,0-0.6,0h-0.8c-0.4,0-0.7-0.1-1.1-0.1
			c-0.3,0-0.5-0.1-0.8-0.1c-0.2,0-0.3-0.1-0.5-0.1c-0.3-0.1-0.6-0.1-0.9-0.2c-0.3-0.1-0.6-0.2-0.9-0.3c-1.1-0.4-2.2-0.8-3.2-1.4
			c-0.3-0.1-0.5-0.3-0.8-0.5h0c-0.3-0.2-0.6-0.4-0.9-0.6c-0.3-0.2-0.6-0.4-0.9-0.7c-0.2-0.2-0.5-0.4-0.7-0.6l-0.1-0.1
			c-0.1-0.1-0.3-0.3-0.4-0.4c-0.3-0.3-0.6-0.6-0.9-0.9c-0.3-0.3-0.6-0.7-0.9-1.1c-0.2-0.2-0.3-0.4-0.5-0.7c-0.2-0.2-0.3-0.4-0.5-0.7
			c-0.2-0.3-0.4-0.7-0.6-1c-0.1-0.2-0.2-0.4-0.4-0.7c-0.4-0.8-0.7-1.6-1-2.4c-0.1-0.3-0.2-0.5-0.2-0.8c0,0,0-0.1,0-0.1
			c-0.1-0.3-0.1-0.6-0.2-0.8c-0.1-0.5-0.2-1.1-0.3-1.7c0-0.3-0.1-0.5-0.1-0.8c0-0.1,0-0.1,0-0.2c0-0.4,0-0.8,0-1.2
			c0-10,8.1-18.1,18-18.1c4.6,0,8.7,1.7,11.9,4.5l0.5,0.5c0.2,0.2,0.4,0.4,0.6,0.6l0.6,0.6L317,77.1z"/>
		<path class="st12" d="M382.3,62.9c0,9.5-7.4,17.3-16.7,18h-0.7c-0.2,0-0.4,0-0.6,0c-0.2,0-0.3,0-0.5,0H326c0-1.5-0.6-2.8-1.6-3.8
			l26.2-26.2l0.4-0.4c0.3-0.3,0.6-0.6,0.9-0.9l0.3-0.3c3.2-2.8,7.4-4.5,11.9-4.5C374.2,44.8,382.3,52.9,382.3,62.9z"/>
	</g>
	<path class="st12" d="M278.2,80.9c-0.3,0-0.7,0-1,0c-0.3,0-0.7,0-1,0c0.1,0,0.3,0,0.4,0c0.2,0,0.4,0,0.6,0c0.2,0,0.4,0,0.6,0
		C277.9,80.9,278.1,80.9,278.2,80.9z"/>
	<path class="st12" d="M270.3,114.2c-0.7,0.1-1.4,0.2-2.1,0.3c-0.1,0-0.3,0-0.4,0.1c-2.1,0.3-4.2,0.6-6.4,1c-3.9,0.5-8,1.1-12.2,1.5
		c-24.8,2.8-54.9,4.5-87.4,4.5c-81.8,0-148.5-10.5-153-23.8c0,0,0,0,0,0c0,0,0-0.1,0-0.1c-0.1-0.4-0.2-0.9-0.2-1.3
		c0-13.9,68.6-25.2,153.2-25.2c33.8,0,65,1.8,90.4,4.9c1.5,0.2,3,0.4,4.4,0.6c3.9,0.5,7.6,1,11.2,1.6h0c5.2,0.8,10.1,1.7,14.5,2.6
		c0.3,0.1,0.6,0.1,1,0.2h-8.8"/>
	<path class="st12" d="M283.3,81.1c19.9,4.2,31.7,9.6,31.7,15.3c0,0.4-0.1,0.9-0.2,1.3c0,0,0,0.1,0,0.1c0,0,0,0,0,0
		c-1,3-5.2,5.9-12.1,8.5c-5.1,2-11.6,3.8-19.4,5.4"/>
	<g>
		<path class="st12" d="M279.6,763.9c0.6,0.8,0.9,1.6,0.9,2.4c0,10.8-53.2,19.5-118.8,19.5s-118.8-8.7-118.8-19.5
			c0-0.8,0.3-1.7,0.9-2.4"/>
		<path class="st12" d="M21.3,181.1c-0.3-1.8-0.5-3.5-0.8-5.3"/>
		<path class="st12" d="M28.3,231.6c22.1,166.1,50.5,437.6,15.6,532.3c-0.3,0.8-0.6,1.6-0.9,2.4"/>
		<path class="st12" d="M16.4,147.2c-4-26.7-6.8-44.4-7.6-49.4c0,0,0,0,0,0c0,0,0-0.1,0-0.1c-0.1-0.9-0.2-1.3-0.2-1.3"/>
		<path class="st12" d="M266,691c-0.3-3.4-0.5-6.9-0.8-10.4"/>
		<path class="st12" d="M270.7,728.5c2.3,13.5,5.3,25.4,9,35.4c0.3,0.8,0.6,1.6,0.9,2.4"/>
		<path class="st12" d="M263.3,615.6c0.3-155.9,29.2-370.1,43.7-467.3v0c0.3-2.2,0.6-4.3,1-6.4h0c0.1-0.5,0.1-1,0.2-1.4
			c0.1-0.9,0.3-1.8,0.4-2.7c3.2-21.4,5.5-35.6,6.2-39.9c0,0,0,0,0,0c0,0,0-0.1,0-0.1c0.1-0.9,0.2-1.3,0.2-1.3"/>
	</g>
	<path class="st12" d="M283.3,111.8c-4,0.9-8.3,1.7-13,2.4"/>
	<line class="st12" x1="267.8" y1="114.6" x2="267.8" y2="114.3"/>
	<path class="st7" d="M289,163.7c-79.3,548.2-49.9,548.3-42,569.1c2,5.4,0.6,9.2-2.6,11.9c-10.1,11.1-43.3,19.2-82.8,19.2
		c-38.1,0-70.4-7.5-81.7-18c-7.6-5-3.9-11.8-3.9-11.8c39.4-158.4-36.3-544.5-41.4-570.1c-0.2-0.9-0.3-1.3-0.3-1.3h254.8
		C289.1,163.1,289,163.4,289,163.7z"/>
	<path class="st11" d="M166.5,333.1l-61.9,15.5c-9.6,2.4-19.4-3.5-21.8-13.1l-14.9-59.5c-2.4-9.6,3.5-19.4,13.1-21.8l61.9-15.5
		c9.6-2.4,19.4,3.5,21.8,13.1l14.9,59.5C182,320.8,176.1,330.7,166.5,333.1z"/>
	<path class="st11" d="M193.6,446L132,429.1c-9.5-2.6-15.2-12.6-12.6-22.1l16.3-59.1c2.6-9.5,12.6-15.2,22.1-12.6l61.6,16.9
		c9.5,2.6,15.2,12.6,12.6,22.1l-16.3,59.1C213.1,443,203.1,448.7,193.6,446z"/>
	<ellipse class="st4" cx="161.7" cy="162.8" rx="127.4" ry="21"/>
</g>
</svg>
