<?xml version="1.0" encoding="utf-8"?>
<!-- Generator: Adobe Illustrator 23.1.1, SVG Export Plug-In . SVG Version: 6.00 Build 0)  -->
<svg version="1.1" xmlns="http://www.w3.org/2000/svg" xmlns:xlink="http://www.w3.org/1999/xlink" x="0px" y="0px"
	 viewBox="0 0 531.1 792" style="enable-background:new 0 0 531.1 792;" xml:space="preserve">
<style type="text/css">
	.st0{display:none;}
	.st1{display:inline;fill:#C5CAD6;}
	.st2{fill:none;stroke:#383735;stroke-width:7;stroke-linecap:round;stroke-miterlimit:10;}
	.st3{fill:none;stroke:#000000;stroke-width:5;stroke-miterlimit:10;}
	.st4{fill:#9B450B;}
	.st5{fill:#383735;}
	.st6{fill:#273244;}
	.st7{fill:#BC520A;}
	.st8{fill:#C5CAD6;}
	.st9{fill:none;stroke:#383735;stroke-width:7;stroke-linecap:round;stroke-linejoin:round;stroke-miterlimit:10;}
	.st10{fill:none;stroke:#383735;stroke-width:2;stroke-linecap:round;stroke-linejoin:round;stroke-miterlimit:10;}
	.st11{fill:none;stroke:#383735;stroke-width:7;stroke-miterlimit:10;}
	.st12{fill:none;stroke:#383735;stroke-width:5;stroke-linecap:round;stroke-linejoin:round;stroke-miterlimit:10;}
</style>
<g id="Layer_2" class="st0">
	<rect x="-141.6" y="-26.2" class="st1" width="664.1" height="842"/>
</g>
<g id="Layer_1">
	
		<image style="overflow:visible;" width="359" height="600" xlink:href="../../../../../cocktail_glass_icons_collection_handdrawn_outline_6833759-1.jpg"  transform="matrix(2.6718 0 0 2.6718 45.5298 954.8202)">
	</image>
	<path class="st2" d="M-243.4,291h-116c-3.2,0-5.8-2.6-5.8-5.8V172.3c0-3.2,2.6-5.8,5.8-5.8h116c3.2,0,5.8,2.6,5.8,5.8v112.8
		C-237.5,288.3-240.1,291-243.4,291z"/>
	<g>
		<circle class="st2" cx="-662.1" cy="201.8" r="28.3"/>
		<line class="st2" x1="-662.5" y1="141.2" x2="-662.5" y2="359.2"/>
	</g>
	<circle class="st2" cx="-766.7" cy="201.8" r="20.1"/>
	<line class="st2" x1="-767.2" y1="141.2" x2="-767.2" y2="419.5"/>
	<path class="st3" d="M-238.8,723.8c0,0.1,0,0.2,0.1,0.4c-0.1-0.3-0.1-0.6-0.2-0.9C-238.9,723.5-238.8,723.6-238.8,723.8z"/>
	<path class="st3" d="M-238.6,725.3c-0.1-0.4-0.1-0.8-0.2-1.1c0,0.2,0.1,0.4,0.1,0.6C-238.6,725-238.6,725.1-238.6,725.3z"/>
	<path class="st3" d="M-238.4,726.8c0-0.3-0.1-0.6-0.1-0.9c0,0.2,0.1,0.4,0.1,0.7C-238.4,726.7-238.4,726.7-238.4,726.8z"/>
	<path class="st3" d="M-238.5,725.9c0-0.2-0.1-0.4-0.1-0.6C-238.5,725.5-238.5,725.7-238.5,725.9z"/>
	<path class="st3" d="M-238.3,727.8c0-0.3-0.1-0.6-0.1-1c0,0.1,0,0.3,0,0.4C-238.3,727.4-238.3,727.6-238.3,727.8z"/>
	<path class="st3" d="M-238.1,729.9c0-0.7-0.1-1.4-0.2-2.1c0,0.4,0.1,0.8,0.1,1.1c0,0.1,0,0.2,0,0.3
		C-238.1,729.5-238.1,729.7-238.1,729.9z"/>
	<g>
		<circle class="st4" cx="-394.5" cy="687.5" r="164.7"/>
		<g>
			<path class="st2" d="M-456.5,759.7c-0.3,0.3-0.6,0.7-0.9,1c-0.5,0.6-1.1,1.2-1.6,1.7c-0.1,0.1-0.2,0.2-0.3,0.3
				c-0.5,0.5-1.1,1-1.6,1.5c-0.2,0.2-0.5,0.5-0.8,0.7l2.4-2.4L-456.5,759.7z"/>
			<path class="st2" d="M-488.2,688.8h1.8c-0.3,0-0.5,0-0.8,0c-0.8,0-1.6,0.1-2.4,0.1s-1.6,0-2.4-0.1c-0.3,0-0.5,0-0.8,0h1.8
				c0.5,0,0.9,0,1.3,0S-488.7,688.8-488.2,688.8z"/>
			<path class="st2" d="M-457.6,616.7c0.2,0.2,0.4,0.4,0.5,0.6l-1.5-1.5l-1.5-1.5l-1.2-1.2c0.2,0.1,0.3,0.3,0.4,0.4
				C-459.6,614.5-458.6,615.6-457.6,616.7L-457.6,616.7z"/>
			<path class="st2" d="M-385.6,584.5c0,0.4,0,0.7,0,1.1v-2.2C-385.6,583.8-385.6,584.2-385.6,584.5z"/>
			<path class="st2" d="M-372.8,688.8c0,3.5-1.4,6.7-3.7,9s-5.5,3.7-9,3.7s-6.7-1.4-9-3.7c-2.3-2.3-3.7-5.5-3.7-9s1.4-6.7,3.7-9
				c2.3-2.3,5.5-3.7,9-3.7s6.7,1.4,9,3.7C-374.3,682.1-372.8,685.3-372.8,688.8z"/>
			<path class="st2" d="M-385.6,794.6v-2.7c0,0.2,0,0.4,0,0.6v0.2v0.5c0,0.1,0,0.2,0,0.4c0,0.1,0,0.1,0,0.2
				c0.3,23.7,19.6,42.8,43.3,42.8c23.9,0,43.3-19.4,43.3-43.3c0-10.7-3.9-20.5-10.4-28.1c-1.8-1.5-3.5-3.2-5-5
				c-0.2-0.2-0.4-0.5-0.6-0.8l1.6,1.6l3.4,3.4l1.2,1.2"/>
			<path class="st2" d="M-385.6,853.2c45.4,0,86.5-18.4,116.3-48.2"/>
			<path class="st2" d="M-312.9,616.1l-1,1c0.1-0.2,0.2-0.3,0.4-0.4c1-1.1,2-2.1,3.1-3.1c0,0,0,0,0,0c0.1-0.1,0.2-0.2,0.3-0.3
				l-0.7,0.7C-311.5,614.7-312.2,615.4-312.9,616.1z"/>
			<path class="st2" d="M-285.5,689c-0.1,0-0.2,0-0.4,0c0,0,0,0,0,0C-285.8,689-285.7,689-285.5,689z"/>
			<path class="st2" d="M-284.2,688.9c-0.2,0-0.5,0-0.7,0c0.1,0,0.3,0,0.5,0C-284.3,688.9-284.2,688.9-284.2,688.9z"/>
			<path class="st2" d="M-278.4,688.8c-0.2,0-0.4,0-0.6,0h-0.1c-0.8,0.1-1.6,0.1-2.4,0.1c-0.8,0-1.5,0-2.2-0.1h-0.1
				c-0.3,0-0.6,0-0.9-0.1h2.1c0.4,0,0.8,0,1.2,0c0.5,0,0.9,0,1.3,0H-278.4z"/>
			<path class="st2" d="M-278,688.9L-278,688.9c-0.4,0-0.7,0-1-0.1C-278.7,688.8-278.4,688.8-278,688.9
				C-278,688.9-278,688.9-278,688.9z"/>
			<path class="st2" d="M-276.5,689c-0.2,0-0.3,0-0.5-0.1h0c-0.2,0-0.4,0-0.5,0c0.2,0,0.4,0,0.6,0C-276.8,689-276.6,689-276.5,689z"
				/>
			<path class="st2" d="M-240.7,717.1c0-0.1-0.1-0.3-0.2-0.4c-0.2-0.5-0.4-1-0.6-1.5c-0.2-0.4-0.3-0.8-0.5-1.2
				c-0.2-0.4-0.3-0.8-0.5-1.2c-0.1-0.2-0.2-0.5-0.4-0.7c-0.1-0.3-0.3-0.5-0.4-0.8c-0.1-0.1-0.1-0.2-0.2-0.3
				c-0.2-0.4-0.5-0.9-0.7-1.3c-0.3-0.5-0.6-0.9-0.9-1.4c-0.3-0.5-0.6-0.9-0.9-1.3v0c-0.3-0.4-0.6-0.9-1-1.3s-0.7-0.8-1-1.2
				c-0.3-0.4-0.6-0.8-1-1.1c-0.1-0.1-0.1-0.2-0.2-0.2c-0.3-0.3-0.6-0.7-0.9-1c0,0,0-0.1-0.1-0.1c-0.4-0.4-0.7-0.7-1.1-1.1
				c-0.3-0.3-0.7-0.6-1-0.9c-0.5-0.4-0.9-0.8-1.4-1.2c-0.4-0.3-0.8-0.7-1.2-1c-0.5-0.4-1-0.8-1.5-1.1c-0.3-0.2-0.7-0.5-1-0.7
				c-0.3-0.2-0.6-0.4-0.9-0.6c-0.3-0.2-0.7-0.4-1-0.6c-0.6-0.4-1.2-0.7-1.8-1c-0.2-0.1-0.5-0.3-0.8-0.4c-0.4-0.2-0.8-0.4-1.3-0.6
				c-0.5-0.2-1-0.5-1.5-0.7c-0.4-0.2-0.8-0.3-1.2-0.5c-0.3-0.1-0.7-0.3-1-0.4c-0.1,0-0.3-0.1-0.4-0.1c-0.3-0.1-0.6-0.2-0.8-0.3
				c-0.2-0.1-0.5-0.2-0.7-0.2c-0.2-0.1-0.5-0.1-0.7-0.2c-0.3-0.1-0.6-0.2-0.9-0.2c-0.2-0.1-0.4-0.1-0.6-0.2c-0.3-0.1-0.6-0.2-1-0.2
				c-0.7-0.2-1.4-0.3-2.1-0.4c-0.3,0-0.6-0.1-0.9-0.1c0.2,0,0.4,0.1,0.6,0.1h0c0.5,0.1,1,0.2,1.4,0.3c0.2,0,0.4,0.1,0.6,0.1
				c0,0,0.1,0,0.1,0c0,0,0.1,0,0.1,0c0.5,0.1,0.9,0.2,1.4,0.3c0.1,0,0.3,0.1,0.4,0.1c0.5,0.1,0.9,0.2,1.4,0.4
				c0.6,0.2,1.2,0.4,1.8,0.6c0.5,0.2,1,0.3,1.5,0.5c0.3,0.1,0.6,0.2,0.8,0.3c0.5,0.2,1.1,0.5,1.6,0.7c0.3,0.1,0.5,0.2,0.8,0.4
				c0.6,0.3,1.2,0.6,1.7,0.9c0,0,0,0,0,0c0.6,0.3,1.1,0.6,1.7,1c0.3,0.2,0.6,0.3,0.8,0.5c0.3,0.2,0.7,0.4,1,0.6
				c0.3,0.2,0.7,0.4,1,0.7c0.6,0.5,1.3,0.9,1.9,1.4c0.2,0.2,0.4,0.3,0.6,0.5c0,0,0.1,0.1,0.1,0.1c0.4,0.3,0.8,0.6,1.1,1
				c0.4,0.3,0.8,0.7,1.1,1c0,0,0,0,0.1,0.1c0.2,0.2,0.5,0.4,0.7,0.7c0.2,0.2,0.5,0.5,0.7,0.7c0.3,0.4,0.7,0.7,1,1.1
				c0.3,0.4,0.6,0.7,0.9,1.1c0.2,0.2,0.4,0.5,0.6,0.8c0,0,0,0,0.1,0.1c0.3,0.4,0.7,0.9,1,1.3c0.2,0.3,0.5,0.7,0.7,1
				c0.3,0.4,0.5,0.8,0.8,1.2c0.3,0.4,0.5,0.8,0.8,1.2c0.2,0.3,0.3,0.6,0.5,0.9c0.3,0.6,0.6,1.1,0.9,1.7c0.3,0.6,0.6,1.2,0.8,1.8
				c0.1,0.3,0.3,0.6,0.4,0.9c0.4,0.9,0.7,1.8,1.1,2.8c0.1,0.3,0.2,0.6,0.3,1c0.1,0.3,0.2,0.6,0.3,1c0.1,0.5,0.3,1,0.4,1.5
				c0,0,0,0.1,0,0.1c0.1,0.5,0.2,0.9,0.3,1.4c0,0.1,0.1,0.3,0.1,0.4c-0.2-1.1-0.5-2.2-0.8-3.2C-240,719.1-240.3,718.1-240.7,717.1z"
				/>
			<path class="st2" d="M-372.8,688.8c0,3.5-1.4,6.7-3.7,9s-5.5,3.7-9,3.7s-6.7-1.4-9-3.7c-2.3-2.3-3.7-5.5-3.7-9s1.4-6.7,3.7-9
				c2.3-2.3,5.5-3.7,9-3.7s6.7,1.4,9,3.7C-374.3,682.1-372.8,685.3-372.8,688.8z"/>
			<line class="st2" x1="-279.9" y1="688.8" x2="-282.6" y2="688.8"/>
			<line class="st2" x1="-488.2" y1="688.8" x2="-490.9" y2="688.8"/>
			<line class="st2" x1="-458.5" y1="615.8" x2="-460" y2="614.3"/>
			<line class="st2" x1="-310.8" y1="614" x2="-312.9" y2="616.1"/>
			<path class="st2" d="M-385.6,583.4V676c-3.5,0-6.7,1.4-9,3.7l-62.5-62.5c-0.2-0.2-0.3-0.4-0.5-0.6l0,0c-1-1.1-2-2.1-3.1-3.1
				c-7-7.7-11.2-17.9-11.2-29c0-23.8,19.3-43.2,43.2-43.2C-405.3,541.3-386.2,560.1-385.6,583.4z"/>
			<path class="st2" d="M-457.6,616.7c-0.3-0.3-0.6-0.6-0.9-0.9l-1.5-1.5c-0.2-0.2-0.5-0.5-0.7-0.8
				C-459.6,614.5-458.6,615.6-457.6,616.7z"/>
			<path class="st2" d="M-385.6,584.5c0,0.4,0,0.7,0,1.1v-2.2C-385.6,583.8-385.6,584.2-385.6,584.5z"/>
			<path class="st2" d="M-299.2,584.5c0,11.2-4.2,21.4-11.2,29c0,0,0,0,0,0c-1.1,1-2.1,2-3.1,3.1c-0.1,0.1-0.3,0.3-0.4,0.4
				l-62.7,62.7c-2.3-2.3-5.5-3.7-9-3.7v-90.4c0-0.4,0-0.7,0-1.1c0-23.8,19.3-43.2,43.2-43.2S-299.2,560.7-299.2,584.5z"/>
			<path class="st2" d="M-310.4,613.6c-0.1,0.1-0.3,0.3-0.4,0.5c-0.6,0.7-1.3,1.4-2,2c-0.2,0.2-0.4,0.4-0.6,0.6
				C-312.5,615.6-311.5,614.5-310.4,613.6z"/>
			<path class="st2" d="M-298.9,793.3c0,23.9-19.4,43.3-43.3,43.3c-23.7,0-43-19.1-43.3-42.8c0-0.1,0-0.1,0-0.2c0-0.1,0-0.2,0-0.4
				v-0.7c0-0.2,0-0.4,0-0.6v-90.4c3.5,0,6.7-1.4,9-3.7l61.6,61.6c0.2,0.2,0.4,0.5,0.6,0.8c1.5,1.8,3.2,3.5,5,5
				C-302.8,772.7-298.9,782.5-298.9,793.3z"/>
			<path class="st2" d="M-385.6,793.3c0-0.2,0-0.4,0-0.6L-385.6,793.3c0,0.1,0,0.2,0,0.4V793.3z"/>
			<path class="st2" d="M-309.3,765.2c-1.8-1.5-3.5-3.2-5-5c0.3,0.3,0.6,0.5,0.9,0.8c0.3,0.3,0.7,0.6,1,0.9l0.6,0.6
				c0.1,0.1,0.2,0.2,0.3,0.3c0,0,0.1,0.1,0.2,0.2c0.1,0.1,0.1,0.1,0.2,0.2c0.4,0.4,0.7,0.8,1.1,1.2
				C-309.7,764.6-309.5,764.9-309.3,765.2z"/>
			<path class="st2" d="M-385.5,792.5v0.7c0,0.1,0,0.2,0,0.4c0,0.1,0,0.1,0,0.2c0,0.3,0,0.5,0,0.8v-2.7
				C-385.6,792.1-385.6,792.3-385.5,792.5z"/>
			<path class="st2" d="M-385.6,701.5v93.1c-0.7,23.2-19.8,41.9-43.2,41.9c-23.9,0-43.2-19.3-43.2-43.2c0-11.9,4.8-22.6,12.6-30.4
				c0.1-0.1,0.2-0.2,0.3-0.3c0.6-0.6,1.1-1.1,1.6-1.7c0.3-0.3,0.6-0.7,0.9-1l62-62C-392.2,700.1-389.1,701.5-385.6,701.5z"/>
			<path class="st2" d="M-284.2,688.9c-0.2,0-0.5,0-0.7,0c0.1,0,0.3,0,0.5,0C-284.3,688.9-284.2,688.9-284.2,688.9z"/>
			<path class="st2" d="M-385.6,853.2c-90.8,0-164.5-73.6-164.5-164.5s73.6-164.5,164.5-164.5c90.8,0,164.5,73.6,164.5,164.5
				c0,45.4-18.4,86.5-48.2,116.3"/>
			<path class="st2" d="M-308.7,765.6l-1.2-1.2l-3.4-3.4c0.3,0.3,0.7,0.6,1,0.9l0.6,0.6c0.1,0.1,0.2,0.2,0.3,0.3
				c0,0,0.1,0.1,0.1,0.2c0.1,0.1,0.1,0.1,0.2,0.2c0.4,0.4,0.8,0.8,1.2,1.1c0.1,0.1,0.2,0.2,0.3,0.3c0.4,0.3,0.7,0.6,1.1,0.9
				c0,0,0,0,0.1,0.1c0.5,0.4,0.9,0.7,1.4,1c0.5,0.4,0.9,0.7,1.4,1c0.3,0.2,0.5,0.4,0.8,0.5c0.3,0.2,0.6,0.4,0.9,0.5
				c0.3,0.2,0.5,0.3,0.8,0.5c0,0,0,0,0,0c0.1,0.1,0.3,0.2,0.4,0.3c0.3,0.2,0.5,0.3,0.8,0.5c0.8,0.4,1.6,0.8,2.4,1.2
				c0.3,0.2,0.6,0.3,0.9,0.4c0.3,0.1,0.6,0.3,0.9,0.4c1.1,0.5,2.3,0.9,3.5,1.2c0.3,0.1,0.7,0.2,1,0.3c0.7,0.2,1.4,0.4,2.1,0.5
				c0.4,0.1,0.7,0.2,1.1,0.2c0.3,0.1,0.6,0.1,0.9,0.2c0.3,0,0.6,0.1,0.8,0.2c0.5,0.1,1,0.1,1.5,0.2c0.3,0,0.6,0.1,0.8,0.1
				c0.2,0,0.4,0,0.6,0.1c0.3,0,0.5,0,0.8,0.1c0.7,0,1.3,0.1,2,0.1c0.4,0,0.8,0,1.3,0c0.4,0,0.8,0,1.2,0c0.7,0,1.4-0.1,2.1-0.1
				c0.2,0,0.3,0,0.5,0c0.5,0,1-0.1,1.6-0.2c0.1,0,0.1,0,0.2,0c0.3,0,0.7-0.1,1-0.1c0.7-0.1,1.4-0.2,2.1-0.4c0.4-0.1,0.7-0.2,1-0.2
				c0.4-0.1,0.9-0.2,1.3-0.3c0.1,0,0.3-0.1,0.4-0.1c0.4-0.1,0.8-0.2,1.2-0.4c0.4-0.1,0.8-0.2,1.1-0.4c0.2-0.1,0.3-0.1,0.5-0.2
				c0.4-0.1,0.8-0.3,1.2-0.5c0.3-0.1,0.6-0.2,1-0.4c0.3-0.1,0.6-0.3,1-0.4c0.3-0.1,0.5-0.2,0.8-0.4c0.4-0.2,0.7-0.3,1.1-0.5
				c0.3-0.1,0.6-0.3,0.9-0.5c0.3-0.1,0.5-0.3,0.8-0.4c0.3-0.2,0.7-0.4,1-0.6c0.3-0.2,0.6-0.4,0.9-0.5c0.3-0.2,0.6-0.4,0.9-0.6
				c0.3-0.2,0.6-0.4,0.9-0.6c0.6-0.4,1.1-0.8,1.6-1.2c0.3-0.2,0.5-0.4,0.8-0.6c0.3-0.2,0.5-0.4,0.8-0.6c0.3-0.2,0.5-0.4,0.8-0.7
				c0.2-0.2,0.5-0.4,0.8-0.7c0.2-0.2,0.5-0.5,0.7-0.7c1-1,1.9-2,2.8-3c0,0,0,0,0,0c0.2-0.2,0.4-0.5,0.6-0.7c0.3-0.4,0.7-0.8,1-1.3
				c0.3-0.4,0.6-0.9,0.9-1.3c0.4-0.5,0.7-1,1.1-1.6c0.3-0.5,0.7-1.1,1-1.7c0.1-0.2,0.3-0.5,0.4-0.7c0.2-0.3,0.4-0.7,0.5-1
				c0.2-0.4,0.4-0.8,0.6-1.2c0.1-0.3,0.3-0.6,0.4-0.8c0.1-0.2,0.2-0.5,0.3-0.7c0-0.1,0.1-0.2,0.1-0.2c0.1-0.2,0.2-0.5,0.3-0.8v0
				c0-0.1,0.1-0.2,0.1-0.3c0.1-0.1,0.1-0.3,0.2-0.5c0.1-0.1,0.1-0.3,0.2-0.5c0.1-0.3,0.2-0.5,0.3-0.8c0.1-0.2,0.2-0.5,0.2-0.8
				c0.1-0.4,0.2-0.7,0.3-1.1c0-0.1,0-0.1,0-0.1c0.1-0.3,0.2-0.7,0.3-1c0,0,0-0.1,0-0.1c0,0,0,0,0,0c0.2-0.6,0.3-1.2,0.4-1.8
				c0,0,0-0.1,0-0.1c0-0.2,0.1-0.4,0.1-0.5c0.1-0.2,0.1-0.4,0.1-0.6c0-0.1,0-0.1,0-0.2c0-0.2,0.1-0.5,0.1-0.8c0,0,0,0,0,0
				c0.1-0.3,0.1-0.7,0.1-1c0,0,0,0,0,0c0-0.1,0-0.2,0-0.3c0-0.1,0-0.2,0-0.4c0-0.1,0-0.2,0-0.3c0-0.1,0-0.2,0-0.3
				c0-0.2,0-0.4,0.1-0.6c0-0.1,0-0.2,0-0.3c0-0.3,0.1-0.6,0.1-0.9c0-0.1,0-0.3,0-0.4c0-0.2,0-0.5,0-0.7c0-0.3,0-0.7,0-1
				c0-0.7,0-1.4-0.1-2.2c0-0.2,0-0.4,0-0.6c0-0.1,0-0.2,0-0.3c0-0.4-0.1-0.8-0.1-1.1c0,0,0-0.1,0-0.1c0-0.2,0-0.4-0.1-0.5
				c0-0.1,0-0.3,0-0.4c0-0.1,0-0.1,0-0.2c-0.1-0.6-0.2-1.2-0.3-1.8c0-0.2-0.1-0.4-0.1-0.6c0-0.1,0-0.2-0.1-0.4
				c0-0.2-0.1-0.3-0.1-0.5c0-0.1-0.1-0.3-0.1-0.4c-0.1-0.5-0.2-0.9-0.3-1.4c0,0,0-0.1,0-0.1c-0.1-0.5-0.3-1-0.4-1.5
				c-0.1-0.3-0.2-0.6-0.3-1c-0.1-0.3-0.2-0.6-0.3-1c-0.3-0.9-0.7-1.9-1.1-2.8c-0.1-0.3-0.3-0.6-0.4-0.9c-0.3-0.6-0.6-1.2-0.8-1.8
				c-0.3-0.6-0.6-1.2-0.9-1.7c-0.2-0.3-0.3-0.6-0.5-0.9c-0.2-0.4-0.5-0.8-0.8-1.2c-0.3-0.4-0.5-0.8-0.8-1.2c-0.2-0.3-0.4-0.7-0.7-1
				c-0.3-0.4-0.7-0.9-1-1.3c0,0,0,0-0.1-0.1c-0.2-0.3-0.4-0.5-0.6-0.8c-0.3-0.4-0.6-0.7-0.9-1.1c-0.3-0.4-0.7-0.7-1-1.1
				c-0.2-0.2-0.4-0.5-0.7-0.7c-0.2-0.2-0.5-0.5-0.7-0.7c0,0,0,0-0.1-0.1c-0.4-0.3-0.8-0.7-1.1-1c-0.4-0.3-0.7-0.6-1.1-1
				c0,0-0.1-0.1-0.1-0.1c-0.2-0.2-0.4-0.3-0.7-0.5c-0.6-0.5-1.2-1-1.9-1.4c-0.3-0.2-0.6-0.5-1-0.7c-0.3-0.2-0.6-0.4-1-0.6
				c-0.3-0.2-0.5-0.3-0.8-0.5c-0.6-0.3-1.1-0.7-1.7-1c0,0,0,0,0,0c-0.6-0.3-1.1-0.6-1.7-0.9c-0.3-0.1-0.6-0.3-0.8-0.4
				c-0.5-0.2-1-0.5-1.6-0.7c-0.3-0.1-0.6-0.2-0.9-0.3c-0.5-0.2-1-0.4-1.5-0.5c-0.6-0.2-1.2-0.4-1.8-0.6c-0.5-0.1-0.9-0.3-1.4-0.4
				c-0.1,0-0.3-0.1-0.4-0.1c-0.4-0.1-0.9-0.2-1.4-0.3c0,0-0.1,0-0.1,0s-0.1,0-0.1,0c-0.2,0-0.4-0.1-0.6-0.1c0,0-0.1,0-0.1,0
				c-0.4-0.1-0.7-0.1-1.1-0.2c-0.1,0-0.2,0-0.2,0h0c-0.2,0-0.4-0.1-0.6-0.1c0,0-0.1,0-0.1,0c0,0-0.1,0-0.1,0c-0.3,0-0.5-0.1-0.8-0.1
				c0,0-0.1,0-0.1,0c-0.1,0-0.3,0-0.5,0c-0.1,0-0.3,0-0.4-0.1c-0.3,0-0.7-0.1-1-0.1h-0.1c0,0,0,0,0,0c0,0,0,0,0,0
				c-0.3,0-0.6,0-1-0.1c0.2,0,0.4,0,0.6,0c22.4-1.6,40-20.3,40-43.1c0-23.9-19.3-43.2-43.2-43.2c-11,0-21,4.1-28.6,10.8
				c-0.1,0.1-0.2,0.2-0.3,0.3c7-7.7,11.2-17.9,11.2-29c0-23.8-19.3-43.2-43.2-43.2c-23.9,0-43.2,19.3-43.2,43.2c0-0.4,0-0.7,0-1.1
				c-0.6-23.3-19.7-42.1-43.2-42.1c-23.9,0-43.2,19.3-43.2,43.2c0,11.2,4.2,21.4,11.2,29c-0.1-0.1-0.3-0.3-0.4-0.4
				c-7.6-6.7-17.6-10.7-28.4-10.7c-23.9,0-43.2,19.3-43.2,43.2c0,22.8,17.6,41.5,40,43.1c0.3,0,0.5,0,0.8,0
				c-22.7,1.2-40.8,20.1-40.8,43.1c0,23.8,19.3,43.2,43.2,43.2c10.6,0,20.3-3.8,27.8-10.1c0.3-0.2,0.5-0.4,0.8-0.7
				c0.6-0.5,1.1-1,1.6-1.5c-7.8,7.8-12.6,18.6-12.6,30.4c0,23.8,19.3,43.2,43.2,43.2c23.4,0,42.5-18.6,43.2-41.8"/>
			<path class="st2" d="M-457.4,760.8c-0.5,0.6-1.1,1.2-1.6,1.7c-0.1,0.1-0.2,0.2-0.3,0.3c-0.5,0.5-1.1,1-1.6,1.5
				c0.5-0.6,1.1-1.2,1.6-1.7C-458.7,762-458.1,761.3-457.4,760.8z"/>
			<path class="st2" d="M-394.6,679.8c-2.3,2.3-3.7,5.5-3.7,9h-90c-0.4,0-0.9,0-1.3,0s-0.9,0-1.3,0h-1.8c-22.4-1.6-40-20.3-40-43.1
				c0-23.9,19.3-43.2,43.2-43.2c10.9,0,20.8,4,28.4,10.7l1.2,1.2c0.5,0.5,1,1,1.5,1.5l1.5,1.5L-394.6,679.8z"/>
			<path class="st2" d="M-488.2,688.8h1.8c-0.3,0-0.5,0-0.8,0c-0.8,0-1.6,0.1-2.4,0.1s-1.6,0-2.4-0.1c-0.3,0-0.5,0-0.8,0h1.8
				c0.5,0,0.9,0,1.3,0S-488.7,688.8-488.2,688.8z"/>
			<path class="st2" d="M-457.1,617.3l-1.5-1.5l-1.5-1.5l-1.2-1.2c0.2,0.1,0.3,0.3,0.4,0.4c1.1,1,2.1,2,3.1,3.1l0,0
				C-457.4,616.9-457.2,617.1-457.1,617.3z"/>
			<path class="st2" d="M-238.3,645.7c0,22.8-17.6,41.5-40,43.1h-1.6c-0.5,0-0.9,0-1.3,0c-0.4,0-0.8,0-1.2,0h-90.3
				c0-3.5-1.4-6.7-3.7-9l62.7-62.7l1-1c0.7-0.7,1.4-1.3,2-2l0.7-0.7c7.6-6.7,17.6-10.8,28.6-10.8
				C-257.7,602.5-238.3,621.8-238.3,645.7z"/>
			<path class="st2" d="M-310.4,613.6c0.1-0.1,0.2-0.2,0.3-0.3l-0.7,0.7c-0.6,0.7-1.3,1.4-2,2l-1,1c0.1-0.2,0.2-0.3,0.4-0.4
				C-312.5,615.6-311.5,614.5-310.4,613.6C-310.4,613.6-310.4,613.6-310.4,613.6z"/>
			<path class="st2" d="M-278.4,688.8c-0.2,0-0.4,0-0.6,0h-0.1c-0.8,0.1-1.6,0.1-2.4,0.1c-0.8,0-1.5,0-2.2-0.1h-0.1
				c-0.3,0-0.6,0-0.9-0.1h2.1c0.4,0,0.8,0,1.2,0c0.5,0,0.9,0,1.3,0H-278.4z"/>
			<path class="st2" d="M-394.5,697.8l-62,62l-2.8,2.9l-2.4,2.4c-7.5,6.3-17.2,10.1-27.8,10.1c-23.9,0-43.2-19.3-43.2-43.2
				c0-23.1,18.1-41.9,40.8-43.1c0.8,0,1.6,0.1,2.4,0.1s1.6,0,2.4-0.1c0.3,0,0.5,0,0.8,0h88.1C-398.3,692.3-396.8,695.5-394.5,697.8z
				"/>
			<path class="st2" d="M-487.2,688.8c-0.8,0-1.6,0.1-2.4,0.1s-1.6,0-2.4-0.1c0.3,0,0.7,0,1,0c0.5,0,0.9,0,1.3,0s0.9,0,1.3,0
				C-487.9,688.8-487.5,688.8-487.2,688.8z"/>
			<path class="st2" d="M-456.5,759.7c-0.3,0.3-0.6,0.7-0.9,1c-0.5,0.6-1.1,1.2-1.6,1.7c-0.1,0.1-0.2,0.2-0.3,0.3
				c-0.5,0.5-1.1,1-1.6,1.5c-0.2,0.2-0.5,0.5-0.8,0.7l2.4-2.4L-456.5,759.7z"/>
			<path class="st2" d="M-238.1,729.9c0-0.7-0.1-1.4-0.2-2.1c0,0,0-0.1,0-0.1c0-0.3-0.1-0.6-0.1-1c-0.1-0.9-0.2-1.8-0.4-2.7
				c-0.1-0.3-0.1-0.6-0.2-0.9c-0.2-1.1-0.5-2.2-0.8-3.2c-0.3-1-0.6-2.1-1-3.1c-0.2-0.6-0.5-1.2-0.7-1.8c-0.2-0.4-0.3-0.8-0.5-1.2
				c-0.2-0.4-0.3-0.8-0.5-1.2c-0.1-0.2-0.2-0.5-0.4-0.7c-0.1-0.3-0.3-0.5-0.4-0.8c-0.1-0.1-0.1-0.2-0.2-0.3
				c-0.2-0.4-0.5-0.9-0.7-1.3c-0.3-0.5-0.6-0.9-0.9-1.4c-0.3-0.5-0.6-0.9-0.9-1.3v0c-0.3-0.4-0.6-0.9-1-1.3c-0.3-0.4-0.7-0.8-1-1.2
				c-0.3-0.4-0.6-0.8-1-1.1c-0.1-0.1-0.1-0.2-0.2-0.2c-0.3-0.3-0.6-0.7-0.9-1c0,0,0-0.1-0.1-0.1c-0.4-0.4-0.7-0.7-1.1-1.1
				c-0.3-0.3-0.7-0.6-1-0.9c-0.5-0.4-0.9-0.8-1.4-1.2c-0.4-0.3-0.8-0.7-1.2-1c-0.5-0.4-1-0.8-1.5-1.1c-0.3-0.2-0.7-0.5-1-0.7
				c-0.3-0.2-0.6-0.4-0.9-0.6c-0.3-0.2-0.7-0.4-1-0.6c-0.6-0.4-1.2-0.7-1.8-1c-0.2-0.1-0.5-0.3-0.8-0.4c-0.4-0.2-0.8-0.4-1.3-0.6
				c-0.5-0.2-1-0.4-1.5-0.7c-0.4-0.2-0.8-0.3-1.2-0.5c-0.3-0.1-0.7-0.3-1-0.4c-0.1,0-0.3-0.1-0.4-0.1c-0.3-0.1-0.6-0.2-0.8-0.3
				c-0.2-0.1-0.5-0.2-0.7-0.2c-0.2-0.1-0.5-0.1-0.7-0.2c-0.3-0.1-0.6-0.2-0.9-0.2c-0.2-0.1-0.4-0.1-0.6-0.2c-0.3-0.1-0.6-0.2-1-0.2
				c-0.7-0.2-1.4-0.3-2.1-0.4c-0.3,0-0.6-0.1-0.9-0.1c0,0-0.1,0-0.1,0c0,0-0.1,0-0.1,0c-0.3,0-0.5-0.1-0.8-0.1c0,0-0.1,0-0.1,0
				c-0.2,0-0.3,0-0.5,0c-0.2,0-0.3,0-0.5-0.1h0c-0.2,0-0.4,0-0.5,0c-0.1,0-0.3,0-0.4,0h-0.1c-0.3,0-0.6,0-1-0.1h-0.1
				c-0.8,0.1-1.6,0.1-2.4,0.1c-0.8,0-1.5,0-2.2-0.1h-0.1c-0.1,0-0.2,0-0.3,0c0.1,0,0.1,0,0.2,0c-0.3,0-0.5,0-0.8-0.1h-88.2
				c0,3.5-1.4,6.7-3.7,9l61.6,61.6l1.6,1.6c0.3,0.3,0.7,0.6,1,0.9l0.6,0.6c0.1,0.1,0.2,0.2,0.3,0.3c0,0,0.1,0.1,0.2,0.2
				c0.1,0.1,0.1,0.1,0.2,0.2c0.4,0.4,0.8,0.8,1.2,1.1c0.1,0.1,0.2,0.2,0.3,0.3c0.3,0.3,0.7,0.6,1.1,0.9c0,0,0,0,0.1,0.1
				c0.5,0.4,0.9,0.7,1.4,1c0.5,0.4,0.9,0.7,1.4,1c0.3,0.2,0.5,0.4,0.8,0.5c0.3,0.2,0.6,0.4,0.9,0.5c0.3,0.2,0.5,0.3,0.8,0.5
				c0,0,0,0,0,0c0.2,0.1,0.3,0.2,0.4,0.3c0.3,0.2,0.5,0.3,0.8,0.5c0.8,0.4,1.6,0.8,2.4,1.2c0.3,0.2,0.6,0.3,0.9,0.4
				c0.3,0.1,0.6,0.3,0.9,0.4c1.1,0.5,2.3,0.9,3.5,1.2c0.3,0.1,0.7,0.2,1,0.3c0.7,0.2,1.4,0.4,2.1,0.5c0.3,0.1,0.7,0.2,1,0.2
				c0.3,0.1,0.6,0.1,0.9,0.2c0.3,0,0.6,0.1,0.8,0.2c0.5,0.1,1,0.1,1.5,0.2c0.3,0,0.6,0.1,0.8,0.1c0.2,0,0.4,0,0.6,0.1
				c0.3,0,0.5,0,0.8,0.1c0.7,0,1.3,0.1,2,0.1c0.4,0,0.8,0,1.3,0c0.4,0,0.8,0,1.2,0c0.7,0,1.4-0.1,2.1-0.1c0.2,0,0.3,0,0.5,0
				c0.5,0,1-0.1,1.5-0.2c0.1,0,0.1,0,0.2,0c0.3,0,0.7-0.1,1-0.1c0.7-0.1,1.4-0.2,2.1-0.4c0.4-0.1,0.7-0.2,1.1-0.2
				c0.4-0.1,0.9-0.2,1.3-0.3c0.1,0,0.3-0.1,0.4-0.1c0.4-0.1,0.8-0.2,1.2-0.4c0.4-0.1,0.8-0.2,1.1-0.4c0.2-0.1,0.3-0.1,0.5-0.2
				c0.4-0.1,0.8-0.3,1.2-0.5c0.3-0.1,0.6-0.2,1-0.4c0.3-0.1,0.6-0.3,1-0.4c0.3-0.1,0.5-0.2,0.8-0.4c0.3-0.2,0.7-0.3,1.1-0.5
				c0.3-0.1,0.6-0.3,0.9-0.5c0.3-0.1,0.5-0.3,0.8-0.4c0.3-0.2,0.7-0.4,1-0.6c0.3-0.2,0.6-0.4,0.9-0.5c0.3-0.2,0.6-0.4,0.9-0.6
				c0.3-0.2,0.6-0.4,0.8-0.6c0.6-0.4,1.1-0.8,1.7-1.2c0.3-0.2,0.5-0.4,0.8-0.6c0.3-0.2,0.5-0.4,0.8-0.6c0.3-0.2,0.5-0.4,0.8-0.7
				c0.2-0.2,0.5-0.4,0.8-0.7c0.2-0.2,0.5-0.5,0.7-0.7c1-1,1.9-2,2.8-3c0,0,0,0,0,0c0.2-0.2,0.4-0.5,0.6-0.7c0.3-0.4,0.7-0.8,1-1.3
				c0.3-0.4,0.6-0.9,0.9-1.3c0.4-0.5,0.7-1,1.1-1.6c0.3-0.5,0.7-1.1,1-1.7c0.1-0.2,0.3-0.5,0.4-0.7c0.2-0.3,0.4-0.7,0.5-1
				c0.2-0.4,0.4-0.8,0.6-1.2c0.1-0.3,0.3-0.6,0.4-0.8c0.1-0.2,0.2-0.5,0.3-0.7c0-0.1,0.1-0.2,0.1-0.2c0.1-0.2,0.2-0.5,0.3-0.8v0
				c0-0.1,0.1-0.2,0.1-0.3c0-0.1,0.1-0.3,0.2-0.5c0.1-0.1,0.1-0.3,0.2-0.5c0.1-0.3,0.2-0.5,0.3-0.8c0.1-0.2,0.2-0.5,0.2-0.8
				c0.1-0.4,0.2-0.8,0.3-1.1c0-0.1,0-0.1,0-0.1c0.1-0.3,0.2-0.7,0.3-1c0,0,0-0.1,0-0.1c0,0,0,0,0,0c0.2-0.6,0.3-1.2,0.4-1.8
				c0,0,0-0.1,0-0.1c0-0.2,0.1-0.4,0.1-0.5c0-0.2,0.1-0.4,0.1-0.6c0-0.3,0.1-0.6,0.2-1c0,0,0,0,0,0c0-0.3,0.1-0.7,0.1-1c0,0,0,0,0,0
				c0-0.1,0-0.2,0-0.3c0-0.1,0-0.2,0-0.4c0-0.1,0-0.2,0-0.3c0-0.1,0-0.2,0-0.3c0-0.6,0.1-1.1,0.1-1.7c0,0,0-0.1,0-0.2
				c0-0.1,0-0.3,0-0.4c0-0.2,0-0.5,0-0.7c0-0.3,0-0.7,0-1C-238,731.3-238.1,730.6-238.1,729.9z M-288.7,689.4c0.2,0,0.5-0.1,0.8-0.1
				c0.3-0.1,0.7-0.1,1-0.1C-287.5,689.2-288.1,689.3-288.7,689.4z M-285.9,689c-0.2,0-0.5,0-0.7,0.1
				C-286.4,689.1-286.1,689-285.9,689c0.1,0,0.2,0,0.4,0C-285.7,689-285.8,689-285.9,689z M-284.9,688.9c0.1,0,0.3,0,0.5,0
				c0.1,0,0.2,0,0.2,0C-284.4,688.9-284.6,688.9-284.9,688.9z"/>
			<path class="st2" d="M-286.9,689.1c-0.6,0.1-1.2,0.2-1.8,0.3c0.2,0,0.5-0.1,0.8-0.1C-287.6,689.2-287.3,689.2-286.9,689.1z"/>
			<path class="st2" d="M-284.2,688.9c-0.2,0-0.5,0-0.7,0c0.1,0,0.3,0,0.5,0C-284.3,688.9-284.2,688.9-284.2,688.9z"/>
			<path class="st2" d="M-283.8,688.8c-0.1,0-0.2,0-0.3,0C-284,688.8-283.9,688.8-283.8,688.8L-283.8,688.8z"/>
			<path class="st2" d="M-279.1,688.8c-0.8,0.1-1.6,0.1-2.4,0.1c-0.8,0-1.5,0-2.2-0.1c0.4,0,0.7,0,1.1-0.1h0.1c0.4,0,0.8,0,1.2,0
				c0.5,0,0.9,0,1.3,0h0.1C-279.6,688.8-279.4,688.8-279.1,688.8z"/>
			<path class="st2" d="M-242.1,750.3c0.1-0.3,0.3-0.6,0.4-0.8c-6.7,15.2-21.9,25.9-39.6,25.9c-10.4,0-19.9-3.7-27.3-9.7
				c-0.2-0.2-0.4-0.3-0.6-0.5c-1.8-1.5-3.5-3.2-5-5c-0.2-0.2-0.4-0.5-0.6-0.8l1.6,1.6c0.3,0.3,0.7,0.6,1,0.9l0.6,0.6
				c0.1,0.1,0.2,0.2,0.3,0.3c0,0,0.1,0.1,0.2,0.2c0.1,0.1,0.1,0.1,0.2,0.2c0.4,0.4,0.8,0.8,1.2,1.1c0.1,0.1,0.2,0.2,0.3,0.3
				c0.3,0.3,0.7,0.6,1.1,0.9c0,0,0,0,0.1,0.1c0.5,0.4,0.9,0.7,1.4,1c0.5,0.4,0.9,0.7,1.4,1c0.3,0.2,0.5,0.4,0.8,0.5
				c0.3,0.2,0.6,0.4,0.9,0.5c0.3,0.2,0.5,0.3,0.8,0.5c0,0,0,0,0,0c0.2,0.1,0.3,0.2,0.4,0.3c0.3,0.2,0.5,0.3,0.8,0.5
				c0.8,0.4,1.6,0.8,2.4,1.2c0.3,0.2,0.6,0.3,0.9,0.4c0.3,0.1,0.6,0.3,0.9,0.4c1.1,0.5,2.3,0.9,3.5,1.2c0.3,0.1,0.7,0.2,1,0.3
				c0.7,0.2,1.4,0.4,2.1,0.5c0.3,0.1,0.7,0.2,1,0.2c0.3,0.1,0.6,0.1,0.9,0.2c0.3,0,0.6,0.1,0.8,0.2c0.5,0.1,1,0.1,1.5,0.2
				c0.3,0,0.6,0.1,0.8,0.1c0.2,0,0.4,0,0.6,0.1c0.3,0,0.5,0,0.8,0.1c0.7,0,1.3,0.1,2,0.1c0.4,0,0.8,0,1.3,0c0.4,0,0.8,0,1.2,0
				c0.7,0,1.4-0.1,2.1-0.1c0.2,0,0.3,0,0.5,0c0.5,0,1-0.1,1.5-0.2c0.1,0,0.1,0,0.2,0c0.3,0,0.7-0.1,1-0.1c0.7-0.1,1.4-0.2,2.1-0.4
				c0.4-0.1,0.7-0.2,1.1-0.2c0.4-0.1,0.9-0.2,1.3-0.3c0.1,0,0.3-0.1,0.4-0.1c0.4-0.1,0.8-0.2,1.2-0.4c0.4-0.1,0.8-0.2,1.1-0.4
				c0.2-0.1,0.3-0.1,0.5-0.2c0.4-0.1,0.8-0.3,1.2-0.5c0.3-0.1,0.6-0.2,1-0.4c0.3-0.1,0.6-0.3,1-0.4c0.3-0.1,0.5-0.2,0.8-0.4
				c0.3-0.2,0.7-0.3,1.1-0.5c0.3-0.1,0.6-0.3,0.9-0.5c0.3-0.1,0.5-0.3,0.8-0.4c0.3-0.2,0.7-0.4,1-0.6c0.3-0.2,0.6-0.4,0.9-0.5
				c0.3-0.2,0.6-0.4,0.9-0.6c0.3-0.2,0.6-0.4,0.8-0.6c0.6-0.4,1.1-0.8,1.7-1.2c0.3-0.2,0.5-0.4,0.8-0.6c0.3-0.2,0.5-0.4,0.8-0.6
				c0.3-0.2,0.5-0.4,0.8-0.7c0.2-0.2,0.5-0.4,0.8-0.7c0.2-0.2,0.5-0.5,0.7-0.7c1-1,1.9-2,2.8-3c0,0,0,0,0,0c0.2-0.2,0.4-0.5,0.6-0.7
				c0.3-0.4,0.7-0.8,1-1.3c0.3-0.4,0.6-0.9,0.9-1.3c0.4-0.5,0.7-1,1.1-1.6c0.3-0.5,0.7-1.1,1-1.7c0.1-0.2,0.3-0.5,0.4-0.7
				c0.2-0.3,0.4-0.7,0.5-1C-242.5,751.1-242.3,750.7-242.1,750.3z"/>
		</g>
	</g>
	<path class="st2" d="M-856.8,735.5V131c0,0,4-54.4-47,0.2s-93.4,98.4-93.4,98.4"/>
	<rect x="-959.7" y="2271.2" class="st5" width="270.9" height="270.9"/>
	<rect x="-1231.3" y="2271.2" class="st6" width="270.9" height="270.9"/>
	<rect x="-688.8" y="2271.2" class="st7" width="270.9" height="270.9"/>
	<rect x="-423" y="2268.6" class="st8" width="270.9" height="270.9"/>
	<rect x="-1258.5" y="353.3" class="st9" width="9" height="415.9"/>
	<line class="st9" x1="-1494.1" y1="428.6" x2="-1258.5" y2="358.7"/>
	<line class="st9" x1="-995.2" y1="428.7" x2="-1249.6" y2="358.7"/>
	<line class="st9" x1="-1122.8" y1="433.8" x2="-1249.6" y2="358.7"/>
	<line class="st9" x1="-1384.8" y1="433.8" x2="-1258.5" y2="358.7"/>
	<line class="st9" x1="-1479.2" y1="424.1" x2="-1011.5" y2="424.1"/>
	<line class="st10" x1="-1258.6" y1="358.7" x2="-1249.6" y2="358.7"/>
	<g>
		<path class="st7" d="M-314.4-461.2c0,0,0,0.1,0,0.3c0,0,0,0,0,0c-1,11.2-26.6,298.5-35,361.1c-8.1,59.9-51.1,61.7-51.1,61.7
			s-101,8.7-132.8-4.4c-31.8-13.1-38.7-59.9-38.7-59.9l-39.3-358.5l0-0.4"/>
		<path class="st2" d="M-588.7,55.2L-588.7,55.2c0,0.1,0,0.1,0,0.1c0,6.1,55.9,11,124.9,11c19.6,0,38.2-0.4,54.7-1.1"/>
		<path class="st2" d="M-392.3,64.3c32.3-2,53.4-5.3,53.4-9c0,0,0-0.1,0-0.1v0"/>
		<path class="st2" d="M-332.4-26.3c0,0,0,0.1,0,0.1c0,0.1,0,0.2,0,0.3l0,0c-1.8,5.9-59.9,10.7-131.3,10.7c-5.5,0-10.8,0-16.1-0.1"
			/>
		<path class="st2" d="M-517.4-16.2c-45-1.7-76.6-5.4-77.7-9.8v0c0-0.1,0-0.1,0-0.2c0,0,0-0.1,0-0.1v0"/>
		<path class="st2" d="M-485.8-511.5c7.2,0.1,14.6,0.1,22,0.1c91.8,0,166.7-7.1,171.1-15.9c0.1-0.3,0.2-0.5,0.2-0.8
			c0-9.3-76.7-16.8-171.3-16.8c-53.5,0-101.2,2.4-132.6,6.1c-24.2,2.9-38.6,6.6-38.6,10.6c0,4.6,19.3,8.8,50.5,11.9
			c18.5,1.8,41.3,3.2,66.6,4"/>
		<ellipse class="st4" cx="-462.9" cy="-461.2" rx="148.5" ry="16.8"/>
		<circle class="st11" cx="-633" cy="-608.9" r="18.8"/>
		<line class="st2" x1="-624.6" y1="-592.3" x2="-434.5" y2="-231.2"/>
		<path class="st11" d="M-470.9-106.6l-36.9,21.3c-8.6,4.9-19.6,2-24.6-6.6l-20.3-35.2c-4.9-8.6-2-19.6,6.6-24.6l36.9-21.3
			c8.6-4.9,19.6-2,24.6,6.6l20.3,35.2C-459.4-122.6-462.4-111.6-470.9-106.6z"/>
		<path class="st11" d="M-465.3-186.9l-42.5,3.2c-9.9,0.7-18.6-6.7-19.3-16.6l-3-40.5c-0.7-9.9,6.7-18.6,16.6-19.3l42.5-3.2
			c9.9-0.7,18.6,6.7,19.3,16.6l3,40.5C-448-196.3-455.5-187.6-465.3-186.9z"/>
		<path class="st11" d="M-379.2-204.6l-42.5-3.5c-9.9-0.8-17.3-9.5-16.5-19.4l3.3-40.5c0.8-9.9,9.5-17.3,19.4-16.5l42.5,3.5
			c9.9,0.8,17.3,9.5,16.5,19.4l-3.3,40.5C-360.6-211.2-369.3-203.8-379.2-204.6z"/>
		<path class="st11" d="M-386.8-305.9l-20.4-1.7c-9.9-0.8-17.3-9.5-16.5-19.4l1.6-19c0.8-9.9,9.5-17.3,19.4-16.5l20.4,1.7
			c9.9,0.8,17.3,9.5,16.5,19.4l-1.6,19C-368.2-312.5-377-305.1-386.8-305.9z"/>
		<path class="st11" d="M-443-334.7l-19.8,5c-9.6,2.4-19.4-3.5-21.8-13.1l-4.6-18.5c-2.4-9.6,3.5-19.4,13.1-21.8l19.8-5
			c9.6-2.4,19.4,3.5,21.8,13.1l4.6,18.5C-427.5-346.9-433.4-337.1-443-334.7z"/>
		<path class="st11" d="M-541.5-378.6l-20.4-1.1c-9.9-0.5-17.5-9-17-18.9l1-19c0.5-9.9,9-17.5,18.9-17l20.4,1.1
			c9.9,0.5,17.5,9,17,18.9l-1,19C-523.1-385.7-531.6-378.1-541.5-378.6z"/>
		<path class="st11" d="M-462.5-264.6l-30.1,30.1c-7,7-18.5,7-25.5,0l-28.7-28.7c-7-7-7-18.5,0-25.5l30.1-30.1c7-7,18.5-7,25.5,0
			l28.7,28.7C-455.5-283.1-455.5-271.6-462.5-264.6z"/>
		<line class="st2" x1="-609.5" y1="-206.5" x2="-610.3" y2="-216.1"/>
		<polyline class="st2" points="-606.3,-166.3 -595.2,-26.3 -595.2,-26.3 -595.2,-26 -595.2,-26 -588.7,55.2 -588.7,55.2 		"/>
		<line class="st2" x1="-613.3" y1="-253.6" x2="-635.1" y2="-528.3"/>
		<polyline class="st2" points="-292.6,-528.4 -292.7,-527.3 -297.2,-471 		"/>
		<polyline class="st2" points="-338.9,55.4 -338.9,55.2 -338.9,55.2 -332.5,-25.9 -332.5,-25.9 -332.4,-26.3 -305.4,-367.1 		"/>
		<line class="st2" x1="-300.7" y1="-426.6" x2="-301.4" y2="-417.5"/>
		<g>
			
				<rect x="-376.7" y="-718.7" transform="matrix(0.9739 0.2268 -0.2268 0.9739 -128.6448 70.8259)" class="st9" width="8.4" height="388.7"/>
			<line class="st9" x1="-562.9" y1="-696" x2="-333.7" y2="-709.7"/>
			<line class="st9" x1="-108.9" y1="-590.2" x2="-325.6" y2="-707.8"/>
			<line class="st9" x1="-226.1" y1="-612.6" x2="-325.6" y2="-707.8"/>
			<line class="st9" x1="-464.5" y1="-668.1" x2="-333.7" y2="-709.7"/>
			<line class="st9" x1="-548.3" y1="-697" x2="-122.7" y2="-597.8"/>
			<line class="st10" x1="-333.8" y1="-709.7" x2="-325.6" y2="-707.8"/>
		</g>
	</g>
	<g>
		<path class="st7" d="M422.6-440.4c0,0-0.3,1.3-0.9,3.7c-7.1,28.3-54.2,211.1-96.2,232c-24.4,12.1-75.7,16.9-128.4,10.7
			c-17.9-2.1-32.1-8.8-43.2-16.8c-16.9-12.2-29.1-29.8-35.2-49.6L64.9-435.8l-1.4-4.6H422.6z"/>
		<path class="st11" d="M230.7-313.4l-47.5,11.9c-9.6,2.4-19.4-3.5-21.8-13.1L150-360.1c-2.4-9.6,3.5-19.4,13.1-21.8l47.5-11.9
			c9.6-2.4,19.4,3.5,21.8,13.1l11.3,45.4C246.2-325.7,240.3-315.8,230.7-313.4z"/>
		<path class="st9" d="M113.9-574.2c-3.8,0.6-7.4,1.3-11,2"/>
		<path class="st9" d="M163-580.4c23.8-2.1,49.7-3.2,76.7-3.2c65.5,0,124.1,6.7,163.3,17.3c30.7,8.3,49.5,19,50.3,30.6
			c0,0.3,0,0.5,0,0.8c0,0.9-0.1,1.7-0.3,2.6v0c-3.8,16.5-43.4,30.8-101.4,38.9c-32.6,4.6-70.9,7.2-111.9,7.2
			c-113.9,0-206.9-20.3-213.3-46v0c-0.2-0.9-0.4-1.8-0.4-2.8c0-9.6,12.3-18.6,33.4-26.2"/>
		<ellipse class="st4" cx="243.1" cy="-440.4" rx="179.6" ry="36.4"/>
		<path class="st9" d="M419.6-106.3L419.6-106.3c0.1,0.6,0.1,1.1,0.1,1.7c0,22.7-80.6,41.1-180,41.1s-180-18.4-180-41.1
			c0,0,0,0,0-0.1"/>
		<line class="st9" x1="26.2" y1="-534.8" x2="59.8" y2="-104.4"/>
		<line class="st9" x1="425.5" y1="-181.2" x2="419.4" y2="-103.8"/>
		<polyline class="st9" points="453.3,-535.6 453.1,-532.3 453.1,-532.2 435.2,-304.8 428.5,-219.5 428.5,-219.5 		"/>
		<line class="st9" x1="163.4" y1="-67.5" x2="159" y2="-138.2"/>
		<path class="st9" d="M156.5-178l-2.1-32.5l-5.7-90c-17.5-18.5-34.9-25.3-50.2-26.1c-28.6-1.4-50.5,18.2-54.3,21.8
			c-0.4,0.4-0.6,0.6-0.6,0.6"/>
		<path class="st9" d="M435.2-304.8c0,0-61.5-49.8-108.2,6.8L312.2-67.5"/>
		<path class="st9" d="M148.7-300.5c0,0,99-63.9,178.3,2.5"/>
		<g>
			<circle class="st2" cx="443.4" cy="-622.6" r="39"/>
			<line class="st2" x1="490.9" y1="-691.3" x2="318.1" y2="-445.6"/>
		</g>
	</g>
	<path class="st7" d="M1686.6,1011.3c0,0-0.3,1.1-0.7,3c-5.8,23.1-15.1,236.9-44,262.1c-19.8,17.3-90,22.1-134.5,20.8
		c-14.7-0.4-45.3-8.6-55.6-12.9c-22-9.1-29.7-26.2-35.1-42.9c-2.7-8.1-5.4-21.8-6.1-30.3l-15.9-192.2c-0.2-2.6-0.7-5.1-1.5-7.6l0,0
		H1686.6z"/>
	<path class="st11" d="M1506.9,1133.6l-51.7,12.9c-9.6,2.4-19.4-3.5-21.8-13.1l-12.4-49.5c-2.4-9.6,3.5-19.4,13.1-21.8l51.7-12.9
		c9.6-2.4,19.4,3.5,21.8,13.1l12.4,49.5C1522.4,1121.4,1516.5,1131.2,1506.9,1133.6z"/>
	<path class="st11" d="M1531.1,1233.6l-51.4-14.1c-9.5-2.6-15.2-12.6-12.6-22.1l13.5-49.2c2.6-9.5,12.6-15.2,22.1-12.6l51.4,14.1
		c9.5,2.6,15.2,12.6,12.6,22.1l-13.5,49.2C1550.6,1230.6,1540.7,1236.3,1531.1,1233.6z"/>
	<path class="st11" d="M1631.1,1180.1h-53.3c-9.9,0-18-8.1-18-18v-51c0-9.9,8.1-18,18-18h53.3c9.9,0,18,8.1,18,18v51
		C1649.1,1172,1641,1180.1,1631.1,1180.1z"/>
	<path class="st9" d="M1440,901c-2.9,0.5-5.8,0.9-8.5,1.4"/>
	<path class="st9" d="M1389.1,912.9c-16.8,6.1-26.6,13.4-26.6,21.1c0,0.8,0.1,1.5,0.3,2.2l0,0c5.2,20.9,81.2,37.6,174.3,37.6
		c33.5,0,64.9-2.2,91.5-5.9c11.4-1.6,21.9-3.5,31.3-5.6"/>
	<path class="st9" d="M1682.3,956.2c17-5.8,27.5-12.6,29.2-20c0.2-0.7,0.2-1.4,0.2-2.1c0-0.2,0-0.5,0-0.7
		c-0.7-9.5-16.1-18.2-41.1-25c-32-8.7-79.9-14.1-133.4-14.1c-21.5,0-42,0.9-61,2.5"/>
	<ellipse class="st4" cx="1539.9" cy="1011.3" rx="146.8" ry="29.7"/>
	<path class="st9" d="M1684.1,1284.3L1684.1,1284.3c0.1,0.5,0.1,0.9,0.1,1.4c0,18.5-65.9,33.6-147.1,33.6s-147.1-15-147.1-33.6
		c0,0,0,0,0-0.1"/>
	<line class="st9" x1="1362.6" y1="934.1" x2="1390" y2="1285.9"/>
	<line class="st9" x1="1690.7" y1="1201.3" x2="1690.1" y2="1208.8"/>
	<line class="st9" x1="1685.7" y1="1264.1" x2="1684" y2="1286.3"/>
	<polyline class="st9" points="1693.9,1160.6 1711.5,936.2 1711.7,933.4 	"/>
	<circle class="st2" cx="1703.6" cy="862.3" r="26.1"/>
	<line class="st2" x1="1742.5" y1="806.2" x2="1528.8" y2="1109.9"/>
	<path class="st7" d="M2939.7,1548.5c0,0-0.3,1.4-0.7,3.9c-5.8,30.1-15.1,308.6-44,341.4c-19.8,22.5-90,28.8-134.5,27.1
		c-14.7-0.6-45.3-11.2-55.6-16.8c-22-11.9-29.7-34.1-35.1-55.8c-2.7-10.6-5.4-28.4-6.1-39.5l-15.9-250.4c-0.2-3.4-0.7-6.7-1.5-9.9
		l0,0H2939.7z"/>
	<path class="st11" d="M2755.4,1670.5l-51.7,12.9c-9.6,2.4-19.4-3.5-21.8-13.1l-12.4-49.5c-2.4-9.6,3.5-19.4,13.1-21.8l51.7-12.9
		c9.6-2.4,19.4,3.5,21.8,13.1l12.4,49.5C2770.9,1658.2,2765,1668.1,2755.4,1670.5z"/>
	<path class="st11" d="M2759.5,1868.8l-51.4-14.1c-9.5-2.6-15.2-12.6-12.6-22.1l13.5-49.2c2.6-9.5,12.6-15.2,22.1-12.6l51.4,14.1
		c9.5,2.6,15.2,12.6,12.6,22.1l-13.5,49.2C2779,1865.7,2769.1,1871.4,2759.5,1868.8z"/>
	<path class="st11" d="M2873.7,1806h-53.3c-9.9,0-18-8.1-18-18v-51c0-9.9,8.1-18,18-18h53.3c9.9,0,18,8.1,18,18v51
		C2891.7,1797.9,2883.6,1806,2873.7,1806z"/>
	<path class="st9" d="M2693.1,1404.9c-2.9,0.6-5.8,1.2-8.5,1.8"/>
	<path class="st9" d="M2642.2,1420.5c-16.8,8-26.6,17.4-26.6,27.5c0,1,0.1,1.9,0.3,2.9l0,0.1c5.2,27.3,81.2,48.9,174.3,48.9
		c33.6,0,64.9-2.8,91.5-7.7c11.4-2.1,21.9-4.5,31.3-7.3"/>
	<path class="st9" d="M2935.4,1476.9c17-7.5,27.5-16.5,29.2-26.1c0.2-0.9,0.2-1.8,0.2-2.8c0-0.3,0-0.6,0-0.9
		c-0.7-12.4-16-23.8-41.1-32.6c-32-11.3-79.9-18.4-133.4-18.4c-21.5,0-42,1.1-61,3.3"/>
	<ellipse class="st4" cx="2793" cy="1542.3" rx="146.8" ry="32.4"/>
	<path class="st9" d="M2937.3,1904.2L2937.3,1904.2c0.1,0.6,0.1,1.2,0.1,1.8c0,24.2-65.9,43.7-147.1,43.7
		c-81.2,0-147.1-19.6-147.1-43.7c0,0,0,0,0-0.1"/>
	<line class="st9" x1="2615.7" y1="1448" x2="2643.2" y2="1906.3"/>
	<line class="st9" x1="2948.7" y1="1693" x2="2947.8" y2="1702.4"/>
	<line class="st9" x1="2943.2" y1="1762.5" x2="2937.4" y2="1866.5"/>
	<line class="st9" x1="2964.9" y1="1448" x2="2948.7" y2="1677.1"/>
	<line class="st9" x1="2964.2" y1="1443.5" x2="2964.2" y2="1443.4"/>
	<g>
		<path class="st7" d="M430.2,203.1C430.2,203.2,430.2,203.2,430.2,203.1c-1.1,0.9-38,31-75,61c0,0,0,0,0,0
			c-7,5.7-14,11.4-20.8,16.9c-25,20.4-46.7,38-52.6,42.8c-16.2,13.1-31.8,0-31.8,0L113.8,213.4l-17.4-14.1c0,0-0.1-0.1-0.1-0.1
			l-0.1-0.1l-0.8-0.7l11.4,0.2l215.7,3h0L430.2,203.1z"/>
		<path class="st4" d="M440.8,193.6c0,3.3-3.8,6.5-10.6,9.5c-18.7,8.1-60.4,14.4-112.5,16.9c-1.5,0.1-3,0.1-4.5,0.2
			c-7.9,0.3-16,0.6-24.2,0.8c-7.3,0.2-14.7,0.2-22.2,0.2c-67.3,0-125.6-6.1-154.6-14.9c-7.2-2.2-12.5-4.6-15.8-7
			c0,0-0.1-0.1-0.1-0.1c-0.3-0.2-0.6-0.5-0.9-0.7c-1.2-1.1-2-2.2-2.4-3.3c-0.2-0.5-0.3-1-0.3-1.6c0-8.8,25.8-16.6,66.1-21.6
			c29.7-3.7,67.2-6,108-6c25.8,0,50.2,0.9,72.2,2.5c12.7,0.9,24.5,2.1,35.3,3.4C414.8,177,440.8,184.8,440.8,193.6z"/>
		<path class="st2" d="M366.1,769.8c1.3,0.8,1.9,1.5,1.9,2.3c0,6.6-45.3,11.9-101.2,11.9s-101.2-5.3-101.2-11.9
			c0-0.5,0.3-1.1,0.9-1.6c0,0,0,0,0.1-0.1l0.2-0.2"/>
		<line class="st2" x1="360.6" y1="765.3" x2="360.6" y2="765.3"/>
		<path class="st2" d="M187.1,767.4c15.6,2.5,39.4,4.3,66.7,4.7"/>
		<polyline class="st9" points="165.7,772.1 166.6,770.5 166.7,770.5 166.7,770.5 166.9,770.3 167.5,769.8 174.1,764.5 177.5,761.8 
			266.8,689.7 274.5,695.9 		"/>
		<polyline class="st9" points="318,731 360.6,765.3 360.6,765.3 366.1,769.8 367.5,770.9 368.1,772.1 		"/>
		<line class="st9" x1="292.9" y1="710.8" x2="290.6" y2="708.9"/>
		<line class="st11" x1="265.7" y1="354.4" x2="265.7" y2="689.7"/>
		<g>
			<line class="st2" x1="421.2" y1="3.3" x2="262.4" y2="322.2"/>
			
				<ellipse transform="matrix(0.4459 -0.8951 0.8951 0.4459 -59.4223 405.6523)" class="st2" cx="297.9" cy="250.8" rx="36.8" ry="27.1"/>
		</g>
		<ellipse class="st2" cx="265.9" cy="144.4" rx="257.7" ry="30.3"/>
		<polyline class="st9" points="8.2,144.4 10.6,148.5 10.6,148.5 11.2,149 56.8,185.8 		"/>
		<polyline class="st9" points="109.7,228.5 265.7,354.4 305.7,322.1 		"/>
		<polyline class="st9" points="371,269.4 518.6,150.3 518.6,150.3 522.2,147.5 523.6,144.4 		"/>
		<line class="st9" x1="336.2" y1="297.5" x2="331.6" y2="301.2"/>
		<line class="st9" x1="81.3" y1="205.6" x2="76.3" y2="201.6"/>
	</g>
	<path class="st2" d="M1845.9,975.1c-1.2-1-2.4-2.1-3.6-3.2"/>
	<g>
		<path class="st2" d="M1195.7-762.1L1195.7-762.1c-2,0-4.1,0-6.1,0c-82.7,0-149.7-8.5-149.7-18.9c0-5,15.2-9.5,40.1-12.9"/>
		<path class="st2" d="M1112-797.2c22.6-1.7,49.2-2.7,77.6-2.7c82.7,0,149.7,8.5,149.7,19c0,0.2,0,0.3-0.1,0.5
			c0,0.1-0.1,0.3-0.1,0.4c0,0,0,0.1,0,0.1c-0.1,0.1-0.1,0.2-0.2,0.4c-0.4,0.7-1,1.3-1.9,2c-0.2,0.2-0.5,0.3-0.7,0.5
			c-0.5,0.3-1.1,0.7-1.8,1c-0.3,0.1-0.5,0.2-0.8,0.4c-0.3,0.2-0.7,0.3-1,0.4c-0.4,0.1-0.7,0.3-1.1,0.4c-0.4,0.1-0.8,0.3-1.2,0.4
			c-0.2,0.1-0.4,0.1-0.6,0.2c-0.7,0.2-1.4,0.4-2.1,0.7c-0.9,0.3-2,0.6-3,0.8c-0.5,0.1-1,0.3-1.6,0.4c-0.5,0.1-1,0.3-1.6,0.4
			c-1.9,0.4-4,0.9-6.2,1.3c-0.9,0.2-1.8,0.4-2.8,0.5c-1.3,0.2-2.5,0.4-3.9,0.7c-1.1,0.2-2.2,0.4-3.4,0.6c-2.3,0.3-4.7,0.7-7.2,1
			c-0.6,0.1-1.2,0.2-1.8,0.2c-5.3,0.7-11,1.3-17.1,1.9c-0.9,0.1-1.9,0.2-2.8,0.2c-5.9,0.5-12.2,1-18.7,1.4c-2.1,0.1-4.2,0.3-6.3,0.4
			c-0.4,0-0.8,0.1-1.2,0.1c-1.5,0.1-3,0.2-4.5,0.2c-3,0.2-6.1,0.3-9.2,0.4"/>
		<path class="st2" d="M1249.1-71.3c-1.8-0.1-3.5-0.2-5.3-0.3"/>
		<path class="st2" d="M1283.3-68.7c34.2,3.5,56,8.8,56,14.8c0,10.5-67,18.9-149.7,18.9C1107-35,1040-43.4,1040-53.9
			c0-9.8,58.4-17.8,133.4-18.8"/>
		<path class="st2" d="M1220.8-72.4c-4.7-0.1-9.5-0.2-14.3-0.3"/>
		<path class="st2" d="M1159.1-427.3c-23.4-4.2-45.1-13-64.2-25.6c0,0,0,0,0,0"/>
		<path class="st2" d="M1061.4-481.5c-27.8-30.7-44.7-71.4-44.7-116c0-8.6,0.6-17.1,1.9-25.4l21.4-158c0,10.5,67,18.9,149.7,18.9
			c2,0,4.1,0,6.1,0h0"/>
		<path class="st2" d="M1220.7-427.4C1220.7-427.4,1220.7-427.4,1220.7-427.4c80.7-14.7,141.8-85.2,141.8-170.1
			c0-8.6-0.6-17.1-1.9-25.4h0l-21.4-158c0,0.2,0,0.3-0.1,0.5c0,0.1-0.1,0.3-0.1,0.4c0,0,0,0.1,0,0.1c-0.1,0.1-0.1,0.2-0.2,0.4
			c-0.4,0.7-1,1.3-1.9,2c-0.2,0.2-0.5,0.3-0.7,0.5c-0.5,0.3-1.1,0.7-1.8,1c-0.3,0.1-0.5,0.2-0.8,0.4c-0.3,0.2-0.7,0.3-1,0.4
			c-0.4,0.1-0.7,0.3-1.1,0.4c-0.4,0.1-0.8,0.3-1.2,0.4c-0.2,0.1-0.4,0.1-0.6,0.2c-0.7,0.2-1.4,0.4-2.1,0.7c-0.9,0.3-2,0.6-3,0.8
			c-0.5,0.1-1.1,0.3-1.6,0.4c-0.5,0.1-1,0.3-1.6,0.4c-1.9,0.4-4,0.9-6.2,1.3c-0.9,0.2-1.8,0.4-2.8,0.5c-1.3,0.2-2.5,0.4-3.9,0.7
			c-1.1,0.2-2.2,0.4-3.4,0.6c-2.3,0.3-4.7,0.7-7.2,1c-0.6,0.1-1.2,0.2-1.8,0.2c-5.3,0.7-11,1.3-17.1,1.9c-0.9,0.1-1.9,0.2-2.8,0.2
			c-5.9,0.5-12.2,1-18.7,1.4c-2.1,0.1-4.2,0.3-6.3,0.4c-0.4,0-0.8,0.1-1.2,0.1c-1.5,0.1-3,0.2-4.5,0.2c-3,0.2-6.1,0.3-9.2,0.4"/>
		<path class="st2" d="M1183.1-342.4c0-2.5,0-5,0-7.5"/>
		<path class="st2" d="M1183.1-310.5c-0.1,93.5-1.5,218.9-1.5,218.9s-0.2,8-8.2,18.9c-0.1,0.1-0.2,0.3-0.3,0.4"/>
		<path class="st2" d="M1159.1-427.3c5.6,2.2,19.8,8.7,22.5,17.3c0.7,2.2,1.1,16.2,1.3,37.4"/>
		<path class="st11" d="M1206.8-72.3c-9-11.1-8.9-19.3-8.9-19.3s-3.4-307.7,0-318.4c2.7-8.7,17.4-15.2,22.9-17.4c0,0,0,0,0,0"/>
		<path class="st7" d="M1331.6-731.8c0,0,12.6,71.4,19.3,124.6c6.7,53.3-25.2,88.6-42,111c-16.8,22.4-50.4,46.5-81.3,54.9
			c-30.8,8.4-62.2,0-62.2,0s-66.2-18.5-107.1-66.7c-40.9-48.2-29.1-105.4-29.1-105.4l16.1-118.5H1331.6z"/>
		<ellipse class="st4" cx="1188.4" cy="-731.8" rx="143.2" ry="18.9"/>
	</g>
	<path class="st11" d="M-642.7,1722.1c-0.7,2-1.4,3.9-2.1,5.9"/>
	<path class="st12" d="M1670.2,1542.7c-0.1,0-0.2,0-0.3,0c-0.3,0-0.6,0-0.9,0c-0.3,0-0.6,0-0.9,0c-0.1,0-0.2,0-0.3,0h0.7
		c0.2,0,0.3,0,0.5,0c0.2,0,0.3,0,0.5,0H1670.2z"/>
	<path class="st12" d="M1681,1515.8c0.1,0.1,0.1,0.1,0.2,0.2l-0.5-0.5l-0.5-0.5l-0.4-0.4c0.1,0,0.1,0.1,0.2,0.1
		C1680.2,1515,1680.6,1515.4,1681,1515.8L1681,1515.8z"/>
	<path class="st12" d="M1707.9,1503.8c0,0.1,0,0.3,0,0.4v-0.8C1707.9,1503.5,1707.9,1503.6,1707.9,1503.8z"/>
	<path class="st12" d="M1712.7,1542.7c0,1.3-0.5,2.5-1.4,3.4c-0.9,0.9-2,1.4-3.4,1.4c-1.3,0-2.5-0.5-3.4-1.4c-0.9-0.9-1.4-2-1.4-3.4
		s0.5-2.5,1.4-3.4c0.9-0.9,2-1.4,3.4-1.4c1.3,0,2.5,0.5,3.4,1.4C1712.2,1540.2,1712.7,1541.4,1712.7,1542.7z"/>
	<path class="st12" d="M1707.9,1582.3v-1c0,0.1,0,0.2,0,0.2v0.1v0.2c0,0,0,0.1,0,0.1c0,0,0,0,0,0.1c0.1,8.8,7.3,16,16.2,16
		c8.9,0,16.2-7.3,16.2-16.2c0-4-1.5-7.7-3.9-10.5c-0.7-0.6-1.3-1.2-1.9-1.9c-0.1-0.1-0.2-0.2-0.2-0.3l0.6,0.6l1.3,1.3l0.5,0.5"/>
	<path class="st12" d="M1735.1,1515.6l-0.4,0.4c0-0.1,0.1-0.1,0.1-0.2c0.4-0.4,0.8-0.8,1.2-1.2c0,0,0,0,0,0c0,0,0.1-0.1,0.1-0.1
		l-0.3,0.3C1735.6,1515.1,1735.4,1515.3,1735.1,1515.6z"/>
	<path class="st12" d="M1745.3,1542.8c0,0-0.1,0-0.1,0c0,0,0,0,0,0C1745.2,1542.8,1745.3,1542.8,1745.3,1542.8z"/>
	<path class="st12" d="M1745.8,1542.8c-0.1,0-0.2,0-0.3,0C1745.6,1542.8,1745.7,1542.8,1745.8,1542.8
		C1745.8,1542.8,1745.8,1542.8,1745.8,1542.8z"/>
	<path class="st12" d="M1748,1542.7c-0.1,0-0.2,0-0.2,0h0c-0.3,0-0.6,0-0.9,0c-0.3,0-0.6,0-0.8,0h0c-0.1,0-0.2,0-0.3,0h0.8
		c0.1,0,0.3,0,0.5,0c0.2,0,0.3,0,0.5,0H1748z"/>
	<path class="st12" d="M1748.1,1542.8L1748.1,1542.8c-0.1,0-0.3,0-0.4,0C1747.9,1542.8,1748,1542.8,1748.1,1542.8
		C1748.1,1542.8,1748.1,1542.8,1748.1,1542.8z"/>
	<path class="st12" d="M1748.7,1542.8c-0.1,0-0.1,0-0.2,0h0c-0.1,0-0.1,0-0.2,0c0.1,0,0.1,0,0.2,0
		C1748.6,1542.8,1748.7,1542.8,1748.7,1542.8z"/>
	<path class="st12" d="M1762.1,1553.3c0-0.1,0-0.1-0.1-0.2c-0.1-0.2-0.2-0.4-0.2-0.6c-0.1-0.2-0.1-0.3-0.2-0.5
		c-0.1-0.1-0.1-0.3-0.2-0.4c0-0.1-0.1-0.2-0.1-0.3c0-0.1-0.1-0.2-0.2-0.3c0,0,0-0.1-0.1-0.1c-0.1-0.2-0.2-0.3-0.3-0.5
		c-0.1-0.2-0.2-0.3-0.3-0.5c-0.1-0.2-0.2-0.3-0.3-0.5v0c-0.1-0.2-0.2-0.3-0.4-0.5c-0.1-0.2-0.2-0.3-0.4-0.5
		c-0.1-0.1-0.2-0.3-0.4-0.4c0,0,0-0.1-0.1-0.1c-0.1-0.1-0.2-0.3-0.3-0.4c0,0,0,0,0,0c-0.1-0.1-0.3-0.3-0.4-0.4
		c-0.1-0.1-0.2-0.2-0.4-0.4c-0.2-0.2-0.3-0.3-0.5-0.5c-0.2-0.1-0.3-0.3-0.5-0.4c-0.2-0.1-0.4-0.3-0.6-0.4c-0.1-0.1-0.2-0.2-0.4-0.3
		c-0.1-0.1-0.2-0.1-0.3-0.2c-0.1-0.1-0.3-0.2-0.4-0.2c-0.2-0.1-0.4-0.3-0.7-0.4c-0.1-0.1-0.2-0.1-0.3-0.1c-0.2-0.1-0.3-0.2-0.5-0.2
		c-0.2-0.1-0.4-0.2-0.6-0.2c-0.1-0.1-0.3-0.1-0.5-0.2c-0.1-0.1-0.3-0.1-0.4-0.1c0,0-0.1,0-0.1-0.1c-0.1,0-0.2-0.1-0.3-0.1
		c-0.1,0-0.2-0.1-0.3-0.1c-0.1,0-0.2-0.1-0.3-0.1c-0.1,0-0.2-0.1-0.3-0.1c-0.1,0-0.1,0-0.2-0.1c-0.1,0-0.2-0.1-0.4-0.1
		c-0.3-0.1-0.5-0.1-0.8-0.2c-0.1,0-0.2,0-0.3,0c0.1,0,0.1,0,0.2,0h0c0.2,0,0.4,0.1,0.5,0.1c0.1,0,0.1,0,0.2,0c0,0,0,0,0,0
		c0,0,0,0,0,0c0.2,0,0.3,0.1,0.5,0.1c0.1,0,0.1,0,0.1,0c0.2,0,0.3,0.1,0.5,0.1c0.2,0.1,0.4,0.1,0.7,0.2c0.2,0.1,0.4,0.1,0.5,0.2
		c0.1,0,0.2,0.1,0.3,0.1c0.2,0.1,0.4,0.2,0.6,0.3c0.1,0,0.2,0.1,0.3,0.1c0.2,0.1,0.4,0.2,0.7,0.3c0,0,0,0,0,0
		c0.2,0.1,0.4,0.2,0.6,0.4c0.1,0.1,0.2,0.1,0.3,0.2c0.1,0.1,0.2,0.2,0.4,0.2c0.1,0.1,0.2,0.2,0.4,0.3c0.2,0.2,0.5,0.3,0.7,0.5
		c0.1,0.1,0.2,0.1,0.2,0.2c0,0,0,0,0,0c0.1,0.1,0.3,0.2,0.4,0.4c0.1,0.1,0.3,0.3,0.4,0.4c0,0,0,0,0,0c0.1,0.1,0.2,0.2,0.3,0.3
		c0.1,0.1,0.2,0.2,0.3,0.3c0.1,0.1,0.2,0.3,0.4,0.4c0.1,0.1,0.2,0.3,0.4,0.4c0.1,0.1,0.2,0.2,0.2,0.3c0,0,0,0,0,0
		c0.1,0.2,0.3,0.3,0.4,0.5c0.1,0.1,0.2,0.2,0.3,0.4c0.1,0.2,0.2,0.3,0.3,0.5c0.1,0.2,0.2,0.3,0.3,0.5c0.1,0.1,0.1,0.2,0.2,0.3
		c0.1,0.2,0.2,0.4,0.3,0.7c0.1,0.2,0.2,0.4,0.3,0.7c0.1,0.1,0.1,0.2,0.1,0.3c0.1,0.3,0.3,0.7,0.4,1c0,0.1,0.1,0.2,0.1,0.4
		s0.1,0.2,0.1,0.4c0.1,0.2,0.1,0.4,0.1,0.6c0,0,0,0,0,0c0,0.2,0.1,0.3,0.1,0.5c0,0.1,0,0.1,0,0.2c-0.1-0.4-0.2-0.8-0.3-1.2
		C1762.3,1554.1,1762.2,1553.7,1762.1,1553.3z"/>
	<line class="st12" x1="1747.4" y1="1542.7" x2="1746.4" y2="1542.7"/>
	<line class="st12" x1="1669.5" y1="1542.7" x2="1668.5" y2="1542.7"/>
	<line class="st12" x1="1680.7" y1="1515.5" x2="1680.1" y2="1514.9"/>
	<line class="st12" x1="1735.9" y1="1514.8" x2="1735.1" y2="1515.6"/>
	<path class="st12" d="M1707.9,1503.4v34.6c-1.3,0-2.5,0.5-3.4,1.4l-23.4-23.4c-0.1-0.1-0.1-0.1-0.2-0.2l0,0
		c-0.4-0.4-0.8-0.8-1.2-1.2c-2.6-2.9-4.2-6.7-4.2-10.9c0-8.9,7.2-16.1,16.1-16.1C1700.6,1487.6,1707.7,1494.6,1707.9,1503.4z"/>
	<path class="st12" d="M1681,1515.8c-0.1-0.1-0.2-0.2-0.3-0.3l-0.5-0.5c-0.1-0.1-0.2-0.2-0.3-0.3
		C1680.2,1515,1680.6,1515.4,1681,1515.8z"/>
	<path class="st12" d="M1707.9,1503.8c0,0.1,0,0.3,0,0.4v-0.8C1707.9,1503.5,1707.9,1503.6,1707.9,1503.8z"/>
	<path class="st12" d="M1736,1514.6c-0.1,0.1-0.1,0.1-0.2,0.2c-0.2,0.3-0.5,0.5-0.8,0.8c-0.1,0.1-0.2,0.1-0.2,0.2
		C1735.2,1515.4,1735.6,1515,1736,1514.6z"/>
	<path class="st12" d="M1707.9,1581.8c0-0.1,0-0.1,0-0.2L1707.9,1581.8c0,0,0,0.1,0,0.1V1581.8z"/>
	<path class="st12" d="M1736.5,1571.3c-0.7-0.6-1.3-1.2-1.9-1.9c0.1,0.1,0.2,0.2,0.4,0.3c0.1,0.1,0.3,0.2,0.4,0.3l0.2,0.2
		c0,0,0.1,0.1,0.1,0.1c0,0,0,0,0.1,0.1c0,0,0,0,0.1,0.1c0.1,0.1,0.3,0.3,0.4,0.4C1736.3,1571.1,1736.4,1571.2,1736.5,1571.3z"/>
	<path class="st12" d="M1707.9,1581.5v0.3c0,0,0,0.1,0,0.1c0,0,0,0,0,0.1c0,0.1,0,0.2,0,0.3v-1
		C1707.9,1581.4,1707.9,1581.4,1707.9,1581.5z"/>
	<path class="st12" d="M1745.8,1542.8c-0.1,0-0.2,0-0.3,0C1745.6,1542.8,1745.7,1542.8,1745.8,1542.8
		C1745.8,1542.8,1745.8,1542.8,1745.8,1542.8z"/>
	<path class="st12" d="M1661,1572.8c-0.1-0.1-0.2-0.1-0.4-0.2"/>
	<line class="st12" x1="1696.5" y1="1597.2" x2="1696.5" y2="1597.2"/>
	<path class="st12" d="M1670.2,1542.7c-0.1,0-0.2,0-0.3,0c-0.3,0-0.6,0-0.9,0c-0.3,0-0.6,0-0.9,0c-0.1,0-0.2,0-0.3,0h0.7
		c0.2,0,0.3,0,0.5,0c0.2,0,0.3,0,0.5,0H1670.2z"/>
	<path class="st12" d="M1681.2,1516l-0.5-0.5l-0.5-0.5l-0.4-0.4c0.1,0,0.1,0.1,0.2,0.1c0.4,0.4,0.8,0.7,1.2,1.2l0,0
		C1681.1,1515.9,1681.1,1515.9,1681.2,1516z"/>
	<g>
		<circle class="st7" cx="1712.7" cy="1534.1" r="61.5"/>
		<path class="st12" d="M1707.9,1604.2c17,0,32.4-6.9,43.5-18"/>
		<path class="st12" d="M1712.7,1542.7c0,1.3-0.5,2.5-1.4,3.4c-0.9,0.9-2,1.4-3.4,1.4c-1.3,0-2.5-0.5-3.4-1.4
			c-0.9-0.9-1.4-2-1.4-3.4s0.5-2.5,1.4-3.4c0.9-0.9,2-1.4,3.4-1.4c1.3,0,2.5,0.5,3.4,1.4C1712.2,1540.2,1712.7,1541.4,1712.7,1542.7
			z"/>
		<path class="st12" d="M1740.2,1503.8c0,4.2-1.6,8-4.2,10.9c0,0,0,0,0,0c-0.4,0.4-0.8,0.7-1.2,1.2c0,0.1-0.1,0.1-0.1,0.2
			l-23.4,23.4c-0.9-0.9-2-1.4-3.4-1.4v-33.8c0-0.1,0-0.3,0-0.4c0-8.9,7.2-16.1,16.1-16.1S1740.2,1494.8,1740.2,1503.8z"/>
		<path class="st12" d="M1740.3,1581.8c0,8.9-7.3,16.2-16.2,16.2c-8.9,0-16.1-7.1-16.2-16c0,0,0,0,0-0.1c0,0,0-0.1,0-0.1v-0.3
			c0-0.1,0-0.2,0-0.2v-33.8c1.3,0,2.5-0.5,3.4-1.4l23,23c0.1,0.1,0.2,0.2,0.2,0.3c0.6,0.7,1.2,1.3,1.9,1.9
			C1738.9,1574.1,1740.3,1577.8,1740.3,1581.8z"/>
		<path class="st12" d="M1707.9,1604.2c-4.2,0-8.3-0.4-12.3-1.2v0c-12.1-2.4-22.9-8.4-31.2-16.8c-1.3-1.3-2.6-2.7-3.8-4.2
			c-2.1-2.6-4-5.3-5.7-8.2c-5.3-9.1-8.4-19.7-8.4-31c0-1.4,0.1-2.9,0.2-4.3c0.6-8.8,3.1-17.1,7-24.5v0
			c10.3-19.4,30.8-32.7,54.3-32.7c34,0,61.5,27.5,61.5,61.5c0,12.4-3.7,23.9-10,33.6c-2.3,3.6-5,6.9-8,9.9"/>
		<path class="st12" d="M1736.7,1571.5l-0.5-0.5l-1.3-1.3c0.1,0.1,0.2,0.2,0.4,0.3l0.4,0.4c0,0,0,0,0.1,0c0,0,0.1,0.1,0.1,0.1
			c0.2,0.1,0.3,0.3,0.5,0.4c0,0,0.1,0.1,0.1,0.1c0.1,0.1,0.3,0.2,0.4,0.3c0,0,0,0,0,0c0.2,0.1,0.3,0.3,0.5,0.4
			c0.2,0.1,0.3,0.3,0.5,0.4c0.1,0.1,0.2,0.1,0.3,0.2c0.1,0.1,0.2,0.1,0.3,0.2c0.1,0.1,0.2,0.1,0.3,0.2h0c0,0,0.1,0.1,0.2,0.1
			c0.1,0,0.2,0.1,0.3,0.2c0.3,0.2,0.6,0.3,0.9,0.5c0.1,0,0.2,0.1,0.3,0.2c0.1,0,0.2,0.1,0.3,0.1c0.4,0.2,0.9,0.3,1.3,0.5
			c0.1,0,0.2,0.1,0.4,0.1c0.2,0.1,0.5,0.1,0.8,0.2c0.1,0,0.3,0.1,0.4,0.1c0.1,0,0.2,0,0.3,0.1c0.1,0,0.2,0,0.3,0.1
			c0.2,0,0.4,0,0.6,0.1c0.1,0,0.2,0,0.3,0c0.1,0,0.2,0,0.2,0c0.1,0,0.2,0,0.3,0c0.2,0,0.5,0,0.7,0h0.9c0.3,0,0.5,0,0.8,0
			c0.1,0,0.1,0,0.2,0c0.2,0,0.4,0,0.6-0.1c0,0,0.1,0,0.1,0c0.1,0,0.2,0,0.4-0.1c0.3,0,0.5-0.1,0.8-0.1c0.1,0,0.3-0.1,0.4-0.1
			c0.2,0,0.3-0.1,0.5-0.1c0.1,0,0.1,0,0.2,0c0.2,0,0.3-0.1,0.5-0.1c0.1,0,0.3-0.1,0.4-0.1c0.1,0,0.1-0.1,0.2-0.1
			c0.2,0,0.3-0.1,0.5-0.2c0.1-0.1,0.2-0.1,0.4-0.2l0.4-0.2c0.1,0,0.2-0.1,0.3-0.1c0.1-0.1,0.3-0.1,0.4-0.2c0.1-0.1,0.2-0.1,0.3-0.2
			c0.1-0.1,0.2-0.1,0.3-0.2c0.1-0.1,0.2-0.1,0.4-0.2l0.3-0.2c0.1-0.1,0.2-0.1,0.3-0.2c0.1-0.1,0.2-0.1,0.3-0.2
			c0.2-0.1,0.4-0.3,0.6-0.4c0.1-0.1,0.2-0.2,0.3-0.2c0.1-0.1,0.2-0.2,0.3-0.2c0.1-0.1,0.2-0.2,0.3-0.2c0.1-0.1,0.2-0.2,0.3-0.3
			c0.1-0.1,0.2-0.2,0.3-0.3c0.4-0.4,0.7-0.7,1.1-1.1c0,0,0,0,0,0c0.1-0.1,0.1-0.2,0.2-0.3c0.1-0.2,0.2-0.3,0.4-0.5
			c0.1-0.2,0.2-0.3,0.3-0.5c0.1-0.2,0.3-0.4,0.4-0.6c0.1-0.2,0.3-0.4,0.4-0.6c0-0.1,0.1-0.2,0.2-0.3c0.1-0.1,0.1-0.2,0.2-0.4
			c0.1-0.2,0.1-0.3,0.2-0.4c0.1-0.1,0.1-0.2,0.2-0.3c0-0.1,0.1-0.2,0.1-0.3c0,0,0-0.1,0-0.1c0-0.1,0.1-0.2,0.1-0.3c0,0,0-0.1,0-0.1
			c0-0.1,0-0.1,0.1-0.2c0-0.1,0-0.1,0.1-0.2c0-0.1,0.1-0.2,0.1-0.3c0-0.1,0.1-0.2,0.1-0.3c0.1-0.1,0.1-0.3,0.1-0.4c0,0,0,0,0,0
			c0-0.1,0.1-0.3,0.1-0.4c0,0,0,0,0-0.1s0,0,0,0c0.1-0.2,0.1-0.4,0.2-0.7c0,0,0,0,0,0c0-0.1,0-0.1,0-0.2c0-0.1,0-0.2,0-0.2
			c0-0.1,0-0.2,0.1-0.4v0c0-0.1,0-0.2,0-0.4l0,0c0-0.1,0-0.1,0-0.1c0-0.1,0-0.1,0-0.1c0,0,0-0.1,0-0.1c0,0,0-0.1,0-0.1
			c0-0.1,0-0.2,0-0.2c0,0,0-0.1,0-0.1c0-0.1,0-0.2,0-0.3v-0.1c0,0,0-0.1,0-0.1c0-0.1,0-0.2,0-0.3c0-0.1,0-0.2,0-0.4
			c0-0.3,0-0.5,0-0.8c0-0.1,0-0.2,0-0.3c0-0.1,0-0.1,0-0.2c0-0.1,0-0.1,0-0.2v0c0-0.1,0-0.2,0-0.4c0,0,0,0,0-0.1
			c0-0.2-0.1-0.5-0.1-0.7c0-0.1,0-0.2,0-0.2c0-0.1,0-0.2-0.1-0.3c0-0.1,0-0.1,0-0.2c0-0.2-0.1-0.3-0.1-0.5c0,0,0,0,0,0
			c-0.1-0.2-0.1-0.4-0.2-0.6c0-0.1-0.1-0.2-0.1-0.4s-0.1-0.2-0.1-0.3c0-0.1-0.1-0.3-0.1-0.4c-0.1-0.2-0.2-0.4-0.2-0.7
			c0-0.1-0.1-0.2-0.2-0.3c-0.1-0.2-0.2-0.5-0.3-0.7c0,0-0.1-0.1-0.1-0.2c-0.1-0.1-0.1-0.2-0.2-0.3c0,0-0.1-0.1-0.1-0.1
			c0,0,0-0.1,0-0.1c-0.1-0.1-0.1-0.2-0.2-0.3c-0.1-0.2-0.2-0.3-0.3-0.5c-0.1-0.2-0.2-0.3-0.3-0.5c-0.1-0.1-0.2-0.2-0.3-0.4
			c-0.1-0.2-0.2-0.3-0.4-0.5c0,0,0,0,0,0c-0.1-0.1-0.2-0.2-0.2-0.3c-0.1-0.1-0.2-0.3-0.4-0.4c-0.1-0.1-0.2-0.3-0.4-0.4
			c-0.1-0.1-0.2-0.2-0.2-0.3c-0.1-0.1-0.2-0.2-0.3-0.2c0,0,0,0,0,0c-0.1-0.1-0.3-0.3-0.4-0.4c-0.1-0.1-0.3-0.2-0.4-0.4
			c0,0,0,0-0.1,0c-0.1-0.1-0.2-0.1-0.2-0.2c-0.2-0.2-0.5-0.3-0.7-0.5c-0.1-0.1-0.2-0.2-0.4-0.2c-0.1-0.1-0.2-0.2-0.4-0.2
			c-0.1-0.1-0.2-0.1-0.3-0.2c-0.2-0.1-0.4-0.2-0.6-0.4c0,0,0,0,0,0c-0.1-0.1-0.3-0.1-0.4-0.2c-0.1,0-0.2-0.1-0.2-0.1
			c-0.1,0-0.1-0.1-0.2-0.1c0,0-0.1,0-0.1,0c-0.2-0.1-0.3-0.1-0.5-0.2c0,0,0,0-0.1,0c0,0,0,0-0.1,0c-0.1,0-0.2-0.1-0.3-0.1
			c-0.2-0.1-0.4-0.1-0.5-0.2c-0.2-0.1-0.4-0.2-0.7-0.2c-0.1,0-0.1,0-0.2-0.1c-0.1,0-0.2-0.1-0.3-0.1c-0.1,0-0.1,0-0.1,0
			c-0.2,0-0.3-0.1-0.4-0.1c0,0-0.1,0-0.1,0c0,0,0,0,0,0c0,0,0,0,0,0c-0.2,0-0.4-0.1-0.7-0.1c0,0-0.1,0-0.1,0c-0.1,0-0.1,0-0.2,0
			c0,0,0,0,0,0h0c-0.1,0-0.2,0-0.3,0c0,0,0,0,0,0c-0.1,0-0.1,0-0.2,0c-0.1,0-0.1,0-0.2,0h0c-0.1,0-0.2,0-0.4,0h0c-0.1,0-0.2,0-0.4,0
			c0.1,0,0.2,0,0.2,0c8.4-0.6,15-7.6,15-16.1c0-8.9-7.2-16.2-16.1-16.2c-4.1,0-7.8,1.5-10.7,4c0,0-0.1,0.1-0.1,0.1
			c2.6-2.9,4.2-6.7,4.2-10.8c0-8.9-7.2-16.2-16.1-16.2c-8.9,0-16.2,7.2-16.2,16.2c0-0.1,0-0.3,0-0.4c-0.2-8.7-7.4-15.7-16.1-15.7
			c-8.9,0-16.1,7.2-16.1,16.2c0,4.2,1.6,8,4.2,10.8c-0.1-0.1-0.1-0.1-0.2-0.1c-2.8-2.5-6.6-4-10.6-4c-8.9,0-16.1,7.2-16.1,16.2
			c0,0.3,0,0.7,0,1c0,0.1,0,0.1,0,0.2c0,0.2,0,0.5,0.1,0.7c0,0.5,0.1,1,0.2,1.5c0,0.2,0.1,0.5,0.2,0.8c0,0,0,0.1,0,0.1
			c0.1,0.2,0.1,0.5,0.2,0.7c0.2,0.8,0.5,1.5,0.9,2.2c0.1,0.2,0.2,0.4,0.3,0.6c0.2,0.3,0.3,0.6,0.5,0.9c0.1,0.2,0.3,0.4,0.4,0.6
			c0.1,0.2,0.3,0.4,0.4,0.6c0.2,0.3,0.5,0.6,0.8,0.9c0.2,0.3,0.5,0.6,0.8,0.8c0.1,0.1,0.2,0.2,0.4,0.3c0,0,0,0,0,0
			c0.2,0.2,0.4,0.4,0.6,0.5c0.3,0.2,0.5,0.4,0.8,0.6c0.3,0.2,0.6,0.4,0.8,0.6h0c0.2,0.2,0.5,0.3,0.7,0.4c0.9,0.5,1.8,0.9,2.8,1.2
			c0.3,0.1,0.5,0.2,0.8,0.2c0.3,0.1,0.5,0.1,0.8,0.2c0.1,0,0.3,0.1,0.4,0.1c0.2,0,0.5,0.1,0.7,0.1c0.3,0,0.6,0.1,0.9,0.1
			c0.1,0,0.2,0,0.3,0c-0.5,0-1.1,0.1-1.6,0.2"/>
		<path class="st12" d="M1704.6,1539.4c-0.9,0.9-1.4,2-1.4,3.4h-33.6c-0.2,0-0.3,0-0.5,0c-0.2,0-0.3,0-0.5,0h-0.7
			c-0.3,0-0.6-0.1-0.9-0.1c-0.2,0-0.5-0.1-0.7-0.1c-0.2,0-0.3-0.1-0.5-0.1c-0.3-0.1-0.5-0.1-0.8-0.2c-0.3-0.1-0.6-0.2-0.8-0.2
			c-1-0.3-1.9-0.7-2.8-1.2c-0.2-0.1-0.5-0.3-0.7-0.4h0c-0.3-0.2-0.6-0.4-0.8-0.6c-0.3-0.2-0.5-0.4-0.8-0.6c-0.2-0.2-0.4-0.3-0.6-0.5
			l0,0c-0.1-0.1-0.3-0.2-0.4-0.3c-0.3-0.3-0.6-0.5-0.8-0.8c-0.3-0.3-0.5-0.6-0.8-0.9c-0.1-0.2-0.3-0.4-0.4-0.6
			c-0.1-0.2-0.3-0.4-0.4-0.6c-0.2-0.3-0.4-0.6-0.5-0.9c-0.1-0.2-0.2-0.4-0.3-0.6c-0.3-0.7-0.6-1.4-0.9-2.2c-0.1-0.2-0.2-0.5-0.2-0.7
			c0,0,0-0.1,0-0.1c-0.1-0.2-0.1-0.5-0.2-0.8c-0.1-0.5-0.2-1-0.2-1.5c0-0.2-0.1-0.5-0.1-0.7c0-0.1,0-0.1,0-0.2c0-0.3,0-0.7,0-1
			c0-8.9,7.2-16.2,16.1-16.2c4.1,0,7.8,1.5,10.6,4l0.4,0.4c0.2,0.2,0.4,0.4,0.6,0.5l0.6,0.6L1704.6,1539.4z"/>
		<path class="st12" d="M1763,1526.6c0,8.5-6.6,15.5-15,16.1h-0.6c-0.2,0-0.3,0-0.5,0c-0.2,0-0.3,0-0.5,0h-33.7
			c0-1.3-0.5-2.5-1.4-3.4l23.4-23.4l0.4-0.4c0.3-0.2,0.5-0.5,0.8-0.8l0.3-0.3c2.8-2.5,6.6-4,10.7-4
			C1755.7,1510.5,1763,1517.7,1763,1526.6z"/>
	</g>
	<g>
		<circle class="st7" cx="2352.9" cy="1606.1" r="61.5"/>
		<path class="st12" d="M2348.2,1676.2c17,0,32.4-6.9,43.5-18"/>
		<path class="st12" d="M2352.9,1614.7c0,1.3-0.5,2.5-1.4,3.4c-0.9,0.9-2,1.4-3.4,1.4c-1.3,0-2.5-0.5-3.4-1.4
			c-0.9-0.9-1.4-2-1.4-3.4c0-1.3,0.5-2.5,1.4-3.4s2-1.4,3.4-1.4c1.3,0,2.5,0.5,3.4,1.4C2352.4,1612.2,2352.9,1613.4,2352.9,1614.7z"
			/>
		<path class="st12" d="M2380.5,1575.8c0,4.2-1.6,8-4.2,10.9c0,0,0,0,0,0c-0.4,0.4-0.8,0.7-1.2,1.2c0,0.1-0.1,0.1-0.1,0.2
			l-23.4,23.4c-0.9-0.9-2-1.4-3.4-1.4v-33.8c0-0.1,0-0.3,0-0.4c0-8.9,7.2-16.1,16.1-16.1S2380.5,1566.8,2380.5,1575.8z"/>
		<path class="st12" d="M2380.6,1653.8c0,8.9-7.3,16.2-16.2,16.2c-8.9,0-16.1-7.1-16.2-16c0,0,0,0,0-0.1c0,0,0-0.1,0-0.1v-0.3
			c0-0.1,0-0.2,0-0.2v-33.8c1.3,0,2.5-0.5,3.4-1.4l23,23c0.1,0.1,0.2,0.2,0.2,0.3c0.6,0.7,1.2,1.3,1.9,1.9
			C2379.1,1646.1,2380.6,1649.8,2380.6,1653.8z"/>
		<path class="st12" d="M2348.2,1676.2c-4.2,0-8.3-0.4-12.3-1.2v0c-12.1-2.4-22.9-8.4-31.2-16.8c-1.3-1.3-2.6-2.7-3.8-4.2
			c-2.1-2.5-4-5.3-5.7-8.2c-5.4-9.1-8.4-19.7-8.4-31c0-1.4,0-2.9,0.1-4.3c0.6-8.8,3.1-17.1,7-24.5v0c10.3-19.4,30.8-32.7,54.3-32.7
			c34,0,61.5,27.5,61.5,61.5c0,12.4-3.7,23.9-10,33.6c-2.3,3.6-5,6.9-8,9.9"/>
		<path class="st12" d="M2376.9,1643.5l-0.5-0.5l-1.3-1.3c0.1,0.1,0.2,0.2,0.4,0.3l0.4,0.4c0,0,0,0,0.1,0.1c0,0,0.1,0.1,0.1,0.1
			c0.2,0.1,0.3,0.3,0.5,0.4c0,0,0.1,0.1,0.1,0.1C2376.7,1643.2,2376.9,1643.3,2376.9,1643.5c0.1,0,0.1,0,0.1,0
			c0.2,0.1,0.3,0.3,0.5,0.4c0.2,0.1,0.4,0.3,0.5,0.4c0.1,0.1,0.2,0.1,0.3,0.2c0.1,0.1,0.2,0.1,0.3,0.2c0.1,0.1,0.2,0.1,0.3,0.2h0
			c0.1,0,0.1,0.1,0.2,0.1c0.1,0,0.2,0.1,0.3,0.2c0.3,0.2,0.6,0.3,0.9,0.5c0.1,0,0.2,0.1,0.3,0.2c0.1,0,0.2,0.1,0.4,0.1
			c0.4,0.2,0.9,0.3,1.3,0.5c0.1,0,0.2,0.1,0.4,0.1c0.2,0.1,0.5,0.1,0.8,0.2c0.1,0,0.3,0.1,0.4,0.1c0.1,0,0.2,0,0.3,0.1
			c0.1,0,0.2,0,0.3,0.1c0.2,0,0.4,0.1,0.6,0.1c0.1,0,0.2,0,0.3,0c0.1,0,0.2,0,0.2,0c0.1,0,0.2,0,0.3,0c0.2,0,0.5,0,0.7,0h0.9
			c0.3,0,0.5,0,0.8,0c0.1,0,0.1,0,0.2,0c0.2,0,0.4,0,0.6-0.1c0,0,0,0,0.1,0c0.1,0,0.2,0,0.4-0.1c0.3,0,0.5-0.1,0.8-0.1
			c0.1,0,0.3-0.1,0.4-0.1c0.2,0,0.3-0.1,0.5-0.1c0.1,0,0.1,0,0.2-0.1c0.2,0,0.3-0.1,0.5-0.1c0.1,0,0.3-0.1,0.4-0.1
			c0.1,0,0.1-0.1,0.2-0.1c0.1,0,0.3-0.1,0.5-0.2c0.1,0,0.2-0.1,0.4-0.1l0.4-0.2c0.1,0,0.2-0.1,0.3-0.1c0.1-0.1,0.3-0.1,0.4-0.2
			c0.1-0.1,0.2-0.1,0.3-0.2c0.1-0.1,0.2-0.1,0.3-0.2c0.1-0.1,0.2-0.1,0.4-0.2l0.3-0.2c0.1-0.1,0.2-0.1,0.3-0.2
			c0.1-0.1,0.2-0.1,0.3-0.2c0.2-0.1,0.4-0.3,0.6-0.4c0.1-0.1,0.2-0.2,0.3-0.2c0.1-0.1,0.2-0.2,0.3-0.2c0.1-0.1,0.2-0.2,0.3-0.2
			c0.1-0.1,0.2-0.2,0.3-0.3c0.1-0.1,0.2-0.2,0.3-0.3c0.4-0.4,0.7-0.7,1.1-1.1c0,0,0,0,0,0c0.1-0.1,0.2-0.2,0.2-0.3
			c0.1-0.2,0.2-0.3,0.4-0.5c0.1-0.2,0.2-0.3,0.3-0.5c0.1-0.2,0.3-0.4,0.4-0.6c0.1-0.2,0.3-0.4,0.4-0.6c0.1-0.1,0.1-0.2,0.2-0.3
			c0.1-0.1,0.1-0.2,0.2-0.4c0.1-0.1,0.1-0.3,0.2-0.4c0.1-0.1,0.1-0.2,0.2-0.3c0-0.1,0.1-0.2,0.1-0.3c0,0,0-0.1,0-0.1
			c0-0.1,0.1-0.2,0.1-0.3c0,0,0-0.1,0-0.1c0,0,0-0.1,0.1-0.2c0-0.1,0-0.1,0.1-0.2c0-0.1,0.1-0.2,0.1-0.3c0-0.1,0.1-0.2,0.1-0.3
			c0.1-0.1,0.1-0.3,0.1-0.4c0,0,0,0,0,0c0-0.1,0.1-0.3,0.1-0.4c0,0,0,0,0-0.1s0,0,0,0c0.1-0.2,0.1-0.4,0.2-0.7c0,0,0,0,0,0
			c0-0.1,0-0.1,0-0.2c0-0.1,0-0.2,0-0.2c0-0.1,0-0.2,0.1-0.4v0c0-0.1,0-0.2,0.1-0.4l0,0c0-0.1,0-0.1,0-0.1c0-0.1,0-0.1,0-0.1
			c0,0,0-0.1,0-0.1c0,0,0-0.1,0-0.1c0-0.1,0-0.2,0-0.2c0,0,0-0.1,0-0.1c0-0.1,0-0.2,0-0.3v-0.1c0,0,0-0.1,0-0.1c0-0.1,0-0.2,0-0.3
			c0-0.1,0-0.2,0-0.4c0-0.3,0-0.5,0-0.8c0-0.1,0-0.2,0-0.3c0-0.1,0-0.1,0-0.2c0-0.1,0-0.1,0-0.2v0c0-0.1,0-0.2,0-0.4c0,0,0,0,0-0.1
			c0-0.2-0.1-0.5-0.1-0.7c0-0.1,0-0.2,0-0.2c0-0.1,0-0.2-0.1-0.3c0-0.1,0-0.1,0-0.2c0-0.2-0.1-0.3-0.1-0.5c0,0,0,0,0,0
			c-0.1-0.2-0.1-0.4-0.1-0.6c0-0.1-0.1-0.2-0.1-0.4s-0.1-0.2-0.1-0.3c0-0.1-0.1-0.3-0.1-0.4c-0.1-0.2-0.2-0.4-0.2-0.7
			c-0.1-0.1-0.1-0.2-0.1-0.3c-0.1-0.2-0.2-0.5-0.3-0.7c0,0-0.1-0.1-0.1-0.2c-0.1-0.1-0.1-0.2-0.2-0.3c0,0-0.1-0.1-0.1-0.1
			c0,0,0-0.1,0-0.1c-0.1-0.1-0.1-0.2-0.2-0.3c-0.1-0.2-0.2-0.3-0.3-0.5c-0.1-0.2-0.2-0.3-0.3-0.5c-0.1-0.1-0.2-0.2-0.3-0.4
			c-0.1-0.2-0.2-0.3-0.4-0.5c0,0,0,0,0,0c-0.1-0.1-0.1-0.2-0.2-0.3c-0.1-0.1-0.2-0.3-0.4-0.4c-0.1-0.1-0.2-0.3-0.4-0.4
			c-0.1-0.1-0.2-0.2-0.2-0.3c-0.1-0.1-0.2-0.2-0.3-0.2c0,0,0,0,0,0c-0.1-0.1-0.3-0.3-0.4-0.4c-0.1-0.1-0.3-0.2-0.4-0.4
			c0,0,0,0-0.1,0c-0.1-0.1-0.2-0.1-0.2-0.2c-0.2-0.2-0.5-0.3-0.7-0.5c-0.1-0.1-0.2-0.2-0.4-0.2c-0.1-0.1-0.2-0.2-0.4-0.2
			c-0.1-0.1-0.2-0.1-0.3-0.2c-0.2-0.1-0.4-0.2-0.6-0.4c0,0,0,0,0,0c-0.1-0.1-0.3-0.1-0.4-0.2c-0.1,0-0.2-0.1-0.2-0.1
			c-0.1,0-0.1-0.1-0.2-0.1c0,0-0.1,0-0.1,0c-0.2-0.1-0.3-0.1-0.5-0.2c0,0,0,0-0.1,0s0,0-0.1,0c-0.1,0-0.2-0.1-0.3-0.1
			c-0.2-0.1-0.4-0.1-0.5-0.2c-0.2-0.1-0.4-0.2-0.7-0.2c-0.1,0-0.1,0-0.2-0.1c-0.1,0-0.2-0.1-0.3-0.1c0,0-0.1,0-0.1,0
			c-0.1,0-0.3-0.1-0.4-0.1c0,0-0.1,0-0.1,0c0,0,0,0,0,0c0,0,0,0,0,0c-0.2,0-0.4-0.1-0.6-0.1c0,0-0.1,0-0.1,0c-0.1,0-0.1,0-0.2,0
			c0,0,0,0,0,0h0c-0.1,0-0.2,0-0.3,0c0,0,0,0,0,0c-0.1,0-0.1,0-0.2,0c-0.1,0-0.1,0-0.2,0h0c-0.1,0-0.2,0-0.4,0h0c-0.1,0-0.2,0-0.4,0
			c0.1,0,0.2,0,0.2,0c8.4-0.6,15-7.6,15-16.1c0-8.9-7.2-16.2-16.1-16.2c-4.1,0-7.8,1.5-10.7,4c0,0-0.1,0.1-0.1,0.1
			c2.6-2.9,4.2-6.7,4.2-10.8c0-8.9-7.2-16.2-16.1-16.2c-8.9,0-16.1,7.2-16.1,16.2c0-0.1,0-0.3,0-0.4c-0.2-8.7-7.4-15.7-16.1-15.7
			c-8.9,0-16.1,7.2-16.1,16.2c0,4.2,1.6,8,4.2,10.8c-0.1-0.1-0.1-0.1-0.2-0.1c-2.8-2.5-6.6-4-10.6-4c-8.9,0-16.1,7.2-16.1,16.2
			c0,0.3,0,0.7,0,1c0,0.1,0,0.1,0,0.2c0,0.2,0,0.5,0.1,0.7c0.1,0.5,0.1,1,0.2,1.5c0.1,0.2,0.1,0.5,0.2,0.8c0,0,0,0.1,0,0.1
			c0.1,0.2,0.1,0.5,0.2,0.7c0.2,0.8,0.5,1.5,0.9,2.2c0.1,0.2,0.2,0.4,0.3,0.6c0.2,0.3,0.3,0.6,0.5,0.9c0.1,0.2,0.3,0.4,0.4,0.6
			c0.1,0.2,0.3,0.4,0.4,0.6c0.2,0.3,0.5,0.6,0.8,0.9c0.2,0.3,0.5,0.6,0.8,0.8c0.1,0.1,0.2,0.2,0.4,0.3c0,0,0,0,0.1,0
			c0.2,0.2,0.4,0.4,0.6,0.5c0.3,0.2,0.5,0.4,0.8,0.6c0.3,0.2,0.6,0.4,0.8,0.6h0c0.2,0.2,0.5,0.3,0.7,0.4c0.9,0.5,1.8,0.9,2.8,1.2
			c0.3,0.1,0.6,0.2,0.8,0.2c0.3,0.1,0.5,0.1,0.8,0.2c0.2,0,0.3,0.1,0.4,0.1c0.2,0,0.5,0.1,0.7,0.1c0.3,0,0.6,0.1,0.9,0.1
			c0.1,0,0.2,0,0.3,0c-0.6,0-1.1,0.1-1.6,0.2"/>
		<path class="st12" d="M2344.8,1611.4c-0.9,0.9-1.4,2-1.4,3.4h-33.6c-0.2,0-0.3,0-0.5,0c-0.2,0-0.3,0-0.5,0h-0.7
			c-0.3,0-0.6-0.1-0.9-0.1c-0.2,0-0.5-0.1-0.7-0.1c-0.2,0-0.3,0-0.5-0.1c-0.3-0.1-0.5-0.1-0.8-0.2c-0.3-0.1-0.6-0.2-0.8-0.2
			c-1-0.3-1.9-0.7-2.8-1.2c-0.2-0.1-0.5-0.3-0.7-0.4h0c-0.3-0.2-0.6-0.4-0.8-0.6c-0.3-0.2-0.5-0.4-0.8-0.6c-0.2-0.2-0.4-0.3-0.6-0.5
			l-0.1,0c-0.1-0.1-0.3-0.2-0.4-0.4c-0.3-0.3-0.6-0.5-0.8-0.8c-0.3-0.3-0.5-0.6-0.8-0.9c-0.1-0.2-0.3-0.4-0.4-0.6
			c-0.1-0.2-0.3-0.4-0.4-0.6c-0.2-0.3-0.4-0.6-0.5-0.9c-0.1-0.2-0.2-0.4-0.3-0.6c-0.4-0.7-0.6-1.4-0.9-2.2c-0.1-0.2-0.2-0.5-0.2-0.7
			c0,0,0-0.1,0-0.1c-0.1-0.2-0.1-0.5-0.2-0.8c-0.1-0.5-0.2-1-0.2-1.5c0-0.2-0.1-0.5-0.1-0.7c0-0.1,0-0.1,0-0.2c0-0.3,0-0.7,0-1
			c0-8.9,7.2-16.2,16.1-16.2c4.1,0,7.8,1.5,10.6,4l0.4,0.4c0.2,0.2,0.4,0.4,0.6,0.5l0.6,0.6L2344.8,1611.4z"/>
		<path class="st12" d="M2403.2,1598.6c0,8.5-6.6,15.5-15,16.1h-0.6c-0.2,0-0.3,0-0.5,0c-0.2,0-0.3,0-0.5,0h-33.8
			c0-1.3-0.5-2.5-1.4-3.4l23.4-23.4l0.4-0.4c0.3-0.2,0.5-0.5,0.8-0.8l0.3-0.3c2.8-2.5,6.6-4,10.7-4
			C2396,1582.5,2403.2,1589.7,2403.2,1598.6z"/>
	</g>
	<path class="st12" d="M1736,1514.6c0,0,0.1-0.1,0.1-0.1l-0.3,0.3c-0.2,0.3-0.5,0.5-0.8,0.8l-0.4,0.4c0-0.1,0.1-0.1,0.1-0.2
		C1735.2,1515.4,1735.6,1515,1736,1514.6C1736,1514.6,1736,1514.6,1736,1514.6z"/>
	<path class="st12" d="M1748,1542.7c-0.1,0-0.2,0-0.2,0h0c-0.3,0-0.6,0-0.9,0c-0.3,0-0.6,0-0.8,0h0c-0.1,0-0.2,0-0.3,0h0.8
		c0.1,0,0.3,0,0.5,0c0.2,0,0.3,0,0.5,0H1748z"/>
	<path class="st12" d="M1669.9,1542.7c-0.3,0-0.6,0-0.9,0c-0.3,0-0.6,0-0.9,0c0.1,0,0.3,0,0.4,0c0.2,0,0.3,0,0.5,0
		c0.2,0,0.3,0,0.5,0C1669.7,1542.7,1669.8,1542.7,1669.9,1542.7z"/>
	<path class="st12" d="M1763.1,1558.1c0-0.1,0-0.2,0-0.3c0-0.1,0-0.1,0-0.2c0-0.1,0-0.1,0-0.2v0c0-0.1,0-0.2,0-0.4c0,0,0-0.1,0-0.1
		c0-0.2-0.1-0.5-0.1-0.7c0-0.1,0-0.2,0-0.2c0-0.1,0-0.2-0.1-0.3c-0.1-0.4-0.2-0.8-0.3-1.2c-0.1-0.4-0.2-0.7-0.4-1.1c0,0,0,0,0-0.1
		c-0.1-0.2-0.2-0.4-0.3-0.7c-0.1-0.2-0.1-0.3-0.2-0.5c-0.1-0.1-0.1-0.3-0.2-0.4c0-0.1-0.1-0.2-0.1-0.3c-0.1-0.1-0.1-0.2-0.2-0.3
		c0,0-0.1-0.1-0.1-0.1c0,0,0,0,0,0c0,0,0,0,0,0c-0.1-0.1-0.2-0.3-0.2-0.4c-0.1-0.2-0.2-0.3-0.3-0.5c-0.1-0.2-0.2-0.3-0.3-0.5v0
		c-0.1-0.2-0.2-0.3-0.4-0.5c-0.1-0.2-0.2-0.3-0.4-0.5c-0.1-0.1-0.2-0.3-0.4-0.4c0,0,0-0.1-0.1-0.1c-0.1-0.1-0.2-0.2-0.4-0.4l0,0
		c-0.1-0.1-0.3-0.3-0.4-0.4c-0.1-0.1-0.2-0.2-0.4-0.4c-0.2-0.2-0.3-0.3-0.5-0.5c-0.2-0.1-0.3-0.2-0.5-0.4c-0.2-0.1-0.4-0.3-0.6-0.4
		c-0.1-0.1-0.2-0.2-0.4-0.2c-0.1-0.1-0.2-0.1-0.3-0.2c-0.1-0.1-0.3-0.2-0.4-0.2c-0.2-0.1-0.4-0.2-0.7-0.4c-0.1,0-0.2-0.1-0.3-0.2
		c-0.1,0-0.2-0.1-0.2-0.1c-0.1,0-0.1-0.1-0.2-0.1c0,0,0,0,0,0c-0.2-0.1-0.4-0.2-0.6-0.2c0,0,0,0-0.1,0c-0.1,0-0.3-0.1-0.4-0.1
		c-0.1-0.1-0.3-0.1-0.4-0.1c0,0-0.1,0-0.1,0c-0.1,0-0.2-0.1-0.3-0.1c-0.1,0-0.2-0.1-0.3-0.1c-0.1,0-0.2,0-0.2-0.1
		c-0.1,0-0.2-0.1-0.3-0.1c-0.1,0-0.2,0-0.2-0.1c-0.1,0-0.2-0.1-0.4-0.1c0,0-0.1,0-0.1,0c0,0,0,0-0.1,0c-0.2-0.1-0.4-0.1-0.7-0.1
		c0,0-0.1,0-0.1,0c-0.1,0-0.1,0-0.2,0c0,0,0,0,0,0h0c-0.1,0-0.2,0-0.3,0c0,0,0,0,0,0c-0.1,0-0.1,0-0.2,0c-0.1,0-0.1,0-0.2,0h0
		c-0.1,0-0.1,0-0.2,0c-0.1,0-0.1,0-0.2,0h0c-0.1,0-0.2,0-0.4,0h0c-0.3,0-0.6,0-0.9,0c-0.3,0-0.6,0-0.8,0h0c0,0,0,0,0,0
		c-0.1,0-0.2,0-0.3,0h-33c0,1.3-0.5,2.5-1.4,3.4l23,23l0.6,0.6c0.1,0.1,0.2,0.2,0.4,0.4l0.4,0.4c0,0,0,0,0.1,0.1c0,0,0,0.1,0.1,0.1
		c0.2,0.1,0.3,0.3,0.5,0.4c0,0,0.1,0.1,0.1,0.1c0.1,0.1,0.3,0.2,0.4,0.3c0,0,0,0,0,0c0.2,0.1,0.3,0.3,0.5,0.4
		c0.2,0.1,0.4,0.3,0.5,0.4c0.1,0.1,0.2,0.1,0.3,0.2c0.1,0.1,0.2,0.1,0.3,0.2c0.1,0.1,0.2,0.1,0.3,0.2h0c0.1,0,0.1,0.1,0.2,0.1
		c0.1,0.1,0.2,0.1,0.3,0.2c0.3,0.2,0.6,0.3,0.9,0.4c0.1,0.1,0.2,0.1,0.3,0.1c0.1,0.1,0.2,0.1,0.3,0.2c0.4,0.2,0.9,0.3,1.3,0.5
		c0.1,0,0.2,0.1,0.4,0.1c0.2,0.1,0.5,0.1,0.8,0.2c0.1,0,0.3,0.1,0.4,0.1c0.1,0,0.2,0,0.3,0.1c0.1,0,0.2,0,0.3,0.1
		c0.2,0,0.4,0,0.6,0.1c0.1,0,0.2,0,0.3,0c0.1,0,0.2,0,0.2,0c0.1,0,0.2,0,0.3,0c0.2,0,0.5,0,0.7,0h0.9c0.3,0,0.5,0,0.8,0
		c0.1,0,0.1,0,0.2,0c0.2,0,0.4,0,0.6-0.1c0,0,0,0,0.1,0c0.1,0,0.2,0,0.4-0.1c0.3,0,0.5-0.1,0.8-0.1c0.1,0,0.3-0.1,0.4-0.1
		c0.2,0,0.3-0.1,0.5-0.1c0.1,0,0.1,0,0.2-0.1c0.2,0,0.3-0.1,0.5-0.1c0.1,0,0.3-0.1,0.4-0.1c0.1,0,0.1,0,0.2-0.1
		c0.2,0,0.3-0.1,0.5-0.2c0.1,0,0.2-0.1,0.4-0.1l0.4-0.2c0.1,0,0.2-0.1,0.3-0.1c0.1-0.1,0.3-0.1,0.4-0.2c0.1-0.1,0.2-0.1,0.3-0.2
		c0.1,0,0.2-0.1,0.3-0.2c0.1-0.1,0.2-0.1,0.4-0.2l0.3-0.2c0.1-0.1,0.2-0.1,0.3-0.2c0.1-0.1,0.2-0.1,0.3-0.2c0.2-0.1,0.4-0.3,0.6-0.5
		c0.1-0.1,0.2-0.2,0.3-0.2c0.1-0.1,0.2-0.2,0.3-0.2c0.1-0.1,0.2-0.2,0.3-0.2c0.1-0.1,0.2-0.2,0.3-0.3c0.1-0.1,0.2-0.2,0.3-0.3
		c0.4-0.4,0.7-0.7,1.1-1.1c0,0,0,0,0,0c0.1-0.1,0.2-0.2,0.2-0.3c0.1-0.2,0.2-0.3,0.4-0.5c0.1-0.2,0.2-0.3,0.3-0.5
		c0.1-0.2,0.3-0.4,0.4-0.6c0.1-0.1,0.1-0.2,0.2-0.3c0.1-0.1,0.1-0.2,0.2-0.3c0-0.1,0.1-0.2,0.2-0.3c0,0,0,0,0,0c0,0,0-0.1,0.1-0.1
		c0-0.1,0.1-0.1,0.1-0.2c0.1-0.1,0.1-0.3,0.2-0.4c0.1-0.1,0.1-0.2,0.2-0.3c0-0.1,0.1-0.2,0.1-0.3c0,0,0,0,0-0.1
		c0-0.1,0.1-0.2,0.1-0.3c0,0,0-0.1,0-0.1c0,0,0-0.1,0.1-0.2c0-0.1,0-0.1,0.1-0.2c0-0.1,0.1-0.2,0.1-0.3c0-0.1,0.1-0.2,0.1-0.3
		c0.1-0.1,0.1-0.3,0.1-0.4c0,0,0,0,0,0c0-0.1,0.1-0.3,0.1-0.4c0,0,0,0,0,0s0,0,0,0c0.1-0.2,0.1-0.4,0.2-0.7c0,0,0,0,0,0
		c0-0.1,0-0.1,0-0.2c0-0.1,0-0.1,0-0.2c0-0.1,0-0.2,0.1-0.4v0c0-0.1,0-0.2,0.1-0.4l0,0c0,0,0-0.1,0-0.1c0-0.1,0-0.1,0-0.1
		c0,0,0-0.1,0-0.1c0,0,0-0.1,0-0.1c0-0.1,0-0.2,0-0.4c0-0.1,0-0.2,0-0.3v-0.1c0-0.1,0-0.1,0-0.1c0-0.1,0-0.2,0-0.3
		c0-0.1,0-0.2,0-0.4C1763.1,1558.6,1763.1,1558.4,1763.1,1558.1z"/>
	<path class="st12" d="M1744.8,1542.9c-0.2,0-0.4,0.1-0.7,0.1c0.1,0,0.2,0,0.3-0.1C1744.5,1542.9,1744.7,1542.9,1744.8,1542.9z"/>
	<path class="st12" d="M1745.8,1542.8c-0.1,0-0.2,0-0.3,0C1745.6,1542.8,1745.7,1542.8,1745.8,1542.8
		C1745.8,1542.8,1745.8,1542.8,1745.8,1542.8z"/>
	<path class="st12" d="M1746,1542.8C1745.9,1542.8,1745.9,1542.8,1746,1542.8C1745.9,1542.8,1745.9,1542.8,1746,1542.8L1746,1542.8z
		"/>
	<path class="st12" d="M1747.7,1542.7c-0.3,0-0.6,0-0.9,0c-0.3,0-0.6,0-0.8,0c0.1,0,0.3,0,0.4,0h0c0.1,0,0.3,0,0.5,0
		c0.2,0,0.3,0,0.5,0h0C1747.5,1542.7,1747.6,1542.7,1747.7,1542.7z"/>
	<path class="st12" d="M1761.5,1565.7c0.1-0.1,0.1-0.2,0.1-0.3c-2.5,5.7-8.2,9.7-14.8,9.7c-3.9,0-7.4-1.4-10.2-3.6
		c-0.1-0.1-0.1-0.1-0.2-0.2c-0.7-0.6-1.3-1.2-1.9-1.9c-0.1-0.1-0.2-0.2-0.2-0.3l0.6,0.6c0.1,0.1,0.3,0.2,0.4,0.3l0.2,0.2
		c0,0,0.1,0.1,0.1,0.1c0,0,0,0,0.1,0.1c0,0,0,0,0.1,0.1c0.1,0.1,0.3,0.3,0.5,0.4c0,0,0.1,0.1,0.1,0.1c0.1,0.1,0.3,0.2,0.4,0.3
		c0,0,0,0,0,0c0.2,0.1,0.3,0.3,0.5,0.4c0.2,0.1,0.4,0.3,0.5,0.4c0.1,0.1,0.2,0.1,0.3,0.2c0.1,0.1,0.2,0.1,0.3,0.2
		c0.1,0.1,0.2,0.1,0.3,0.2c0,0,0,0,0,0c0.1,0,0.1,0.1,0.2,0.1c0.1,0.1,0.2,0.1,0.3,0.2c0.3,0.2,0.6,0.3,0.9,0.4
		c0.1,0.1,0.2,0.1,0.3,0.2c0.1,0.1,0.2,0.1,0.4,0.1c0.4,0.2,0.9,0.3,1.3,0.5c0.1,0,0.3,0.1,0.4,0.1c0.3,0.1,0.5,0.1,0.8,0.2
		c0.1,0,0.3,0.1,0.4,0.1c0.1,0,0.2,0,0.3,0.1c0.1,0,0.2,0,0.3,0.1c0.2,0,0.4,0.1,0.6,0.1c0.1,0,0.2,0,0.3,0c0.1,0,0.2,0,0.2,0
		c0.1,0,0.2,0,0.3,0c0.2,0,0.5,0,0.7,0c0.2,0,0.3,0,0.5,0c0.1,0,0.3,0,0.4,0c0.3,0,0.5,0,0.8,0c0.1,0,0.1,0,0.2,0
		c0.2,0,0.4,0,0.6-0.1c0,0,0.1,0,0.1,0c0.1,0,0.3,0,0.4-0.1c0.3,0,0.5-0.1,0.8-0.1c0.1,0,0.3-0.1,0.4-0.1c0.2,0,0.3-0.1,0.5-0.1
		c0.1,0,0.1,0,0.2,0c0.2,0,0.3-0.1,0.5-0.1c0.1,0,0.3-0.1,0.4-0.1c0.1,0,0.1,0,0.2-0.1c0.2-0.1,0.3-0.1,0.5-0.2
		c0.1,0,0.2-0.1,0.4-0.1c0.1-0.1,0.2-0.1,0.4-0.2c0.1,0,0.2-0.1,0.3-0.1c0.1-0.1,0.3-0.1,0.4-0.2c0.1-0.1,0.2-0.1,0.3-0.2
		c0.1-0.1,0.2-0.1,0.3-0.2c0.1-0.1,0.3-0.1,0.4-0.2c0.1-0.1,0.2-0.1,0.3-0.2s0.2-0.1,0.3-0.2c0.1-0.1,0.2-0.1,0.3-0.2
		c0.2-0.1,0.4-0.3,0.6-0.5c0.1-0.1,0.2-0.2,0.3-0.2c0.1-0.1,0.2-0.2,0.3-0.2c0.1-0.1,0.2-0.2,0.3-0.3c0.1-0.1,0.2-0.2,0.3-0.3
		c0.1-0.1,0.2-0.2,0.3-0.3c0.4-0.4,0.7-0.7,1.1-1.1c0,0,0,0,0,0c0.1-0.1,0.1-0.2,0.2-0.3c0.1-0.2,0.3-0.3,0.4-0.5
		c0.1-0.2,0.2-0.3,0.4-0.5c0.1-0.2,0.3-0.4,0.4-0.6c0.1-0.2,0.3-0.4,0.4-0.6c0.1-0.1,0.1-0.2,0.1-0.3c0.1-0.1,0.1-0.3,0.2-0.4
		C1761.4,1566,1761.5,1565.9,1761.5,1565.7z"/>
	<g>
		<path class="st9" d="M1714.9-736.8c-2.8-0.2-5.7-0.4-8.6-0.5"/>
		<path class="st9" d="M1680.6-738c-0.2,0-0.5,0-0.7,0c-13.2,0-25.8,0.5-37.5,1.4c-43.1,3.3-73.9,12-73.9,22.2
			c0,0.9,0.2,1.7,0.7,2.6c0.1,0.2,0.2,0.4,0.3,0.6c0,0,0,0,0,0c0.1,0.2,0.2,0.3,0.3,0.5c0.1,0.1,0.2,0.3,0.3,0.4c0,0,0,0,0,0
			c0.1,0.1,0.2,0.2,0.3,0.3c0.1,0.1,0.2,0.2,0.3,0.3c0.2,0.2,0.4,0.4,0.6,0.5c0.1,0.1,0.3,0.2,0.4,0.4c0.1,0.1,0.3,0.2,0.4,0.4
			c0.1,0.1,0.3,0.2,0.5,0.4c0.8,0.6,1.7,1.2,2.7,1.8c0.2,0.1,0.4,0.2,0.6,0.3c1,0.5,2,1.1,3.1,1.6c0.3,0.1,0.6,0.3,0.9,0.4
			c0.3,0.1,0.6,0.3,1,0.4c0.4,0.2,0.8,0.3,1.2,0.5c1.1,0.4,2.3,0.8,3.5,1.3c0.4,0.1,0.8,0.3,1.2,0.4c0.5,0.2,1,0.3,1.5,0.5
			c0.5,0.2,1,0.3,1.6,0.5c0.2,0.1,0.4,0.1,0.6,0.2c0.4,0.1,0.8,0.2,1.3,0.4c0.4,0.1,0.9,0.2,1.3,0.4c0.4,0.1,0.8,0.2,1.2,0.3
			c0.8,0.2,1.7,0.4,2.6,0.6c0.8,0.2,1.7,0.4,2.6,0.6c0,0,0.1,0,0.1,0c0.1,0,0.2,0,0.4,0.1c0.6,0.1,1.2,0.2,1.8,0.4c0,0,0,0,0,0
			c0.6,0.1,1.2,0.2,1.8,0.4c0.5,0.1,1,0.2,1.5,0.3c0.5,0.1,1,0.2,1.5,0.3c0.5,0.1,1.1,0.2,1.6,0.3c0.4,0.1,0.7,0.1,1.1,0.2
			c0.6,0.1,1.3,0.2,1.9,0.3c3.9,0.7,8.1,1.3,12.4,1.8c0.7,0.1,1.4,0.2,2.2,0.3c0.7,0.1,1.5,0.2,2.2,0.3c0.7,0.1,1.5,0.2,2.2,0.2
			c0.7,0.1,1.5,0.2,2.3,0.2c0.8,0.1,1.5,0.2,2.3,0.2c0.8,0.1,1.5,0.1,2.3,0.2c1.5,0.1,2.9,0.3,4.4,0.4c2.5,0.2,5.1,0.4,7.6,0.5
			c0.2,0,0.5,0,0.7,0c1.1,0.1,2.3,0.1,3.4,0.2c1,0,2,0.1,3,0.1c0.1,0,0.2,0,0.3,0c1.7,0.1,3.4,0.1,5.1,0.2c0.5,0,1.1,0,1.6,0.1
			c2.6,0.1,5.2,0.1,7.9,0.2c0.9,0,1.9,0,2.9,0c2,0,4,0,6.1,0c57.1,0,104.3-9.1,110.7-20.9c0.5-0.9,0.7-1.8,0.7-2.7
			c0-8.6-21.5-16.1-53.8-20.2h0"/>
		<path class="st9" d="M1758.1-174.8c-2.6,1.6-5.3,3.1-8,4.5"/>
		<path class="st9" d="M1572.9-491.4c-5.3,35.6-15,77.7-32.3,126.2c-8,18.5-12.5,38.9-12.5,60.4c0,79.1,60.6,144.1,137.9,151.1"/>
		<path class="st9" d="M1577.5-533.3c3.4-49.1-1.4-80.5-0.3-93.1c1.8-21-6.2-73.2-8.1-85.4c0.1,0.2,0.2,0.4,0.3,0.6c0,0,0,0,0,0
			c0.1,0.2,0.2,0.3,0.3,0.5c0.1,0.1,0.2,0.3,0.3,0.4c0,0,0,0,0,0c0.1,0.1,0.2,0.2,0.3,0.3c0.1,0.1,0.2,0.2,0.3,0.3
			c0.2,0.2,0.4,0.4,0.6,0.5c0.1,0.1,0.3,0.2,0.4,0.4c0.1,0.1,0.3,0.2,0.4,0.4c0.1,0.1,0.3,0.2,0.5,0.4c0.8,0.6,1.7,1.2,2.7,1.8
			c0.2,0.1,0.4,0.2,0.6,0.3c1,0.5,2,1.1,3.1,1.6c0.6,0.3,1.2,0.5,1.9,0.8c0.4,0.2,0.8,0.3,1.2,0.5c1.1,0.4,2.3,0.8,3.5,1.3
			c0.4,0.1,0.8,0.3,1.2,0.4c0.5,0.2,1,0.3,1.5,0.5c0.5,0.2,1,0.3,1.6,0.5c0.2,0.1,0.4,0.1,0.6,0.2c0.4,0.1,0.8,0.2,1.3,0.4
			c0.4,0.1,0.9,0.2,1.3,0.4c0.4,0.1,0.8,0.2,1.2,0.3c1.7,0.4,3.4,0.8,5.3,1.3c0.7,0.2,1.4,0.3,2.1,0.5c0.6,0.1,1.2,0.2,1.8,0.4
			c0.5,0.1,1,0.2,1.5,0.3c0.5,0.1,1,0.2,1.5,0.3c0.5,0.1,1.1,0.2,1.6,0.3c0.4,0.1,0.7,0.1,1.1,0.2c0.6,0.1,1.3,0.2,1.9,0.3
			c3.9,0.7,8.1,1.3,12.4,1.8c0.7,0.1,1.4,0.2,2.2,0.3c0.7,0.1,1.5,0.2,2.2,0.3c0.7,0.1,1.5,0.2,2.2,0.2c0.7,0.1,1.5,0.2,2.3,0.2
			c0.8,0.1,1.5,0.2,2.3,0.2c0.8,0.1,1.5,0.1,2.3,0.2c1.5,0.1,2.9,0.3,4.4,0.4c2.5,0.2,5.1,0.4,7.6,0.5c0.2,0,0.5,0,0.7,0
			c1.1,0.1,2.3,0.1,3.4,0.2c1,0,2,0.1,3,0.1c0.1,0,0.2,0,0.3,0c1.7,0.1,3.4,0.1,5.1,0.2c0.5,0,1.1,0,1.6,0.1
			c2.6,0.1,5.2,0.1,7.9,0.2c0.9,0,1.9,0,2.9,0c2,0,4,0,6.1,0c57.1,0,104.3-9.1,110.7-20.9c-2,12.5-9.9,64.3-8.1,85.2
			c2,23.6-16.5,112.5,36.3,260.4c8.3,18.7,12.8,39.4,12.8,61.2c0,42.9-17.8,81.6-46.4,109.2"/>
		<path class="st9" d="M1726.2-160.3c-10.4,3.3-21.3,5.6-32.5,6.6"/>
		<path class="st9" d="M1569.1-711.8c-0.3-1.7-0.4-2.6-0.4-2.6"/>
		<path class="st11" d="M1820.6-360.8c-0.6-1.7-1.3-3.5-1.9-5.2"/>
		<path class="st9" d="M1791-714.4c0,0-0.2,1-0.4,2.7"/>
		<line class="st9" x1="1777.3" y1="-54.2" x2="1777.3" y2="-54.2"/>
		<line class="st9" x1="1582.4" y1="-54.2" x2="1582.4" y2="-54.2"/>
		<path class="st9" d="M1711.3-74.3c37.7,2.9,65,10.8,66,20.1h-194.9c1-9.3,28.2-17.2,65.8-20.1"/>
		<g>
			<path class="st11" d="M1666-153.8c2.8,26.7,2.9,69.7-18.5,79.8"/>
			<path class="st11" d="M1711.9-74c-21.4-10.1-20.9-53.1-18.2-79.7"/>
		</g>
		<g>
			<g>
				<path class="st7" d="M1587.3-644.7L1587.3-644.7c-0.1-0.5-0.2-1-0.3-1.4L1587.3-644.7z"/>
				<path class="st7" d="M1813.7-327.4c0,66.7-50.3,129.5-115.1,136.9c-4.1,1.5-9.8,2.1-16.1,1.8c-0.8,0-1.6,0.1-2.4,0.1
					c-5.6,0-11-0.8-15.7-2.2c-63.3-8.4-110.6-52.8-110.6-118.6c0-18.4,3.8-53.8,10.7-69.7c45.5-127.1,28.6-194,28.1-214.3
					c-0.1-7.4-0.8-15.5-1.6-23.2c-1.2-11.1-2.8-21.5-3.8-28.1l0,0l4.2-1.9l182.9,0c-0.1,0.6-0.2,1.3-0.3,2.1v0
					c-2.1,11.8-7.7,36.5-6.2,53.4c1.8,20.2-10.3,84.7,34.9,211.3C1809.8-363.8,1813.7-346.1,1813.7-327.4z"/>
				<path class="st7" d="M1591.1-616.6l-3.8-28.1C1588.3-638.1,1589.9-627.7,1591.1-616.6z"/>
			</g>
		</g>
		<path class="st4" d="M1774.3-646.6c0,0.9-0.2,1.8-0.6,2.7c-5.4,11.8-45,20.9-93.1,20.9c-48.3,0-88.1-9.2-93.1-21.1
			c-0.4-0.8-0.6-1.7-0.6-2.6c0-13.1,41.9-23.6,93.7-23.6C1732.4-670.2,1774.3-659.6,1774.3-646.6z"/>
		<path class="st11" d="M1662-324.4l-44.2,11c-9.6,2.4-19.4-3.5-21.8-13.1l-10.5-42.2c-2.4-9.6,3.5-19.4,13.1-21.8l44.2-11
			c9.6-2.4,19.4,3.5,21.8,13.1l10.5,42.2C1677.5-336.6,1671.6-326.8,1662-324.4z"/>
		<path class="st11" d="M1684.1-233.8l-43.9-12.1c-9.5-2.6-15.2-12.6-12.6-22.1l11.5-41.9c2.6-9.5,12.6-15.2,22.1-12.6l43.9,12.1
			c9.5,2.6,15.2,12.6,12.6,22.1l-11.5,41.9C1703.6-236.9,1693.6-231.2,1684.1-233.8z"/>
		<path class="st11" d="M1775.3-282.3h-45.5c-9.9,0-18-8.1-18-18v-43.5c0-9.9,8.1-18,18-18h45.5c9.9,0,18,8.1,18,18v43.5
			C1793.3-290.4,1785.2-282.3,1775.3-282.3z"/>
		
			<ellipse transform="matrix(2.499669e-02 -0.9997 0.9997 2.499669e-02 2094.7834 1242.0709)" class="st4" cx="1684.2" cy="-452.9" rx="63" ry="61.3"/>
		<g>
			<path class="st12" d="M1665.4-423.9c-0.1,0.1-0.2,0.3-0.3,0.4c-0.2,0.2-0.4,0.4-0.6,0.6c0,0-0.1,0.1-0.1,0.1
				c-0.2,0.2-0.4,0.4-0.6,0.6c-0.1,0.1-0.2,0.2-0.3,0.2l0.9-0.9L1665.4-423.9z"/>
			<path class="st12" d="M1653.7-450h0.7c-0.1,0-0.2,0-0.3,0c-0.3,0-0.6,0-0.9,0s-0.6,0-0.9,0c-0.1,0-0.2,0-0.3,0h0.7
				c0.2,0,0.3,0,0.5,0S1653.5-450,1653.7-450z"/>
			<path class="st12" d="M1665-476.6c0.1,0.1,0.1,0.1,0.2,0.2l-0.5-0.5l-0.5-0.5l-0.4-0.4c0.1,0,0.1,0.1,0.2,0.1
				C1664.2-477.3,1664.6-477,1665-476.6L1665-476.6z"/>
			<path class="st12" d="M1691.5-488.4c0,0.1,0,0.3,0,0.4v-0.8C1691.5-488.7,1691.5-488.5,1691.5-488.4z"/>
			<path class="st12" d="M1696.2-450c0,1.3-0.5,2.5-1.4,3.3c-0.8,0.8-2,1.4-3.3,1.4c-1.3,0-2.5-0.5-3.3-1.4c-0.8-0.8-1.4-2-1.4-3.3
				c0-1.3,0.5-2.5,1.4-3.3s2-1.4,3.3-1.4c1.3,0,2.5,0.5,3.3,1.4C1695.6-452.5,1696.2-451.3,1696.2-450z"/>
			<path class="st12" d="M1691.5-411.1v-1c0,0.1,0,0.2,0,0.2v0.1v0.2c0,0,0,0.1,0,0.1c0,0,0,0,0,0.1c0.1,8.7,7.2,15.7,15.9,15.7
				c8.8,0,15.9-7.1,15.9-15.9c0-3.9-1.4-7.6-3.8-10.3c-0.7-0.6-1.3-1.2-1.9-1.8c-0.1-0.1-0.2-0.2-0.2-0.3l0.6,0.6l1.3,1.3l0.5,0.5"
				/>
			<path class="st12" d="M1691.5-389.5c16.7,0,31.8-6.8,42.8-17.7"/>
			<path class="st12" d="M1718.2-476.8l-0.4,0.4c0-0.1,0.1-0.1,0.1-0.2c0.4-0.4,0.7-0.8,1.1-1.1c0,0,0,0,0,0c0,0,0.1-0.1,0.1-0.1
				l-0.3,0.3C1718.8-477.3,1718.5-477,1718.2-476.8z"/>
			<path class="st12" d="M1728.3-450c0,0-0.1,0-0.1,0c0,0,0,0,0,0C1728.2-449.9,1728.3-449.9,1728.3-450z"/>
			<path class="st12" d="M1728.8-450c-0.1,0-0.2,0-0.3,0C1728.6-450,1728.7-450,1728.8-450C1728.8-450,1728.8-450,1728.8-450z"/>
			<path class="st12" d="M1730.9-450c-0.1,0-0.2,0-0.2,0h0c-0.3,0-0.6,0-0.9,0c-0.3,0-0.5,0-0.8,0h0c-0.1,0-0.2,0-0.3,0h0.8
				c0.1,0,0.3,0,0.4,0c0.2,0,0.3,0,0.5,0H1730.9z"/>
			<path class="st12" d="M1731.1-450L1731.1-450c-0.1,0-0.3,0-0.4,0C1730.8-450,1731-450,1731.1-450
				C1731.1-450,1731.1-450,1731.1-450z"/>
			<path class="st12" d="M1731.6-449.9c-0.1,0-0.1,0-0.2,0h0c-0.1,0-0.1,0-0.2,0c0.1,0,0.1,0,0.2,0
				C1731.5-449.9,1731.6-449.9,1731.6-449.9z"/>
			<path class="st12" d="M1744.8-439.6c0,0,0-0.1-0.1-0.1c-0.1-0.2-0.1-0.4-0.2-0.6c-0.1-0.2-0.1-0.3-0.2-0.4
				c-0.1-0.1-0.1-0.3-0.2-0.4c0-0.1-0.1-0.2-0.1-0.3c0-0.1-0.1-0.2-0.2-0.3c0,0,0-0.1-0.1-0.1c-0.1-0.2-0.2-0.3-0.3-0.5
				c-0.1-0.2-0.2-0.3-0.3-0.5c-0.1-0.2-0.2-0.3-0.3-0.5v0c-0.1-0.2-0.2-0.3-0.3-0.5s-0.2-0.3-0.4-0.5c-0.1-0.1-0.2-0.3-0.4-0.4
				c0,0,0-0.1-0.1-0.1c-0.1-0.1-0.2-0.3-0.3-0.4c0,0,0,0,0,0c-0.1-0.1-0.3-0.3-0.4-0.4c-0.1-0.1-0.2-0.2-0.4-0.3
				c-0.2-0.2-0.3-0.3-0.5-0.4c-0.2-0.1-0.3-0.2-0.5-0.4c-0.2-0.1-0.4-0.3-0.6-0.4c-0.1-0.1-0.2-0.2-0.4-0.2
				c-0.1-0.1-0.2-0.1-0.3-0.2c-0.1-0.1-0.3-0.2-0.4-0.2c-0.2-0.1-0.4-0.3-0.7-0.4c-0.1-0.1-0.2-0.1-0.3-0.1
				c-0.2-0.1-0.3-0.2-0.5-0.2c-0.2-0.1-0.4-0.2-0.5-0.2c-0.1-0.1-0.3-0.1-0.4-0.2c-0.1-0.1-0.3-0.1-0.4-0.1c0,0-0.1,0-0.1-0.1
				c-0.1,0-0.2-0.1-0.3-0.1c-0.1,0-0.2-0.1-0.3-0.1c-0.1,0-0.2-0.1-0.3-0.1c-0.1,0-0.2-0.1-0.3-0.1c-0.1,0-0.1,0-0.2-0.1
				c-0.1,0-0.2-0.1-0.4-0.1c-0.3-0.1-0.5-0.1-0.8-0.2c-0.1,0-0.2,0-0.3,0c0.1,0,0.1,0,0.2,0h0c0.2,0,0.4,0.1,0.5,0.1
				c0.1,0,0.1,0,0.2,0c0,0,0,0,0,0c0,0,0,0,0,0c0.2,0,0.3,0.1,0.5,0.1c0.1,0,0.1,0,0.1,0c0.2,0,0.3,0.1,0.5,0.1
				c0.2,0.1,0.4,0.1,0.7,0.2c0.2,0.1,0.4,0.1,0.5,0.2c0.1,0,0.2,0.1,0.3,0.1c0.2,0.1,0.4,0.2,0.6,0.3c0.1,0,0.2,0.1,0.3,0.1
				c0.2,0.1,0.4,0.2,0.6,0.3c0,0,0,0,0,0c0.2,0.1,0.4,0.2,0.6,0.4c0.1,0.1,0.2,0.1,0.3,0.2c0.1,0.1,0.2,0.2,0.4,0.2
				c0.1,0.1,0.2,0.2,0.4,0.2c0.2,0.2,0.5,0.3,0.7,0.5c0.1,0.1,0.2,0.1,0.2,0.2c0,0,0,0,0,0c0.1,0.1,0.3,0.2,0.4,0.4
				c0.1,0.1,0.3,0.3,0.4,0.4c0,0,0,0,0,0c0.1,0.1,0.2,0.2,0.3,0.3c0.1,0.1,0.2,0.2,0.3,0.3c0.1,0.1,0.2,0.3,0.4,0.4
				c0.1,0.1,0.2,0.3,0.3,0.4c0.1,0.1,0.2,0.2,0.2,0.3c0,0,0,0,0,0c0.1,0.2,0.2,0.3,0.4,0.5c0.1,0.1,0.2,0.2,0.3,0.4
				c0.1,0.2,0.2,0.3,0.3,0.4c0.1,0.2,0.2,0.3,0.3,0.5c0.1,0.1,0.1,0.2,0.2,0.3c0.1,0.2,0.2,0.4,0.3,0.6c0.1,0.2,0.2,0.4,0.3,0.7
				c0.1,0.1,0.1,0.2,0.1,0.3c0.1,0.3,0.3,0.7,0.4,1c0,0.1,0.1,0.2,0.1,0.3c0,0.1,0.1,0.2,0.1,0.4c0.1,0.2,0.1,0.4,0.1,0.5
				c0,0,0,0,0,0c0,0.2,0.1,0.3,0.1,0.5c0,0.1,0,0.1,0,0.2c-0.1-0.4-0.2-0.8-0.3-1.2C1745.1-438.9,1744.9-439.2,1744.8-439.6z"/>
			<path class="st12" d="M1696.2-450c0,1.3-0.5,2.5-1.4,3.3c-0.8,0.8-2,1.4-3.3,1.4c-1.3,0-2.5-0.5-3.3-1.4c-0.8-0.8-1.4-2-1.4-3.3
				c0-1.3,0.5-2.5,1.4-3.3s2-1.4,3.3-1.4c1.3,0,2.5,0.5,3.3,1.4C1695.6-452.5,1696.2-451.3,1696.2-450z"/>
			<line class="st12" x1="1730.4" y1="-450" x2="1729.4" y2="-450"/>
			<line class="st12" x1="1653.7" y1="-450" x2="1652.7" y2="-450"/>
			<line class="st12" x1="1664.6" y1="-476.9" x2="1664.1" y2="-477.4"/>
			<line class="st12" x1="1719" y1="-477.5" x2="1718.2" y2="-476.8"/>
			<path class="st12" d="M1691.5-488.8v34.1c-1.3,0-2.5,0.5-3.3,1.4l-23-23c-0.1-0.1-0.1-0.1-0.2-0.2l0,0c-0.4-0.4-0.7-0.8-1.1-1.1
				c-2.6-2.8-4.1-6.6-4.1-10.7c0-8.8,7.1-15.9,15.9-15.9C1684.2-504.3,1691.3-497.4,1691.5-488.8z"/>
			<path class="st12" d="M1665-476.6c-0.1-0.1-0.2-0.2-0.3-0.3l-0.5-0.5c-0.1-0.1-0.2-0.2-0.3-0.3
				C1664.2-477.3,1664.6-477,1665-476.6z"/>
			<path class="st12" d="M1691.5-488.4c0,0.1,0,0.3,0,0.4v-0.8C1691.5-488.7,1691.5-488.5,1691.5-488.4z"/>
			<path class="st12" d="M1723.3-488.4c0,4.1-1.6,7.9-4.1,10.7c0,0,0,0,0,0c-0.4,0.4-0.8,0.7-1.1,1.1c0,0.1-0.1,0.1-0.1,0.2
				l-23.1,23.1c-0.8-0.9-2-1.4-3.3-1.4V-488c0-0.1,0-0.3,0-0.4c0-8.8,7.1-15.9,15.9-15.9C1716.2-504.3,1723.3-497.2,1723.3-488.4z"
				/>
			<path class="st12" d="M1719.2-477.7c-0.1,0.1-0.1,0.1-0.2,0.2c-0.2,0.3-0.5,0.5-0.8,0.8c-0.1,0.1-0.2,0.1-0.2,0.2
				C1718.4-477,1718.8-477.3,1719.2-477.7z"/>
			<path class="st12" d="M1723.4-411.6c0,8.8-7.1,15.9-15.9,15.9c-8.7,0-15.8-7-15.9-15.7c0,0,0,0,0-0.1c0,0,0-0.1,0-0.1v-0.3
				c0-0.1,0-0.2,0-0.2v-33.3c1.3,0,2.5-0.5,3.3-1.4l22.7,22.7c0.1,0.1,0.2,0.2,0.2,0.3c0.6,0.7,1.2,1.3,1.9,1.8
				C1721.9-419.1,1723.4-415.5,1723.4-411.6z"/>
			<path class="st12" d="M1691.5-411.6c0-0.1,0-0.1,0-0.2L1691.5-411.6c0,0,0,0.1,0,0.1V-411.6z"/>
			<path class="st12" d="M1719.6-421.9c-0.7-0.6-1.3-1.2-1.9-1.8c0.1,0.1,0.2,0.2,0.3,0.3c0.1,0.1,0.3,0.2,0.4,0.3l0.2,0.2
				c0,0,0.1,0.1,0.1,0.1c0,0,0,0,0.1,0.1c0,0,0,0,0.1,0.1c0.1,0.1,0.3,0.3,0.4,0.4C1719.4-422.1,1719.5-422,1719.6-421.9z"/>
			<path class="st12" d="M1691.5-411.8v0.3c0,0,0,0.1,0,0.1c0,0,0,0,0,0.1c0,0.1,0,0.2,0,0.3v-1
				C1691.5-412,1691.5-411.9,1691.5-411.8z"/>
			<path class="st12" d="M1691.5-445.3v34.3c-0.3,8.5-7.3,15.4-15.9,15.4c-8.8,0-15.9-7.1-15.9-15.9c0-4.4,1.8-8.3,4.6-11.2
				c0,0,0.1-0.1,0.1-0.1c0.2-0.2,0.4-0.4,0.6-0.6c0.1-0.1,0.2-0.2,0.3-0.4l22.8-22.8C1689-445.9,1690.2-445.3,1691.5-445.3z"/>
			<path class="st12" d="M1728.8-450c-0.1,0-0.2,0-0.3,0C1728.6-450,1728.7-450,1728.8-450C1728.8-450,1728.8-450,1728.8-450z"/>
			<path class="st12" d="M1691.5-389.5c-33.4,0-60.5-27.1-60.5-60.5s27.1-60.5,60.5-60.5c33.4,0,60.5,27.1,60.5,60.5
				c0,16.7-6.8,31.8-17.7,42.8"/>
			<path class="st12" d="M1719.8-421.7l-0.5-0.5l-1.3-1.3c0.1,0.1,0.3,0.2,0.4,0.3l0.2,0.2c0,0,0.1,0.1,0.1,0.1c0,0,0,0,0.1,0.1
				c0,0,0,0,0.1,0.1c0.1,0.1,0.3,0.3,0.5,0.4c0,0,0.1,0.1,0.1,0.1C1719.6-422,1719.8-421.9,1719.8-421.7c0.1,0,0.1,0,0.1,0
				c0.2,0.1,0.3,0.3,0.5,0.4c0.2,0.1,0.3,0.3,0.5,0.4c0.1,0.1,0.2,0.1,0.3,0.2c0.1,0.1,0.2,0.1,0.3,0.2c0.1,0.1,0.2,0.1,0.3,0.2
				c0,0,0,0,0,0c0.1,0,0.1,0.1,0.2,0.1c0.1,0.1,0.2,0.1,0.3,0.2c0.3,0.2,0.6,0.3,0.9,0.4c0.1,0.1,0.2,0.1,0.3,0.2
				c0.1,0.1,0.2,0.1,0.3,0.1c0.4,0.2,0.8,0.3,1.3,0.5c0.1,0,0.2,0.1,0.4,0.1c0.3,0.1,0.5,0.1,0.8,0.2c0.1,0,0.3,0.1,0.4,0.1
				c0.1,0,0.2,0,0.3,0.1c0.1,0,0.2,0,0.3,0.1c0.2,0,0.4,0.1,0.5,0.1c0.1,0,0.2,0,0.3,0c0.1,0,0.2,0,0.2,0c0.1,0,0.2,0,0.3,0
				c0.2,0,0.5,0,0.7,0c0.2,0,0.3,0,0.5,0c0.1,0,0.3,0,0.4,0c0.3,0,0.5,0,0.8,0c0.1,0,0.1,0,0.2,0c0.2,0,0.4,0,0.6-0.1
				c0,0,0.1,0,0.1,0c0.1,0,0.2,0,0.4-0.1c0.3,0,0.5-0.1,0.8-0.1c0.1,0,0.3-0.1,0.4-0.1c0.2,0,0.3-0.1,0.5-0.1c0.1,0,0.1,0,0.2,0
				c0.2,0,0.3-0.1,0.5-0.1c0.1,0,0.3-0.1,0.4-0.1c0.1,0,0.1,0,0.2-0.1c0.2-0.1,0.3-0.1,0.5-0.2c0.1,0,0.2-0.1,0.4-0.1
				c0.1-0.1,0.2-0.1,0.3-0.2c0.1,0,0.2-0.1,0.3-0.1c0.1-0.1,0.3-0.1,0.4-0.2c0.1-0.1,0.2-0.1,0.3-0.2c0.1-0.1,0.2-0.1,0.3-0.2
				c0.1-0.1,0.3-0.1,0.4-0.2c0.1-0.1,0.2-0.1,0.3-0.2c0.1-0.1,0.2-0.1,0.3-0.2c0.1-0.1,0.2-0.1,0.3-0.2c0.2-0.1,0.4-0.3,0.6-0.4
				c0.1-0.1,0.2-0.2,0.3-0.2c0.1-0.1,0.2-0.2,0.3-0.2c0.1-0.1,0.2-0.2,0.3-0.2c0.1-0.1,0.2-0.2,0.3-0.3c0.1-0.1,0.2-0.2,0.3-0.3
				c0.4-0.4,0.7-0.7,1-1.1c0,0,0,0,0,0c0.1-0.1,0.1-0.2,0.2-0.3c0.1-0.2,0.2-0.3,0.4-0.5c0.1-0.2,0.2-0.3,0.3-0.5
				c0.1-0.2,0.3-0.4,0.4-0.6c0.1-0.2,0.3-0.4,0.4-0.6c0.1-0.1,0.1-0.2,0.1-0.3c0.1-0.1,0.1-0.3,0.2-0.4c0.1-0.1,0.1-0.3,0.2-0.4
				c0.1-0.1,0.1-0.2,0.1-0.3c0-0.1,0.1-0.2,0.1-0.3c0,0,0-0.1,0-0.1c0-0.1,0.1-0.2,0.1-0.3v0c0,0,0-0.1,0-0.1c0-0.1,0-0.1,0.1-0.2
				c0-0.1,0-0.1,0.1-0.2c0-0.1,0.1-0.2,0.1-0.3c0-0.1,0.1-0.2,0.1-0.3c0-0.1,0.1-0.3,0.1-0.4c0,0,0,0,0-0.1c0-0.1,0.1-0.3,0.1-0.4
				c0,0,0,0,0-0.1c0,0,0,0,0,0c0.1-0.2,0.1-0.4,0.2-0.7c0,0,0,0,0,0c0-0.1,0-0.1,0-0.2c0-0.1,0-0.2,0-0.2c0,0,0-0.1,0-0.1
				c0-0.1,0-0.2,0-0.3c0,0,0,0,0,0c0-0.1,0-0.3,0.1-0.4c0,0,0,0,0,0c0,0,0-0.1,0-0.1c0,0,0-0.1,0-0.1c0,0,0-0.1,0-0.1
				c0,0,0-0.1,0-0.1c0-0.1,0-0.2,0-0.2c0,0,0-0.1,0-0.1c0-0.1,0-0.2,0-0.3c0-0.1,0-0.1,0-0.2c0-0.1,0-0.2,0-0.3c0-0.1,0-0.2,0-0.4
				c0-0.3,0-0.5,0-0.8c0-0.1,0-0.2,0-0.2c0,0,0-0.1,0-0.1c0-0.1,0-0.3,0-0.4c0,0,0,0,0,0c0-0.1,0-0.1,0-0.2c0-0.1,0-0.1,0-0.2
				c0,0,0,0,0-0.1c0-0.2-0.1-0.4-0.1-0.7c0-0.1,0-0.2,0-0.2c0,0,0-0.1,0-0.1c0-0.1,0-0.1,0-0.2c0-0.1,0-0.1,0-0.2
				c0-0.2-0.1-0.3-0.1-0.5c0,0,0,0,0,0c0-0.2-0.1-0.4-0.1-0.5c0-0.1-0.1-0.2-0.1-0.4c0-0.1-0.1-0.2-0.1-0.3c-0.1-0.3-0.3-0.7-0.4-1
				c0-0.1-0.1-0.2-0.1-0.3c-0.1-0.2-0.2-0.4-0.3-0.7c-0.1-0.2-0.2-0.4-0.3-0.6c-0.1-0.1-0.1-0.2-0.2-0.3c-0.1-0.2-0.2-0.3-0.3-0.5
				c-0.1-0.2-0.2-0.3-0.3-0.4c-0.1-0.1-0.2-0.2-0.3-0.4c-0.1-0.2-0.2-0.3-0.4-0.5c0,0,0,0,0,0c-0.1-0.1-0.2-0.2-0.2-0.3
				c-0.1-0.1-0.2-0.3-0.3-0.4c-0.1-0.1-0.2-0.3-0.4-0.4c-0.1-0.1-0.2-0.2-0.3-0.3c-0.1-0.1-0.2-0.2-0.3-0.3c0,0,0,0,0,0
				c-0.1-0.1-0.3-0.3-0.4-0.4c-0.1-0.1-0.3-0.2-0.4-0.4c0,0,0,0,0,0c-0.1-0.1-0.2-0.1-0.2-0.2c-0.2-0.2-0.5-0.3-0.7-0.5
				c-0.1-0.1-0.2-0.2-0.4-0.2c-0.1-0.1-0.2-0.2-0.4-0.2c-0.1-0.1-0.2-0.1-0.3-0.2c-0.2-0.1-0.4-0.2-0.6-0.4c0,0,0,0,0,0
				c-0.2-0.1-0.4-0.2-0.6-0.3c-0.1-0.1-0.2-0.1-0.3-0.1c-0.2-0.1-0.4-0.2-0.6-0.3c-0.1,0-0.2-0.1-0.3-0.1c-0.2-0.1-0.4-0.1-0.5-0.2
				c-0.2-0.1-0.4-0.1-0.7-0.2c-0.2-0.1-0.3-0.1-0.5-0.1c0,0-0.1,0-0.1,0c-0.2,0-0.3-0.1-0.5-0.1c0,0,0,0,0,0c0,0,0,0,0,0
				c-0.1,0-0.1,0-0.2,0c0,0,0,0,0,0c-0.1,0-0.3,0-0.4-0.1c0,0-0.1,0-0.1,0h0c-0.1,0-0.1,0-0.2,0c0,0,0,0,0,0c0,0,0,0,0,0
				c-0.1,0-0.2,0-0.3,0c0,0,0,0,0,0c-0.1,0-0.1,0-0.2,0c-0.1,0-0.1,0-0.2,0c-0.1,0-0.2,0-0.4,0h0c0,0,0,0,0,0c0,0,0,0,0,0
				c-0.1,0-0.2,0-0.4,0c0.1,0,0.2,0,0.2,0c8.2-0.6,14.7-7.5,14.7-15.9c0-8.8-7.1-15.9-15.9-15.9c-4,0-7.7,1.5-10.5,4
				c0,0-0.1,0.1-0.1,0.1c2.6-2.8,4.1-6.6,4.1-10.7c0-8.8-7.1-15.9-15.9-15.9c-8.8,0-15.9,7.1-15.9,15.9c0-0.1,0-0.3,0-0.4
				c-0.2-8.6-7.2-15.5-15.9-15.5c-8.8,0-15.9,7.1-15.9,15.9c0,4.1,1.6,7.9,4.1,10.7c-0.1,0-0.1-0.1-0.2-0.1
				c-2.8-2.4-6.5-3.9-10.5-3.9c-8.8,0-15.9,7.1-15.9,15.9c0,8.4,6.5,15.3,14.7,15.9c0.1,0,0.2,0,0.3,0c-8.4,0.5-15,7.4-15,15.9
				c0,8.8,7.1,15.9,15.9,15.9c3.9,0,7.5-1.4,10.2-3.7c0.1-0.1,0.2-0.2,0.3-0.2c0.2-0.2,0.4-0.4,0.6-0.6c-2.9,2.9-4.6,6.8-4.6,11.2
				c0,8.8,7.1,15.9,15.9,15.9c8.6,0,15.6-6.9,15.9-15.4"/>
			<path class="st12" d="M1665.1-423.5c-0.2,0.2-0.4,0.4-0.6,0.6c0,0-0.1,0.1-0.1,0.1c-0.2,0.2-0.4,0.4-0.6,0.6
				c0.2-0.2,0.4-0.4,0.6-0.6C1664.6-423.1,1664.8-423.3,1665.1-423.5z"/>
			<path class="st12" d="M1688.2-453.3c-0.8,0.8-1.4,2-1.4,3.3h-33.1c-0.2,0-0.3,0-0.5,0s-0.3,0-0.5,0h-0.7
				c-8.2-0.6-14.7-7.5-14.7-15.9c0-8.8,7.1-15.9,15.9-15.9c4,0,7.7,1.5,10.5,3.9l0.4,0.4c0.2,0.2,0.4,0.4,0.5,0.5l0.5,0.5
				L1688.2-453.3z"/>
			<path class="st12" d="M1653.7-450h0.7c-0.1,0-0.2,0-0.3,0c-0.3,0-0.6,0-0.9,0s-0.6,0-0.9,0c-0.1,0-0.2,0-0.3,0h0.7
				c0.2,0,0.3,0,0.5,0S1653.5-450,1653.7-450z"/>
			<path class="st12" d="M1665.2-476.3l-0.5-0.5l-0.5-0.5l-0.4-0.4c0.1,0,0.1,0.1,0.2,0.1c0.4,0.4,0.8,0.7,1.1,1.1l0,0
				C1665.1-476.5,1665.1-476.4,1665.2-476.3z"/>
			<path class="st12" d="M1745.7-465.9c0,8.4-6.5,15.3-14.7,15.9h-0.6c-0.2,0-0.3,0-0.5,0c-0.2,0-0.3,0-0.4,0h-33.2
				c0-1.3-0.5-2.5-1.4-3.3l23.1-23.1l0.4-0.4c0.3-0.2,0.5-0.5,0.8-0.8l0.3-0.3c2.8-2.5,6.5-4,10.5-4
				C1738.6-481.8,1745.7-474.7,1745.7-465.9z"/>
			<path class="st12" d="M1719.2-477.7c0,0,0.1-0.1,0.1-0.1l-0.3,0.3c-0.2,0.3-0.5,0.5-0.8,0.8l-0.4,0.4c0-0.1,0.1-0.1,0.1-0.2
				C1718.4-477,1718.8-477.3,1719.2-477.7C1719.2-477.7,1719.2-477.7,1719.2-477.7z"/>
			<path class="st12" d="M1730.9-450c-0.1,0-0.2,0-0.2,0h0c-0.3,0-0.6,0-0.9,0c-0.3,0-0.5,0-0.8,0h0c-0.1,0-0.2,0-0.3,0h0.8
				c0.1,0,0.3,0,0.4,0c0.2,0,0.3,0,0.5,0H1730.9z"/>
			<path class="st12" d="M1688.2-446.7l-22.8,22.8l-1,1l-0.9,0.9c-2.8,2.3-6.3,3.7-10.2,3.7c-8.8,0-15.9-7.1-15.9-15.9
				c0-8.5,6.6-15.4,15-15.9c0.3,0,0.6,0,0.9,0s0.6,0,0.9,0c0.1,0,0.2,0,0.3,0h32.4C1686.8-448.7,1687.3-447.6,1688.2-446.7z"/>
			<path class="st12" d="M1654.1-450c-0.3,0-0.6,0-0.9,0s-0.6,0-0.9,0c0.1,0,0.3,0,0.4,0c0.2,0,0.3,0,0.5,0s0.3,0,0.5,0
				C1653.8-450,1654-450,1654.1-450z"/>
			<path class="st12" d="M1665.4-423.9c-0.1,0.1-0.2,0.3-0.3,0.4c-0.2,0.2-0.4,0.4-0.6,0.6c0,0-0.1,0.1-0.1,0.1
				c-0.2,0.2-0.4,0.4-0.6,0.6c-0.1,0.1-0.2,0.2-0.3,0.2l0.9-0.9L1665.4-423.9z"/>
			<path class="st12" d="M1745.8-434.9c0-0.3,0-0.5-0.1-0.8c0,0,0,0,0,0c0-0.1,0-0.2,0-0.4c0-0.3-0.1-0.7-0.1-1c0-0.1,0-0.2-0.1-0.3
				c-0.1-0.4-0.2-0.8-0.3-1.2c-0.1-0.4-0.2-0.8-0.4-1.1c-0.1-0.2-0.2-0.4-0.3-0.7c-0.1-0.2-0.1-0.3-0.2-0.4
				c-0.1-0.1-0.1-0.3-0.2-0.4c0-0.1-0.1-0.2-0.1-0.3c0-0.1-0.1-0.2-0.2-0.3c0,0,0-0.1-0.1-0.1c-0.1-0.2-0.2-0.3-0.3-0.5
				c-0.1-0.2-0.2-0.3-0.3-0.5c-0.1-0.2-0.2-0.3-0.3-0.5v0c-0.1-0.2-0.2-0.3-0.3-0.5c-0.1-0.2-0.2-0.3-0.4-0.5
				c-0.1-0.1-0.2-0.3-0.4-0.4c0,0,0-0.1-0.1-0.1c-0.1-0.1-0.2-0.2-0.3-0.4c0,0,0,0,0,0c-0.1-0.1-0.3-0.3-0.4-0.4
				c-0.1-0.1-0.2-0.2-0.4-0.3c-0.2-0.2-0.3-0.3-0.5-0.4c-0.2-0.1-0.3-0.2-0.5-0.4c-0.2-0.1-0.4-0.3-0.6-0.4
				c-0.1-0.1-0.2-0.2-0.4-0.2c-0.1-0.1-0.2-0.1-0.3-0.2c-0.1-0.1-0.3-0.2-0.4-0.2c-0.2-0.1-0.4-0.3-0.7-0.4
				c-0.1-0.1-0.2-0.1-0.3-0.1c-0.2-0.1-0.3-0.2-0.5-0.2c-0.2-0.1-0.4-0.2-0.5-0.2c-0.1-0.1-0.3-0.1-0.4-0.2
				c-0.1-0.1-0.3-0.1-0.4-0.1c0,0-0.1,0-0.1-0.1c-0.1,0-0.2-0.1-0.3-0.1c-0.1,0-0.2-0.1-0.3-0.1c-0.1,0-0.2-0.1-0.3-0.1
				c-0.1,0-0.2-0.1-0.3-0.1c-0.1,0-0.1,0-0.2-0.1c-0.1,0-0.2-0.1-0.4-0.1c-0.3-0.1-0.5-0.1-0.8-0.2c-0.1,0-0.2,0-0.3,0c0,0,0,0,0,0
				c0,0,0,0,0,0c-0.1,0-0.2,0-0.3,0c0,0,0,0,0,0c-0.1,0-0.1,0-0.2,0c-0.1,0-0.1,0-0.2,0h0c-0.1,0-0.1,0-0.2,0c-0.1,0-0.1,0-0.2,0h0
				c-0.1,0-0.2,0-0.4,0h0c-0.3,0-0.6,0-0.9,0c-0.3,0-0.5,0-0.8,0h0c0,0-0.1,0-0.1,0c0,0,0,0,0.1,0c-0.1,0-0.2,0-0.3,0h-32.4
				c0,1.3-0.5,2.5-1.4,3.3l22.7,22.7l0.6,0.6c0.1,0.1,0.3,0.2,0.4,0.3l0.2,0.2c0,0,0.1,0.1,0.1,0.1c0,0,0,0,0.1,0.1c0,0,0,0,0.1,0.1
				c0.1,0.1,0.3,0.3,0.5,0.4c0,0,0.1,0.1,0.1,0.1c0.1,0.1,0.3,0.2,0.4,0.3c0,0,0,0,0,0c0.2,0.1,0.3,0.3,0.5,0.4
				c0.2,0.1,0.3,0.3,0.5,0.4c0.1,0.1,0.2,0.1,0.3,0.2c0.1,0.1,0.2,0.1,0.3,0.2c0.1,0.1,0.2,0.1,0.3,0.2c0,0,0,0,0,0
				c0.1,0,0.1,0.1,0.2,0.1c0.1,0.1,0.2,0.1,0.3,0.2c0.3,0.2,0.6,0.3,0.9,0.4c0.1,0.1,0.2,0.1,0.3,0.2c0.1,0.1,0.2,0.1,0.3,0.1
				c0.4,0.2,0.8,0.3,1.3,0.5c0.1,0,0.2,0.1,0.4,0.1c0.3,0.1,0.5,0.1,0.8,0.2c0.1,0,0.3,0.1,0.4,0.1c0.1,0,0.2,0,0.3,0.1
				c0.1,0,0.2,0,0.3,0.1c0.2,0,0.4,0.1,0.5,0.1c0.1,0,0.2,0,0.3,0c0.1,0,0.2,0,0.2,0c0.1,0,0.2,0,0.3,0c0.2,0,0.5,0,0.7,0
				c0.2,0,0.3,0,0.5,0c0.1,0,0.3,0,0.4,0c0.3,0,0.5,0,0.8,0c0.1,0,0.1,0,0.2,0c0.2,0,0.4,0,0.6-0.1c0,0,0.1,0,0.1,0
				c0.1,0,0.2,0,0.4-0.1c0.3,0,0.5-0.1,0.8-0.1c0.1,0,0.3-0.1,0.4-0.1c0.2,0,0.3-0.1,0.5-0.1c0.1,0,0.1,0,0.2,0
				c0.2,0,0.3-0.1,0.5-0.1c0.1,0,0.3-0.1,0.4-0.1c0.1,0,0.1,0,0.2-0.1c0.2-0.1,0.3-0.1,0.5-0.2c0.1,0,0.2-0.1,0.4-0.1
				c0.1-0.1,0.2-0.1,0.3-0.2c0.1,0,0.2-0.1,0.3-0.1c0.1-0.1,0.3-0.1,0.4-0.2c0.1-0.1,0.2-0.1,0.3-0.2c0.1-0.1,0.2-0.1,0.3-0.2
				c0.1-0.1,0.3-0.1,0.4-0.2c0.1-0.1,0.2-0.1,0.3-0.2c0.1-0.1,0.2-0.1,0.3-0.2c0.1-0.1,0.2-0.1,0.3-0.2c0.2-0.1,0.4-0.3,0.6-0.4
				c0.1-0.1,0.2-0.2,0.3-0.2c0.1-0.1,0.2-0.2,0.3-0.2c0.1-0.1,0.2-0.2,0.3-0.2c0.1-0.1,0.2-0.2,0.3-0.3c0.1-0.1,0.2-0.2,0.3-0.3
				c0.4-0.4,0.7-0.7,1-1.1c0,0,0,0,0,0c0.1-0.1,0.1-0.2,0.2-0.3c0.1-0.2,0.2-0.3,0.4-0.5c0.1-0.2,0.2-0.3,0.3-0.5
				c0.1-0.2,0.3-0.4,0.4-0.6c0.1-0.2,0.3-0.4,0.4-0.6c0.1-0.1,0.1-0.2,0.1-0.3c0.1-0.1,0.1-0.3,0.2-0.4c0.1-0.1,0.1-0.3,0.2-0.4
				c0.1-0.1,0.1-0.2,0.1-0.3c0-0.1,0.1-0.2,0.1-0.3c0,0,0-0.1,0-0.1c0-0.1,0.1-0.2,0.1-0.3v0c0,0,0-0.1,0-0.1c0-0.1,0-0.1,0.1-0.2
				c0-0.1,0-0.1,0.1-0.2c0-0.1,0.1-0.2,0.1-0.3c0-0.1,0.1-0.2,0.1-0.3c0-0.1,0.1-0.3,0.1-0.4c0,0,0,0,0-0.1c0-0.1,0.1-0.3,0.1-0.4
				c0,0,0,0,0-0.1c0,0,0,0,0,0c0.1-0.2,0.1-0.4,0.2-0.7c0,0,0,0,0,0c0-0.1,0-0.1,0-0.2c0-0.1,0-0.2,0-0.2c0-0.1,0-0.2,0.1-0.4
				c0,0,0,0,0,0c0-0.1,0-0.3,0.1-0.4c0,0,0,0,0,0c0,0,0-0.1,0-0.1c0,0,0-0.1,0-0.1c0,0,0-0.1,0-0.1c0,0,0-0.1,0-0.1
				c0-0.2,0-0.4,0-0.6c0,0,0,0,0-0.1c0-0.1,0-0.1,0-0.2c0-0.1,0-0.2,0-0.3c0-0.1,0-0.2,0-0.4
				C1745.8-434.4,1745.8-434.6,1745.8-434.9z M1727.1-449.8c0.1,0,0.2,0,0.3-0.1c0.1,0,0.3,0,0.4-0.1
				C1727.6-449.9,1727.4-449.8,1727.1-449.8z M1728.2-449.9c-0.1,0-0.2,0-0.3,0C1728-449.9,1728.1-449.9,1728.2-449.9
				c0,0,0.1,0,0.1,0C1728.3-449.9,1728.2-449.9,1728.2-449.9z M1728.6-450c0.1,0,0.1,0,0.2,0c0,0,0.1,0,0.1,0
				C1728.7-450,1728.6-450,1728.6-450z"/>
			<path class="st12" d="M1727.8-449.9c-0.2,0-0.4,0.1-0.7,0.1c0.1,0,0.2,0,0.3-0.1C1727.5-449.9,1727.7-449.9,1727.8-449.9z"/>
			<path class="st12" d="M1728.8-450c-0.1,0-0.2,0-0.3,0C1728.6-450,1728.7-450,1728.8-450C1728.8-450,1728.8-450,1728.8-450z"/>
			<path class="st12" d="M1728.9-450C1728.9-450,1728.9-450,1728.9-450C1728.9-450,1728.9-450,1728.9-450L1728.9-450z"/>
			<path class="st12" d="M1730.7-450c-0.3,0-0.6,0-0.9,0c-0.3,0-0.5,0-0.8,0c0.1,0,0.3,0,0.4,0h0c0.1,0,0.3,0,0.4,0
				c0.2,0,0.3,0,0.5,0h0C1730.5-450,1730.6-450,1730.7-450z"/>
			<path class="st12" d="M1744.3-427.4c0.1-0.1,0.1-0.2,0.1-0.3c-2.5,5.6-8.1,9.5-14.6,9.5c-3.8,0-7.3-1.3-10.1-3.6
				c-0.1-0.1-0.1-0.1-0.2-0.2c-0.7-0.6-1.3-1.2-1.9-1.8c-0.1-0.1-0.2-0.2-0.2-0.3l0.6,0.6c0.1,0.1,0.3,0.2,0.4,0.3l0.2,0.2
				c0,0,0.1,0.1,0.1,0.1c0,0,0,0,0.1,0.1c0,0,0,0,0.1,0.1c0.1,0.1,0.3,0.3,0.5,0.4c0,0,0.1,0.1,0.1,0.1c0.1,0.1,0.3,0.2,0.4,0.3
				c0,0,0,0,0,0c0.2,0.1,0.3,0.3,0.5,0.4c0.2,0.1,0.3,0.3,0.5,0.4c0.1,0.1,0.2,0.1,0.3,0.2c0.1,0.1,0.2,0.1,0.3,0.2
				c0.1,0.1,0.2,0.1,0.3,0.2c0,0,0,0,0,0c0.1,0,0.1,0.1,0.2,0.1c0.1,0.1,0.2,0.1,0.3,0.2c0.3,0.2,0.6,0.3,0.9,0.4
				c0.1,0.1,0.2,0.1,0.3,0.2c0.1,0.1,0.2,0.1,0.3,0.1c0.4,0.2,0.8,0.3,1.3,0.5c0.1,0,0.2,0.1,0.4,0.1c0.3,0.1,0.5,0.1,0.8,0.2
				c0.1,0,0.3,0.1,0.4,0.1c0.1,0,0.2,0,0.3,0.1c0.1,0,0.2,0,0.3,0.1c0.2,0,0.4,0.1,0.5,0.1c0.1,0,0.2,0,0.3,0c0.1,0,0.2,0,0.2,0
				c0.1,0,0.2,0,0.3,0c0.2,0,0.5,0,0.7,0c0.2,0,0.3,0,0.5,0c0.1,0,0.3,0,0.4,0c0.3,0,0.5,0,0.8,0c0.1,0,0.1,0,0.2,0
				c0.2,0,0.4,0,0.6-0.1c0,0,0.1,0,0.1,0c0.1,0,0.2,0,0.4-0.1c0.3,0,0.5-0.1,0.8-0.1c0.1,0,0.3-0.1,0.4-0.1c0.2,0,0.3-0.1,0.5-0.1
				c0.1,0,0.1,0,0.2,0c0.2,0,0.3-0.1,0.5-0.1c0.1,0,0.3-0.1,0.4-0.1c0.1,0,0.1,0,0.2-0.1c0.2-0.1,0.3-0.1,0.5-0.2
				c0.1,0,0.2-0.1,0.4-0.1c0.1-0.1,0.2-0.1,0.3-0.2c0.1,0,0.2-0.1,0.3-0.1c0.1-0.1,0.3-0.1,0.4-0.2c0.1-0.1,0.2-0.1,0.3-0.2
				c0.1-0.1,0.2-0.1,0.3-0.2c0.1-0.1,0.3-0.1,0.4-0.2c0.1-0.1,0.2-0.1,0.3-0.2c0.1-0.1,0.2-0.1,0.3-0.2c0.1-0.1,0.2-0.1,0.3-0.2
				c0.2-0.1,0.4-0.3,0.6-0.4c0.1-0.1,0.2-0.2,0.3-0.2c0.1-0.1,0.2-0.2,0.3-0.2c0.1-0.1,0.2-0.2,0.3-0.2c0.1-0.1,0.2-0.2,0.3-0.3
				c0.1-0.1,0.2-0.2,0.3-0.3c0.4-0.4,0.7-0.7,1-1.1c0,0,0,0,0,0c0.1-0.1,0.1-0.2,0.2-0.3c0.1-0.2,0.2-0.3,0.4-0.5
				c0.1-0.2,0.2-0.3,0.3-0.5c0.1-0.2,0.3-0.4,0.4-0.6c0.1-0.2,0.3-0.4,0.4-0.6c0.1-0.1,0.1-0.2,0.1-0.3c0.1-0.1,0.1-0.3,0.2-0.4
				C1744.1-427.1,1744.2-427.2,1744.3-427.4z"/>
		</g>
		<path class="st2" d="M1774.2-300.2l-156.3-517.2c0,0-10.6-47.6-40.2,12.3c-29.5,59.9-54.4,108.3-54.4,108.3"/>
	</g>
	<path class="st2" d="M2811.9,1846.5l-158.7-525.3c0,0-10.8-48.3-40.8,12.5c-30,60.8-55.3,110-55.3,110"/>
	<path class="st12" d="M1662.9,1572.6c-0.6,0.1-1.2,0.2-1.9,0.3c-0.1,0-0.2,0-0.4,0.1c-1.9,0.3-3.8,0.6-5.8,0.9
		c-3.5,0.5-7.1,0.9-10.9,1.4c-22.2,2.5-49.1,4-78.2,4c-73.1,0-132.8-9.4-136.8-21.3c0,0,0,0,0,0c0,0,0-0.1,0-0.1
		c-0.1-0.4-0.2-0.8-0.2-1.2c0-12.4,61.3-22.5,137-22.5c30.2,0,58.2,1.6,80.8,4.3c1.3,0.2,2.7,0.3,4,0.5c3.5,0.4,6.8,0.9,10,1.4h0
		c4.7,0.7,9,1.5,13,2.4c0.3,0.1,0.6,0.1,0.9,0.2h-7.9"/>
	<path class="st12" d="M1674.5,1542.9c17.8,3.8,28.3,8.6,28.3,13.7c0,0.4-0.1,0.8-0.2,1.2c0,0,0,0,0,0.1c0,0,0,0,0,0
		c-0.9,2.7-4.7,5.2-10.8,7.6c-4.5,1.8-10.4,3.4-17.3,4.9"/>
	<g>
		<path class="st12" d="M1671.2,2153.6c0.6,0.7,0.8,1.4,0.8,2.2c0,9.7-47.6,17.5-106.3,17.5c-58.7,0-106.3-7.8-106.3-17.5
			c0-0.7,0.3-1.5,0.8-2.2"/>
		<path class="st12" d="M1440.2,1632.4c-0.2-1.6-0.5-3.2-0.7-4.7"/>
		<path class="st12" d="M1446.4,1677.5c19.7,148.5,45.1,391.3,13.9,476c-0.3,0.7-0.5,1.5-0.8,2.2"/>
		<path class="st12" d="M1435.8,1602.1c-3.6-23.9-6.1-39.8-6.8-44.2c0,0,0,0,0,0c0,0,0-0.1,0-0.1c-0.1-0.8-0.2-1.2-0.2-1.2"/>
		<path class="st12" d="M1659,2088.3c-0.3-3-0.5-6.1-0.7-9.3"/>
		<path class="st12" d="M1663.2,2121.9c2.1,12.1,4.8,22.8,8,31.7c0.3,0.7,0.6,1.5,0.8,2.2"/>
		<path class="st12" d="M1656.6,2020.9c0.2-139.4,26.1-331,39.1-417.9v0c0.3-2,0.6-3.9,0.8-5.7h0c0.1-0.4,0.1-0.9,0.2-1.3
			c0.1-0.8,0.2-1.6,0.4-2.4c2.9-19.2,4.9-31.8,5.6-35.7c0,0,0,0,0,0c0,0,0-0.1,0-0.1c0.1-0.8,0.2-1.2,0.2-1.2"/>
	</g>
	<ellipse class="st4" cx="1565.8" cy="1616" rx="113.9" ry="18.7"/>
	<path class="st12" d="M1674.5,1570.4c-3.6,0.8-7.5,1.5-11.6,2.2"/>
	<polyline class="st12" points="1707.9,1582.3 1707.9,1582 1707.9,1574.1 	"/>
	<line class="st12" x1="1660.6" y1="1572.9" x2="1660.6" y2="1572.6"/>
	<path class="st11" d="M1568.2,1768.7l-51.7,12.9c-9.6,2.4-19.4-3.5-21.8-13.1l-12.4-49.5c-2.4-9.6,3.5-19.4,13.1-21.8l51.7-12.9
		c9.6-2.4,19.4,3.5,21.8,13.1l12.4,49.5C1583.7,1756.5,1577.8,1766.3,1568.2,1768.7z"/>
	<path class="st7" d="M1953.4,1687.5c0.2,0.4,0.4,0.8,0.6,1.1c30.3,54.6,97,94.9,171.4,94.9c75,0,142.2-40.8,172.1-96H1953.4z"/>
	<path class="st11" d="M1592.4,1868.8l-51.4-14.1c-9.5-2.6-15.2-12.6-12.6-22.1l13.5-49.2c2.6-9.5,12.6-15.2,22.1-12.6l51.4,14.1
		c9.5,2.6,15.2,12.6,12.6,22.1l-13.5,49.2C1611.9,1865.7,1602,1871.4,1592.4,1868.8z"/>
	<path class="st12" d="M2017.7,1607.5c-4.9,0.3-9.7,0.7-14.4,1"/>
	<path class="st12" d="M2228.7,1607.2c21.7,1.3,41.3,3.1,58,5.2c1.7,0.2,3.4,0.4,5.1,0.7c34.1,4.5,55,10.5,55.4,17
		c0,0.1,0,0.1,0,0.2c0,0.7-0.2,1.4-0.7,2c-3.2,4.9-17.9,9.4-41,13.1c-3.1,0.5-6.4,1-9.9,1.5c-33.9,4.7-82,8-136.7,9
		c-11,0.2-22.2,0.3-33.7,0.3c-116.7,0-212.4-10.5-221.2-23.9c-0.5-0.7-0.7-1.3-0.7-2c0-0.1,0-0.1,0-0.2c0.4-7.3,26.6-13.9,68.4-18.5
		"/>
	<path class="st12" d="M2061.8,1605.3c20.1-0.7,41.4-1.1,63.5-1.1c13.6,0,27,0.1,40,0.4"/>
	<ellipse class="st4" cx="2125.4" cy="1686.7" rx="172.2" ry="20"/>
	<path class="st12" d="M2110.4,2080.6c-67.1,0.9-119.3,7.5-119.3,15.6c0,5.2,22,9.9,55.8,12.7"/>
	<path class="st12" d="M2140.2,2080.6c67.1,0.9,119.3,7.5,119.3,15.6c0,8.7-60.1,15.7-134.2,15.7c-16.3,0-31.8-0.3-46.3-1"/>
	<path class="st12" d="M2147.4,1795.4c94.6-9,172.6-74.9,199.2-163.2c0.2-0.7,0.4-1.5,0.7-2.2"/>
	<path class="st12" d="M1903.5,1630c0.2,0.7,0.4,1.5,0.7,2.2c26.6,88.3,104.6,154.2,199.2,163.2"/>
	<g>
		<path class="st12" d="M2103.3,1795.4c6.2,7,16.8,32.4,16.2,123.5c-0.8,124.5,2.3,148.8-9.1,161.7"/>
		<path class="st12" d="M2131.3,2013.5c0-3.1,0-6.4,0-9.8"/>
		<path class="st12" d="M2131.3,1990.1c0-19.1,0-42.5-0.2-71.1c-0.6-91.2,10-116.5,16.2-123.5"/>
		<path class="st12" d="M2140.2,2080.6c-4.9-5.5-7.1-13.2-8.1-30.1"/>
	</g>
	<g>
		<circle class="st2" cx="2197.1" cy="1602.5" r="31.9"/>
		<line class="st2" x1="2236" y1="1546.4" x2="2094.8" y2="1747.2"/>
	</g>
	<line class="st9" x1="1228.6" y1="2576.8" x2="1229.8" y2="2613.6"/>
	<g>
		<path class="st4" d="M-1096.2,864.6c0,40.7,10.4,78.9,28.8,112.2c23.1,41.9,58.8,76,102,97c30.8,15,65.3,23.4,101.8,23.4
			c28.3,0,55.4-5,80.4-14.3c51.1-18.8,93.8-55.1,120.9-101.7c19.9-34.3,31.4-74.2,31.4-116.7"/>
		<path class="st9" d="M-1105.7,872.4c0,40.7,10.5,79,28.8,112.3c23.2,42,58.9,76.1,102.1,97.1c30.8,15,65.4,23.4,102,23.4
			c28.3,0,55.4-5,80.5-14.3c51.2-18.9,93.9-55.2,121-101.8c20-34.3,31.4-74.3,31.4-116.9"/>
		<polyline class="st9" points="-639.8,872.4 -679.4,872.4 -853.6,872.4 -872.8,872.4 -892,872.4 -1066.2,872.4 -1105.7,872.4 		"/>
		<path class="st9" d="M-853.6,872.4c0,3.5-0.9,6.8-2.6,9.7c-2.2,3.8-5.8,6.8-10,8.4c-2.1,0.8-4.3,1.2-6.7,1.2c-3,0-5.9-0.7-8.4-1.9
			c-3.6-1.7-6.5-4.6-8.4-8c-1.5-2.8-2.4-5.9-2.4-9.3"/>
		<line class="st9" x1="-889.6" y1="881.7" x2="-1042.2" y2="965.6"/>
		<line class="st9" x1="-705.5" y1="969.4" x2="-856.1" y2="882"/>
		<line class="st9" x1="-805.9" y1="1053.9" x2="-866.1" y2="890.4"/>
		<line class="st9" x1="-881.2" y1="889.7" x2="-957.4" y2="1046.3"/>
		<path class="st9" d="M-1069.7,872.4c0,108.8,88.2,196.9,196.9,196.9c108.8,0,196.9-88.2,196.9-196.9"/>
	</g>
	<g>
		<ellipse class="st2" cx="-919.3" cy="-617.6" rx="141.5" ry="12.5"/>
		<path class="st2" d="M-1060.6,31c-0.2,0.2-0.2,0.5-0.2,0.7c0,0.2,0.1,0.5,0.2,0.7c4.3,6.5,65.9,11.7,141.3,11.7
			c75.3,0,136.9-5.2,141.3-11.7c0.2-0.2,0.2-0.5,0.2-0.7c0-0.2-0.1-0.5-0.2-0.7"/>
		<path class="st2" d="M-1060.6-53.2c-0.2,0.2-0.2,0.5-0.2,0.7c0,0.2,0.1,0.5,0.2,0.7c4.3,6.5,65.9,11.7,141.3,11.7
			c75.3,0,136.9-5.2,141.3-11.7c0.2-0.2,0.2-0.5,0.2-0.7c0-0.2-0.1-0.5-0.2-0.7"/>
		<line class="st2" x1="-778" y1="-386.9" x2="-778" y2="-578.8"/>
		<polyline class="st2" points="-778,-280.8 -778,-53.3 -778,-51.8 -778,-34.2 		"/>
		<line class="st2" x1="-778" y1="33.5" x2="-778" y2="-0.5"/>
		<line class="st2" x1="-778" y1="-337.2" x2="-778" y2="-343"/>
		<polyline class="st2" points="-778,-606.4 -778,-614.1 -778,-616.9 		"/>
		<line class="st2" x1="-1060.6" y1="-553.5" x2="-1060.6" y2="-560.2"/>
		<polyline class="st2" points="-1060.6,-515.5 -1060.6,-53.2 -1060.6,-51.8 -1060.6,33.5 		"/>
		<polyline class="st2" points="-1060.6,-583.6 -1060.6,-616.9 -1060.6,-618.3 -1060.6,-618.3 		"/>
		<ellipse class="st4" cx="-919.3" cy="-534.2" rx="124.6" ry="11"/>
		<path class="st7" d="M-794.7-534.2c0,0-7.2,377-12,419.7c-3.1,28-37.8,43.4-71.7,51c-23.8,5.3-67,6.9-90.7,0.9
			c-26.4-6.6-55.2-21.2-61-53.1c-11.1-61.6-13.8-418.4-13.8-418.4c0,6.1,55.8,11,124.6,11S-794.7-528.2-794.7-534.2z"/>
		<circle class="st11" cx="-819" cy="-713.1" r="21.3"/>
		<line class="st2" x1="-828.6" y1="-694.3" x2="-1030.2" y2="-278.2"/>
		<path class="st11" d="M-872.3-154.2l-45.9,26.5c-8.6,4.9-19.6,2-24.6-6.6l-25.4-44c-4.9-8.6-2-19.6,6.6-24.6l45.9-26.5
			c8.6-4.9,19.6-2,24.6,6.6l25.4,44C-860.8-170.2-863.7-159.1-872.3-154.2z"/>
		<path class="st11" d="M-865.6-244.1l-52.9,4c-9.9,0.7-18.6-6.7-19.3-16.6l-3.8-50.7c-0.7-9.9,6.7-18.6,16.6-19.3l52.9-4
			c9.9-0.7,18.6,6.7,19.3,16.6l3.8,50.7C-848.3-253.5-855.8-244.8-865.6-244.1z"/>
		<path class="st11" d="M-863.1-333.7l-37.5,37.5c-7,7-18.5,7-25.5,0l-35.9-35.9c-7-7-7-18.5,0-25.5l37.5-37.5c7-7,18.5-7,25.5,0
			l35.9,35.9C-856.1-352.1-856.1-340.7-863.1-333.7z"/>
		<g>
			<path class="st4" d="M-907.6-504c-8.6,8.8-14.4,19.2-17.4,30.3c-3.9,13.9-3.3,28.8,1.5,42.4c3.5,9.7,9.1,18.8,17,26.5
				c6.1,6,13,10.6,20.4,13.9c15,6.7,31.8,7.9,47.5,3.6c11.5-3.2,22.4-9.4,31.4-18.6"/>
			<path class="st9" d="M-911.3-504.4c-8.6,8.8-14.4,19.2-17.5,30.3c-3.9,13.9-3.3,28.8,1.6,42.5c3.5,9.7,9.2,18.8,17,26.5
				c6.1,6,13,10.6,20.4,13.9c15,6.7,31.9,7.9,47.5,3.6c11.5-3.2,22.4-9.4,31.4-18.6"/>
			<polyline class="st9" points="-810.8,-406.2 -819.4,-414.5 -856.9,-451.2 -861,-455.3 -865.2,-459.3 -902.7,-496 -911.3,-504.4 
							"/>
			<path class="st9" d="M-856.9-451.2c-0.7,0.8-1.6,1.3-2.6,1.5c-1.3,0.4-2.7,0.3-3.9-0.3c-0.6-0.3-1.2-0.7-1.7-1.1
				c-0.7-0.6-1.1-1.4-1.4-2.2c-0.4-1.1-0.4-2.4-0.1-3.5c0.3-0.9,0.7-1.8,1.4-2.5"/>
			<line class="st9" x1="-866.6" y1="-456.8" x2="-917.2" y2="-470.9"/>
			<line class="st9" x1="-845.4" y1="-399.1" x2="-859.5" y2="-449.7"/>
			<line class="st9" x1="-884.9" y1="-402.1" x2="-863.4" y2="-450"/>
			<line class="st9" x1="-866.5" y1="-453.3" x2="-915.9" y2="-435.6"/>
			<path class="st9" d="M-903.5-496.8c-22.9,23.5-22.5,61,1,84c23.5,22.9,61,22.5,84-1"/>
		</g>
	</g>
	<path class="st7" d="M1679.6,1616.8c-70.9,490.3-44.6,490.3-37.6,509c1.8,4.8,0.5,8.2-2.3,10.6c-9,9.9-38.8,17.1-74.1,17.1
		c-34,0-62.9-6.8-73-16.1c-6.8-4.4-3.5-10.5-3.5-10.5c35.2-141.7-32.4-486.9-37-509.8c-0.1-0.8-0.2-1.2-0.2-1.2h227.8
		C1679.6,1616.2,1679.6,1616.5,1679.6,1616.8z"/>
</g>
</svg>
