<?xml version="1.0" encoding="utf-8"?>
<!-- Generator: Adobe Illustrator 24.3.0, SVG Export Plug-In . SVG Version: 6.00 Build 0)  -->
<svg version="1.1" id="Layer_1" xmlns="http://www.w3.org/2000/svg" xmlns:xlink="http://www.w3.org/1999/xlink" x="0px" y="0px"
	 viewBox="0 0 558.1 792" style="enable-background:new 0 0 558.1 792;" xml:space="preserve">
<style type="text/css">
	.st0{display:none;}
	.st1{display:inline;fill:#C5CAD6;}
	.st2{fill:#BC520A;}
	.st3{fill:none;stroke:#C5CAD6;stroke-width:7;stroke-linecap:round;stroke-miterlimit:10;}
	.st4{fill:none;stroke:#000000;stroke-width:5;stroke-miterlimit:10;}
	.st5{fill:#9B450B;}
	.st6{fill:#383735;}
	.st7{fill:#273244;}
	.st8{fill:#C5CAD6;}
</style>
<g id="Layer_2_1_" class="st0">
	<rect x="-151.9" y="-26.2" class="st1" width="664.1" height="842"/>
</g>
<path class="st2" d="M2366.3,251.2C2366.3,251.3,2366.3,251.3,2366.3,251.2c-1.1,0.9-37.1,30.2-73.2,59.5l0,0
	c-6.9,5.6-13.7,11.1-20.3,16.5c-24.4,19.9-45.6,37.1-51.4,41.8c-15.8,12.8-31.1,0-31.1,0l-132.8-107.8l-17-13.8c0,0-0.1,0-0.1-0.1
	h-0.1l-0.8-0.7l11.1,0.2l210.5,2.9l0,0L2366.3,251.2z"/>
<path class="st2" d="M1682.1,489.4c0,0-0.3,1.1-0.7,3c-5.8,23.1-44.3,172.6-78.6,189.6c-20,9.9-61.9,13.8-104.9,8.8
	c-14.6-1.7-26.3-7.2-35.3-13.7c-13.8-9.9-23.7-24.3-28.7-40.6l-44-143.3l-1.1-3.7h293.3V489.4z"/>
<path class="st3" d="M-253.6,291h-116c-3.2,0-5.8-2.6-5.8-5.8V172.3c0-3.2,2.6-5.8,5.8-5.8h116c3.2,0,5.8,2.6,5.8,5.8v112.8
	C-247.8,288.3-250.4,291-253.6,291z"/>
<g>
	<circle class="st3" cx="-672.4" cy="201.8" r="28.3"/>
	<line class="st3" x1="-672.8" y1="141.2" x2="-672.8" y2="359.2"/>
</g>
<circle class="st3" cx="-777" cy="201.8" r="20.1"/>
<line class="st3" x1="-777.4" y1="141.2" x2="-777.4" y2="419.5"/>
<path class="st4" d="M-249.1,723.8c0,0.1,0,0.2,0.1,0.4c-0.1-0.3-0.1-0.6-0.2-0.9C-249.2,723.5-249.1,723.6-249.1,723.8z"/>
<path class="st4" d="M-248.8,725.3c-0.1-0.4-0.1-0.8-0.2-1.1c0,0.2,0.1,0.4,0.1,0.6C-248.9,725-248.9,725.1-248.8,725.3z"/>
<path class="st4" d="M-248.6,726.8c0-0.3-0.1-0.6-0.1-0.9c0,0.2,0.1,0.4,0.1,0.7C-248.7,726.7-248.6,726.7-248.6,726.8z"/>
<path class="st4" d="M-248.8,725.9c0-0.2-0.1-0.4-0.1-0.6C-248.8,725.5-248.8,725.7-248.8,725.9z"/>
<path class="st4" d="M-248.5,727.8c0-0.3-0.1-0.6-0.1-1c0,0.1,0,0.3,0,0.4C-248.6,727.4-248.6,727.6-248.5,727.8z"/>
<path class="st4" d="M-248.4,729.9c0-0.7-0.1-1.4-0.2-2.1c0,0.4,0.1,0.8,0.1,1.1c0,0.1,0,0.2,0,0.3
	C-248.4,729.5-248.4,729.7-248.4,729.9z"/>
<g>
	<circle class="st5" cx="-404.8" cy="687.5" r="164.7"/>
	<g>
		<path class="st3" d="M-466.8,759.7c-0.3,0.3-0.6,0.7-0.9,1c-0.5,0.6-1.1,1.2-1.6,1.7c-0.1,0.1-0.2,0.2-0.3,0.3
			c-0.5,0.5-1.1,1-1.6,1.5c-0.2,0.2-0.5,0.5-0.8,0.7l2.4-2.4L-466.8,759.7z"/>
		<path class="st3" d="M-498.5,688.8h1.8c-0.3,0-0.5,0-0.8,0c-0.8,0-1.6,0.1-2.4,0.1s-1.6,0-2.4-0.1c-0.3,0-0.5,0-0.8,0h1.8
			c0.5,0,0.9,0,1.3,0S-499,688.8-498.5,688.8z"/>
		<path class="st3" d="M-467.9,616.7c0.2,0.2,0.4,0.4,0.5,0.6l-1.5-1.5l-1.5-1.5l-1.2-1.2c0.2,0.1,0.3,0.3,0.4,0.4
			C-469.9,614.5-468.9,615.6-467.9,616.7L-467.9,616.7z"/>
		<path class="st3" d="M-395.8,584.5c0,0.4,0,0.7,0,1.1v-2.2C-395.8,583.8-395.8,584.2-395.8,584.5z"/>
		<path class="st3" d="M-383.1,688.8c0,3.5-1.4,6.7-3.7,9s-5.5,3.7-9,3.7s-6.7-1.4-9-3.7s-3.7-5.5-3.7-9s1.4-6.7,3.7-9
			c2.3-2.3,5.5-3.7,9-3.7s6.7,1.4,9,3.7C-384.6,682.1-383.1,685.3-383.1,688.8z"/>
		<path class="st3" d="M-395.9,794.6v-2.7c0,0.2,0,0.4,0,0.6v0.2v0.5c0,0.1,0,0.2,0,0.4c0,0.1,0,0.1,0,0.2
			c0.3,23.7,19.6,42.8,43.3,42.8c23.9,0,43.3-19.4,43.3-43.3c0-10.7-3.9-20.5-10.4-28.1c-1.8-1.5-3.5-3.2-5-5
			c-0.2-0.2-0.4-0.5-0.6-0.8l1.6,1.6l3.4,3.4l1.2,1.2"/>
		<path class="st3" d="M-395.9,853.2c45.4,0,86.5-18.4,116.3-48.2"/>
		<path class="st3" d="M-323.2,616.1l-1,1c0.1-0.2,0.2-0.3,0.4-0.4c1-1.1,2-2.1,3.1-3.1l0,0c0.1-0.1,0.2-0.2,0.3-0.3l-0.7,0.7
			C-321.8,614.7-322.5,615.4-323.2,616.1z"/>
		<path class="st3" d="M-295.8,689c-0.1,0-0.2,0-0.4,0l0,0C-296.1,689-295.9,689-295.8,689z"/>
		<path class="st3" d="M-294.4,688.9c-0.2,0-0.5,0-0.7,0c0.1,0,0.3,0,0.5,0C-294.6,688.9-294.5,688.9-294.4,688.9z"/>
		<path class="st3" d="M-288.7,688.8c-0.2,0-0.4,0-0.6,0h-0.1c-0.8,0.1-1.6,0.1-2.4,0.1s-1.5,0-2.2-0.1h-0.1c-0.3,0-0.6,0-0.9-0.1
			h2.1c0.4,0,0.8,0,1.2,0c0.5,0,0.9,0,1.3,0L-288.7,688.8L-288.7,688.8z"/>
		<path class="st3" d="M-288.3,688.9L-288.3,688.9c-0.4,0-0.7,0-1-0.1C-289,688.8-288.6,688.8-288.3,688.9L-288.3,688.9z"/>
		<path class="st3" d="M-286.8,689c-0.2,0-0.3,0-0.5-0.1l0,0c-0.2,0-0.4,0-0.5,0c0.2,0,0.4,0,0.6,0C-287.1,689-286.9,689-286.8,689z
			"/>
		<path class="st3" d="M-251,717.1c0-0.1-0.1-0.3-0.2-0.4c-0.2-0.5-0.4-1-0.6-1.5c-0.2-0.4-0.3-0.8-0.5-1.2s-0.3-0.8-0.5-1.2
			c-0.1-0.2-0.2-0.5-0.4-0.7c-0.1-0.3-0.3-0.5-0.4-0.8c-0.1-0.1-0.1-0.2-0.2-0.3c-0.2-0.4-0.5-0.9-0.7-1.3c-0.3-0.5-0.6-0.9-0.9-1.4
			c-0.3-0.5-0.6-0.9-0.9-1.3l0,0c-0.3-0.4-0.6-0.9-1-1.3s-0.7-0.8-1-1.2s-0.6-0.8-1-1.1c-0.1-0.1-0.1-0.2-0.2-0.2
			c-0.3-0.3-0.6-0.7-0.9-1c0,0,0-0.1-0.1-0.1c-0.4-0.4-0.7-0.7-1.1-1.1c-0.3-0.3-0.7-0.6-1-0.9c-0.5-0.4-0.9-0.8-1.4-1.2
			c-0.4-0.3-0.8-0.7-1.2-1c-0.5-0.4-1-0.8-1.5-1.1c-0.3-0.2-0.7-0.5-1-0.7s-0.6-0.4-0.9-0.6c-0.3-0.2-0.7-0.4-1-0.6
			c-0.6-0.4-1.2-0.7-1.8-1c-0.2-0.1-0.5-0.3-0.8-0.4c-0.4-0.2-0.8-0.4-1.3-0.6c-0.5-0.2-1-0.5-1.5-0.7c-0.4-0.2-0.8-0.3-1.2-0.5
			c-0.3-0.1-0.7-0.3-1-0.4c-0.1,0-0.3-0.1-0.4-0.1c-0.3-0.1-0.6-0.2-0.8-0.3c-0.2-0.1-0.5-0.2-0.7-0.2c-0.2-0.1-0.5-0.1-0.7-0.2
			c-0.3-0.1-0.6-0.2-0.9-0.2c-0.2-0.1-0.4-0.1-0.6-0.2c-0.3-0.1-0.6-0.2-1-0.2c-0.7-0.2-1.4-0.3-2.1-0.4c-0.3,0-0.6-0.1-0.9-0.1
			c0.2,0,0.4,0.1,0.6,0.1l0,0c0.5,0.1,1,0.2,1.4,0.3c0.2,0,0.4,0.1,0.6,0.1h0.1h0.1c0.5,0.1,0.9,0.2,1.4,0.3c0.1,0,0.3,0.1,0.4,0.1
			c0.5,0.1,0.9,0.2,1.4,0.4c0.6,0.2,1.2,0.4,1.8,0.6c0.5,0.2,1,0.3,1.5,0.5c0.3,0.1,0.6,0.2,0.8,0.3c0.5,0.2,1.1,0.5,1.6,0.7
			c0.3,0.1,0.5,0.2,0.8,0.4c0.6,0.3,1.2,0.6,1.7,0.9l0,0c0.6,0.3,1.1,0.6,1.7,1c0.3,0.2,0.6,0.3,0.8,0.5c0.3,0.2,0.7,0.4,1,0.6
			c0.3,0.2,0.7,0.4,1,0.7c0.6,0.5,1.3,0.9,1.9,1.4c0.2,0.2,0.4,0.3,0.6,0.5l0.1,0.1c0.4,0.3,0.8,0.6,1.1,1c0.4,0.3,0.8,0.7,1.1,1
			c0,0,0,0,0.1,0.1c0.2,0.2,0.5,0.4,0.7,0.7c0.2,0.2,0.5,0.5,0.7,0.7c0.3,0.4,0.7,0.7,1,1.1c0.3,0.4,0.6,0.7,0.9,1.1
			c0.2,0.2,0.4,0.5,0.6,0.8c0,0,0,0,0.1,0.1c0.3,0.4,0.7,0.9,1,1.3c0.2,0.3,0.5,0.7,0.7,1c0.3,0.4,0.5,0.8,0.8,1.2s0.5,0.8,0.8,1.2
			c0.2,0.3,0.3,0.6,0.5,0.9c0.3,0.6,0.6,1.1,0.9,1.7c0.3,0.6,0.6,1.2,0.8,1.8c0.1,0.3,0.3,0.6,0.4,0.9c0.4,0.9,0.7,1.8,1.1,2.8
			c0.1,0.3,0.2,0.6,0.3,1c0.1,0.3,0.2,0.6,0.3,1c0.1,0.5,0.3,1,0.4,1.5v0.1c0.1,0.5,0.2,0.9,0.3,1.4c0,0.1,0.1,0.3,0.1,0.4
			c-0.2-1.1-0.5-2.2-0.8-3.2C-250.3,719.1-250.6,718.1-251,717.1z"/>
		<path class="st3" d="M-383.1,688.8c0,3.5-1.4,6.7-3.7,9s-5.5,3.7-9,3.7s-6.7-1.4-9-3.7s-3.7-5.5-3.7-9s1.4-6.7,3.7-9
			c2.3-2.3,5.5-3.7,9-3.7s6.7,1.4,9,3.7C-384.6,682.1-383.1,685.3-383.1,688.8z"/>
		<line class="st3" x1="-290.2" y1="688.8" x2="-292.9" y2="688.8"/>
		<line class="st3" x1="-498.5" y1="688.8" x2="-501.2" y2="688.8"/>
		<line class="st3" x1="-468.8" y1="615.8" x2="-470.3" y2="614.3"/>
		<line class="st3" x1="-321.1" y1="614" x2="-323.2" y2="616.1"/>
		<path class="st3" d="M-395.9,583.4V676c-3.5,0-6.7,1.4-9,3.7l-62.5-62.5c-0.2-0.2-0.3-0.4-0.5-0.6l0,0c-1-1.1-2-2.1-3.1-3.1
			c-7-7.7-11.2-17.9-11.2-29c0-23.8,19.3-43.2,43.2-43.2C-415.5,541.3-396.5,560.1-395.9,583.4z"/>
		<path class="st3" d="M-467.9,616.7c-0.3-0.3-0.6-0.6-0.9-0.9l-1.5-1.5c-0.2-0.2-0.5-0.5-0.7-0.8
			C-469.9,614.5-468.9,615.6-467.9,616.7z"/>
		<path class="st3" d="M-395.8,584.5c0,0.4,0,0.7,0,1.1v-2.2C-395.8,583.8-395.8,584.2-395.8,584.5z"/>
		<path class="st3" d="M-309.5,584.5c0,11.2-4.2,21.4-11.2,29l0,0c-1.1,1-2.1,2-3.1,3.1c-0.1,0.1-0.3,0.3-0.4,0.4l-62.7,62.7
			c-2.3-2.3-5.5-3.7-9-3.7v-90.4c0-0.4,0-0.7,0-1.1c0-23.8,19.3-43.2,43.2-43.2S-309.5,560.7-309.5,584.5z"/>
		<path class="st3" d="M-320.7,613.6c-0.1,0.1-0.3,0.3-0.4,0.5c-0.6,0.7-1.3,1.4-2,2c-0.2,0.2-0.4,0.4-0.6,0.6
			C-322.8,615.6-321.8,614.5-320.7,613.6z"/>
		<path class="st3" d="M-309.2,793.3c0,23.9-19.4,43.3-43.3,43.3c-23.7,0-43-19.1-43.3-42.8c0-0.1,0-0.1,0-0.2c0-0.1,0-0.2,0-0.4
			v-0.7c0-0.2,0-0.4,0-0.6v-90.4c3.5,0,6.7-1.4,9-3.7l61.6,61.6c0.2,0.2,0.4,0.5,0.6,0.8c1.5,1.8,3.2,3.5,5,5
			C-313.1,772.7-309.2,782.5-309.2,793.3z"/>
		<path class="st3" d="M-395.8,793.3c0-0.2,0-0.4,0-0.6V793.3c0,0.1,0,0.2,0,0.4V793.3z"/>
		<path class="st3" d="M-319.6,765.2c-1.8-1.5-3.5-3.2-5-5c0.3,0.3,0.6,0.5,0.9,0.8s0.7,0.6,1,0.9l0.6,0.6c0.1,0.1,0.2,0.2,0.3,0.3
			c0,0,0.1,0.1,0.2,0.2c0.1,0.1,0.1,0.1,0.2,0.2c0.4,0.4,0.7,0.8,1.1,1.2C-320,764.6-319.8,764.9-319.6,765.2z"/>
		<path class="st3" d="M-395.8,792.5v0.7c0,0.1,0,0.2,0,0.4c0,0.1,0,0.1,0,0.2c0,0.3,0,0.5,0,0.8v-2.7
			C-395.8,792.1-395.8,792.3-395.8,792.5z"/>
		<path class="st3" d="M-395.9,701.5v93.1c-0.7,23.2-19.8,41.9-43.2,41.9c-23.9,0-43.2-19.3-43.2-43.2c0-11.9,4.8-22.6,12.6-30.4
			c0.1-0.1,0.2-0.2,0.3-0.3c0.6-0.6,1.1-1.1,1.6-1.7c0.3-0.3,0.6-0.7,0.9-1l62-62C-402.5,700.1-399.4,701.5-395.9,701.5z"/>
		<path class="st3" d="M-294.4,688.9c-0.2,0-0.5,0-0.7,0c0.1,0,0.3,0,0.5,0C-294.6,688.9-294.5,688.9-294.4,688.9z"/>
		<path class="st3" d="M-395.9,853.2c-90.8,0-164.5-73.6-164.5-164.5s73.6-164.5,164.5-164.5c90.8,0,164.5,73.6,164.5,164.5
			c0,45.4-18.4,86.5-48.2,116.3"/>
		<path class="st3" d="M-319,765.6l-1.2-1.2l-3.4-3.4c0.3,0.3,0.7,0.6,1,0.9l0.6,0.6c0.1,0.1,0.2,0.2,0.3,0.3c0,0,0.1,0.1,0.1,0.2
			c0.1,0.1,0.1,0.1,0.2,0.2c0.4,0.4,0.8,0.8,1.2,1.1c0.1,0.1,0.2,0.2,0.3,0.3c0.3,0.3,0.7,0.6,1.1,0.9c0,0,0.1,0,0.1,0.1
			c0.5,0.4,0.9,0.7,1.4,1c0.5,0.4,0.9,0.7,1.4,1c0.3,0.2,0.5,0.4,0.8,0.5c0.3,0.2,0.6,0.4,0.9,0.5c0.3,0.2,0.5,0.3,0.8,0.5l0,0
			c0.1,0.1,0.3,0.2,0.4,0.3c0.3,0.2,0.5,0.3,0.8,0.5c0.8,0.4,1.6,0.8,2.4,1.2c0.3,0.2,0.6,0.3,0.9,0.4c0.3,0.1,0.6,0.3,0.9,0.4
			c1.1,0.5,2.3,0.9,3.5,1.2c0.3,0.1,0.7,0.2,1,0.3c0.7,0.2,1.4,0.4,2.1,0.5c0.4,0.1,0.7,0.2,1.1,0.2c0.3,0.1,0.6,0.1,0.9,0.2
			c0.3,0,0.6,0.1,0.8,0.2c0.5,0.1,1,0.1,1.5,0.2c0.3,0,0.6,0.1,0.8,0.1c0.2,0,0.4,0,0.6,0.1c0.3,0,0.5,0,0.8,0.1
			c0.7,0,1.3,0.1,2,0.1c0.4,0,0.8,0,1.3,0c0.4,0,0.8,0,1.2,0c0.7,0,1.4-0.1,2.1-0.1c0.2,0,0.3,0,0.5,0c0.5,0,1-0.1,1.5-0.2
			c0.1,0,0.1,0,0.2,0c0.3,0,0.7-0.1,1-0.1c0.7-0.1,1.4-0.2,2.1-0.4c0.3-0.1,0.7-0.2,1-0.2c0.4-0.1,0.9-0.2,1.3-0.3
			c0.2,0,0.3-0.1,0.4-0.1c0.4-0.1,0.8-0.2,1.2-0.4c0.4-0.1,0.8-0.2,1.1-0.4c0.2-0.1,0.3-0.1,0.5-0.2c0.4-0.1,0.8-0.3,1.2-0.5
			c0.3-0.1,0.6-0.2,1-0.4c0.3-0.1,0.6-0.3,1-0.4c0.3-0.1,0.5-0.2,0.8-0.4c0.4-0.2,0.7-0.3,1.1-0.5c0.3-0.1,0.6-0.3,0.9-0.5
			c0.3-0.1,0.5-0.3,0.8-0.4c0.3-0.2,0.7-0.4,1-0.6c0.3-0.2,0.6-0.4,0.9-0.5c0.3-0.2,0.6-0.4,0.9-0.6c0.3-0.2,0.6-0.4,0.9-0.6
			c0.6-0.4,1.1-0.8,1.6-1.2c0.3-0.2,0.5-0.4,0.8-0.6c0.3-0.2,0.5-0.4,0.8-0.6c0.3-0.2,0.5-0.4,0.8-0.7c0.2-0.2,0.5-0.4,0.8-0.7
			c0.2-0.2,0.5-0.5,0.7-0.7c1-1,1.9-2,2.8-3l0,0c0.2-0.2,0.4-0.5,0.6-0.7c0.3-0.4,0.7-0.8,1-1.3c0.3-0.4,0.6-0.9,0.9-1.3
			c0.4-0.5,0.7-1,1-1.6c0.4-0.5,0.7-1.1,1-1.7c0.1-0.2,0.3-0.5,0.4-0.7c0.2-0.3,0.4-0.7,0.5-1c0.2-0.4,0.4-0.8,0.6-1.2
			c0.1-0.3,0.3-0.6,0.4-0.8c0.1-0.2,0.2-0.5,0.3-0.7c0-0.1,0.1-0.2,0.1-0.2c0.1-0.2,0.2-0.5,0.3-0.8l0,0c0-0.1,0.1-0.2,0.1-0.3
			c0.1-0.1,0.1-0.3,0.2-0.5c0.1-0.1,0.1-0.3,0.2-0.5c0.1-0.3,0.2-0.5,0.3-0.8c0.1-0.2,0.2-0.5,0.2-0.8c0.1-0.4,0.2-0.7,0.3-1.1
			c0-0.1,0-0.1,0-0.1c0.1-0.3,0.2-0.7,0.3-1v-0.1l0,0c0.2-0.6,0.3-1.2,0.4-1.8v-0.1c0-0.2,0.1-0.4,0.1-0.5c0-0.2,0.1-0.4,0.1-0.6
			c0-0.1,0-0.1,0-0.2c0-0.2,0.1-0.5,0.1-0.8l0,0c0.1-0.3,0.1-0.7,0.1-1l0,0c0-0.1,0-0.2,0-0.3s0-0.2,0-0.4c0-0.1,0-0.2,0-0.3
			s0-0.2,0-0.3c0-0.2,0-0.4,0.1-0.6c0-0.1,0-0.2,0-0.3c0-0.3,0.1-0.6,0.1-0.9c0-0.1,0-0.3,0-0.4c0-0.2,0-0.5,0-0.7c0-0.3,0-0.7,0-1
			c0-0.7,0-1.4,0-2.2c0-0.2,0-0.4,0-0.6c0-0.1,0-0.2,0-0.3c0-0.4-0.1-0.8-0.1-1.1v-0.1c0-0.2,0-0.4-0.1-0.5c0-0.1,0-0.3-0.1-0.4
			c0-0.1,0-0.1,0-0.2c-0.1-0.6-0.2-1.2-0.3-1.8c0-0.2-0.1-0.4-0.1-0.6c0-0.1,0-0.2-0.1-0.4c0-0.2-0.1-0.3-0.1-0.5
			c0-0.1-0.1-0.3-0.1-0.4c-0.1-0.5-0.2-0.9-0.3-1.4v-0.1c-0.1-0.5-0.3-1-0.4-1.5c-0.1-0.3-0.2-0.6-0.3-1c-0.1-0.3-0.2-0.6-0.3-1
			c-0.3-0.9-0.7-1.9-1.1-2.8c-0.1-0.3-0.3-0.6-0.4-0.9c-0.3-0.6-0.6-1.2-0.8-1.8c-0.3-0.6-0.6-1.2-0.9-1.7c-0.2-0.3-0.3-0.6-0.5-0.9
			c-0.2-0.4-0.5-0.8-0.8-1.2c-0.3-0.4-0.5-0.8-0.8-1.2c-0.2-0.3-0.4-0.7-0.7-1c-0.3-0.4-0.6-0.9-1-1.3c0,0,0,0-0.1-0.1
			c-0.2-0.3-0.4-0.5-0.6-0.8c-0.3-0.4-0.6-0.7-0.9-1.1c-0.3-0.4-0.7-0.7-1-1.1c-0.2-0.2-0.4-0.5-0.7-0.7c-0.2-0.2-0.5-0.5-0.7-0.7
			c0,0,0,0-0.1-0.1c-0.4-0.3-0.8-0.7-1.1-1c-0.4-0.3-0.7-0.6-1.1-1l-0.1-0.1c-0.2-0.2-0.4-0.3-0.6-0.5c-0.6-0.5-1.2-1-1.9-1.4
			c-0.3-0.2-0.6-0.5-1-0.7c-0.3-0.2-0.6-0.4-1-0.6c-0.3-0.2-0.5-0.3-0.8-0.5c-0.6-0.3-1.1-0.7-1.7-1l0,0c-0.6-0.3-1.1-0.6-1.7-0.9
			c-0.3-0.1-0.6-0.3-0.8-0.4c-0.5-0.2-1-0.5-1.6-0.7c-0.3-0.1-0.6-0.2-0.9-0.3c-0.5-0.2-1-0.4-1.5-0.5c-0.6-0.2-1.2-0.4-1.8-0.6
			c-0.5-0.1-0.9-0.3-1.4-0.4c-0.1,0-0.3-0.1-0.4-0.1c-0.4-0.1-0.9-0.2-1.4-0.3h-0.1h-0.1c-0.2,0-0.4-0.1-0.6-0.1h-0.1
			c-0.4-0.1-0.7-0.1-1.1-0.2c-0.1,0-0.2,0-0.2,0l0,0c-0.2,0-0.4-0.1-0.6-0.1h-0.1h-0.1c-0.3,0-0.5-0.1-0.8-0.1h-0.1
			c-0.1,0-0.3,0-0.5,0c-0.1,0-0.3,0-0.4-0.1c-0.3,0-0.7-0.1-1-0.1h-0.1l0,0l0,0c-0.3,0-0.6,0-1-0.1c0.2,0,0.4,0,0.6,0
			c22.4-1.6,40-20.3,40-43.1c0-23.9-19.3-43.2-43.2-43.2c-11,0-21,4.1-28.6,10.8c-0.1,0.1-0.2,0.2-0.3,0.3c7-7.7,11.2-17.9,11.2-29
			c0-23.8-19.3-43.2-43.2-43.2c-23.8,0-43.2,19.3-43.2,43.2c0-0.4,0-0.7,0-1.1c-0.6-23.3-19.7-42.1-43.2-42.1
			c-23.9,0-43.2,19.3-43.2,43.2c0,11.2,4.2,21.4,11.2,29c-0.1-0.1-0.3-0.3-0.4-0.4c-7.6-6.7-17.5-10.7-28.4-10.7
			c-23.9,0-43.2,19.3-43.2,43.2c0,22.8,17.6,41.5,40,43.1c0.3,0,0.5,0,0.8,0c-22.7,1.2-40.8,20.1-40.8,43.1
			c0,23.8,19.3,43.2,43.2,43.2c10.6,0,20.3-3.8,27.8-10.1c0.3-0.2,0.5-0.4,0.8-0.7c0.6-0.5,1.1-1,1.6-1.5
			c-7.8,7.8-12.6,18.6-12.6,30.4c0,23.8,19.3,43.2,43.2,43.2c23.4,0,42.5-18.6,43.2-41.8"/>
		<path class="st3" d="M-467.7,760.8c-0.5,0.6-1.1,1.2-1.6,1.7c-0.1,0.1-0.2,0.2-0.3,0.3c-0.5,0.5-1.1,1-1.6,1.5
			c0.5-0.6,1.1-1.2,1.6-1.7C-469,762-468.4,761.3-467.7,760.8z"/>
		<path class="st3" d="M-404.8,679.8c-2.3,2.3-3.7,5.5-3.7,9h-90c-0.4,0-0.9,0-1.3,0s-0.9,0-1.3,0h-1.8c-22.4-1.6-40-20.3-40-43.1
			c0-23.9,19.3-43.2,43.2-43.2c10.9,0,20.8,4,28.4,10.7l1.2,1.2c0.5,0.5,1,1,1.5,1.5l1.5,1.5L-404.8,679.8z"/>
		<path class="st3" d="M-498.5,688.8h1.8c-0.3,0-0.5,0-0.8,0c-0.8,0-1.6,0.1-2.4,0.1s-1.6,0-2.4-0.1c-0.3,0-0.5,0-0.8,0h1.8
			c0.5,0,0.9,0,1.3,0S-499,688.8-498.5,688.8z"/>
		<path class="st3" d="M-467.4,617.3l-1.5-1.5l-1.5-1.5l-1.2-1.2c0.2,0.1,0.3,0.3,0.4,0.4c1.1,1,2.1,2,3.1,3.1l0,0
			C-467.7,616.9-467.5,617.1-467.4,617.3z"/>
		<path class="st3" d="M-248.6,645.7c0,22.8-17.6,41.5-40,43.1h-1.6c-0.5,0-0.9,0-1.3,0s-0.8,0-1.2,0H-383c0-3.5-1.4-6.7-3.7-9
			l62.7-62.7l1-1c0.7-0.7,1.4-1.3,2-2l0.7-0.7c7.6-6.7,17.6-10.8,28.6-10.8C-268,602.5-248.6,621.8-248.6,645.7z"/>
		<path class="st3" d="M-320.7,613.6c0.1-0.1,0.2-0.2,0.3-0.3l-0.7,0.7c-0.6,0.7-1.3,1.4-2,2l-1,1c0.1-0.2,0.2-0.3,0.4-0.4
			C-322.8,615.6-321.8,614.5-320.7,613.6L-320.7,613.6z"/>
		<path class="st3" d="M-288.7,688.8c-0.2,0-0.4,0-0.6,0h-0.1c-0.8,0.1-1.6,0.1-2.4,0.1s-1.5,0-2.2-0.1h-0.1c-0.3,0-0.6,0-0.9-0.1
			h2.1c0.4,0,0.8,0,1.2,0c0.5,0,0.9,0,1.3,0L-288.7,688.8L-288.7,688.8z"/>
		<path class="st3" d="M-404.8,697.8l-62,62l-2.8,2.9l-2.4,2.4c-7.5,6.3-17.2,10.1-27.8,10.1c-23.9,0-43.2-19.3-43.2-43.2
			c0-23.1,18.1-41.9,40.8-43.1c0.8,0,1.6,0.1,2.4,0.1s1.6,0,2.4-0.1c0.3,0,0.5,0,0.8,0h88.1C-408.6,692.3-407.1,695.5-404.8,697.8z"
			/>
		<path class="st3" d="M-497.5,688.8c-0.8,0-1.6,0.1-2.4,0.1s-1.6,0-2.4-0.1c0.3,0,0.7,0,1,0c0.5,0,0.9,0,1.3,0s0.9,0,1.3,0
			C-498.2,688.8-497.8,688.8-497.5,688.8z"/>
		<path class="st3" d="M-466.8,759.7c-0.3,0.3-0.6,0.7-0.9,1c-0.5,0.6-1.1,1.2-1.6,1.7c-0.1,0.1-0.2,0.2-0.3,0.3
			c-0.5,0.5-1.1,1-1.6,1.5c-0.2,0.2-0.5,0.5-0.8,0.7l2.4-2.4L-466.8,759.7z"/>
		<path class="st3" d="M-248.4,729.9c0-0.7-0.1-1.4-0.2-2.1v-0.1c0-0.3-0.1-0.6-0.1-1c-0.1-0.9-0.2-1.8-0.4-2.7
			c-0.1-0.3-0.1-0.6-0.2-0.9c-0.2-1.1-0.5-2.2-0.8-3.2s-0.6-2.1-1-3.1c-0.2-0.6-0.5-1.2-0.7-1.8c-0.2-0.4-0.3-0.8-0.5-1.2
			s-0.3-0.8-0.5-1.2c-0.1-0.2-0.2-0.5-0.4-0.7c-0.1-0.3-0.3-0.5-0.4-0.8c-0.1-0.1-0.1-0.2-0.2-0.3c-0.2-0.4-0.5-0.9-0.7-1.3
			c-0.3-0.5-0.6-0.9-0.9-1.4c-0.3-0.5-0.6-0.9-0.9-1.3l0,0c-0.3-0.4-0.6-0.9-1-1.3c-0.3-0.4-0.7-0.8-1-1.2s-0.6-0.8-1-1.1
			c-0.1-0.1-0.1-0.2-0.2-0.2c-0.3-0.3-0.6-0.7-0.9-1c0,0,0-0.1-0.1-0.1c-0.4-0.4-0.7-0.7-1.1-1.1c-0.3-0.3-0.7-0.6-1-0.9
			c-0.5-0.4-0.9-0.8-1.4-1.2c-0.4-0.3-0.8-0.7-1.2-1c-0.5-0.4-1-0.8-1.5-1.1c-0.3-0.2-0.7-0.5-1-0.7s-0.6-0.4-0.9-0.6
			c-0.3-0.2-0.7-0.4-1-0.6c-0.6-0.4-1.2-0.7-1.8-1c-0.2-0.1-0.5-0.3-0.8-0.4c-0.4-0.2-0.8-0.4-1.3-0.6c-0.5-0.2-1-0.4-1.5-0.7
			c-0.4-0.2-0.8-0.3-1.2-0.5c-0.3-0.1-0.7-0.3-1-0.4c-0.1,0-0.3-0.1-0.4-0.1c-0.3-0.1-0.6-0.2-0.8-0.3c-0.2-0.1-0.5-0.2-0.7-0.2
			c-0.2-0.1-0.5-0.1-0.7-0.2c-0.3-0.1-0.6-0.2-0.9-0.2c-0.2-0.1-0.4-0.1-0.6-0.2c-0.3-0.1-0.6-0.2-1-0.2c-0.7-0.2-1.4-0.3-2.1-0.4
			c-0.3,0-0.6-0.1-0.9-0.1h-0.1h-0.1c-0.3,0-0.5-0.1-0.8-0.1h-0.1c-0.2,0-0.3,0-0.5,0s-0.3,0-0.5-0.1l0,0c-0.2,0-0.4,0-0.5,0
			s-0.3,0-0.4,0h-0.1c-0.3,0-0.6,0-1-0.1h-0.1c-0.8,0.1-1.6,0.1-2.4,0.1s-1.5,0-2.2-0.1h-0.1c-0.1,0-0.2,0-0.3,0c0.1,0,0.1,0,0.2,0
			c-0.3,0-0.5,0-0.8-0.1h-88.2c0,3.5-1.4,6.7-3.7,9l61.6,61.6l1.6,1.6c0.3,0.3,0.7,0.6,1,0.9l0.6,0.6c0.1,0.1,0.2,0.2,0.3,0.3
			c0,0,0.1,0.1,0.2,0.2c0.1,0.1,0.1,0.1,0.2,0.2c0.4,0.4,0.8,0.8,1.2,1.1c0.1,0.1,0.2,0.2,0.3,0.3c0.3,0.3,0.7,0.6,1.1,0.9
			c0,0,0,0,0.1,0.1c0.5,0.4,0.9,0.7,1.4,1c0.5,0.4,0.9,0.7,1.4,1c0.3,0.2,0.5,0.4,0.8,0.5c0.3,0.2,0.6,0.4,0.9,0.5
			c0.3,0.2,0.5,0.3,0.8,0.5l0,0c0.2,0.1,0.3,0.2,0.4,0.3c0.3,0.2,0.5,0.3,0.8,0.5c0.8,0.4,1.6,0.8,2.4,1.2c0.3,0.2,0.6,0.3,0.9,0.4
			c0.3,0.1,0.6,0.3,0.9,0.4c1.1,0.5,2.3,0.9,3.5,1.2c0.3,0.1,0.7,0.2,1,0.3c0.7,0.2,1.4,0.4,2.1,0.5c0.3,0.1,0.7,0.2,1,0.2
			c0.3,0.1,0.6,0.1,0.9,0.2c0.3,0,0.6,0.1,0.8,0.2c0.5,0.1,1,0.1,1.5,0.2c0.3,0,0.6,0.1,0.8,0.1c0.2,0,0.4,0,0.6,0.1
			c0.3,0,0.5,0,0.8,0.1c0.7,0,1.3,0.1,2,0.1c0.4,0,0.8,0,1.3,0c0.4,0,0.8,0,1.2,0c0.7,0,1.4-0.1,2.1-0.1c0.2,0,0.3,0,0.5,0
			c0.5,0,1-0.1,1.5-0.2c0.1,0,0.1,0,0.2,0c0.3,0,0.7-0.1,1-0.1c0.7-0.1,1.4-0.2,2.1-0.4c0.4-0.1,0.7-0.2,1.1-0.2
			c0.4-0.1,0.9-0.2,1.3-0.3c0.1,0,0.3-0.1,0.4-0.1c0.4-0.1,0.8-0.2,1.2-0.4c0.4-0.1,0.8-0.2,1.1-0.4c0.2-0.1,0.3-0.1,0.5-0.2
			c0.4-0.1,0.8-0.3,1.2-0.5c0.3-0.1,0.6-0.2,1-0.4c0.3-0.1,0.6-0.3,1-0.4c0.3-0.1,0.5-0.2,0.8-0.4s0.7-0.3,1.1-0.5
			c0.3-0.1,0.6-0.3,0.9-0.5c0.3-0.1,0.5-0.3,0.8-0.4c0.3-0.2,0.7-0.4,1-0.6c0.3-0.2,0.6-0.4,0.9-0.5c0.3-0.2,0.6-0.4,0.9-0.6
			c0.3-0.2,0.6-0.4,0.8-0.6c0.6-0.4,1.1-0.8,1.7-1.2c0.3-0.2,0.5-0.4,0.8-0.6c0.3-0.2,0.5-0.4,0.8-0.6c0.3-0.2,0.5-0.4,0.8-0.7
			c0.2-0.2,0.5-0.4,0.8-0.7c0.2-0.2,0.5-0.5,0.7-0.7c1-1,1.9-2,2.8-3l0,0c0.2-0.2,0.4-0.5,0.6-0.7c0.3-0.4,0.7-0.8,1-1.3
			c0.3-0.4,0.6-0.9,0.9-1.3c0.4-0.5,0.7-1,1.1-1.6c0.3-0.5,0.7-1.1,1-1.7c0.1-0.2,0.3-0.5,0.4-0.7c0.2-0.3,0.4-0.7,0.5-1
			c0.2-0.4,0.4-0.8,0.6-1.2c0.1-0.3,0.3-0.6,0.4-0.8c0.1-0.2,0.2-0.5,0.3-0.7c0-0.1,0.1-0.2,0.1-0.2c0.1-0.2,0.2-0.5,0.3-0.8l0,0
			c0-0.1,0.1-0.2,0.1-0.3s0.1-0.3,0.2-0.5c0.1-0.1,0.1-0.3,0.2-0.5c0.1-0.3,0.2-0.5,0.3-0.8c0.1-0.2,0.2-0.5,0.2-0.8
			c0.1-0.4,0.2-0.8,0.3-1.1c0-0.1,0-0.1,0-0.1c0.1-0.3,0.2-0.7,0.3-1v-0.1l0,0c0.2-0.6,0.3-1.2,0.4-1.8v-0.1c0-0.2,0.1-0.4,0.1-0.5
			c0-0.2,0.1-0.4,0.1-0.6c0-0.3,0.1-0.6,0.2-1l0,0c0-0.3,0.1-0.7,0.1-1l0,0c0-0.1,0-0.2,0-0.3s0-0.2,0-0.4c0-0.1,0-0.2,0-0.3
			s0-0.2,0-0.3c0-0.6,0.1-1.1,0.1-1.7c0,0,0-0.1,0-0.2c0-0.1,0-0.3,0-0.4c0-0.2,0-0.5,0-0.7c0-0.3,0-0.7,0-1
			C-248.3,731.3-248.4,730.6-248.4,729.9z M-299,689.4c0.2,0,0.5-0.1,0.8-0.1c0.3-0.1,0.7-0.1,1-0.1
			C-297.8,689.2-298.4,689.3-299,689.4z M-296.2,689c-0.2,0-0.5,0-0.7,0.1C-296.7,689.1-296.4,689-296.2,689c0.1,0,0.2,0,0.4,0
			C-295.9,689-296.1,689-296.2,689z M-295.1,688.9c0.1,0,0.3,0,0.5,0c0.1,0,0.2,0,0.2,0C-294.7,688.9-294.9,688.9-295.1,688.9z"/>
		<path class="st3" d="M-297.2,689.1c-0.6,0.1-1.2,0.2-1.8,0.3c0.2,0,0.5-0.1,0.8-0.1C-297.9,689.2-297.6,689.2-297.2,689.1z"/>
		<path class="st3" d="M-294.4,688.9c-0.2,0-0.5,0-0.7,0c0.1,0,0.3,0,0.5,0C-294.6,688.9-294.5,688.9-294.4,688.9z"/>
		<path class="st3" d="M-294.1,688.8c-0.1,0-0.2,0-0.3,0C-294.3,688.8-294.2,688.8-294.1,688.8L-294.1,688.8z"/>
		<path class="st3" d="M-289.4,688.8c-0.8,0.1-1.6,0.1-2.4,0.1s-1.5,0-2.2-0.1c0.4,0,0.7,0,1.1-0.1h0.1c0.4,0,0.8,0,1.2,0
			c0.5,0,0.9,0,1.3,0h0.1C-289.9,688.8-289.7,688.8-289.4,688.8z"/>
		<path class="st3" d="M-252.4,750.3c0.1-0.3,0.3-0.6,0.4-0.8c-6.7,15.2-21.9,25.9-39.6,25.9c-10.4,0-19.9-3.7-27.3-9.7
			c-0.2-0.2-0.4-0.3-0.6-0.5c-1.8-1.5-3.5-3.2-5-5c-0.2-0.2-0.4-0.5-0.6-0.8l1.6,1.6c0.3,0.3,0.7,0.6,1,0.9l0.6,0.6
			c0.1,0.1,0.2,0.2,0.3,0.3c0,0,0.1,0.1,0.2,0.2c0.1,0.1,0.1,0.1,0.2,0.2c0.4,0.4,0.8,0.8,1.2,1.1c0.1,0.1,0.2,0.2,0.3,0.3
			c0.3,0.3,0.7,0.6,1.1,0.9c0,0,0,0,0.1,0.1c0.5,0.4,0.9,0.7,1.4,1c0.5,0.4,0.9,0.7,1.4,1c0.3,0.2,0.5,0.4,0.8,0.5
			c0.3,0.2,0.6,0.4,0.9,0.5c0.3,0.2,0.5,0.3,0.8,0.5l0,0c0.2,0.1,0.3,0.2,0.4,0.3c0.3,0.2,0.5,0.3,0.8,0.5c0.8,0.4,1.6,0.8,2.4,1.2
			c0.3,0.2,0.6,0.3,0.9,0.4c0.3,0.1,0.6,0.3,0.9,0.4c1.1,0.5,2.3,0.9,3.5,1.2c0.3,0.1,0.7,0.2,1,0.3c0.7,0.2,1.4,0.4,2.1,0.5
			c0.3,0.1,0.7,0.2,1,0.2c0.3,0.1,0.6,0.1,0.9,0.2c0.3,0,0.6,0.1,0.8,0.2c0.5,0.1,1,0.1,1.5,0.2c0.3,0,0.6,0.1,0.8,0.1
			c0.2,0,0.4,0,0.6,0.1c0.3,0,0.5,0,0.8,0.1c0.7,0,1.3,0.1,2,0.1c0.4,0,0.8,0,1.3,0c0.4,0,0.8,0,1.2,0c0.7,0,1.4-0.1,2.1-0.1
			c0.2,0,0.3,0,0.5,0c0.5,0,1-0.1,1.5-0.2c0.1,0,0.1,0,0.2,0c0.3,0,0.7-0.1,1-0.1c0.7-0.1,1.4-0.2,2.1-0.4c0.4-0.1,0.7-0.2,1.1-0.2
			c0.4-0.1,0.9-0.2,1.3-0.3c0.1,0,0.3-0.1,0.4-0.1c0.4-0.1,0.8-0.2,1.2-0.4c0.4-0.1,0.8-0.2,1.1-0.4c0.2-0.1,0.3-0.1,0.5-0.2
			c0.4-0.1,0.8-0.3,1.2-0.5c0.3-0.1,0.6-0.2,1-0.4c0.3-0.1,0.6-0.3,1-0.4c0.3-0.1,0.5-0.2,0.8-0.4s0.7-0.3,1.1-0.5
			c0.3-0.1,0.6-0.3,0.9-0.5c0.3-0.1,0.5-0.3,0.8-0.4c0.3-0.2,0.7-0.4,1-0.6c0.3-0.2,0.6-0.4,0.9-0.5c0.3-0.2,0.6-0.4,0.9-0.6
			c0.3-0.2,0.6-0.4,0.8-0.6c0.6-0.4,1.1-0.8,1.7-1.2c0.3-0.2,0.5-0.4,0.8-0.6c0.3-0.2,0.5-0.4,0.8-0.6c0.3-0.2,0.5-0.4,0.8-0.7
			c0.2-0.2,0.5-0.4,0.8-0.7c0.2-0.2,0.5-0.5,0.7-0.7c1-1,1.9-2,2.8-3l0,0c0.2-0.2,0.4-0.5,0.6-0.7c0.3-0.4,0.7-0.8,1-1.3
			c0.3-0.4,0.6-0.9,0.9-1.3c0.4-0.5,0.7-1,1.1-1.6c0.3-0.5,0.7-1.1,1-1.7c0.1-0.2,0.3-0.5,0.4-0.7c0.2-0.3,0.4-0.7,0.5-1
			C-252.8,751.1-252.6,750.7-252.4,750.3z"/>
	</g>
</g>
<path class="st3" d="M-867,735.5V131c0,0,4-54.4-47,0.2s-93.4,98.4-93.4,98.4"/>
<rect x="-970" y="2271.2" class="st6" width="270.9" height="270.9"/>
<rect x="-1241.6" y="2271.2" class="st7" width="270.9" height="270.9"/>
<rect x="-699.1" y="2271.2" class="st2" width="270.9" height="270.9"/>
<rect x="-433.3" y="2268.6" class="st8" width="270.9" height="270.9"/>
<path class="st3" d="M1522,593.9l-32.4,8.1c-9.6,2.4-19.4-3.5-21.8-13.1l-7.7-30.7c-2.4-9.6,3.5-19.4,13.1-21.8l32.4-8.1
	c9.6-2.4,19.4,3.5,21.8,13.1l7.7,30.7C1537.5,581.7,1531.7,591.5,1522,593.9z"/>
<rect x="-1268.8" y="353.3" class="st3" width="9" height="415.9"/>
<line class="st3" x1="-1504.4" y1="428.6" x2="-1268.8" y2="358.7"/>
<line class="st3" x1="-1005.5" y1="428.7" x2="-1259.9" y2="358.7"/>
<line class="st3" x1="-1133.1" y1="433.8" x2="-1259.9" y2="358.7"/>
<line class="st3" x1="-1395.1" y1="433.8" x2="-1268.8" y2="358.7"/>
<line class="st3" x1="-1489.5" y1="424.1" x2="-1021.7" y2="424.1"/>
<line class="st3" x1="-1268.9" y1="358.7" x2="-1259.9" y2="358.7"/>
<path class="st2" d="M344.3,258.6c0,0,0,0.1,0,0.3l0,0c-1,11.2-26.6,298.5-35,361.1c-8.1,59.9-51.1,61.7-51.1,61.7
	s-101,8.7-132.8-4.4c-31.8-13.1-38.7-59.9-38.7-59.9L47.3,259v-0.4"/>
<path class="st3" d="M70,775L70,775C70,775.1,70,775.1,70,775c0,6.2,55.9,11.1,124.9,11.1c19.6,0,38.2-0.4,54.7-1.1"/>
<path class="st3" d="M266.3,784.2c32.3-2,53.4-5.3,53.4-9v-0.1l0,0"/>
<path class="st3" d="M326.2,693.5L326.2,693.5c0,0.2,0,0.3,0,0.4l0,0c-1.8,5.9-59.9,10.7-131.3,10.7c-5.5,0-10.8,0-16.1-0.1"/>
<path class="st3" d="M141.2,703.7c-45-1.7-76.6-5.4-77.7-9.8l0,0c0-0.1,0-0.1,0-0.2v-0.1l0,0"/>
<path class="st3" d="M172.8,208.3c7.2,0.1,14.6,0.1,22,0.1c91.8,0,166.7-7.1,171.1-15.9c0.1-0.3,0.2-0.5,0.2-0.8
	c0-9.3-76.7-16.8-171.3-16.8c-53.5,0-101.2,2.4-132.6,6.1c-24.2,2.9-38.6,6.6-38.6,10.6c0,4.6,19.3,8.8,50.5,11.9
	c18.5,1.8,41.3,3.2,66.6,4"/>
<ellipse class="st5" cx="195.8" cy="258.6" rx="148.5" ry="16.8"/>
<circle class="st3" cx="25.7" cy="110.9" r="18.8"/>
<line class="st3" x1="34" y1="127.5" x2="224.2" y2="488.6"/>
<path class="st3" d="M187.7,613.2l-36.9,21.3c-8.6,4.9-19.6,2-24.6-6.6l-20.3-35.2c-4.9-8.6-2-19.6,6.6-24.6l36.9-21.3
	c8.6-4.9,19.6-2,24.6,6.6l20.3,35.2C199.3,597.2,196.3,608.3,187.7,613.2z"/>
<path class="st3" d="M193.3,532.9l-42.5,3.2c-9.9,0.7-18.6-6.7-19.3-16.6l-3-40.5c-0.7-9.9,6.7-18.6,16.6-19.3l42.5-3.2
	c9.9-0.7,18.6,6.7,19.3,16.6l3,40.5C210.7,523.5,203.2,532.2,193.3,532.9z"/>
<path class="st3" d="M279.5,515.2l-42.5-3.5c-9.9-0.8-17.3-9.5-16.5-19.4l3.3-40.5c0.8-9.9,9.5-17.3,19.4-16.5l42.5,3.5
	c9.9,0.8,17.3,9.5,16.5,19.4l-3.3,40.5C298.1,508.6,289.4,516,279.5,515.2z"/>
<path class="st3" d="M271.8,413.9l-20.4-1.7c-9.9-0.8-17.3-9.5-16.5-19.4l1.6-19c0.8-9.9,9.5-17.3,19.4-16.5l20.4,1.7
	c9.9,0.8,17.3,9.5,16.5,19.4l-1.6,19C290.4,407.3,281.7,414.7,271.8,413.9z"/>
<path class="st3" d="M215.7,385.1l-19.8,5c-9.6,2.4-19.4-3.5-21.8-13.1l-4.6-18.5c-2.4-9.6,3.5-19.4,13.1-21.8l19.8-5
	c9.6-2.4,19.4,3.5,21.8,13.1l4.6,18.5C231.2,372.9,225.3,382.7,215.7,385.1z"/>
<path class="st3" d="M117.1,341.2l-20.4-1.1c-9.9-0.5-17.5-9-17-18.9l1-19c0.5-9.9,9-17.5,18.9-17l20.4,1.1c9.9,0.5,17.5,9,17,18.9
	l-1,19C135.5,334.1,127,341.7,117.1,341.2z"/>
<path class="st3" d="M196.2,455.2L166,485.3c-7,7-18.5,7-25.5,0l-28.7-28.7c-7-7-7-18.5,0-25.5L142,401c7-7,18.5-7,25.5,0l28.7,28.7
	C203.2,436.8,203.2,448.2,196.2,455.2z"/>
<line class="st3" x1="49.1" y1="513.4" x2="48.4" y2="503.7"/>
<polyline class="st3" points="52.3,553.5 63.5,693.5 63.5,693.5 63.5,693.8 63.5,693.8 70,775 70,775 "/>
<line class="st3" x1="45.4" y1="466.2" x2="23.5" y2="191.5"/>
<polyline class="st3" points="366,191.4 365.9,192.5 361.5,248.8 "/>
<polyline class="st3" points="319.7,775.3 319.8,775 319.8,775 326.2,693.9 326.2,693.9 326.2,693.5 353.3,352.7 "/>
<line class="st3" x1="358" y1="293.3" x2="357.2" y2="302.4"/>
<g>
	
		<rect x="91.7" y="191.2" transform="matrix(0.2268 -0.9739 0.9739 0.2268 30.8594 429.7345)" class="st3" width="388.7" height="8.4"/>
	<line class="st3" x1="95.7" y1="23.8" x2="325" y2="10.1"/>
	<line class="st3" x1="549.8" y1="129.6" x2="333.1" y2="12"/>
	<line class="st3" x1="432.6" y1="107.2" x2="333.1" y2="12"/>
	<line class="st3" x1="194.1" y1="51.7" x2="325" y2="10.1"/>
	<line class="st3" x1="110.3" y1="22.9" x2="535.9" y2="122"/>
	<line class="st3" x1="324.9" y1="10.1" x2="333.1" y2="12"/>
</g>
<path class="st3" d="M1429.8,380c-3.1,0.5-6.1,1-9,1.6"/>
<path class="st3" d="M1470,375c19.5-1.7,40.6-2.6,62.7-2.6c53.5,0,101.4,5.5,133.4,14.1c25.1,6.8,40.5,15.5,41.1,25
	c0,0.2,0,0.4,0,0.7c0,0.7-0.1,1.4-0.2,2.1l0,0c-3.1,13.5-35.5,25.2-82.9,31.8c-26.6,3.8-57.9,5.9-91.5,5.9
	c-93.1,0-169.1-16.6-174.3-37.6l0,0c-0.2-0.8-0.3-1.5-0.3-2.3c0-7.9,10-15.2,27.3-21.4"/>
<ellipse class="st5" cx="1535.4" cy="489.4" rx="146.8" ry="29.7"/>
<path class="st3" d="M1679.7,762.4L1679.7,762.4c0.1,0.5,0.1,0.9,0.1,1.4c0,18.5-65.9,33.6-147.1,33.6s-147.1-15-147.1-33.6
	c0,0,0,0,0-0.1"/>
<line class="st3" x1="1358.1" y1="412.2" x2="1385.6" y2="764"/>
<line class="st3" x1="1684.5" y1="701.2" x2="1679.5" y2="764.4"/>
<polyline class="st3" points="1707.2,411.5 1707,414.3 1707,414.3 1692.4,600.2 1686.9,669.9 1686.9,669.9 "/>
<line class="st3" x1="1470.3" y1="794.1" x2="1466.6" y2="736.3"/>
<path class="st3" d="M1464.6,703.8l-1.7-26.5l-4.7-73.6c-14.3-15.1-28.5-20.7-41.1-21.3c-23.4-1.1-41.3,14.8-44.4,17.8
	c-0.3,0.3-0.5,0.5-0.5,0.5"/>
<path class="st3" d="M1692.4,600.2c0,0-50.3-40.7-88.4,5.5l-12.1,188.4"/>
<path class="st3" d="M1458.2,603.7c0,0,80.9-52.3,145.7,2"/>
<g>
	<circle class="st3" cx="1699.1" cy="340.4" r="31.9"/>
	<line class="st3" x1="1738" y1="284.3" x2="1596.7" y2="485.1"/>
</g>
<path class="st2" d="M1676.3,1011.3c0,0-0.3,1.1-0.7,3c-5.8,23.1-15.1,236.9-44,262.1c-19.8,17.3-90,22.1-134.5,20.8
	c-14.7-0.4-45.3-8.6-55.6-12.9c-22-9.1-29.7-26.2-35.1-42.9c-2.7-8.1-5.4-21.8-6.1-30.3l-15.9-192.2c-0.2-2.6-0.7-5.1-1.5-7.6l0,0
	H1676.3z"/>
<path class="st3" d="M1496.6,1133.6l-51.7,12.9c-9.6,2.4-19.4-3.5-21.8-13.1l-12.4-49.5c-2.4-9.6,3.5-19.4,13.1-21.8l51.7-12.9
	c9.6-2.4,19.4,3.5,21.8,13.1l12.4,49.5C1512.1,1121.4,1506.2,1131.2,1496.6,1133.6z"/>
<path class="st3" d="M1520.8,1233.6l-51.4-14.1c-9.5-2.6-15.2-12.6-12.6-22.1l13.5-49.2c2.6-9.5,12.6-15.2,22.1-12.6l51.4,14.1
	c9.5,2.6,15.2,12.6,12.6,22.1l-13.5,49.2C1540.3,1230.6,1530.4,1236.3,1520.8,1233.6z"/>
<path class="st3" d="M1620.8,1180.1h-53.3c-9.9,0-18-8.1-18-18v-51c0-9.9,8.1-18,18-18h53.3c9.9,0,18,8.1,18,18v51
	C1638.8,1172,1630.7,1180.1,1620.8,1180.1z"/>
<path class="st3" d="M1429.7,901c-2.9,0.5-5.8,0.9-8.5,1.4"/>
<path class="st3" d="M1378.8,912.9c-16.8,6.1-26.6,13.4-26.6,21.1c0,0.8,0.1,1.5,0.3,2.2l0,0c5.2,20.9,81.2,37.6,174.3,37.6
	c33.6,0,64.9-2.2,91.5-5.9c11.4-1.6,21.9-3.5,31.3-5.6"/>
<path class="st3" d="M1672,956.2c17-5.8,27.5-12.6,29.2-20c0.2-0.7,0.2-1.4,0.2-2.1c0-0.2,0-0.5,0-0.7c-0.7-9.5-16-18.2-41.1-25
	c-32-8.7-79.9-14.1-133.4-14.1c-21.5,0-42,0.9-61,2.5"/>
<ellipse class="st5" cx="1529.6" cy="1011.3" rx="146.8" ry="29.7"/>
<path class="st3" d="M1673.9,1284.3L1673.9,1284.3c0.1,0.5,0.1,0.9,0.1,1.4c0,18.5-65.9,33.6-147.1,33.6s-147.1-15-147.1-33.6
	c0,0,0,0,0-0.1"/>
<line class="st3" x1="1352.3" y1="934.1" x2="1379.8" y2="1285.9"/>
<line class="st3" x1="1680.4" y1="1201.3" x2="1679.8" y2="1208.8"/>
<line class="st3" x1="1675.4" y1="1264.1" x2="1673.7" y2="1286.3"/>
<polyline class="st3" points="1683.6,1160.6 1701.2,936.2 1701.4,933.4 "/>
<circle class="st3" cx="1693.3" cy="862.3" r="26.1"/>
<line class="st3" x1="1732.2" y1="806.2" x2="1518.6" y2="1109.9"/>
<path class="st2" d="M2929.5,1548.5c0,0-0.3,1.4-0.7,3.9c-5.8,30.1-15.1,308.6-44,341.4c-19.8,22.5-90,28.8-134.5,27.1
	c-14.7-0.6-45.3-11.2-55.6-16.8c-22-11.9-29.7-34.1-35.1-55.8c-2.7-10.6-5.4-28.4-6.1-39.5l-15.9-250.4c-0.2-3.4-0.7-6.7-1.5-9.9
	l0,0L2929.5,1548.5L2929.5,1548.5z"/>
<path class="st3" d="M2745.1,1670.5l-51.7,12.9c-9.6,2.4-19.4-3.5-21.8-13.1l-12.4-49.5c-2.4-9.6,3.5-19.4,13.1-21.8l51.7-12.9
	c9.6-2.4,19.4,3.5,21.8,13.1l12.4,49.5C2760.6,1658.2,2754.7,1668.1,2745.1,1670.5z"/>
<path class="st3" d="M2749.2,1868.8l-51.4-14.1c-9.5-2.6-15.2-12.6-12.6-22.1l13.5-49.2c2.6-9.5,12.6-15.2,22.1-12.6l51.4,14.1
	c9.5,2.6,15.2,12.6,12.6,22.1l-13.5,49.2C2768.7,1865.7,2758.8,1871.4,2749.2,1868.8z"/>
<path class="st3" d="M2863.4,1806h-53.3c-9.9,0-18-8.1-18-18v-51c0-9.9,8.1-18,18-18h53.3c9.9,0,18,8.1,18,18v51
	C2881.4,1797.9,2873.3,1806,2863.4,1806z"/>
<path class="st3" d="M2682.8,1404.9c-2.9,0.6-5.8,1.2-8.5,1.8"/>
<path class="st3" d="M2631.9,1420.5c-16.8,8-26.6,17.4-26.6,27.5c0,1,0.1,1.9,0.3,2.9v0.1c5.2,27.3,81.2,48.9,174.3,48.9
	c33.6,0,64.9-2.8,91.5-7.7c11.4-2.1,21.9-4.5,31.3-7.3"/>
<path class="st3" d="M2925.1,1476.9c17-7.5,27.5-16.5,29.2-26.1c0.2-0.9,0.2-1.8,0.2-2.8c0-0.3,0-0.6,0-0.9
	c-0.7-12.4-16.1-23.8-41.1-32.6c-32-11.3-79.9-18.4-133.4-18.4c-21.5,0-42,1.1-61,3.3"/>
<ellipse class="st5" cx="2782.7" cy="1542.3" rx="146.8" ry="32.4"/>
<path class="st3" d="M2927,1904.2L2927,1904.2c0.1,0.6,0.1,1.2,0.1,1.8c0,24.2-65.9,43.7-147.1,43.7c-81.2,0-147.1-19.6-147.1-43.7
	c0,0,0,0,0-0.1"/>
<line class="st3" x1="2605.5" y1="1448" x2="2632.9" y2="1906.3"/>
<line class="st3" x1="2938.4" y1="1693" x2="2937.5" y2="1702.4"/>
<line class="st3" x1="2932.9" y1="1762.5" x2="2927.1" y2="1866.5"/>
<line class="st3" x1="2954.6" y1="1448" x2="2938.4" y2="1677.1"/>
<line class="st3" x1="2953.9" y1="1443.5" x2="2953.9" y2="1443.4"/>
<path class="st5" d="M2376.7,242c0,3.3-3.7,6.4-10.4,9.3c-18.2,7.9-58.9,14-109.8,16.5c-1.4,0.1-2.9,0.1-4.4,0.2
	c-7.7,0.3-15.6,0.6-23.7,0.8c-7.1,0.2-14.3,0.2-21.7,0.2c-65.6,0-122.6-5.9-150.9-14.5c-7-2.1-12.2-4.4-15.4-6.8c0,0-0.1,0-0.1-0.1
	c-0.3-0.2-0.6-0.5-0.9-0.7c-1.2-1.1-2-2.1-2.4-3.2c-0.2-0.5-0.3-1-0.3-1.5c0-8.6,25.2-16.2,64.5-21.1c29-3.6,65.6-5.8,105.4-5.8
	c25.1,0,49,0.9,70.5,2.4c12.4,0.9,23.9,2,34.5,3.3C2351.3,225.7,2376.7,233.4,2376.7,242z"/>
<path class="st3" d="M2303.8,804.2c1.2,0.7,1.9,1.5,1.9,2.3c0,6.4-44.2,11.6-98.7,11.6s-98.7-5.2-98.7-11.6c0-0.5,0.3-1.1,0.9-1.6
	c0,0,0,0,0.1,0l0.2-0.2"/>
<line class="st3" x1="2298.4" y1="799.8" x2="2298.4" y2="799.8"/>
<path class="st3" d="M2129.2,801.8c15.2,2.4,38.4,4.2,65.1,4.6"/>
<polyline class="st3" points="2108.3,806.5 2109.2,804.9 2109.2,804.9 2109.3,804.8 2109.4,804.7 2110.1,804.2 2116.4,799 
	2119.7,796.3 2206.9,726 2214.4,732.1 "/>
<polyline class="st3" points="2256.9,766.3 2298.4,799.8 2298.4,799.8 2303.8,804.2 2305.2,805.3 2305.7,806.5 "/>
<line class="st3" x1="2232.4" y1="746.5" x2="2230.1" y2="744.7"/>
<line class="st3" x1="2205.8" y1="398.9" x2="2205.8" y2="726"/>
<g>
	<line class="st3" x1="2357.6" y1="56.3" x2="2202.6" y2="367.4"/>
	
		<ellipse transform="matrix(0.4459 -0.8951 0.8951 0.4459 973.2133 2167.6045)" class="st3" cx="2237.3" cy="297.8" rx="35.9" ry="26.5"/>
</g>
<ellipse class="st3" cx="2206" cy="193.9" rx="251.4" ry="29.6"/>
<polyline class="st3" points="1954.6,193.9 1956.9,198 1957,198 1957.6,198.5 2002,234.3 "/>
<polyline class="st3" points="2053.7,276 2205.8,398.9 2244.8,367.4 "/>
<polyline class="st3" points="2308.6,315.9 2452.6,199.7 2452.6,199.7 2456.1,196.9 2457.4,193.9 "/>
<line class="st3" x1="2274.6" y1="343.3" x2="2270.2" y2="346.9"/>
<line class="st3" x1="2025.9" y1="253.6" x2="2021.1" y2="249.7"/>
<path class="st3" d="M1924.9,748.5L1924.9,748.5c-1.6,0-3.1,0-4.7,0c-63,0-114.1-6.5-114.1-14.4c0-3.8,11.6-7.3,30.5-9.8"/>
<path class="st3" d="M1861,721.7c17.3-1.3,37.5-2.1,59.2-2.1c63,0,114.1,6.5,114.1,14.5c0,0.1,0,0.2,0,0.4c0,0.1,0,0.2-0.1,0.3
	c0,0,0,0,0,0.1s-0.1,0.2-0.1,0.3c-0.3,0.5-0.8,1-1.5,1.5c-0.2,0.1-0.3,0.2-0.5,0.4c-0.4,0.2-0.9,0.5-1.4,0.8
	c-0.2,0.1-0.4,0.2-0.6,0.3c-0.3,0.1-0.5,0.2-0.8,0.3s-0.6,0.2-0.9,0.3s-0.6,0.2-0.9,0.3c-0.1,0-0.3,0.1-0.4,0.1
	c-0.5,0.2-1.1,0.3-1.6,0.5c-0.7,0.2-1.5,0.4-2.3,0.6c-0.4,0.1-0.8,0.2-1.2,0.3c-0.4,0.1-0.8,0.2-1.2,0.3c-1.5,0.3-3,0.7-4.7,1
	c-0.7,0.1-1.4,0.3-2.1,0.4c-1,0.2-1.9,0.3-3,0.5c-0.8,0.1-1.7,0.3-2.6,0.4c-1.8,0.3-3.6,0.5-5.5,0.8c-0.4,0.1-0.9,0.1-1.4,0.2
	c-4.1,0.5-8.4,1-13,1.4c-0.7,0.1-1.4,0.1-2.1,0.2c-4.5,0.4-9.3,0.8-14.3,1.1c-1.6,0.1-3.2,0.2-4.8,0.3c-0.3,0-0.6,0-0.9,0.1
	c-1.1,0.1-2.3,0.1-3.4,0.2c-2.3,0.1-4.6,0.2-7,0.3"/>
<path class="st3" d="M1965.6,1275.2c-1.3-0.1-2.7-0.2-4.1-0.2"/>
<path class="st3" d="M1991.6,1277.2c26,2.7,42.7,6.7,42.7,11.3c0,8-51.1,14.4-114.1,14.4s-114.1-6.5-114.1-14.4
	c0-7.4,44.5-13.6,101.7-14.4"/>
<path class="st3" d="M1944,1274.3c-3.6-0.1-7.2-0.2-10.9-0.2"/>
<path class="st3" d="M1835.6,975.1c-1.2-1-2.5-2.1-3.6-3.2"/>
<path class="st3" d="M1896.9,1003.7c-17.8-3.2-34.4-9.9-49-19.5l0,0"/>
<path class="st3" d="M1822.5,962.4c-21.2-23.4-34.1-54.4-34.1-88.5c0-6.6,0.5-13,1.4-19.4l16.3-120.5c0,8,51.1,14.4,114.1,14.4
	c1.6,0,3.1,0,4.7,0l0,0"/>
<path class="st3" d="M1943.9,1003.7C1944,1003.7,1944,1003.7,1943.9,1003.7c61.5-11.2,108.1-65,108.1-129.7c0-6.6-0.5-13-1.4-19.4
	l0,0l-16.3-120.5c0,0.1,0,0.2,0,0.4c0,0.1,0,0.2-0.1,0.3c0,0,0,0,0,0.1s-0.1,0.2-0.1,0.3c-0.3,0.5-0.8,1-1.5,1.5
	c-0.2,0.1-0.3,0.2-0.5,0.4c-0.4,0.2-0.9,0.5-1.4,0.8c-0.2,0.1-0.4,0.2-0.6,0.3c-0.3,0.1-0.5,0.2-0.8,0.3s-0.6,0.2-0.9,0.3
	s-0.6,0.2-0.9,0.3c-0.1,0-0.3,0.1-0.4,0.1c-0.5,0.2-1.1,0.3-1.6,0.5c-0.7,0.2-1.5,0.4-2.3,0.6c-0.4,0.1-0.8,0.2-1.2,0.3
	c-0.4,0.1-0.8,0.2-1.2,0.3c-1.5,0.3-3,0.7-4.7,1c-0.7,0.1-1.4,0.3-2.1,0.4c-1,0.2-1.9,0.3-3,0.5c-0.8,0.1-1.7,0.3-2.6,0.4
	c-1.8,0.3-3.6,0.5-5.5,0.8c-0.4,0.1-0.9,0.1-1.4,0.2c-4.1,0.5-8.4,1-13,1.4c-0.7,0.1-1.4,0.1-2.1,0.2c-4.5,0.4-9.3,0.8-14.3,1.1
	c-1.6,0.1-3.2,0.2-4.8,0.3c-0.3,0-0.6,0-0.9,0.1c-1.1,0.1-2.3,0.1-3.4,0.2c-2.3,0.1-4.6,0.2-7,0.3"/>
<path class="st3" d="M1915.2,1068.5c0-1.9,0-3.8,0-5.7"/>
<path class="st3" d="M1915.2,1092.8c-0.1,71.3-1.1,166.9-1.1,166.9s-0.1,6.1-6.3,14.4c-0.1,0.1-0.1,0.2-0.2,0.3"/>
<path class="st3" d="M1896.9,1003.7c4.2,1.7,15.1,6.6,17.2,13.2c0.5,1.6,0.8,12.4,1,28.5"/>
<path class="st3" d="M1933.3,1274.4c-6.9-8.5-6.8-14.7-6.8-14.7s-2.6-234.6,0-242.8c2.1-6.6,13.2-11.6,17.5-13.3l0,0"/>
<path class="st2" d="M2028.5,771.6c0,0,9.6,54.4,14.7,95c5.1,40.6-19.2,67.5-32.1,84.6c-12.8,17.1-38.5,35.5-62,41.9s-47.4,0-47.4,0
	s-50.4-14.1-81.6-50.9c-31.2-36.8-22.2-80.4-22.2-80.4l12.2-90.3h218.4V771.6z"/>
<ellipse class="st5" cx="1919.3" cy="771.6" rx="109.2" ry="14.4"/>
<path class="st3" d="M2655.4,478.4c-2.9-0.2-5.8-0.4-8.8-0.5"/>
<path class="st3" d="M2620.5,477.2c-0.2,0-0.5,0-0.7,0c-13.4,0-26.2,0.5-38.1,1.4c-43.7,3.3-75,12.2-75,22.6c0,0.9,0.2,1.8,0.7,2.6
	c0.1,0.2,0.2,0.4,0.3,0.6c0,0,0,0,0,0.1c0.1,0.2,0.2,0.3,0.4,0.5c0.1,0.1,0.2,0.3,0.3,0.4l0,0c0.1,0.1,0.2,0.2,0.3,0.3
	c0.1,0.1,0.2,0.2,0.3,0.3c0.2,0.2,0.4,0.4,0.6,0.5c0.1,0.1,0.3,0.2,0.4,0.4c0.1,0.1,0.3,0.2,0.4,0.4c0.2,0.1,0.3,0.2,0.5,0.4
	c0.8,0.6,1.7,1.2,2.8,1.8c0.2,0.1,0.4,0.2,0.6,0.3c1,0.5,2,1.1,3.2,1.6c0.3,0.1,0.6,0.3,0.9,0.4c0.3,0.1,0.6,0.3,1,0.4
	c0.4,0.2,0.8,0.3,1.2,0.5c1.1,0.4,2.3,0.9,3.5,1.3c0.4,0.1,0.8,0.3,1.2,0.4c0.5,0.2,1,0.3,1.5,0.5s1,0.3,1.6,0.5
	c0.2,0.1,0.4,0.1,0.6,0.2c0.4,0.1,0.9,0.2,1.3,0.4c0.4,0.1,0.9,0.2,1.4,0.4c0.4,0.1,0.8,0.2,1.2,0.3c0.9,0.2,1.7,0.4,2.6,0.6
	c0.9,0.2,1.7,0.4,2.6,0.6h0.1c0.1,0,0.2,0,0.4,0.1c0.6,0.1,1.2,0.2,1.8,0.4l0,0c0.6,0.1,1.2,0.2,1.8,0.4c0.5,0.1,1,0.2,1.5,0.3
	s1,0.2,1.5,0.3s1.1,0.2,1.6,0.3c0.4,0.1,0.7,0.1,1.1,0.2c0.6,0.1,1.3,0.2,2,0.3c4,0.7,8.2,1.3,12.6,1.8c0.7,0.1,1.5,0.2,2.2,0.3
	c0.8,0.1,1.5,0.2,2.2,0.3c0.8,0.1,1.5,0.2,2.3,0.2c0.8,0.1,1.5,0.2,2.3,0.2c0.8,0.1,1.6,0.2,2.3,0.2s1.6,0.2,2.4,0.2
	c1.5,0.1,3,0.3,4.5,0.4c2.5,0.2,5.1,0.4,7.8,0.5c0.2,0,0.5,0,0.7,0c1.1,0.1,2.3,0.1,3.5,0.2c1,0,2,0.1,3,0.2c0.1,0,0.2,0,0.3,0
	c1.7,0.1,3.4,0.1,5.2,0.2c0.5,0,1.1,0,1.7,0.1c2.6,0.1,5.3,0.2,8,0.2c1,0,1.9,0,2.9,0c2.1,0,4.1,0,6.2,0c58,0,105.9-9.3,112.4-21.2
	c0.5-0.9,0.8-1.8,0.8-2.8c0-8.7-21.9-16.3-54.6-20.5l0,0"/>
<path class="st3" d="M2699.2,1049.3c-2.7,1.6-5.4,3.1-8.2,4.6"/>
<path class="st3" d="M2511.2,727.7c-5.3,36.2-15.2,79-32.8,128.2c-8.1,18.8-12.7,39.5-12.7,61.3c0,80.4,61.5,146.4,140.1,153.5"/>
<path class="st3" d="M2515.9,685.1c3.4-49.9-1.4-81.8-0.3-94.6c1.9-21.3-6.3-74.4-8.2-86.8c0.1,0.2,0.2,0.4,0.3,0.6c0,0,0,0,0,0.1
	c0.1,0.2,0.2,0.3,0.4,0.5c0.1,0.1,0.2,0.3,0.3,0.4l0,0c0.1,0.1,0.2,0.2,0.3,0.3c0.1,0.1,0.2,0.2,0.3,0.3c0.2,0.2,0.4,0.4,0.6,0.5
	c0.1,0.1,0.3,0.2,0.4,0.4c0.1,0.1,0.3,0.2,0.4,0.4c0.2,0.1,0.3,0.2,0.5,0.4c0.8,0.6,1.7,1.2,2.8,1.8c0.2,0.1,0.4,0.2,0.6,0.3
	c1,0.5,2,1.1,3.2,1.6c0.6,0.3,1.2,0.5,1.9,0.8c0.4,0.2,0.8,0.3,1.2,0.5c1.1,0.4,2.3,0.9,3.5,1.3c0.4,0.1,0.8,0.3,1.2,0.4
	c0.5,0.2,1,0.3,1.5,0.5s1.1,0.3,1.6,0.5c0.2,0.1,0.4,0.1,0.6,0.2c0.4,0.1,0.9,0.2,1.3,0.4c0.4,0.1,0.9,0.2,1.4,0.4
	c0.4,0.1,0.8,0.2,1.2,0.3c1.7,0.4,3.5,0.9,5.3,1.3c0.7,0.2,1.4,0.3,2.2,0.5c0.6,0.1,1.2,0.2,1.8,0.4c0.5,0.1,1,0.2,1.5,0.3
	s1,0.2,1.5,0.3s1.1,0.2,1.6,0.3c0.4,0.1,0.7,0.1,1.1,0.2c0.6,0.1,1.3,0.2,2,0.3c4,0.7,8.2,1.3,12.6,1.8c0.7,0.1,1.5,0.2,2.2,0.3
	c0.8,0.1,1.5,0.2,2.2,0.3c0.8,0.1,1.5,0.2,2.3,0.2c0.8,0.1,1.5,0.2,2.3,0.2c0.8,0.1,1.6,0.2,2.3,0.2s1.6,0.2,2.4,0.2
	c1.5,0.1,3,0.3,4.5,0.4c2.5,0.2,5.1,0.4,7.8,0.5c0.2,0,0.5,0,0.7,0c1.1,0.1,2.3,0.1,3.5,0.2c1,0,2,0.1,3,0.2c0.1,0,0.2,0,0.3,0
	c1.7,0.1,3.4,0.1,5.2,0.2c0.5,0,1.1,0,1.7,0.1c2.6,0.1,5.3,0.2,8,0.2c1,0,1.9,0,2.9,0c2.1,0,4.1,0,6.2,0c58,0,105.9-9.3,112.4-21.2
	c-2,12.7-10.1,65.4-8.2,86.6c2.1,23.9-16.8,114.3,36.8,264.5c8.4,19,13,40,13,62.1c0,43.5-18.1,82.9-47.1,110.9"/>
<path class="st3" d="M2666.9,1064c-10.6,3.4-21.6,5.7-33.1,6.7"/>
<path class="st3" d="M-653,1722.1c-0.7,2-1.4,3.9-2.1,5.9"/>
<path class="st3" d="M2507.3,503.8c-0.3-1.7-0.4-2.6-0.4-2.6"/>
<path class="st3" d="M2762.8,860.4c-0.6-1.8-1.3-3.6-1.9-5.3"/>
<path class="st3" d="M2732.7,501.2c0,0-0.2,1-0.4,2.8"/>
<line class="st3" x1="2718.8" y1="1171.8" x2="2718.8" y2="1171.8"/>
<line class="st3" x1="2520.8" y1="1171.8" x2="2520.8" y2="1171.8"/>
<path class="st3" d="M2651.8,1151.4c38.3,2.9,66,10.9,67,20.4h-198c1-9.5,28.7-17.5,66.9-20.4"/>
<g>
	<path class="st3" d="M2605.8,1070.7c2.8,27.1,3,70.8-18.8,81.1"/>
	<path class="st3" d="M2652.3,1151.7c-21.7-10.3-21.3-53.9-18.5-81"/>
</g>
<g>
	<g>
		<path class="st2" d="M2525.8,572L2525.8,572c-0.1-0.5-0.2-1-0.3-1.5L2525.8,572z"/>
		<path class="st2" d="M2755.8,894.3c0,67.8-51.1,131.6-116.9,139.1c-4.1,1.5-10,2.1-16.4,1.9c-0.8,0-1.6,0.1-2.4,0.1
			c-5.7,0-11.1-0.8-15.9-2.3c-64.3-8.5-112.4-53.7-112.4-120.4c0-18.7,3.9-54.7,10.9-70.8c46.2-129.1,29-197,28.6-217.7
			c-0.2-7.5-0.8-15.7-1.6-23.6c-1.2-11.3-2.8-21.8-3.9-28.5l0,0l4.2-1.9h185.8c-0.1,0.6-0.2,1.3-0.4,2.1l0,0
			c-2.1,12-7.8,37.1-6.3,54.2c1.8,20.5-10.4,86,35.5,214.7C2751.8,857.3,2755.8,875.3,2755.8,894.3z"/>
		<path class="st2" d="M2529.6,600.5l-3.9-28.5C2526.8,578.7,2528.4,589.2,2529.6,600.5z"/>
	</g>
</g>
<path class="st5" d="M2715.8,570.1c0,0.9-0.2,1.9-0.6,2.8c-5.5,12-45.7,21.2-94.5,21.2c-49.1,0-89.5-9.4-94.6-21.4
	c-0.4-0.9-0.6-1.7-0.6-2.6c0-13.3,42.6-24,95.2-24C2673.2,546,2715.8,556.8,2715.8,570.1z"/>
<path class="st3" d="M2601.9,897.3l-45.4,11.3c-9.6,2.4-19.4-3.5-21.8-13.1l-10.8-43.4c-2.4-9.6,3.5-19.4,13.1-21.8l45.4-11.3
	c9.6-2.4,19.4,3.5,21.8,13.1l10.8,43.4C2617.4,885.1,2611.5,894.9,2601.9,897.3z"/>
<path class="st3" d="M2624.4,989.4l-45.1-12.4c-9.5-2.6-15.2-12.6-12.6-22.1l11.9-43.1c2.6-9.5,12.6-15.2,22.1-12.6l45.1,12.4
	c9.5,2.6,15.2,12.6,12.6,22.1l-11.9,43.1C2643.9,986.4,2633.9,992.1,2624.4,989.4z"/>
<path class="st3" d="M2717.1,940.1h-46.8c-9.9,0-18-8.1-18-18v-44.7c0-9.9,8.1-18,18-18h46.8c9.9,0,18,8.1,18,18v44.7
	C2735.1,932,2727,940.1,2717.1,940.1z"/>
<ellipse transform="matrix(2.499638e-02 -0.9997 0.9997 2.499638e-02 1792.0212 3370.9331)" class="st5" cx="2624.1" cy="766.8" rx="64" ry="62.3"/>
<g>
	<path class="st3" d="M2605.1,796.3c-0.1,0.1-0.2,0.3-0.3,0.4c-0.2,0.2-0.4,0.4-0.6,0.6l-0.1,0.1c-0.2,0.2-0.4,0.4-0.6,0.6
		c-0.1,0.1-0.2,0.2-0.3,0.3l0.9-0.9L2605.1,796.3z"/>
	<path class="st3" d="M2593.2,769.7h0.7c-0.1,0-0.2,0-0.3,0c-0.3,0-0.6,0-0.9,0s-0.6,0-0.9,0c-0.1,0-0.2,0-0.3,0h0.7
		c0.2,0,0.3,0,0.5,0S2593.1,769.7,2593.2,769.7z"/>
	<path class="st3" d="M2604.7,742.8c0.1,0.1,0.1,0.1,0.2,0.2l-0.5-0.5l-0.5-0.5l-0.4-0.4c0.1,0,0.1,0.1,0.2,0.1
		C2603.9,742,2604.3,742.4,2604.7,742.8L2604.7,742.8z"/>
	<path class="st3" d="M2631.6,730.8c0,0.1,0,0.3,0,0.4v-0.8C2631.6,730.5,2631.6,730.6,2631.6,730.8z"/>
	<path class="st3" d="M2636.4,769.7c0,1.3-0.5,2.5-1.4,3.4s-2,1.4-3.4,1.4s-2.5-0.5-3.4-1.4s-1.4-2-1.4-3.4c0-1.3,0.5-2.5,1.4-3.4
		s2-1.4,3.4-1.4s2.5,0.5,3.4,1.4S2636.4,768.4,2636.4,769.7z"/>
	<path class="st3" d="M2631.6,809.3v-1c0,0.1,0,0.2,0,0.2v0.1v0.2v0.1c0,0,0,0,0,0.1c0.1,8.8,7.3,16,16.2,16s16.2-7.3,16.2-16.2
		c0-4-1.5-7.7-3.9-10.5c-0.7-0.6-1.3-1.2-1.9-1.9c-0.1-0.1-0.2-0.2-0.2-0.3l0.6,0.6l1.3,1.3l0.5,0.5"/>
	<path class="st3" d="M2631.6,831.2c17,0,32.4-6.9,43.5-18"/>
	<path class="st3" d="M2658.8,742.6l-0.4,0.4c0-0.1,0.1-0.1,0.1-0.2c0.4-0.4,0.8-0.8,1.2-1.2l0,0l0.1-0.1l-0.3,0.3
		C2659.3,742,2659.1,742.3,2658.8,742.6z"/>
	<path class="st3" d="M2669,769.8h-0.1l0,0H2669z"/>
	<path class="st3" d="M2669.5,769.8c-0.1,0-0.2,0-0.3,0C2669.3,769.8,2669.4,769.8,2669.5,769.8L2669.5,769.8z"/>
	<path class="st3" d="M2671.7,769.7c-0.1,0-0.2,0-0.2,0l0,0c-0.3,0-0.6,0-0.9,0c-0.3,0-0.6,0-0.8,0l0,0c-0.1,0-0.2,0-0.3,0h0.8
		c0.1,0,0.3,0,0.5,0s0.3,0,0.5,0H2671.7z"/>
	<path class="st3" d="M2671.8,769.8L2671.8,769.8c-0.1,0-0.3,0-0.4,0C2671.6,769.7,2671.7,769.8,2671.8,769.8L2671.8,769.8z"/>
	<path class="st3" d="M2672.4,769.8c-0.1,0-0.1,0-0.2,0l0,0c-0.1,0-0.1,0-0.2,0c0.1,0,0.1,0,0.2,0
		C2672.3,769.8,2672.4,769.8,2672.4,769.8z"/>
	<path class="st3" d="M2685.8,780.3c0-0.1,0-0.1-0.1-0.2c-0.1-0.2-0.2-0.4-0.2-0.6c-0.1-0.2-0.1-0.3-0.2-0.5
		c-0.1-0.1-0.1-0.3-0.2-0.4c0-0.1-0.1-0.2-0.1-0.3s-0.1-0.2-0.2-0.3c0,0,0-0.1-0.1-0.1c-0.1-0.2-0.2-0.3-0.3-0.5s-0.2-0.3-0.3-0.5
		s-0.2-0.3-0.3-0.5l0,0c-0.1-0.2-0.2-0.3-0.4-0.5s-0.2-0.3-0.4-0.5c-0.1-0.1-0.2-0.3-0.4-0.4c0,0,0-0.1-0.1-0.1
		c-0.1-0.1-0.2-0.3-0.3-0.4l0,0c-0.1-0.1-0.3-0.3-0.4-0.4c-0.1-0.1-0.2-0.2-0.4-0.4s-0.3-0.3-0.5-0.5c-0.2-0.1-0.3-0.3-0.5-0.4
		c-0.2-0.1-0.4-0.3-0.6-0.4c-0.1-0.1-0.2-0.2-0.4-0.3c-0.1-0.1-0.2-0.1-0.3-0.2c-0.1-0.1-0.3-0.2-0.4-0.2c-0.2-0.1-0.4-0.3-0.7-0.4
		c-0.1-0.1-0.2-0.1-0.3-0.1c-0.2-0.1-0.3-0.2-0.5-0.2c-0.2-0.1-0.4-0.2-0.6-0.2c-0.1-0.1-0.3-0.1-0.5-0.2c-0.1-0.1-0.3-0.1-0.4-0.1
		c0,0-0.1,0-0.1-0.1c-0.1,0-0.2-0.1-0.3-0.1s-0.2-0.1-0.3-0.1s-0.2-0.1-0.3-0.1s-0.2-0.1-0.3-0.1s-0.1,0-0.2-0.1
		c-0.1,0-0.2-0.1-0.4-0.1c-0.3-0.1-0.5-0.1-0.8-0.2c-0.1,0-0.2,0-0.3,0c0.1,0,0.1,0,0.2,0l0,0c0.2,0,0.4,0.1,0.5,0.1s0.1,0,0.2,0
		l0,0l0,0c0.2,0,0.3,0.1,0.5,0.1c0.1,0,0.1,0,0.1,0c0.2,0,0.3,0.1,0.5,0.1c0.2,0.1,0.4,0.1,0.7,0.2c0.2,0.1,0.4,0.1,0.5,0.2
		c0.1,0,0.2,0.1,0.3,0.1c0.2,0.1,0.4,0.2,0.6,0.3c0.1,0,0.2,0.1,0.3,0.1c0.2,0.1,0.4,0.2,0.7,0.3l0,0c0.2,0.1,0.4,0.2,0.6,0.4
		c0.1,0.1,0.2,0.1,0.3,0.2c0.1,0.1,0.2,0.2,0.4,0.2c0.1,0.1,0.2,0.2,0.4,0.3c0.2,0.2,0.5,0.3,0.7,0.5c0.1,0.1,0.2,0.1,0.2,0.2l0,0
		c0.1,0.1,0.3,0.2,0.4,0.4c0.1,0.1,0.3,0.3,0.4,0.4l0,0c0.1,0.1,0.2,0.2,0.3,0.3s0.2,0.2,0.3,0.3s0.2,0.3,0.4,0.4
		c0.1,0.1,0.2,0.3,0.4,0.4c0.1,0.1,0.2,0.2,0.2,0.3l0,0c0.1,0.2,0.3,0.3,0.4,0.5c0.1,0.1,0.2,0.2,0.3,0.4s0.2,0.3,0.3,0.5
		s0.2,0.3,0.3,0.5c0.1,0.1,0.1,0.2,0.2,0.3c0.1,0.2,0.2,0.4,0.3,0.7c0.1,0.2,0.2,0.4,0.3,0.7c0.1,0.1,0.1,0.2,0.1,0.3
		c0.1,0.3,0.3,0.7,0.4,1c0,0.1,0.1,0.2,0.1,0.4s0.1,0.2,0.1,0.4c0.1,0.2,0.1,0.4,0.1,0.6l0,0c0,0.2,0.1,0.3,0.1,0.5
		c0,0.1,0,0.1,0,0.2c-0.1-0.4-0.2-0.8-0.3-1.2C2686,781.1,2685.9,780.7,2685.8,780.3z"/>
	<path class="st3" d="M2636.4,769.7c0,1.3-0.5,2.5-1.4,3.4s-2,1.4-3.4,1.4s-2.5-0.5-3.4-1.4s-1.4-2-1.4-3.4c0-1.3,0.5-2.5,1.4-3.4
		s2-1.4,3.4-1.4s2.5,0.5,3.4,1.4S2636.4,768.4,2636.4,769.7z"/>
	<line class="st3" x1="2671.1" y1="769.7" x2="2670.1" y2="769.7"/>
	<line class="st3" x1="2593.2" y1="769.7" x2="2592.2" y2="769.7"/>
	<line class="st3" x1="2604.4" y1="742.4" x2="2603.8" y2="741.9"/>
	<line class="st3" x1="2659.6" y1="741.8" x2="2658.8" y2="742.6"/>
	<path class="st3" d="M2631.6,730.3V765c-1.3,0-2.5,0.5-3.4,1.4l-23.4-23.4c-0.1-0.1-0.1-0.1-0.2-0.2l0,0c-0.4-0.4-0.8-0.8-1.2-1.2
		c-2.6-2.9-4.2-6.7-4.2-10.9c0-8.9,7.2-16.1,16.1-16.1C2624.3,714.6,2631.4,721.6,2631.6,730.3z"/>
	<path class="st3" d="M2604.7,742.8c-0.1-0.1-0.2-0.2-0.3-0.3l-0.5-0.5c-0.1-0.1-0.2-0.2-0.3-0.3
		C2603.9,742,2604.3,742.4,2604.7,742.8z"/>
	<path class="st3" d="M2631.6,730.8c0,0.1,0,0.3,0,0.4v-0.8C2631.6,730.5,2631.6,730.6,2631.6,730.8z"/>
	<path class="st3" d="M2663.9,730.8c0,4.2-1.6,8-4.2,10.9l0,0c-0.4,0.4-0.8,0.7-1.2,1.2c0,0.1-0.1,0.1-0.1,0.2l-23.4,23.4
		c-0.9-0.9-2-1.4-3.4-1.4v-33.8c0-0.1,0-0.3,0-0.4c0-8.9,7.2-16.1,16.1-16.1S2663.9,721.8,2663.9,730.8z"/>
	<path class="st3" d="M2659.7,741.6c-0.1,0.1-0.1,0.1-0.2,0.2c-0.2,0.3-0.5,0.5-0.8,0.8c-0.1,0.1-0.2,0.1-0.2,0.2
		C2658.9,742.4,2659.3,742,2659.7,741.6z"/>
	<path class="st3" d="M2664,808.8c0,8.9-7.3,16.2-16.2,16.2s-16.1-7.1-16.2-16c0,0,0,0,0-0.1v-0.1v-0.3c0-0.1,0-0.2,0-0.2v-33.8
		c1.3,0,2.5-0.5,3.4-1.4l23,23c0.1,0.1,0.2,0.2,0.2,0.3c0.6,0.7,1.2,1.3,1.9,1.9C2662.6,801.1,2664,804.8,2664,808.8z"/>
	<path class="st3" d="M2631.6,808.8c0-0.1,0-0.1,0-0.2V808.8L2631.6,808.8L2631.6,808.8z"/>
	<path class="st3" d="M2660.2,798.3c-0.7-0.6-1.3-1.2-1.9-1.9c0.1,0.1,0.2,0.2,0.4,0.3c0.1,0.1,0.3,0.2,0.4,0.3l0.2,0.2l0.1,0.1
		c0,0,0,0,0.1,0.1c0,0,0,0,0.1,0.1s0.3,0.3,0.4,0.4C2660,798.1,2660.1,798.2,2660.2,798.3z"/>
	<path class="st3" d="M2631.6,808.5v0.3v0.1c0,0,0,0,0,0.1s0,0.2,0,0.3v-1C2631.6,808.4,2631.6,808.4,2631.6,808.5z"/>
	<path class="st3" d="M2631.6,774.5v34.8c-0.3,8.7-7.4,15.6-16.1,15.6c-8.9,0-16.1-7.2-16.1-16.1c0-4.4,1.8-8.5,4.7-11.4l0.1-0.1
		c0.2-0.2,0.4-0.4,0.6-0.6c0.1-0.1,0.2-0.3,0.3-0.4l23.2-23.2C2629.1,773.9,2630.3,774.5,2631.6,774.5z"/>
	<path class="st3" d="M2669.5,769.8c-0.1,0-0.2,0-0.3,0C2669.3,769.8,2669.4,769.8,2669.5,769.8L2669.5,769.8z"/>
	<path class="st3" d="M2631.6,831.2c-34,0-61.5-27.5-61.5-61.5s27.5-61.5,61.5-61.5s61.5,27.5,61.5,61.5c0,17-6.9,32.3-18,43.5"/>
	<path class="st3" d="M2660.4,798.5l-0.5-0.5l-1.3-1.3c0.1,0.1,0.3,0.2,0.4,0.3l0.2,0.2l0.1,0.1c0,0,0,0,0.1,0.1c0,0,0,0,0.1,0.1
		s0.3,0.3,0.5,0.4l0.1,0.1c0.1,0.1,0.3,0.2,0.4,0.3l0,0c0.2,0.1,0.3,0.3,0.5,0.4c0.2,0.1,0.4,0.3,0.5,0.4c0.1,0.1,0.2,0.1,0.3,0.2
		c0.1,0.1,0.2,0.1,0.3,0.2c0.1,0.1,0.2,0.1,0.3,0.2l0,0c0.1,0,0.1,0.1,0.2,0.1c0.1,0.1,0.2,0.1,0.3,0.2c0.3,0.2,0.6,0.3,0.9,0.4
		c0.1,0.1,0.2,0.1,0.3,0.2c0.1,0.1,0.2,0.1,0.4,0.1c0.4,0.2,0.9,0.3,1.3,0.5c0.1,0,0.3,0.1,0.4,0.1c0.3,0.1,0.5,0.1,0.8,0.2
		c0.1,0,0.3,0.1,0.4,0.1c0.1,0,0.2,0,0.3,0.1c0.1,0,0.2,0,0.3,0.1c0.2,0,0.4,0.1,0.6,0.1c0.1,0,0.2,0,0.3,0s0.2,0,0.2,0
		c0.1,0,0.2,0,0.3,0c0.2,0,0.5,0,0.7,0s0.3,0,0.5,0c0.1,0,0.3,0,0.4,0c0.3,0,0.5,0,0.8,0c0.1,0,0.1,0,0.2,0c0.2,0,0.4,0,0.6-0.1h0.1
		c0.1,0,0.3,0,0.4-0.1c0.3,0,0.5-0.1,0.8-0.1c0.1,0,0.3-0.1,0.4-0.1c0.2,0,0.3-0.1,0.5-0.1c0.1,0,0.1,0,0.2,0c0.2,0,0.3-0.1,0.5-0.1
		c0.1,0,0.3-0.1,0.4-0.1c0.1,0,0.1,0,0.2-0.1c0.2-0.1,0.3-0.1,0.5-0.2c0.1,0,0.2-0.1,0.4-0.1c0.1-0.1,0.2-0.1,0.4-0.2
		c0.1,0,0.2-0.1,0.3-0.1c0.1-0.1,0.3-0.1,0.4-0.2c0.1-0.1,0.2-0.1,0.3-0.2c0.1-0.1,0.2-0.1,0.3-0.2c0.1-0.1,0.3-0.1,0.4-0.2
		c0.1-0.1,0.2-0.1,0.3-0.2c0.1-0.1,0.2-0.1,0.3-0.2c0.1-0.1,0.2-0.1,0.3-0.2c0.2-0.1,0.4-0.3,0.6-0.5c0.1-0.1,0.2-0.2,0.3-0.2
		c0.1-0.1,0.2-0.2,0.3-0.2c0.1-0.1,0.2-0.2,0.3-0.3s0.2-0.2,0.3-0.3s0.2-0.2,0.3-0.3c0.4-0.4,0.7-0.7,1.1-1.1l0,0
		c0.1-0.1,0.1-0.2,0.2-0.3c0.1-0.2,0.3-0.3,0.4-0.5c0.1-0.2,0.2-0.3,0.4-0.5c0.1-0.2,0.3-0.4,0.4-0.6c0.1-0.2,0.3-0.4,0.4-0.6
		c0.1-0.1,0.1-0.2,0.1-0.3c0.1-0.1,0.1-0.3,0.2-0.4c0.1-0.1,0.1-0.3,0.2-0.4c0.1-0.1,0.1-0.2,0.1-0.3s0.1-0.2,0.1-0.3v-0.1
		c0-0.1,0.1-0.2,0.1-0.3l0,0v-0.1c0-0.1,0-0.1,0.1-0.2c0-0.1,0-0.1,0.1-0.2c0-0.1,0.1-0.2,0.1-0.3s0.1-0.2,0.1-0.3s0.1-0.3,0.1-0.4
		c0,0,0,0,0-0.1s0.1-0.3,0.1-0.4c0,0,0,0,0-0.1l0,0c0.1-0.2,0.1-0.5,0.2-0.7l0,0c0-0.1,0-0.1,0-0.2c0-0.1,0-0.2,0-0.2v-0.1
		c0-0.1,0-0.2,0-0.3l0,0c0-0.1,0-0.3,0.1-0.4l0,0v-0.1v-0.1v-0.1v-0.1c0-0.1,0-0.2,0-0.2v-0.1c0-0.1,0-0.2,0-0.3s0-0.1,0-0.2
		c0-0.1,0-0.2,0-0.3s0-0.2,0-0.4c0-0.3,0-0.5,0-0.8c0-0.1,0-0.2,0-0.2v-0.1c0-0.1,0-0.3,0-0.4l0,0c0-0.1,0-0.1,0-0.2
		c0-0.1,0-0.1,0-0.2c0,0,0,0,0-0.1c0-0.2-0.1-0.5-0.1-0.7c0-0.1,0-0.2,0-0.2v-0.1c0-0.1,0-0.1,0-0.2c0-0.1,0-0.1,0-0.2
		c0-0.2-0.1-0.3-0.1-0.5l0,0c0-0.2-0.1-0.4-0.1-0.6c0-0.1-0.1-0.2-0.1-0.4s-0.1-0.2-0.1-0.4c-0.1-0.4-0.3-0.7-0.4-1
		c0-0.1-0.1-0.2-0.1-0.3c-0.1-0.2-0.2-0.4-0.3-0.7c-0.1-0.2-0.2-0.4-0.3-0.7c-0.1-0.1-0.1-0.2-0.2-0.3c-0.1-0.2-0.2-0.3-0.3-0.5
		s-0.2-0.3-0.3-0.5c-0.1-0.1-0.2-0.2-0.3-0.4s-0.2-0.3-0.4-0.5l0,0c-0.1-0.1-0.2-0.2-0.2-0.3c-0.1-0.1-0.2-0.3-0.4-0.4
		c-0.1-0.1-0.2-0.3-0.4-0.4c-0.1-0.1-0.2-0.2-0.3-0.3s-0.2-0.2-0.3-0.3l0,0c-0.1-0.1-0.3-0.3-0.4-0.4c-0.1-0.1-0.3-0.2-0.4-0.4l0,0
		c-0.1-0.1-0.2-0.1-0.2-0.2c-0.2-0.2-0.5-0.4-0.7-0.5c-0.1-0.1-0.2-0.2-0.4-0.3c-0.1-0.1-0.2-0.2-0.4-0.2c-0.1-0.1-0.2-0.1-0.3-0.2
		c-0.2-0.1-0.4-0.2-0.6-0.4l0,0c-0.2-0.1-0.4-0.2-0.7-0.3c-0.1-0.1-0.2-0.1-0.3-0.1c-0.2-0.1-0.4-0.2-0.6-0.3
		c-0.1,0-0.2-0.1-0.3-0.1c-0.2-0.1-0.4-0.1-0.5-0.2c-0.2-0.1-0.4-0.1-0.7-0.2c-0.2-0.1-0.3-0.1-0.5-0.1h-0.1c-0.2,0-0.3-0.1-0.5-0.1
		l0,0l0,0c-0.1,0-0.1,0-0.2,0l0,0c-0.1,0-0.3,0-0.4-0.1h-0.1l0,0c-0.1,0-0.1,0-0.2,0l0,0l0,0c-0.1,0-0.2,0-0.3,0l0,0
		c-0.1,0-0.1,0-0.2,0c-0.1,0-0.1,0-0.2,0c-0.1,0-0.2,0-0.4,0l0,0l0,0l0,0c-0.1,0-0.2,0-0.4,0c0.1,0,0.2,0,0.2,0
		c8.4-0.6,15-7.6,15-16.1c0-8.9-7.2-16.1-16.1-16.1c-4.1,0-7.8,1.5-10.7,4l-0.1,0.1c2.6-2.9,4.2-6.7,4.2-10.9
		c0-8.9-7.2-16.1-16.1-16.1s-16.1,7.2-16.1,16.1c0-0.1,0-0.3,0-0.4c-0.2-8.7-7.4-15.7-16.1-15.7c-8.9,0-16.1,7.2-16.1,16.1
		c0,4.2,1.6,8,4.2,10.9c-0.1,0-0.1-0.1-0.2-0.1c-2.8-2.5-6.6-4-10.6-4c-8.9,0-16.1,7.2-16.1,16.1c0,8.5,6.6,15.5,15,16.1
		c0.1,0,0.2,0,0.3,0c-8.5,0.5-15.3,7.5-15.3,16.1c0,8.9,7.2,16.1,16.1,16.1c4,0,7.6-1.4,10.4-3.8c0.1-0.1,0.2-0.2,0.3-0.3
		c0.2-0.2,0.4-0.4,0.6-0.6c-2.9,2.9-4.7,6.9-4.7,11.4c0,8.9,7.2,16.1,16.1,16.1c8.8,0,15.9-7,16.1-15.6"/>
	<path class="st3" d="M2604.8,796.6c-0.2,0.2-0.4,0.4-0.6,0.6l-0.1,0.1c-0.2,0.2-0.4,0.4-0.6,0.6c0.2-0.2,0.4-0.4,0.6-0.6
		S2604.5,796.9,2604.8,796.6z"/>
	<path class="st3" d="M2628.3,766.4c-0.9,0.9-1.4,2-1.4,3.4h-33.6c-0.2,0-0.3,0-0.5,0s-0.3,0-0.5,0h-0.7c-8.4-0.6-15-7.6-15-16.1
		c0-8.9,7.2-16.1,16.1-16.1c4.1,0,7.8,1.5,10.6,4l0.4,0.4c0.2,0.2,0.4,0.4,0.5,0.5l0.5,0.5L2628.3,766.4z"/>
	<path class="st3" d="M2593.2,769.7h0.7c-0.1,0-0.2,0-0.3,0c-0.3,0-0.6,0-0.9,0s-0.6,0-0.9,0c-0.1,0-0.2,0-0.3,0h0.7
		c0.2,0,0.3,0,0.5,0S2593.1,769.7,2593.2,769.7z"/>
	<path class="st3" d="M2604.9,743l-0.5-0.5l-0.5-0.5l-0.4-0.4c0.1,0,0.1,0.1,0.2,0.1c0.4,0.4,0.8,0.7,1.2,1.2l0,0
		C2604.8,742.8,2604.8,742.9,2604.9,743z"/>
	<path class="st3" d="M2686.7,753.6c0,8.5-6.6,15.5-15,16.1h-0.6c-0.2,0-0.3,0-0.5,0s-0.3,0-0.5,0h-33.8c0-1.3-0.5-2.5-1.4-3.4
		l23.4-23.4l0.4-0.4c0.3-0.2,0.5-0.5,0.8-0.8l0.3-0.3c2.8-2.5,6.6-4,10.7-4C2679.4,737.5,2686.7,744.7,2686.7,753.6z"/>
	<path class="st3" d="M2659.7,741.6l0.1-0.1l-0.3,0.3c-0.2,0.3-0.5,0.5-0.8,0.8l-0.4,0.4c0-0.1,0.1-0.1,0.1-0.2
		C2658.9,742.4,2659.3,742,2659.7,741.6L2659.7,741.6z"/>
	<path class="st3" d="M2671.7,769.7c-0.1,0-0.2,0-0.2,0l0,0c-0.3,0-0.6,0-0.9,0c-0.3,0-0.6,0-0.8,0l0,0c-0.1,0-0.2,0-0.3,0h0.8
		c0.1,0,0.3,0,0.5,0s0.3,0,0.5,0H2671.7z"/>
	<path class="st3" d="M2628.3,773.1l-23.2,23.2l-1.1,1.1l-0.9,0.9c-2.8,2.4-6.4,3.8-10.4,3.8c-8.9,0-16.1-7.2-16.1-16.1
		c0-8.6,6.8-15.7,15.3-16.1c0.3,0,0.6,0,0.9,0s0.6,0,0.9,0c0.1,0,0.2,0,0.3,0h32.9C2626.9,771,2627.4,772.2,2628.3,773.1z"/>
	<path class="st3" d="M2593.6,769.7c-0.3,0-0.6,0-0.9,0s-0.6,0-0.9,0c0.1,0,0.3,0,0.4,0c0.2,0,0.3,0,0.5,0s0.3,0,0.5,0
		C2593.4,769.7,2593.5,769.7,2593.6,769.7z"/>
	<path class="st3" d="M2605.1,796.3c-0.1,0.1-0.2,0.3-0.3,0.4c-0.2,0.2-0.4,0.4-0.6,0.6l-0.1,0.1c-0.2,0.2-0.4,0.4-0.6,0.6
		c-0.1,0.1-0.2,0.2-0.3,0.3l0.9-0.9L2605.1,796.3z"/>
	<path class="st3" d="M2686.8,785.1c0-0.3,0-0.5-0.1-0.8l0,0c0-0.1,0-0.2,0-0.4c0-0.3-0.1-0.7-0.1-1c0-0.1,0-0.2-0.1-0.3
		c-0.1-0.4-0.2-0.8-0.3-1.2s-0.2-0.8-0.4-1.2c-0.1-0.2-0.2-0.4-0.3-0.7c-0.1-0.2-0.1-0.3-0.2-0.5c-0.1-0.1-0.1-0.3-0.2-0.4
		c0-0.1-0.1-0.2-0.1-0.3s-0.1-0.2-0.2-0.3c0,0,0-0.1-0.1-0.1c-0.1-0.2-0.2-0.3-0.3-0.5s-0.2-0.3-0.3-0.5s-0.2-0.3-0.3-0.5l0,0
		c-0.1-0.2-0.2-0.3-0.4-0.5c-0.1-0.2-0.2-0.3-0.4-0.5c-0.1-0.1-0.2-0.3-0.4-0.4c0,0,0-0.1-0.1-0.1c-0.1-0.1-0.2-0.3-0.3-0.4l0,0
		c-0.1-0.1-0.3-0.3-0.4-0.4c-0.1-0.1-0.2-0.2-0.4-0.4s-0.3-0.3-0.5-0.5c-0.2-0.1-0.3-0.3-0.5-0.4c-0.2-0.1-0.4-0.3-0.6-0.4
		c-0.1-0.1-0.2-0.2-0.4-0.3c-0.1-0.1-0.2-0.1-0.3-0.2c-0.1-0.1-0.3-0.2-0.4-0.2c-0.2-0.1-0.4-0.3-0.7-0.4c-0.1-0.1-0.2-0.1-0.3-0.1
		c-0.2-0.1-0.3-0.2-0.5-0.2c-0.2-0.1-0.4-0.2-0.6-0.2c-0.1-0.1-0.3-0.1-0.5-0.2c-0.1-0.1-0.3-0.1-0.4-0.1c0,0-0.1,0-0.1-0.1
		c-0.1,0-0.2-0.1-0.3-0.1s-0.2-0.1-0.3-0.1s-0.2-0.1-0.3-0.1s-0.2-0.1-0.3-0.1s-0.1,0-0.2-0.1c-0.1,0-0.2-0.1-0.4-0.1
		c-0.3-0.1-0.5-0.1-0.8-0.2c-0.1,0-0.2,0-0.3,0l0,0l0,0c-0.1,0-0.2,0-0.3,0l0,0c-0.1,0-0.1,0-0.2,0c-0.1,0-0.1,0-0.2,0l0,0
		c-0.1,0-0.1,0-0.2,0c-0.1,0-0.1,0-0.2,0l0,0c-0.1,0-0.2,0-0.4,0l0,0c-0.3,0-0.6,0-0.9,0c-0.3,0-0.6,0-0.8,0l0,0h-0.1c0,0,0,0,0.1,0
		c-0.1,0-0.2,0-0.3,0h-33c0,1.3-0.5,2.5-1.4,3.4l23,23l0.6,0.6c0.1,0.1,0.3,0.2,0.4,0.3l0.2,0.2l0.1,0.1c0,0,0,0,0.1,0.1
		c0,0,0,0,0.1,0.1s0.3,0.3,0.5,0.4l0.1,0.1c0.1,0.1,0.3,0.2,0.4,0.3l0,0c0.2,0.1,0.3,0.3,0.5,0.4c0.2,0.1,0.4,0.3,0.5,0.4
		c0.1,0.1,0.2,0.1,0.3,0.2c0.1,0.1,0.2,0.1,0.3,0.2c0.1,0.1,0.2,0.1,0.3,0.2l0,0c0.1,0,0.1,0.1,0.2,0.1c0.1,0.1,0.2,0.1,0.3,0.2
		c0.3,0.2,0.6,0.3,0.9,0.4c0.1,0.1,0.2,0.1,0.3,0.2c0.1,0.1,0.2,0.1,0.4,0.1c0.4,0.2,0.9,0.3,1.3,0.5c0.1,0,0.3,0.1,0.4,0.1
		c0.3,0.1,0.5,0.1,0.8,0.2c0.1,0,0.3,0.1,0.4,0.1c0.1,0,0.2,0,0.3,0.1c0.1,0,0.2,0,0.3,0.1c0.2,0,0.4,0.1,0.6,0.1c0.1,0,0.2,0,0.3,0
		s0.2,0,0.2,0c0.1,0,0.2,0,0.3,0c0.2,0,0.5,0,0.7,0s0.3,0,0.5,0c0.1,0,0.3,0,0.4,0c0.3,0,0.5,0,0.8,0c0.1,0,0.1,0,0.2,0
		c0.2,0,0.4,0,0.6-0.1h0.1c0.1,0,0.3,0,0.4-0.1c0.3,0,0.5-0.1,0.8-0.1c0.1,0,0.3-0.1,0.4-0.1c0.2,0,0.3-0.1,0.5-0.1
		c0.1,0,0.1,0,0.2,0c0.2,0,0.3-0.1,0.5-0.1c0.1,0,0.3-0.1,0.4-0.1c0.1,0,0.1,0,0.2-0.1c0.2-0.1,0.3-0.1,0.5-0.2
		c0.1,0,0.2-0.1,0.4-0.1c0.1-0.1,0.2-0.1,0.4-0.2c0.1,0,0.2-0.1,0.3-0.1c0.1-0.1,0.3-0.1,0.4-0.2c0.1-0.1,0.2-0.1,0.3-0.2
		c0.1-0.1,0.2-0.1,0.3-0.2c0.1-0.1,0.3-0.1,0.4-0.2c0.1-0.1,0.2-0.1,0.3-0.2c0.1-0.1,0.2-0.1,0.3-0.2c0.1-0.1,0.2-0.1,0.3-0.2
		c0.2-0.1,0.4-0.3,0.6-0.5c0.1-0.1,0.2-0.2,0.3-0.2c0.1-0.1,0.2-0.2,0.3-0.2c0.1-0.1,0.2-0.2,0.3-0.3s0.2-0.2,0.3-0.3
		s0.2-0.2,0.3-0.3c0.4-0.4,0.7-0.7,1.1-1.1l0,0c0.1-0.1,0.1-0.2,0.2-0.3c0.1-0.2,0.3-0.3,0.4-0.5c0.1-0.2,0.2-0.3,0.4-0.5
		c0.1-0.2,0.3-0.4,0.4-0.6c0.1-0.2,0.3-0.4,0.4-0.6c0.1-0.1,0.1-0.2,0.1-0.3c0.1-0.1,0.1-0.3,0.2-0.4c0.1-0.1,0.1-0.3,0.2-0.4
		c0.1-0.1,0.1-0.2,0.1-0.3s0.1-0.2,0.1-0.3v-0.1c0-0.1,0.1-0.2,0.1-0.3l0,0v-0.1c0-0.1,0-0.1,0.1-0.2c0-0.1,0-0.1,0.1-0.2
		c0-0.1,0.1-0.2,0.1-0.3s0.1-0.2,0.1-0.3s0.1-0.3,0.1-0.4c0,0,0,0,0-0.1s0.1-0.3,0.1-0.4c0,0,0,0,0-0.1l0,0c0.1-0.2,0.1-0.5,0.2-0.7
		l0,0c0-0.1,0-0.1,0-0.2c0-0.1,0-0.2,0-0.2c0-0.1,0-0.2,0.1-0.4l0,0c0-0.1,0-0.3,0.1-0.4l0,0v-0.1v-0.1v-0.1v-0.1c0-0.2,0-0.4,0-0.6
		c0,0,0,0,0-0.1s0-0.1,0-0.2c0-0.1,0-0.2,0-0.3s0-0.2,0-0.4C2686.8,785.6,2686.8,785.4,2686.8,785.1z M2667.8,770
		c0.1,0,0.2,0,0.3-0.1c0.1,0,0.3,0,0.4-0.1C2668.3,769.9,2668.1,769.9,2667.8,770z M2668.9,769.8c-0.1,0-0.2,0-0.3,0
		C2668.7,769.8,2668.8,769.8,2668.9,769.8h0.1H2668.9z M2669.3,769.8c0.1,0,0.1,0,0.2,0h0.1C2669.5,769.8,2669.4,769.8,2669.3,769.8
		z"/>
	<path class="st3" d="M2668.5,769.9c-0.2,0-0.4,0.1-0.7,0.1c0.1,0,0.2,0,0.3-0.1C2668.2,769.9,2668.4,769.9,2668.5,769.9z"/>
	<path class="st3" d="M2669.5,769.8c-0.1,0-0.2,0-0.3,0C2669.3,769.8,2669.4,769.8,2669.5,769.8L2669.5,769.8z"/>
	<path class="st3" d="M2669.7,769.7C2669.6,769.8,2669.6,769.8,2669.7,769.7C2669.6,769.8,2669.6,769.7,2669.7,769.7L2669.7,769.7z"
		/>
	<path class="st3" d="M2671.4,769.7c-0.3,0-0.6,0-0.9,0c-0.3,0-0.6,0-0.8,0c0.1,0,0.3,0,0.4,0l0,0c0.1,0,0.3,0,0.5,0s0.3,0,0.5,0
		l0,0C2671.2,769.7,2671.3,769.7,2671.4,769.7z"/>
	<path class="st3" d="M2685.2,792.7c0.1-0.1,0.1-0.2,0.1-0.3c-2.5,5.7-8.2,9.7-14.8,9.7c-3.9,0-7.4-1.4-10.2-3.6
		c-0.1-0.1-0.1-0.1-0.2-0.2c-0.7-0.6-1.3-1.2-1.9-1.9c-0.1-0.1-0.2-0.2-0.2-0.3l0.6,0.6c0.1,0.1,0.3,0.2,0.4,0.3l0.2,0.2l0.1,0.1
		c0,0,0,0,0.1,0.1c0,0,0,0,0.1,0.1s0.3,0.3,0.5,0.4l0.1,0.1c0.1,0.1,0.3,0.2,0.4,0.3l0,0c0.2,0.1,0.3,0.3,0.5,0.4
		c0.2,0.1,0.4,0.3,0.5,0.4c0.1,0.1,0.2,0.1,0.3,0.2c0.1,0.1,0.2,0.1,0.3,0.2c0.1,0.1,0.2,0.1,0.3,0.2l0,0c0.1,0,0.1,0.1,0.2,0.1
		c0.1,0.1,0.2,0.1,0.3,0.2c0.3,0.2,0.6,0.3,0.9,0.4c0.1,0.1,0.2,0.1,0.3,0.2c0.1,0.1,0.2,0.1,0.4,0.1c0.4,0.2,0.9,0.3,1.3,0.5
		c0.1,0,0.3,0.1,0.4,0.1c0.3,0.1,0.5,0.1,0.8,0.2c0.1,0,0.3,0.1,0.4,0.1c0.1,0,0.2,0,0.3,0.1c0.1,0,0.2,0,0.3,0.1
		c0.2,0,0.4,0.1,0.6,0.1c0.1,0,0.2,0,0.3,0s0.2,0,0.2,0c0.1,0,0.2,0,0.3,0c0.2,0,0.5,0,0.7,0s0.3,0,0.5,0c0.1,0,0.3,0,0.4,0
		c0.3,0,0.5,0,0.8,0c0.1,0,0.1,0,0.2,0c0.2,0,0.4,0,0.6-0.1h0.1c0.1,0,0.3,0,0.4-0.1c0.3,0,0.5-0.1,0.8-0.1c0.1,0,0.3-0.1,0.4-0.1
		c0.2,0,0.3-0.1,0.5-0.1c0.1,0,0.1,0,0.2,0c0.2,0,0.3-0.1,0.5-0.1c0.1,0,0.3-0.1,0.4-0.1c0.1,0,0.1,0,0.2-0.1
		c0.2-0.1,0.3-0.1,0.5-0.2c0.1,0,0.2-0.1,0.4-0.1c0.1-0.1,0.2-0.1,0.4-0.2c0.1,0,0.2-0.1,0.3-0.1c0.1-0.1,0.3-0.1,0.4-0.2
		c0.1-0.1,0.2-0.1,0.3-0.2c0.1-0.1,0.2-0.1,0.3-0.2c0.1-0.1,0.3-0.1,0.4-0.2c0.1-0.1,0.2-0.1,0.3-0.2c0.1-0.1,0.2-0.1,0.3-0.2
		c0.1-0.1,0.2-0.1,0.3-0.2c0.2-0.1,0.4-0.3,0.6-0.5c0.1-0.1,0.2-0.2,0.3-0.2c0.1-0.1,0.2-0.2,0.3-0.2c0.1-0.1,0.2-0.2,0.3-0.3
		s0.2-0.2,0.3-0.3s0.2-0.2,0.3-0.3c0.4-0.4,0.7-0.7,1.1-1.1l0,0c0.1-0.1,0.1-0.2,0.2-0.3c0.1-0.2,0.3-0.3,0.4-0.5
		c0.1-0.2,0.2-0.3,0.4-0.5c0.1-0.2,0.3-0.4,0.4-0.6c0.1-0.2,0.3-0.4,0.4-0.6c0.1-0.1,0.1-0.2,0.1-0.3c0.1-0.1,0.1-0.3,0.2-0.4
		C2685.1,793,2685.2,792.9,2685.2,792.7z"/>
</g>
<path class="st3" d="M1659.9,1542.7c-0.1,0-0.2,0-0.3,0c-0.3,0-0.6,0-0.9,0s-0.6,0-0.9,0c-0.1,0-0.2,0-0.3,0h0.7c0.2,0,0.3,0,0.5,0
	s0.3,0,0.5,0H1659.9z"/>
<path class="st3" d="M1670.7,1515.8c0.1,0.1,0.1,0.1,0.2,0.2l-0.5-0.5l-0.5-0.5l-0.4-0.4c0.1,0,0.1,0.1,0.2,0.1
	C1670,1515,1670.3,1515.4,1670.7,1515.8L1670.7,1515.8z"/>
<path class="st3" d="M1697.6,1503.8c0,0.1,0,0.3,0,0.4v-0.8C1697.6,1503.5,1697.6,1503.6,1697.6,1503.8z"/>
<path class="st3" d="M1702.4,1542.7c0,1.3-0.5,2.5-1.4,3.4s-2,1.4-3.4,1.4s-2.5-0.5-3.4-1.4s-1.4-2-1.4-3.4s0.5-2.5,1.4-3.4
	s2-1.4,3.4-1.4s2.5,0.5,3.4,1.4S1702.4,1541.4,1702.4,1542.7z"/>
<path class="st3" d="M1697.6,1582.3v-1c0,0.1,0,0.2,0,0.2v0.1v0.2v0.1c0,0,0,0,0,0.1c0.1,8.8,7.3,16,16.2,16
	c8.9,0,16.2-7.3,16.2-16.2c0-4-1.5-7.7-3.9-10.5c-0.7-0.6-1.3-1.2-1.9-1.9c-0.1-0.1-0.2-0.2-0.2-0.3l0.6,0.6l1.3,1.3l0.5,0.5"/>
<path class="st3" d="M1724.8,1515.6l-0.4,0.4c0-0.1,0.1-0.1,0.1-0.2c0.4-0.4,0.8-0.8,1.2-1.2l0,0l0.1-0.1l-0.3,0.3
	C1725.3,1515.1,1725.1,1515.3,1724.8,1515.6z"/>
<path class="st3" d="M1735,1542.8L1735,1542.8L1735,1542.8C1735,1542.8,1735,1542.8,1735,1542.8z"/>
<path class="st3" d="M1735.6,1542.8c-0.1,0-0.2,0-0.3,0C1735.4,1542.8,1735.4,1542.8,1735.6,1542.8
	C1735.5,1542.8,1735.5,1542.8,1735.6,1542.8z"/>
<path class="st3" d="M1737.7,1542.7c-0.1,0-0.2,0-0.2,0l0,0c-0.3,0-0.6,0-0.9,0s-0.6,0-0.8,0l0,0c-0.1,0-0.2,0-0.3,0h0.8
	c0.1,0,0.3,0,0.5,0s0.3,0,0.5,0H1737.7z"/>
<path class="st3" d="M1737.9,1542.8L1737.9,1542.8c-0.1,0-0.3,0-0.4,0C1737.6,1542.8,1737.7,1542.8,1737.9,1542.8L1737.9,1542.8z"/>
<path class="st3" d="M1738.4,1542.8c-0.1,0-0.1,0-0.2,0l0,0c-0.1,0-0.1,0-0.2,0c0.1,0,0.1,0,0.2,0S1738.4,1542.8,1738.4,1542.8z"/>
<path class="st3" d="M1751.8,1553.3c0-0.1,0-0.1-0.1-0.2c-0.1-0.2-0.2-0.4-0.2-0.6c-0.1-0.2-0.1-0.3-0.2-0.5
	c-0.1-0.1-0.1-0.3-0.2-0.4c0-0.1-0.1-0.2-0.1-0.3c0-0.1-0.1-0.2-0.2-0.3c0,0,0-0.1-0.1-0.1c-0.1-0.2-0.2-0.3-0.3-0.5
	c-0.1-0.2-0.2-0.3-0.3-0.5c-0.1-0.2-0.2-0.3-0.3-0.5l0,0c-0.1-0.2-0.2-0.3-0.4-0.5c-0.1-0.2-0.2-0.3-0.4-0.5
	c-0.1-0.1-0.2-0.3-0.4-0.4c0,0,0-0.1-0.1-0.1c-0.1-0.1-0.2-0.3-0.3-0.4l0,0c-0.1-0.1-0.3-0.3-0.4-0.4s-0.2-0.2-0.4-0.4
	c-0.2-0.2-0.3-0.3-0.5-0.5c-0.2-0.1-0.3-0.3-0.5-0.4s-0.4-0.3-0.6-0.4c-0.1-0.1-0.2-0.2-0.4-0.3c-0.1-0.1-0.2-0.1-0.3-0.2
	c-0.1-0.1-0.3-0.2-0.4-0.2c-0.2-0.1-0.4-0.3-0.7-0.4c-0.1-0.1-0.2-0.1-0.3-0.1c-0.2-0.1-0.3-0.2-0.5-0.2c-0.2-0.1-0.4-0.2-0.6-0.2
	c-0.1-0.1-0.3-0.1-0.5-0.2c-0.1-0.1-0.3-0.1-0.4-0.1c0,0-0.1,0-0.1-0.1c-0.1,0-0.2-0.1-0.3-0.1c-0.1,0-0.2-0.1-0.3-0.1
	c-0.1,0-0.2-0.1-0.3-0.1c-0.1,0-0.2-0.1-0.3-0.1c-0.1,0-0.1,0-0.2-0.1c-0.1,0-0.2-0.1-0.4-0.1c-0.3-0.1-0.5-0.1-0.8-0.2
	c-0.1,0-0.2,0-0.3,0c0.1,0,0.1,0,0.2,0l0,0c0.2,0,0.4,0.1,0.5,0.1s0.1,0,0.2,0l0,0l0,0c0.2,0,0.3,0.1,0.5,0.1c0.1,0,0.1,0,0.1,0
	c0.2,0,0.3,0.1,0.5,0.1c0.2,0.1,0.4,0.1,0.7,0.2c0.2,0.1,0.4,0.1,0.5,0.2c0.1,0,0.2,0.1,0.3,0.1c0.2,0.1,0.4,0.2,0.6,0.3
	c0.1,0,0.2,0.1,0.3,0.1c0.2,0.1,0.4,0.2,0.7,0.3l0,0c0.2,0.1,0.4,0.2,0.6,0.4c0.1,0.1,0.2,0.1,0.3,0.2c0.1,0.1,0.2,0.2,0.4,0.2
	c0.1,0.1,0.2,0.2,0.4,0.3c0.2,0.2,0.5,0.3,0.7,0.5c0.1,0.1,0.2,0.1,0.2,0.2l0,0c0.1,0.1,0.3,0.2,0.4,0.4c0.1,0.1,0.3,0.3,0.4,0.4
	l0,0c0.1,0.1,0.2,0.2,0.3,0.3c0.1,0.1,0.2,0.2,0.3,0.3c0.1,0.1,0.2,0.3,0.4,0.4c0.1,0.1,0.2,0.3,0.4,0.4c0.1,0.1,0.2,0.2,0.2,0.3
	l0,0c0.1,0.2,0.3,0.3,0.4,0.5c0.1,0.1,0.2,0.2,0.3,0.4c0.1,0.2,0.2,0.3,0.3,0.5c0.1,0.2,0.2,0.3,0.3,0.5c0.1,0.1,0.1,0.2,0.2,0.3
	c0.1,0.2,0.2,0.4,0.3,0.7c0.1,0.2,0.2,0.4,0.3,0.7c0.1,0.1,0.1,0.2,0.1,0.3c0.1,0.3,0.3,0.7,0.4,1c0,0.1,0.1,0.2,0.1,0.4
	c0,0.1,0.1,0.2,0.1,0.4c0.1,0.2,0.1,0.4,0.1,0.6l0,0c0,0.2,0.1,0.3,0.1,0.5c0,0.1,0,0.1,0,0.2c-0.1-0.4-0.2-0.8-0.3-1.2
	C1752.1,1554.1,1751.9,1553.7,1751.8,1553.3z"/>
<line class="st3" x1="1737.1" y1="1542.7" x2="1736.2" y2="1542.7"/>
<line class="st3" x1="1659.3" y1="1542.7" x2="1658.3" y2="1542.7"/>
<line class="st3" x1="1670.4" y1="1515.5" x2="1669.8" y2="1514.9"/>
<line class="st3" x1="1725.6" y1="1514.8" x2="1724.8" y2="1515.6"/>
<path class="st3" d="M1697.6,1503.4v34.6c-1.3,0-2.5,0.5-3.4,1.4l-23.4-23.4c-0.1-0.1-0.1-0.1-0.2-0.2l0,0c-0.4-0.4-0.8-0.8-1.2-1.2
	c-2.6-2.9-4.2-6.7-4.2-10.9c0-8.9,7.2-16.1,16.1-16.1C1690.3,1487.6,1697.4,1494.6,1697.6,1503.4z"/>
<path class="st3" d="M1670.7,1515.8c-0.1-0.1-0.2-0.2-0.3-0.3l-0.5-0.5c-0.1-0.1-0.2-0.2-0.3-0.3
	C1670,1515,1670.3,1515.4,1670.7,1515.8z"/>
<path class="st3" d="M1697.6,1503.8c0,0.1,0,0.3,0,0.4v-0.8C1697.6,1503.5,1697.6,1503.6,1697.6,1503.8z"/>
<path class="st3" d="M1725.7,1514.6c-0.1,0.1-0.1,0.1-0.2,0.2c-0.2,0.3-0.5,0.5-0.8,0.8c-0.1,0.1-0.2,0.1-0.2,0.2
	C1725,1515.4,1725.3,1515,1725.7,1514.6z"/>
<path class="st3" d="M1697.6,1581.8c0-0.1,0-0.1,0-0.2V1581.8L1697.6,1581.8L1697.6,1581.8z"/>
<path class="st3" d="M1726.2,1571.3c-0.7-0.6-1.3-1.2-1.9-1.9c0.1,0.1,0.2,0.2,0.4,0.3c0.1,0.1,0.3,0.2,0.4,0.3l0.2,0.2l0.1,0.1
	c0,0,0,0,0.1,0.1c0,0,0,0,0.1,0.1s0.3,0.3,0.4,0.4C1726,1571.1,1726.1,1571.2,1726.2,1571.3z"/>
<path class="st3" d="M1697.7,1581.5v0.3v0.1c0,0,0,0,0,0.1s0,0.2,0,0.3v-1C1697.6,1581.4,1697.6,1581.4,1697.7,1581.5z"/>
<path class="st3" d="M1735.6,1542.8c-0.1,0-0.2,0-0.3,0C1735.4,1542.8,1735.4,1542.8,1735.6,1542.8
	C1735.5,1542.8,1735.5,1542.8,1735.6,1542.8z"/>
<path class="st3" d="M1650.7,1572.8c-0.1-0.1-0.2-0.1-0.4-0.2"/>
<line class="st3" x1="1686.2" y1="1597.2" x2="1686.2" y2="1597.2"/>
<path class="st3" d="M1659.9,1542.7c-0.1,0-0.2,0-0.3,0c-0.3,0-0.6,0-0.9,0s-0.6,0-0.9,0c-0.1,0-0.2,0-0.3,0h0.7c0.2,0,0.3,0,0.5,0
	s0.3,0,0.5,0H1659.9z"/>
<path class="st3" d="M1670.9,1516l-0.5-0.5l-0.5-0.5l-0.4-0.4c0.1,0,0.1,0.1,0.2,0.1c0.4,0.4,0.8,0.7,1.2,1.2l0,0
	C1670.8,1515.9,1670.9,1515.9,1670.9,1516z"/>
<g>
	<circle class="st2" cx="1702.4" cy="1534.1" r="61.5"/>
	<path class="st3" d="M1697.6,1604.2c17,0,32.4-6.9,43.5-18"/>
	<path class="st3" d="M1702.4,1542.7c0,1.3-0.5,2.5-1.4,3.4s-2,1.4-3.4,1.4s-2.5-0.5-3.4-1.4s-1.4-2-1.4-3.4s0.5-2.5,1.4-3.4
		s2-1.4,3.4-1.4s2.5,0.5,3.4,1.4S1702.4,1541.4,1702.4,1542.7z"/>
	<path class="st3" d="M1729.9,1503.8c0,4.2-1.6,8-4.2,10.9l0,0c-0.4,0.4-0.8,0.7-1.2,1.2c0,0.1-0.1,0.1-0.1,0.2l-23.4,23.4
		c-0.9-0.9-2-1.4-3.4-1.4v-33.8c0-0.1,0-0.3,0-0.4c0-8.9,7.2-16.1,16.1-16.1C1722.7,1487.6,1729.9,1494.8,1729.9,1503.8z"/>
	<path class="st3" d="M1730,1581.8c0,8.9-7.3,16.2-16.2,16.2c-8.9,0-16.1-7.1-16.2-16c0,0,0,0,0-0.1v-0.1v-0.3c0-0.1,0-0.2,0-0.2
		v-33.8c1.3,0,2.5-0.5,3.4-1.4l23,23c0.1,0.1,0.2,0.2,0.2,0.3c0.6,0.7,1.2,1.3,1.9,1.9C1728.6,1574.1,1730,1577.8,1730,1581.8z"/>
	<path class="st3" d="M1697.6,1604.2c-4.2,0-8.3-0.4-12.3-1.2l0,0c-12.1-2.4-22.9-8.4-31.2-16.8c-1.3-1.3-2.6-2.7-3.8-4.2
		c-2.1-2.6-4-5.3-5.7-8.2c-5.3-9.1-8.4-19.7-8.4-31c0-1.4,0-2.9,0.1-4.3c0.6-8.8,3.1-17.1,7-24.5l0,0c10.3-19.4,30.8-32.7,54.3-32.7
		c34,0,61.5,27.5,61.5,61.5c0,12.4-3.7,23.9-10,33.6c-2.3,3.6-5,6.9-8,9.9"/>
	<path class="st3" d="M1726.4,1571.5l-0.5-0.5l-1.3-1.3c0.1,0.1,0.2,0.2,0.4,0.3l0.4,0.4c0,0,0,0,0.1,0l0.1,0.1
		c0.2,0.1,0.3,0.3,0.5,0.4l0.1,0.1C1726.2,1571.2,1726.3,1571.3,1726.4,1571.5C1726.5,1571.5,1726.5,1571.5,1726.4,1571.5
		c0.3,0.1,0.4,0.3,0.6,0.4s0.3,0.3,0.5,0.4c0.1,0.1,0.2,0.1,0.3,0.2c0.1,0.1,0.2,0.1,0.3,0.2c0.1,0.1,0.2,0.1,0.3,0.2l0,0
		c0.1,0,0.1,0.1,0.2,0.1s0.2,0.1,0.3,0.2c0.3,0.2,0.6,0.3,0.9,0.5c0.1,0,0.2,0.1,0.3,0.2c0.1,0,0.2,0.1,0.4,0.1
		c0.4,0.2,0.9,0.3,1.3,0.5c0.1,0,0.2,0.1,0.4,0.1c0.2,0.1,0.5,0.1,0.8,0.2c0.1,0,0.3,0.1,0.4,0.1s0.2,0,0.3,0.1c0.1,0,0.2,0,0.3,0.1
		c0.2,0,0.4,0,0.5,0.1c0.1,0,0.2,0,0.3,0c0.1,0,0.2,0,0.2,0c0.1,0,0.2,0,0.3,0c0.2,0,0.5,0,0.7,0h0.9c0.3,0,0.5,0,0.8,0
		c0.1,0,0.1,0,0.2,0c0.2,0,0.4,0,0.6-0.1c0,0,0,0,0.1,0s0.2,0,0.4-0.1c0.3,0,0.5-0.1,0.8-0.1c0.1,0,0.3-0.1,0.4-0.1
		c0.2,0,0.3-0.1,0.5-0.1c0.1,0,0.1,0,0.2,0c0.2,0,0.3-0.1,0.5-0.1c0.1,0,0.3-0.1,0.4-0.1s0.1-0.1,0.2-0.1c0.2,0,0.3-0.1,0.5-0.2
		c0.1-0.1,0.2-0.1,0.4-0.2l0.4-0.2c0.1,0,0.2-0.1,0.3-0.1c0.1-0.1,0.3-0.1,0.4-0.2s0.2-0.1,0.3-0.2c0.1-0.1,0.2-0.1,0.3-0.2
		c0.1-0.1,0.2-0.1,0.4-0.2l0.3-0.2c0.1-0.1,0.2-0.1,0.3-0.2c0.1-0.1,0.2-0.1,0.3-0.2c0.2-0.1,0.4-0.3,0.6-0.4
		c0.1-0.1,0.2-0.2,0.3-0.2c0.1-0.1,0.2-0.2,0.3-0.2c0.1-0.1,0.2-0.2,0.3-0.2c0.1-0.1,0.2-0.2,0.3-0.3c0.1-0.1,0.2-0.2,0.3-0.3
		c0.4-0.4,0.7-0.7,1.1-1.1l0,0c0.1-0.1,0.2-0.2,0.2-0.3c0.1-0.2,0.2-0.3,0.4-0.5c0.1-0.2,0.2-0.3,0.3-0.5c0.1-0.2,0.3-0.4,0.4-0.6
		s0.3-0.4,0.4-0.6c0.1-0.1,0.1-0.2,0.2-0.3c0.1-0.1,0.1-0.2,0.2-0.4c0.1-0.2,0.1-0.3,0.2-0.4c0-0.1,0.1-0.2,0.2-0.3
		c0-0.1,0.1-0.2,0.1-0.3v-0.1c0-0.1,0.1-0.2,0.1-0.3v-0.1c0-0.1,0-0.1,0.1-0.2c0-0.1,0-0.1,0.1-0.2c0-0.1,0.1-0.2,0.1-0.3
		c0-0.1,0.1-0.2,0.1-0.3c0-0.1,0.1-0.3,0.1-0.4l0,0c0-0.1,0.1-0.3,0.1-0.4c0,0,0,0,0-0.1s0,0,0,0c0.1-0.2,0.1-0.4,0.2-0.7l0,0
		c0-0.1,0-0.1,0-0.2s0-0.2,0-0.2c0-0.1,0-0.2,0.1-0.4l0,0c0-0.1,0-0.2,0.1-0.4l0,0c0-0.1,0-0.1,0-0.1c0-0.1,0-0.1,0-0.1v-0.1v-0.1
		c0-0.1,0-0.2,0-0.2v-0.1c0-0.1,0-0.2,0-0.3v-0.1v-0.1c0-0.1,0-0.2,0-0.3c0-0.1,0-0.2,0-0.4c0-0.3,0-0.5,0-0.8c0-0.1,0-0.2,0-0.3
		c0-0.1,0-0.1,0-0.2s0-0.1,0-0.2l0,0c0-0.1,0-0.2,0-0.4c0,0,0,0,0-0.1c0-0.2-0.1-0.5-0.1-0.7c0-0.1,0-0.2,0-0.2c0-0.1,0-0.2-0.1-0.3
		c0-0.1,0-0.1,0-0.2c0-0.2-0.1-0.3-0.1-0.5l0,0c0-0.2-0.1-0.4-0.1-0.6c0-0.1-0.1-0.2-0.1-0.4c0-0.1-0.1-0.2-0.1-0.3
		c0-0.1-0.1-0.3-0.1-0.4c-0.1-0.2-0.2-0.4-0.2-0.7c-0.1-0.1-0.1-0.2-0.2-0.3c-0.1-0.2-0.2-0.5-0.3-0.7c0,0,0-0.1-0.1-0.2
		s-0.1-0.2-0.2-0.3c0,0,0-0.1-0.1-0.1v-0.1c-0.1-0.1-0.1-0.2-0.2-0.3c-0.1-0.2-0.2-0.3-0.3-0.5c-0.1-0.2-0.2-0.3-0.3-0.5
		c-0.1-0.1-0.2-0.2-0.3-0.4c-0.1-0.2-0.2-0.3-0.4-0.5l0,0c-0.1-0.1-0.2-0.2-0.2-0.3c-0.1-0.1-0.2-0.3-0.4-0.4
		c-0.1-0.1-0.2-0.3-0.4-0.4c-0.1-0.1-0.2-0.2-0.2-0.3c-0.1-0.1-0.2-0.2-0.3-0.2l0,0c-0.1-0.1-0.3-0.3-0.4-0.4s-0.3-0.2-0.4-0.4l0,0
		c-0.1-0.1-0.2-0.1-0.2-0.2c-0.2-0.2-0.5-0.3-0.7-0.5c-0.1-0.1-0.2-0.2-0.4-0.2c-0.1-0.1-0.2-0.2-0.4-0.2c-0.1-0.1-0.2-0.1-0.3-0.2
		c-0.2-0.1-0.4-0.2-0.6-0.4l0,0c-0.1-0.1-0.3-0.1-0.4-0.2c-0.1,0-0.2-0.1-0.2-0.1c-0.1,0-0.1-0.1-0.2-0.1h-0.1
		c-0.2-0.1-0.3-0.1-0.5-0.2c0,0,0,0-0.1,0c0,0,0,0-0.1,0s-0.2-0.1-0.3-0.1c-0.2-0.1-0.4-0.1-0.5-0.2c-0.2-0.1-0.4-0.2-0.7-0.2
		c-0.1,0-0.1,0-0.2-0.1c-0.1,0-0.2-0.1-0.3-0.1h-0.1c-0.2,0-0.3-0.1-0.4-0.1h-0.1l0,0l0,0c-0.2,0-0.4-0.1-0.7-0.1h-0.1
		c-0.1,0-0.1,0-0.2,0l0,0l0,0c-0.1,0-0.2,0-0.3,0l0,0c0,0-0.1,0-0.2,0s-0.1,0-0.2,0l0,0c-0.1,0-0.2,0-0.4,0l0,0c-0.1,0-0.2,0-0.4,0
		c0.1,0,0.2,0,0.2,0c8.4-0.6,15-7.6,15-16.1c0-8.9-7.2-16.2-16.1-16.2c-4.1,0-7.8,1.5-10.7,4l-0.1,0.1c2.6-2.9,4.2-6.7,4.2-10.8
		c0-8.9-7.2-16.2-16.1-16.2s-16.2,7.2-16.2,16.2c0-0.1,0-0.3,0-0.4c-0.2-8.7-7.4-15.7-16.1-15.7c-8.9,0-16.2,7.2-16.2,16.2
		c0,4.2,1.6,8,4.2,10.8c-0.1-0.1-0.1-0.1-0.2-0.1c-2.8-2.5-6.6-4-10.6-4c-8.9,0-16.1,7.2-16.1,16.2c0,0.3,0,0.7,0,1
		c0,0.1,0,0.1,0,0.2c0,0.2,0,0.5,0.1,0.7c0.1,0.5,0.1,1,0.2,1.5c0.1,0.2,0.1,0.5,0.2,0.8v0.1c0.1,0.2,0.1,0.5,0.2,0.7
		c0.2,0.8,0.5,1.5,0.9,2.2c0.1,0.2,0.2,0.4,0.3,0.6c0.2,0.3,0.3,0.6,0.5,0.9c0.1,0.2,0.3,0.4,0.4,0.6s0.3,0.4,0.4,0.6
		c0.2,0.3,0.5,0.6,0.8,0.9c0.2,0.3,0.5,0.6,0.8,0.8c0.1,0.1,0.2,0.2,0.4,0.3c0,0,0,0,0.1,0c0.2,0.2,0.4,0.4,0.6,0.5
		c0.3,0.2,0.5,0.4,0.8,0.6s0.6,0.4,0.8,0.6l0,0c0.2,0.2,0.5,0.3,0.7,0.4c0.9,0.5,1.8,0.9,2.8,1.2c0.3,0.1,0.6,0.2,0.8,0.2
		c0.3,0.1,0.5,0.1,0.8,0.2c0.2,0,0.3,0.1,0.5,0.1s0.5,0.1,0.7,0.1c0.3,0,0.6,0.1,0.9,0.1c0.1,0,0.2,0,0.3,0c-0.6,0-1.1,0.1-1.6,0.2"
		/>
	<path class="st3" d="M1694.3,1539.4c-0.9,0.9-1.4,2-1.4,3.4h-33.6c-0.2,0-0.3,0-0.5,0s-0.3,0-0.5,0h-0.7c-0.3,0-0.6-0.1-0.9-0.1
		c-0.2,0-0.5-0.1-0.7-0.1s-0.3-0.1-0.5-0.1c-0.3-0.1-0.5-0.1-0.8-0.2s-0.6-0.2-0.8-0.2c-1-0.3-1.9-0.7-2.8-1.2
		c-0.2-0.1-0.5-0.3-0.7-0.4l0,0c-0.3-0.2-0.6-0.4-0.8-0.6c-0.3-0.2-0.5-0.4-0.8-0.6c-0.2-0.2-0.4-0.3-0.6-0.5l0,0
		c-0.1-0.1-0.3-0.2-0.4-0.3c-0.3-0.3-0.6-0.5-0.8-0.8c-0.3-0.3-0.5-0.6-0.8-0.9c-0.1-0.2-0.3-0.4-0.4-0.6s-0.3-0.4-0.4-0.6
		c-0.2-0.3-0.4-0.6-0.5-0.9c-0.1-0.2-0.2-0.4-0.3-0.6c-0.3-0.7-0.6-1.4-0.9-2.2c-0.1-0.2-0.2-0.5-0.2-0.7v-0.1
		c-0.1-0.2-0.1-0.5-0.2-0.8c-0.1-0.5-0.2-1-0.2-1.5c0-0.2-0.1-0.5-0.1-0.7c0-0.1,0-0.1,0-0.2c0-0.3,0-0.7,0-1
		c0-8.9,7.2-16.2,16.1-16.2c4.1,0,7.8,1.5,10.6,4l0.4,0.4c0.2,0.2,0.4,0.4,0.6,0.5l0.6,0.6L1694.3,1539.4z"/>
	<path class="st3" d="M1752.7,1526.6c0,8.5-6.6,15.5-15,16.1h-0.6c-0.2,0-0.3,0-0.5,0s-0.3,0-0.5,0h-33.8c0-1.3-0.5-2.5-1.4-3.4
		l23.4-23.4l0.4-0.4c0.3-0.2,0.5-0.5,0.8-0.8l0.3-0.3c2.8-2.5,6.6-4,10.7-4C1745.5,1510.5,1752.7,1517.7,1752.7,1526.6z"/>
</g>
<g>
	<circle class="st2" cx="2342.6" cy="1606.1" r="61.5"/>
	<path class="st3" d="M2337.9,1676.2c17,0,32.4-6.9,43.5-18"/>
	<path class="st3" d="M2342.6,1614.7c0,1.3-0.5,2.5-1.4,3.4s-2,1.4-3.4,1.4s-2.5-0.5-3.4-1.4s-1.4-2-1.4-3.4c0-1.3,0.5-2.5,1.4-3.4
		s2-1.4,3.4-1.4s2.5,0.5,3.4,1.4S2342.6,1613.4,2342.6,1614.7z"/>
	<path class="st3" d="M2370.2,1575.8c0,4.2-1.6,8-4.2,10.9l0,0c-0.4,0.4-0.8,0.7-1.2,1.2c0,0.1-0.1,0.1-0.1,0.2l-23.4,23.4
		c-0.9-0.9-2-1.4-3.4-1.4v-33.8c0-0.1,0-0.3,0-0.4c0-8.9,7.2-16.1,16.1-16.1S2370.2,1566.8,2370.2,1575.8z"/>
	<path class="st3" d="M2370.3,1653.8c0,8.9-7.3,16.2-16.2,16.2s-16.1-7.1-16.2-16c0,0,0,0,0-0.1v-0.1v-0.3c0-0.1,0-0.2,0-0.2v-33.8
		c1.3,0,2.5-0.5,3.4-1.4l23,23c0.1,0.1,0.2,0.2,0.2,0.3c0.6,0.7,1.2,1.3,1.9,1.9C2368.8,1646.1,2370.3,1649.8,2370.3,1653.8z"/>
	<path class="st3" d="M2337.9,1676.2c-4.2,0-8.3-0.4-12.3-1.2l0,0c-12.1-2.4-22.9-8.4-31.2-16.8c-1.3-1.3-2.6-2.7-3.8-4.2
		c-2.1-2.5-4-5.3-5.7-8.2c-5.3-9.1-8.4-19.7-8.4-31c0-1.4,0.1-2.9,0.1-4.3c0.6-8.8,3.1-17.1,7-24.5l0,0
		c10.3-19.4,30.8-32.7,54.3-32.7c34,0,61.5,27.5,61.5,61.5c0,12.4-3.7,23.9-10,33.6c-2.3,3.6-5,6.9-8,9.9"/>
	<path class="st3" d="M2366.6,1643.5l-0.5-0.5l-1.3-1.3c0.1,0.1,0.2,0.2,0.4,0.3l0.4,0.4c0,0,0,0,0.1,0.1c0,0,0,0.1,0.1,0.1
		c0.2,0.1,0.3,0.3,0.5,0.4l0.1,0.1C2366.4,1643.2,2366.6,1643.3,2366.6,1643.5c0.1,0,0.1,0,0.1,0c0.2,0.1,0.3,0.3,0.5,0.4
		s0.4,0.3,0.5,0.4s0.2,0.1,0.3,0.2s0.2,0.1,0.3,0.2s0.2,0.1,0.3,0.2l0,0c0.1,0,0.1,0.1,0.2,0.1c0.1,0,0.2,0.1,0.3,0.2
		c0.3,0.2,0.6,0.3,0.9,0.5c0.1,0,0.2,0.1,0.4,0.2c0.1,0,0.2,0.1,0.3,0.1c0.4,0.2,0.9,0.3,1.3,0.5c0.1,0,0.2,0.1,0.4,0.1
		c0.2,0.1,0.5,0.1,0.8,0.2c0.1,0,0.3,0.1,0.4,0.1c0.1,0,0.2,0,0.3,0.1c0.1,0,0.2,0,0.3,0.1c0.2,0,0.4,0.1,0.6,0.1c0.1,0,0.2,0,0.3,0
		s0.2,0,0.2,0c0.1,0,0.2,0,0.3,0c0.2,0,0.5,0,0.7,0h0.9c0.3,0,0.5,0,0.8,0c0.1,0,0.1,0,0.2,0c0.2,0,0.4,0,0.6-0.1h0.1
		c0.1,0,0.2,0,0.4-0.1c0.3,0,0.5-0.1,0.8-0.1c0.1,0,0.3-0.1,0.4-0.1c0.2,0,0.3-0.1,0.5-0.1c0.1,0,0.1,0,0.2-0.1
		c0.1,0,0.3-0.1,0.5-0.1c0.1,0,0.3-0.1,0.4-0.1c0.1,0,0.1-0.1,0.2-0.1c0.2,0,0.3-0.1,0.5-0.2c0.1,0,0.2-0.1,0.4-0.1l0.4-0.2
		c0.1,0,0.2-0.1,0.3-0.1c0.1-0.1,0.3-0.1,0.4-0.2c0.1-0.1,0.2-0.1,0.3-0.2s0.2-0.1,0.3-0.2s0.2-0.1,0.4-0.2l0.3-0.2
		c0.1-0.1,0.2-0.1,0.3-0.2s0.2-0.1,0.3-0.2c0.2-0.1,0.4-0.3,0.6-0.4c0.1-0.1,0.2-0.2,0.3-0.2c0.1-0.1,0.2-0.2,0.3-0.2
		c0.1-0.1,0.2-0.2,0.3-0.2c0.1-0.1,0.2-0.2,0.3-0.3c0.1-0.1,0.2-0.2,0.3-0.3c0.4-0.4,0.7-0.7,1.1-1.1l0,0c0.1-0.1,0.2-0.2,0.2-0.3
		c0.1-0.2,0.2-0.3,0.4-0.5c0.1-0.2,0.2-0.3,0.4-0.5c0.1-0.2,0.3-0.4,0.4-0.6c0.1-0.2,0.3-0.4,0.4-0.6c0-0.1,0.1-0.2,0.1-0.3
		c0.1-0.1,0.1-0.2,0.2-0.4c0.1-0.1,0.1-0.3,0.2-0.4c0.1-0.1,0.1-0.2,0.2-0.3c0-0.1,0.1-0.2,0.1-0.3v-0.1c0-0.1,0.1-0.2,0.1-0.3v-0.1
		c0,0,0-0.1,0.1-0.2c0-0.1,0-0.1,0.1-0.2c0-0.1,0.1-0.2,0.1-0.3c0-0.1,0.1-0.2,0.1-0.3c0.1-0.1,0.1-0.3,0.1-0.4l0,0
		c0-0.1,0.1-0.3,0.1-0.4c0,0,0,0,0-0.1s0,0,0,0c0.1-0.2,0.1-0.4,0.2-0.7l0,0c0-0.1,0-0.1,0-0.2s0-0.2,0-0.2c0-0.1,0-0.2,0.1-0.4l0,0
		c0-0.1,0-0.2,0.1-0.4l0,0c0-0.1,0-0.1,0-0.1c0-0.1,0-0.1,0-0.1v-0.1v-0.1c0-0.1,0-0.2,0-0.2v-0.1c0-0.1,0-0.2,0-0.3v-0.1v-0.1
		c0-0.1,0-0.2,0-0.3c0-0.1,0-0.2,0-0.4c0-0.3,0-0.5,0-0.8c0-0.1,0-0.2,0-0.3c0-0.1,0-0.1,0-0.2s0-0.1,0-0.2l0,0c0-0.1,0-0.2,0-0.4
		c0,0,0,0,0-0.1c0-0.2-0.1-0.5-0.1-0.7c0-0.1,0-0.2,0-0.2c0-0.1,0-0.2-0.1-0.3c0-0.1,0-0.1,0-0.2c0-0.2-0.1-0.3-0.1-0.5l0,0
		c-0.1-0.2-0.1-0.4-0.1-0.6c0-0.1-0.1-0.2-0.1-0.4s-0.1-0.2-0.1-0.3c0-0.1-0.1-0.3-0.1-0.4c-0.1-0.2-0.2-0.4-0.2-0.7
		c-0.1-0.1-0.1-0.2-0.1-0.3c-0.1-0.2-0.2-0.5-0.3-0.7c0,0-0.1-0.1-0.1-0.2s-0.1-0.2-0.2-0.3l-0.1-0.1v-0.1c-0.1-0.1-0.1-0.2-0.2-0.3
		c-0.1-0.2-0.2-0.3-0.3-0.5s-0.2-0.3-0.3-0.5c-0.1-0.1-0.2-0.2-0.3-0.4c-0.1-0.2-0.2-0.3-0.4-0.5l0,0c-0.1-0.1-0.1-0.2-0.2-0.3
		c-0.1-0.1-0.2-0.3-0.4-0.4c-0.1-0.1-0.2-0.3-0.4-0.4c-0.1-0.1-0.2-0.2-0.2-0.3c-0.1-0.1-0.2-0.2-0.3-0.2l0,0
		c-0.1-0.1-0.3-0.3-0.4-0.4c-0.1-0.1-0.3-0.2-0.4-0.4c0,0,0,0-0.1,0c-0.1-0.1-0.2-0.1-0.2-0.2c-0.2-0.2-0.5-0.3-0.7-0.5
		c-0.1-0.1-0.2-0.2-0.4-0.2c-0.1-0.1-0.2-0.2-0.4-0.2c-0.1-0.1-0.2-0.1-0.3-0.2c-0.2-0.1-0.4-0.2-0.6-0.4l0,0
		c-0.1-0.1-0.3-0.1-0.4-0.2c-0.1,0-0.2-0.1-0.2-0.1c-0.1,0-0.1-0.1-0.2-0.1h-0.1c-0.1-0.1-0.3-0.1-0.5-0.2c0,0,0,0-0.1,0s0,0-0.1,0
		s-0.2-0.1-0.3-0.1c-0.2-0.1-0.4-0.1-0.5-0.2c-0.2-0.1-0.4-0.2-0.7-0.2c-0.1,0-0.1,0-0.2-0.1c-0.1,0-0.2-0.1-0.3-0.1s-0.1,0-0.1,0
		c-0.1,0-0.3-0.1-0.4-0.1h-0.1l0,0l0,0c-0.2,0-0.4-0.1-0.7-0.1h-0.1c-0.1,0-0.1,0-0.2,0l0,0l0,0c-0.1,0-0.2,0-0.3,0l0,0
		c-0.1,0-0.1,0-0.2,0c-0.1,0-0.1,0-0.2,0l0,0c-0.1,0-0.2,0-0.4,0l0,0c-0.1,0-0.2,0-0.4,0c0.1,0,0.2,0,0.2,0c8.4-0.6,15-7.6,15-16.1
		c0-8.9-7.2-16.2-16.1-16.2c-4.1,0-7.8,1.5-10.7,4l-0.1,0.1c2.6-2.9,4.2-6.7,4.2-10.8c0-8.9-7.2-16.2-16.1-16.2
		c-8.9,0-16.1,7.2-16.1,16.2c0-0.1,0-0.3,0-0.4c-0.2-8.7-7.4-15.7-16.1-15.7c-8.9,0-16.1,7.2-16.1,16.2c0,4.2,1.6,8,4.2,10.8
		c-0.1-0.1-0.1-0.1-0.2-0.1c-2.8-2.5-6.6-4-10.6-4c-8.9,0-16.1,7.2-16.1,16.2c0,0.3,0,0.7,0,1c0,0.1,0,0.1,0,0.2
		c0,0.2,0,0.5,0.1,0.7c0.1,0.5,0.1,1,0.2,1.5c0.1,0.2,0.1,0.5,0.2,0.8v0.1c0.1,0.2,0.1,0.5,0.2,0.7c0.2,0.8,0.5,1.5,0.9,2.2
		c0.1,0.2,0.2,0.4,0.3,0.6c0.2,0.3,0.4,0.6,0.5,0.9c0.1,0.2,0.3,0.4,0.4,0.6c0.1,0.2,0.3,0.4,0.4,0.6c0.2,0.3,0.5,0.6,0.8,0.9
		c0.2,0.3,0.5,0.6,0.8,0.8c0.1,0.1,0.2,0.2,0.4,0.3l0,0c0.2,0.2,0.4,0.4,0.6,0.5c0.3,0.2,0.5,0.4,0.8,0.6s0.5,0.4,0.8,0.6l0,0
		c0.2,0.2,0.5,0.3,0.7,0.4c0.9,0.5,1.8,0.9,2.8,1.2c0.3,0.1,0.6,0.2,0.8,0.2c0.3,0.1,0.5,0.1,0.8,0.2c0.1,0,0.3,0.1,0.4,0.1
		c0.2,0,0.5,0.1,0.7,0.1c0.3,0,0.6,0.1,0.9,0.1c0.1,0,0.2,0,0.3,0c-0.6,0-1.1,0.1-1.6,0.2"/>
	<path class="st3" d="M2334.5,1611.4c-0.9,0.9-1.4,2-1.4,3.4h-33.6c-0.2,0-0.3,0-0.5,0s-0.3,0-0.5,0h-0.7c-0.3,0-0.6-0.1-0.9-0.1
		c-0.2,0-0.5-0.1-0.7-0.1s-0.3,0-0.4-0.1c-0.3-0.1-0.5-0.1-0.8-0.2s-0.6-0.2-0.8-0.2c-1-0.3-1.9-0.7-2.8-1.2
		c-0.2-0.1-0.5-0.3-0.7-0.4l0,0c-0.3-0.2-0.6-0.4-0.8-0.6c-0.3-0.2-0.6-0.4-0.8-0.6s-0.4-0.3-0.6-0.5l0,0c-0.1-0.1-0.3-0.2-0.4-0.4
		c-0.3-0.3-0.6-0.5-0.8-0.8c-0.3-0.3-0.5-0.6-0.8-0.9c-0.1-0.2-0.3-0.4-0.4-0.6c-0.1-0.2-0.3-0.4-0.4-0.6c-0.2-0.3-0.4-0.6-0.5-0.9
		c-0.1-0.2-0.2-0.4-0.3-0.6c-0.3-0.7-0.6-1.4-0.9-2.2c-0.1-0.2-0.2-0.5-0.2-0.7v-0.1c-0.1-0.2-0.1-0.5-0.2-0.8
		c-0.1-0.5-0.2-1-0.2-1.5c0-0.2-0.1-0.5-0.1-0.7c0-0.1,0-0.1,0-0.2c0-0.3,0-0.7,0-1c0-8.9,7.2-16.2,16.1-16.2c4.1,0,7.8,1.5,10.6,4
		l0.4,0.4c0.2,0.2,0.4,0.4,0.6,0.5l0.6,0.6L2334.5,1611.4z"/>
	<path class="st3" d="M2392.9,1598.6c0,8.5-6.6,15.5-15,16.1h-0.6c-0.2,0-0.3,0-0.5,0s-0.3,0-0.5,0h-33.8c0-1.3-0.5-2.5-1.4-3.4
		l23.4-23.4l0.4-0.4c0.3-0.2,0.5-0.5,0.8-0.8l0.3-0.3c2.8-2.5,6.6-4,10.7-4C2385.7,1582.5,2392.9,1589.7,2392.9,1598.6z"/>
</g>
<path class="st3" d="M1725.8,1514.6L1725.8,1514.6l-0.2,0.2c-0.2,0.3-0.5,0.5-0.8,0.8l-0.4,0.4c0-0.1,0.1-0.1,0.1-0.2
	C1725,1515.4,1725.3,1515,1725.8,1514.6C1725.7,1514.6,1725.8,1514.6,1725.8,1514.6z"/>
<path class="st3" d="M1737.7,1542.7c-0.1,0-0.2,0-0.2,0l0,0c-0.3,0-0.6,0-0.9,0s-0.6,0-0.8,0l0,0c-0.1,0-0.2,0-0.3,0h0.8
	c0.1,0,0.3,0,0.5,0s0.3,0,0.5,0H1737.7z"/>
<path class="st3" d="M1659.7,1542.7c-0.3,0-0.6,0-0.9,0s-0.6,0-0.9,0c0.1,0,0.3,0,0.4,0c0.2,0,0.3,0,0.5,0s0.3,0,0.5,0
	C1659.4,1542.7,1659.5,1542.7,1659.7,1542.7z"/>
<path class="st3" d="M1752.8,1558.1c0-0.1,0-0.2,0-0.3c0-0.1,0-0.1,0-0.2s0-0.1,0-0.2l0,0c0-0.1,0-0.2,0-0.4v-0.1
	c0-0.2-0.1-0.5-0.1-0.7c0-0.1,0-0.2,0-0.2c0-0.1,0-0.2-0.1-0.3c-0.1-0.4-0.2-0.8-0.3-1.2c-0.1-0.4-0.2-0.7-0.4-1.1c0,0,0,0,0-0.1
	c-0.1-0.2-0.2-0.4-0.3-0.7c-0.1-0.2-0.1-0.3-0.2-0.5c-0.1-0.1-0.1-0.3-0.2-0.4c0-0.1-0.1-0.2-0.1-0.3c-0.1-0.1-0.1-0.2-0.2-0.3
	l-0.1-0.1l0,0l0,0c-0.1-0.1-0.2-0.3-0.2-0.4c-0.1-0.2-0.2-0.3-0.3-0.5c-0.1-0.2-0.2-0.3-0.3-0.5l0,0c-0.1-0.2-0.2-0.3-0.4-0.5
	c-0.1-0.2-0.2-0.3-0.4-0.5c-0.1-0.1-0.2-0.3-0.4-0.4c0,0,0-0.1-0.1-0.1c-0.1-0.1-0.2-0.2-0.4-0.4l0,0c-0.1-0.1-0.3-0.3-0.4-0.4
	s-0.2-0.2-0.4-0.4c-0.2-0.2-0.3-0.3-0.5-0.5c-0.2-0.1-0.3-0.2-0.5-0.4c-0.2-0.1-0.4-0.3-0.6-0.4c-0.1-0.1-0.2-0.2-0.4-0.2
	c-0.1-0.1-0.2-0.1-0.3-0.2c-0.1-0.1-0.3-0.2-0.4-0.2c-0.2-0.1-0.4-0.2-0.7-0.4c-0.1,0-0.2-0.1-0.3-0.2c-0.1,0-0.2-0.1-0.2-0.1
	c-0.1,0-0.1-0.1-0.2-0.1l0,0c-0.2-0.1-0.4-0.2-0.6-0.2c0,0,0,0-0.1,0s-0.3-0.1-0.4-0.1c-0.1-0.1-0.3-0.1-0.4-0.1h-0.1
	c-0.1,0-0.2-0.1-0.3-0.1c-0.1,0-0.2-0.1-0.3-0.1c-0.1,0-0.2,0-0.2-0.1c-0.1,0-0.2-0.1-0.3-0.1c-0.1,0-0.2,0-0.2-0.1
	c-0.1,0-0.2-0.1-0.4-0.1h-0.1c0,0,0,0-0.1,0c-0.2-0.1-0.4-0.1-0.7-0.1h-0.1c-0.1,0-0.1,0-0.2,0l0,0l0,0c-0.1,0-0.2,0-0.3,0l0,0
	c-0.1,0-0.1,0-0.2,0s-0.1,0-0.2,0l0,0c-0.1,0-0.1,0-0.2,0s-0.1,0-0.2,0l0,0c-0.1,0-0.2,0-0.4,0l0,0c-0.3,0-0.6,0-0.9,0s-0.6,0-0.8,0
	l0,0l0,0c-0.1,0-0.2,0-0.3,0h-33c0,1.3-0.5,2.5-1.4,3.4l23,23l0.6,0.6c0.1,0.1,0.2,0.2,0.4,0.4l0.4,0.4c0,0,0,0,0.1,0.1
	c0,0,0,0.1,0.1,0.1c0.2,0.1,0.3,0.3,0.5,0.4l0.1,0.1c0.1,0.1,0.3,0.2,0.4,0.3l0,0c0.2,0.1,0.3,0.3,0.5,0.4s0.4,0.3,0.5,0.4
	s0.2,0.1,0.3,0.2c0.1,0.1,0.2,0.1,0.3,0.2c0.1,0.1,0.2,0.1,0.3,0.2l0,0c0.1,0,0.1,0.1,0.2,0.1c0.1,0.1,0.2,0.1,0.3,0.2
	c0.3,0.2,0.6,0.3,0.9,0.4c0.1,0.1,0.2,0.1,0.3,0.1c0.1,0.1,0.2,0.1,0.3,0.2c0.4,0.2,0.9,0.3,1.3,0.5c0.1,0,0.2,0.1,0.4,0.1
	c0.2,0.1,0.5,0.1,0.8,0.2c0.1,0,0.3,0.1,0.4,0.1s0.2,0,0.3,0.1c0.1,0,0.2,0,0.3,0.1c0.2,0,0.4,0,0.6,0.1c0.1,0,0.2,0,0.3,0
	c0.1,0,0.2,0,0.2,0c0.1,0,0.2,0,0.3,0c0.2,0,0.5,0,0.7,0h0.9c0.3,0,0.5,0,0.8,0c0.1,0,0.1,0,0.2,0c0.2,0,0.4,0,0.6-0.1
	c0,0,0,0,0.1,0s0.2,0,0.4-0.1c0.3,0,0.5-0.1,0.8-0.1c0.1,0,0.3-0.1,0.4-0.1c0.2,0,0.3-0.1,0.5-0.1c0.1,0,0.1,0,0.2-0.1
	c0.2,0,0.3-0.1,0.5-0.1c0.1,0,0.3-0.1,0.4-0.1s0.1,0,0.2-0.1c0.2,0,0.3-0.1,0.5-0.2c0.1,0,0.2-0.1,0.4-0.1l0.4-0.2
	c0.1,0,0.2-0.1,0.3-0.1c0.1-0.1,0.3-0.1,0.4-0.2s0.2-0.1,0.3-0.2c0.1,0,0.2-0.1,0.3-0.2c0.1-0.1,0.2-0.1,0.4-0.2l0.3-0.2
	c0.1-0.1,0.2-0.1,0.3-0.2c0.1-0.1,0.2-0.1,0.3-0.2c0.2-0.1,0.4-0.3,0.6-0.5c0.1-0.1,0.2-0.2,0.3-0.2c0.1-0.1,0.2-0.2,0.3-0.2
	c0.1-0.1,0.2-0.2,0.3-0.2c0.1-0.1,0.2-0.2,0.3-0.3c0.1-0.1,0.2-0.2,0.3-0.3c0.4-0.4,0.7-0.7,1.1-1.1l0,0c0.1-0.1,0.2-0.2,0.2-0.3
	c0.1-0.2,0.2-0.3,0.4-0.5c0.1-0.2,0.2-0.3,0.3-0.5c0.1-0.2,0.3-0.4,0.4-0.6c0.1-0.1,0.1-0.2,0.2-0.3c0.1-0.1,0.1-0.2,0.2-0.3
	c0-0.1,0.1-0.2,0.2-0.3l0,0c0,0,0-0.1,0.1-0.1c0-0.1,0.1-0.1,0.1-0.2c0.1-0.1,0.1-0.3,0.2-0.4s0.1-0.2,0.2-0.3
	c0-0.1,0.1-0.2,0.1-0.3c0,0,0,0,0-0.1s0.1-0.2,0.1-0.3v-0.1c0,0,0-0.1,0.1-0.2c0-0.1,0-0.1,0.1-0.2c0-0.1,0.1-0.2,0.1-0.3
	c0-0.1,0.1-0.2,0.1-0.3c0.1-0.1,0.1-0.3,0.1-0.4l0,0c0-0.1,0.1-0.3,0.1-0.4l0,0l0,0c0.1-0.2,0.1-0.4,0.2-0.7l0,0c0-0.1,0-0.1,0-0.2
	s0-0.1,0-0.2s0-0.2,0.1-0.4l0,0c0-0.1,0-0.2,0.1-0.4l0,0v-0.1c0-0.1,0-0.1,0-0.1v-0.1v-0.1c0-0.1,0-0.2,0-0.4c0-0.1,0-0.2,0-0.3
	v-0.1c0-0.1,0-0.1,0-0.1c0-0.1,0-0.2,0-0.3c0-0.1,0-0.2,0-0.4C1752.8,1558.6,1752.8,1558.4,1752.8,1558.1z"/>
<path class="st3" d="M1734.5,1542.9c-0.2,0-0.4,0.1-0.7,0.1c0.1,0,0.2,0,0.3-0.1C1734.3,1542.9,1734.4,1542.9,1734.5,1542.9z"/>
<path class="st3" d="M1735.6,1542.8c-0.1,0-0.2,0-0.3,0C1735.4,1542.8,1735.4,1542.8,1735.6,1542.8
	C1735.5,1542.8,1735.5,1542.8,1735.6,1542.8z"/>
<path class="st3" d="M1735.7,1542.8C1735.7,1542.8,1735.6,1542.8,1735.7,1542.8C1735.6,1542.8,1735.6,1542.8,1735.7,1542.8
	L1735.7,1542.8z"/>
<path class="st3" d="M1737.4,1542.7c-0.3,0-0.6,0-0.9,0s-0.6,0-0.8,0c0.1,0,0.3,0,0.4,0l0,0c0.1,0,0.3,0,0.5,0s0.3,0,0.5,0l0,0
	C1737.2,1542.7,1737.3,1542.7,1737.4,1542.7z"/>
<path class="st3" d="M1751.3,1565.7c0.1-0.1,0.1-0.2,0.1-0.3c-2.5,5.7-8.2,9.7-14.8,9.7c-3.9,0-7.4-1.4-10.2-3.6
	c-0.1-0.1-0.1-0.1-0.2-0.2c-0.7-0.6-1.3-1.2-1.9-1.9c-0.1-0.1-0.2-0.2-0.2-0.3l0.6,0.6c0.1,0.1,0.3,0.2,0.4,0.3l0.2,0.2l0.1,0.1
	c0,0,0,0,0.1,0.1c0,0,0,0,0.1,0.1s0.3,0.3,0.5,0.4l0.1,0.1c0.1,0.1,0.3,0.2,0.4,0.3l0,0c0.2,0.1,0.3,0.3,0.5,0.4s0.4,0.3,0.5,0.4
	s0.2,0.1,0.3,0.2c0.1,0.1,0.2,0.1,0.3,0.2c0.1,0.1,0.2,0.1,0.3,0.2l0,0c0.1,0,0.1,0.1,0.2,0.1c0.1,0.1,0.2,0.1,0.3,0.2
	c0.3,0.2,0.6,0.3,0.9,0.4c0.1,0.1,0.2,0.1,0.3,0.2c0.1,0.1,0.2,0.1,0.4,0.1c0.4,0.2,0.9,0.3,1.3,0.5c0.1,0,0.3,0.1,0.4,0.1
	c0.3,0.1,0.5,0.1,0.8,0.2c0.1,0,0.3,0.1,0.4,0.1s0.2,0,0.3,0.1c0.1,0,0.2,0,0.3,0.1c0.2,0,0.4,0.1,0.6,0.1c0.1,0,0.2,0,0.3,0
	c0.1,0,0.2,0,0.2,0c0.1,0,0.2,0,0.3,0c0.2,0,0.5,0,0.7,0s0.3,0,0.5,0c0.1,0,0.3,0,0.4,0c0.3,0,0.5,0,0.8,0c0.1,0,0.1,0,0.2,0
	c0.2,0,0.4,0,0.6-0.1h0.1c0.1,0,0.3,0,0.4-0.1c0.3,0,0.5-0.1,0.8-0.1c0.1,0,0.3-0.1,0.4-0.1c0.2,0,0.3-0.1,0.5-0.1
	c0.1,0,0.1,0,0.2,0c0.2,0,0.3-0.1,0.5-0.1c0.1,0,0.3-0.1,0.4-0.1s0.1,0,0.2-0.1c0.2-0.1,0.3-0.1,0.5-0.2c0.1,0,0.2-0.1,0.4-0.1
	c0.1-0.1,0.2-0.1,0.4-0.2c0.1,0,0.2-0.1,0.3-0.1c0.1-0.1,0.3-0.1,0.4-0.2s0.2-0.1,0.3-0.2c0.1-0.1,0.2-0.1,0.3-0.2
	c0.1-0.1,0.3-0.1,0.4-0.2s0.2-0.1,0.3-0.2c0.1-0.1,0.2-0.1,0.3-0.2c0.1-0.1,0.2-0.1,0.3-0.2c0.2-0.1,0.4-0.3,0.6-0.5
	c0.1-0.1,0.2-0.2,0.3-0.2c0.1-0.1,0.2-0.2,0.3-0.2s0.2-0.2,0.3-0.3c0.1-0.1,0.2-0.2,0.3-0.3c0.1-0.1,0.2-0.2,0.3-0.3
	c0.4-0.4,0.7-0.7,1.1-1.1l0,0c0.1-0.1,0.1-0.2,0.2-0.3c0.1-0.2,0.3-0.3,0.4-0.5s0.2-0.3,0.4-0.5c0.1-0.2,0.3-0.4,0.4-0.6
	s0.3-0.4,0.4-0.6c0.1-0.1,0.1-0.2,0.1-0.3c0.1-0.1,0.1-0.3,0.2-0.4C1751.1,1566,1751.2,1565.9,1751.3,1565.7z"/>
<path class="st3" d="M2715.7,922L2557,396.7c0,0-10.8-48.3-40.8,12.5s-55.3,110-55.3,110"/>
<path class="st3" d="M2801.7,1846.5L2643,1321.2c0,0-10.8-48.3-40.8,12.5s-55.3,110-55.3,110"/>
<path class="st3" d="M1652.6,1572.6c-0.6,0.1-1.2,0.2-1.9,0.3c-0.1,0-0.2,0-0.4,0.1c-1.9,0.3-3.8,0.6-5.8,0.9
	c-3.5,0.5-7.1,0.9-10.9,1.4c-22.2,2.5-49.1,4-78.2,4c-73.1,0-132.8-9.4-136.8-21.3l0,0v-0.1c-0.1-0.4-0.2-0.8-0.2-1.2
	c0-12.4,61.3-22.5,137-22.5c30.2,0,58.2,1.6,80.8,4.3c1.3,0.2,2.7,0.3,4,0.5c3.5,0.4,6.8,0.9,10,1.4l0,0c4.7,0.7,9,1.5,13,2.4
	c0.3,0.1,0.6,0.1,0.9,0.2h-7.9"/>
<path class="st3" d="M1664.2,1542.9c17.8,3.8,28.3,8.6,28.3,13.7c0,0.4-0.1,0.8-0.2,1.2c0,0,0,0,0,0.1l0,0
	c-0.9,2.7-4.7,5.2-10.8,7.6c-4.5,1.8-10.4,3.4-17.3,4.9"/>
<g>
	<path class="st3" d="M1660.9,2153.6c0.5,0.7,0.8,1.4,0.8,2.2c0,9.7-47.6,17.5-106.3,17.5c-58.7,0-106.3-7.8-106.3-17.5
		c0-0.7,0.3-1.5,0.8-2.2"/>
	<path class="st3" d="M1429.9,1632.4c-0.2-1.6-0.5-3.2-0.7-4.7"/>
	<path class="st3" d="M1436.1,1677.5c19.7,148.5,45.1,391.3,13.9,476c-0.3,0.7-0.6,1.5-0.8,2.2"/>
	<path class="st3" d="M1425.5,1602.1c-3.6-23.9-6.1-39.8-6.8-44.2l0,0v-0.1c-0.1-0.8-0.2-1.2-0.2-1.2"/>
	<path class="st3" d="M1648.7,2088.3c-0.3-3-0.5-6.1-0.7-9.3"/>
	<path class="st3" d="M1652.9,2121.9c2.1,12.1,4.8,22.8,8,31.7c0.3,0.7,0.5,1.5,0.8,2.2"/>
	<path class="st3" d="M1646.3,2020.9c0.2-139.4,26.1-331,39.1-417.9l0,0c0.3-2,0.6-3.9,0.8-5.7l0,0c0.1-0.4,0.1-0.9,0.2-1.3
		c0.1-0.8,0.2-1.6,0.4-2.4c2.9-19.2,4.9-31.8,5.6-35.7l0,0v-0.1c0.1-0.8,0.2-1.2,0.2-1.2"/>
</g>
<ellipse class="st5" cx="1555.5" cy="1616" rx="113.9" ry="18.7"/>
<path class="st3" d="M1664.2,1570.4c-3.6,0.8-7.5,1.5-11.6,2.2"/>
<polyline class="st3" points="1697.6,1582.3 1697.6,1582 1697.6,1574.1 "/>
<line class="st3" x1="1650.3" y1="1572.9" x2="1650.3" y2="1572.6"/>
<path class="st3" d="M1557.9,1768.7l-51.7,12.9c-9.6,2.4-19.4-3.5-21.8-13.1L1472,1719c-2.4-9.6,3.5-19.4,13.1-21.8l51.7-12.9
	c9.6-2.4,19.4,3.5,21.8,13.1l12.4,49.5C1573.4,1756.5,1567.5,1766.3,1557.9,1768.7z"/>
<path class="st2" d="M1943.1,1687.5c0.2,0.4,0.4,0.8,0.6,1.1c30.3,54.6,97,94.9,171.4,94.9c75,0,142.2-40.8,172.1-96H1943.1z"/>
<path class="st3" d="M1582.1,1868.8l-51.4-14.1c-9.5-2.6-15.2-12.6-12.6-22.1l13.5-49.2c2.6-9.5,12.6-15.2,22.1-12.6l51.4,14.1
	c9.5,2.6,15.2,12.6,12.6,22.1l-13.5,49.2C1601.6,1865.7,1591.7,1871.4,1582.1,1868.8z"/>
<path class="st3" d="M2007.4,1607.5c-4.9,0.3-9.7,0.7-14.4,1"/>
<path class="st3" d="M2218.4,1607.2c21.7,1.3,41.3,3.1,58,5.2c1.7,0.2,3.4,0.4,5.1,0.7c34.1,4.5,55,10.5,55.4,17c0,0.1,0,0.1,0,0.2
	c0,0.7-0.2,1.4-0.7,2c-3.2,4.9-17.9,9.4-41,13.1c-3.1,0.5-6.4,1-9.9,1.5c-33.9,4.7-82,8-136.7,9c-11,0.2-22.2,0.3-33.7,0.3
	c-116.7,0-212.4-10.5-221.2-23.9c-0.4-0.7-0.7-1.3-0.7-2c0-0.1,0-0.1,0-0.2c0.4-7.3,26.6-13.9,68.4-18.5"/>
<path class="st3" d="M2051.5,1605.3c20.1-0.7,41.4-1.1,63.5-1.1c13.6,0,27,0.1,40,0.4"/>
<ellipse class="st5" cx="2115.1" cy="1686.7" rx="172.2" ry="20"/>
<path class="st3" d="M2100.2,2080.6c-67.1,0.9-119.3,7.5-119.3,15.6c0,5.2,22,9.9,55.8,12.7"/>
<path class="st3" d="M2129.9,2080.6c67.1,0.9,119.3,7.5,119.3,15.6c0,8.7-60.1,15.7-134.2,15.7c-16.3,0-31.8-0.3-46.3-1"/>
<path class="st3" d="M2137.1,1795.4c94.6-9,172.6-74.9,199.2-163.2c0.2-0.7,0.4-1.5,0.7-2.2"/>
<path class="st3" d="M1893.2,1630c0.2,0.7,0.4,1.5,0.7,2.2c26.6,88.3,104.6,154.2,199.2,163.2"/>
<g>
	<path class="st3" d="M2093,1795.4c6.2,7,16.8,32.4,16.2,123.5c-0.8,124.5,2.3,148.8-9.1,161.7"/>
	<path class="st3" d="M2121,2013.5c0-3.1,0-6.4,0-9.8"/>
	<path class="st3" d="M2121,1990.1c0-19.1,0-42.5-0.2-71.1c-0.6-91.2,10-116.5,16.2-123.5"/>
	<path class="st3" d="M2129.9,2080.6c-4.9-5.5-7.1-13.2-8.1-30.1"/>
</g>
<g>
	<circle class="st3" cx="2186.9" cy="1602.5" r="31.9"/>
	<line class="st3" x1="2225.7" y1="1546.4" x2="2084.5" y2="1747.2"/>
</g>
<line class="st3" x1="1218.4" y1="2576.8" x2="1219.5" y2="2613.6"/>
<g>
	<path class="st5" d="M-1106.4,864.6c0,40.7,10.4,78.9,28.8,112.2c23.1,41.9,58.8,76,102,97c30.8,15,65.3,23.4,101.8,23.4
		c28.3,0,55.4-5,80.4-14.3c51.1-18.8,93.8-55.1,120.9-101.7c19.9-34.3,31.4-74.2,31.4-116.7"/>
	<path class="st3" d="M-1116,872.4c0,40.7,10.5,79,28.8,112.3c23.2,42,58.9,76.1,102.1,97.1c30.8,15,65.4,23.4,102,23.4
		c28.3,0,55.4-5,80.5-14.3c51.2-18.9,93.9-55.2,121-101.8c20-34.3,31.4-74.3,31.4-116.9"/>
	<polyline class="st3" points="-650.1,872.4 -689.7,872.4 -863.8,872.4 -883.1,872.4 -902.3,872.4 -1076.4,872.4 -1116,872.4 	"/>
	<path class="st3" d="M-863.8,872.4c0,3.5-0.9,6.8-2.6,9.7c-2.2,3.8-5.8,6.8-10,8.4c-2.1,0.8-4.3,1.2-6.6,1.2c-3,0-5.9-0.7-8.4-1.9
		c-3.6-1.7-6.5-4.6-8.4-8c-1.5-2.8-2.4-5.9-2.4-9.3"/>
	<line class="st3" x1="-899.9" y1="881.7" x2="-1052.5" y2="965.6"/>
	<line class="st3" x1="-715.8" y1="969.4" x2="-866.4" y2="882"/>
	<line class="st3" x1="-816.2" y1="1053.9" x2="-876.4" y2="890.4"/>
	<line class="st3" x1="-891.5" y1="889.7" x2="-967.7" y2="1046.3"/>
	<path class="st3" d="M-1080,872.4c0,108.8,88.2,196.9,197,196.9s196.9-88.2,196.9-196.9"/>
</g>
<g>
	<ellipse class="st3" cx="-929.6" cy="-617.6" rx="141.5" ry="12.5"/>
	<path class="st3" d="M-1070.9,31c-0.2,0.2-0.2,0.5-0.2,0.7s0.1,0.5,0.2,0.7c4.3,6.5,65.9,11.7,141.3,11.7
		c75.3,0,136.9-5.2,141.3-11.7c0.2-0.2,0.2-0.5,0.2-0.7s-0.1-0.5-0.2-0.7"/>
	<path class="st3" d="M-1070.9-53.2c-0.2,0.2-0.2,0.5-0.2,0.7s0.1,0.5,0.2,0.7c4.3,6.5,65.9,11.7,141.3,11.7
		c75.3,0,136.9-5.2,141.3-11.7c0.2-0.2,0.2-0.5,0.2-0.7s-0.1-0.5-0.2-0.7"/>
	<line class="st3" x1="-788.3" y1="-386.9" x2="-788.3" y2="-578.8"/>
	<polyline class="st3" points="-788.3,-280.8 -788.3,-53.3 -788.3,-51.8 -788.3,-34.2 	"/>
	<line class="st3" x1="-788.3" y1="33.5" x2="-788.3" y2="-0.5"/>
	<line class="st3" x1="-788.3" y1="-337.2" x2="-788.3" y2="-343"/>
	<polyline class="st3" points="-788.3,-606.4 -788.3,-614.1 -788.3,-616.9 	"/>
	<line class="st3" x1="-1070.9" y1="-553.5" x2="-1070.9" y2="-560.2"/>
	<polyline class="st3" points="-1070.9,-515.5 -1070.9,-53.2 -1070.9,-51.8 -1070.9,33.5 	"/>
	<polyline class="st3" points="-1070.9,-583.6 -1070.9,-616.9 -1070.9,-618.3 -1070.9,-618.3 	"/>
	<ellipse class="st5" cx="-929.6" cy="-534.2" rx="124.6" ry="11"/>
	<path class="st2" d="M-805-534.2c0,0-7.2,377-12,419.7c-3.1,28-37.8,43.4-71.7,51c-23.8,5.3-67,6.9-90.7,0.9
		c-26.4-6.6-55.2-21.2-61-53.1c-11.1-61.6-13.8-418.4-13.8-418.4c0,6.1,55.8,11,124.6,11S-805-528.2-805-534.2z"/>
	<circle class="st3" cx="-829.3" cy="-713.1" r="21.3"/>
	<line class="st3" x1="-838.9" y1="-694.3" x2="-1040.4" y2="-278.2"/>
	<path class="st3" d="M-882.6-154.2l-45.9,26.5c-8.6,4.9-19.6,2-24.6-6.6l-25.4-44c-4.9-8.6-2-19.6,6.6-24.6l45.9-26.5
		c8.6-4.9,19.6-2,24.6,6.6l25.4,44C-871.1-170.2-874-159.1-882.6-154.2z"/>
	<path class="st3" d="M-875.9-244.1l-52.9,4c-9.9,0.7-18.6-6.7-19.3-16.6l-3.8-50.7c-0.7-9.9,6.7-18.6,16.6-19.3l52.9-4
		c9.9-0.7,18.6,6.7,19.3,16.6l3.8,50.7C-858.6-253.5-866.1-244.8-875.9-244.1z"/>
	<path class="st3" d="M-873.4-333.7l-37.5,37.5c-7,7-18.5,7-25.5,0l-35.9-35.9c-7-7-7-18.5,0-25.5l37.5-37.5c7-7,18.5-7,25.5,0
		l35.9,35.9C-866.4-352.1-866.4-340.7-873.4-333.7z"/>
	<g>
		<path class="st5" d="M-917.9-504c-8.6,8.8-14.4,19.2-17.4,30.3c-3.9,13.9-3.3,28.8,1.5,42.4c3.5,9.7,9.1,18.8,17,26.5
			c6.1,6,13,10.6,20.4,13.9c15,6.7,31.8,7.9,47.5,3.6c11.5-3.2,22.4-9.4,31.4-18.6"/>
		<path class="st3" d="M-921.6-504.4c-8.6,8.8-14.4,19.2-17.5,30.3c-3.9,13.9-3.3,28.8,1.6,42.5c3.5,9.7,9.2,18.8,17,26.5
			c6.1,6,13,10.6,20.4,13.9c15,6.7,31.9,7.9,47.5,3.6c11.5-3.2,22.4-9.4,31.4-18.6"/>
		<polyline class="st3" points="-821.1,-406.2 -829.6,-414.5 -867.2,-451.2 -871.3,-455.3 -875.5,-459.3 -913,-496 -921.6,-504.4 		
			"/>
		<path class="st3" d="M-867.2-451.2c-0.7,0.8-1.6,1.3-2.6,1.5c-1.3,0.4-2.7,0.3-3.9-0.3c-0.6-0.3-1.2-0.7-1.7-1.1
			c-0.7-0.6-1.1-1.4-1.4-2.2c-0.4-1.1-0.4-2.4-0.1-3.5c0.3-0.9,0.7-1.8,1.4-2.5"/>
		<line class="st3" x1="-876.9" y1="-456.8" x2="-927.5" y2="-470.9"/>
		<line class="st3" x1="-855.7" y1="-399.1" x2="-869.8" y2="-449.7"/>
		<line class="st3" x1="-895.2" y1="-402.1" x2="-873.7" y2="-450"/>
		<line class="st3" x1="-876.8" y1="-453.3" x2="-926.2" y2="-435.6"/>
		<path class="st3" d="M-913.8-496.8c-22.9,23.5-22.5,61,1,84c23.5,22.9,61,22.5,84-1"/>
	</g>
</g>
<path class="st2" d="M1669.3,1616.8c-70.9,490.3-44.6,490.3-37.6,509c1.8,4.8,0.5,8.2-2.3,10.6c-9,9.9-38.8,17.1-74.1,17.1
	c-34,0-62.9-6.8-73-16.1c-6.8-4.4-3.5-10.5-3.5-10.5c35.2-141.7-32.4-486.9-37-509.8c-0.1-0.8-0.2-1.2-0.2-1.2h227.8
	C1669.3,1616.2,1669.3,1616.5,1669.3,1616.8z"/>
<path class="st3" d="M721.4,258.6v112.8c0.1,3.2-2.5,5.9-5.8,5.9h-116"/>
</svg>
