<?xml version="1.0" encoding="utf-8"?>
<!-- Generator: Adobe Illustrator 23.1.1, SVG Export Plug-In . SVG Version: 6.00 Build 0)  -->
<svg version="1.1" xmlns="http://www.w3.org/2000/svg" xmlns:xlink="http://www.w3.org/1999/xlink" x="0px" y="0px"
	 viewBox="0 0 492.4 792" style="enable-background:new 0 0 492.4 792;" xml:space="preserve">
<style type="text/css">
	.st0{display:none;}
	.st1{display:inline;fill:#C5CAD6;}
	.st2{fill:none;stroke:#383735;stroke-width:7;stroke-linecap:round;stroke-miterlimit:10;}
	.st3{fill:none;stroke:#000000;stroke-width:5;stroke-miterlimit:10;}
	.st4{fill:#9B450B;}
	.st5{fill:#383735;}
	.st6{fill:#273244;}
	.st7{fill:#BC520A;}
	.st8{fill:#C5CAD6;}
	.st9{fill:none;stroke:#383735;stroke-width:7;stroke-linecap:round;stroke-linejoin:round;stroke-miterlimit:10;}
	.st10{fill:none;stroke:#383735;stroke-width:2;stroke-linecap:round;stroke-linejoin:round;stroke-miterlimit:10;}
	.st11{fill:none;stroke:#383735;stroke-width:7;stroke-miterlimit:10;}
	.st12{fill:none;stroke:#383735;stroke-width:5;stroke-linecap:round;stroke-linejoin:round;stroke-miterlimit:10;}
</style>
<g id="Layer_2" class="st0">
	<rect x="-550.2" y="-59" class="st1" width="664.1" height="842"/>
</g>
<g id="Layer_1">
	
		<image style="overflow:visible;" width="359" height="600" xlink:href="../../../../../cocktail_glass_icons_collection_handdrawn_outline_6833759-1.jpg"  transform="matrix(2.6718 0 0 2.6718 -363.0738 921.9996)">
	</image>
	<path class="st2" d="M-652,258.1h-116c-3.2,0-5.8-2.6-5.8-5.8V139.5c0-3.2,2.6-5.8,5.8-5.8h116c3.2,0,5.8,2.6,5.8,5.8v112.8
		C-646.1,255.5-648.8,258.1-652,258.1z"/>
	<g>
		<circle class="st2" cx="-1070.7" cy="169" r="28.3"/>
		<line class="st2" x1="-1071.1" y1="108.4" x2="-1071.1" y2="326.4"/>
	</g>
	<circle class="st2" cx="-1175.3" cy="169" r="20.1"/>
	<line class="st2" x1="-1175.8" y1="108.4" x2="-1175.8" y2="386.7"/>
	<path class="st3" d="M-647.4,691c0,0.1,0,0.2,0.1,0.4c-0.1-0.3-0.1-0.6-0.2-0.9C-647.5,690.6-647.5,690.8-647.4,691z"/>
	<path class="st3" d="M-647.2,692.5c-0.1-0.4-0.1-0.8-0.2-1.1c0,0.2,0.1,0.4,0.1,0.6C-647.2,692.1-647.2,692.3-647.2,692.5z"/>
	<path class="st3" d="M-647,694c0-0.3-0.1-0.6-0.1-0.9c0,0.2,0.1,0.4,0.1,0.7C-647,693.9-647,693.9-647,694z"/>
	<path class="st3" d="M-647.1,693.1c0-0.2-0.1-0.4-0.1-0.6C-647.1,692.7-647.1,692.9-647.1,693.1z"/>
	<path class="st3" d="M-646.9,694.9c0-0.3-0.1-0.6-0.1-1c0,0.1,0,0.3,0,0.4C-646.9,694.6-646.9,694.8-646.9,694.9z"/>
	<path class="st3" d="M-646.7,697.1c0-0.7-0.1-1.4-0.2-2.1c0,0.4,0.1,0.8,0.1,1.1c0,0.1,0,0.2,0,0.3
		C-646.7,696.7-646.7,696.9-646.7,697.1z"/>
	<g>
		<circle class="st4" cx="-803.2" cy="654.6" r="164.7"/>
		<g>
			<path class="st2" d="M-865.1,726.9c-0.3,0.3-0.6,0.7-0.9,1c-0.5,0.6-1.1,1.2-1.6,1.7c-0.1,0.1-0.2,0.2-0.3,0.3
				c-0.5,0.5-1.1,1-1.6,1.5c-0.2,0.2-0.5,0.5-0.8,0.7l2.4-2.4L-865.1,726.9z"/>
			<path class="st2" d="M-896.9,655.9h1.8c-0.3,0-0.5,0-0.8,0c-0.8,0-1.6,0.1-2.4,0.1s-1.6,0-2.4-0.1c-0.3,0-0.5,0-0.8,0h1.8
				c0.5,0,0.9,0,1.3,0S-897.3,655.9-896.9,655.9z"/>
			<path class="st2" d="M-866.2,583.8c0.2,0.2,0.4,0.4,0.5,0.6l-1.5-1.5l-1.5-1.5l-1.2-1.2c0.2,0.1,0.3,0.3,0.4,0.4
				C-868.2,581.7-867.2,582.8-866.2,583.8L-866.2,583.8z"/>
			<path class="st2" d="M-794.2,551.7c0,0.4,0,0.7,0,1.1v-2.2C-794.2,551-794.2,551.3-794.2,551.7z"/>
			<path class="st2" d="M-781.5,655.9c0,3.5-1.4,6.7-3.7,9s-5.5,3.7-9,3.7s-6.7-1.4-9-3.7c-2.3-2.3-3.7-5.5-3.7-9s1.4-6.7,3.7-9
				c2.3-2.3,5.5-3.7,9-3.7s6.7,1.4,9,3.7C-782.9,649.3-781.5,652.4-781.5,655.9z"/>
			<path class="st2" d="M-794.2,761.8v-2.7c0,0.2,0,0.4,0,0.6v0.2v0.5c0,0.1,0,0.2,0,0.4c0,0.1,0,0.1,0,0.2
				c0.3,23.7,19.6,42.8,43.3,42.8c23.9,0,43.3-19.4,43.3-43.3c0-10.7-3.9-20.5-10.4-28.1c-1.8-1.5-3.5-3.2-5-5
				c-0.2-0.2-0.4-0.5-0.6-0.8l1.6,1.6l3.4,3.4l1.2,1.2"/>
			<path class="st2" d="M-794.2,820.4c45.4,0,86.5-18.4,116.3-48.2"/>
			<path class="st2" d="M-721.5,583.3l-1,1c0.1-0.2,0.2-0.3,0.4-0.4c1-1.1,2-2.1,3.1-3.1c0,0,0,0,0,0c0.1-0.1,0.2-0.2,0.3-0.3
				l-0.7,0.7C-720.1,581.9-720.8,582.6-721.5,583.3z"/>
			<path class="st2" d="M-694.1,656.1c-0.1,0-0.2,0-0.4,0c0,0,0,0,0,0C-694.4,656.2-694.3,656.2-694.1,656.1z"/>
			<path class="st2" d="M-692.8,656c-0.2,0-0.5,0-0.7,0c0.1,0,0.3,0,0.5,0C-692.9,656-692.9,656-692.8,656z"/>
			<path class="st2" d="M-687,655.9c-0.2,0-0.4,0-0.6,0h-0.1c-0.8,0.1-1.6,0.1-2.4,0.1c-0.8,0-1.5,0-2.2-0.1h-0.1
				c-0.3,0-0.6,0-0.9-0.1h2.1c0.4,0,0.8,0,1.2,0c0.5,0,0.9,0,1.3,0H-687z"/>
			<path class="st2" d="M-686.6,656.1L-686.6,656.1c-0.4,0-0.7,0-1-0.1C-687.3,656-687,656-686.6,656.1
				C-686.6,656-686.6,656-686.6,656.1z"/>
			<path class="st2" d="M-685.1,656.2c-0.2,0-0.3,0-0.5-0.1h0c-0.2,0-0.4,0-0.5,0c0.2,0,0.4,0,0.6,0
				C-685.4,656.2-685.2,656.2-685.1,656.2z"/>
			<path class="st2" d="M-649.3,684.3c0-0.1-0.1-0.3-0.2-0.4c-0.2-0.5-0.4-1-0.6-1.5c-0.2-0.4-0.3-0.8-0.5-1.2
				c-0.2-0.4-0.3-0.8-0.5-1.2c-0.1-0.2-0.2-0.5-0.4-0.7c-0.1-0.3-0.3-0.5-0.4-0.8c-0.1-0.1-0.1-0.2-0.2-0.3
				c-0.2-0.4-0.5-0.9-0.7-1.3c-0.3-0.5-0.6-0.9-0.9-1.4c-0.3-0.5-0.6-0.9-0.9-1.3v0c-0.3-0.4-0.6-0.9-1-1.3s-0.7-0.8-1-1.2
				c-0.3-0.4-0.6-0.8-1-1.1c-0.1-0.1-0.1-0.2-0.2-0.2c-0.3-0.3-0.6-0.7-0.9-1c0,0,0-0.1-0.1-0.1c-0.4-0.4-0.7-0.7-1.1-1.1
				c-0.3-0.3-0.7-0.6-1-0.9c-0.5-0.4-0.9-0.8-1.4-1.2c-0.4-0.3-0.8-0.7-1.2-1c-0.5-0.4-1-0.8-1.5-1.1c-0.3-0.2-0.7-0.5-1-0.7
				c-0.3-0.2-0.6-0.4-0.9-0.6c-0.3-0.2-0.7-0.4-1-0.6c-0.6-0.4-1.2-0.7-1.8-1c-0.2-0.1-0.5-0.3-0.8-0.4c-0.4-0.2-0.8-0.4-1.3-0.6
				c-0.5-0.2-1-0.5-1.5-0.7c-0.4-0.2-0.8-0.3-1.2-0.5c-0.3-0.1-0.7-0.3-1-0.4c-0.1,0-0.3-0.1-0.4-0.1c-0.3-0.1-0.6-0.2-0.8-0.3
				c-0.2-0.1-0.5-0.2-0.7-0.2c-0.2-0.1-0.5-0.1-0.7-0.2c-0.3-0.1-0.6-0.2-0.9-0.2c-0.2-0.1-0.4-0.1-0.6-0.2c-0.3-0.1-0.6-0.2-1-0.2
				c-0.7-0.2-1.4-0.3-2.1-0.4c-0.3,0-0.6-0.1-0.9-0.1c0.2,0,0.4,0.1,0.6,0.1h0c0.5,0.1,1,0.2,1.4,0.3c0.2,0,0.4,0.1,0.6,0.1
				c0,0,0.1,0,0.1,0c0,0,0.1,0,0.1,0c0.5,0.1,0.9,0.2,1.4,0.3c0.1,0,0.3,0.1,0.4,0.1c0.5,0.1,0.9,0.2,1.4,0.4
				c0.6,0.2,1.2,0.4,1.8,0.6c0.5,0.2,1,0.3,1.5,0.5c0.3,0.1,0.6,0.2,0.8,0.3c0.5,0.2,1.1,0.5,1.6,0.7c0.3,0.1,0.5,0.2,0.8,0.4
				c0.6,0.3,1.2,0.6,1.7,0.9c0,0,0,0,0,0c0.6,0.3,1.1,0.6,1.7,1c0.3,0.2,0.6,0.3,0.8,0.5c0.3,0.2,0.7,0.4,1,0.6
				c0.3,0.2,0.7,0.4,1,0.7c0.6,0.5,1.3,0.9,1.9,1.4c0.2,0.2,0.4,0.3,0.6,0.5c0,0,0.1,0.1,0.1,0.1c0.4,0.3,0.8,0.6,1.1,1
				c0.4,0.3,0.8,0.7,1.1,1c0,0,0,0,0.1,0.1c0.2,0.2,0.5,0.4,0.7,0.7c0.2,0.2,0.5,0.5,0.7,0.7c0.3,0.4,0.7,0.7,1,1.1
				c0.3,0.4,0.6,0.7,0.9,1.1c0.2,0.2,0.4,0.5,0.6,0.8c0,0,0,0,0.1,0.1c0.3,0.4,0.7,0.9,1,1.3c0.2,0.3,0.5,0.7,0.7,1
				c0.3,0.4,0.5,0.8,0.8,1.2c0.3,0.4,0.5,0.8,0.8,1.2c0.2,0.3,0.3,0.6,0.5,0.9c0.3,0.6,0.6,1.1,0.9,1.7c0.3,0.6,0.6,1.2,0.8,1.8
				c0.1,0.3,0.3,0.6,0.4,0.9c0.4,0.9,0.7,1.8,1.1,2.8c0.1,0.3,0.2,0.6,0.3,1c0.1,0.3,0.2,0.6,0.3,1c0.1,0.5,0.3,1,0.4,1.5
				c0,0,0,0.1,0,0.1c0.1,0.5,0.2,0.9,0.3,1.4c0,0.1,0.1,0.3,0.1,0.4c-0.2-1.1-0.5-2.2-0.8-3.2C-648.6,686.3-648.9,685.3-649.3,684.3
				z"/>
			<path class="st2" d="M-781.5,655.9c0,3.5-1.4,6.7-3.7,9s-5.5,3.7-9,3.7s-6.7-1.4-9-3.7c-2.3-2.3-3.7-5.5-3.7-9s1.4-6.7,3.7-9
				c2.3-2.3,5.5-3.7,9-3.7s6.7,1.4,9,3.7C-782.9,649.3-781.5,652.4-781.5,655.9z"/>
			<line class="st2" x1="-688.5" y1="655.9" x2="-691.2" y2="655.9"/>
			<line class="st2" x1="-896.9" y1="655.9" x2="-899.5" y2="655.9"/>
			<line class="st2" x1="-867.1" y1="583" x2="-868.6" y2="581.5"/>
			<line class="st2" x1="-719.4" y1="581.2" x2="-721.5" y2="583.3"/>
			<path class="st2" d="M-794.2,550.6v92.6c-3.5,0-6.7,1.4-9,3.7l-62.5-62.5c-0.2-0.2-0.3-0.4-0.5-0.6l0,0c-1-1.1-2-2.1-3.1-3.1
				c-7-7.7-11.2-17.9-11.2-29c0-23.8,19.3-43.2,43.2-43.2C-813.9,508.5-794.8,527.3-794.2,550.6z"/>
			<path class="st2" d="M-866.2,583.8c-0.3-0.3-0.6-0.6-0.9-0.9l-1.5-1.5c-0.2-0.2-0.5-0.5-0.7-0.8
				C-868.2,581.7-867.2,582.8-866.2,583.8z"/>
			<path class="st2" d="M-794.2,551.7c0,0.4,0,0.7,0,1.1v-2.2C-794.2,551-794.2,551.3-794.2,551.7z"/>
			<path class="st2" d="M-707.8,551.7c0,11.2-4.2,21.4-11.2,29c0,0,0,0,0,0c-1.1,1-2.1,2-3.1,3.1c-0.1,0.1-0.3,0.3-0.4,0.4
				l-62.7,62.7c-2.3-2.3-5.5-3.7-9-3.7v-90.4c0-0.4,0-0.7,0-1.1c0-23.8,19.3-43.2,43.2-43.2S-707.8,527.9-707.8,551.7z"/>
			<path class="st2" d="M-719,580.8c-0.1,0.1-0.3,0.3-0.4,0.5c-0.6,0.7-1.3,1.4-2,2c-0.2,0.2-0.4,0.4-0.6,0.6
				C-721.1,582.8-720.1,581.7-719,580.8z"/>
			<path class="st2" d="M-707.5,760.4c0,23.9-19.4,43.3-43.3,43.3c-23.7,0-43-19.1-43.3-42.8c0-0.1,0-0.1,0-0.2c0-0.1,0-0.2,0-0.4
				v-0.7c0-0.2,0-0.4,0-0.6v-90.4c3.5,0,6.7-1.4,9-3.7l61.6,61.6c0.2,0.2,0.4,0.5,0.6,0.8c1.5,1.8,3.2,3.5,5,5
				C-711.4,739.9-707.5,749.7-707.5,760.4z"/>
			<path class="st2" d="M-794.2,760.4c0-0.2,0-0.4,0-0.6L-794.2,760.4c0,0.1,0,0.2,0,0.4V760.4z"/>
			<path class="st2" d="M-717.9,732.3c-1.8-1.5-3.5-3.2-5-5c0.3,0.3,0.6,0.5,0.9,0.8c0.3,0.3,0.7,0.6,1,0.9l0.6,0.6
				c0.1,0.1,0.2,0.2,0.3,0.3c0,0,0.1,0.1,0.2,0.2c0.1,0.1,0.1,0.1,0.2,0.2c0.4,0.4,0.7,0.8,1.1,1.2
				C-718.3,731.8-718.1,732.1-717.9,732.3z"/>
			<path class="st2" d="M-794.2,759.7v0.7c0,0.1,0,0.2,0,0.4c0,0.1,0,0.1,0,0.2c0,0.3,0,0.5,0,0.8v-2.7
				C-794.2,759.3-794.2,759.5-794.2,759.7z"/>
			<path class="st2" d="M-794.2,668.7v93.1c-0.7,23.2-19.8,41.9-43.2,41.9c-23.9,0-43.2-19.3-43.2-43.2c0-11.9,4.8-22.6,12.6-30.4
				c0.1-0.1,0.2-0.2,0.3-0.3c0.6-0.6,1.1-1.1,1.6-1.7c0.3-0.3,0.6-0.7,0.9-1l62-62C-800.9,667.2-797.7,668.7-794.2,668.7z"/>
			<path class="st2" d="M-692.8,656c-0.2,0-0.5,0-0.7,0c0.1,0,0.3,0,0.5,0C-692.9,656-692.9,656-692.8,656z"/>
			<path class="st2" d="M-794.2,820.4c-90.8,0-164.5-73.6-164.5-164.5s73.6-164.5,164.5-164.5c90.8,0,164.5,73.6,164.5,164.5
				c0,45.4-18.4,86.5-48.2,116.3"/>
			<path class="st2" d="M-717.3,732.8l-1.2-1.2l-3.4-3.4c0.3,0.3,0.7,0.6,1,0.9l0.6,0.6c0.1,0.1,0.2,0.2,0.3,0.3
				c0,0.1,0.1,0.1,0.1,0.2c0.1,0.1,0.1,0.1,0.2,0.2c0.4,0.4,0.8,0.8,1.2,1.1c0.1,0.1,0.2,0.2,0.3,0.3c0.3,0.3,0.7,0.6,1.1,0.9
				c0,0,0,0.1,0.1,0.1c0.5,0.4,0.9,0.7,1.4,1.1c0.5,0.4,0.9,0.7,1.4,1c0.3,0.2,0.5,0.4,0.8,0.5c0.3,0.2,0.6,0.4,0.9,0.5
				c0.3,0.2,0.5,0.3,0.8,0.5c0,0,0,0,0,0c0.1,0.1,0.3,0.2,0.4,0.3c0.3,0.1,0.5,0.3,0.8,0.4c0.8,0.4,1.6,0.8,2.4,1.2
				c0.3,0.2,0.6,0.3,0.9,0.4c0.3,0.1,0.6,0.3,0.9,0.4c1.1,0.5,2.3,0.9,3.5,1.2c0.3,0.1,0.7,0.2,1,0.3c0.7,0.2,1.4,0.4,2.1,0.5
				c0.4,0.1,0.7,0.2,1.1,0.2c0.3,0.1,0.6,0.1,0.9,0.2c0.3,0.1,0.6,0.1,0.8,0.2c0.5,0.1,1,0.2,1.5,0.2c0.3,0,0.6,0.1,0.8,0.1
				c0.2,0,0.4,0,0.6,0.1c0.3,0,0.5,0,0.8,0.1c0.7,0,1.3,0.1,2,0.1c0.4,0,0.8,0,1.3,0c0.4,0,0.8,0,1.2,0c0.7,0,1.4-0.1,2.1-0.1
				c0.2,0,0.3,0,0.5,0c0.5,0,1-0.1,1.6-0.2c0.1,0,0.1,0,0.2,0c0.3,0,0.7-0.1,1-0.1c0.7-0.1,1.4-0.2,2.1-0.4c0.4-0.1,0.7-0.1,1-0.2
				c0.4-0.1,0.9-0.2,1.3-0.3c0.1,0,0.3-0.1,0.4-0.1c0.4-0.1,0.8-0.2,1.2-0.4c0.4-0.1,0.8-0.2,1.1-0.4c0.2-0.1,0.3-0.1,0.5-0.2
				c0.4-0.1,0.8-0.3,1.2-0.5c0.3-0.1,0.6-0.2,1-0.4c0.3-0.1,0.6-0.3,1-0.4c0.3-0.1,0.5-0.2,0.8-0.4c0.4-0.2,0.7-0.3,1.1-0.5
				c0.3-0.2,0.6-0.3,0.9-0.5c0.3-0.1,0.5-0.3,0.8-0.4c0.3-0.2,0.7-0.4,1-0.6c0.3-0.2,0.6-0.4,0.9-0.5s0.6-0.4,0.8-0.5
				c0.3-0.2,0.6-0.4,0.9-0.6c0.6-0.4,1.1-0.8,1.6-1.2c0.3-0.2,0.5-0.4,0.8-0.6c0.3-0.2,0.5-0.4,0.8-0.6c0.3-0.2,0.5-0.4,0.8-0.7
				c0.2-0.2,0.5-0.5,0.8-0.7c0.2-0.2,0.5-0.5,0.7-0.7c1-1,1.9-2,2.8-3c0,0,0,0,0,0c0.2-0.2,0.4-0.5,0.6-0.7c0.3-0.4,0.7-0.8,1-1.3
				c0.3-0.4,0.6-0.9,0.9-1.3c0.4-0.5,0.7-1,1-1.6c0.4-0.6,0.7-1.1,1-1.7c0.1-0.2,0.3-0.5,0.4-0.7c0.2-0.3,0.4-0.7,0.5-1
				c0.2-0.4,0.4-0.8,0.6-1.2c0.1-0.3,0.3-0.6,0.4-0.8c0.1-0.2,0.2-0.5,0.3-0.7c0-0.1,0.1-0.1,0.1-0.2c0.1-0.2,0.2-0.5,0.3-0.8v0
				c0-0.1,0.1-0.2,0.1-0.3c0-0.1,0.1-0.3,0.2-0.4c0.1-0.2,0.1-0.3,0.2-0.5c0.1-0.3,0.2-0.5,0.3-0.8c0.1-0.2,0.2-0.5,0.2-0.8
				c0.1-0.4,0.2-0.7,0.3-1.1c0,0,0-0.1,0-0.1c0.1-0.3,0.2-0.7,0.3-1c0-0.1,0-0.1,0-0.2c0,0,0,0,0,0c0.2-0.6,0.3-1.2,0.4-1.8
				c0,0,0-0.1,0-0.1c0-0.2,0.1-0.3,0.1-0.5c0-0.2,0.1-0.4,0.1-0.6c0-0.1,0-0.1,0-0.2c0-0.2,0.1-0.5,0.1-0.8c0,0,0,0,0,0
				c0-0.3,0.1-0.7,0.1-1c0,0,0,0,0,0c0-0.1,0-0.2,0-0.3c0-0.1,0-0.2,0-0.4c0-0.1,0-0.2,0-0.3c0-0.1,0-0.2,0-0.3c0-0.2,0-0.4,0.1-0.7
				c0-0.1,0-0.2,0-0.3c0-0.3,0-0.6,0-0.9c0-0.1,0-0.3,0-0.4c0-0.2,0-0.5,0-0.7c0-0.3,0-0.7,0-1c0-0.7,0-1.4,0-2.2c0-0.2,0-0.4,0-0.6
				c0-0.1,0-0.2,0-0.3c0-0.4-0.1-0.8-0.1-1.1c0,0,0,0,0-0.1c0-0.2,0-0.4,0-0.5c0-0.1,0-0.3-0.1-0.4c0-0.1,0-0.1,0-0.2
				c-0.1-0.6-0.2-1.2-0.3-1.8c0-0.2-0.1-0.4-0.1-0.6c0-0.1,0-0.2-0.1-0.4c0-0.2-0.1-0.3-0.1-0.5c0-0.1-0.1-0.3-0.1-0.4
				c-0.1-0.5-0.2-0.9-0.3-1.4c0,0,0-0.1,0-0.1c-0.1-0.5-0.3-1-0.4-1.5c-0.1-0.3-0.2-0.6-0.3-1c-0.1-0.3-0.2-0.6-0.3-0.9
				c-0.3-0.9-0.7-1.9-1.1-2.8c-0.1-0.3-0.3-0.6-0.4-0.9c-0.3-0.6-0.5-1.2-0.8-1.8c-0.3-0.6-0.6-1.2-0.9-1.7
				c-0.2-0.3-0.3-0.6-0.5-0.9c-0.2-0.4-0.5-0.8-0.8-1.2c-0.3-0.4-0.5-0.8-0.8-1.2c-0.2-0.3-0.5-0.7-0.7-1c-0.3-0.5-0.6-0.9-1-1.3
				c0,0,0,0-0.1-0.1c-0.2-0.3-0.4-0.5-0.6-0.8c-0.3-0.4-0.6-0.7-1-1.1c-0.3-0.4-0.6-0.7-1-1.1c-0.2-0.2-0.5-0.5-0.7-0.7
				c-0.2-0.2-0.5-0.5-0.7-0.7c0,0,0,0-0.1-0.1c-0.4-0.4-0.8-0.7-1.1-1c-0.4-0.3-0.7-0.6-1.1-1c0,0-0.1-0.1-0.1-0.1
				c-0.2-0.2-0.4-0.3-0.7-0.5c-0.6-0.5-1.2-1-1.9-1.4c-0.3-0.2-0.6-0.5-1-0.7c-0.3-0.2-0.7-0.4-1-0.6c-0.3-0.2-0.5-0.3-0.8-0.5
				c-0.6-0.3-1.1-0.6-1.7-1c0,0,0,0,0,0c-0.6-0.3-1.1-0.6-1.7-0.9c-0.3-0.1-0.5-0.3-0.8-0.4c-0.5-0.2-1-0.5-1.6-0.7
				c-0.3-0.1-0.6-0.2-0.9-0.3c-0.5-0.2-1-0.4-1.5-0.5c-0.6-0.2-1.2-0.4-1.8-0.6c-0.5-0.1-0.9-0.3-1.4-0.4c-0.1,0-0.3-0.1-0.4-0.1
				c-0.4-0.1-0.9-0.2-1.4-0.3c0,0-0.1,0-0.1,0c0,0-0.1,0-0.1,0c-0.2,0-0.4-0.1-0.6-0.1c0,0-0.1,0-0.1,0c-0.3-0.1-0.7-0.1-1.1-0.2
				c-0.1,0-0.2,0-0.2-0.1h0c-0.2,0-0.4-0.1-0.6-0.1c0,0-0.1,0-0.1,0c0,0-0.1,0-0.1,0c-0.3,0-0.5-0.1-0.8-0.1c0,0-0.1,0-0.1,0
				c-0.1,0-0.3,0-0.5,0c-0.1,0-0.3,0-0.4-0.1c-0.3,0-0.7-0.1-1-0.1h-0.1c0,0,0,0,0,0c0,0,0,0,0,0c-0.3,0-0.6,0-1-0.1
				c0.2,0,0.4,0,0.6,0c22.4-1.6,40-20.3,40-43.1c0-23.8-19.3-43.2-43.2-43.2c-11,0-21,4.1-28.6,10.8c-0.1,0.1-0.2,0.2-0.3,0.3
				c7-7.7,11.2-17.9,11.2-29c0-23.9-19.3-43.2-43.2-43.2c-23.9,0-43.2,19.3-43.2,43.2c0-0.4,0-0.7,0-1.1
				c-0.6-23.3-19.7-42.1-43.2-42.1c-23.9,0-43.2,19.3-43.2,43.2c0,11.2,4.2,21.4,11.2,29c-0.1-0.1-0.3-0.3-0.4-0.4
				c-7.6-6.6-17.5-10.7-28.4-10.7c-23.9,0-43.2,19.3-43.2,43.2c0,22.8,17.6,41.5,40,43.1c0.3,0,0.5,0,0.8,0
				c-22.8,1.2-40.8,20.1-40.8,43.1c0,23.9,19.3,43.2,43.2,43.2c10.6,0,20.3-3.8,27.8-10.1c0.3-0.2,0.5-0.4,0.8-0.7
				c0.6-0.5,1.1-1,1.6-1.5c-7.8,7.8-12.6,18.6-12.6,30.4c0,23.9,19.3,43.2,43.2,43.2c23.4,0,42.5-18.6,43.2-41.8"/>
			<path class="st2" d="M-866,727.9c-0.5,0.6-1.1,1.2-1.6,1.7c-0.1,0.1-0.2,0.2-0.3,0.3c-0.5,0.5-1.1,1-1.6,1.5
				c0.5-0.6,1.1-1.2,1.6-1.7C-867.3,729.1-866.7,728.5-866,727.9z"/>
			<path class="st2" d="M-803.2,647c-2.3,2.3-3.7,5.5-3.7,9h-90c-0.4,0-0.9,0-1.3,0s-0.9,0-1.3,0h-1.8c-22.4-1.6-40-20.3-40-43.1
				c0-23.9,19.3-43.2,43.2-43.2c10.9,0,20.8,4,28.4,10.7l1.2,1.2c0.5,0.5,1,1,1.5,1.5l1.5,1.5L-803.2,647z"/>
			<path class="st2" d="M-896.9,655.9h1.8c-0.3,0-0.5,0-0.8,0c-0.8,0-1.6,0.1-2.4,0.1s-1.6,0-2.4-0.1c-0.3,0-0.5,0-0.8,0h1.8
				c0.5,0,0.9,0,1.3,0S-897.3,655.9-896.9,655.9z"/>
			<path class="st2" d="M-865.7,584.4l-1.5-1.5l-1.5-1.5l-1.2-1.2c0.2,0.1,0.3,0.3,0.4,0.4c1.1,1,2.1,2,3.1,3.1l0,0
				C-866,584-865.8,584.2-865.7,584.4z"/>
			<path class="st2" d="M-647,612.9c0,22.8-17.6,41.5-40,43.1h-1.6c-0.5,0-0.9,0-1.3,0c-0.4,0-0.8,0-1.2,0h-90.3
				c0-3.5-1.4-6.7-3.7-9l62.7-62.7l1-1c0.7-0.7,1.4-1.3,2-2l0.7-0.7c7.6-6.7,17.6-10.8,28.6-10.8C-666.3,569.7-647,589-647,612.9z"
				/>
			<path class="st2" d="M-719,580.7c0.1-0.1,0.2-0.2,0.3-0.3l-0.7,0.7c-0.6,0.7-1.3,1.4-2,2l-1,1c0.1-0.2,0.2-0.3,0.4-0.4
				C-721.1,582.8-720.1,581.7-719,580.7C-719,580.7-719,580.7-719,580.7z"/>
			<path class="st2" d="M-687,655.9c-0.2,0-0.4,0-0.6,0h-0.1c-0.8,0.1-1.6,0.1-2.4,0.1c-0.8,0-1.5,0-2.2-0.1h-0.1
				c-0.3,0-0.6,0-0.9-0.1h2.1c0.4,0,0.8,0,1.2,0c0.5,0,0.9,0,1.3,0H-687z"/>
			<path class="st2" d="M-803.2,664.9l-62,62l-2.8,2.9l-2.4,2.4c-7.5,6.3-17.2,10.1-27.8,10.1c-23.9,0-43.2-19.3-43.2-43.2
				c0-23.1,18.1-41.9,40.8-43.1c0.8,0,1.6,0.1,2.4,0.1s1.6,0,2.4-0.1c0.3,0,0.5,0,0.8,0h88.1C-806.9,659.5-805.5,662.6-803.2,664.9z
				"/>
			<path class="st2" d="M-895.8,656c-0.8,0-1.6,0.1-2.4,0.1s-1.6,0-2.4-0.1c0.3,0,0.7,0,1,0c0.5,0,0.9,0,1.3,0s0.9,0,1.3,0
				C-896.5,656-896.2,656-895.8,656z"/>
			<path class="st2" d="M-865.1,726.9c-0.3,0.3-0.6,0.7-0.9,1c-0.5,0.6-1.1,1.2-1.6,1.7c-0.1,0.1-0.2,0.2-0.3,0.3
				c-0.5,0.5-1.1,1-1.6,1.5c-0.2,0.2-0.5,0.5-0.8,0.7l2.4-2.4L-865.1,726.9z"/>
			<path class="st2" d="M-646.7,697.1c0-0.7-0.1-1.4-0.2-2.1c0,0,0-0.1,0-0.1c0-0.3-0.1-0.6-0.1-1c-0.1-0.9-0.2-1.8-0.4-2.7
				c-0.1-0.3-0.1-0.6-0.2-0.9c-0.2-1.1-0.5-2.2-0.8-3.2c-0.3-1-0.6-2.1-1-3.1c-0.2-0.6-0.5-1.2-0.7-1.8c-0.2-0.4-0.3-0.8-0.5-1.2
				c-0.2-0.4-0.3-0.8-0.5-1.2c-0.1-0.2-0.2-0.5-0.4-0.7c-0.1-0.3-0.3-0.5-0.4-0.8c-0.1-0.1-0.1-0.2-0.2-0.3
				c-0.2-0.4-0.5-0.9-0.7-1.3c-0.3-0.5-0.6-0.9-0.9-1.4c-0.3-0.5-0.6-0.9-0.9-1.3v0c-0.3-0.4-0.6-0.9-1-1.3c-0.3-0.4-0.7-0.8-1-1.2
				c-0.3-0.4-0.6-0.8-1-1.1c-0.1-0.1-0.1-0.2-0.2-0.2c-0.3-0.3-0.6-0.7-0.9-1c0,0,0-0.1-0.1-0.1c-0.4-0.4-0.7-0.7-1.1-1.1
				c-0.3-0.3-0.7-0.6-1-0.9c-0.5-0.4-0.9-0.8-1.4-1.2c-0.4-0.3-0.8-0.7-1.2-1c-0.5-0.4-1-0.8-1.5-1.1c-0.3-0.2-0.7-0.5-1-0.7
				c-0.3-0.2-0.6-0.4-0.9-0.6c-0.3-0.2-0.7-0.4-1-0.6c-0.6-0.4-1.2-0.7-1.8-1c-0.2-0.1-0.5-0.3-0.8-0.4c-0.4-0.2-0.8-0.4-1.3-0.6
				c-0.5-0.2-1-0.4-1.5-0.7c-0.4-0.2-0.8-0.3-1.2-0.5c-0.3-0.1-0.7-0.3-1-0.4c-0.1,0-0.3-0.1-0.4-0.1c-0.3-0.1-0.6-0.2-0.8-0.3
				c-0.2-0.1-0.5-0.2-0.7-0.2c-0.2-0.1-0.5-0.1-0.7-0.2c-0.3-0.1-0.6-0.2-0.9-0.2c-0.2-0.1-0.4-0.1-0.6-0.2c-0.3-0.1-0.6-0.2-1-0.2
				c-0.7-0.2-1.4-0.3-2.1-0.4c-0.3,0-0.6-0.1-0.9-0.1c0,0-0.1,0-0.1,0c0,0-0.1,0-0.1,0c-0.3,0-0.5-0.1-0.8-0.1c0,0-0.1,0-0.1,0
				c-0.2,0-0.3,0-0.5,0c-0.2,0-0.3,0-0.5-0.1h0c-0.2,0-0.4,0-0.5,0c-0.1,0-0.3,0-0.4,0h-0.1c-0.3,0-0.6,0-1-0.1h-0.1
				c-0.8,0.1-1.6,0.1-2.4,0.1c-0.8,0-1.5,0-2.2-0.1h-0.1c-0.1,0-0.2,0-0.3,0c0.1,0,0.1,0,0.2,0c-0.3,0-0.5,0-0.8-0.1h-88.2
				c0,3.5-1.4,6.7-3.7,9l61.6,61.6l1.6,1.6c0.3,0.3,0.7,0.6,1,0.9l0.6,0.6c0.1,0.1,0.2,0.2,0.3,0.3c0,0,0.1,0.1,0.2,0.2
				c0.1,0.1,0.1,0.1,0.2,0.2c0.4,0.4,0.8,0.8,1.2,1.1c0.1,0.1,0.2,0.2,0.3,0.3c0.3,0.3,0.7,0.6,1.1,0.9c0,0,0,0,0.1,0.1
				c0.5,0.4,0.9,0.7,1.4,1c0.5,0.4,0.9,0.7,1.4,1c0.3,0.2,0.5,0.4,0.8,0.5c0.3,0.2,0.6,0.4,0.9,0.5c0.3,0.2,0.5,0.3,0.8,0.5
				c0,0,0,0,0,0c0.2,0.1,0.3,0.2,0.4,0.3c0.3,0.2,0.5,0.3,0.8,0.5c0.8,0.4,1.6,0.8,2.4,1.2c0.3,0.2,0.6,0.3,0.9,0.4
				c0.3,0.1,0.6,0.3,0.9,0.4c1.1,0.5,2.3,0.9,3.5,1.2c0.3,0.1,0.7,0.2,1,0.3c0.7,0.2,1.4,0.4,2.1,0.5c0.3,0.1,0.7,0.2,1,0.2
				c0.3,0.1,0.6,0.1,0.9,0.2c0.3,0,0.6,0.1,0.8,0.2c0.5,0.1,1,0.1,1.5,0.2c0.3,0,0.6,0.1,0.8,0.1c0.2,0,0.4,0,0.6,0.1
				c0.3,0,0.5,0,0.8,0.1c0.7,0,1.3,0.1,2,0.1c0.4,0,0.8,0,1.3,0c0.4,0,0.8,0,1.2,0c0.7,0,1.4-0.1,2.1-0.1c0.2,0,0.3,0,0.5,0
				c0.5,0,1-0.1,1.5-0.2c0.1,0,0.1,0,0.2,0c0.3,0,0.7-0.1,1-0.1c0.7-0.1,1.4-0.2,2.1-0.4c0.4-0.1,0.7-0.2,1.1-0.2
				c0.4-0.1,0.9-0.2,1.3-0.3c0.1,0,0.3-0.1,0.4-0.1c0.4-0.1,0.8-0.2,1.2-0.4c0.4-0.1,0.8-0.2,1.1-0.4c0.2-0.1,0.3-0.1,0.5-0.2
				c0.4-0.1,0.8-0.3,1.2-0.5c0.3-0.1,0.6-0.2,1-0.4c0.3-0.1,0.6-0.3,1-0.4c0.3-0.1,0.5-0.2,0.8-0.4c0.3-0.2,0.7-0.3,1.1-0.5
				c0.3-0.1,0.6-0.3,0.9-0.5c0.3-0.1,0.5-0.3,0.8-0.4c0.3-0.2,0.7-0.4,1-0.6c0.3-0.2,0.6-0.4,0.9-0.5c0.3-0.2,0.6-0.4,0.9-0.6
				c0.3-0.2,0.6-0.4,0.8-0.6c0.6-0.4,1.1-0.8,1.7-1.2c0.3-0.2,0.5-0.4,0.8-0.6c0.3-0.2,0.5-0.4,0.8-0.6c0.3-0.2,0.5-0.4,0.8-0.7
				c0.2-0.2,0.5-0.4,0.8-0.7c0.2-0.2,0.5-0.5,0.7-0.7c1-1,1.9-2,2.8-3c0,0,0,0,0,0c0.2-0.2,0.4-0.5,0.6-0.7c0.3-0.4,0.7-0.8,1-1.3
				c0.3-0.4,0.6-0.9,0.9-1.3c0.4-0.5,0.7-1,1.1-1.6c0.3-0.5,0.7-1.1,1-1.7c0.1-0.2,0.3-0.5,0.4-0.7c0.2-0.3,0.4-0.7,0.5-1
				c0.2-0.4,0.4-0.8,0.6-1.2c0.1-0.3,0.3-0.6,0.4-0.8c0.1-0.2,0.2-0.5,0.3-0.7c0-0.1,0.1-0.2,0.1-0.2c0.1-0.2,0.2-0.5,0.3-0.8v0
				c0-0.1,0.1-0.2,0.1-0.3c0-0.1,0.1-0.3,0.2-0.5c0.1-0.1,0.1-0.3,0.2-0.5c0.1-0.3,0.2-0.5,0.3-0.8c0.1-0.2,0.2-0.5,0.2-0.8
				c0.1-0.4,0.2-0.8,0.3-1.1c0-0.1,0-0.1,0-0.1c0.1-0.3,0.2-0.7,0.3-1c0,0,0-0.1,0-0.1c0,0,0,0,0,0c0.2-0.6,0.3-1.2,0.4-1.8
				c0,0,0-0.1,0-0.1c0-0.2,0.1-0.4,0.1-0.5c0-0.2,0.1-0.4,0.1-0.6c0-0.3,0.1-0.6,0.2-1c0,0,0,0,0,0c0-0.3,0.1-0.7,0.1-1c0,0,0,0,0,0
				c0-0.1,0-0.2,0-0.3c0-0.1,0-0.2,0-0.4c0-0.1,0-0.2,0-0.3c0-0.1,0-0.2,0-0.3c0-0.6,0.1-1.1,0.1-1.7c0,0,0-0.1,0-0.2
				c0-0.1,0-0.3,0-0.4c0-0.2,0-0.5,0-0.7c0-0.3,0-0.7,0-1C-646.7,698.5-646.7,697.8-646.7,697.1z M-697.3,656.6
				c0.2,0,0.5-0.1,0.8-0.1c0.3-0.1,0.7-0.1,1-0.1C-696.1,656.4-696.7,656.5-697.3,656.6z M-694.5,656.2c-0.2,0-0.5,0-0.7,0.1
				C-695,656.2-694.7,656.2-694.5,656.2c0.1,0,0.2,0,0.4,0C-694.3,656.2-694.4,656.2-694.5,656.2z M-693.5,656.1c0.1,0,0.3,0,0.5,0
				c0.1,0,0.2,0,0.2,0C-693,656-693.2,656.1-693.5,656.1z"/>
			<path class="st2" d="M-695.5,656.3c-0.6,0.1-1.2,0.2-1.8,0.3c0.2,0,0.5-0.1,0.8-0.1C-696.2,656.4-695.9,656.3-695.5,656.3z"/>
			<path class="st2" d="M-692.8,656c-0.2,0-0.5,0-0.7,0c0.1,0,0.3,0,0.5,0C-692.9,656-692.9,656-692.8,656z"/>
			<path class="st2" d="M-692.4,656c-0.1,0-0.2,0-0.3,0C-692.6,656-692.6,656-692.4,656L-692.4,656z"/>
			<path class="st2" d="M-687.7,656c-0.8,0.1-1.6,0.1-2.4,0.1c-0.8,0-1.5,0-2.2-0.1c0.4,0,0.7,0,1.1-0.1h0.1c0.4,0,0.8,0,1.2,0
				c0.5,0,0.9,0,1.3,0h0.1C-688.3,656-688,656-687.7,656z"/>
			<path class="st2" d="M-650.8,717.5c0.1-0.3,0.3-0.6,0.4-0.8c-6.7,15.2-21.9,25.9-39.6,25.9c-10.4,0-19.9-3.7-27.3-9.7
				c-0.2-0.2-0.4-0.3-0.6-0.5c-1.8-1.5-3.5-3.2-5-5c-0.2-0.2-0.4-0.5-0.6-0.8l1.6,1.6c0.3,0.3,0.7,0.6,1,0.9l0.6,0.6
				c0.1,0.1,0.2,0.2,0.3,0.3c0,0,0.1,0.1,0.2,0.2c0.1,0.1,0.1,0.1,0.2,0.2c0.4,0.4,0.8,0.8,1.2,1.1c0.1,0.1,0.2,0.2,0.3,0.3
				c0.3,0.3,0.7,0.6,1.1,0.9c0,0,0,0,0.1,0.1c0.5,0.4,0.9,0.7,1.4,1c0.5,0.4,0.9,0.7,1.4,1c0.3,0.2,0.5,0.4,0.8,0.5
				c0.3,0.2,0.6,0.4,0.9,0.5c0.3,0.2,0.5,0.3,0.8,0.5c0,0,0,0,0,0c0.2,0.1,0.3,0.2,0.4,0.3c0.3,0.2,0.5,0.3,0.8,0.5
				c0.8,0.4,1.6,0.8,2.4,1.2c0.3,0.2,0.6,0.3,0.9,0.4c0.3,0.1,0.6,0.3,0.9,0.4c1.1,0.5,2.3,0.9,3.5,1.2c0.3,0.1,0.7,0.2,1,0.3
				c0.7,0.2,1.4,0.4,2.1,0.5c0.3,0.1,0.7,0.2,1,0.2c0.3,0.1,0.6,0.1,0.9,0.2c0.3,0,0.6,0.1,0.8,0.2c0.5,0.1,1,0.1,1.5,0.2
				c0.3,0,0.6,0.1,0.8,0.1c0.2,0,0.4,0,0.6,0.1c0.3,0,0.5,0,0.8,0.1c0.7,0,1.3,0.1,2,0.1c0.4,0,0.8,0,1.3,0c0.4,0,0.8,0,1.2,0
				c0.7,0,1.4-0.1,2.1-0.1c0.2,0,0.3,0,0.5,0c0.5,0,1-0.1,1.5-0.2c0.1,0,0.1,0,0.2,0c0.3,0,0.7-0.1,1-0.1c0.7-0.1,1.4-0.2,2.1-0.4
				c0.4-0.1,0.7-0.2,1.1-0.2c0.4-0.1,0.9-0.2,1.3-0.3c0.1,0,0.3-0.1,0.4-0.1c0.4-0.1,0.8-0.2,1.2-0.4c0.4-0.1,0.8-0.2,1.1-0.4
				c0.2-0.1,0.3-0.1,0.5-0.2c0.4-0.1,0.8-0.3,1.2-0.5c0.3-0.1,0.6-0.2,1-0.4c0.3-0.1,0.6-0.3,1-0.4c0.3-0.1,0.5-0.2,0.8-0.4
				c0.3-0.2,0.7-0.3,1.1-0.5c0.3-0.1,0.6-0.3,0.9-0.5c0.3-0.1,0.5-0.3,0.8-0.4c0.3-0.2,0.7-0.4,1-0.6c0.3-0.2,0.6-0.4,0.9-0.5
				c0.3-0.2,0.6-0.4,0.9-0.6c0.3-0.2,0.6-0.4,0.8-0.6c0.6-0.4,1.1-0.8,1.7-1.2c0.3-0.2,0.5-0.4,0.8-0.6c0.3-0.2,0.5-0.4,0.8-0.6
				c0.3-0.2,0.5-0.4,0.8-0.7c0.2-0.2,0.5-0.4,0.8-0.7c0.2-0.2,0.5-0.5,0.7-0.7c1-1,1.9-2,2.8-3c0,0,0,0,0,0c0.2-0.2,0.4-0.5,0.6-0.7
				c0.3-0.4,0.7-0.8,1-1.3c0.3-0.4,0.6-0.9,0.9-1.3c0.4-0.5,0.7-1,1.1-1.6c0.3-0.5,0.7-1.1,1-1.7c0.1-0.2,0.3-0.5,0.4-0.7
				c0.2-0.3,0.4-0.7,0.5-1C-651.1,718.3-650.9,717.9-650.8,717.5z"/>
		</g>
	</g>
	<path class="st2" d="M-1265.4,702.7V98.2c0,0,4-54.4-47,0.2c-51,54.6-93.4,98.4-93.4,98.4"/>
	<rect x="-1368.3" y="2238.4" class="st5" width="270.9" height="270.9"/>
	<rect x="-1639.9" y="2238.4" class="st6" width="270.9" height="270.9"/>
	<rect x="-1097.4" y="2238.4" class="st7" width="270.9" height="270.9"/>
	<rect x="-831.7" y="2235.8" class="st8" width="270.9" height="270.9"/>
	<rect x="-1667.1" y="320.5" class="st9" width="9" height="415.9"/>
	<line class="st9" x1="-1902.7" y1="395.8" x2="-1667.1" y2="325.9"/>
	<line class="st9" x1="-1403.8" y1="395.8" x2="-1658.2" y2="325.9"/>
	<line class="st9" x1="-1531.4" y1="401" x2="-1658.2" y2="325.9"/>
	<line class="st9" x1="-1793.4" y1="401" x2="-1667.1" y2="325.9"/>
	<line class="st9" x1="-1887.8" y1="391.3" x2="-1420.1" y2="391.3"/>
	<line class="st10" x1="-1667.2" y1="325.9" x2="-1658.2" y2="325.9"/>
	<g>
		<path class="st7" d="M-723-494.1c0,0,0,0.1,0,0.3c0,0,0,0,0,0c-1,11.2-26.6,298.5-35,361.1c-8.1,59.9-51.1,61.7-51.1,61.7
			s-101,8.7-132.8-4.4c-31.8-13.1-38.7-59.9-38.7-59.9l-39.3-358.5l0-0.4"/>
		<path class="st2" d="M-997.3,22.4L-997.3,22.4c0,0.1,0,0.1,0,0.1c0,6.1,55.9,11,124.9,11c19.6,0,38.2-0.4,54.7-1.1"/>
		<path class="st2" d="M-800.9,31.5c32.3-2,53.4-5.3,53.4-9c0,0,0-0.1,0-0.1v0"/>
		<path class="st2" d="M-741-59.2c0,0,0,0.1,0,0.1c0,0.1,0,0.2,0,0.3l0,0C-742.9-52.8-801-48-872.4-48c-5.5,0-10.8,0-16.1-0.1"/>
		<path class="st2" d="M-926-49c-45-1.7-76.6-5.4-77.7-9.8v0c0-0.1,0-0.1,0-0.2c0,0,0-0.1,0-0.1v0"/>
		<path class="st2" d="M-894.4-544.3c7.2,0.1,14.6,0.1,22,0.1c91.8,0,166.7-7.1,171.1-15.9c0.1-0.3,0.2-0.5,0.2-0.8
			c0-9.3-76.7-16.8-171.3-16.8c-53.5,0-101.2,2.4-132.6,6.1c-24.2,2.9-38.6,6.6-38.6,10.6c0,4.6,19.3,8.8,50.5,11.9
			c18.5,1.8,41.3,3.2,66.6,4"/>
		<ellipse class="st4" cx="-871.5" cy="-494" rx="148.5" ry="16.8"/>
		<circle class="st11" cx="-1041.6" cy="-641.8" r="18.8"/>
		<line class="st2" x1="-1033.2" y1="-625.1" x2="-843.1" y2="-264"/>
		<path class="st11" d="M-879.5-139.4l-36.9,21.3c-8.6,4.9-19.6,2-24.6-6.6l-20.3-35.2c-4.9-8.6-2-19.6,6.6-24.6l36.9-21.3
			c8.6-4.9,19.6-2,24.6,6.6L-873-164C-868-155.4-871-144.4-879.5-139.4z"/>
		<path class="st11" d="M-873.9-219.7l-42.5,3.2c-9.9,0.7-18.6-6.7-19.3-16.6l-3-40.5c-0.7-9.9,6.7-18.6,16.6-19.3l42.5-3.2
			c9.9-0.7,18.6,6.7,19.3,16.6l3,40.5C-856.6-229.1-864.1-220.4-873.9-219.7z"/>
		<path class="st11" d="M-787.8-237.4l-42.5-3.5c-9.9-0.8-17.3-9.5-16.5-19.4l3.3-40.5c0.8-9.9,9.5-17.3,19.4-16.5l42.5,3.5
			c9.9,0.8,17.3,9.5,16.5,19.4l-3.3,40.5C-769.2-244-777.9-236.6-787.8-237.4z"/>
		<path class="st11" d="M-795.4-338.7l-20.4-1.7c-9.9-0.8-17.3-9.5-16.5-19.4l1.6-19c0.8-9.9,9.5-17.3,19.4-16.5l20.4,1.7
			c9.9,0.8,17.3,9.5,16.5,19.4l-1.6,19C-776.8-345.3-785.6-337.9-795.4-338.7z"/>
		<path class="st11" d="M-851.6-367.5l-19.8,5c-9.6,2.4-19.4-3.5-21.8-13.1l-4.6-18.5c-2.4-9.6,3.5-19.4,13.1-21.8l19.8-5
			c9.6-2.4,19.4,3.5,21.8,13.1l4.6,18.5C-836.1-379.7-842-369.9-851.6-367.5z"/>
		<path class="st11" d="M-950.1-411.4l-20.4-1.1c-9.9-0.5-17.5-9-17-18.9l1-19c0.5-9.9,9-17.5,18.9-17l20.4,1.1
			c9.9,0.5,17.5,9,17,18.9l-1,19C-931.7-418.5-940.2-410.9-950.1-411.4z"/>
		<path class="st11" d="M-871.1-297.4l-30.1,30.1c-7,7-18.5,7-25.5,0l-28.7-28.7c-7-7-7-18.5,0-25.5l30.1-30.1c7-7,18.5-7,25.5,0
			l28.7,28.7C-864.1-315.9-864.1-304.4-871.1-297.4z"/>
		<line class="st2" x1="-1018.1" y1="-239.3" x2="-1018.9" y2="-248.9"/>
		<polyline class="st2" points="-1014.9,-199.1 -1003.8,-59.2 -1003.8,-59.1 -1003.8,-58.8 -1003.8,-58.8 -997.3,22.4 -997.3,22.4 
					"/>
		<line class="st2" x1="-1021.9" y1="-286.4" x2="-1043.7" y2="-561.2"/>
		<polyline class="st2" points="-701.2,-561.3 -701.3,-560.1 -705.8,-503.8 		"/>
		<polyline class="st2" points="-747.5,22.6 -747.5,22.4 -747.5,22.4 -741.1,-58.7 -741.1,-58.8 -741,-59.2 -714,-399.9 		"/>
		<line class="st2" x1="-709.3" y1="-459.4" x2="-710" y2="-450.3"/>
		<g>
			
				<rect x="-785.3" y="-751.5" transform="matrix(0.9739 0.2268 -0.2268 0.9739 -146.7371 162.6447)" class="st9" width="8.4" height="388.7"/>
			<line class="st9" x1="-971.5" y1="-728.8" x2="-742.3" y2="-742.5"/>
			<line class="st9" x1="-517.5" y1="-623" x2="-734.2" y2="-740.6"/>
			<line class="st9" x1="-634.7" y1="-645.4" x2="-734.2" y2="-740.6"/>
			<line class="st9" x1="-873.1" y1="-700.9" x2="-742.3" y2="-742.5"/>
			<line class="st9" x1="-957" y1="-729.8" x2="-531.3" y2="-630.7"/>
			<line class="st10" x1="-742.4" y1="-742.5" x2="-734.2" y2="-740.6"/>
		</g>
	</g>
	<g>
		<path class="st7" d="M14-473.2c0,0-0.3,1.3-0.9,3.7c-7.1,28.3-54.2,211.1-96.2,232c-24.4,12.1-75.7,16.9-128.4,10.7
			c-17.9-2.1-32.1-8.8-43.2-16.8c-16.9-12.2-29.1-29.8-35.2-49.6l-53.8-175.4l-1.4-4.6H14z"/>
		<path class="st11" d="M-177.9-346.3l-47.5,11.9c-9.6,2.4-19.4-3.5-21.8-13.1l-11.3-45.4c-2.4-9.6,3.5-19.4,13.1-21.8l47.5-11.9
			c9.6-2.4,19.4,3.5,21.8,13.1l11.3,45.4C-162.4-358.5-168.3-348.7-177.9-346.3z"/>
		<path class="st9" d="M-294.7-607c-3.8,0.6-7.4,1.3-11,2"/>
		<path class="st9" d="M-245.6-613.2c23.8-2.1,49.7-3.2,76.7-3.2c65.5,0,124.1,6.7,163.3,17.3c30.7,8.3,49.5,19,50.3,30.6
			c0,0.3,0,0.5,0,0.8c0,0.9-0.1,1.7-0.3,2.6v0c-3.8,16.5-43.4,30.8-101.4,38.9c-32.6,4.6-70.9,7.2-111.9,7.2
			c-113.9,0-206.9-20.3-213.3-46v0c-0.2-0.9-0.4-1.8-0.4-2.8c0-9.6,12.3-18.6,33.4-26.2"/>
		<ellipse class="st4" cx="-165.5" cy="-473.2" rx="179.6" ry="36.4"/>
		<path class="st9" d="M11-139.2L11-139.2c0.1,0.6,0.1,1.1,0.1,1.7c0,22.7-80.6,41.1-180,41.1s-180-18.4-180-41.1c0,0,0,0,0-0.1"/>
		<line class="st9" x1="-382.4" y1="-567.6" x2="-348.8" y2="-137.2"/>
		<line class="st9" x1="16.9" y1="-214" x2="10.8" y2="-136.7"/>
		<polyline class="st9" points="44.7,-568.5 44.5,-565.1 44.5,-565.1 26.6,-337.7 19.9,-252.3 19.9,-252.3 		"/>
		<line class="st9" x1="-245.2" y1="-100.3" x2="-249.6" y2="-171"/>
		<path class="st9" d="M-252.2-210.9l-2.1-32.5l-5.7-90c-17.5-18.5-34.9-25.3-50.2-26.1c-28.6-1.4-50.5,18.2-54.3,21.8
			c-0.4,0.4-0.6,0.6-0.6,0.6"/>
		<path class="st9" d="M26.6-337.6c0,0-61.5-49.8-108.2,6.8l-14.8,230.6"/>
		<path class="st9" d="M-259.9-333.3c0,0,99-63.9,178.3,2.5"/>
		<g>
			<circle class="st2" cx="34.8" cy="-655.5" r="39"/>
			<line class="st2" x1="82.3" y1="-724.1" x2="-90.5" y2="-478.4"/>
		</g>
	</g>
	<g>
		<path class="st7" d="M413.7,400.2c0,0-0.3,1.3-0.9,3.7c-7.2,28.9-19,296.4-55.1,327.9c-24.8,21.6-112.5,27.7-168.3,26
			c-18.4-0.5-56.6-10.8-69.5-16.1c-27.6-11.4-37.1-32.7-44-53.6c-3.3-10.2-6.7-27.3-7.6-38L48.3,409.8c-0.3-3.2-0.9-6.4-1.8-9.5h0
			H413.7z"/>
		<path class="st11" d="M193.2,552.2l-73.5,18.4c-9.6,2.4-19.4-3.5-21.8-13.1l-17.7-70.7c-2.4-9.6,3.5-19.4,13.1-21.8l73.5-18.4
			c9.6-2.4,19.4,3.5,21.8,13.1l17.7,70.7C208.7,540,202.8,549.8,193.2,552.2z"/>
		<path class="st11" d="M223.5,679.7l-73-20.1c-9.5-2.6-15.2-12.6-12.6-22.1l19.3-70.3c2.6-9.5,12.6-15.2,22.1-12.6l73,20.1
			c9.5,2.6,15.2,12.6,12.6,22.1l-19.3,70.3C243,676.7,233,682.3,223.5,679.7z"/>
		<path class="st11" d="M348.8,611.5h-75.7c-9.9,0-18-8.1-18-18v-72.9c0-9.9,8.1-18,18-18h75.7c9.9,0,18,8.1,18,18v72.9
			C366.8,603.4,358.7,611.5,348.8,611.5z"/>
		<path class="st9" d="M105.1,262.2c-3.6,0.6-7.2,1.2-10.7,1.8"/>
		<path class="st9" d="M41.4,277.2C20.4,284.9,8.2,294,8.2,303.7c0,0.9,0.1,1.9,0.3,2.8l0,0.1c6.5,26.2,101.6,47,218.1,47
			c42,0,81.2-2.7,114.5-7.4c14.2-2,27.4-4.4,39.2-7"/>
		<path class="st9" d="M408.3,331.4c21.3-7.2,34.5-15.8,36.6-25c0.2-0.9,0.3-1.8,0.3-2.7c0-0.3,0-0.6,0-0.8
			c-0.9-11.9-20.1-22.8-51.5-31.3c-40.1-10.8-100-17.7-167-17.7c-26.9,0-52.6,1.1-76.3,3.1"/>
		<ellipse class="st4" cx="230.1" cy="400.3" rx="183.6" ry="37.2"/>
		<path class="st9" d="M410.6,741.9L410.6,741.9c0.1,0.6,0.1,1.1,0.1,1.7c0,23.2-82.4,42-184.1,42s-184.1-18.8-184.1-42
			c0,0,0,0,0-0.1"/>
		<line class="st9" x1="8.3" y1="303.7" x2="42.6" y2="743.9"/>
		<line class="st9" x1="418.8" y1="638" x2="418" y2="647.4"/>
		<line class="st9" x1="412.6" y1="716.6" x2="410.4" y2="744.4"/>
		<polyline class="st9" points="422.8,587.1 444.8,306.4 445.1,302.8 		"/>
		<circle class="st2" cx="434.9" cy="213.9" r="32.7"/>
		<line class="st2" x1="483.6" y1="143.7" x2="216.3" y2="523.6"/>
	</g>
	<path class="st7" d="M2531.1,1515.7c0,0-0.3,1.4-0.7,3.9c-5.8,30.1-15.1,308.6-44,341.4c-19.8,22.5-90,28.8-134.5,27.1
		c-14.7-0.6-45.3-11.2-55.6-16.8c-22-11.9-29.7-34.1-35.1-55.8c-2.7-10.6-5.4-28.4-6.1-39.5l-15.9-250.4c-0.2-3.4-0.7-6.7-1.5-9.9
		l0,0H2531.1z"/>
	<path class="st11" d="M2346.8,1637.6l-51.7,12.9c-9.6,2.4-19.4-3.5-21.8-13.1l-12.4-49.5c-2.4-9.6,3.5-19.4,13.1-21.8l51.7-12.9
		c9.6-2.4,19.4,3.5,21.8,13.1l12.4,49.5C2362.3,1625.4,2356.4,1635.2,2346.8,1637.6z"/>
	<path class="st11" d="M2350.9,1836l-51.4-14.1c-9.5-2.6-15.2-12.6-12.6-22.1l13.5-49.2c2.6-9.5,12.6-15.2,22.1-12.6l51.4,14.1
		c9.5,2.6,15.2,12.6,12.6,22.1l-13.5,49.2C2370.4,1832.9,2360.4,1838.6,2350.9,1836z"/>
	<path class="st11" d="M2465.1,1773.2h-53.3c-9.9,0-18-8.1-18-18v-51c0-9.9,8.1-18,18-18h53.3c9.9,0,18,8.1,18,18v51
		C2483.1,1765.1,2475,1773.2,2465.1,1773.2z"/>
	<path class="st9" d="M2284.5,1372c-2.9,0.6-5.8,1.2-8.5,1.8"/>
	<path class="st9" d="M2233.6,1387.6c-16.8,8-26.6,17.4-26.6,27.5c0,1,0.1,1.9,0.3,2.9l0,0.1c5.2,27.3,81.2,48.9,174.3,48.9
		c33.5,0,64.9-2.8,91.5-7.7c11.4-2.1,21.9-4.5,31.3-7.3"/>
	<path class="st9" d="M2526.8,1444c17-7.5,27.5-16.5,29.2-26.1c0.2-0.9,0.2-1.8,0.2-2.8c0-0.3,0-0.6,0-0.9
		c-0.7-12.4-16.1-23.8-41.1-32.6c-32-11.3-79.9-18.4-133.4-18.4c-21.5,0-42,1.1-61,3.3"/>
	<ellipse class="st4" cx="2384.4" cy="1509.4" rx="146.8" ry="32.4"/>
	<path class="st9" d="M2528.6,1871.4L2528.6,1871.4c0.1,0.6,0.1,1.2,0.1,1.8c0,24.2-65.9,43.7-147.1,43.7
		c-81.2,0-147.1-19.6-147.1-43.7c0,0,0,0,0-0.1"/>
	<line class="st9" x1="2207.1" y1="1415.2" x2="2234.6" y2="1873.5"/>
	<line class="st9" x1="2540.1" y1="1660.1" x2="2539.2" y2="1669.6"/>
	<line class="st9" x1="2534.6" y1="1729.7" x2="2528.8" y2="1833.7"/>
	<line class="st9" x1="2556.3" y1="1415.2" x2="2540.1" y2="1644.3"/>
	<line class="st9" x1="2555.6" y1="1410.6" x2="2555.6" y2="1410.6"/>
	<g>
		<path class="st7" d="M-1788.2-582.3C-1788.2-582.3-1788.2-582.3-1788.2-582.3c-1.1,0.9-38,31-75,61c0,0,0,0,0,0
			c-7,5.7-14,11.4-20.8,16.9c-25,20.4-46.7,38-52.6,42.8c-16.2,13.1-31.8,0-31.8,0L-2104.6-572l-17.4-14.1c0,0-0.1-0.1-0.1-0.1
			l-0.1-0.1l-0.8-0.7l11.4,0.2l215.7,3h0L-1788.2-582.3z"/>
		<path class="st4" d="M-1777.6-591.8c0,3.3-3.8,6.5-10.6,9.5c-18.7,8.1-60.4,14.4-112.5,16.9c-1.5,0.1-3,0.1-4.5,0.2
			c-7.9,0.3-16,0.6-24.2,0.8c-7.3,0.2-14.7,0.2-22.2,0.2c-67.3,0-125.6-6.1-154.6-14.9c-7.2-2.2-12.5-4.6-15.8-7
			c0,0-0.1-0.1-0.1-0.1c-0.3-0.2-0.6-0.5-0.9-0.7c-1.2-1.1-2-2.2-2.4-3.3c-0.2-0.5-0.3-1-0.3-1.6c0-8.8,25.8-16.6,66.1-21.6
			c29.7-3.7,67.2-6,108-6c25.8,0,50.2,0.9,72.2,2.5c12.7,0.9,24.5,2.1,35.3,3.4C-1803.6-608.4-1777.6-600.6-1777.6-591.8z"/>
		<path class="st2" d="M-1852.2-15.6c1.3,0.8,1.9,1.5,1.9,2.3c0,6.6-45.3,11.9-101.2,11.9c-55.9,0-101.2-5.3-101.2-11.9
			c0-0.5,0.3-1.1,0.9-1.6c0,0,0,0,0.1-0.1l0.2-0.2"/>
		<line class="st2" x1="-1857.8" y1="-20.1" x2="-1857.8" y2="-20.1"/>
		<path class="st2" d="M-2031.3-18c15.6,2.5,39.4,4.3,66.7,4.7"/>
		<polyline class="st9" points="-2052.6,-13.3 -2051.7,-14.9 -2051.7,-14.9 -2051.7,-14.9 -2051.5,-15.1 -2050.8,-15.6 
			-2044.3,-20.9 -2040.9,-23.6 -1951.6,-95.7 -1943.9,-89.5 		"/>
		<polyline class="st9" points="-1900.4,-54.4 -1857.8,-20.1 -1857.8,-20.1 -1852.2,-15.6 -1850.9,-14.5 -1850.3,-13.3 		"/>
		<line class="st9" x1="-1925.5" y1="-74.7" x2="-1927.8" y2="-76.5"/>
		<line class="st11" x1="-1952.7" y1="-431" x2="-1952.7" y2="-95.7"/>
		<g>
			<line class="st2" x1="-1797.2" y1="-782.1" x2="-1956" y2="-463.2"/>
			
				<ellipse transform="matrix(0.4459 -0.8951 0.8951 0.4459 -585.6309 -2015.1908)" class="st2" cx="-1920.4" cy="-534.6" rx="36.8" ry="27.1"/>
		</g>
		<ellipse class="st2" cx="-1952.5" cy="-641" rx="257.7" ry="30.3"/>
		<polyline class="st9" points="-2210.1,-641 -2207.8,-636.9 -2207.7,-636.9 -2207.1,-636.4 -2161.6,-599.6 		"/>
		<polyline class="st9" points="-2108.6,-556.9 -1952.7,-431 -1912.7,-463.3 		"/>
		<polyline class="st9" points="-1847.3,-516 -1699.8,-635.1 -1699.8,-635.1 -1696.2,-638 -1694.8,-641 		"/>
		<line class="st9" x1="-1882.2" y1="-487.9" x2="-1886.8" y2="-484.2"/>
		<line class="st9" x1="-2137.1" y1="-579.8" x2="-2142" y2="-583.8"/>
	</g>
	<g>
		<path class="st2" d="M787.1-794.9L787.1-794.9c-2,0-4.1,0-6.1,0c-82.7,0-149.7-8.5-149.7-18.9c0-5,15.2-9.5,40.1-12.9"/>
		<path class="st2" d="M703.4-830c22.6-1.7,49.2-2.7,77.6-2.7c82.7,0,149.7,8.5,149.7,19c0,0.2,0,0.3-0.1,0.5c0,0.1-0.1,0.3-0.1,0.4
			c0,0,0,0.1,0,0.1c-0.1,0.1-0.1,0.2-0.2,0.4c-0.4,0.7-1,1.3-1.9,2c-0.2,0.2-0.5,0.3-0.7,0.5c-0.5,0.3-1.1,0.7-1.8,1
			c-0.3,0.1-0.5,0.2-0.8,0.4c-0.3,0.2-0.7,0.3-1,0.4c-0.4,0.1-0.7,0.3-1.1,0.4c-0.4,0.1-0.8,0.3-1.2,0.4c-0.2,0.1-0.4,0.1-0.6,0.2
			c-0.7,0.2-1.4,0.4-2.1,0.7c-0.9,0.3-2,0.6-3,0.8c-0.5,0.1-1,0.3-1.6,0.4c-0.5,0.1-1,0.3-1.6,0.4c-1.9,0.4-4,0.9-6.2,1.3
			c-0.9,0.2-1.8,0.4-2.8,0.5c-1.3,0.2-2.5,0.4-3.9,0.7c-1.1,0.2-2.2,0.4-3.4,0.6c-2.3,0.3-4.7,0.7-7.2,1c-0.6,0.1-1.2,0.2-1.8,0.2
			c-5.3,0.7-11,1.3-17.1,1.9c-0.9,0.1-1.9,0.2-2.8,0.2c-5.9,0.5-12.2,1-18.7,1.4c-2.1,0.1-4.2,0.3-6.3,0.4c-0.4,0-0.8,0.1-1.2,0.1
			c-1.5,0.1-3,0.2-4.5,0.2c-3,0.2-6.1,0.3-9.2,0.4"/>
		<path class="st2" d="M840.5-104.1c-1.8-0.1-3.5-0.2-5.3-0.3"/>
		<path class="st2" d="M874.7-101.5c34.2,3.5,56,8.8,56,14.8c0,10.5-67,18.9-149.7,18.9c-82.7,0-149.7-8.5-149.7-18.9
			c0-9.8,58.4-17.8,133.4-18.8"/>
		<path class="st2" d="M812.2-105.3c-4.7-0.1-9.5-0.2-14.3-0.3"/>
		<path class="st2" d="M750.5-460.1c-23.4-4.2-45.1-13-64.2-25.6c0,0,0,0,0,0"/>
		<path class="st2" d="M652.8-514.3c-27.8-30.7-44.7-71.4-44.7-116c0-8.6,0.6-17.1,1.9-25.4l21.4-158c0,10.5,67,18.9,149.7,18.9
			c2,0,4.1,0,6.1,0h0"/>
		<path class="st2" d="M812.1-460.2C812.1-460.2,812.1-460.2,812.1-460.2c80.7-14.7,141.8-85.2,141.8-170.1c0-8.6-0.6-17.1-1.9-25.4
			h0l-21.4-158c0,0.2,0,0.3-0.1,0.5c0,0.1-0.1,0.3-0.1,0.4c0,0,0,0.1,0,0.1c-0.1,0.1-0.1,0.2-0.2,0.4c-0.4,0.7-1,1.3-1.9,2
			c-0.2,0.2-0.5,0.3-0.7,0.5c-0.5,0.3-1.1,0.7-1.8,1c-0.3,0.1-0.5,0.2-0.8,0.4c-0.3,0.2-0.7,0.3-1,0.4c-0.4,0.1-0.7,0.3-1.1,0.4
			c-0.4,0.1-0.8,0.3-1.2,0.4c-0.2,0.1-0.4,0.1-0.6,0.2c-0.7,0.2-1.4,0.4-2.1,0.7c-0.9,0.3-2,0.6-3,0.8c-0.5,0.1-1.1,0.3-1.6,0.4
			c-0.5,0.1-1,0.3-1.6,0.4c-1.9,0.4-4,0.9-6.2,1.3c-0.9,0.2-1.8,0.4-2.8,0.5c-1.3,0.2-2.5,0.4-3.9,0.7c-1.1,0.2-2.2,0.4-3.4,0.6
			c-2.3,0.3-4.7,0.7-7.2,1c-0.6,0.1-1.2,0.2-1.8,0.2c-5.3,0.7-11,1.3-17.1,1.9c-0.9,0.1-1.9,0.2-2.8,0.2c-5.9,0.5-12.2,1-18.7,1.4
			c-2.1,0.1-4.2,0.3-6.3,0.4c-0.4,0-0.8,0.1-1.2,0.1c-1.5,0.1-3,0.2-4.5,0.2c-3,0.2-6.1,0.3-9.2,0.4"/>
		<path class="st2" d="M774.5-375.2c0-2.5,0-5,0-7.5"/>
		<path class="st2" d="M774.5-343.3c-0.1,93.5-1.5,218.9-1.5,218.9s-0.2,8-8.2,18.9c-0.1,0.1-0.2,0.3-0.3,0.4"/>
		<path class="st2" d="M750.5-460.1c5.6,2.2,19.8,8.7,22.5,17.3c0.7,2.2,1.1,16.2,1.3,37.4"/>
		<path class="st11" d="M798.2-105.2c-9-11.1-8.9-19.3-8.9-19.3s-3.4-307.7,0-318.4c2.7-8.7,17.4-15.2,22.9-17.4c0,0,0,0,0,0"/>
		<path class="st7" d="M923-764.6c0,0,12.6,71.4,19.3,124.6c6.7,53.3-25.2,88.6-42,111c-16.8,22.4-50.4,46.5-81.3,54.9
			c-30.8,8.4-62.2,0-62.2,0s-66.2-18.5-107.1-66.7c-40.9-48.2-29.1-105.4-29.1-105.4l16.1-118.5H923z"/>
		<ellipse class="st4" cx="779.8" cy="-764.6" rx="143.2" ry="18.9"/>
	</g>
	<path class="st11" d="M-1051.3,1689.2c-0.7,2-1.4,4-2.1,5.9"/>
	<path class="st12" d="M1299.3,1470.9c0,0.1,0,0.3,0,0.4v-0.8C1299.3,1470.7,1299.3,1470.8,1299.3,1470.9z"/>
	<path class="st12" d="M1299.3,1549.5v-1c0,0.1,0,0.2,0,0.2v0.1v0.2c0,0,0,0.1,0,0.1c0,0,0,0,0,0.1c0.1,8.8,7.3,16,16.2,16
		c8.9,0,16.2-7.3,16.2-16.2c0-4-1.5-7.7-3.9-10.5c-0.7-0.6-1.3-1.2-1.9-1.9c-0.1-0.1-0.2-0.2-0.2-0.3l0.6,0.6l1.3,1.3l0.5,0.5"/>
	<path class="st12" d="M1326.5,1482.7l-0.4,0.4c0-0.1,0.1-0.1,0.1-0.2c0.4-0.4,0.8-0.8,1.2-1.2c0,0,0,0,0,0c0,0,0.1-0.1,0.1-0.1
		l-0.3,0.3C1327,1482.2,1326.8,1482.5,1326.5,1482.7z"/>
	<path class="st12" d="M1336.7,1510c0,0-0.1,0-0.1,0c0,0,0,0,0,0C1336.6,1510,1336.7,1510,1336.7,1510z"/>
	<path class="st12" d="M1337.2,1509.9c-0.1,0-0.2,0-0.3,0C1337,1510,1337.1,1510,1337.2,1509.9
		C1337.2,1509.9,1337.2,1509.9,1337.2,1509.9z"/>
	<path class="st12" d="M1339.4,1509.9c-0.1,0-0.2,0-0.2,0h0c-0.3,0-0.6,0-0.9,0c-0.3,0-0.6,0-0.8,0h0c-0.1,0-0.2,0-0.3,0h0.8
		c0.1,0,0.3,0,0.5,0c0.2,0,0.3,0,0.5,0H1339.4z"/>
	<path class="st12" d="M1339.5,1510L1339.5,1510c-0.1,0-0.3,0-0.4,0C1339.3,1509.9,1339.4,1509.9,1339.5,1510
		C1339.5,1509.9,1339.5,1509.9,1339.5,1510z"/>
	<path class="st12" d="M1340.1,1510c-0.1,0-0.1,0-0.2,0h0c-0.1,0-0.1,0-0.2,0c0.1,0,0.1,0,0.2,0C1340,1510,1340,1510,1340.1,1510z"
		/>
	<path class="st12" d="M1353.5,1520.5c0-0.1,0-0.1-0.1-0.2c-0.1-0.2-0.2-0.4-0.2-0.6c-0.1-0.2-0.1-0.3-0.2-0.5
		c-0.1-0.1-0.1-0.3-0.2-0.4c0-0.1-0.1-0.2-0.1-0.3c0-0.1-0.1-0.2-0.2-0.3c0,0,0-0.1-0.1-0.1c-0.1-0.2-0.2-0.3-0.3-0.5
		c-0.1-0.2-0.2-0.3-0.3-0.5c-0.1-0.2-0.2-0.3-0.3-0.5v0c-0.1-0.2-0.2-0.3-0.4-0.5s-0.2-0.3-0.4-0.5c-0.1-0.1-0.2-0.3-0.4-0.4
		c0,0,0-0.1-0.1-0.1c-0.1-0.1-0.2-0.3-0.3-0.4c0,0,0,0,0,0c-0.1-0.1-0.3-0.3-0.4-0.4c-0.1-0.1-0.2-0.2-0.4-0.4
		c-0.2-0.2-0.3-0.3-0.5-0.5c-0.2-0.1-0.3-0.3-0.5-0.4c-0.2-0.1-0.4-0.3-0.6-0.4c-0.1-0.1-0.2-0.2-0.4-0.3c-0.1-0.1-0.2-0.1-0.3-0.2
		c-0.1-0.1-0.3-0.2-0.4-0.2c-0.2-0.1-0.4-0.3-0.7-0.4c-0.1-0.1-0.2-0.1-0.3-0.1c-0.2-0.1-0.3-0.2-0.5-0.2c-0.2-0.1-0.4-0.2-0.6-0.2
		c-0.1-0.1-0.3-0.1-0.5-0.2c-0.1-0.1-0.3-0.1-0.4-0.1c0,0-0.1,0-0.1-0.1c-0.1,0-0.2-0.1-0.3-0.1c-0.1,0-0.2-0.1-0.3-0.1
		c-0.1,0-0.2-0.1-0.3-0.1c-0.1,0-0.2-0.1-0.3-0.1c-0.1,0-0.1,0-0.2-0.1c-0.1,0-0.2-0.1-0.4-0.1c-0.3-0.1-0.5-0.1-0.8-0.2
		c-0.1,0-0.2,0-0.3,0c0.1,0,0.1,0,0.2,0h0c0.2,0,0.4,0.1,0.5,0.1c0.1,0,0.1,0,0.2,0c0,0,0,0,0,0c0,0,0,0,0,0c0.2,0,0.3,0.1,0.5,0.1
		c0.1,0,0.1,0,0.1,0c0.2,0,0.3,0.1,0.5,0.1c0.2,0.1,0.4,0.1,0.7,0.2c0.2,0.1,0.4,0.1,0.5,0.2c0.1,0,0.2,0.1,0.3,0.1
		c0.2,0.1,0.4,0.2,0.6,0.3c0.1,0,0.2,0.1,0.3,0.1c0.2,0.1,0.4,0.2,0.7,0.3c0,0,0,0,0,0c0.2,0.1,0.4,0.2,0.6,0.4
		c0.1,0.1,0.2,0.1,0.3,0.2c0.1,0.1,0.2,0.2,0.4,0.2c0.1,0.1,0.2,0.2,0.4,0.3c0.2,0.2,0.5,0.3,0.7,0.5c0.1,0.1,0.2,0.1,0.2,0.2
		c0,0,0,0,0,0c0.1,0.1,0.3,0.2,0.4,0.4c0.1,0.1,0.3,0.3,0.4,0.4c0,0,0,0,0,0c0.1,0.1,0.2,0.2,0.3,0.3c0.1,0.1,0.2,0.2,0.3,0.3
		c0.1,0.1,0.2,0.3,0.4,0.4c0.1,0.1,0.2,0.3,0.4,0.4c0.1,0.1,0.2,0.2,0.2,0.3c0,0,0,0,0,0c0.1,0.2,0.3,0.3,0.4,0.5
		c0.1,0.1,0.2,0.2,0.3,0.4c0.1,0.2,0.2,0.3,0.3,0.5c0.1,0.2,0.2,0.3,0.3,0.5c0.1,0.1,0.1,0.2,0.2,0.3c0.1,0.2,0.2,0.4,0.3,0.7
		c0.1,0.2,0.2,0.4,0.3,0.7c0.1,0.1,0.1,0.2,0.1,0.3c0.1,0.3,0.3,0.7,0.4,1c0,0.1,0.1,0.2,0.1,0.4c0,0.1,0.1,0.2,0.1,0.4
		c0.1,0.2,0.1,0.4,0.1,0.6c0,0,0,0,0,0c0,0.2,0.1,0.3,0.1,0.5c0,0.1,0,0.1,0,0.2c-0.1-0.4-0.2-0.8-0.3-1.2
		C1353.7,1521.2,1353.6,1520.9,1353.5,1520.5z"/>
	<line class="st12" x1="1338.8" y1="1509.9" x2="1337.8" y2="1509.9"/>
	<line class="st12" x1="1327.3" y1="1482" x2="1326.5" y2="1482.7"/>
	<path class="st12" d="M1299.3,1470.9c0,0.1,0,0.3,0,0.4v-0.8C1299.3,1470.7,1299.3,1470.8,1299.3,1470.9z"/>
	<path class="st12" d="M1327.4,1481.8c-0.1,0.1-0.1,0.1-0.2,0.2c-0.2,0.3-0.5,0.5-0.8,0.8c-0.1,0.1-0.2,0.1-0.2,0.2
		C1326.6,1482.5,1327,1482.2,1327.4,1481.8z"/>
	<path class="st12" d="M1299.3,1549c0-0.1,0-0.1,0-0.2L1299.3,1549c0,0,0,0.1,0,0.1V1549z"/>
	<path class="st12" d="M1327.8,1538.5c-0.7-0.6-1.3-1.2-1.9-1.9c0.1,0.1,0.2,0.2,0.4,0.3c0.1,0.1,0.3,0.2,0.4,0.3l0.2,0.2
		c0,0,0.1,0.1,0.1,0.1c0,0,0,0,0.1,0.1c0,0,0,0,0.1,0.1c0.1,0.1,0.3,0.3,0.4,0.4C1327.7,1538.3,1327.8,1538.4,1327.8,1538.5z"/>
	<path class="st12" d="M1299.3,1548.7v0.3c0,0,0,0.1,0,0.1c0,0,0,0,0,0.1c0,0.1,0,0.2,0,0.3v-1
		C1299.3,1548.5,1299.3,1548.6,1299.3,1548.7z"/>
	<path class="st12" d="M1337.2,1509.9c-0.1,0-0.2,0-0.3,0C1337,1510,1337.1,1510,1337.2,1509.9
		C1337.2,1509.9,1337.2,1509.9,1337.2,1509.9z"/>
	<path class="st12" d="M1327.4,1481.8c0,0,0.1-0.1,0.1-0.1l-0.3,0.3c-0.2,0.3-0.5,0.5-0.8,0.8l-0.4,0.4c0-0.1,0.1-0.1,0.1-0.2
		C1326.6,1482.5,1327,1482.2,1327.4,1481.8C1327.4,1481.8,1327.4,1481.8,1327.4,1481.8z"/>
	<path class="st12" d="M1339.4,1509.9c-0.1,0-0.2,0-0.2,0h0c-0.3,0-0.6,0-0.9,0c-0.3,0-0.6,0-0.8,0h0c-0.1,0-0.2,0-0.3,0h0.8
		c0.1,0,0.3,0,0.5,0c0.2,0,0.3,0,0.5,0H1339.4z"/>
	<path class="st12" d="M1354.5,1525.3c0-0.1,0-0.2,0-0.3c0-0.1,0-0.1,0-0.2c0-0.1,0-0.1,0-0.2v0c0-0.1,0-0.2,0-0.4c0,0,0-0.1,0-0.1
		c0-0.2-0.1-0.5-0.1-0.7c0-0.1,0-0.2,0-0.2c0-0.1,0-0.2-0.1-0.3c-0.1-0.4-0.2-0.8-0.3-1.2c-0.1-0.4-0.2-0.7-0.4-1.1c0,0,0,0,0-0.1
		c-0.1-0.2-0.2-0.4-0.3-0.7c-0.1-0.2-0.1-0.3-0.2-0.5c-0.1-0.1-0.1-0.3-0.2-0.4c0-0.1-0.1-0.2-0.1-0.3c-0.1-0.1-0.1-0.2-0.2-0.3
		c0,0-0.1-0.1-0.1-0.1c0,0,0,0,0,0c0,0,0,0,0,0c-0.1-0.1-0.2-0.3-0.2-0.4c-0.1-0.2-0.2-0.3-0.3-0.5c-0.1-0.2-0.2-0.3-0.3-0.5v0
		c-0.1-0.2-0.2-0.3-0.4-0.5c-0.1-0.2-0.2-0.3-0.4-0.5c-0.1-0.1-0.2-0.3-0.4-0.4c0,0,0-0.1-0.1-0.1c-0.1-0.1-0.2-0.2-0.4-0.4l0,0
		c-0.1-0.1-0.3-0.3-0.4-0.4c-0.1-0.1-0.2-0.2-0.4-0.3c-0.2-0.2-0.3-0.3-0.5-0.5c-0.2-0.1-0.3-0.2-0.5-0.4c-0.2-0.1-0.4-0.3-0.6-0.4
		c-0.1-0.1-0.2-0.2-0.4-0.2c-0.1-0.1-0.2-0.2-0.3-0.2c-0.1-0.1-0.3-0.2-0.4-0.2c-0.2-0.1-0.4-0.2-0.7-0.4c-0.1-0.1-0.2-0.1-0.3-0.2
		c-0.1,0-0.2-0.1-0.2-0.1c-0.1,0-0.1-0.1-0.2-0.1c0,0,0,0,0,0c-0.2-0.1-0.4-0.2-0.6-0.2c0,0,0,0-0.1,0c-0.1,0-0.3-0.1-0.4-0.2
		c-0.1,0-0.3-0.1-0.4-0.1c0,0-0.1,0-0.1,0c-0.1,0-0.2-0.1-0.3-0.1c-0.1,0-0.2-0.1-0.3-0.1c-0.1,0-0.2,0-0.2-0.1
		c-0.1,0-0.2-0.1-0.3-0.1c-0.1,0-0.2,0-0.2-0.1c-0.1,0-0.2-0.1-0.4-0.1c0,0-0.1,0-0.1,0c0,0,0,0-0.1,0c-0.2-0.1-0.4-0.1-0.7-0.1
		c0,0-0.1,0-0.1,0c-0.1,0-0.1,0-0.2,0c0,0,0,0,0,0h0c-0.1,0-0.2,0-0.3,0c0,0,0,0,0,0c-0.1,0-0.1,0-0.2,0c-0.1,0-0.1,0-0.2,0h0
		c-0.1,0-0.1,0-0.2,0c-0.1,0-0.1,0-0.2,0h0c-0.1,0-0.2,0-0.4,0h0c-0.3,0-0.6,0-0.9,0c-0.3,0-0.6,0-0.8,0h0c0,0,0,0,0,0
		c-0.1,0-0.2,0-0.3,0h-33c0,1.3-0.5,2.5-1.4,3.4l23,23l0.6,0.6c0.1,0.1,0.2,0.2,0.4,0.3l0.4,0.4c0,0,0,0,0.1,0.1c0,0,0,0,0.1,0.1
		c0.2,0.2,0.3,0.3,0.5,0.4c0,0,0.1,0.1,0.1,0.1c0.1,0.1,0.3,0.2,0.4,0.3c0,0,0,0,0,0c0.2,0.1,0.3,0.3,0.5,0.4
		c0.2,0.1,0.4,0.3,0.5,0.4c0.1,0.1,0.2,0.1,0.3,0.2c0.1,0.1,0.2,0.1,0.3,0.2c0.1,0.1,0.2,0.1,0.3,0.2h0c0.1,0,0.1,0.1,0.2,0.1
		c0.1,0.1,0.2,0.1,0.3,0.2c0.3,0.2,0.6,0.3,0.9,0.4c0.1,0.1,0.2,0.1,0.3,0.2c0.1,0.1,0.2,0.1,0.3,0.2c0.4,0.2,0.9,0.3,1.3,0.5
		c0.1,0,0.2,0.1,0.4,0.1c0.2,0.1,0.5,0.1,0.8,0.2c0.1,0,0.3,0.1,0.4,0.1c0.1,0,0.2,0,0.3,0.1c0.1,0,0.2,0,0.3,0.1
		c0.2,0,0.4,0.1,0.6,0.1c0.1,0,0.2,0,0.3,0c0.1,0,0.2,0,0.2,0c0.1,0,0.2,0,0.3,0c0.2,0,0.5,0,0.7,0h0.9c0.3,0,0.5,0,0.8,0
		c0.1,0,0.1,0,0.2,0c0.2,0,0.4,0,0.6-0.1c0,0,0,0,0.1,0c0.1,0,0.2,0,0.4-0.1c0.3,0,0.5-0.1,0.8-0.1c0.1,0,0.3-0.1,0.4-0.1
		c0.2,0,0.3-0.1,0.5-0.1c0.1,0,0.1,0,0.2-0.1c0.2,0,0.3-0.1,0.5-0.1c0.1,0,0.3-0.1,0.4-0.1c0.1,0,0.1,0,0.2-0.1
		c0.2-0.1,0.3-0.1,0.5-0.2c0.1,0,0.2-0.1,0.4-0.2l0.4-0.1c0.1,0,0.2-0.1,0.3-0.1c0.1-0.1,0.3-0.1,0.4-0.2c0.1-0.1,0.2-0.1,0.3-0.2
		c0.1-0.1,0.2-0.1,0.3-0.2c0.1-0.1,0.2-0.1,0.4-0.2l0.3-0.2c0.1-0.1,0.2-0.1,0.3-0.2c0.1-0.1,0.2-0.1,0.3-0.2
		c0.2-0.1,0.4-0.3,0.6-0.5c0.1-0.1,0.2-0.2,0.3-0.2c0.1-0.1,0.2-0.2,0.3-0.2c0.1-0.1,0.2-0.2,0.3-0.2c0.1-0.1,0.2-0.2,0.3-0.3
		c0.1-0.1,0.2-0.2,0.3-0.3c0.4-0.4,0.7-0.7,1.1-1.1c0,0,0,0,0,0c0.1-0.1,0.2-0.2,0.2-0.3c0.1-0.2,0.2-0.3,0.4-0.5
		c0.1-0.2,0.2-0.3,0.3-0.5c0.1-0.2,0.3-0.4,0.4-0.6c0.1-0.1,0.1-0.2,0.2-0.3c0.1-0.1,0.1-0.2,0.2-0.3c0-0.1,0.1-0.2,0.2-0.3
		c0,0,0,0,0,0c0,0,0-0.1,0.1-0.1c0-0.1,0.1-0.1,0.1-0.2c0.1-0.2,0.1-0.3,0.2-0.4c0.1-0.1,0.1-0.2,0.2-0.3c0-0.1,0.1-0.2,0.1-0.3
		c0,0,0,0,0-0.1c0-0.1,0.1-0.2,0.1-0.3c0,0,0-0.1,0-0.1c0,0,0-0.1,0.1-0.2c0-0.1,0-0.1,0.1-0.2c0-0.1,0.1-0.2,0.1-0.3
		c0-0.1,0.1-0.2,0.1-0.3c0.1-0.1,0.1-0.3,0.1-0.4c0,0,0,0,0-0.1c0-0.1,0.1-0.3,0.1-0.4c0,0,0,0,0,0s0,0,0,0c0.1-0.2,0.1-0.4,0.2-0.7
		c0,0,0,0,0,0c0-0.1,0-0.1,0-0.2c0-0.1,0-0.2,0-0.2c0-0.1,0-0.2,0.1-0.4v0c0-0.1,0-0.2,0.1-0.4l0,0c0,0,0-0.1,0-0.1c0,0,0-0.1,0-0.1
		c0,0,0-0.1,0-0.1c0,0,0-0.1,0-0.1c0-0.1,0-0.2,0-0.4c0-0.1,0-0.2,0-0.3v-0.1c0-0.1,0-0.1,0-0.2c0-0.1,0-0.2,0-0.3
		c0-0.1,0-0.2,0-0.4C1354.5,1525.8,1354.5,1525.5,1354.5,1525.3z"/>
	<path class="st12" d="M1336.2,1510c-0.2,0-0.4,0.1-0.7,0.1c0.1,0,0.2,0,0.3-0.1C1335.9,1510.1,1336.1,1510.1,1336.2,1510z"/>
	<path class="st12" d="M1337.2,1509.9c-0.1,0-0.2,0-0.3,0C1337,1510,1337.1,1510,1337.2,1509.9
		C1337.2,1509.9,1337.2,1509.9,1337.2,1509.9z"/>
	<path class="st12" d="M1337.4,1509.9C1337.3,1509.9,1337.3,1509.9,1337.4,1509.9C1337.3,1509.9,1337.3,1509.9,1337.4,1509.9
		L1337.4,1509.9z"/>
	<path class="st12" d="M1339.1,1509.9c-0.3,0-0.6,0-0.9,0c-0.3,0-0.6,0-0.8,0c0.1,0,0.3,0,0.4,0h0c0.1,0,0.3,0,0.5,0
		c0.2,0,0.3,0,0.5,0h0C1338.9,1509.9,1339,1509.9,1339.1,1509.9z"/>
	<path class="st12" d="M1352.9,1532.9c0.1-0.1,0.1-0.2,0.1-0.3c-2.5,5.7-8.2,9.7-14.8,9.7c-3.9,0-7.4-1.4-10.2-3.6
		c-0.1-0.1-0.1-0.1-0.2-0.2c-0.7-0.6-1.3-1.2-1.9-1.9c-0.1-0.1-0.2-0.2-0.2-0.3l0.6,0.6c0.1,0.1,0.3,0.2,0.4,0.3l0.2,0.2
		c0,0,0.1,0.1,0.1,0.1c0,0,0,0,0.1,0.1c0,0,0,0,0.1,0.1c0.1,0.1,0.3,0.3,0.5,0.4c0,0,0.1,0.1,0.1,0.1c0.1,0.1,0.3,0.2,0.4,0.3
		c0,0,0,0,0,0c0.2,0.1,0.3,0.3,0.5,0.4c0.2,0.1,0.4,0.3,0.5,0.4c0.1,0.1,0.2,0.1,0.3,0.2c0.1,0.1,0.2,0.1,0.3,0.2
		c0.1,0.1,0.2,0.1,0.3,0.2c0,0,0,0,0,0c0.1,0,0.1,0.1,0.2,0.1c0.1,0.1,0.2,0.1,0.3,0.2c0.3,0.2,0.6,0.3,0.9,0.4
		c0.1,0.1,0.2,0.1,0.3,0.2c0.1,0.1,0.2,0.1,0.4,0.1c0.4,0.2,0.9,0.3,1.3,0.5c0.1,0,0.3,0.1,0.4,0.1c0.3,0.1,0.5,0.1,0.8,0.2
		c0.1,0,0.3,0.1,0.4,0.1c0.1,0,0.2,0,0.3,0.1c0.1,0,0.2,0,0.3,0.1c0.2,0,0.4,0.1,0.6,0.1c0.1,0,0.2,0,0.3,0c0.1,0,0.2,0,0.2,0
		c0.1,0,0.2,0,0.3,0c0.2,0,0.5,0,0.7,0c0.2,0,0.3,0,0.5,0c0.1,0,0.3,0,0.4,0c0.3,0,0.5,0,0.8,0c0.1,0,0.1,0,0.2,0
		c0.2,0,0.4,0,0.6-0.1c0,0,0.1,0,0.1,0c0.1,0,0.3,0,0.4-0.1c0.3,0,0.5-0.1,0.8-0.1c0.1,0,0.3-0.1,0.4-0.1c0.2,0,0.3-0.1,0.5-0.1
		c0.1,0,0.1,0,0.2,0c0.2,0,0.3-0.1,0.5-0.1c0.1,0,0.3-0.1,0.4-0.1c0.1,0,0.1,0,0.2-0.1c0.2-0.1,0.3-0.1,0.5-0.2
		c0.1,0,0.2-0.1,0.4-0.1c0.1-0.1,0.2-0.1,0.4-0.2c0.1,0,0.2-0.1,0.3-0.1c0.1-0.1,0.3-0.1,0.4-0.2c0.1-0.1,0.2-0.1,0.3-0.2
		c0.1-0.1,0.2-0.1,0.3-0.2c0.1-0.1,0.3-0.1,0.4-0.2c0.1-0.1,0.2-0.1,0.3-0.2s0.2-0.1,0.3-0.2c0.1-0.1,0.2-0.1,0.3-0.2
		c0.2-0.1,0.4-0.3,0.6-0.5c0.1-0.1,0.2-0.2,0.3-0.2c0.1-0.1,0.2-0.2,0.3-0.2c0.1-0.1,0.2-0.2,0.3-0.3c0.1-0.1,0.2-0.2,0.3-0.3
		c0.1-0.1,0.2-0.2,0.3-0.3c0.4-0.4,0.7-0.7,1.1-1.1c0,0,0,0,0,0c0.1-0.1,0.1-0.2,0.2-0.3c0.1-0.2,0.3-0.3,0.4-0.5
		c0.1-0.2,0.2-0.3,0.4-0.5c0.1-0.2,0.3-0.4,0.4-0.6c0.1-0.2,0.3-0.4,0.4-0.6c0.1-0.1,0.1-0.2,0.1-0.3c0.1-0.1,0.1-0.3,0.2-0.4
		C1352.8,1533.2,1352.9,1533.1,1352.9,1532.9z"/>
	<g>
		<path class="st9" d="M1306.3-769.7c-2.8-0.2-5.7-0.4-8.6-0.5"/>
		<path class="st9" d="M1272-770.9c-0.2,0-0.5,0-0.7,0c-13.2,0-25.8,0.5-37.5,1.4c-43.1,3.3-73.9,12-73.9,22.2
			c0,0.9,0.2,1.7,0.7,2.6c0.1,0.2,0.2,0.4,0.3,0.6c0,0,0,0,0,0c0.1,0.2,0.2,0.3,0.3,0.5c0.1,0.1,0.2,0.3,0.3,0.4c0,0,0,0,0,0
			c0.1,0.1,0.2,0.2,0.3,0.3c0.1,0.1,0.2,0.2,0.3,0.3c0.2,0.2,0.4,0.4,0.6,0.5c0.1,0.1,0.3,0.2,0.4,0.4c0.1,0.1,0.3,0.2,0.4,0.4
			c0.1,0.1,0.3,0.2,0.5,0.4c0.8,0.6,1.7,1.2,2.7,1.8c0.2,0.1,0.4,0.2,0.6,0.3c1,0.5,2,1.1,3.1,1.6c0.3,0.1,0.6,0.3,0.9,0.4
			c0.3,0.1,0.6,0.3,1,0.4c0.4,0.2,0.8,0.3,1.2,0.5c1.1,0.4,2.3,0.8,3.5,1.3c0.4,0.1,0.8,0.3,1.2,0.4c0.5,0.2,1,0.3,1.5,0.5
			c0.5,0.2,1,0.3,1.6,0.5c0.2,0.1,0.4,0.1,0.6,0.2c0.4,0.1,0.8,0.2,1.3,0.4c0.4,0.1,0.9,0.2,1.3,0.4c0.4,0.1,0.8,0.2,1.2,0.3
			c0.8,0.2,1.7,0.4,2.6,0.6c0.8,0.2,1.7,0.4,2.6,0.6c0,0,0.1,0,0.1,0c0.1,0,0.2,0,0.4,0.1c0.6,0.1,1.2,0.2,1.8,0.4c0,0,0,0,0,0
			c0.6,0.1,1.2,0.2,1.8,0.4c0.5,0.1,1,0.2,1.5,0.3c0.5,0.1,1,0.2,1.5,0.3c0.5,0.1,1.1,0.2,1.6,0.3c0.4,0.1,0.7,0.1,1.1,0.2
			c0.6,0.1,1.3,0.2,1.9,0.3c3.9,0.7,8.1,1.3,12.4,1.8c0.7,0.1,1.4,0.2,2.2,0.3c0.7,0.1,1.5,0.2,2.2,0.3c0.7,0.1,1.5,0.2,2.2,0.2
			c0.7,0.1,1.5,0.2,2.3,0.2c0.8,0.1,1.5,0.2,2.3,0.2c0.8,0.1,1.5,0.1,2.3,0.2c1.5,0.1,2.9,0.3,4.4,0.4c2.5,0.2,5.1,0.4,7.6,0.5
			c0.2,0,0.5,0,0.7,0c1.1,0.1,2.3,0.1,3.4,0.2c1,0,2,0.1,3,0.1c0.1,0,0.2,0,0.3,0c1.7,0.1,3.4,0.1,5.1,0.2c0.5,0,1.1,0,1.6,0.1
			c2.6,0.1,5.2,0.1,7.9,0.2c0.9,0,1.9,0,2.9,0c2,0,4,0,6.1,0c57.1,0,104.3-9.1,110.7-20.9c0.5-0.9,0.7-1.8,0.7-2.7
			c0-8.6-21.5-16.1-53.8-20.2h0"/>
		<path class="st9" d="M1349.5-207.6c-2.6,1.6-5.3,3.1-8,4.5"/>
		<path class="st9" d="M1164.3-524.2c-5.3,35.6-15,77.7-32.3,126.2c-8,18.5-12.5,38.9-12.5,60.4c0,79.1,60.6,144.1,137.9,151.1"/>
		<path class="st9" d="M1168.9-566.1c3.4-49.1-1.4-80.5-0.3-93.1c1.8-21-6.2-73.2-8.1-85.4c0.1,0.2,0.2,0.4,0.3,0.6c0,0,0,0,0,0
			c0.1,0.2,0.2,0.3,0.3,0.5c0.1,0.1,0.2,0.3,0.3,0.4c0,0,0,0,0,0c0.1,0.1,0.2,0.2,0.3,0.3c0.1,0.1,0.2,0.2,0.3,0.3
			c0.2,0.2,0.4,0.4,0.6,0.5c0.1,0.1,0.3,0.2,0.4,0.4c0.1,0.1,0.3,0.2,0.4,0.4c0.1,0.1,0.3,0.2,0.5,0.4c0.8,0.6,1.7,1.2,2.7,1.8
			c0.2,0.1,0.4,0.2,0.6,0.3c1,0.5,2,1.1,3.1,1.6c0.6,0.3,1.2,0.5,1.9,0.8c0.4,0.2,0.8,0.3,1.2,0.5c1.1,0.4,2.3,0.8,3.5,1.3
			c0.4,0.1,0.8,0.3,1.2,0.4c0.5,0.2,1,0.3,1.5,0.5c0.5,0.2,1,0.3,1.6,0.5c0.2,0.1,0.4,0.1,0.6,0.2c0.4,0.1,0.8,0.2,1.3,0.4
			c0.4,0.1,0.9,0.2,1.3,0.4c0.4,0.1,0.8,0.2,1.2,0.3c1.7,0.4,3.4,0.8,5.3,1.3c0.7,0.2,1.4,0.3,2.1,0.5c0.6,0.1,1.2,0.2,1.8,0.4
			c0.5,0.1,1,0.2,1.5,0.3c0.5,0.1,1,0.2,1.5,0.3c0.5,0.1,1.1,0.2,1.6,0.3c0.4,0.1,0.7,0.1,1.1,0.2c0.6,0.1,1.3,0.2,1.9,0.3
			c3.9,0.7,8.1,1.3,12.4,1.8c0.7,0.1,1.4,0.2,2.2,0.3c0.7,0.1,1.5,0.2,2.2,0.3c0.7,0.1,1.5,0.2,2.2,0.2c0.7,0.1,1.5,0.2,2.3,0.2
			c0.8,0.1,1.5,0.2,2.3,0.2c0.8,0.1,1.5,0.1,2.3,0.2c1.5,0.1,2.9,0.3,4.4,0.4c2.5,0.2,5.1,0.4,7.6,0.5c0.2,0,0.5,0,0.7,0
			c1.1,0.1,2.3,0.1,3.4,0.2c1,0,2,0.1,3,0.1c0.1,0,0.2,0,0.3,0c1.7,0.1,3.4,0.1,5.1,0.2c0.5,0,1.1,0,1.6,0.1
			c2.6,0.1,5.2,0.1,7.9,0.2c0.9,0,1.9,0,2.9,0c2,0,4,0,6.1,0c57.1,0,104.3-9.1,110.7-20.9c-2,12.5-9.9,64.3-8.1,85.2
			c2,23.6-16.5,112.5,36.3,260.4c8.3,18.7,12.8,39.4,12.8,61.2c0,42.9-17.8,81.6-46.4,109.2"/>
		<path class="st9" d="M1317.6-193.2c-10.4,3.3-21.3,5.6-32.5,6.6"/>
		<path class="st9" d="M1160.5-744.7c-0.3-1.7-0.4-2.6-0.4-2.6"/>
		<path class="st11" d="M1412-393.6c-0.6-1.7-1.3-3.5-1.9-5.2"/>
		<path class="st9" d="M1382.4-747.2c0,0-0.2,1-0.4,2.7"/>
		<line class="st9" x1="1368.7" y1="-87" x2="1368.7" y2="-87"/>
		<line class="st9" x1="1173.8" y1="-87" x2="1173.8" y2="-87"/>
		<path class="st9" d="M1302.7-107.1c37.7,2.9,65,10.8,66,20.1h-194.9c1-9.3,28.2-17.2,65.8-20.1"/>
		<g>
			<path class="st11" d="M1257.4-186.6c2.8,26.7,2.9,69.7-18.5,79.8"/>
			<path class="st11" d="M1303.3-106.8c-21.4-10.1-20.9-53.1-18.2-79.7"/>
		</g>
		<g>
			<g>
				<path class="st7" d="M1178.7-677.5L1178.7-677.5c-0.1-0.5-0.2-1-0.3-1.4L1178.7-677.5z"/>
				<path class="st7" d="M1405.1-360.2c0,66.7-50.3,129.5-115.1,136.9c-4.1,1.5-9.8,2.1-16.1,1.8c-0.8,0-1.6,0.1-2.4,0.1
					c-5.6,0-11-0.8-15.7-2.2c-63.3-8.4-110.6-52.8-110.6-118.6c0-18.4,3.8-53.8,10.7-69.7c45.5-127.1,28.6-194,28.1-214.3
					c-0.1-7.4-0.8-15.5-1.6-23.2c-1.2-11.1-2.8-21.5-3.8-28.1l0,0l4.2-1.9l182.9,0c-0.1,0.6-0.2,1.3-0.3,2.1v0
					c-2.1,11.8-7.7,36.5-6.2,53.4c1.8,20.2-10.3,84.7,34.9,211.3C1401.2-396.6,1405.1-378.9,1405.1-360.2z"/>
				<path class="st7" d="M1182.4-649.4l-3.8-28.1C1179.7-670.9,1181.3-660.5,1182.4-649.4z"/>
			</g>
		</g>
		<path class="st4" d="M1365.7-679.4c0,0.9-0.2,1.8-0.6,2.7c-5.4,11.8-45,20.9-93.1,20.9c-48.3,0-88.1-9.2-93.1-21.1
			c-0.4-0.8-0.6-1.7-0.6-2.6c0-13.1,41.9-23.6,93.7-23.6C1323.8-703.1,1365.7-692.5,1365.7-679.4z"/>
		<path class="st11" d="M1253.4-357.2l-44.2,11c-9.6,2.4-19.4-3.5-21.8-13.1l-10.5-42.2c-2.4-9.6,3.5-19.4,13.1-21.8l44.2-11
			c9.6-2.4,19.4,3.5,21.8,13.1l10.5,42.2C1268.9-369.4,1263-359.6,1253.4-357.2z"/>
		<path class="st11" d="M1275.5-266.6l-43.9-12.1c-9.5-2.6-15.2-12.6-12.6-22.1l11.5-41.9c2.6-9.5,12.6-15.2,22.1-12.6l43.9,12.1
			c9.5,2.6,15.2,12.6,12.6,22.1l-11.5,41.9C1295-269.7,1285-264,1275.5-266.6z"/>
		<path class="st11" d="M1366.7-315.1h-45.5c-9.9,0-18-8.1-18-18v-43.5c0-9.9,8.1-18,18-18h45.5c9.9,0,18,8.1,18,18v43.5
			C1384.7-323.2,1376.6-315.1,1366.7-315.1z"/>
		
			<ellipse transform="matrix(2.499669e-02 -0.9997 0.9997 2.499669e-02 1729.204 801.5949)" class="st4" cx="1275.5" cy="-485.7" rx="63" ry="61.3"/>
		<g>
			<path class="st12" d="M1256.8-456.7c-0.1,0.1-0.2,0.3-0.3,0.4c-0.2,0.2-0.4,0.4-0.6,0.6c0,0-0.1,0.1-0.1,0.1
				c-0.2,0.2-0.4,0.4-0.6,0.6c-0.1,0.1-0.2,0.2-0.3,0.2l0.9-0.9L1256.8-456.7z"/>
			<path class="st12" d="M1245.1-482.8h0.7c-0.1,0-0.2,0-0.3,0c-0.3,0-0.6,0-0.9,0c-0.3,0-0.6,0-0.9,0c-0.1,0-0.2,0-0.3,0h0.7
				c0.2,0,0.3,0,0.5,0C1244.8-482.9,1244.9-482.9,1245.1-482.8z"/>
			<path class="st12" d="M1256.4-509.4c0.1,0.1,0.1,0.1,0.2,0.2l-0.5-0.5l-0.5-0.5l-0.4-0.4c0.1,0,0.1,0.1,0.2,0.1
				C1255.6-510.2,1256-509.8,1256.4-509.4L1256.4-509.4z"/>
			<path class="st12" d="M1282.9-521.2c0,0.1,0,0.3,0,0.4v-0.8C1282.9-521.5,1282.9-521.3,1282.9-521.2z"/>
			<path class="st12" d="M1287.6-482.8c0,1.3-0.5,2.5-1.4,3.3c-0.8,0.8-2,1.4-3.3,1.4s-2.5-0.5-3.3-1.4c-0.8-0.8-1.4-2-1.4-3.3
				c0-1.3,0.5-2.5,1.4-3.3c0.8-0.8,2-1.4,3.3-1.4s2.5,0.5,3.3,1.4C1287-485.3,1287.6-484.1,1287.6-482.8z"/>
			<path class="st12" d="M1282.9-443.9v-1c0,0.1,0,0.2,0,0.2v0.1v0.2c0,0,0,0.1,0,0.1c0,0,0,0,0,0.1c0.1,8.7,7.2,15.7,15.9,15.7
				c8.8,0,15.9-7.1,15.9-15.9c0-3.9-1.4-7.6-3.8-10.3c-0.7-0.6-1.3-1.2-1.9-1.8c-0.1-0.1-0.2-0.2-0.2-0.3l0.6,0.6l1.3,1.3l0.5,0.5"
				/>
			<path class="st12" d="M1282.9-422.3c16.7,0,31.8-6.8,42.8-17.7"/>
			<path class="st12" d="M1309.6-509.6l-0.4,0.4c0-0.1,0.1-0.1,0.1-0.2c0.4-0.4,0.7-0.8,1.1-1.1c0,0,0,0,0,0c0,0,0.1-0.1,0.1-0.1
				l-0.3,0.3C1310.2-510.1,1309.9-509.8,1309.6-509.6z"/>
			<path class="st12" d="M1319.7-482.8c0,0-0.1,0-0.1,0c0,0,0,0,0,0C1319.6-482.8,1319.7-482.8,1319.7-482.8z"/>
			<path class="st12" d="M1320.2-482.8c-0.1,0-0.2,0-0.3,0C1320-482.8,1320.1-482.8,1320.2-482.8
				C1320.1-482.8,1320.2-482.8,1320.2-482.8z"/>
			<path class="st12" d="M1322.3-482.8c-0.1,0-0.2,0-0.2,0h0c-0.3,0-0.6,0-0.9,0c-0.3,0-0.5,0-0.8,0h0c-0.1,0-0.2,0-0.3,0h0.8
				c0.1,0,0.3,0,0.4,0c0.2,0,0.3,0,0.5,0H1322.3z"/>
			<path class="st12" d="M1322.5-482.8L1322.5-482.8c-0.1,0-0.3,0-0.4,0C1322.2-482.8,1322.3-482.8,1322.5-482.8
				C1322.5-482.8,1322.5-482.8,1322.5-482.8z"/>
			<path class="st12" d="M1323-482.8c-0.1,0-0.1,0-0.2,0h0c-0.1,0-0.1,0-0.2,0c0.1,0,0.1,0,0.2,0
				C1322.9-482.8,1323-482.8,1323-482.8z"/>
			<path class="st12" d="M1336.2-472.4c0,0,0-0.1-0.1-0.1c-0.1-0.2-0.1-0.4-0.2-0.6c-0.1-0.2-0.1-0.3-0.2-0.4
				c-0.1-0.1-0.1-0.3-0.2-0.4c0-0.1-0.1-0.2-0.1-0.3c0-0.1-0.1-0.2-0.2-0.3c0,0,0-0.1-0.1-0.1c-0.1-0.2-0.2-0.3-0.3-0.5
				c-0.1-0.2-0.2-0.3-0.3-0.5c-0.1-0.2-0.2-0.3-0.3-0.5v0c-0.1-0.2-0.2-0.3-0.3-0.5c-0.1-0.2-0.2-0.3-0.4-0.5
				c-0.1-0.1-0.2-0.3-0.4-0.4c0,0,0-0.1-0.1-0.1c-0.1-0.1-0.2-0.3-0.3-0.4c0,0,0,0,0,0c-0.1-0.1-0.3-0.3-0.4-0.4
				c-0.1-0.1-0.2-0.2-0.4-0.3c-0.2-0.2-0.3-0.3-0.5-0.4c-0.2-0.1-0.3-0.2-0.5-0.4c-0.2-0.1-0.4-0.3-0.6-0.4
				c-0.1-0.1-0.2-0.2-0.4-0.2c-0.1-0.1-0.2-0.1-0.3-0.2c-0.1-0.1-0.3-0.2-0.4-0.2c-0.2-0.1-0.4-0.3-0.7-0.4
				c-0.1-0.1-0.2-0.1-0.3-0.1c-0.2-0.1-0.3-0.2-0.5-0.2c-0.2-0.1-0.4-0.2-0.5-0.2c-0.1-0.1-0.3-0.1-0.4-0.2
				c-0.1-0.1-0.3-0.1-0.4-0.1c0,0-0.1,0-0.1-0.1c-0.1,0-0.2-0.1-0.3-0.1c-0.1,0-0.2-0.1-0.3-0.1c-0.1,0-0.2-0.1-0.3-0.1
				c-0.1,0-0.2-0.1-0.3-0.1c-0.1,0-0.1,0-0.2-0.1c-0.1,0-0.2-0.1-0.4-0.1c-0.3-0.1-0.5-0.1-0.8-0.2c-0.1,0-0.2,0-0.3,0
				c0.1,0,0.1,0,0.2,0h0c0.2,0,0.4,0.1,0.5,0.1c0.1,0,0.1,0,0.2,0c0,0,0,0,0,0c0,0,0,0,0,0c0.2,0,0.3,0.1,0.5,0.1c0.1,0,0.1,0,0.1,0
				c0.2,0,0.3,0.1,0.5,0.1c0.2,0.1,0.4,0.1,0.7,0.2c0.2,0.1,0.4,0.1,0.5,0.2c0.1,0,0.2,0.1,0.3,0.1c0.2,0.1,0.4,0.2,0.6,0.3
				c0.1,0,0.2,0.1,0.3,0.1c0.2,0.1,0.4,0.2,0.6,0.3c0,0,0,0,0,0c0.2,0.1,0.4,0.2,0.6,0.4c0.1,0.1,0.2,0.1,0.3,0.2
				c0.1,0.1,0.2,0.2,0.4,0.2c0.1,0.1,0.2,0.2,0.4,0.2c0.2,0.2,0.5,0.3,0.7,0.5c0.1,0.1,0.2,0.1,0.2,0.2c0,0,0,0,0,0
				c0.1,0.1,0.3,0.2,0.4,0.4c0.1,0.1,0.3,0.3,0.4,0.4c0,0,0,0,0,0c0.1,0.1,0.2,0.2,0.3,0.3c0.1,0.1,0.2,0.2,0.3,0.3
				c0.1,0.1,0.2,0.3,0.4,0.4c0.1,0.1,0.2,0.3,0.3,0.4c0.1,0.1,0.2,0.2,0.2,0.3c0,0,0,0,0,0c0.1,0.2,0.2,0.3,0.4,0.5
				c0.1,0.1,0.2,0.2,0.3,0.4c0.1,0.2,0.2,0.3,0.3,0.4c0.1,0.2,0.2,0.3,0.3,0.5c0.1,0.1,0.1,0.2,0.2,0.3c0.1,0.2,0.2,0.4,0.3,0.6
				c0.1,0.2,0.2,0.4,0.3,0.7c0.1,0.1,0.1,0.2,0.1,0.3c0.1,0.3,0.3,0.7,0.4,1c0,0.1,0.1,0.2,0.1,0.3c0,0.1,0.1,0.2,0.1,0.4
				c0.1,0.2,0.1,0.4,0.1,0.5c0,0,0,0,0,0c0,0.2,0.1,0.3,0.1,0.5c0,0.1,0,0.1,0,0.2c-0.1-0.4-0.2-0.8-0.3-1.2
				C1336.5-471.7,1336.3-472.1,1336.2-472.4z"/>
			<path class="st12" d="M1287.6-482.8c0,1.3-0.5,2.5-1.4,3.3c-0.8,0.8-2,1.4-3.3,1.4s-2.5-0.5-3.3-1.4c-0.8-0.8-1.4-2-1.4-3.3
				c0-1.3,0.5-2.5,1.4-3.3c0.8-0.8,2-1.4,3.3-1.4s2.5,0.5,3.3,1.4C1287-485.3,1287.6-484.1,1287.6-482.8z"/>
			<line class="st12" x1="1321.8" y1="-482.8" x2="1320.8" y2="-482.8"/>
			<line class="st12" x1="1245.1" y1="-482.8" x2="1244.1" y2="-482.8"/>
			<line class="st12" x1="1256" y1="-509.7" x2="1255.5" y2="-510.2"/>
			<line class="st12" x1="1310.4" y1="-510.3" x2="1309.6" y2="-509.6"/>
			<path class="st12" d="M1282.9-521.6v34.1c-1.3,0-2.5,0.5-3.3,1.4l-23-23c-0.1-0.1-0.1-0.1-0.2-0.2l0,0c-0.4-0.4-0.7-0.8-1.1-1.1
				c-2.6-2.8-4.1-6.6-4.1-10.7c0-8.8,7.1-15.9,15.9-15.9C1275.6-537.1,1282.7-530.2,1282.9-521.6z"/>
			<path class="st12" d="M1256.4-509.4c-0.1-0.1-0.2-0.2-0.3-0.3l-0.5-0.5c-0.1-0.1-0.2-0.2-0.3-0.3
				C1255.6-510.2,1256-509.8,1256.4-509.4z"/>
			<path class="st12" d="M1282.9-521.2c0,0.1,0,0.3,0,0.4v-0.8C1282.9-521.5,1282.9-521.3,1282.9-521.2z"/>
			<path class="st12" d="M1314.7-521.2c0,4.1-1.6,7.9-4.1,10.7c0,0,0,0,0,0c-0.4,0.4-0.8,0.7-1.1,1.1c0,0.1-0.1,0.1-0.1,0.2
				l-23.1,23.1c-0.8-0.9-2-1.4-3.3-1.4v-33.3c0-0.1,0-0.3,0-0.4c0-8.8,7.1-15.9,15.9-15.9S1314.7-530,1314.7-521.2z"/>
			<path class="st12" d="M1310.6-510.5c-0.1,0.1-0.1,0.1-0.2,0.2c-0.2,0.3-0.5,0.5-0.8,0.8c-0.1,0.1-0.2,0.1-0.2,0.2
				C1309.8-509.8,1310.2-510.2,1310.6-510.5z"/>
			<path class="st12" d="M1314.8-444.4c0,8.8-7.1,15.9-15.9,15.9c-8.7,0-15.8-7-15.9-15.7c0,0,0,0,0-0.1c0,0,0-0.1,0-0.1v-0.3
				c0-0.1,0-0.2,0-0.2v-33.3c1.3,0,2.5-0.5,3.3-1.4l22.7,22.7c0.1,0.1,0.2,0.2,0.2,0.3c0.6,0.7,1.2,1.3,1.9,1.8
				C1313.3-452,1314.8-448.3,1314.8-444.4z"/>
			<path class="st12" d="M1282.9-444.4c0-0.1,0-0.1,0-0.2L1282.9-444.4c0,0,0,0.1,0,0.1V-444.4z"/>
			<path class="st12" d="M1311-454.7c-0.7-0.6-1.3-1.2-1.9-1.8c0.1,0.1,0.2,0.2,0.3,0.3c0.1,0.1,0.3,0.2,0.4,0.3l0.2,0.2
				c0,0,0.1,0.1,0.1,0.1c0,0,0,0,0.1,0.1c0,0,0,0,0.1,0.1c0.1,0.1,0.3,0.3,0.4,0.4C1310.8-454.9,1310.9-454.8,1311-454.7z"/>
			<path class="st12" d="M1282.9-444.7v0.3c0,0,0,0.1,0,0.1c0,0,0,0,0,0.1c0,0.1,0,0.2,0,0.3v-1
				C1282.9-444.8,1282.9-444.7,1282.9-444.7z"/>
			<path class="st12" d="M1282.9-478.2v34.3c-0.3,8.5-7.3,15.4-15.9,15.4c-8.8,0-15.9-7.1-15.9-15.9c0-4.4,1.8-8.3,4.6-11.2
				c0,0,0.1-0.1,0.1-0.1c0.2-0.2,0.4-0.4,0.6-0.6c0.1-0.1,0.2-0.2,0.3-0.4l22.8-22.8C1280.4-478.7,1281.6-478.2,1282.9-478.2z"/>
			<path class="st12" d="M1320.2-482.8c-0.1,0-0.2,0-0.3,0C1320-482.8,1320.1-482.8,1320.2-482.8
				C1320.1-482.8,1320.2-482.8,1320.2-482.8z"/>
			<path class="st12" d="M1282.9-422.3c-33.4,0-60.5-27.1-60.5-60.5s27.1-60.5,60.5-60.5c33.4,0,60.5,27.1,60.5,60.5
				c0,16.7-6.8,31.8-17.7,42.8"/>
			<path class="st12" d="M1311.2-454.6l-0.5-0.5l-1.3-1.3c0.1,0.1,0.3,0.2,0.4,0.3l0.2,0.2c0,0,0.1,0.1,0.1,0.1c0,0,0,0,0.1,0.1
				c0,0,0,0,0.1,0.1c0.1,0.1,0.3,0.3,0.5,0.4c0,0,0.1,0.1,0.1,0.1C1311-454.8,1311.1-454.7,1311.2-454.6c0.1,0,0.1,0,0.1,0
				c0.2,0.1,0.3,0.3,0.5,0.4c0.2,0.1,0.3,0.3,0.5,0.4c0.1,0.1,0.2,0.1,0.3,0.2c0.1,0.1,0.2,0.1,0.3,0.2c0.1,0.1,0.2,0.1,0.3,0.2
				c0,0,0,0,0,0c0.1,0,0.1,0.1,0.2,0.1c0.1,0.1,0.2,0.1,0.3,0.2c0.3,0.2,0.6,0.3,0.9,0.4c0.1,0.1,0.2,0.1,0.3,0.2
				c0.1,0.1,0.2,0.1,0.3,0.1c0.4,0.2,0.8,0.3,1.3,0.5c0.1,0,0.2,0.1,0.4,0.1c0.3,0.1,0.5,0.1,0.8,0.2c0.1,0,0.3,0.1,0.4,0.1
				c0.1,0,0.2,0,0.3,0.1c0.1,0,0.2,0,0.3,0.1c0.2,0,0.4,0.1,0.5,0.1c0.1,0,0.2,0,0.3,0c0.1,0,0.2,0,0.2,0c0.1,0,0.2,0,0.3,0
				c0.2,0,0.5,0,0.7,0c0.2,0,0.3,0,0.5,0c0.1,0,0.3,0,0.4,0c0.3,0,0.5,0,0.8,0c0.1,0,0.1,0,0.2,0c0.2,0,0.4,0,0.6-0.1
				c0,0,0.1,0,0.1,0c0.1,0,0.2,0,0.4-0.1c0.3,0,0.5-0.1,0.8-0.1c0.1,0,0.3-0.1,0.4-0.1c0.2,0,0.3-0.1,0.5-0.1c0.1,0,0.1,0,0.2,0
				c0.2,0,0.3-0.1,0.5-0.1c0.1,0,0.3-0.1,0.4-0.1c0.1,0,0.1,0,0.2-0.1c0.2-0.1,0.3-0.1,0.5-0.2c0.1,0,0.2-0.1,0.4-0.1
				c0.1-0.1,0.2-0.1,0.3-0.2c0.1,0,0.2-0.1,0.3-0.1c0.1-0.1,0.3-0.1,0.4-0.2c0.1-0.1,0.2-0.1,0.3-0.2c0.1-0.1,0.2-0.1,0.3-0.2
				c0.1-0.1,0.3-0.1,0.4-0.2c0.1-0.1,0.2-0.1,0.3-0.2s0.2-0.1,0.3-0.2c0.1-0.1,0.2-0.1,0.3-0.2c0.2-0.1,0.4-0.3,0.6-0.4
				c0.1-0.1,0.2-0.2,0.3-0.2c0.1-0.1,0.2-0.2,0.3-0.2c0.1-0.1,0.2-0.2,0.3-0.2c0.1-0.1,0.2-0.2,0.3-0.3c0.1-0.1,0.2-0.2,0.3-0.3
				c0.4-0.4,0.7-0.7,1-1.1c0,0,0,0,0,0c0.1-0.1,0.1-0.2,0.2-0.3c0.1-0.2,0.2-0.3,0.4-0.5c0.1-0.2,0.2-0.3,0.3-0.5
				c0.1-0.2,0.3-0.4,0.4-0.6c0.1-0.2,0.3-0.4,0.4-0.6c0.1-0.1,0.1-0.2,0.1-0.3c0.1-0.1,0.1-0.3,0.2-0.4c0.1-0.1,0.1-0.3,0.2-0.4
				c0.1-0.1,0.1-0.2,0.1-0.3c0-0.1,0.1-0.2,0.1-0.3c0,0,0-0.1,0-0.1c0-0.1,0.1-0.2,0.1-0.3v0c0,0,0-0.1,0-0.1c0-0.1,0-0.1,0.1-0.2
				s0-0.1,0.1-0.2c0-0.1,0.1-0.2,0.1-0.3c0-0.1,0.1-0.2,0.1-0.3c0-0.1,0.1-0.3,0.1-0.4c0,0,0,0,0-0.1c0-0.1,0.1-0.3,0.1-0.4
				c0,0,0,0,0-0.1c0,0,0,0,0,0c0.1-0.2,0.1-0.4,0.2-0.7c0,0,0,0,0,0c0-0.1,0-0.1,0-0.2c0-0.1,0-0.2,0-0.2c0,0,0-0.1,0-0.1
				c0-0.1,0-0.2,0-0.3c0,0,0,0,0,0c0-0.1,0-0.3,0.1-0.4c0,0,0,0,0,0c0,0,0-0.1,0-0.1c0,0,0-0.1,0-0.1c0,0,0-0.1,0-0.1
				c0,0,0-0.1,0-0.1c0-0.1,0-0.2,0-0.2c0,0,0-0.1,0-0.1c0-0.1,0-0.2,0-0.3c0-0.1,0-0.1,0-0.2c0-0.1,0-0.2,0-0.3c0-0.1,0-0.2,0-0.4
				c0-0.3,0-0.5,0-0.8c0-0.1,0-0.2,0-0.2c0,0,0-0.1,0-0.1c0-0.1,0-0.3,0-0.4c0,0,0,0,0,0c0-0.1,0-0.1,0-0.2c0-0.1,0-0.1,0-0.2
				c0,0,0,0,0-0.1c0-0.2-0.1-0.4-0.1-0.7c0-0.1,0-0.2,0-0.2c0,0,0-0.1,0-0.1c0-0.1,0-0.1,0-0.2c0-0.1,0-0.1,0-0.2
				c0-0.2-0.1-0.3-0.1-0.5c0,0,0,0,0,0c0-0.2-0.1-0.4-0.1-0.5c0-0.1-0.1-0.2-0.1-0.4c0-0.1-0.1-0.2-0.1-0.3c-0.1-0.3-0.3-0.7-0.4-1
				c0-0.1-0.1-0.2-0.1-0.3c-0.1-0.2-0.2-0.4-0.3-0.7c-0.1-0.2-0.2-0.4-0.3-0.6c-0.1-0.1-0.1-0.2-0.2-0.3c-0.1-0.2-0.2-0.3-0.3-0.5
				c-0.1-0.2-0.2-0.3-0.3-0.4c-0.1-0.1-0.2-0.2-0.3-0.4c-0.1-0.2-0.2-0.3-0.4-0.5c0,0,0,0,0,0c-0.1-0.1-0.2-0.2-0.2-0.3
				c-0.1-0.1-0.2-0.3-0.3-0.4c-0.1-0.1-0.2-0.3-0.4-0.4c-0.1-0.1-0.2-0.2-0.3-0.3c-0.1-0.1-0.2-0.2-0.3-0.3c0,0,0,0,0,0
				c-0.1-0.1-0.3-0.3-0.4-0.4c-0.1-0.1-0.3-0.2-0.4-0.4c0,0,0,0,0,0c-0.1-0.1-0.2-0.1-0.2-0.2c-0.2-0.2-0.5-0.3-0.7-0.5
				c-0.1-0.1-0.2-0.2-0.4-0.2c-0.1-0.1-0.2-0.2-0.4-0.2c-0.1-0.1-0.2-0.1-0.3-0.2c-0.2-0.1-0.4-0.2-0.6-0.4c0,0,0,0,0,0
				c-0.2-0.1-0.4-0.2-0.6-0.3c-0.1-0.1-0.2-0.1-0.3-0.1c-0.2-0.1-0.4-0.2-0.6-0.3c-0.1,0-0.2-0.1-0.3-0.1c-0.2-0.1-0.4-0.1-0.5-0.2
				c-0.2-0.1-0.4-0.1-0.7-0.2c-0.2-0.1-0.3-0.1-0.5-0.1c0,0-0.1,0-0.1,0c-0.2,0-0.3-0.1-0.5-0.1c0,0,0,0,0,0c0,0,0,0,0,0
				c-0.1,0-0.1,0-0.2,0c0,0,0,0,0,0c-0.1,0-0.3,0-0.4-0.1c0,0-0.1,0-0.1,0h0c-0.1,0-0.1,0-0.2,0c0,0,0,0,0,0c0,0,0,0,0,0
				c-0.1,0-0.2,0-0.3,0c0,0,0,0,0,0c-0.1,0-0.1,0-0.2,0s-0.1,0-0.2,0c-0.1,0-0.2,0-0.4,0h0c0,0,0,0,0,0c0,0,0,0,0,0
				c-0.1,0-0.2,0-0.4,0c0.1,0,0.2,0,0.2,0c8.2-0.6,14.7-7.5,14.7-15.9c0-8.8-7.1-15.9-15.9-15.9c-4,0-7.7,1.5-10.5,4
				c0,0-0.1,0.1-0.1,0.1c2.6-2.8,4.1-6.6,4.1-10.7c0-8.8-7.1-15.9-15.9-15.9s-15.9,7.1-15.9,15.9c0-0.1,0-0.3,0-0.4
				c-0.2-8.6-7.2-15.5-15.9-15.5c-8.8,0-15.9,7.1-15.9,15.9c0,4.1,1.6,7.9,4.1,10.7c-0.1,0-0.1-0.1-0.2-0.1
				c-2.8-2.4-6.5-3.9-10.5-3.9c-8.8,0-15.9,7.1-15.9,15.9c0,8.4,6.5,15.3,14.7,15.9c0.1,0,0.2,0,0.3,0c-8.4,0.5-15,7.4-15,15.9
				c0,8.8,7.1,15.9,15.9,15.9c3.9,0,7.5-1.4,10.2-3.7c0.1-0.1,0.2-0.2,0.3-0.2c0.2-0.2,0.4-0.4,0.6-0.6c-2.9,2.9-4.6,6.8-4.6,11.2
				c0,8.8,7.1,15.9,15.9,15.9c8.6,0,15.6-6.9,15.9-15.4"/>
			<path class="st12" d="M1256.5-456.4c-0.2,0.2-0.4,0.4-0.6,0.6c0,0-0.1,0.1-0.1,0.1c-0.2,0.2-0.4,0.4-0.6,0.6
				c0.2-0.2,0.4-0.4,0.6-0.6C1256-455.9,1256.2-456.1,1256.5-456.4z"/>
			<path class="st12" d="M1279.6-486.2c-0.8,0.8-1.4,2-1.4,3.3h-33.1c-0.2,0-0.3,0-0.5,0c-0.2,0-0.3,0-0.5,0h-0.7
				c-8.2-0.6-14.7-7.5-14.7-15.9c0-8.8,7.1-15.9,15.9-15.9c4,0,7.7,1.5,10.5,3.9l0.4,0.4c0.2,0.2,0.4,0.4,0.5,0.5l0.5,0.5
				L1279.6-486.2z"/>
			<path class="st12" d="M1245.1-482.8h0.7c-0.1,0-0.2,0-0.3,0c-0.3,0-0.6,0-0.9,0c-0.3,0-0.6,0-0.9,0c-0.1,0-0.2,0-0.3,0h0.7
				c0.2,0,0.3,0,0.5,0C1244.8-482.9,1244.9-482.9,1245.1-482.8z"/>
			<path class="st12" d="M1256.6-509.2l-0.5-0.5l-0.5-0.5l-0.4-0.4c0.1,0,0.1,0.1,0.2,0.1c0.4,0.4,0.8,0.7,1.1,1.1l0,0
				C1256.4-509.3,1256.5-509.2,1256.6-509.2z"/>
			<path class="st12" d="M1337.1-498.7c0,8.4-6.5,15.3-14.7,15.9h-0.6c-0.2,0-0.3,0-0.5,0c-0.2,0-0.3,0-0.4,0h-33.2
				c0-1.3-0.5-2.5-1.4-3.3l23.1-23.1l0.4-0.4c0.3-0.2,0.5-0.5,0.8-0.8l0.3-0.3c2.8-2.5,6.5-4,10.5-4
				C1330-514.6,1337.1-507.5,1337.1-498.7z"/>
			<path class="st12" d="M1310.6-510.5c0,0,0.1-0.1,0.1-0.1l-0.3,0.3c-0.2,0.3-0.5,0.5-0.8,0.8l-0.4,0.4c0-0.1,0.1-0.1,0.1-0.2
				C1309.8-509.8,1310.2-510.2,1310.6-510.5C1310.6-510.5,1310.6-510.5,1310.6-510.5z"/>
			<path class="st12" d="M1322.3-482.8c-0.1,0-0.2,0-0.2,0h0c-0.3,0-0.6,0-0.9,0c-0.3,0-0.5,0-0.8,0h0c-0.1,0-0.2,0-0.3,0h0.8
				c0.1,0,0.3,0,0.4,0c0.2,0,0.3,0,0.5,0H1322.3z"/>
			<path class="st12" d="M1279.6-479.5l-22.8,22.8l-1,1l-0.9,0.9c-2.8,2.3-6.3,3.7-10.2,3.7c-8.8,0-15.9-7.1-15.9-15.9
				c0-8.5,6.6-15.4,15-15.9c0.3,0,0.6,0,0.9,0c0.3,0,0.6,0,0.9,0c0.1,0,0.2,0,0.3,0h32.4C1278.2-481.6,1278.7-480.4,1279.6-479.5z"
				/>
			<path class="st12" d="M1245.5-482.8c-0.3,0-0.6,0-0.9,0c-0.3,0-0.6,0-0.9,0c0.1,0,0.3,0,0.4,0c0.2,0,0.3,0,0.5,0
				c0.2,0,0.3,0,0.5,0C1245.2-482.8,1245.4-482.8,1245.5-482.8z"/>
			<path class="st12" d="M1256.8-456.7c-0.1,0.1-0.2,0.3-0.3,0.4c-0.2,0.2-0.4,0.4-0.6,0.6c0,0-0.1,0.1-0.1,0.1
				c-0.2,0.2-0.4,0.4-0.6,0.6c-0.1,0.1-0.2,0.2-0.3,0.2l0.9-0.9L1256.8-456.7z"/>
			<path class="st12" d="M1337.2-467.7c0-0.3,0-0.5-0.1-0.8c0,0,0,0,0,0c0-0.1,0-0.2,0-0.4c0-0.3-0.1-0.7-0.1-1c0-0.1,0-0.2-0.1-0.3
				c-0.1-0.4-0.2-0.8-0.3-1.2c-0.1-0.4-0.2-0.8-0.4-1.1c-0.1-0.2-0.2-0.4-0.3-0.7c-0.1-0.2-0.1-0.3-0.2-0.4
				c-0.1-0.1-0.1-0.3-0.2-0.4c0-0.1-0.1-0.2-0.1-0.3c0-0.1-0.1-0.2-0.2-0.3c0,0,0-0.1-0.1-0.1c-0.1-0.2-0.2-0.3-0.3-0.5
				c-0.1-0.2-0.2-0.3-0.3-0.5c-0.1-0.2-0.2-0.3-0.3-0.5v0c-0.1-0.2-0.2-0.3-0.3-0.5c-0.1-0.2-0.2-0.3-0.4-0.5
				c-0.1-0.1-0.2-0.3-0.4-0.4c0,0,0-0.1-0.1-0.1c-0.1-0.1-0.2-0.2-0.3-0.4c0,0,0,0,0,0c-0.1-0.1-0.3-0.3-0.4-0.4
				c-0.1-0.1-0.2-0.2-0.4-0.3c-0.2-0.2-0.3-0.3-0.5-0.4c-0.2-0.1-0.3-0.2-0.5-0.4c-0.2-0.1-0.4-0.3-0.6-0.4
				c-0.1-0.1-0.2-0.2-0.4-0.2c-0.1-0.1-0.2-0.1-0.3-0.2c-0.1-0.1-0.3-0.2-0.4-0.2c-0.2-0.1-0.4-0.3-0.7-0.4
				c-0.1-0.1-0.2-0.1-0.3-0.1c-0.2-0.1-0.3-0.2-0.5-0.2c-0.2-0.1-0.4-0.2-0.5-0.2c-0.1-0.1-0.3-0.1-0.4-0.2
				c-0.1-0.1-0.3-0.1-0.4-0.1c0,0-0.1,0-0.1-0.1c-0.1,0-0.2-0.1-0.3-0.1c-0.1,0-0.2-0.1-0.3-0.1c-0.1,0-0.2-0.1-0.3-0.1
				c-0.1,0-0.2-0.1-0.3-0.1c-0.1,0-0.1,0-0.2-0.1c-0.1,0-0.2-0.1-0.4-0.1c-0.3-0.1-0.5-0.1-0.8-0.2c-0.1,0-0.2,0-0.3,0c0,0,0,0,0,0
				c0,0,0,0,0,0c-0.1,0-0.2,0-0.3,0c0,0,0,0,0,0c-0.1,0-0.1,0-0.2,0s-0.1,0-0.2,0h0c-0.1,0-0.1,0-0.2,0c-0.1,0-0.1,0-0.2,0h0
				c-0.1,0-0.2,0-0.4,0h0c-0.3,0-0.6,0-0.9,0c-0.3,0-0.5,0-0.8,0h0c0,0-0.1,0-0.1,0c0,0,0,0,0.1,0c-0.1,0-0.2,0-0.3,0h-32.4
				c0,1.3-0.5,2.5-1.4,3.3l22.7,22.7l0.6,0.6c0.1,0.1,0.3,0.2,0.4,0.3l0.2,0.2c0,0,0.1,0.1,0.1,0.1c0,0,0,0,0.1,0.1c0,0,0,0,0.1,0.1
				c0.1,0.1,0.3,0.3,0.5,0.4c0,0,0.1,0.1,0.1,0.1c0.1,0.1,0.3,0.2,0.4,0.3c0,0,0,0,0,0c0.2,0.1,0.3,0.3,0.5,0.4
				c0.2,0.1,0.3,0.3,0.5,0.4c0.1,0.1,0.2,0.1,0.3,0.2c0.1,0.1,0.2,0.1,0.3,0.2c0.1,0.1,0.2,0.1,0.3,0.2c0,0,0,0,0,0
				c0.1,0,0.1,0.1,0.2,0.1c0.1,0.1,0.2,0.1,0.3,0.2c0.3,0.2,0.6,0.3,0.9,0.4c0.1,0.1,0.2,0.1,0.3,0.2c0.1,0.1,0.2,0.1,0.3,0.1
				c0.4,0.2,0.8,0.3,1.3,0.5c0.1,0,0.2,0.1,0.4,0.1c0.3,0.1,0.5,0.1,0.8,0.2c0.1,0,0.3,0.1,0.4,0.1c0.1,0,0.2,0,0.3,0.1
				c0.1,0,0.2,0,0.3,0.1c0.2,0,0.4,0.1,0.5,0.1c0.1,0,0.2,0,0.3,0c0.1,0,0.2,0,0.2,0c0.1,0,0.2,0,0.3,0c0.2,0,0.5,0,0.7,0
				c0.2,0,0.3,0,0.5,0c0.1,0,0.3,0,0.4,0c0.3,0,0.5,0,0.8,0c0.1,0,0.1,0,0.2,0c0.2,0,0.4,0,0.6-0.1c0,0,0.1,0,0.1,0
				c0.1,0,0.2,0,0.4-0.1c0.3,0,0.5-0.1,0.8-0.1c0.1,0,0.3-0.1,0.4-0.1c0.2,0,0.3-0.1,0.5-0.1c0.1,0,0.1,0,0.2,0
				c0.2,0,0.3-0.1,0.5-0.1c0.1,0,0.3-0.1,0.4-0.1c0.1,0,0.1,0,0.2-0.1c0.2-0.1,0.3-0.1,0.5-0.2c0.1,0,0.2-0.1,0.4-0.1
				c0.1-0.1,0.2-0.1,0.3-0.2c0.1,0,0.2-0.1,0.3-0.1c0.1-0.1,0.3-0.1,0.4-0.2c0.1-0.1,0.2-0.1,0.3-0.2c0.1-0.1,0.2-0.1,0.3-0.2
				c0.1-0.1,0.3-0.1,0.4-0.2c0.1-0.1,0.2-0.1,0.3-0.2c0.1-0.1,0.2-0.1,0.3-0.2c0.1-0.1,0.2-0.1,0.3-0.2c0.2-0.1,0.4-0.3,0.6-0.4
				c0.1-0.1,0.2-0.2,0.3-0.2c0.1-0.1,0.2-0.2,0.3-0.2c0.1-0.1,0.2-0.2,0.3-0.2c0.1-0.1,0.2-0.2,0.3-0.3c0.1-0.1,0.2-0.2,0.3-0.3
				c0.4-0.4,0.7-0.7,1-1.1c0,0,0,0,0,0c0.1-0.1,0.1-0.2,0.2-0.3c0.1-0.2,0.2-0.3,0.4-0.5c0.1-0.2,0.2-0.3,0.3-0.5
				c0.1-0.2,0.3-0.4,0.4-0.6c0.1-0.2,0.3-0.4,0.4-0.6c0.1-0.1,0.1-0.2,0.1-0.3c0.1-0.1,0.1-0.3,0.2-0.4c0.1-0.1,0.1-0.3,0.2-0.4
				c0.1-0.1,0.1-0.2,0.1-0.3c0-0.1,0.1-0.2,0.1-0.3c0,0,0-0.1,0-0.1c0-0.1,0.1-0.2,0.1-0.3v0c0,0,0-0.1,0-0.1c0-0.1,0-0.1,0.1-0.2
				s0-0.1,0.1-0.2c0-0.1,0.1-0.2,0.1-0.3c0-0.1,0.1-0.2,0.1-0.3c0-0.1,0.1-0.3,0.1-0.4c0,0,0,0,0-0.1c0-0.1,0.1-0.3,0.1-0.4
				c0,0,0,0,0-0.1c0,0,0,0,0,0c0.1-0.2,0.1-0.4,0.2-0.7c0,0,0,0,0,0c0-0.1,0-0.1,0-0.2c0-0.1,0-0.2,0-0.2c0-0.1,0-0.2,0.1-0.4
				c0,0,0,0,0,0c0-0.1,0-0.3,0.1-0.4c0,0,0,0,0,0c0,0,0-0.1,0-0.1c0,0,0-0.1,0-0.1c0,0,0-0.1,0-0.1c0,0,0-0.1,0-0.1
				c0-0.2,0-0.4,0-0.6c0,0,0,0,0-0.1c0-0.1,0-0.1,0-0.2c0-0.1,0-0.2,0-0.3c0-0.1,0-0.2,0-0.4
				C1337.2-467.2,1337.2-467.4,1337.2-467.7z M1318.5-482.6c0.1,0,0.2,0,0.3-0.1c0.1,0,0.3,0,0.4-0.1
				C1319-482.7,1318.7-482.7,1318.5-482.6z M1319.6-482.8c-0.1,0-0.2,0-0.3,0C1319.4-482.7,1319.5-482.8,1319.6-482.8
				c0,0,0.1,0,0.1,0C1319.7-482.8,1319.6-482.8,1319.6-482.8z M1320-482.8c0.1,0,0.1,0,0.2,0c0,0,0.1,0,0.1,0
				C1320.1-482.8,1320-482.8,1320-482.8z"/>
			<path class="st12" d="M1319.2-482.7c-0.2,0-0.4,0.1-0.7,0.1c0.1,0,0.2,0,0.3-0.1C1318.9-482.7,1319.1-482.7,1319.2-482.7z"/>
			<path class="st12" d="M1320.2-482.8c-0.1,0-0.2,0-0.3,0C1320-482.8,1320.1-482.8,1320.2-482.8
				C1320.1-482.8,1320.2-482.8,1320.2-482.8z"/>
			<path class="st12" d="M1320.3-482.8C1320.3-482.8,1320.3-482.8,1320.3-482.8C1320.3-482.8,1320.3-482.8,1320.3-482.8
				L1320.3-482.8z"/>
			<path class="st12" d="M1322.1-482.8c-0.3,0-0.6,0-0.9,0c-0.3,0-0.5,0-0.8,0c0.1,0,0.3,0,0.4,0h0c0.1,0,0.3,0,0.4,0
				c0.2,0,0.3,0,0.5,0h0C1321.9-482.8,1322-482.8,1322.1-482.8z"/>
			<path class="st12" d="M1335.7-460.2c0.1-0.1,0.1-0.2,0.1-0.3c-2.5,5.6-8.1,9.5-14.6,9.5c-3.8,0-7.3-1.3-10.1-3.6
				c-0.1-0.1-0.1-0.1-0.2-0.2c-0.7-0.6-1.3-1.2-1.9-1.8c-0.1-0.1-0.2-0.2-0.2-0.3l0.6,0.6c0.1,0.1,0.3,0.2,0.4,0.3l0.2,0.2
				c0,0,0.1,0.1,0.1,0.1c0,0,0,0,0.1,0.1c0,0,0,0,0.1,0.1c0.1,0.1,0.3,0.3,0.5,0.4c0,0,0.1,0.1,0.1,0.1c0.1,0.1,0.3,0.2,0.4,0.3
				c0,0,0,0,0,0c0.2,0.1,0.3,0.3,0.5,0.4c0.2,0.1,0.3,0.3,0.5,0.4c0.1,0.1,0.2,0.1,0.3,0.2c0.1,0.1,0.2,0.1,0.3,0.2
				c0.1,0.1,0.2,0.1,0.3,0.2c0,0,0,0,0,0c0.1,0,0.1,0.1,0.2,0.1c0.1,0.1,0.2,0.1,0.3,0.2c0.3,0.2,0.6,0.3,0.9,0.4
				c0.1,0.1,0.2,0.1,0.3,0.2c0.1,0.1,0.2,0.1,0.3,0.1c0.4,0.2,0.8,0.3,1.3,0.5c0.1,0,0.2,0.1,0.4,0.1c0.3,0.1,0.5,0.1,0.8,0.2
				c0.1,0,0.3,0.1,0.4,0.1c0.1,0,0.2,0,0.3,0.1c0.1,0,0.2,0,0.3,0.1c0.2,0,0.4,0.1,0.5,0.1c0.1,0,0.2,0,0.3,0c0.1,0,0.2,0,0.2,0
				c0.1,0,0.2,0,0.3,0c0.2,0,0.5,0,0.7,0c0.2,0,0.3,0,0.5,0c0.1,0,0.3,0,0.4,0c0.3,0,0.5,0,0.8,0c0.1,0,0.1,0,0.2,0
				c0.2,0,0.4,0,0.6-0.1c0,0,0.1,0,0.1,0c0.1,0,0.2,0,0.4-0.1c0.3,0,0.5-0.1,0.8-0.1c0.1,0,0.3-0.1,0.4-0.1c0.2,0,0.3-0.1,0.5-0.1
				c0.1,0,0.1,0,0.2,0c0.2,0,0.3-0.1,0.5-0.1c0.1,0,0.3-0.1,0.4-0.1c0.1,0,0.1,0,0.2-0.1c0.2-0.1,0.3-0.1,0.5-0.2
				c0.1,0,0.2-0.1,0.4-0.1c0.1-0.1,0.2-0.1,0.3-0.2c0.1,0,0.2-0.1,0.3-0.1c0.1-0.1,0.3-0.1,0.4-0.2c0.1-0.1,0.2-0.1,0.3-0.2
				c0.1-0.1,0.2-0.1,0.3-0.2c0.1-0.1,0.3-0.1,0.4-0.2c0.1-0.1,0.2-0.1,0.3-0.2c0.1-0.1,0.2-0.1,0.3-0.2c0.1-0.1,0.2-0.1,0.3-0.2
				c0.2-0.1,0.4-0.3,0.6-0.4c0.1-0.1,0.2-0.2,0.3-0.2c0.1-0.1,0.2-0.2,0.3-0.2c0.1-0.1,0.2-0.2,0.3-0.2c0.1-0.1,0.2-0.2,0.3-0.3
				c0.1-0.1,0.2-0.2,0.3-0.3c0.4-0.4,0.7-0.7,1-1.1c0,0,0,0,0,0c0.1-0.1,0.1-0.2,0.2-0.3c0.1-0.2,0.2-0.3,0.4-0.5
				c0.1-0.2,0.2-0.3,0.3-0.5c0.1-0.2,0.3-0.4,0.4-0.6c0.1-0.2,0.3-0.4,0.4-0.6c0.1-0.1,0.1-0.2,0.1-0.3c0.1-0.1,0.1-0.3,0.2-0.4
				C1335.5-459.9,1335.6-460.1,1335.7-460.2z"/>
		</g>
		<path class="st2" d="M1365.6-333l-156.3-517.2c0,0-10.6-47.6-40.2,12.3c-29.5,59.9-54.4,108.3-54.4,108.3"/>
	</g>
	<path class="st2" d="M2403.3,1813.6l-158.7-525.3c0,0-10.8-48.3-40.8,12.5c-30,60.8-55.3,110-55.3,110"/>
	<polyline class="st12" points="1299.3,1549.5 1299.3,1549.2 1299.3,1541.3 	"/>
	<g>
		<g>
			<circle class="st7" cx="2431.2" cy="-679" r="71"/>
			<path class="st12" d="M2425.7-598c19.6,0,37.4-8,50.2-20.8"/>
			<path class="st12" d="M2431.2-669.1c0,1.5-0.6,2.9-1.6,3.9c-1,1-2.4,1.6-3.9,1.6c-1.5,0-2.9-0.6-3.9-1.6c-1-1-1.6-2.4-1.6-3.9
				s0.6-2.9,1.6-3.9c1-1,2.4-1.6,3.9-1.6c1.5,0,2.9,0.6,3.9,1.6C2430.6-671.9,2431.2-670.6,2431.2-669.1z"/>
			<path class="st12" d="M2463-714.1c0,4.8-1.8,9.2-4.8,12.5c0,0,0,0,0,0c-0.5,0.4-0.9,0.9-1.3,1.3c-0.1,0.1-0.1,0.1-0.2,0.2
				l-27.1,27.1c-1-1-2.4-1.6-3.9-1.6v-39.1c0-0.2,0-0.3,0-0.5c0-10.3,8.4-18.7,18.7-18.7S2463-724.4,2463-714.1z"/>
			<path class="st12" d="M2463.1-623.9c0,10.3-8.4,18.7-18.7,18.7c-10.3,0-18.6-8.3-18.7-18.5c0,0,0-0.1,0-0.1c0-0.1,0-0.1,0-0.2
				v-0.3c0-0.1,0-0.2,0-0.3v-39.1c1.5,0,2.9-0.6,3.9-1.6l26.6,26.6c0.1,0.1,0.2,0.2,0.3,0.3c0.7,0.8,1.4,1.5,2.2,2.2
				C2461.4-632.8,2463.1-628.6,2463.1-623.9z"/>
			<path class="st12" d="M2425.7-598c-4.9,0-9.6-0.5-14.2-1.4v0c-14-2.8-26.4-9.8-36.1-19.5c-1.5-1.5-3-3.2-4.4-4.8
				c-2.4-2.9-4.7-6.1-6.6-9.4c-6.2-10.5-9.7-22.8-9.7-35.9c0-1.7,0.1-3.3,0.2-4.9c0.7-10.2,3.5-19.8,8.1-28.3v0
				c11.9-22.5,35.6-37.8,62.8-37.8c39.2,0,71,31.8,71,71c0,14.3-4.2,27.6-11.5,38.8c-2.7,4.1-5.8,8-9.3,11.5"/>
			<path class="st12" d="M2458.9-635.8l-0.5-0.5l-1.5-1.5c0.2,0.1,0.3,0.3,0.4,0.4l0.4,0.4c0,0,0,0,0.1,0.1c0,0,0.1,0.1,0.1,0.1
				c0.2,0.2,0.3,0.3,0.5,0.5c0,0,0.1,0.1,0.1,0.1c0.2,0.1,0.3,0.3,0.5,0.4c0,0,0,0,0,0c0.2,0.2,0.4,0.3,0.6,0.5
				c0.2,0.2,0.4,0.3,0.6,0.4c0.1,0.1,0.2,0.2,0.4,0.2c0.1,0.1,0.3,0.2,0.4,0.2c0.1,0.1,0.2,0.1,0.3,0.2h0c0.1,0,0.1,0.1,0.2,0.1
				c0.1,0.1,0.2,0.1,0.4,0.2c0.3,0.2,0.7,0.4,1,0.5c0.1,0.1,0.3,0.1,0.4,0.2c0.1,0.1,0.3,0.1,0.4,0.2c0.5,0.2,1,0.4,1.5,0.5
				c0.2,0,0.3,0.1,0.4,0.1c0.3,0.1,0.6,0.2,0.9,0.2c0.2,0,0.3,0.1,0.5,0.1c0.1,0,0.3,0,0.4,0.1c0.1,0,0.2,0,0.4,0.1
				c0.2,0,0.4,0.1,0.6,0.1c0.1,0,0.2,0,0.4,0c0.1,0,0.2,0,0.3,0c0.1,0,0.2,0,0.3,0c0.3,0,0.6,0,0.8,0h1.1c0.3,0,0.6,0,0.9,0
				c0.1,0,0.1,0,0.2,0c0.2,0,0.5,0,0.7-0.1c0,0,0.1,0,0.1,0c0.1,0,0.3,0,0.4-0.1c0.3,0,0.6-0.1,0.9-0.2c0.2,0,0.3-0.1,0.5-0.1
				c0.2,0,0.4-0.1,0.6-0.1c0.1,0,0.1,0,0.2-0.1c0.2,0,0.4-0.1,0.5-0.2c0.2,0,0.3-0.1,0.5-0.2c0.1,0,0.2-0.1,0.2-0.1
				c0.2-0.1,0.4-0.1,0.5-0.2c0.1-0.1,0.3-0.1,0.4-0.2l0.4-0.2c0.1,0,0.2-0.1,0.3-0.2c0.2-0.1,0.3-0.1,0.5-0.2
				c0.1-0.1,0.3-0.1,0.4-0.2c0.1-0.1,0.2-0.1,0.3-0.2c0.2-0.1,0.3-0.2,0.4-0.2l0.4-0.2c0.1-0.1,0.2-0.2,0.4-0.2
				c0.1-0.1,0.3-0.2,0.4-0.3c0.2-0.2,0.5-0.3,0.7-0.5c0.1-0.1,0.2-0.2,0.3-0.3c0.1-0.1,0.2-0.2,0.3-0.3c0.1-0.1,0.2-0.2,0.3-0.3
				c0.1-0.1,0.2-0.2,0.3-0.3c0.1-0.1,0.2-0.2,0.3-0.3c0.4-0.4,0.8-0.9,1.2-1.3c0,0,0,0,0,0c0.1-0.1,0.2-0.2,0.3-0.3
				c0.2-0.2,0.3-0.4,0.4-0.5s0.3-0.4,0.4-0.6c0.2-0.2,0.3-0.5,0.5-0.7c0.2-0.2,0.3-0.5,0.4-0.7c0.1-0.1,0.1-0.2,0.2-0.3
				c0.1-0.2,0.2-0.3,0.2-0.4c0.1-0.2,0.2-0.3,0.2-0.5c0.1-0.1,0.1-0.2,0.2-0.4c0-0.1,0.1-0.2,0.1-0.3c0,0,0-0.1,0-0.1
				c0-0.1,0.1-0.2,0.1-0.3c0,0,0-0.1,0-0.1c0-0.1,0-0.1,0.1-0.2c0-0.1,0-0.1,0.1-0.2c0-0.1,0.1-0.2,0.1-0.3c0-0.1,0.1-0.2,0.1-0.3
				c0.1-0.2,0.1-0.3,0.2-0.5c0,0,0,0,0-0.1c0-0.2,0.1-0.3,0.1-0.5c0,0,0,0,0-0.1s0,0,0,0c0.1-0.3,0.1-0.5,0.2-0.8c0,0,0,0,0,0
				c0-0.1,0-0.2,0-0.2c0-0.1,0-0.2,0-0.3c0-0.1,0-0.3,0.1-0.4v0c0-0.2,0-0.3,0.1-0.5l0,0c0-0.1,0-0.1,0-0.2c0-0.1,0-0.1,0-0.2
				c0,0,0-0.1,0-0.1c0,0,0-0.1,0-0.1c0-0.1,0-0.2,0-0.3c0,0,0-0.1,0-0.1c0-0.1,0-0.2,0-0.3v-0.1c0-0.1,0-0.1,0-0.2
				c0-0.1,0-0.2,0-0.3c0-0.1,0-0.3,0-0.4c0-0.3,0-0.6,0-0.9c0-0.1,0-0.3,0-0.4c0-0.1,0-0.2,0-0.2c0-0.1,0-0.2,0-0.2v0
				c0-0.1,0-0.3,0-0.4c0,0,0-0.1,0-0.1c0-0.3-0.1-0.5-0.1-0.8c0-0.1,0-0.2,0-0.3c0-0.1,0-0.3-0.1-0.4c0-0.1,0-0.1,0-0.2
				c0-0.2-0.1-0.4-0.1-0.6c0,0,0,0,0,0c-0.1-0.2-0.1-0.4-0.2-0.6c0-0.1-0.1-0.3-0.1-0.4s-0.1-0.3-0.1-0.4c0-0.2-0.1-0.3-0.2-0.4
				c-0.1-0.3-0.2-0.5-0.3-0.8c-0.1-0.1-0.1-0.3-0.2-0.4c-0.1-0.3-0.2-0.5-0.4-0.8c0-0.1-0.1-0.1-0.1-0.2c-0.1-0.1-0.1-0.2-0.2-0.3
				c0,0-0.1-0.1-0.1-0.2c0,0,0-0.1,0-0.1c-0.1-0.1-0.1-0.2-0.2-0.4c-0.1-0.2-0.2-0.4-0.3-0.5c-0.1-0.2-0.2-0.3-0.3-0.5
				c-0.1-0.1-0.2-0.3-0.3-0.4c-0.1-0.2-0.3-0.4-0.4-0.6c0,0,0,0,0,0c-0.1-0.1-0.2-0.2-0.3-0.3c-0.1-0.2-0.3-0.3-0.4-0.5
				c-0.1-0.2-0.3-0.3-0.4-0.5c-0.1-0.1-0.2-0.2-0.3-0.3c-0.1-0.1-0.2-0.2-0.3-0.3c0,0,0,0,0,0c-0.2-0.2-0.3-0.3-0.5-0.5
				c-0.2-0.1-0.3-0.3-0.5-0.4c0,0,0,0-0.1,0c-0.1-0.1-0.2-0.2-0.3-0.2c-0.3-0.2-0.5-0.4-0.8-0.6c-0.1-0.1-0.3-0.2-0.4-0.3
				c-0.1-0.1-0.3-0.2-0.4-0.3c-0.1-0.1-0.2-0.2-0.4-0.2c-0.2-0.1-0.5-0.3-0.7-0.4c0,0,0,0,0,0c-0.2-0.1-0.3-0.2-0.5-0.2
				c-0.1-0.1-0.2-0.1-0.3-0.2c-0.1,0-0.2-0.1-0.3-0.1c0,0-0.1,0-0.1-0.1c-0.2-0.1-0.4-0.2-0.5-0.2c0,0,0,0-0.1,0c0,0,0,0-0.1,0
				c-0.1,0-0.2-0.1-0.4-0.1c-0.2-0.1-0.4-0.2-0.6-0.2c-0.3-0.1-0.5-0.2-0.8-0.2c-0.1,0-0.1,0-0.2-0.1c-0.1,0-0.3-0.1-0.4-0.1
				c-0.1,0-0.1,0-0.2,0c-0.2,0-0.3-0.1-0.5-0.1c0,0-0.1,0-0.1,0c0,0,0,0,0,0c0,0,0,0,0,0c-0.3-0.1-0.5-0.1-0.8-0.1c0,0-0.1,0-0.1,0
				c-0.1,0-0.2,0-0.3,0c0,0,0,0,0,0h0c-0.1,0-0.2,0-0.3,0c0,0,0,0,0,0c-0.1,0-0.1,0-0.2,0c-0.1,0-0.1,0-0.2,0h0c-0.1,0-0.3,0-0.4,0
				h0c-0.1,0-0.3,0-0.4,0c0.1,0,0.2,0,0.3,0c9.7-0.7,17.3-8.8,17.3-18.6c0-10.3-8.3-18.7-18.7-18.7c-4.7,0-9,1.8-12.3,4.7
				c0,0-0.1,0.1-0.1,0.1c3-3.3,4.8-7.7,4.8-12.5c0-10.3-8.4-18.7-18.7-18.7c-10.3,0-18.7,8.4-18.7,18.7c0-0.2,0-0.3,0-0.5
				c-0.3-10.1-8.5-18.2-18.6-18.2c-10.3,0-18.7,8.4-18.7,18.7c0,4.8,1.8,9.2,4.9,12.5c-0.1-0.1-0.1-0.1-0.2-0.2
				c-3.3-2.9-7.6-4.6-12.3-4.6c-10.3,0-18.6,8.4-18.6,18.7c0,0.4,0,0.8,0,1.2c0,0.1,0,0.1,0,0.2c0,0.3,0,0.6,0.1,0.8
				c0.1,0.6,0.2,1.2,0.3,1.7c0.1,0.3,0.1,0.6,0.2,0.9c0,0,0,0.1,0,0.1c0.1,0.3,0.2,0.6,0.2,0.8c0.3,0.9,0.6,1.7,1,2.5
				c0.1,0.2,0.2,0.5,0.4,0.7c0.2,0.4,0.4,0.7,0.6,1.1c0.1,0.2,0.3,0.5,0.5,0.7c0.2,0.2,0.3,0.5,0.5,0.7c0.3,0.4,0.6,0.7,0.9,1.1
				c0.3,0.3,0.6,0.6,0.9,1c0.1,0.1,0.3,0.3,0.4,0.4c0,0,0,0,0.1,0.1c0.2,0.2,0.5,0.4,0.7,0.6c0.3,0.2,0.6,0.5,0.9,0.7
				c0.3,0.2,0.6,0.4,1,0.6h0c0.3,0.2,0.6,0.3,0.8,0.5c1,0.6,2.1,1,3.3,1.4c0.3,0.1,0.6,0.2,1,0.3c0.3,0.1,0.6,0.2,0.9,0.2
				c0.2,0,0.3,0.1,0.5,0.1c0.3,0.1,0.6,0.1,0.8,0.1c0.4,0,0.7,0.1,1.1,0.1c0.1,0,0.2,0,0.3,0c-0.6,0-1.3,0.1-1.9,0.2"/>
			<path class="st12" d="M2421.8-672.9c-1,1-1.6,2.4-1.6,3.9h-38.9c-0.2,0-0.4,0-0.6,0c-0.2,0-0.4,0-0.6,0h-0.8
				c-0.4,0-0.7-0.1-1.1-0.1c-0.3,0-0.6-0.1-0.8-0.1c-0.2,0-0.3-0.1-0.5-0.1c-0.3-0.1-0.6-0.1-0.9-0.2c-0.3-0.1-0.6-0.2-1-0.3
				c-1.2-0.4-2.3-0.8-3.3-1.4c-0.3-0.2-0.6-0.3-0.8-0.5h0c-0.3-0.2-0.6-0.4-1-0.6c-0.3-0.2-0.6-0.5-0.9-0.7
				c-0.2-0.2-0.5-0.4-0.7-0.6l-0.1-0.1c-0.2-0.1-0.3-0.3-0.4-0.4c-0.3-0.3-0.6-0.6-0.9-1c-0.3-0.3-0.6-0.7-0.9-1.1
				c-0.2-0.2-0.3-0.5-0.5-0.7c-0.2-0.2-0.3-0.5-0.5-0.7c-0.2-0.3-0.4-0.7-0.6-1.1c-0.1-0.2-0.3-0.5-0.4-0.7c-0.4-0.8-0.8-1.7-1-2.5
				c-0.1-0.3-0.2-0.5-0.2-0.8c0,0,0-0.1,0-0.1c-0.1-0.3-0.2-0.6-0.2-0.9c-0.1-0.6-0.2-1.1-0.3-1.7c0-0.3-0.1-0.5-0.1-0.8
				c0-0.1,0-0.1,0-0.2c0-0.4,0-0.8,0-1.2c0-10.3,8.3-18.7,18.6-18.7c4.7,0,9,1.7,12.3,4.6l0.5,0.5c0.2,0.2,0.4,0.4,0.6,0.6l0.6,0.6
				L2421.8-672.9z"/>
			<path class="st12" d="M2489.3-687.7c0,9.8-7.6,17.9-17.3,18.6h-0.7c-0.2,0-0.4,0-0.6,0c-0.2,0-0.3,0-0.5,0h-39
				c0-1.5-0.6-2.9-1.6-3.9l27.1-27.1l0.4-0.4c0.3-0.3,0.6-0.6,0.9-0.9l0.3-0.3c3.3-2.9,7.6-4.7,12.3-4.7
				C2480.9-706.3,2489.3-698,2489.3-687.7z"/>
		</g>
		<path class="st7" d="M1969.5-585c0.2,0.4,0.5,0.9,0.7,1.3c35,63.1,112.1,109.6,198.1,109.6c86.6,0,164.3-47.2,198.9-111H1969.5z"
			/>
		<path class="st12" d="M2043.9-677.4c-5.7,0.4-11.2,0.8-16.6,1.2"/>
		<path class="st12" d="M2287.7-677.7c25.1,1.5,47.7,3.6,67,6c2,0.3,4,0.5,5.9,0.8c39.5,5.2,63.6,12.1,64,19.6c0,0.1,0,0.2,0,0.2
			c0,0.8-0.3,1.6-0.8,2.3c-3.7,5.6-20.7,10.8-47.4,15.2c-3.6,0.6-7.4,1.2-11.4,1.7c-39.2,5.5-94.8,9.3-157.9,10.4
			c-12.7,0.2-25.7,0.3-38.9,0.3c-134.9,0-245.4-12.2-255.6-27.6c-0.5-0.8-0.8-1.6-0.8-2.3c0-0.1,0-0.1,0-0.2
			c0.5-8.4,30.7-16,79-21.4"/>
		<path class="st12" d="M2094.8-679.9c23.3-0.8,47.9-1.3,73.4-1.3c15.8,0,31.2,0.2,46.2,0.5"/>
		<ellipse class="st4" cx="2168.3" cy="-585.8" rx="198.9" ry="23.1"/>
		<path class="st12" d="M2151-130.7c-77.6,1-137.9,8.7-137.9,18c0,6.1,25.4,11.4,64.5,14.7"/>
		<path class="st12" d="M2185.4-130.7c77.6,1,137.9,8.7,137.9,18c0,10-69.4,18.1-155.1,18.1c-18.8,0-36.8-0.4-53.5-1.1"/>
		<path class="st12" d="M2193.7-460.3c109.3-10.4,199.4-86.6,230.1-188.6c0.3-0.9,0.5-1.7,0.8-2.6"/>
		<path class="st12" d="M1911.8-651.4c0.2,0.9,0.5,1.7,0.8,2.6c30.7,102,120.8,178.2,230.1,188.6"/>
		<g>
			<path class="st12" d="M2142.7-460.3c7.2,8.1,19.4,37.4,18.8,142.8c-0.9,143.8,2.6,172-10.5,186.8"/>
			<path class="st12" d="M2175.1-208.2c0-3.6,0-7.4,0-11.4"/>
			<path class="st12" d="M2175.1-235.4c0-22.1,0-49.1-0.2-82.2c-0.7-105.3,11.6-134.6,18.8-142.8"/>
			<path class="st12" d="M2185.4-130.7c-5.7-6.4-8.2-15.3-9.4-34.8"/>
		</g>
		<g>
			<circle class="st2" cx="2251.2" cy="-683.2" r="36.9"/>
			<line class="st2" x1="2296.1" y1="-748" x2="2132.9" y2="-516"/>
		</g>
	</g>
	<line class="st9" x1="820" y1="2543.9" x2="821.2" y2="2580.7"/>
	<g>
		<path class="st4" d="M-1504.8,831.8c0,40.7,10.4,78.9,28.8,112.2c23.1,41.9,58.8,76,102,97c30.8,15,65.3,23.4,101.8,23.4
			c28.3,0,55.4-5,80.4-14.3c51.1-18.8,93.8-55.1,120.9-101.7c19.9-34.3,31.4-74.2,31.4-116.7"/>
		<path class="st9" d="M-1514.3,839.6c0,40.7,10.5,79,28.8,112.3c23.2,42,58.9,76.1,102.1,97.2c30.8,15,65.4,23.4,102,23.4
			c28.3,0,55.4-5.1,80.5-14.3c51.2-18.9,93.9-55.2,121-101.8c20-34.3,31.4-74.3,31.4-116.9"/>
		<polyline class="st9" points="-1048.4,839.6 -1088,839.6 -1262.2,839.6 -1281.4,839.6 -1300.6,839.6 -1474.8,839.6 -1514.3,839.6 
					"/>
		<path class="st9" d="M-1262.2,839.6c0,3.5-0.9,6.8-2.6,9.7c-2.2,3.8-5.8,6.8-10,8.4c-2.1,0.8-4.3,1.2-6.6,1.2
			c-3,0-5.9-0.7-8.4-1.9c-3.6-1.7-6.5-4.6-8.4-8c-1.5-2.8-2.4-5.9-2.4-9.3"/>
		<line class="st9" x1="-1298.2" y1="848.8" x2="-1450.8" y2="932.8"/>
		<line class="st9" x1="-1114.1" y1="936.6" x2="-1264.7" y2="849.2"/>
		<line class="st9" x1="-1214.5" y1="1021.1" x2="-1274.7" y2="857.6"/>
		<line class="st9" x1="-1289.8" y1="856.8" x2="-1366" y2="1013.5"/>
		<path class="st9" d="M-1478.3,839.6c0,108.8,88.2,196.9,197,196.9c108.8,0,196.9-88.2,196.9-196.9"/>
	</g>
	<g>
		<ellipse class="st2" cx="-1327.9" cy="-650.4" rx="141.5" ry="12.5"/>
		<path class="st2" d="M-1469.2-1.8c-0.2,0.2-0.2,0.5-0.2,0.7s0.1,0.5,0.2,0.7c4.3,6.5,65.9,11.7,141.3,11.7
			c75.3,0,136.9-5.2,141.3-11.7c0.2-0.2,0.2-0.5,0.2-0.7s-0.1-0.5-0.2-0.7"/>
		<path class="st2" d="M-1469.2-86.1c-0.2,0.2-0.2,0.5-0.2,0.7s0.1,0.5,0.2,0.7c4.3,6.5,65.9,11.7,141.3,11.7
			c75.3,0,136.9-5.2,141.3-11.7c0.2-0.2,0.2-0.5,0.2-0.7s-0.1-0.5-0.2-0.7"/>
		<line class="st2" x1="-1186.7" y1="-419.7" x2="-1186.7" y2="-611.6"/>
		<polyline class="st2" points="-1186.7,-313.6 -1186.7,-86.1 -1186.7,-84.6 -1186.7,-67 		"/>
		<line class="st2" x1="-1186.7" y1="0.7" x2="-1186.7" y2="-33.3"/>
		<line class="st2" x1="-1186.7" y1="-370" x2="-1186.7" y2="-375.8"/>
		<polyline class="st2" points="-1186.7,-639.2 -1186.7,-646.9 -1186.7,-649.7 		"/>
		<line class="st2" x1="-1469.2" y1="-586.3" x2="-1469.2" y2="-593"/>
		<polyline class="st2" points="-1469.2,-548.3 -1469.2,-86.1 -1469.2,-84.6 -1469.2,0.7 		"/>
		<polyline class="st2" points="-1469.2,-616.4 -1469.2,-649.7 -1469.2,-651.2 -1469.2,-651.2 		"/>
		<ellipse class="st4" cx="-1327.9" cy="-567.1" rx="124.6" ry="11"/>
		<path class="st7" d="M-1203.3-567.1c0,0-7.2,377-12,419.7c-3.1,28-37.8,43.4-71.7,51c-23.8,5.3-67,6.9-90.7,0.9
			c-26.4-6.6-55.2-21.2-61-53.1c-11.1-61.6-13.8-418.4-13.8-418.4c0,6.1,55.8,11,124.6,11S-1203.3-561-1203.3-567.1z"/>
		<circle class="st11" cx="-1227.6" cy="-745.9" r="21.3"/>
		<line class="st2" x1="-1237.3" y1="-727.1" x2="-1438.8" y2="-311"/>
		<path class="st11" d="M-1280.9-187l-45.9,26.5c-8.6,4.9-19.6,2-24.6-6.6l-25.4-44c-4.9-8.6-2-19.6,6.6-24.6l45.9-26.5
			c8.6-4.9,19.6-2,24.6,6.6l25.4,44C-1269.4-203-1272.3-192-1280.9-187z"/>
		<path class="st11" d="M-1274.3-276.9l-52.9,4c-9.9,0.7-18.6-6.7-19.3-16.6l-3.8-50.7c-0.7-9.9,6.7-18.6,16.6-19.3l52.9-4
			c9.9-0.7,18.6,6.7,19.3,16.6l3.8,50.7C-1256.9-286.3-1264.4-277.7-1274.3-276.9z"/>
		<path class="st11" d="M-1271.7-366.5l-37.5,37.5c-7,7-18.5,7-25.5,0l-35.9-35.9c-7-7-7-18.5,0-25.5l37.5-37.5c7-7,18.5-7,25.5,0
			l35.9,35.9C-1264.7-385-1264.7-373.5-1271.7-366.5z"/>
		<g>
			<path class="st4" d="M-1316.2-536.8c-8.6,8.8-14.4,19.2-17.4,30.3c-3.9,13.9-3.3,28.8,1.5,42.4c3.5,9.7,9.1,18.8,17,26.5
				c6.1,6,13,10.6,20.4,13.9c15,6.7,31.8,7.9,47.5,3.6c11.5-3.2,22.4-9.4,31.4-18.6"/>
			<path class="st9" d="M-1319.9-537.2c-8.6,8.8-14.4,19.2-17.5,30.3c-3.9,13.9-3.3,28.8,1.6,42.5c3.5,9.7,9.2,18.8,17,26.5
				c6.1,6,13,10.6,20.4,13.9c15,6.7,31.9,7.9,47.5,3.6c11.5-3.2,22.4-9.4,31.4-18.6"/>
			<polyline class="st9" points="-1219.4,-439 -1228,-447.3 -1265.5,-484 -1269.7,-488.1 -1273.8,-492.1 -1311.3,-528.8 
				-1319.9,-537.2 			"/>
			<path class="st9" d="M-1265.5-484c-0.7,0.8-1.6,1.3-2.6,1.5c-1.3,0.4-2.7,0.3-3.9-0.3c-0.6-0.3-1.2-0.7-1.7-1.1
				c-0.7-0.6-1.1-1.4-1.4-2.2c-0.4-1.1-0.4-2.4-0.1-3.5c0.3-0.9,0.7-1.8,1.4-2.5"/>
			<line class="st9" x1="-1275.2" y1="-489.6" x2="-1325.8" y2="-503.7"/>
			<line class="st9" x1="-1254" y1="-431.9" x2="-1268.1" y2="-482.5"/>
			<line class="st9" x1="-1293.5" y1="-434.9" x2="-1272" y2="-482.8"/>
			<line class="st9" x1="-1275.1" y1="-486.1" x2="-1324.5" y2="-468.4"/>
			<path class="st9" d="M-1312.1-529.6c-22.9,23.5-22.5,61,1,84c23.5,22.9,61,22.5,84-1"/>
		</g>
	</g>
	<g>
		<path class="st12" d="M1771.6-786.3c-0.1,0-0.2,0-0.3,0c-0.3,0-0.7,0-1,0c-0.3,0-0.7,0-1,0c-0.1,0-0.2,0-0.3,0h0.8
			c0.2,0,0.4,0,0.6,0c0.2,0,0.4,0,0.6,0H1771.6z"/>
		<path class="st12" d="M1783.6-816.4c0.1,0.1,0.2,0.2,0.2,0.3l-0.6-0.6l-0.6-0.6l-0.5-0.5c0.1,0.1,0.1,0.1,0.2,0.2
			C1782.8-817.3,1783.2-816.9,1783.6-816.4L1783.6-816.4z"/>
		<path class="st12" d="M1819.1-786.3c0,1.5-0.6,2.8-1.6,3.8c-1,1-2.3,1.6-3.8,1.6s-2.8-0.6-3.8-1.6c-1-1-1.6-2.3-1.6-3.8
			c0-1.5,0.6-2.8,1.6-3.8c1-1,2.3-1.6,3.8-1.6s2.8,0.6,3.8,1.6C1818.5-789.1,1819.1-787.7,1819.1-786.3z"/>
		<line class="st12" x1="1770.8" y1="-786.3" x2="1769.7" y2="-786.3"/>
		<line class="st12" x1="1783.2" y1="-816.8" x2="1782.6" y2="-817.4"/>
		<path class="st12" d="M1813.7-830.3v38.7c-1.5,0-2.8,0.6-3.8,1.6l-26.1-26.1c-0.1-0.1-0.1-0.2-0.2-0.3l0,0
			c-0.4-0.5-0.8-0.9-1.3-1.3c-2.9-3.2-4.7-7.5-4.7-12.1c0-10,8.1-18.1,18.1-18.1C1805.5-847.9,1813.5-840.1,1813.7-830.3z"/>
		<path class="st12" d="M1783.6-816.4c-0.1-0.1-0.3-0.2-0.4-0.4l-0.6-0.6c-0.1-0.1-0.2-0.2-0.3-0.3
			C1782.8-817.3,1783.2-816.9,1783.6-816.4z"/>
		<path class="st12" d="M1761.2-752.6c-0.1-0.1-0.3-0.2-0.4-0.2"/>
		<line class="st12" x1="1800.9" y1="-725.3" x2="1800.9" y2="-725.3"/>
		<path class="st12" d="M1771.6-786.3c-0.1,0-0.2,0-0.3,0c-0.3,0-0.7,0-1,0c-0.3,0-0.7,0-1,0c-0.1,0-0.2,0-0.3,0h0.8
			c0.2,0,0.4,0,0.6,0c0.2,0,0.4,0,0.6,0H1771.6z"/>
		<path class="st12" d="M1783.9-816.2l-0.6-0.6l-0.6-0.6l-0.5-0.5c0.1,0.1,0.1,0.1,0.2,0.2c0.5,0.4,0.9,0.8,1.3,1.3l0,0
			C1783.7-816.3,1783.8-816.2,1783.9-816.2z"/>
		<g>
			<circle class="st7" cx="1819.1" cy="-795.9" r="68.8"/>
			<path class="st12" d="M1813.7-717.5c19,0,36.2-7.7,48.6-20.1"/>
			<path class="st12" d="M1819.1-786.3c0,1.5-0.6,2.8-1.6,3.8c-1,1-2.3,1.6-3.8,1.6s-2.8-0.6-3.8-1.6c-1-1-1.6-2.3-1.6-3.8
				c0-1.5,0.6-2.8,1.6-3.8c1-1,2.3-1.6,3.8-1.6s2.8,0.6,3.8,1.6C1818.5-789.1,1819.1-787.7,1819.1-786.3z"/>
			<path class="st12" d="M1849.9-829.8c0,4.7-1.8,8.9-4.7,12.1c0,0,0,0,0,0c-0.5,0.4-0.9,0.8-1.3,1.3c-0.1,0.1-0.1,0.1-0.2,0.2
				l-26.2,26.2c-1-1-2.3-1.6-3.8-1.6v-37.8c0-0.2,0-0.3,0-0.5c0-10,8.1-18.1,18.1-18.1S1849.9-839.8,1849.9-829.8z"/>
			<path class="st12" d="M1850-742.6c0,10-8.1,18.1-18.1,18.1c-9.9,0-18-8-18.1-17.9c0,0,0-0.1,0-0.1c0-0.1,0-0.1,0-0.2v-0.3
				c0-0.1,0-0.2,0-0.3v-37.8c1.5,0,2.8-0.6,3.8-1.6l25.8,25.8c0.1,0.1,0.2,0.2,0.3,0.3c0.6,0.8,1.3,1.5,2.1,2.1
				C1848.3-751.2,1850-747.1,1850-742.6z"/>
			<path class="st12" d="M1813.7-717.5c-4.7,0-9.3-0.5-13.8-1.4v0c-13.5-2.7-25.6-9.4-34.9-18.8c-1.5-1.5-2.9-3.1-4.3-4.7
				c-2.4-2.9-4.5-5.9-6.4-9.1c-6-10.2-9.4-22-9.4-34.7c0-1.6,0.1-3.2,0.2-4.8c0.7-9.9,3.4-19.1,7.8-27.4v0
				c11.6-21.7,34.4-36.5,60.8-36.5c38,0,68.7,30.8,68.7,68.7c0,13.9-4.1,26.7-11.1,37.5c-2.6,4-5.6,7.7-9,11.1"/>
			<path class="st12" d="M1845.9-754.1l-0.5-0.5l-1.4-1.4c0.1,0.1,0.3,0.3,0.4,0.4l0.4,0.4c0,0,0,0,0.1,0.1c0,0,0.1,0.1,0.1,0.1
				c0.2,0.2,0.3,0.3,0.5,0.5c0,0,0.1,0.1,0.1,0.1c0.2,0.1,0.3,0.2,0.4,0.4c0,0,0,0,0,0c0.2,0.2,0.4,0.3,0.6,0.4
				c0.2,0.1,0.4,0.3,0.6,0.4c0.1,0.1,0.2,0.2,0.3,0.2c0.1,0.1,0.2,0.1,0.4,0.2c0.1,0.1,0.2,0.1,0.3,0.2h0c0.1,0,0.1,0.1,0.2,0.1
				c0.1,0.1,0.2,0.1,0.3,0.2c0.3,0.2,0.7,0.3,1,0.5c0.1,0.1,0.3,0.1,0.4,0.2c0.1,0.1,0.3,0.1,0.4,0.2c0.5,0.2,1,0.4,1.5,0.5
				c0.1,0,0.3,0.1,0.4,0.1c0.3,0.1,0.6,0.2,0.9,0.2c0.2,0,0.3,0.1,0.4,0.1c0.1,0,0.2,0,0.4,0.1c0.1,0,0.2,0,0.3,0.1
				c0.2,0,0.4,0.1,0.6,0.1c0.1,0,0.2,0,0.4,0c0.1,0,0.2,0,0.3,0c0.1,0,0.2,0,0.3,0c0.3,0,0.5,0,0.8,0h1c0.3,0,0.6,0,0.9,0
				c0.1,0,0.1,0,0.2,0c0.2,0,0.4,0,0.6-0.1c0,0,0.1,0,0.1,0c0.1,0,0.3,0,0.4-0.1c0.3,0,0.6-0.1,0.9-0.2c0.1,0,0.3-0.1,0.4-0.1
				c0.2,0,0.4-0.1,0.5-0.1c0.1,0,0.1,0,0.2-0.1c0.2,0,0.3-0.1,0.5-0.1c0.2,0,0.3-0.1,0.5-0.1c0.1,0,0.1-0.1,0.2-0.1
				c0.2-0.1,0.3-0.1,0.5-0.2c0.1-0.1,0.3-0.1,0.4-0.2l0.4-0.2c0.1,0,0.2-0.1,0.3-0.2c0.1-0.1,0.3-0.1,0.4-0.2
				c0.1-0.1,0.3-0.1,0.4-0.2c0.1-0.1,0.2-0.1,0.3-0.2c0.1-0.1,0.3-0.2,0.4-0.2l0.4-0.2c0.1-0.1,0.2-0.1,0.3-0.2
				c0.1-0.1,0.2-0.2,0.4-0.2c0.2-0.2,0.5-0.3,0.7-0.5c0.1-0.1,0.2-0.2,0.3-0.3s0.2-0.2,0.3-0.3c0.1-0.1,0.2-0.2,0.3-0.3
				c0.1-0.1,0.2-0.2,0.3-0.3c0.1-0.1,0.2-0.2,0.3-0.3c0.4-0.4,0.8-0.8,1.2-1.3c0,0,0,0,0,0c0.1-0.1,0.2-0.2,0.2-0.3
				c0.1-0.2,0.3-0.3,0.4-0.5c0.1-0.2,0.3-0.4,0.4-0.5c0.2-0.2,0.3-0.4,0.4-0.7c0.2-0.2,0.3-0.5,0.4-0.7c0.1-0.1,0.1-0.2,0.2-0.3
				c0.1-0.1,0.1-0.3,0.2-0.4c0.1-0.2,0.2-0.3,0.2-0.5c0.1-0.1,0.1-0.2,0.2-0.4c0-0.1,0.1-0.2,0.1-0.3c0,0,0-0.1,0-0.1
				c0-0.1,0.1-0.2,0.1-0.3c0,0,0-0.1,0-0.1c0-0.1,0-0.1,0.1-0.2c0-0.1,0-0.1,0.1-0.2c0-0.1,0.1-0.2,0.1-0.3c0-0.1,0.1-0.2,0.1-0.3
				c0.1-0.2,0.1-0.3,0.1-0.5c0,0,0,0,0-0.1c0-0.1,0.1-0.3,0.1-0.4c0,0,0,0,0-0.1s0,0,0,0c0.1-0.3,0.1-0.5,0.2-0.8c0,0,0,0,0,0
				c0-0.1,0-0.1,0-0.2c0-0.1,0-0.2,0-0.3c0-0.1,0-0.3,0.1-0.4v0c0-0.1,0-0.3,0.1-0.4l0,0c0-0.1,0-0.1,0-0.1c0-0.1,0-0.1,0-0.2
				c0,0,0-0.1,0-0.1c0,0,0-0.1,0-0.1c0-0.1,0-0.2,0-0.3c0,0,0-0.1,0-0.1c0-0.1,0-0.2,0-0.3v-0.1c0-0.1,0-0.1,0-0.2
				c0-0.1,0-0.2,0-0.3c0-0.1,0-0.3,0-0.4c0-0.3,0-0.6,0-0.9c0-0.1,0-0.3,0-0.4c0-0.1,0-0.2,0-0.2c0-0.1,0-0.2,0-0.2v0
				c0-0.1,0-0.3,0-0.4c0,0,0-0.1,0-0.1c0-0.3-0.1-0.5-0.1-0.8c0-0.1,0-0.2,0-0.3c0-0.1,0-0.2-0.1-0.4c0-0.1,0-0.1,0-0.2
				c0-0.2-0.1-0.4-0.1-0.6c0,0,0,0,0,0c-0.1-0.2-0.1-0.4-0.2-0.6c0-0.1-0.1-0.3-0.1-0.4c0-0.1-0.1-0.3-0.1-0.4
				c0-0.1-0.1-0.3-0.2-0.4c-0.1-0.2-0.2-0.5-0.3-0.7c-0.1-0.1-0.1-0.3-0.2-0.4c-0.1-0.3-0.2-0.5-0.4-0.7c0-0.1-0.1-0.1-0.1-0.2
				c-0.1-0.1-0.1-0.2-0.2-0.3c0,0-0.1-0.1-0.1-0.1c0,0,0-0.1,0-0.1c-0.1-0.1-0.1-0.2-0.2-0.3c-0.1-0.2-0.2-0.4-0.3-0.5
				s-0.2-0.3-0.3-0.5c-0.1-0.1-0.2-0.3-0.3-0.4c-0.1-0.2-0.3-0.4-0.4-0.5c0,0,0,0,0,0c-0.1-0.1-0.2-0.2-0.3-0.3
				c-0.1-0.2-0.3-0.3-0.4-0.5c-0.1-0.2-0.3-0.3-0.4-0.4c-0.1-0.1-0.2-0.2-0.3-0.3c-0.1-0.1-0.2-0.2-0.3-0.3c0,0,0,0,0,0
				c-0.2-0.1-0.3-0.3-0.5-0.4c-0.1-0.1-0.3-0.3-0.5-0.4c0,0,0,0-0.1,0c-0.1-0.1-0.2-0.1-0.3-0.2c-0.3-0.2-0.5-0.4-0.8-0.6
				c-0.1-0.1-0.3-0.2-0.4-0.3c-0.1-0.1-0.3-0.2-0.4-0.3c-0.1-0.1-0.2-0.1-0.3-0.2c-0.2-0.1-0.5-0.3-0.7-0.4c0,0,0,0,0,0
				c-0.1-0.1-0.3-0.2-0.4-0.2c-0.1-0.1-0.2-0.1-0.3-0.1c-0.1,0-0.2-0.1-0.2-0.1c0,0-0.1,0-0.1-0.1c-0.2-0.1-0.3-0.2-0.5-0.2
				c0,0,0,0-0.1,0s0,0-0.1,0c-0.1,0-0.2-0.1-0.4-0.1c-0.2-0.1-0.4-0.2-0.6-0.2c-0.2-0.1-0.5-0.2-0.7-0.2c-0.1,0-0.1,0-0.2-0.1
				c-0.1,0-0.3-0.1-0.4-0.1c-0.1,0-0.1,0-0.2,0c-0.2,0-0.3-0.1-0.5-0.1c0,0-0.1,0-0.1,0c0,0,0,0,0,0c0,0,0,0,0,0
				c-0.2-0.1-0.5-0.1-0.7-0.1c0,0-0.1,0-0.1,0c-0.1,0-0.2,0-0.2,0c0,0,0,0,0,0h0c-0.1,0-0.2,0-0.3,0c0,0,0,0,0,0c-0.1,0-0.1,0-0.2,0
				c-0.1,0-0.1,0-0.2,0h0c-0.1,0-0.3,0-0.4,0h0c-0.1,0-0.3,0-0.4,0c0.1,0,0.2,0,0.3,0c9.4-0.7,16.7-8.5,16.7-18
				c0-10-8.1-18.1-18-18.1c-4.6,0-8.8,1.7-11.9,4.5c0,0-0.1,0.1-0.1,0.1c2.9-3.2,4.7-7.5,4.7-12.1c0-10-8.1-18.1-18-18.1
				c-10,0-18.1,8.1-18.1,18.1c0-0.2,0-0.3,0-0.5c-0.3-9.8-8.2-17.6-18-17.6c-10,0-18.1,8.1-18.1,18.1c0,4.7,1.8,8.9,4.7,12.1
				c-0.1-0.1-0.1-0.1-0.2-0.2c-3.2-2.8-7.3-4.5-11.9-4.5c-10,0-18,8.1-18,18.1c0,0.4,0,0.8,0,1.2c0,0.1,0,0.1,0,0.2
				c0,0.3,0,0.5,0.1,0.8c0.1,0.6,0.1,1.1,0.3,1.7c0.1,0.3,0.1,0.6,0.2,0.8c0,0,0,0.1,0,0.1c0.1,0.3,0.1,0.5,0.2,0.8
				c0.3,0.8,0.6,1.7,1,2.4c0.1,0.2,0.2,0.5,0.4,0.7c0.2,0.3,0.4,0.7,0.6,1c0.1,0.2,0.3,0.5,0.5,0.7c0.1,0.2,0.3,0.4,0.5,0.7
				c0.3,0.4,0.6,0.7,0.9,1.1c0.3,0.3,0.6,0.6,0.9,0.9c0.1,0.1,0.3,0.3,0.4,0.4c0,0,0,0,0.1,0.1c0.2,0.2,0.4,0.4,0.7,0.6
				c0.3,0.2,0.6,0.5,0.9,0.7c0.3,0.2,0.6,0.4,0.9,0.6h0c0.3,0.2,0.5,0.3,0.8,0.5c1,0.5,2.1,1,3.2,1.4c0.3,0.1,0.6,0.2,0.9,0.3
				c0.3,0.1,0.6,0.1,0.9,0.2c0.2,0,0.3,0.1,0.5,0.1c0.3,0.1,0.5,0.1,0.8,0.1c0.3,0,0.7,0.1,1.1,0.1c0.1,0,0.2,0,0.3,0
				c-0.6,0-1.2,0.1-1.8,0.2"/>
			<path class="st12" d="M1810-790c-1,1-1.6,2.3-1.6,3.8h-37.6c-0.2,0-0.4,0-0.6,0c-0.2,0-0.4,0-0.6,0h-0.8c-0.4,0-0.7-0.1-1.1-0.1
				c-0.3,0-0.5-0.1-0.8-0.1c-0.2,0-0.3-0.1-0.5-0.1c-0.3-0.1-0.6-0.1-0.9-0.2c-0.3-0.1-0.6-0.2-0.9-0.3c-1.1-0.4-2.2-0.8-3.2-1.4
				c-0.3-0.1-0.5-0.3-0.8-0.5h0c-0.3-0.2-0.6-0.4-0.9-0.6c-0.3-0.2-0.6-0.4-0.9-0.7c-0.2-0.2-0.5-0.4-0.7-0.6l-0.1-0.1
				c-0.1-0.1-0.3-0.3-0.4-0.4c-0.3-0.3-0.6-0.6-0.9-0.9c-0.3-0.3-0.6-0.7-0.9-1.1c-0.2-0.2-0.3-0.4-0.5-0.7
				c-0.2-0.2-0.3-0.4-0.5-0.7c-0.2-0.3-0.4-0.7-0.6-1c-0.1-0.2-0.2-0.4-0.4-0.7c-0.4-0.8-0.7-1.6-1-2.4c-0.1-0.3-0.2-0.5-0.2-0.8
				c0,0,0-0.1,0-0.1c-0.1-0.3-0.1-0.6-0.2-0.8c-0.1-0.5-0.2-1.1-0.3-1.7c0-0.3-0.1-0.5-0.1-0.8c0-0.1,0-0.1,0-0.2c0-0.4,0-0.8,0-1.2
				c0-10,8.1-18.1,18-18.1c4.6,0,8.7,1.7,11.9,4.5l0.5,0.5c0.2,0.2,0.4,0.4,0.6,0.6l0.6,0.6L1810-790z"/>
			<path class="st12" d="M1875.3-804.3c0,9.5-7.4,17.3-16.7,18h-0.7c-0.2,0-0.4,0-0.6,0c-0.2,0-0.3,0-0.5,0h-37.7
				c0-1.5-0.6-2.8-1.6-3.8l26.2-26.2l0.4-0.4c0.3-0.3,0.6-0.6,0.9-0.9l0.3-0.3c3.2-2.8,7.4-4.5,11.9-4.5
				C1867.2-822.3,1875.3-814.2,1875.3-804.3z"/>
		</g>
		<path class="st12" d="M1771.3-786.2c-0.3,0-0.7,0-1,0c-0.3,0-0.7,0-1,0c0.1,0,0.3,0,0.4,0c0.2,0,0.4,0,0.6,0s0.4,0,0.6,0
			C1771-786.3,1771.1-786.3,1771.3-786.2z"/>
		<path class="st12" d="M1763.3-752.9c-0.7,0.1-1.4,0.2-2.1,0.3c-0.1,0-0.3,0-0.4,0.1c-2.1,0.3-4.2,0.6-6.4,1
			c-3.9,0.5-8,1.1-12.2,1.5c-24.8,2.8-54.9,4.5-87.4,4.5c-81.8,0-148.5-10.5-153-23.8c0,0,0,0,0,0c0,0,0-0.1,0-0.1
			c-0.1-0.4-0.2-0.9-0.2-1.3c0-13.9,68.6-25.2,153.2-25.2c33.8,0,65,1.8,90.4,4.9c1.5,0.2,3,0.4,4.4,0.6c3.9,0.5,7.6,1,11.2,1.6h0
			c5.2,0.8,10.1,1.7,14.5,2.6c0.3,0.1,0.6,0.1,1,0.2h-8.8"/>
		<path class="st12" d="M1776.3-786.1c19.9,4.2,31.7,9.6,31.7,15.3c0,0.4-0.1,0.9-0.2,1.3c0,0,0,0.1,0,0.1c0,0,0,0,0,0
			c-1,3-5.2,5.9-12.1,8.5c-5.1,2-11.6,3.8-19.4,5.4"/>
		<g>
			<path class="st12" d="M1772.7-103.2c0.6,0.8,0.9,1.6,0.9,2.4c0,10.8-53.2,19.5-118.8,19.5s-118.8-8.7-118.8-19.5
				c0-0.8,0.3-1.7,0.9-2.4"/>
			<path class="st12" d="M1514.3-686c-0.3-1.8-0.5-3.5-0.8-5.3"/>
			<path class="st12" d="M1521.3-635.5c22.1,166.1,50.5,437.6,15.6,532.3c-0.3,0.8-0.6,1.6-0.9,2.4"/>
			<path class="st12" d="M1509.4-719.9c-4-26.7-6.8-44.4-7.6-49.4c0,0,0,0,0,0c0,0,0-0.1,0-0.1c-0.1-0.9-0.2-1.3-0.2-1.3"/>
			<path class="st12" d="M1759-176.2c-0.3-3.4-0.5-6.9-0.8-10.4"/>
			<path class="st12" d="M1763.7-138.6c2.3,13.5,5.3,25.4,9,35.4c0.3,0.8,0.6,1.6,0.9,2.4"/>
			<path class="st12" d="M1756.3-251.5c0.3-155.9,29.2-370.1,43.7-467.3v0c0.3-2.2,0.6-4.3,1-6.4h0c0.1-0.5,0.1-1,0.2-1.4
				c0.1-0.9,0.3-1.8,0.4-2.7c3.2-21.4,5.5-35.6,6.2-39.9c0,0,0,0,0,0c0,0,0-0.1,0-0.1c0.1-0.9,0.2-1.3,0.2-1.3"/>
		</g>
		<path class="st12" d="M1776.3-755.4c-4,0.9-8.3,1.7-13,2.4"/>
		<line class="st12" x1="1760.8" y1="-752.5" x2="1760.8" y2="-752.8"/>
		<path class="st7" d="M1782-703.4c-79.3,548.2-49.9,548.3-42,569.1c2,5.4,0.6,9.2-2.6,11.9c-10.1,11.1-43.3,19.2-82.8,19.2
			c-38.1,0-70.4-7.5-81.7-18c-7.6-5-3.9-11.8-3.9-11.8c39.4-158.4-36.3-544.5-41.4-570.1c-0.2-0.9-0.3-1.3-0.3-1.3h254.8
			C1782.1-704.1,1782.1-703.7,1782-703.4z"/>
		<path class="st11" d="M1659.6-534.1l-61.9,15.5c-9.6,2.4-19.4-3.5-21.8-13.1l-14.9-59.5c-2.4-9.6,3.5-19.4,13.1-21.8l61.9-15.5
			c9.6-2.4,19.4,3.5,21.8,13.1l14.9,59.5C1675.1-546.3,1669.2-536.5,1659.6-534.1z"/>
		<path class="st11" d="M1686.6-421.1l-61.6-16.9c-9.5-2.6-15.2-12.6-12.6-22.1l16.3-59.1c2.6-9.5,12.6-15.2,22.1-12.6l61.6,16.9
			c9.5,2.6,15.2,12.6,12.6,22.1l-16.3,59.1C1706.1-424.1,1696.2-418.5,1686.6-421.1z"/>
		<ellipse class="st4" cx="1654.8" cy="-704.4" rx="127.4" ry="21"/>
	</g>
</g>
</svg>
