<?xml version="1.0" encoding="utf-8"?>
<!-- Generator: Adobe Illustrator 24.3.0, SVG Export Plug-In . SVG Version: 6.00 Build 0)  -->
<svg version="1.1" id="Layer_1" xmlns="http://www.w3.org/2000/svg" xmlns:xlink="http://www.w3.org/1999/xlink" x="0px" y="0px"
	 viewBox="0 0 482.5 792" style="enable-background:new 0 0 482.5 792;" xml:space="preserve">
<style type="text/css">
	.st0{display:none;}
	.st1{display:inline;fill:#C5CAD6;}
	.st2{fill:#BC520A;}
	.st3{fill:none;stroke:#383735;stroke-width:7;stroke-linecap:round;stroke-miterlimit:10;}
	.st4{fill:none;stroke:#000000;stroke-width:5;stroke-miterlimit:10;}
	.st5{fill:#9B450B;}
	.st6{fill:#383735;}
	.st7{fill:#273244;}
	.st8{fill:#C5CAD6;}
	.st9{fill:none;stroke:#383735;stroke-width:7;stroke-linecap:round;stroke-linejoin:round;stroke-miterlimit:10;}
	.st10{fill:none;stroke:#383735;stroke-width:2;stroke-linecap:round;stroke-linejoin:round;stroke-miterlimit:10;}
	.st11{fill:none;stroke:#383735;stroke-width:7;stroke-miterlimit:10;}
	.st12{fill:none;stroke:#383735;stroke-width:6.9997;stroke-linecap:round;stroke-linejoin:round;stroke-miterlimit:9.9996;}
	.st13{fill:none;stroke:#C5CAD6;stroke-width:7;stroke-linecap:round;stroke-miterlimit:10;}
	.st14{fill:none;stroke:#383735;stroke-width:7.0001;stroke-linecap:round;stroke-miterlimit:10.0002;}
	.st15{fill:none;stroke:#383735;stroke-width:5;stroke-linecap:round;stroke-linejoin:round;stroke-miterlimit:10;}
</style>
<g id="Layer_2_1_" class="st0">
	<rect x="-158.8" y="-26.2" class="st1" width="664.1" height="842"/>
</g>
<g id="Layer_1_1_">
	<path class="st2" d="M2359.4,251.2C2359.3,251.3,2359.3,251.3,2359.4,251.2c-1.1,0.9-37.1,30.2-73.2,59.5l0,0
		c-6.9,5.6-13.7,11.1-20.3,16.5c-24.4,19.9-45.6,37.1-51.4,41.8c-15.8,12.8-31.1,0-31.1,0l-132.8-107.8l-17-13.8c0,0-0.1,0-0.1-0.1
		h-0.1l-0.8-0.7l11.1,0.2l210.5,2.9l0,0L2359.4,251.2z"/>
	<path class="st3" d="M-260.6,291h-116c-3.2,0-5.8-2.6-5.8-5.8V172.3c0-3.2,2.6-5.8,5.8-5.8h116c3.2,0,5.8,2.6,5.8,5.8v112.8
		C-254.8,288.3-257.4,291-260.6,291z"/>
	<g>
		<circle class="st3" cx="-679.3" cy="201.8" r="28.3"/>
		<line class="st3" x1="-679.8" y1="141.2" x2="-679.8" y2="359.2"/>
	</g>
	<circle class="st3" cx="-784" cy="201.8" r="20.1"/>
	<line class="st3" x1="-784.4" y1="141.2" x2="-784.4" y2="419.5"/>
	<path class="st4" d="M-256.1,723.8c0,0.1,0,0.2,0.1,0.4c-0.1-0.3-0.1-0.6-0.2-0.9C-256.1,723.5-256.1,723.6-256.1,723.8z"/>
	<path class="st4" d="M-255.8,725.3c-0.1-0.4-0.1-0.8-0.2-1.1c0,0.2,0.1,0.4,0.1,0.6C-255.9,725-255.8,725.1-255.8,725.3z"/>
	<path class="st4" d="M-255.6,726.8c0-0.3-0.1-0.6-0.1-0.9c0,0.2,0.1,0.4,0.1,0.7C-255.6,726.7-255.6,726.7-255.6,726.8z"/>
	<path class="st4" d="M-255.7,725.9c0-0.2-0.1-0.4-0.1-0.6C-255.8,725.5-255.8,725.7-255.7,725.9z"/>
	<path class="st4" d="M-255.5,727.8c0-0.3-0.1-0.6-0.1-1c0,0.1,0,0.3,0,0.4C-255.5,727.4-255.5,727.6-255.5,727.8z"/>
	<path class="st4" d="M-255.4,729.9c0-0.7-0.1-1.4-0.2-2.1c0,0.4,0.1,0.8,0.1,1.1c0,0.1,0,0.2,0,0.3
		C-255.4,729.5-255.4,729.7-255.4,729.9z"/>
	<g>
		<circle class="st5" cx="-411.8" cy="687.5" r="164.7"/>
		<g>
			<path class="st3" d="M-473.8,759.7c-0.3,0.3-0.6,0.7-0.9,1c-0.5,0.6-1.1,1.2-1.6,1.7c-0.1,0.1-0.2,0.2-0.3,0.3
				c-0.5,0.5-1.1,1-1.6,1.5c-0.2,0.2-0.5,0.5-0.8,0.7l2.4-2.4L-473.8,759.7z"/>
			<path class="st3" d="M-505.5,688.8h1.8c-0.3,0-0.5,0-0.8,0c-0.8,0-1.6,0.1-2.4,0.1s-1.6,0-2.4-0.1c-0.3,0-0.5,0-0.8,0h1.8
				c0.5,0,0.9,0,1.3,0S-505.9,688.8-505.5,688.8z"/>
			<path class="st3" d="M-474.9,616.7c0.2,0.2,0.4,0.4,0.5,0.6l-1.5-1.5l-1.5-1.5l-1.2-1.2c0.2,0.1,0.3,0.3,0.4,0.4
				C-476.9,614.5-475.8,615.6-474.9,616.7L-474.9,616.7z"/>
			<path class="st3" d="M-402.8,584.5c0,0.4,0,0.7,0,1.1v-2.2C-402.8,583.8-402.8,584.2-402.8,584.5z"/>
			<path class="st3" d="M-390.1,688.8c0,3.5-1.4,6.7-3.7,9s-5.5,3.7-9,3.7s-6.7-1.4-9-3.7s-3.7-5.5-3.7-9s1.4-6.7,3.7-9
				c2.3-2.3,5.5-3.7,9-3.7s6.7,1.4,9,3.7C-391.5,682.1-390.1,685.3-390.1,688.8z"/>
			<path class="st3" d="M-402.8,794.6v-2.7c0,0.2,0,0.4,0,0.6v0.2v0.5c0,0.1,0,0.2,0,0.4c0,0.1,0,0.1,0,0.2
				c0.3,23.7,19.6,42.8,43.3,42.8c23.9,0,43.3-19.4,43.3-43.3c0-10.7-3.9-20.5-10.4-28.1c-1.8-1.5-3.5-3.2-5-5
				c-0.2-0.2-0.4-0.5-0.6-0.8l1.6,1.6l3.4,3.4l1.2,1.2"/>
			<path class="st3" d="M-402.8,853.2c45.4,0,86.5-18.4,116.3-48.2"/>
			<path class="st3" d="M-330.1,616.1l-1,1c0.1-0.2,0.2-0.3,0.4-0.4c1-1.1,2-2.1,3.1-3.1l0,0c0.1-0.1,0.2-0.2,0.3-0.3l-0.7,0.7
				C-328.7,614.7-329.4,615.4-330.1,616.1z"/>
			<path class="st3" d="M-302.8,689c-0.1,0-0.2,0-0.4,0l0,0C-303,689-302.9,689-302.8,689z"/>
			<path class="st3" d="M-301.4,688.9c-0.2,0-0.5,0-0.7,0c0.1,0,0.3,0,0.5,0C-301.6,688.9-301.5,688.9-301.4,688.9z"/>
			<path class="st3" d="M-295.6,688.8c-0.2,0-0.4,0-0.6,0h-0.1c-0.8,0.1-1.6,0.1-2.4,0.1s-1.5,0-2.2-0.1h-0.1c-0.3,0-0.6,0-0.9-0.1
				h2.1c0.4,0,0.8,0,1.2,0c0.5,0,0.9,0,1.3,0L-295.6,688.8L-295.6,688.8z"/>
			<path class="st3" d="M-295.2,688.9L-295.2,688.9c-0.4,0-0.7,0-1-0.1C-295.9,688.8-295.6,688.8-295.2,688.9
				C-295.3,688.9-295.3,688.9-295.2,688.9z"/>
			<path class="st3" d="M-293.7,689c-0.2,0-0.3,0-0.5-0.1l0,0c-0.2,0-0.4,0-0.5,0c0.2,0,0.4,0,0.6,0C-294,689-293.9,689-293.7,689z"
				/>
			<path class="st3" d="M-257.9,717.1c0-0.1-0.1-0.3-0.2-0.4c-0.2-0.5-0.4-1-0.6-1.5c-0.2-0.4-0.3-0.8-0.5-1.2s-0.3-0.8-0.5-1.2
				c-0.1-0.2-0.2-0.5-0.4-0.7c-0.1-0.3-0.3-0.5-0.4-0.8c-0.1-0.1-0.1-0.2-0.2-0.3c-0.2-0.4-0.5-0.9-0.7-1.3
				c-0.3-0.5-0.6-0.9-0.9-1.4s-0.6-0.9-0.9-1.3l0,0c-0.3-0.4-0.6-0.9-1-1.3s-0.7-0.8-1-1.2s-0.6-0.8-1-1.1c-0.1-0.1-0.1-0.2-0.2-0.2
				c-0.3-0.3-0.6-0.7-0.9-1c0,0,0-0.1-0.1-0.1c-0.4-0.4-0.7-0.7-1.1-1.1c-0.3-0.3-0.7-0.6-1-0.9c-0.5-0.4-0.9-0.8-1.4-1.2
				c-0.4-0.3-0.8-0.7-1.2-1c-0.5-0.4-1-0.8-1.5-1.1c-0.3-0.2-0.7-0.5-1-0.7s-0.6-0.4-0.9-0.6c-0.3-0.2-0.7-0.4-1-0.6
				c-0.6-0.4-1.2-0.7-1.8-1c-0.2-0.1-0.5-0.3-0.8-0.4c-0.4-0.2-0.8-0.4-1.3-0.6c-0.5-0.2-1-0.5-1.5-0.7c-0.4-0.2-0.8-0.3-1.2-0.5
				c-0.3-0.1-0.7-0.3-1-0.4c-0.1,0-0.3-0.1-0.4-0.1c-0.3-0.1-0.6-0.2-0.8-0.3c-0.2-0.1-0.5-0.2-0.7-0.2c-0.2-0.1-0.5-0.1-0.7-0.2
				c-0.3-0.1-0.6-0.2-0.9-0.2c-0.2-0.1-0.4-0.1-0.6-0.2c-0.3-0.1-0.6-0.2-1-0.2c-0.7-0.2-1.4-0.3-2.1-0.4c-0.3,0-0.6-0.1-0.9-0.1
				c0.2,0,0.4,0.1,0.6,0.1l0,0c0.5,0.1,1,0.2,1.4,0.3c0.2,0,0.4,0.1,0.6,0.1h0.1h0.1c0.5,0.1,0.9,0.2,1.4,0.3c0.1,0,0.3,0.1,0.4,0.1
				c0.5,0.1,0.9,0.2,1.4,0.4c0.6,0.2,1.2,0.4,1.8,0.6c0.5,0.2,1,0.3,1.5,0.5c0.3,0.1,0.6,0.2,0.8,0.3c0.5,0.2,1.1,0.5,1.6,0.7
				c0.3,0.1,0.5,0.2,0.8,0.4c0.6,0.3,1.2,0.6,1.7,0.9l0,0c0.6,0.3,1.1,0.6,1.7,1c0.3,0.2,0.6,0.3,0.8,0.5c0.3,0.2,0.7,0.4,1,0.6
				c0.3,0.2,0.7,0.4,1,0.7c0.6,0.5,1.3,0.9,1.9,1.4c0.2,0.2,0.4,0.3,0.6,0.5l0.1,0.1c0.4,0.3,0.8,0.6,1.1,1c0.4,0.3,0.8,0.7,1.1,1
				c0,0,0,0,0.1,0.1c0.2,0.2,0.5,0.4,0.7,0.7c0.2,0.2,0.5,0.5,0.7,0.7c0.3,0.4,0.7,0.7,1,1.1c0.3,0.4,0.6,0.7,0.9,1.1
				c0.2,0.2,0.4,0.5,0.6,0.8c0,0,0,0,0.1,0.1c0.3,0.4,0.7,0.9,1,1.3c0.2,0.3,0.5,0.7,0.7,1c0.3,0.4,0.5,0.8,0.8,1.2s0.5,0.8,0.8,1.2
				c0.2,0.3,0.3,0.6,0.5,0.9c0.3,0.6,0.6,1.1,0.9,1.7c0.3,0.6,0.6,1.2,0.8,1.8c0.1,0.3,0.3,0.6,0.4,0.9c0.4,0.9,0.7,1.8,1.1,2.8
				c0.1,0.3,0.2,0.6,0.3,1c0.1,0.3,0.2,0.6,0.3,1c0.1,0.5,0.3,1,0.4,1.5v0.1c0.1,0.5,0.2,0.9,0.3,1.4c0,0.1,0.1,0.3,0.1,0.4
				c-0.2-1.1-0.5-2.2-0.8-3.2C-257.3,719.1-257.6,718.1-257.9,717.1z"/>
			<path class="st3" d="M-390.1,688.8c0,3.5-1.4,6.7-3.7,9s-5.5,3.7-9,3.7s-6.7-1.4-9-3.7s-3.7-5.5-3.7-9s1.4-6.7,3.7-9
				c2.3-2.3,5.5-3.7,9-3.7s6.7,1.4,9,3.7C-391.5,682.1-390.1,685.3-390.1,688.8z"/>
			<line class="st3" x1="-297.2" y1="688.8" x2="-299.8" y2="688.8"/>
			<line class="st3" x1="-505.5" y1="688.8" x2="-508.2" y2="688.8"/>
			<line class="st3" x1="-475.8" y1="615.8" x2="-477.3" y2="614.3"/>
			<line class="st3" x1="-328.1" y1="614" x2="-330.1" y2="616.1"/>
			<path class="st3" d="M-402.8,583.4V676c-3.5,0-6.7,1.4-9,3.7l-62.5-62.5c-0.2-0.2-0.3-0.4-0.5-0.6l0,0c-1-1.1-2-2.1-3.1-3.1
				c-7-7.7-11.2-17.9-11.2-29c0-23.8,19.3-43.2,43.2-43.2C-422.5,541.3-403.4,560.1-402.8,583.4z"/>
			<path class="st3" d="M-474.9,616.7c-0.3-0.3-0.6-0.6-0.9-0.9l-1.5-1.5c-0.2-0.2-0.5-0.5-0.7-0.8
				C-476.9,614.5-475.8,615.6-474.9,616.7z"/>
			<path class="st3" d="M-402.8,584.5c0,0.4,0,0.7,0,1.1v-2.2C-402.8,583.8-402.8,584.2-402.8,584.5z"/>
			<path class="st3" d="M-316.4,584.5c0,11.2-4.2,21.4-11.2,29l0,0c-1.1,1-2.1,2-3.1,3.1c-0.1,0.1-0.3,0.3-0.4,0.4l-62.7,62.7
				c-2.3-2.3-5.5-3.7-9-3.7v-90.4c0-0.4,0-0.7,0-1.1c0-23.8,19.3-43.2,43.2-43.2S-316.4,560.7-316.4,584.5z"/>
			<path class="st3" d="M-327.7,613.6c-0.1,0.1-0.3,0.3-0.4,0.5c-0.6,0.7-1.3,1.4-2,2c-0.2,0.2-0.4,0.4-0.6,0.6
				C-329.8,615.6-328.7,614.5-327.7,613.6z"/>
			<path class="st3" d="M-316.2,793.3c0,23.9-19.4,43.3-43.3,43.3c-23.7,0-43-19.1-43.3-42.8c0-0.1,0-0.1,0-0.2c0-0.1,0-0.2,0-0.4
				v-0.7c0-0.2,0-0.4,0-0.6v-90.4c3.5,0,6.7-1.4,9-3.7l61.6,61.6c0.2,0.2,0.4,0.5,0.6,0.8c1.5,1.8,3.2,3.5,5,5
				C-320.1,772.7-316.2,782.5-316.2,793.3z"/>
			<path class="st3" d="M-402.8,793.3c0-0.2,0-0.4,0-0.6V793.3c0,0.1,0,0.2,0,0.4V793.3z"/>
			<path class="st3" d="M-326.5,765.2c-1.8-1.5-3.5-3.2-5-5c0.3,0.3,0.6,0.5,0.9,0.8s0.7,0.6,1,0.9l0.6,0.6c0.1,0.1,0.2,0.2,0.3,0.3
				c0,0,0.1,0.1,0.2,0.2c0.1,0.1,0.1,0.1,0.2,0.2c0.4,0.4,0.7,0.8,1.1,1.2C-327,764.6-326.7,764.9-326.5,765.2z"/>
			<path class="st3" d="M-402.8,792.5v0.7c0,0.1,0,0.2,0,0.4c0,0.1,0,0.1,0,0.2c0,0.3,0,0.5,0,0.8v-2.7
				C-402.8,792.1-402.8,792.3-402.8,792.5z"/>
			<path class="st3" d="M-402.8,701.5v93.1c-0.7,23.2-19.8,41.9-43.2,41.9c-23.9,0-43.2-19.3-43.2-43.2c0-11.9,4.8-22.6,12.6-30.4
				c0.1-0.1,0.2-0.2,0.3-0.3c0.6-0.6,1.1-1.1,1.6-1.7c0.3-0.3,0.6-0.7,0.9-1l62-62C-409.5,700.1-406.3,701.5-402.8,701.5z"/>
			<path class="st3" d="M-301.4,688.9c-0.2,0-0.5,0-0.7,0c0.1,0,0.3,0,0.5,0C-301.6,688.9-301.5,688.9-301.4,688.9z"/>
			<path class="st3" d="M-402.8,853.2c-90.8,0-164.5-73.6-164.5-164.5s73.6-164.5,164.5-164.5c90.8,0,164.5,73.6,164.5,164.5
				c0,45.4-18.4,86.5-48.2,116.3"/>
			<path class="st3" d="M-326,765.6l-1.2-1.2l-3.4-3.4c0.3,0.3,0.7,0.6,1,0.9l0.6,0.6c0.1,0.1,0.2,0.2,0.3,0.3
				c0.1,0,0.1,0.1,0.1,0.2c0.1,0.1,0.1,0.1,0.2,0.2c0.4,0.4,0.8,0.8,1.2,1.1c0.1,0.1,0.2,0.2,0.3,0.3c0.4,0.3,0.7,0.6,1.1,0.9
				c0,0,0,0,0.1,0.1c0.4,0.4,0.9,0.7,1.4,1c0.5,0.4,0.9,0.7,1.4,1c0.3,0.2,0.6,0.4,0.8,0.5c0.3,0.2,0.6,0.4,0.9,0.5
				c0.3,0.2,0.5,0.3,0.8,0.5l0,0c0.1,0.1,0.3,0.2,0.4,0.3c0.3,0.2,0.5,0.3,0.8,0.5c0.8,0.4,1.6,0.8,2.4,1.2c0.3,0.2,0.6,0.3,0.9,0.4
				c0.3,0.1,0.6,0.3,0.9,0.4c1.1,0.5,2.3,0.9,3.5,1.2c0.3,0.1,0.7,0.2,1,0.3c0.7,0.2,1.4,0.4,2.1,0.5c0.4,0.1,0.7,0.2,1,0.2
				c0.3,0.1,0.6,0.1,0.9,0.2c0.3,0,0.6,0.1,0.8,0.2c0.5,0.1,1,0.1,1.5,0.2c0.3,0,0.6,0.1,0.8,0.1c0.2,0,0.4,0,0.6,0.1
				c0.3,0,0.5,0,0.8,0.1c0.6,0,1.3,0.1,2,0.1c0.4,0,0.8,0,1.3,0c0.4,0,0.8,0,1.2,0c0.7,0,1.4-0.1,2.1-0.1c0.2,0,0.3,0,0.5,0
				c0.5,0,1-0.1,1.6-0.2c0.1,0,0.1,0,0.2,0c0.3,0,0.7-0.1,1-0.1c0.7-0.1,1.4-0.2,2.1-0.4c0.4-0.1,0.7-0.2,1-0.2
				c0.4-0.1,0.9-0.2,1.3-0.3c0.1,0,0.3-0.1,0.4-0.1c0.4-0.1,0.8-0.2,1.2-0.4c0.4-0.1,0.8-0.2,1.1-0.4c0.2-0.1,0.3-0.1,0.5-0.2
				c0.4-0.1,0.8-0.3,1.2-0.5c0.3-0.1,0.6-0.2,1-0.4c0.3-0.1,0.6-0.3,1-0.4c0.3-0.1,0.5-0.2,0.8-0.4c0.4-0.2,0.7-0.3,1.1-0.5
				c0.3-0.1,0.6-0.3,0.9-0.5c0.3-0.1,0.5-0.3,0.8-0.4c0.3-0.2,0.7-0.4,1-0.6c0.3-0.2,0.6-0.4,0.9-0.5c0.3-0.2,0.6-0.4,0.8-0.6
				c0.3-0.2,0.6-0.4,0.9-0.6c0.6-0.4,1.1-0.8,1.6-1.2c0.3-0.2,0.5-0.4,0.8-0.6c0.3-0.2,0.5-0.4,0.8-0.6c0.3-0.2,0.5-0.4,0.8-0.7
				c0.2-0.2,0.5-0.4,0.8-0.7c0.2-0.2,0.5-0.5,0.7-0.7c1-1,1.9-2,2.8-3l0,0c0.2-0.2,0.4-0.5,0.6-0.7c0.3-0.4,0.7-0.8,1-1.3
				c0.3-0.4,0.6-0.9,0.9-1.3c0.4-0.5,0.7-1,1-1.6c0.4-0.5,0.7-1.1,1-1.7c0.1-0.2,0.3-0.5,0.4-0.7c0.2-0.3,0.4-0.7,0.5-1
				c0.2-0.4,0.4-0.8,0.6-1.2c0.1-0.3,0.3-0.6,0.4-0.8s0.2-0.5,0.3-0.7c0-0.1,0.1-0.2,0.1-0.2c0.1-0.2,0.2-0.5,0.3-0.8l0,0
				c0-0.1,0.1-0.2,0.1-0.3s0.1-0.3,0.2-0.5c0.1-0.1,0.1-0.3,0.2-0.5c0.1-0.3,0.2-0.5,0.3-0.8c0.1-0.2,0.2-0.5,0.2-0.8
				c0.1-0.4,0.2-0.7,0.3-1.1c0-0.1,0-0.1,0-0.1c0.1-0.3,0.2-0.7,0.3-1v-0.1l0,0c0.2-0.6,0.3-1.2,0.4-1.8v-0.1c0-0.2,0.1-0.4,0.1-0.5
				c0.1-0.2,0.1-0.4,0.1-0.6c0-0.1,0-0.1,0-0.2c0-0.2,0.1-0.5,0.1-0.8l0,0c0-0.3,0.1-0.7,0.1-1l0,0c0-0.1,0-0.2,0-0.3s0-0.2,0-0.4
				c0-0.1,0-0.2,0-0.3s0-0.2,0-0.3c0-0.2,0-0.4,0.1-0.6c0-0.1,0-0.2,0-0.3c0-0.3,0.1-0.6,0.1-0.9c0-0.1,0-0.3,0-0.4
				c0-0.2,0-0.5,0-0.7c0-0.3,0-0.7,0-1c0-0.7,0-1.4-0.1-2.2c0-0.2,0-0.4,0-0.6c0-0.1,0-0.2,0-0.3c0-0.4-0.1-0.8-0.1-1.1v-0.1
				c0-0.2,0-0.4-0.1-0.5c0-0.1,0-0.3-0.1-0.4c0-0.1,0-0.1,0-0.2c-0.1-0.6-0.2-1.2-0.3-1.8c0-0.2-0.1-0.4-0.1-0.6
				c0-0.1,0-0.2-0.1-0.4c0-0.2-0.1-0.3-0.1-0.5c0-0.1-0.1-0.3-0.1-0.4c-0.1-0.5-0.2-0.9-0.3-1.4v-0.1c-0.1-0.5-0.3-1-0.4-1.5
				c-0.1-0.3-0.2-0.6-0.3-1c-0.1-0.3-0.2-0.6-0.3-1c-0.3-0.9-0.7-1.9-1.1-2.8c-0.1-0.3-0.3-0.6-0.4-0.9c-0.3-0.6-0.5-1.2-0.8-1.8
				s-0.6-1.2-0.9-1.7c-0.2-0.3-0.3-0.6-0.5-0.9c-0.2-0.4-0.5-0.8-0.8-1.2s-0.5-0.8-0.8-1.2c-0.2-0.3-0.4-0.7-0.7-1
				c-0.3-0.4-0.6-0.9-1-1.3c0,0,0,0-0.1-0.1c-0.2-0.3-0.4-0.5-0.6-0.8c-0.3-0.4-0.6-0.7-1-1.1c-0.3-0.4-0.6-0.7-1-1.1
				c-0.2-0.2-0.5-0.5-0.7-0.7s-0.5-0.5-0.7-0.7c0,0,0,0-0.1-0.1c-0.4-0.3-0.8-0.7-1.1-1c-0.4-0.3-0.7-0.6-1.1-1l-0.1-0.1
				c-0.2-0.2-0.4-0.3-0.7-0.5c-0.6-0.5-1.2-1-1.9-1.4c-0.3-0.2-0.6-0.5-1-0.7c-0.3-0.2-0.6-0.4-1-0.6c-0.3-0.2-0.6-0.3-0.8-0.5
				c-0.6-0.3-1.1-0.7-1.7-1l0,0c-0.6-0.3-1.1-0.6-1.7-0.9c-0.3-0.1-0.5-0.3-0.8-0.4c-0.5-0.2-1.1-0.5-1.6-0.7
				c-0.3-0.1-0.6-0.2-0.8-0.3c-0.5-0.2-1-0.4-1.5-0.5c-0.6-0.2-1.2-0.4-1.8-0.6c-0.5-0.1-0.9-0.3-1.4-0.4c-0.1,0-0.3-0.1-0.4-0.1
				c-0.5-0.1-0.9-0.2-1.4-0.3h-0.1h-0.1c-0.2,0-0.4-0.1-0.6-0.1h-0.1c-0.3-0.1-0.7-0.1-1.1-0.2c-0.1,0-0.2,0-0.2,0l0,0
				c-0.2,0-0.4-0.1-0.6-0.1h-0.1h-0.1c-0.3,0-0.5-0.1-0.8-0.1h-0.1c-0.1,0-0.3,0-0.4,0s-0.3,0-0.5-0.1c-0.3,0-0.7-0.1-1-0.1l0,0l0,0
				l0,0c-0.3,0-0.6,0-1-0.1c0.2,0,0.4,0,0.6,0c22.4-1.6,40-20.3,40-43.1c0-23.9-19.3-43.2-43.2-43.2c-11,0-21,4.1-28.6,10.8
				c-0.1,0.1-0.2,0.2-0.3,0.3c7-7.7,11.2-17.9,11.2-29c0-23.8-19.3-43.2-43.2-43.2S-404,561-404,584.9c0-0.4,0-0.7,0-1.1
				c-0.6-23.3-19.7-42.1-43.2-42.1c-23.9,0-43.2,19.3-43.2,43.2c0,11.2,4.2,21.4,11.2,29c-0.1-0.1-0.3-0.3-0.4-0.4
				c-7.6-6.7-17.6-10.7-28.4-10.7c-23.9,0-43.2,19.3-43.2,43.2c0,22.8,17.6,41.5,40,43.1c0.3,0,0.5,0,0.8,0
				C-532,690-550,708.9-550,731.9c0,23.8,19.3,43.2,43.2,43.2c10.6,0,20.3-3.8,27.8-10.1c0.3-0.2,0.5-0.4,0.8-0.7
				c0.6-0.5,1.1-1,1.6-1.5c-7.8,7.8-12.6,18.6-12.6,30.4c0,23.8,19.3,43.2,43.2,43.2c23.4,0,42.5-18.6,43.2-41.8"/>
			<path class="st3" d="M-474.7,760.8c-0.5,0.6-1.1,1.2-1.6,1.7c-0.1,0.1-0.2,0.2-0.3,0.3c-0.5,0.5-1.1,1-1.6,1.5
				c0.5-0.6,1.1-1.2,1.6-1.7C-476,762-475.3,761.3-474.7,760.8z"/>
			<path class="st3" d="M-411.8,679.8c-2.3,2.3-3.7,5.5-3.7,9h-90c-0.4,0-0.9,0-1.3,0s-0.9,0-1.3,0h-1.8c-22.4-1.6-40-20.3-40-43.1
				c0-23.9,19.3-43.2,43.2-43.2c10.9,0,20.8,4,28.4,10.7l1.2,1.2c0.5,0.5,1,1,1.5,1.5l1.5,1.5L-411.8,679.8z"/>
			<path class="st3" d="M-505.5,688.8h1.8c-0.3,0-0.5,0-0.8,0c-0.8,0-1.6,0.1-2.4,0.1s-1.6,0-2.4-0.1c-0.3,0-0.5,0-0.8,0h1.8
				c0.5,0,0.9,0,1.3,0S-505.9,688.8-505.5,688.8z"/>
			<path class="st3" d="M-474.3,617.3l-1.5-1.5l-1.5-1.5l-1.2-1.2c0.2,0.1,0.3,0.3,0.4,0.4c1.1,1,2.1,2,3.1,3.1l0,0
				C-474.7,616.9-474.5,617.1-474.3,617.3z"/>
			<path class="st3" d="M-255.6,645.7c0,22.8-17.6,41.5-40,43.1h-1.6c-0.5,0-0.9,0-1.3,0s-0.8,0-1.2,0H-390c0-3.5-1.4-6.7-3.7-9
				l62.7-62.7l1-1c0.7-0.7,1.4-1.3,2-2l0.7-0.7c7.6-6.7,17.6-10.8,28.6-10.8C-274.9,602.5-255.6,621.8-255.6,645.7z"/>
			<path class="st3" d="M-327.6,613.6c0.1-0.1,0.2-0.2,0.3-0.3l-0.7,0.7c-0.6,0.7-1.3,1.4-2,2l-1,1c0.1-0.2,0.2-0.3,0.4-0.4
				C-329.8,615.6-328.7,614.5-327.6,613.6C-327.7,613.6-327.6,613.6-327.6,613.6z"/>
			<path class="st3" d="M-295.6,688.8c-0.2,0-0.4,0-0.6,0h-0.1c-0.8,0.1-1.6,0.1-2.4,0.1s-1.5,0-2.2-0.1h-0.1c-0.3,0-0.6,0-0.9-0.1
				h2.1c0.4,0,0.8,0,1.2,0c0.5,0,0.9,0,1.3,0L-295.6,688.8L-295.6,688.8z"/>
			<path class="st3" d="M-411.8,697.8l-62,62l-2.8,2.9l-2.4,2.4c-7.5,6.3-17.2,10.1-27.8,10.1c-23.9,0-43.2-19.3-43.2-43.2
				c0-23.1,18.1-41.9,40.8-43.1c0.8,0,1.6,0.1,2.4,0.1s1.6,0,2.4-0.1c0.3,0,0.5,0,0.8,0h88.1C-415.5,692.3-414.1,695.5-411.8,697.8z
				"/>
			<path class="st3" d="M-504.5,688.8c-0.8,0-1.6,0.1-2.4,0.1s-1.6,0-2.4-0.1c0.3,0,0.7,0,1,0c0.5,0,0.9,0,1.3,0s0.9,0,1.3,0
				C-505.2,688.8-504.8,688.8-504.5,688.8z"/>
			<path class="st3" d="M-473.8,759.7c-0.3,0.3-0.6,0.7-0.9,1c-0.5,0.6-1.1,1.2-1.6,1.7c-0.1,0.1-0.2,0.2-0.3,0.3
				c-0.5,0.5-1.1,1-1.6,1.5c-0.2,0.2-0.5,0.5-0.8,0.7l2.4-2.4L-473.8,759.7z"/>
			<path class="st3" d="M-255.4,729.9c0-0.7-0.1-1.4-0.2-2.1v-0.1c0-0.3-0.1-0.6-0.1-1c-0.1-0.9-0.2-1.8-0.4-2.7
				c-0.1-0.3-0.1-0.6-0.2-0.9c-0.2-1.1-0.5-2.2-0.8-3.2s-0.6-2.1-1-3.1c-0.2-0.6-0.5-1.2-0.7-1.8c-0.2-0.4-0.3-0.8-0.5-1.2
				s-0.3-0.8-0.5-1.2c-0.1-0.2-0.2-0.5-0.4-0.7c-0.1-0.3-0.3-0.5-0.4-0.8c-0.1-0.1-0.1-0.2-0.2-0.3c-0.2-0.4-0.5-0.9-0.7-1.3
				c-0.3-0.5-0.6-0.9-0.9-1.4s-0.6-0.9-0.9-1.3l0,0c-0.3-0.4-0.6-0.9-1-1.3c-0.3-0.4-0.7-0.8-1-1.2s-0.6-0.8-1-1.1
				c-0.1-0.1-0.1-0.2-0.2-0.2c-0.3-0.3-0.6-0.7-0.9-1c0,0,0-0.1-0.1-0.1c-0.4-0.4-0.7-0.7-1.1-1.1c-0.3-0.3-0.7-0.6-1-0.9
				c-0.5-0.4-0.9-0.8-1.4-1.2c-0.4-0.3-0.8-0.7-1.2-1c-0.5-0.4-1-0.8-1.5-1.1c-0.3-0.2-0.7-0.5-1-0.7s-0.6-0.4-0.9-0.6
				c-0.3-0.2-0.7-0.4-1-0.6c-0.6-0.4-1.2-0.7-1.8-1c-0.2-0.1-0.5-0.3-0.8-0.4c-0.4-0.2-0.8-0.4-1.3-0.6c-0.5-0.2-1-0.4-1.5-0.7
				c-0.4-0.2-0.8-0.3-1.2-0.5c-0.3-0.1-0.7-0.3-1-0.4c-0.1,0-0.3-0.1-0.4-0.1c-0.3-0.1-0.6-0.2-0.8-0.3c-0.2-0.1-0.5-0.2-0.7-0.2
				c-0.2-0.1-0.5-0.1-0.7-0.2c-0.3-0.1-0.6-0.2-0.9-0.2c-0.2-0.1-0.4-0.1-0.6-0.2c-0.3-0.1-0.6-0.2-1-0.2c-0.7-0.2-1.4-0.3-2.1-0.4
				c-0.3,0-0.6-0.1-0.9-0.1h-0.1h-0.1c-0.3,0-0.5-0.1-0.8-0.1h-0.1c-0.2,0-0.3,0-0.5,0s-0.3,0-0.5-0.1l0,0c-0.2,0-0.4,0-0.5,0
				s-0.3,0-0.4,0h-0.1c-0.3,0-0.6,0-1-0.1h-0.1c-0.8,0.1-1.6,0.1-2.4,0.1s-1.5,0-2.2-0.1h-0.1c-0.1,0-0.2,0-0.3,0c0.1,0,0.1,0,0.2,0
				c-0.3,0-0.5,0-0.8-0.1h-88.2c0,3.5-1.4,6.7-3.7,9l61.6,61.6l1.6,1.6c0.3,0.3,0.7,0.6,1,0.9l0.6,0.6c0.1,0.1,0.2,0.2,0.3,0.3
				c0,0,0.1,0.1,0.2,0.2c0.1,0.1,0.1,0.1,0.2,0.2c0.4,0.4,0.8,0.8,1.2,1.1c0.1,0.1,0.2,0.2,0.3,0.3c0.3,0.3,0.7,0.6,1.1,0.9
				c0,0,0,0,0.1,0.1c0.5,0.4,0.9,0.7,1.4,1c0.5,0.4,0.9,0.7,1.4,1c0.3,0.2,0.5,0.4,0.8,0.5c0.3,0.2,0.6,0.4,0.9,0.5
				c0.3,0.2,0.5,0.3,0.8,0.5l0,0c0.2,0.1,0.3,0.2,0.4,0.3c0.3,0.2,0.5,0.3,0.8,0.5c0.8,0.4,1.6,0.8,2.4,1.2c0.3,0.2,0.6,0.3,0.9,0.4
				c0.3,0.1,0.6,0.3,0.9,0.4c1.1,0.5,2.3,0.9,3.5,1.2c0.3,0.1,0.7,0.2,1,0.3c0.7,0.2,1.4,0.4,2.1,0.5c0.3,0.1,0.7,0.2,1,0.2
				c0.3,0.1,0.6,0.1,0.9,0.2c0.3,0,0.6,0.1,0.8,0.2c0.5,0.1,1,0.1,1.5,0.2c0.3,0,0.6,0.1,0.8,0.1c0.2,0,0.4,0,0.6,0.1
				c0.3,0,0.5,0,0.8,0.1c0.7,0,1.3,0.1,2,0.1c0.4,0,0.8,0,1.3,0c0.4,0,0.8,0,1.2,0c0.7,0,1.4-0.1,2.1-0.1c0.2,0,0.3,0,0.5,0
				c0.5,0,1-0.1,1.5-0.2c0.1,0,0.1,0,0.2,0c0.3,0,0.7-0.1,1-0.1c0.7-0.1,1.4-0.2,2.1-0.4c0.4-0.1,0.7-0.2,1.1-0.2
				c0.4-0.1,0.9-0.2,1.3-0.3c0.1,0,0.3-0.1,0.4-0.1c0.4-0.1,0.8-0.2,1.2-0.4c0.4-0.1,0.8-0.2,1.1-0.4c0.2-0.1,0.3-0.1,0.5-0.2
				c0.4-0.1,0.8-0.3,1.2-0.5c0.3-0.1,0.6-0.2,1-0.4c0.3-0.1,0.6-0.3,1-0.4c0.3-0.1,0.5-0.2,0.8-0.4s0.7-0.3,1.1-0.5
				c0.3-0.1,0.6-0.3,0.9-0.5c0.3-0.1,0.5-0.3,0.8-0.4c0.3-0.2,0.7-0.4,1-0.6c0.3-0.2,0.6-0.4,0.9-0.5c0.3-0.2,0.6-0.4,0.9-0.6
				c0.3-0.2,0.6-0.4,0.8-0.6c0.6-0.4,1.1-0.8,1.7-1.2c0.3-0.2,0.5-0.4,0.8-0.6c0.3-0.2,0.5-0.4,0.8-0.6c0.3-0.2,0.5-0.4,0.8-0.7
				c0.2-0.2,0.5-0.4,0.8-0.7c0.2-0.2,0.5-0.5,0.7-0.7c1-1,1.9-2,2.8-3l0,0c0.2-0.2,0.4-0.5,0.6-0.7c0.3-0.4,0.7-0.8,1-1.3
				c0.3-0.4,0.6-0.9,0.9-1.3c0.4-0.5,0.7-1,1.1-1.6c0.3-0.5,0.7-1.1,1-1.7c0.1-0.2,0.3-0.5,0.4-0.7c0.2-0.3,0.4-0.7,0.5-1
				c0.2-0.4,0.4-0.8,0.6-1.2c0.1-0.3,0.3-0.6,0.4-0.8s0.2-0.5,0.3-0.7c0-0.1,0.1-0.2,0.1-0.2c0.1-0.2,0.2-0.5,0.3-0.8l0,0
				c0-0.1,0.1-0.2,0.1-0.3s0.1-0.3,0.2-0.5c0.1-0.1,0.1-0.3,0.2-0.5c0.1-0.3,0.2-0.5,0.3-0.8c0.1-0.2,0.2-0.5,0.2-0.8
				c0.1-0.4,0.2-0.8,0.3-1.1c0-0.1,0-0.1,0-0.1c0.1-0.3,0.2-0.7,0.3-1v-0.1l0,0c0.2-0.6,0.3-1.2,0.4-1.8v-0.1c0-0.2,0.1-0.4,0.1-0.5
				c0-0.2,0.1-0.4,0.1-0.6c0-0.3,0.1-0.6,0.2-1l0,0c0-0.3,0.1-0.7,0.1-1l0,0c0-0.1,0-0.2,0-0.3s0-0.2,0-0.4c0-0.1,0-0.2,0-0.3
				s0-0.2,0-0.3c0-0.6,0.1-1.1,0.1-1.7c0,0,0-0.1,0-0.2c0-0.1,0-0.3,0-0.4c0-0.2,0-0.5,0-0.7c0-0.3,0-0.7,0-1
				C-255.3,731.3-255.3,730.6-255.4,729.9z M-306,689.4c0.2,0,0.5-0.1,0.8-0.1c0.3-0.1,0.7-0.1,1-0.1
				C-304.8,689.2-305.4,689.3-306,689.4z M-303.2,689c-0.2,0-0.5,0-0.7,0.1C-303.6,689.1-303.4,689-303.2,689c0.1,0,0.2,0,0.4,0
				C-302.9,689-303,689-303.2,689z M-302.1,688.9c0.1,0,0.3,0,0.5,0c0.1,0,0.2,0,0.2,0C-301.7,688.9-301.9,688.9-302.1,688.9z"/>
			<path class="st3" d="M-304.2,689.1c-0.6,0.1-1.2,0.2-1.8,0.3c0.2,0,0.5-0.1,0.8-0.1C-304.9,689.2-304.5,689.2-304.2,689.1z"/>
			<path class="st3" d="M-301.4,688.9c-0.2,0-0.5,0-0.7,0c0.1,0,0.3,0,0.5,0C-301.6,688.9-301.5,688.9-301.4,688.9z"/>
			<path class="st3" d="M-301.1,688.8c-0.1,0-0.2,0-0.3,0C-301.3,688.8-301.2,688.8-301.1,688.8L-301.1,688.8z"/>
			<path class="st3" d="M-296.4,688.8c-0.8,0.1-1.6,0.1-2.4,0.1s-1.5,0-2.2-0.1c0.4,0,0.7,0,1.1-0.1h0.1c0.4,0,0.8,0,1.2,0
				c0.5,0,0.9,0,1.3,0h0.1C-296.9,688.8-296.6,688.8-296.4,688.8z"/>
			<path class="st3" d="M-259.4,750.3c0.1-0.3,0.3-0.6,0.4-0.8c-6.7,15.2-21.9,25.9-39.6,25.9c-10.4,0-19.9-3.7-27.3-9.7
				c-0.2-0.2-0.4-0.3-0.6-0.5c-1.8-1.5-3.5-3.2-5-5c-0.2-0.2-0.4-0.5-0.6-0.8l1.6,1.6c0.3,0.3,0.7,0.6,1,0.9l0.6,0.6
				c0.1,0.1,0.2,0.2,0.3,0.3c0,0,0.1,0.1,0.2,0.2c0.1,0.1,0.1,0.1,0.2,0.2c0.4,0.4,0.8,0.8,1.2,1.1c0.1,0.1,0.2,0.2,0.3,0.3
				c0.3,0.3,0.7,0.6,1.1,0.9c0,0,0,0,0.1,0.1c0.5,0.4,0.9,0.7,1.4,1c0.5,0.4,0.9,0.7,1.4,1c0.3,0.2,0.5,0.4,0.8,0.5
				c0.3,0.2,0.6,0.4,0.9,0.5c0.3,0.2,0.5,0.3,0.8,0.5l0,0c0.2,0.1,0.3,0.2,0.4,0.3c0.3,0.2,0.5,0.3,0.8,0.5c0.8,0.4,1.6,0.8,2.4,1.2
				c0.3,0.2,0.6,0.3,0.9,0.4c0.3,0.1,0.6,0.3,0.9,0.4c1.1,0.5,2.3,0.9,3.5,1.2c0.3,0.1,0.7,0.2,1,0.3c0.7,0.2,1.4,0.4,2.1,0.5
				c0.3,0.1,0.7,0.2,1,0.2c0.3,0.1,0.6,0.1,0.9,0.2c0.3,0,0.6,0.1,0.8,0.2c0.5,0.1,1,0.1,1.5,0.2c0.3,0,0.6,0.1,0.8,0.1
				c0.2,0,0.4,0,0.6,0.1c0.3,0,0.5,0,0.8,0.1c0.7,0,1.3,0.1,2,0.1c0.4,0,0.8,0,1.3,0c0.4,0,0.8,0,1.2,0c0.7,0,1.4-0.1,2.1-0.1
				c0.2,0,0.3,0,0.5,0c0.5,0,1-0.1,1.5-0.2c0.1,0,0.1,0,0.2,0c0.3,0,0.7-0.1,1-0.1c0.7-0.1,1.4-0.2,2.1-0.4c0.4-0.1,0.7-0.2,1.1-0.2
				c0.4-0.1,0.9-0.2,1.3-0.3c0.1,0,0.3-0.1,0.4-0.1c0.4-0.1,0.8-0.2,1.2-0.4c0.4-0.1,0.8-0.2,1.1-0.4c0.2-0.1,0.3-0.1,0.5-0.2
				c0.4-0.1,0.8-0.3,1.2-0.5c0.3-0.1,0.6-0.2,1-0.4c0.3-0.1,0.6-0.3,1-0.4c0.3-0.1,0.5-0.2,0.8-0.4s0.7-0.3,1.1-0.5
				c0.3-0.1,0.6-0.3,0.9-0.5c0.3-0.1,0.5-0.3,0.8-0.4c0.3-0.2,0.7-0.4,1-0.6c0.3-0.2,0.6-0.4,0.9-0.5c0.3-0.2,0.6-0.4,0.9-0.6
				c0.3-0.2,0.6-0.4,0.8-0.6c0.6-0.4,1.1-0.8,1.7-1.2c0.3-0.2,0.5-0.4,0.8-0.6c0.3-0.2,0.5-0.4,0.8-0.6c0.3-0.2,0.5-0.4,0.8-0.7
				c0.2-0.2,0.5-0.4,0.8-0.7c0.2-0.2,0.5-0.5,0.7-0.7c1-1,1.9-2,2.8-3l0,0c0.2-0.2,0.4-0.5,0.6-0.7c0.3-0.4,0.7-0.8,1-1.3
				c0.3-0.4,0.6-0.9,0.9-1.3c0.4-0.5,0.7-1,1.1-1.6c0.3-0.5,0.7-1.1,1-1.7c0.1-0.2,0.3-0.5,0.4-0.7c0.2-0.3,0.4-0.7,0.5-1
				C-259.8,751.1-259.6,750.7-259.4,750.3z"/>
		</g>
	</g>
	<path class="st3" d="M-874,735.5V131c0,0,4-54.4-47,0.2s-93.4,98.4-93.4,98.4"/>
	<rect x="-977" y="2271.2" class="st6" width="270.9" height="270.9"/>
	<rect x="-1248.6" y="2271.2" class="st7" width="270.9" height="270.9"/>
	<rect x="-706.1" y="2271.2" class="st2" width="270.9" height="270.9"/>
	<rect x="-440.3" y="2268.6" class="st8" width="270.9" height="270.9"/>
	<rect x="-1275.8" y="353.3" class="st9" width="9" height="415.9"/>
	<line class="st9" x1="-1511.4" y1="428.6" x2="-1275.8" y2="358.7"/>
	<line class="st9" x1="-1012.4" y1="428.7" x2="-1266.9" y2="358.7"/>
	<line class="st9" x1="-1140" y1="433.8" x2="-1266.9" y2="358.7"/>
	<line class="st9" x1="-1402" y1="433.8" x2="-1275.8" y2="358.7"/>
	<line class="st9" x1="-1496.4" y1="424.1" x2="-1028.7" y2="424.1"/>
	<line class="st10" x1="-1275.9" y1="358.7" x2="-1266.9" y2="358.7"/>
	<g>
		<path class="st2" d="M-331.6-461.2c0,0,0,0.1,0,0.3l0,0c-1,11.2-26.6,298.5-35,361.1c-8.1,59.9-51.1,61.7-51.1,61.7
			s-101,8.7-132.8-4.4s-38.7-59.9-38.7-59.9l-39.3-358.5v-0.4"/>
		<path class="st3" d="M-606,55.2L-606,55.2C-606,55.3-606,55.3-606,55.2c0,6.2,55.9,11.1,124.9,11.1c19.6,0,38.2-0.4,54.7-1.1"/>
		<path class="st3" d="M-409.6,64.3c32.3-2,53.4-5.3,53.4-9v-0.1l0,0"/>
		<path class="st3" d="M-349.7-26.3v0.1c0,0.1,0,0.2,0,0.3l0,0c-1.8,5.9-59.9,10.7-131.3,10.7c-5.5,0-10.8,0-16.1-0.1"/>
		<path class="st3" d="M-534.7-16.2c-45-1.7-76.6-5.4-77.7-9.8l0,0c0-0.1,0-0.1,0-0.2v-0.1l0,0"/>
		<path class="st3" d="M-503.1-511.5c7.2,0.1,14.6,0.1,22,0.1c91.8,0,166.7-7.1,171.1-15.9c0.1-0.3,0.2-0.5,0.2-0.8
			c0-9.3-76.7-16.8-171.3-16.8c-53.5,0-101.2,2.4-132.6,6.1c-24.2,2.9-38.6,6.6-38.6,10.6c0,4.6,19.3,8.8,50.5,11.9
			c18.5,1.8,41.3,3.2,66.6,4"/>
		<ellipse class="st5" cx="-480.1" cy="-461.2" rx="148.5" ry="16.8"/>
		<circle class="st11" cx="-650.2" cy="-608.9" r="18.8"/>
		<line class="st3" x1="-641.9" y1="-592.3" x2="-451.8" y2="-231.2"/>
		<path class="st11" d="M-488.2-106.6l-36.9,21.3c-8.6,4.9-19.6,2-24.6-6.6l-20.3-35.2c-4.9-8.6-2-19.6,6.6-24.6l36.9-21.3
			c8.6-4.9,19.6-2,24.6,6.6l20.3,35.2C-476.7-122.6-479.6-111.6-488.2-106.6z"/>
		<path class="st11" d="M-482.6-186.9l-42.5,3.2c-9.9,0.7-18.6-6.7-19.3-16.6l-3-40.5c-0.7-9.9,6.7-18.6,16.6-19.3l42.5-3.2
			c9.9-0.7,18.6,6.7,19.3,16.6l3,40.5C-465.3-196.3-472.7-187.6-482.6-186.9z"/>
		<path class="st11" d="M-396.4-204.6l-42.5-3.5c-9.9-0.8-17.3-9.5-16.5-19.4l3.3-40.5c0.8-9.9,9.5-17.3,19.4-16.5l42.5,3.5
			c9.9,0.8,17.3,9.5,16.5,19.4l-3.3,40.5C-377.8-211.2-386.6-203.8-396.4-204.6z"/>
		<path class="st11" d="M-404.1-305.9l-20.4-1.7c-9.9-0.8-17.3-9.5-16.5-19.4l1.6-19c0.8-9.9,9.5-17.3,19.4-16.5l20.4,1.7
			c9.9,0.8,17.3,9.5,16.5,19.4l-1.6,19C-385.5-312.5-394.2-305.1-404.1-305.9z"/>
		<path class="st11" d="M-460.2-334.7l-19.8,5c-9.6,2.4-19.4-3.5-21.8-13.1l-4.6-18.5c-2.4-9.6,3.5-19.4,13.1-21.8l19.8-5
			c9.6-2.4,19.4,3.5,21.8,13.1l4.6,18.5C-444.7-346.9-450.6-337.1-460.2-334.7z"/>
		<path class="st11" d="M-558.8-378.6l-20.4-1.1c-9.9-0.5-17.5-9-17-18.9l1-19c0.5-9.9,9-17.5,18.9-17l20.4,1.1
			c9.9,0.5,17.5,9,17,18.9l-1,19C-540.4-385.7-548.9-378.1-558.8-378.6z"/>
		<path class="st11" d="M-479.8-264.6l-30.1,30.1c-7,7-18.5,7-25.5,0l-28.7-28.7c-7-7-7-18.5,0-25.5l30.1-30.1c7-7,18.5-7,25.5,0
			l28.7,28.7C-472.8-283.1-472.8-271.6-479.8-264.6z"/>
		<line class="st3" x1="-626.8" y1="-206.5" x2="-627.5" y2="-216.1"/>
		<polyline class="st3" points="-623.6,-166.3 -612.4,-26.3 -612.4,-26.3 -612.4,-26 -612.4,-26 -606,55.2 -606,55.2 		"/>
		<line class="st3" x1="-630.5" y1="-253.6" x2="-652.4" y2="-528.3"/>
		<polyline class="st3" points="-309.9,-528.4 -310,-527.3 -314.4,-471 		"/>
		<polyline class="st3" points="-356.2,55.4 -356.2,55.2 -356.2,55.2 -349.7,-25.9 -349.7,-25.9 -349.7,-26.3 -322.7,-367.1 		"/>
		<line class="st3" x1="-318" y1="-426.6" x2="-318.7" y2="-417.5"/>
		<g>
			
				<rect x="-584.1" y="-528.5" transform="matrix(0.2268 -0.9739 0.9739 0.2268 209.2779 -785.0476)" class="st12" width="388.7" height="8.4"/>
			<line class="st9" x1="-580.2" y1="-696" x2="-351" y2="-709.7"/>
			<line class="st9" x1="-126.1" y1="-590.2" x2="-342.8" y2="-707.8"/>
			<line class="st9" x1="-243.3" y1="-612.6" x2="-342.8" y2="-707.8"/>
			<line class="st9" x1="-481.8" y1="-668.1" x2="-351" y2="-709.7"/>
			<line class="st9" x1="-565.6" y1="-697" x2="-140" y2="-597.8"/>
			<line class="st10" x1="-351" y1="-709.7" x2="-342.8" y2="-707.8"/>
		</g>
	</g>
	<g>
		<path class="st2" d="M405,398.8c0,0-0.3,1.3-0.9,3.7c-7.1,28.3-54.2,211.1-96.2,232c-24.4,12.1-75.7,16.9-128.4,10.7
			c-17.9-2.1-32.1-8.8-43.2-16.8c-16.9-12.2-29.1-29.8-35.2-49.6L47.3,403.3l-1.4-4.6H405V398.8z"/>
		<path class="st13" d="M213,525.8l-47.5,11.9c-9.6,2.4-19.4-3.5-21.8-13.1l-11.3-45.4c-2.4-9.6,3.5-19.4,13.1-21.8l47.5-11.9
			c9.6-2.4,19.4,3.5,21.8,13.1l11.3,45.4C228.5,513.5,222.6,523.4,213,525.8z"/>
		<path class="st13" d="M96.2,265c-3.8,0.6-7.4,1.3-11,2"/>
		<path class="st13" d="M145.4,258.8c23.8-2.1,49.7-3.2,76.7-3.2c65.5,0,124.1,6.7,163.3,17.3c30.7,8.3,49.5,19,50.3,30.6
			c0,0.3,0,0.5,0,0.8c0,0.9-0.1,1.7-0.3,2.6l0,0c-3.8,16.5-43.4,30.8-101.4,38.9c-32.6,4.6-70.9,7.2-111.9,7.2
			c-113.9,0-206.9-20.3-213.3-46l0,0c-0.2-0.9-0.4-1.8-0.4-2.8c0-9.6,12.3-18.6,33.4-26.2"/>
		<ellipse class="st5" cx="225.4" cy="398.8" rx="179.6" ry="36.4"/>
		<path class="st13" d="M401.9,732.9L401.9,732.9c0.1,0.6,0.1,1.1,0.1,1.7c0,22.7-80.6,41.1-180,41.1S42,757.3,42,734.6
			c0,0,0,0,0-0.1"/>
		<line class="st13" x1="8.6" y1="304.4" x2="42.1" y2="734.8"/>
		<line class="st13" x1="407.8" y1="658" x2="401.7" y2="735.3"/>
		<polyline class="st13" points="435.7,303.5 435.4,306.9 435.4,307 417.5,534.3 410.8,619.7 410.8,619.7 		"/>
		<line class="st13" x1="145.8" y1="771.7" x2="141.3" y2="701"/>
		<path class="st13" d="M138.8,661.1l-2.1-32.5l-5.7-90c-17.5-18.5-34.9-25.3-50.2-26.1c-28.6-1.4-50.5,18.2-54.3,21.8
			c-0.4,0.4-0.6,0.6-0.6,0.6"/>
		<path class="st13" d="M417.6,534.4c0,0-61.5-49.8-108.2,6.8l-14.8,230.6"/>
		<path class="st13" d="M131,538.7c0,0,99-63.9,178.3,2.5"/>
		<g>
			<circle class="st13" cx="425.7" cy="216.5" r="39"/>
			<line class="st13" x1="473.3" y1="147.9" x2="300.5" y2="393.6"/>
		</g>
	</g>
	<path class="st2" d="M1669.4,1011.3c0,0-0.3,1.1-0.7,3c-5.8,23.1-15.1,236.9-44,262.1c-19.8,17.3-90,22.1-134.5,20.8
		c-14.7-0.4-45.3-8.6-55.6-12.9c-22-9.1-29.7-26.2-35.1-42.9c-2.7-8.1-5.4-21.8-6.1-30.3l-15.9-192.2c-0.2-2.6-0.7-5.1-1.5-7.6l0,0
		H1669.4z"/>
	<path class="st11" d="M1489.6,1133.6l-51.7,12.9c-9.6,2.4-19.4-3.5-21.8-13.1l-12.4-49.5c-2.4-9.6,3.5-19.4,13.1-21.8l51.7-12.9
		c9.6-2.4,19.4,3.5,21.8,13.1l12.4,49.5C1505.1,1121.4,1499.2,1131.2,1489.6,1133.6z"/>
	<path class="st11" d="M1513.9,1233.6l-51.4-14.1c-9.5-2.6-15.2-12.6-12.6-22.1l13.5-49.2c2.6-9.5,12.6-15.2,22.1-12.6l51.4,14.1
		c9.5,2.6,15.2,12.6,12.6,22.1L1536,1221C1533.4,1230.6,1523.4,1236.3,1513.9,1233.6z"/>
	<path class="st11" d="M1613.8,1180.1h-53.3c-9.9,0-18-8.1-18-18v-51c0-9.9,8.1-18,18-18h53.3c9.9,0,18,8.1,18,18v51
		C1631.8,1172,1623.7,1180.1,1613.8,1180.1z"/>
	<path class="st9" d="M1422.7,901c-2.9,0.5-5.8,0.9-8.5,1.4"/>
	<path class="st9" d="M1371.8,912.9c-16.8,6.1-26.6,13.4-26.6,21.1c0,0.8,0.1,1.5,0.3,2.2l0,0c5.2,20.9,81.2,37.6,174.3,37.6
		c33.5,0,64.9-2.2,91.5-5.9c11.4-1.6,21.9-3.5,31.3-5.6"/>
	<path class="st9" d="M1665,956.2c17-5.8,27.5-12.6,29.2-20c0.2-0.7,0.2-1.4,0.2-2.1c0-0.2,0-0.5,0-0.7c-0.7-9.5-16-18.2-41.1-25
		c-32-8.7-79.9-14.1-133.4-14.1c-21.5,0-42,0.9-61,2.5"/>
	<ellipse class="st5" cx="1522.6" cy="1011.3" rx="146.8" ry="29.7"/>
	<path class="st9" d="M1666.9,1284.3L1666.9,1284.3c0.1,0.5,0.1,0.9,0.1,1.4c0,18.5-65.9,33.6-147.1,33.6s-147.1-15-147.1-33.6
		c0,0,0,0,0-0.1"/>
	<line class="st9" x1="1345.4" y1="934.1" x2="1372.8" y2="1285.9"/>
	<line class="st9" x1="1673.4" y1="1201.3" x2="1672.8" y2="1208.8"/>
	<line class="st9" x1="1668.5" y1="1264.1" x2="1666.7" y2="1286.3"/>
	<polyline class="st9" points="1676.6,1160.6 1694.2,936.2 1694.5,933.4 	"/>
	<circle class="st3" cx="1686.3" cy="862.3" r="26.1"/>
	<line class="st3" x1="1725.2" y1="806.2" x2="1511.6" y2="1109.9"/>
	<path class="st2" d="M2922.5,1548.5c0,0-0.3,1.4-0.7,3.9c-5.8,30.1-15.1,308.6-44,341.4c-19.8,22.5-90,28.8-134.5,27.1
		c-14.7-0.6-45.3-11.2-55.6-16.8c-22-11.9-29.7-34.1-35.1-55.8c-2.7-10.6-5.4-28.4-6.1-39.5l-15.9-250.4c-0.2-3.4-0.7-6.7-1.5-9.9
		l0,0L2922.5,1548.5L2922.5,1548.5z"/>
	<path class="st11" d="M2738.1,1670.5l-51.7,12.9c-9.6,2.4-19.4-3.5-21.8-13.1l-12.4-49.5c-2.4-9.6,3.5-19.4,13.1-21.8l51.7-12.9
		c9.6-2.4,19.4,3.5,21.8,13.1l12.4,49.5C2753.6,1658.2,2747.7,1668.1,2738.1,1670.5z"/>
	<path class="st11" d="M2742.2,1868.8l-51.4-14.1c-9.5-2.6-15.2-12.6-12.6-22.1l13.5-49.2c2.6-9.5,12.6-15.2,22.1-12.6l51.4,14.1
		c9.5,2.6,15.2,12.6,12.6,22.1l-13.5,49.2C2761.7,1865.7,2751.8,1871.4,2742.2,1868.8z"/>
	<path class="st11" d="M2856.4,1806h-53.3c-9.9,0-18-8.1-18-18v-51c0-9.9,8.1-18,18-18h53.3c9.9,0,18,8.1,18,18v51
		C2874.4,1797.9,2866.3,1806,2856.4,1806z"/>
	<path class="st9" d="M2675.8,1404.9c-2.9,0.6-5.8,1.2-8.5,1.8"/>
	<path class="st9" d="M2624.9,1420.5c-16.8,8-26.6,17.4-26.6,27.5c0,1,0.1,1.9,0.3,2.9v0.1c5.2,27.3,81.2,48.9,174.3,48.9
		c33.6,0,64.9-2.8,91.5-7.7c11.4-2.1,21.9-4.5,31.3-7.3"/>
	<path class="st9" d="M2918.1,1476.9c17-7.5,27.5-16.5,29.2-26.1c0.2-0.9,0.2-1.8,0.2-2.8c0-0.3,0-0.6,0-0.9
		c-0.7-12.4-16.1-23.8-41.1-32.6c-32-11.3-79.9-18.4-133.4-18.4c-21.5,0-42,1.1-61,3.3"/>
	<ellipse class="st5" cx="2775.7" cy="1542.3" rx="146.8" ry="32.4"/>
	<path class="st9" d="M2920,1904.2L2920,1904.2c0.1,0.6,0.1,1.2,0.1,1.8c0,24.2-65.9,43.7-147.1,43.7c-81.2,0-147.1-19.6-147.1-43.7
		c0,0,0,0,0-0.1"/>
	<line class="st9" x1="2598.5" y1="1448" x2="2625.9" y2="1906.3"/>
	<line class="st9" x1="2931.4" y1="1693" x2="2930.5" y2="1702.4"/>
	<line class="st9" x1="2925.9" y1="1762.5" x2="2920.1" y2="1866.5"/>
	<line class="st9" x1="2947.6" y1="1448" x2="2931.4" y2="1677.1"/>
	<line class="st9" x1="2946.9" y1="1443.5" x2="2946.9" y2="1443.4"/>
	<path class="st5" d="M2369.7,242c0,3.3-3.7,6.4-10.4,9.3c-18.2,7.9-58.9,14-109.8,16.5c-1.4,0.1-2.9,0.1-4.4,0.2
		c-7.7,0.3-15.6,0.6-23.7,0.8c-7.1,0.2-14.3,0.2-21.7,0.2c-65.6,0-122.6-5.9-150.9-14.5c-7-2.1-12.2-4.4-15.4-6.8c0,0-0.1,0-0.1-0.1
		c-0.3-0.2-0.6-0.5-0.9-0.7c-1.2-1.1-2-2.1-2.4-3.2c-0.2-0.5-0.3-1-0.3-1.5c0-8.6,25.2-16.2,64.5-21.1c29-3.6,65.6-5.8,105.4-5.8
		c25.1,0,49,0.9,70.5,2.4c12.4,0.9,23.9,2,34.5,3.3C2344.3,225.7,2369.7,233.4,2369.7,242z"/>
	<path class="st3" d="M2296.9,804.2c1.2,0.7,1.9,1.5,1.9,2.3c0,6.4-44.2,11.6-98.7,11.6s-98.7-5.2-98.7-11.6c0-0.5,0.3-1.1,0.9-1.6
		c0,0,0,0,0.1,0l0.2-0.2"/>
	<line class="st3" x1="2291.5" y1="799.8" x2="2291.4" y2="799.8"/>
	<path class="st3" d="M2122.2,801.8c15.2,2.4,38.4,4.2,65.1,4.6"/>
	<polyline class="st9" points="2101.3,806.5 2102.2,804.9 2102.2,804.9 2102.3,804.8 2102.5,804.7 2103.1,804.2 2109.5,799 
		2112.8,796.3 2199.9,726 2207.5,732.1 	"/>
	<polyline class="st9" points="2249.9,766.3 2291.4,799.8 2291.5,799.8 2296.9,804.2 2298.2,805.3 2298.8,806.5 	"/>
	<line class="st9" x1="2225.4" y1="746.5" x2="2223.2" y2="744.7"/>
	<line class="st11" x1="2198.8" y1="398.9" x2="2198.8" y2="726"/>
	<g>
		<line class="st3" x1="2350.6" y1="56.3" x2="2195.6" y2="367.4"/>
		
			<ellipse transform="matrix(0.4459 -0.8951 0.8951 0.4459 969.3212 2161.3655)" class="st14" cx="2230.4" cy="297.8" rx="35.9" ry="26.5"/>
	</g>
	<ellipse class="st3" cx="2199.1" cy="193.9" rx="251.4" ry="29.6"/>
	<polyline class="st9" points="1947.7,193.9 1950,198 1950,198 1950.6,198.5 1995,234.3 	"/>
	<polyline class="st9" points="2046.7,276 2198.8,398.9 2237.9,367.4 	"/>
	<polyline class="st9" points="2301.6,315.9 2445.6,199.7 2445.7,199.7 2449.1,196.9 2450.5,193.9 	"/>
	<line class="st9" x1="2267.7" y1="343.3" x2="2263.2" y2="346.9"/>
	<line class="st9" x1="2018.9" y1="253.6" x2="2014.1" y2="249.7"/>
	<path class="st3" d="M1917.9,748.5L1917.9,748.5c-1.6,0-3.1,0-4.7,0c-63,0-114.1-6.5-114.1-14.4c0-3.8,11.6-7.3,30.5-9.8"/>
	<path class="st3" d="M1854.1,721.7c17.3-1.3,37.5-2.1,59.2-2.1c63,0,114.1,6.5,114.1,14.5c0,0.1,0,0.2,0,0.4c0,0.1,0,0.2-0.1,0.3
		c0,0,0,0,0,0.1s-0.1,0.2-0.1,0.3c-0.3,0.5-0.8,1-1.5,1.5c-0.2,0.1-0.3,0.2-0.5,0.4c-0.4,0.2-0.9,0.5-1.4,0.8
		c-0.2,0.1-0.4,0.2-0.6,0.3c-0.3,0.1-0.5,0.2-0.8,0.3s-0.6,0.2-0.9,0.3s-0.6,0.2-0.9,0.3c-0.2,0-0.3,0.1-0.4,0.1
		c-0.5,0.2-1.1,0.3-1.6,0.5c-0.7,0.2-1.5,0.4-2.3,0.6c-0.4,0.1-0.8,0.2-1.2,0.3c-0.4,0.1-0.8,0.2-1.2,0.3c-1.5,0.3-3,0.7-4.7,1
		c-0.7,0.1-1.4,0.3-2.1,0.4c-1,0.2-1.9,0.3-3,0.5c-0.8,0.1-1.7,0.3-2.6,0.4c-1.8,0.3-3.6,0.5-5.5,0.8c-0.4,0.1-0.9,0.1-1.4,0.2
		c-4.1,0.5-8.4,1-13,1.4c-0.7,0.1-1.4,0.1-2.1,0.2c-4.5,0.4-9.3,0.8-14.3,1.1c-1.6,0.1-3.2,0.2-4.8,0.3c-0.3,0-0.6,0-0.9,0.1
		c-1.1,0.1-2.3,0.1-3.4,0.2c-2.3,0.1-4.6,0.2-7,0.3"/>
	<path class="st3" d="M1958.6,1275.2c-1.3-0.1-2.7-0.2-4.1-0.2"/>
	<path class="st3" d="M1984.7,1277.2c26,2.7,42.7,6.7,42.7,11.3c0,8-51.1,14.4-114.1,14.4s-114.1-6.5-114.1-14.4
		c0-7.4,44.5-13.6,101.7-14.4"/>
	<path class="st3" d="M1937,1274.3c-3.6-0.1-7.2-0.2-10.9-0.2"/>
	<path class="st3" d="M1828.7,975.1c-1.2-1-2.5-2.1-3.6-3.2"/>
	<path class="st3" d="M1890,1003.7c-17.8-3.2-34.4-9.9-49-19.5l0,0"/>
	<path class="st3" d="M1815.5,962.4c-21.2-23.4-34.1-54.4-34.1-88.5c0-6.6,0.5-13,1.4-19.4l16.3-120.5c0,8,51.1,14.4,114.1,14.4
		c1.6,0,3.1,0,4.7,0l0,0"/>
	<path class="st3" d="M1937,1003.7L1937,1003.7c61.5-11.2,108.1-65,108.1-129.7c0-6.6-0.5-13-1.4-19.4l0,0l-16.3-120.5
		c0,0.1,0,0.2,0,0.4c0,0.1,0,0.2-0.1,0.3c0,0,0,0,0,0.1s-0.1,0.2-0.1,0.3c-0.3,0.5-0.8,1-1.5,1.5c-0.2,0.1-0.3,0.2-0.5,0.4
		c-0.4,0.2-0.9,0.5-1.4,0.8c-0.2,0.1-0.4,0.2-0.6,0.3c-0.3,0.1-0.5,0.2-0.8,0.3s-0.6,0.2-0.9,0.3s-0.6,0.2-0.9,0.3
		c-0.2,0-0.3,0.1-0.4,0.1c-0.5,0.2-1.1,0.3-1.6,0.5c-0.7,0.2-1.5,0.4-2.3,0.6c-0.4,0.1-0.8,0.2-1.2,0.3c-0.4,0.1-0.8,0.2-1.2,0.3
		c-1.5,0.3-3,0.7-4.7,1c-0.7,0.1-1.4,0.3-2.1,0.4c-1,0.2-1.9,0.3-3,0.5c-0.8,0.1-1.7,0.3-2.6,0.4c-1.8,0.3-3.6,0.5-5.5,0.8
		c-0.4,0.1-0.9,0.1-1.4,0.2c-4.1,0.5-8.4,1-13,1.4c-0.7,0.1-1.4,0.1-2.1,0.2c-4.5,0.4-9.3,0.8-14.3,1.1c-1.6,0.1-3.2,0.2-4.8,0.3
		c-0.3,0-0.6,0-0.9,0.1c-1.1,0.1-2.3,0.1-3.4,0.2c-2.3,0.1-4.6,0.2-7,0.3"/>
	<path class="st3" d="M1908.2,1068.5c0-1.9,0-3.8,0-5.7"/>
	<path class="st3" d="M1908.3,1092.8c-0.1,71.3-1.1,166.9-1.1,166.9s-0.1,6.1-6.3,14.4c-0.1,0.1-0.1,0.2-0.2,0.3"/>
	<path class="st3" d="M1890,1003.7c4.2,1.7,15.1,6.6,17.2,13.2c0.5,1.6,0.8,12.4,1,28.5"/>
	<path class="st11" d="M1926.3,1274.4c-6.9-8.5-6.8-14.7-6.8-14.7s-2.6-234.6,0-242.8c2.1-6.6,13.2-11.6,17.5-13.3l0,0"/>
	<path class="st2" d="M2021.5,771.6c0,0,9.6,54.4,14.7,95s-19.2,67.5-32.1,84.6c-12.8,17.1-38.5,35.5-62,41.9s-47.4,0-47.4,0
		s-50.4-14.1-81.6-50.9c-31.2-36.8-22.2-80.4-22.2-80.4l12.2-90.3h218.4V771.6z"/>
	<ellipse class="st5" cx="1912.3" cy="771.6" rx="109.2" ry="14.4"/>
	<path class="st9" d="M2648.4,478.4c-2.9-0.2-5.8-0.4-8.8-0.5"/>
	<path class="st9" d="M2613.6,477.2c-0.2,0-0.5,0-0.7,0c-13.4,0-26.2,0.5-38.1,1.4c-43.7,3.3-75,12.2-75,22.6c0,0.9,0.2,1.8,0.7,2.6
		c0.1,0.2,0.2,0.4,0.3,0.6c0,0,0,0,0,0.1c0.1,0.2,0.2,0.3,0.4,0.5c0.1,0.1,0.2,0.3,0.3,0.4l0,0c0.1,0.1,0.2,0.2,0.3,0.3
		c0.1,0.1,0.2,0.2,0.3,0.3c0.2,0.2,0.4,0.4,0.6,0.5c0.1,0.1,0.3,0.2,0.4,0.4c0.1,0.1,0.3,0.2,0.4,0.4c0.2,0.1,0.3,0.2,0.5,0.4
		c0.8,0.6,1.7,1.2,2.8,1.8c0.2,0.1,0.4,0.2,0.6,0.3c1,0.5,2,1.1,3.2,1.6c0.3,0.1,0.6,0.3,0.9,0.4c0.3,0.1,0.6,0.3,1,0.4
		c0.4,0.2,0.8,0.3,1.2,0.5c1.1,0.4,2.3,0.9,3.5,1.3c0.4,0.1,0.8,0.3,1.2,0.4c0.5,0.2,1,0.3,1.5,0.5s1,0.3,1.6,0.5
		c0.2,0.1,0.4,0.1,0.6,0.2c0.4,0.1,0.9,0.2,1.3,0.4c0.4,0.1,0.9,0.2,1.4,0.4c0.4,0.1,0.8,0.2,1.2,0.3c0.9,0.2,1.7,0.4,2.6,0.6
		c0.9,0.2,1.7,0.4,2.6,0.6h0.1c0.1,0,0.2,0,0.4,0.1c0.6,0.1,1.2,0.2,1.8,0.4l0,0c0.6,0.1,1.2,0.2,1.8,0.4c0.5,0.1,1,0.2,1.5,0.3
		s1,0.2,1.5,0.3s1.1,0.2,1.6,0.3c0.4,0.1,0.7,0.1,1.1,0.2c0.6,0.1,1.3,0.2,2,0.3c4,0.7,8.2,1.3,12.6,1.8c0.7,0.1,1.5,0.2,2.2,0.3
		c0.8,0.1,1.5,0.2,2.2,0.3c0.8,0.1,1.5,0.2,2.3,0.2c0.8,0.1,1.5,0.2,2.3,0.2c0.8,0.1,1.6,0.2,2.3,0.2s1.6,0.2,2.4,0.2
		c1.5,0.1,3,0.3,4.5,0.4c2.6,0.2,5.1,0.4,7.8,0.5c0.2,0,0.5,0,0.7,0c1.2,0.1,2.3,0.1,3.5,0.2c1,0,2,0.1,3,0.2c0.1,0,0.2,0,0.3,0
		c1.7,0.1,3.4,0.1,5.2,0.2c0.5,0,1.1,0,1.7,0.1c2.6,0.1,5.3,0.2,8,0.2c1,0,1.9,0,2.9,0c2.1,0,4.1,0,6.2,0c58,0,105.9-9.3,112.4-21.2
		c0.5-0.9,0.8-1.8,0.8-2.8c0-8.7-21.9-16.3-54.6-20.5l0,0"/>
	<path class="st9" d="M2692.3,1049.3c-2.7,1.6-5.4,3.1-8.2,4.6"/>
	<path class="st9" d="M2504.2,727.7c-5.3,36.2-15.2,79-32.8,128.2c-8.1,18.8-12.7,39.5-12.7,61.3c0,80.4,61.5,146.4,140.1,153.5"/>
	<path class="st9" d="M2508.9,685.1c3.5-49.9-1.4-81.8-0.3-94.6c1.9-21.3-6.3-74.4-8.2-86.8c0.1,0.2,0.2,0.4,0.3,0.6c0,0,0,0,0,0.1
		c0.1,0.2,0.2,0.3,0.4,0.5c0.1,0.1,0.2,0.3,0.3,0.4l0,0c0.1,0.1,0.2,0.2,0.3,0.3c0.1,0.1,0.2,0.2,0.3,0.3c0.2,0.2,0.4,0.4,0.6,0.5
		c0.1,0.1,0.3,0.2,0.4,0.4c0.1,0.1,0.3,0.2,0.4,0.4c0.2,0.1,0.3,0.2,0.5,0.4c0.8,0.6,1.7,1.2,2.8,1.8c0.2,0.1,0.4,0.2,0.6,0.3
		c1,0.5,2,1.1,3.2,1.6c0.6,0.3,1.2,0.5,1.9,0.8c0.4,0.2,0.8,0.3,1.2,0.5c1.1,0.4,2.3,0.9,3.5,1.3c0.4,0.1,0.8,0.3,1.2,0.4
		c0.5,0.2,1,0.3,1.5,0.5s1.1,0.3,1.6,0.5c0.2,0.1,0.4,0.1,0.6,0.2c0.4,0.1,0.9,0.2,1.3,0.4c0.4,0.1,0.9,0.2,1.4,0.4
		c0.4,0.1,0.8,0.2,1.2,0.3c1.7,0.4,3.5,0.9,5.3,1.3c0.7,0.2,1.4,0.3,2.2,0.5c0.6,0.1,1.2,0.2,1.8,0.4c0.5,0.1,1,0.2,1.5,0.3
		s1,0.2,1.5,0.3s1.1,0.2,1.6,0.3c0.4,0.1,0.7,0.1,1.1,0.2c0.6,0.1,1.3,0.2,2,0.3c4,0.7,8.2,1.3,12.6,1.8c0.7,0.1,1.5,0.2,2.2,0.3
		c0.8,0.1,1.5,0.2,2.2,0.3c0.8,0.1,1.5,0.2,2.3,0.2c0.8,0.1,1.5,0.2,2.3,0.2c0.8,0.1,1.6,0.2,2.3,0.2s1.6,0.2,2.4,0.2
		c1.5,0.1,3,0.3,4.5,0.4c2.6,0.2,5.1,0.4,7.8,0.5c0.2,0,0.5,0,0.7,0c1.2,0.1,2.3,0.1,3.5,0.2c1,0,2,0.1,3,0.2c0.1,0,0.2,0,0.3,0
		c1.7,0.1,3.4,0.1,5.2,0.2c0.5,0,1.1,0,1.7,0.1c2.6,0.1,5.3,0.2,8,0.2c1,0,1.9,0,2.9,0c2.1,0,4.1,0,6.2,0c58,0,105.9-9.3,112.4-21.2
		c-2,12.7-10.1,65.4-8.2,86.6c2.1,23.9-16.8,114.3,36.8,264.5c8.4,19,13,40,13,62.1c0,43.5-18.1,82.9-47.1,110.9"/>
	<path class="st9" d="M2660,1064c-10.6,3.4-21.6,5.7-33.1,6.7"/>
	<path class="st11" d="M-660,1722.1c-0.7,2-1.4,3.9-2.1,5.9"/>
	<path class="st9" d="M2500.3,503.8c-0.3-1.7-0.4-2.6-0.4-2.6"/>
	<path class="st11" d="M2755.8,860.4c-0.6-1.8-1.3-3.6-1.9-5.3"/>
	<path class="st9" d="M2725.7,501.2c0,0-0.2,1-0.4,2.8"/>
	<line class="st9" x1="2711.9" y1="1171.8" x2="2711.8" y2="1171.8"/>
	<line class="st9" x1="2513.9" y1="1171.8" x2="2513.8" y2="1171.8"/>
	<path class="st9" d="M2644.8,1151.4c38.3,2.9,66,10.9,67,20.4h-198c1-9.5,28.7-17.5,66.9-20.4"/>
	<g>
		<path class="st11" d="M2598.8,1070.7c2.8,27.1,3,70.8-18.8,81.1"/>
		<path class="st11" d="M2645.4,1151.7c-21.7-10.3-21.3-53.9-18.5-81"/>
	</g>
	<g>
		<g>
			<path class="st2" d="M2518.8,572L2518.8,572c-0.1-0.5-0.2-1-0.3-1.5L2518.8,572z"/>
			<path class="st2" d="M2748.8,894.3c0,67.8-51.1,131.6-116.9,139.1c-4.1,1.5-10,2.1-16.4,1.9c-0.8,0-1.6,0.1-2.4,0.1
				c-5.7,0-11.1-0.8-15.9-2.3c-64.3-8.5-112.4-53.7-112.4-120.4c0-18.7,3.9-54.7,10.9-70.8c46.2-129.1,29-197,28.6-217.7
				c-0.2-7.5-0.8-15.7-1.6-23.6c-1.2-11.3-2.8-21.8-3.9-28.5l0,0l4.2-1.9h185.8c-0.1,0.6-0.2,1.3-0.4,2.1l0,0
				c-2.1,12-7.8,37.1-6.3,54.2c1.8,20.5-10.4,86,35.5,214.7C2744.8,857.3,2748.8,875.3,2748.8,894.3z"/>
			<path class="st2" d="M2522.6,600.5l-3.9-28.5C2519.8,578.7,2521.4,589.2,2522.6,600.5z"/>
		</g>
	</g>
	<path class="st5" d="M2708.8,570.1c0,0.9-0.2,1.9-0.6,2.8c-5.5,12-45.7,21.2-94.5,21.2c-49.1,0-89.5-9.4-94.6-21.4
		c-0.4-0.9-0.6-1.7-0.6-2.6c0-13.3,42.6-24,95.2-24C2666.2,546,2708.8,556.8,2708.8,570.1z"/>
	<path class="st11" d="M2594.9,897.3l-45.4,11.3c-9.6,2.4-19.4-3.5-21.8-13.1l-10.8-43.4c-2.4-9.6,3.5-19.4,13.1-21.8l45.4-11.3
		c9.6-2.4,19.4,3.5,21.8,13.1l10.8,43.4C2610.4,885.1,2604.5,894.9,2594.9,897.3z"/>
	<path class="st11" d="M2617.4,989.4l-45.1-12.4c-9.5-2.6-15.2-12.6-12.6-22.1l11.9-43.1c2.6-9.5,12.6-15.2,22.1-12.6l45.1,12.4
		c9.5,2.6,15.2,12.6,12.6,22.1l-11.9,43.1C2636.9,986.4,2626.9,992.1,2617.4,989.4z"/>
	<path class="st11" d="M2710.1,940.1h-46.8c-9.9,0-18-8.1-18-18v-44.7c0-9.9,8.1-18,18-18h46.8c9.9,0,18,8.1,18,18v44.7
		C2728.1,932,2720,940.1,2710.1,940.1z"/>
	
		<ellipse transform="matrix(2.499638e-02 -0.9997 0.9997 2.499638e-02 1785.1948 3363.9873)" class="st5" cx="2617.2" cy="766.8" rx="64" ry="62.3"/>
	<g>
		<path class="st15" d="M2598.1,796.3c-0.1,0.1-0.2,0.3-0.3,0.4c-0.2,0.2-0.4,0.4-0.6,0.6l-0.1,0.1c-0.2,0.2-0.4,0.4-0.6,0.6
			c-0.1,0.1-0.2,0.2-0.3,0.3l0.9-0.9L2598.1,796.3z"/>
		<path class="st15" d="M2586.3,769.7h0.7c-0.1,0-0.2,0-0.3,0c-0.3,0-0.6,0-0.9,0s-0.6,0-0.9,0c-0.1,0-0.2,0-0.3,0h0.7
			c0.2,0,0.3,0,0.5,0C2585.9,769.7,2586.1,769.7,2586.3,769.7z"/>
		<path class="st15" d="M2597.7,742.8c0.1,0.1,0.1,0.1,0.2,0.2l-0.5-0.5l-0.5-0.5l-0.4-0.4c0.1,0,0.1,0.1,0.2,0.1
			C2597,742,2597.4,742.4,2597.7,742.8L2597.7,742.8z"/>
		<path class="st15" d="M2624.7,730.8c0,0.1,0,0.3,0,0.4v-0.8C2624.7,730.5,2624.7,730.6,2624.7,730.8z"/>
		<path class="st15" d="M2629.4,769.7c0,1.3-0.5,2.5-1.4,3.4s-2,1.4-3.4,1.4s-2.5-0.5-3.4-1.4s-1.4-2-1.4-3.4c0-1.3,0.5-2.5,1.4-3.4
			s2-1.4,3.4-1.4s2.5,0.5,3.4,1.4S2629.4,768.4,2629.4,769.7z"/>
		<path class="st15" d="M2624.7,809.3v-1c0,0.1,0,0.2,0,0.2v0.1v0.2v0.1c0,0,0,0,0,0.1c0.1,8.8,7.3,16,16.2,16s16.2-7.3,16.2-16.2
			c0-4-1.5-7.7-3.9-10.5c-0.7-0.6-1.3-1.2-1.9-1.9c-0.1-0.1-0.2-0.2-0.2-0.3l0.6,0.6l1.3,1.3l0.5,0.5"/>
		<path class="st15" d="M2624.7,831.2c17,0,32.4-6.9,43.5-18"/>
		<path class="st15" d="M2651.8,742.6l-0.4,0.4c0-0.1,0.1-0.1,0.1-0.2c0.4-0.4,0.8-0.8,1.2-1.2l0,0l0.1-0.1l-0.3,0.3
			C2652.4,742,2652.1,742.3,2651.8,742.6z"/>
		<path class="st15" d="M2662.1,769.8h-0.1l0,0C2662,769.8,2662,769.8,2662.1,769.8z"/>
		<path class="st15" d="M2662.6,769.8c-0.1,0-0.2,0-0.3,0C2662.4,769.8,2662.4,769.8,2662.6,769.8
			C2662.5,769.8,2662.5,769.8,2662.6,769.8z"/>
		<path class="st15" d="M2664.7,769.7c-0.1,0-0.2,0-0.2,0l0,0c-0.3,0-0.6,0-0.9,0c-0.3,0-0.6,0-0.8,0l0,0c-0.1,0-0.2,0-0.3,0h0.8
			c0.1,0,0.3,0,0.5,0s0.3,0,0.5,0H2664.7z"/>
		<path class="st15" d="M2664.9,769.8L2664.9,769.8c-0.1,0-0.3,0-0.4,0C2664.6,769.7,2664.7,769.8,2664.9,769.8L2664.9,769.8z"/>
		<path class="st15" d="M2665.4,769.8c-0.1,0-0.1,0-0.2,0l0,0c-0.1,0-0.1,0-0.2,0c0.1,0,0.1,0,0.2,0
			C2665.3,769.8,2665.4,769.8,2665.4,769.8z"/>
		<path class="st15" d="M2678.8,780.3c0-0.1,0-0.1-0.1-0.2c-0.1-0.2-0.2-0.4-0.2-0.6c-0.1-0.2-0.1-0.3-0.2-0.5
			c-0.1-0.1-0.1-0.3-0.2-0.4c0-0.1-0.1-0.2-0.1-0.3s-0.1-0.2-0.2-0.3c0,0,0-0.1-0.1-0.1c-0.1-0.2-0.2-0.3-0.3-0.5s-0.2-0.3-0.3-0.5
			s-0.2-0.3-0.3-0.5l0,0c-0.1-0.2-0.2-0.3-0.4-0.5s-0.2-0.3-0.4-0.5c-0.1-0.1-0.2-0.3-0.4-0.4c0,0,0-0.1-0.1-0.1
			c-0.1-0.1-0.2-0.3-0.3-0.4l0,0c-0.1-0.1-0.3-0.3-0.4-0.4c-0.1-0.1-0.2-0.2-0.4-0.4s-0.3-0.3-0.5-0.5c-0.2-0.1-0.3-0.3-0.5-0.4
			c-0.2-0.1-0.4-0.3-0.6-0.4c-0.1-0.1-0.2-0.2-0.4-0.3c-0.1-0.1-0.2-0.1-0.3-0.2c-0.1-0.1-0.3-0.2-0.4-0.2c-0.2-0.1-0.4-0.3-0.7-0.4
			c-0.1-0.1-0.2-0.1-0.3-0.1c-0.2-0.1-0.3-0.2-0.5-0.2c-0.2-0.1-0.4-0.2-0.6-0.2c-0.1-0.1-0.3-0.1-0.5-0.2c-0.1-0.1-0.3-0.1-0.4-0.1
			c0,0-0.1,0-0.1-0.1c-0.1,0-0.2-0.1-0.3-0.1s-0.2-0.1-0.3-0.1s-0.2-0.1-0.3-0.1s-0.2-0.1-0.3-0.1s-0.1,0-0.2-0.1
			c-0.1,0-0.2-0.1-0.4-0.1c-0.3-0.1-0.5-0.1-0.8-0.2c-0.1,0-0.2,0-0.3,0c0.1,0,0.1,0,0.2,0l0,0c0.2,0,0.4,0.1,0.5,0.1s0.1,0,0.2,0
			l0,0l0,0c0.2,0,0.3,0.1,0.5,0.1c0.1,0,0.1,0,0.1,0c0.2,0,0.3,0.1,0.5,0.1c0.2,0.1,0.4,0.1,0.7,0.2c0.2,0.1,0.4,0.1,0.5,0.2
			c0.1,0,0.2,0.1,0.3,0.1c0.2,0.1,0.4,0.2,0.6,0.3c0.1,0,0.2,0.1,0.3,0.1c0.2,0.1,0.4,0.2,0.7,0.3l0,0c0.2,0.1,0.4,0.2,0.6,0.4
			c0.1,0.1,0.2,0.1,0.3,0.2c0.1,0.1,0.2,0.2,0.4,0.2c0.1,0.1,0.2,0.2,0.4,0.3c0.2,0.2,0.5,0.3,0.7,0.5c0.1,0.1,0.2,0.1,0.2,0.2l0,0
			c0.1,0.1,0.3,0.2,0.4,0.4c0.1,0.1,0.3,0.3,0.4,0.4l0,0c0.1,0.1,0.2,0.2,0.3,0.3s0.2,0.2,0.3,0.3s0.2,0.3,0.4,0.4
			c0.1,0.1,0.2,0.3,0.4,0.4c0.1,0.1,0.2,0.2,0.2,0.3l0,0c0.1,0.2,0.3,0.3,0.4,0.5c0.1,0.1,0.2,0.2,0.3,0.4s0.2,0.3,0.3,0.5
			s0.2,0.3,0.3,0.5c0.1,0.1,0.1,0.2,0.2,0.3c0.1,0.2,0.2,0.4,0.3,0.7c0.1,0.2,0.2,0.4,0.3,0.7c0.1,0.1,0.1,0.2,0.1,0.3
			c0.1,0.3,0.3,0.7,0.4,1c0,0.1,0.1,0.2,0.1,0.4s0.1,0.2,0.1,0.4c0.1,0.2,0.1,0.4,0.1,0.6l0,0c0,0.2,0.1,0.3,0.1,0.5
			c0,0.1,0,0.1,0,0.2c-0.1-0.4-0.2-0.8-0.3-1.2C2679.1,781.1,2679,780.7,2678.8,780.3z"/>
		<path class="st15" d="M2629.4,769.7c0,1.3-0.5,2.5-1.4,3.4s-2,1.4-3.4,1.4s-2.5-0.5-3.4-1.4s-1.4-2-1.4-3.4c0-1.3,0.5-2.5,1.4-3.4
			s2-1.4,3.4-1.4s2.5,0.5,3.4,1.4S2629.4,768.4,2629.4,769.7z"/>
		<line class="st15" x1="2664.2" y1="769.7" x2="2663.2" y2="769.7"/>
		<line class="st15" x1="2586.3" y1="769.7" x2="2585.3" y2="769.7"/>
		<line class="st15" x1="2597.4" y1="742.4" x2="2596.8" y2="741.9"/>
		<line class="st15" x1="2652.6" y1="741.8" x2="2651.8" y2="742.6"/>
		<path class="st15" d="M2624.7,730.3V765c-1.3,0-2.5,0.5-3.4,1.4l-23.4-23.4c-0.1-0.1-0.1-0.1-0.2-0.2l0,0
			c-0.4-0.4-0.8-0.8-1.2-1.2c-2.6-2.9-4.2-6.7-4.2-10.9c0-8.9,7.2-16.1,16.1-16.1C2617.3,714.6,2624.4,721.6,2624.7,730.3z"/>
		<path class="st15" d="M2597.7,742.8c-0.1-0.1-0.2-0.2-0.3-0.3l-0.5-0.5c-0.1-0.1-0.2-0.2-0.3-0.3
			C2597,742,2597.4,742.4,2597.7,742.8z"/>
		<path class="st15" d="M2624.7,730.8c0,0.1,0,0.3,0,0.4v-0.8C2624.7,730.5,2624.7,730.6,2624.7,730.8z"/>
		<path class="st15" d="M2657,730.8c0,4.2-1.6,8-4.2,10.9l0,0c-0.4,0.4-0.8,0.7-1.2,1.2c0,0.1-0.1,0.1-0.1,0.2l-23.4,23.4
			c-0.9-0.9-2-1.4-3.4-1.4v-33.8c0-0.1,0-0.3,0-0.4c0-8.9,7.2-16.1,16.1-16.1S2657,721.8,2657,730.8z"/>
		<path class="st15" d="M2652.8,741.6c-0.1,0.1-0.1,0.1-0.2,0.2c-0.2,0.3-0.5,0.5-0.8,0.8c-0.1,0.1-0.2,0.1-0.2,0.2
			C2652,742.4,2652.4,742,2652.8,741.6z"/>
		<path class="st15" d="M2657.1,808.8c0,8.9-7.3,16.2-16.2,16.2s-16.1-7.1-16.2-16c0,0,0,0,0-0.1v-0.1v-0.3c0-0.1,0-0.2,0-0.2v-33.8
			c1.3,0,2.5-0.5,3.4-1.4l23,23c0.1,0.1,0.2,0.2,0.2,0.3c0.6,0.7,1.2,1.3,1.9,1.9C2655.6,801.1,2657.1,804.8,2657.1,808.8z"/>
		<path class="st15" d="M2624.7,808.8c0-0.1,0-0.1,0-0.2V808.8L2624.7,808.8L2624.7,808.8z"/>
		<path class="st15" d="M2653.2,798.3c-0.7-0.6-1.3-1.2-1.9-1.9c0.1,0.1,0.2,0.2,0.4,0.3c0.1,0.1,0.3,0.2,0.4,0.3l0.2,0.2l0.1,0.1
			c0,0,0,0,0.1,0.1c0,0,0,0,0.1,0.1s0.3,0.3,0.4,0.4C2653,798.1,2653.1,798.2,2653.2,798.3z"/>
		<path class="st15" d="M2624.7,808.5v0.3v0.1c0,0,0,0,0,0.1s0,0.2,0,0.3v-1C2624.7,808.4,2624.7,808.4,2624.7,808.5z"/>
		<path class="st15" d="M2624.7,774.5v34.8c-0.3,8.7-7.4,15.6-16.1,15.6c-8.9,0-16.1-7.2-16.1-16.1c0-4.4,1.8-8.5,4.7-11.4l0.1-0.1
			c0.2-0.2,0.4-0.4,0.6-0.6c0.1-0.1,0.2-0.3,0.3-0.4l23.2-23.2C2622.2,773.9,2623.3,774.5,2624.7,774.5z"/>
		<path class="st15" d="M2662.6,769.8c-0.1,0-0.2,0-0.3,0C2662.4,769.8,2662.4,769.8,2662.6,769.8
			C2662.5,769.8,2662.5,769.8,2662.6,769.8z"/>
		<path class="st15" d="M2624.7,831.2c-34,0-61.5-27.5-61.5-61.5s27.5-61.5,61.5-61.5s61.5,27.5,61.5,61.5c0,17-6.9,32.3-18,43.5"/>
		<path class="st15" d="M2653.4,798.5l-0.5-0.5l-1.3-1.3c0.1,0.1,0.3,0.2,0.4,0.3l0.2,0.2l0.1,0.1c0,0,0,0,0.1,0.1c0,0,0,0,0.1,0.1
			s0.3,0.3,0.5,0.4l0.1,0.1c0.1,0.1,0.3,0.2,0.4,0.3l0,0c0.2,0.1,0.3,0.3,0.5,0.4c0.2,0.1,0.4,0.3,0.5,0.4c0.1,0.1,0.2,0.1,0.3,0.2
			c0.1,0.1,0.2,0.1,0.3,0.2c0.1,0.1,0.2,0.1,0.3,0.2l0,0c0.1,0,0.1,0.1,0.2,0.1c0.1,0.1,0.2,0.1,0.3,0.2c0.3,0.2,0.6,0.3,0.9,0.4
			c0.1,0.1,0.2,0.1,0.3,0.2c0.1,0.1,0.2,0.1,0.4,0.1c0.4,0.2,0.9,0.3,1.3,0.5c0.1,0,0.3,0.1,0.4,0.1c0.3,0.1,0.5,0.1,0.8,0.2
			c0.1,0,0.3,0.1,0.4,0.1c0.1,0,0.2,0,0.3,0.1c0.1,0,0.2,0,0.3,0.1c0.2,0,0.4,0.1,0.6,0.1c0.1,0,0.2,0,0.3,0s0.2,0,0.2,0
			c0.1,0,0.2,0,0.3,0c0.2,0,0.5,0,0.7,0s0.3,0,0.5,0c0.1,0,0.3,0,0.4,0c0.3,0,0.5,0,0.8,0c0.1,0,0.1,0,0.2,0c0.2,0,0.4,0,0.6-0.1
			h0.1c0.1,0,0.3,0,0.4-0.1c0.3,0,0.5-0.1,0.8-0.1c0.1,0,0.3-0.1,0.4-0.1c0.2,0,0.3-0.1,0.5-0.1c0.1,0,0.1,0,0.2,0
			c0.2,0,0.3-0.1,0.5-0.1c0.1,0,0.3-0.1,0.4-0.1c0.1,0,0.1,0,0.2-0.1c0.2-0.1,0.3-0.1,0.5-0.2c0.1,0,0.2-0.1,0.4-0.1
			c0.1-0.1,0.2-0.1,0.4-0.2c0.1,0,0.2-0.1,0.3-0.1c0.1-0.1,0.3-0.1,0.4-0.2c0.1-0.1,0.2-0.1,0.3-0.2c0.1-0.1,0.2-0.1,0.3-0.2
			c0.1-0.1,0.3-0.1,0.4-0.2c0.1-0.1,0.2-0.1,0.3-0.2c0.1-0.1,0.2-0.1,0.3-0.2c0.1-0.1,0.2-0.1,0.3-0.2c0.2-0.1,0.4-0.3,0.6-0.5
			c0.1-0.1,0.2-0.2,0.3-0.2c0.1-0.1,0.2-0.2,0.3-0.2c0.1-0.1,0.2-0.2,0.3-0.3s0.2-0.2,0.3-0.3s0.2-0.2,0.3-0.3
			c0.4-0.4,0.7-0.7,1.1-1.1l0,0c0.1-0.1,0.1-0.2,0.2-0.3c0.1-0.2,0.3-0.3,0.4-0.5c0.1-0.2,0.2-0.3,0.4-0.5c0.1-0.2,0.3-0.4,0.4-0.6
			c0.1-0.2,0.3-0.4,0.4-0.6c0.1-0.1,0.1-0.2,0.1-0.3c0.1-0.1,0.1-0.3,0.2-0.4c0.1-0.1,0.1-0.3,0.2-0.4c0.1-0.1,0.1-0.2,0.1-0.3
			s0.1-0.2,0.1-0.3v-0.1c0-0.1,0.1-0.2,0.1-0.3l0,0v-0.1c0-0.1,0-0.1,0.1-0.2c0-0.1,0-0.1,0.1-0.2c0-0.1,0.1-0.2,0.1-0.3
			s0.1-0.2,0.1-0.3s0.1-0.3,0.1-0.4c0,0,0,0,0-0.1s0.1-0.3,0.1-0.4c0,0,0,0,0-0.1l0,0c0.1-0.2,0.1-0.5,0.2-0.7l0,0
			c0-0.1,0-0.1,0-0.2c0-0.1,0-0.2,0-0.2v-0.1c0-0.1,0-0.2,0-0.3l0,0c0-0.1,0-0.3,0.1-0.4l0,0v-0.1v-0.1v-0.1v-0.1c0-0.1,0-0.2,0-0.2
			v-0.1c0-0.1,0-0.2,0-0.3s0-0.1,0-0.2c0-0.1,0-0.2,0-0.3s0-0.2,0-0.4c0-0.3,0-0.5,0-0.8c0-0.1,0-0.2,0-0.2v-0.1c0-0.1,0-0.3,0-0.4
			l0,0c0-0.1,0-0.1,0-0.2c0-0.1,0-0.1,0-0.2c0,0,0,0,0-0.1c0-0.2-0.1-0.5-0.1-0.7c0-0.1,0-0.2,0-0.2v-0.1c0-0.1,0-0.1,0-0.2
			c0-0.1,0-0.1,0-0.2c0-0.2-0.1-0.3-0.1-0.5l0,0c0-0.2-0.1-0.4-0.1-0.6c0-0.1-0.1-0.2-0.1-0.4s-0.1-0.2-0.1-0.4
			c-0.1-0.4-0.3-0.7-0.4-1c0-0.1-0.1-0.2-0.1-0.3c-0.1-0.2-0.2-0.4-0.3-0.7c-0.1-0.2-0.2-0.4-0.3-0.7c-0.1-0.1-0.1-0.2-0.2-0.3
			c-0.1-0.2-0.2-0.3-0.3-0.5s-0.2-0.3-0.3-0.5c-0.1-0.1-0.2-0.2-0.3-0.4s-0.2-0.3-0.4-0.5l0,0c-0.1-0.1-0.2-0.2-0.2-0.3
			c-0.1-0.1-0.2-0.3-0.4-0.4c-0.1-0.1-0.2-0.3-0.4-0.4c-0.1-0.1-0.2-0.2-0.3-0.3s-0.2-0.2-0.3-0.3l0,0c-0.1-0.1-0.3-0.3-0.4-0.4
			c-0.1-0.1-0.3-0.2-0.4-0.4l0,0c-0.1-0.1-0.2-0.1-0.2-0.2c-0.2-0.2-0.5-0.4-0.7-0.5c-0.1-0.1-0.2-0.2-0.4-0.3
			c-0.1-0.1-0.2-0.2-0.4-0.2c-0.1-0.1-0.2-0.1-0.3-0.2c-0.2-0.1-0.4-0.2-0.6-0.4l0,0c-0.2-0.1-0.4-0.2-0.7-0.3
			c-0.1-0.1-0.2-0.1-0.3-0.1c-0.2-0.1-0.4-0.2-0.6-0.3c-0.1,0-0.2-0.1-0.3-0.1c-0.2-0.1-0.4-0.1-0.5-0.2c-0.2-0.1-0.4-0.1-0.7-0.2
			c-0.2-0.1-0.3-0.1-0.5-0.1h-0.1c-0.2,0-0.3-0.1-0.5-0.1l0,0l0,0c-0.1,0-0.1,0-0.2,0l0,0c-0.1,0-0.3,0-0.4-0.1h-0.1l0,0
			c-0.1,0-0.1,0-0.2,0l0,0l0,0c-0.1,0-0.2,0-0.3,0l0,0c-0.1,0-0.1,0-0.2,0c-0.1,0-0.1,0-0.2,0c-0.1,0-0.2,0-0.4,0l0,0l0,0l0,0
			c-0.1,0-0.2,0-0.4,0c0.1,0,0.2,0,0.2,0c8.4-0.6,15-7.6,15-16.1c0-8.9-7.2-16.1-16.1-16.1c-4.1,0-7.8,1.5-10.7,4l-0.1,0.1
			c2.6-2.9,4.2-6.7,4.2-10.9c0-8.9-7.2-16.1-16.1-16.1s-16.1,7.2-16.1,16.1c0-0.1,0-0.3,0-0.4c-0.2-8.7-7.4-15.7-16.1-15.7
			c-8.9,0-16.1,7.2-16.1,16.1c0,4.2,1.6,8,4.2,10.9c-0.1,0-0.1-0.1-0.2-0.1c-2.8-2.5-6.6-4-10.6-4c-8.9,0-16.1,7.2-16.1,16.1
			c0,8.5,6.6,15.5,15,16.1c0.1,0,0.2,0,0.3,0c-8.5,0.5-15.3,7.5-15.3,16.1c0,8.9,7.2,16.1,16.1,16.1c4,0,7.6-1.4,10.4-3.8
			c0.1-0.1,0.2-0.2,0.3-0.3c0.2-0.2,0.4-0.4,0.6-0.6c-2.9,2.9-4.7,6.9-4.7,11.4c0,8.9,7.2,16.1,16.1,16.1c8.8,0,15.9-7,16.1-15.6"/>
		<path class="st15" d="M2597.8,796.6c-0.2,0.2-0.4,0.4-0.6,0.6l-0.1,0.1c-0.2,0.2-0.4,0.4-0.6,0.6c0.2-0.2,0.4-0.4,0.6-0.6
			S2597.6,796.9,2597.8,796.6z"/>
		<path class="st15" d="M2621.3,766.4c-0.9,0.9-1.4,2-1.4,3.4h-33.6c-0.2,0-0.3,0-0.5,0s-0.3,0-0.5,0h-0.7c-8.4-0.6-15-7.6-15-16.1
			c0-8.9,7.2-16.1,16.1-16.1c4.1,0,7.8,1.5,10.6,4l0.4,0.4c0.2,0.2,0.4,0.4,0.5,0.5l0.5,0.5L2621.3,766.4z"/>
		<path class="st15" d="M2586.3,769.7h0.7c-0.1,0-0.2,0-0.3,0c-0.3,0-0.6,0-0.9,0s-0.6,0-0.9,0c-0.1,0-0.2,0-0.3,0h0.7
			c0.2,0,0.3,0,0.5,0C2585.9,769.7,2586.1,769.7,2586.3,769.7z"/>
		<path class="st15" d="M2597.9,743l-0.5-0.5l-0.5-0.5l-0.4-0.4c0.1,0,0.1,0.1,0.2,0.1c0.4,0.4,0.8,0.7,1.2,1.2l0,0
			C2597.8,742.8,2597.9,742.9,2597.9,743z"/>
		<path class="st15" d="M2679.7,753.6c0,8.5-6.6,15.5-15,16.1h-0.6c-0.2,0-0.3,0-0.5,0s-0.3,0-0.5,0h-33.8c0-1.3-0.5-2.5-1.4-3.4
			l23.4-23.4l0.4-0.4c0.3-0.2,0.5-0.5,0.8-0.8l0.3-0.3c2.8-2.5,6.6-4,10.7-4C2672.5,737.5,2679.7,744.7,2679.7,753.6z"/>
		<path class="st15" d="M2652.8,741.6l0.1-0.1l-0.3,0.3c-0.2,0.3-0.5,0.5-0.8,0.8l-0.4,0.4c0-0.1,0.1-0.1,0.1-0.2
			C2652,742.4,2652.4,742,2652.8,741.6L2652.8,741.6z"/>
		<path class="st15" d="M2664.7,769.7c-0.1,0-0.2,0-0.2,0l0,0c-0.3,0-0.6,0-0.9,0c-0.3,0-0.6,0-0.8,0l0,0c-0.1,0-0.2,0-0.3,0h0.8
			c0.1,0,0.3,0,0.5,0s0.3,0,0.5,0H2664.7z"/>
		<path class="st15" d="M2621.3,773.1l-23.2,23.2l-1.1,1.1l-0.9,0.9c-2.8,2.4-6.4,3.8-10.4,3.8c-8.9,0-16.1-7.2-16.1-16.1
			c0-8.6,6.8-15.7,15.3-16.1c0.3,0,0.6,0,0.9,0s0.6,0,0.9,0c0.1,0,0.2,0,0.3,0h32.9C2619.9,771,2620.4,772.2,2621.3,773.1z"/>
		<path class="st15" d="M2586.7,769.7c-0.3,0-0.6,0-0.9,0s-0.6,0-0.9,0c0.1,0,0.3,0,0.4,0c0.2,0,0.3,0,0.5,0s0.3,0,0.5,0
			C2586.4,769.7,2586.5,769.7,2586.7,769.7z"/>
		<path class="st15" d="M2598.1,796.3c-0.1,0.1-0.2,0.3-0.3,0.4c-0.2,0.2-0.4,0.4-0.6,0.6l-0.1,0.1c-0.2,0.2-0.4,0.4-0.6,0.6
			c-0.1,0.1-0.2,0.2-0.3,0.3l0.9-0.9L2598.1,796.3z"/>
		<path class="st15" d="M2679.8,785.1c0-0.3,0-0.5-0.1-0.8l0,0c0-0.1,0-0.2,0-0.4c0-0.3-0.1-0.7-0.1-1c0-0.1,0-0.2-0.1-0.3
			c-0.1-0.4-0.2-0.8-0.3-1.2s-0.2-0.8-0.4-1.2c-0.1-0.2-0.2-0.4-0.3-0.7c-0.1-0.2-0.1-0.3-0.2-0.5c-0.1-0.1-0.1-0.3-0.2-0.4
			c0-0.1-0.1-0.2-0.1-0.3s-0.1-0.2-0.2-0.3c0,0,0-0.1-0.1-0.1c-0.1-0.2-0.2-0.3-0.3-0.5s-0.2-0.3-0.3-0.5s-0.2-0.3-0.3-0.5l0,0
			c-0.1-0.2-0.2-0.3-0.4-0.5c-0.1-0.2-0.2-0.3-0.4-0.5c-0.1-0.1-0.2-0.3-0.4-0.4c0,0,0-0.1-0.1-0.1c-0.1-0.1-0.2-0.3-0.3-0.4l0,0
			c-0.1-0.1-0.3-0.3-0.4-0.4c-0.1-0.1-0.2-0.2-0.4-0.4s-0.3-0.3-0.5-0.5c-0.2-0.1-0.3-0.3-0.5-0.4c-0.2-0.1-0.4-0.3-0.6-0.4
			c-0.1-0.1-0.2-0.2-0.4-0.3c-0.1-0.1-0.2-0.1-0.3-0.2c-0.1-0.1-0.3-0.2-0.4-0.2c-0.2-0.1-0.4-0.3-0.7-0.4c-0.1-0.1-0.2-0.1-0.3-0.1
			c-0.2-0.1-0.3-0.2-0.5-0.2c-0.2-0.1-0.4-0.2-0.6-0.2c-0.1-0.1-0.3-0.1-0.5-0.2c-0.1-0.1-0.3-0.1-0.4-0.1c0,0-0.1,0-0.1-0.1
			c-0.1,0-0.2-0.1-0.3-0.1s-0.2-0.1-0.3-0.1s-0.2-0.1-0.3-0.1s-0.2-0.1-0.3-0.1s-0.1,0-0.2-0.1c-0.1,0-0.2-0.1-0.4-0.1
			c-0.3-0.1-0.5-0.1-0.8-0.2c-0.1,0-0.2,0-0.3,0l0,0l0,0c-0.1,0-0.2,0-0.3,0l0,0c-0.1,0-0.1,0-0.2,0c-0.1,0-0.1,0-0.2,0l0,0
			c-0.1,0-0.1,0-0.2,0c-0.1,0-0.1,0-0.2,0l0,0c-0.1,0-0.2,0-0.4,0l0,0c-0.3,0-0.6,0-0.9,0c-0.3,0-0.6,0-0.8,0l0,0h-0.1
			c0,0,0,0,0.1,0c-0.1,0-0.2,0-0.3,0h-33c0,1.3-0.5,2.5-1.4,3.4l23,23l0.6,0.6c0.1,0.1,0.3,0.2,0.4,0.3l0.2,0.2l0.1,0.1
			c0,0,0,0,0.1,0.1c0,0,0,0,0.1,0.1s0.3,0.3,0.5,0.4l0.1,0.1c0.1,0.1,0.3,0.2,0.4,0.3l0,0c0.2,0.1,0.3,0.3,0.5,0.4
			c0.2,0.1,0.4,0.3,0.5,0.4c0.1,0.1,0.2,0.1,0.3,0.2c0.1,0.1,0.2,0.1,0.3,0.2c0.1,0.1,0.2,0.1,0.3,0.2l0,0c0.1,0,0.1,0.1,0.2,0.1
			c0.1,0.1,0.2,0.1,0.3,0.2c0.3,0.2,0.6,0.3,0.9,0.4c0.1,0.1,0.2,0.1,0.3,0.2c0.1,0.1,0.2,0.1,0.4,0.1c0.4,0.2,0.9,0.3,1.3,0.5
			c0.1,0,0.3,0.1,0.4,0.1c0.3,0.1,0.5,0.1,0.8,0.2c0.1,0,0.3,0.1,0.4,0.1c0.1,0,0.2,0,0.3,0.1c0.1,0,0.2,0,0.3,0.1
			c0.2,0,0.4,0.1,0.6,0.1c0.1,0,0.2,0,0.3,0s0.2,0,0.2,0c0.1,0,0.2,0,0.3,0c0.2,0,0.5,0,0.7,0s0.3,0,0.5,0c0.1,0,0.3,0,0.4,0
			c0.3,0,0.5,0,0.8,0c0.1,0,0.1,0,0.2,0c0.2,0,0.4,0,0.6-0.1h0.1c0.1,0,0.3,0,0.4-0.1c0.3,0,0.5-0.1,0.8-0.1c0.1,0,0.3-0.1,0.4-0.1
			c0.2,0,0.3-0.1,0.5-0.1c0.1,0,0.1,0,0.2,0c0.2,0,0.3-0.1,0.5-0.1c0.1,0,0.3-0.1,0.4-0.1c0.1,0,0.1,0,0.2-0.1
			c0.2-0.1,0.3-0.1,0.5-0.2c0.1,0,0.2-0.1,0.4-0.1c0.1-0.1,0.2-0.1,0.4-0.2c0.1,0,0.2-0.1,0.3-0.1c0.1-0.1,0.3-0.1,0.4-0.2
			c0.1-0.1,0.2-0.1,0.3-0.2c0.1-0.1,0.2-0.1,0.3-0.2c0.1-0.1,0.3-0.1,0.4-0.2c0.1-0.1,0.2-0.1,0.3-0.2c0.1-0.1,0.2-0.1,0.3-0.2
			c0.1-0.1,0.2-0.1,0.3-0.2c0.2-0.1,0.4-0.3,0.6-0.5c0.1-0.1,0.2-0.2,0.3-0.2c0.1-0.1,0.2-0.2,0.3-0.2c0.1-0.1,0.2-0.2,0.3-0.3
			s0.2-0.2,0.3-0.3s0.2-0.2,0.3-0.3c0.4-0.4,0.7-0.7,1.1-1.1l0,0c0.1-0.1,0.1-0.2,0.2-0.3c0.1-0.2,0.3-0.3,0.4-0.5
			c0.1-0.2,0.2-0.3,0.4-0.5c0.1-0.2,0.3-0.4,0.4-0.6c0.1-0.2,0.3-0.4,0.4-0.6c0.1-0.1,0.1-0.2,0.1-0.3c0.1-0.1,0.1-0.3,0.2-0.4
			c0.1-0.1,0.1-0.3,0.2-0.4c0.1-0.1,0.1-0.2,0.1-0.3s0.1-0.2,0.1-0.3v-0.1c0-0.1,0.1-0.2,0.1-0.3l0,0v-0.1c0-0.1,0-0.1,0.1-0.2
			c0-0.1,0-0.1,0.1-0.2c0-0.1,0.1-0.2,0.1-0.3s0.1-0.2,0.1-0.3s0.1-0.3,0.1-0.4c0,0,0,0,0-0.1s0.1-0.3,0.1-0.4c0,0,0,0,0-0.1l0,0
			c0.1-0.2,0.1-0.5,0.2-0.7l0,0c0-0.1,0-0.1,0-0.2c0-0.1,0-0.2,0-0.2c0-0.1,0-0.2,0.1-0.4l0,0c0-0.1,0-0.3,0.1-0.4l0,0v-0.1v-0.1
			v-0.1v-0.1c0-0.2,0-0.4,0-0.6c0,0,0,0,0-0.1s0-0.1,0-0.2c0-0.1,0-0.2,0-0.3s0-0.2,0-0.4C2679.8,785.6,2679.8,785.4,2679.8,785.1z
			 M2660.9,770c0.1,0,0.2,0,0.3-0.1c0.1,0,0.3,0,0.4-0.1C2661.3,769.9,2661.1,769.9,2660.9,770z M2661.9,769.8c-0.1,0-0.2,0-0.3,0
			C2661.7,769.8,2661.8,769.8,2661.9,769.8h0.1C2662,769.8,2662,769.8,2661.9,769.8z M2662.3,769.8c0.1,0,0.1,0,0.2,0h0.1
			C2662.5,769.8,2662.4,769.8,2662.3,769.8z"/>
		<path class="st15" d="M2661.5,769.9c-0.2,0-0.4,0.1-0.7,0.1c0.1,0,0.2,0,0.3-0.1C2661.3,769.9,2661.4,769.9,2661.5,769.9z"/>
		<path class="st15" d="M2662.6,769.8c-0.1,0-0.2,0-0.3,0C2662.4,769.8,2662.4,769.8,2662.6,769.8
			C2662.5,769.8,2662.5,769.8,2662.6,769.8z"/>
		<path class="st15" d="M2662.7,769.7C2662.7,769.8,2662.6,769.8,2662.7,769.7C2662.6,769.8,2662.6,769.7,2662.7,769.7L2662.7,769.7
			z"/>
		<path class="st15" d="M2664.4,769.7c-0.3,0-0.6,0-0.9,0c-0.3,0-0.6,0-0.8,0c0.1,0,0.3,0,0.4,0l0,0c0.1,0,0.3,0,0.5,0s0.3,0,0.5,0
			l0,0C2664.3,769.7,2664.4,769.7,2664.4,769.7z"/>
		<path class="st15" d="M2678.3,792.7c0.1-0.1,0.1-0.2,0.1-0.3c-2.5,5.7-8.2,9.7-14.8,9.7c-3.9,0-7.4-1.4-10.2-3.6
			c-0.1-0.1-0.1-0.1-0.2-0.2c-0.7-0.6-1.3-1.2-1.9-1.9c-0.1-0.1-0.2-0.2-0.2-0.3l0.6,0.6c0.1,0.1,0.3,0.2,0.4,0.3l0.2,0.2l0.1,0.1
			c0,0,0,0,0.1,0.1c0,0,0,0,0.1,0.1s0.3,0.3,0.5,0.4l0.1,0.1c0.1,0.1,0.3,0.2,0.4,0.3l0,0c0.2,0.1,0.3,0.3,0.5,0.4
			c0.2,0.1,0.4,0.3,0.5,0.4c0.1,0.1,0.2,0.1,0.3,0.2c0.1,0.1,0.2,0.1,0.3,0.2c0.1,0.1,0.2,0.1,0.3,0.2l0,0c0.1,0,0.1,0.1,0.2,0.1
			c0.1,0.1,0.2,0.1,0.3,0.2c0.3,0.2,0.6,0.3,0.9,0.4c0.1,0.1,0.2,0.1,0.3,0.2c0.1,0.1,0.2,0.1,0.4,0.1c0.4,0.2,0.9,0.3,1.3,0.5
			c0.1,0,0.3,0.1,0.4,0.1c0.3,0.1,0.5,0.1,0.8,0.2c0.1,0,0.3,0.1,0.4,0.1c0.1,0,0.2,0,0.3,0.1c0.1,0,0.2,0,0.3,0.1
			c0.2,0,0.4,0.1,0.6,0.1c0.1,0,0.2,0,0.3,0s0.2,0,0.2,0c0.1,0,0.2,0,0.3,0c0.2,0,0.5,0,0.7,0s0.3,0,0.5,0c0.1,0,0.3,0,0.4,0
			c0.3,0,0.5,0,0.8,0c0.1,0,0.1,0,0.2,0c0.2,0,0.4,0,0.6-0.1h0.1c0.1,0,0.3,0,0.4-0.1c0.3,0,0.5-0.1,0.8-0.1c0.1,0,0.3-0.1,0.4-0.1
			c0.2,0,0.3-0.1,0.5-0.1c0.1,0,0.1,0,0.2,0c0.2,0,0.3-0.1,0.5-0.1c0.1,0,0.3-0.1,0.4-0.1c0.1,0,0.1,0,0.2-0.1
			c0.2-0.1,0.3-0.1,0.5-0.2c0.1,0,0.2-0.1,0.4-0.1c0.1-0.1,0.2-0.1,0.4-0.2c0.1,0,0.2-0.1,0.3-0.1c0.1-0.1,0.3-0.1,0.4-0.2
			c0.1-0.1,0.2-0.1,0.3-0.2c0.1-0.1,0.2-0.1,0.3-0.2c0.1-0.1,0.3-0.1,0.4-0.2c0.1-0.1,0.2-0.1,0.3-0.2c0.1-0.1,0.2-0.1,0.3-0.2
			c0.1-0.1,0.2-0.1,0.3-0.2c0.2-0.1,0.4-0.3,0.6-0.5c0.1-0.1,0.2-0.2,0.3-0.2c0.1-0.1,0.2-0.2,0.3-0.2c0.1-0.1,0.2-0.2,0.3-0.3
			s0.2-0.2,0.3-0.3s0.2-0.2,0.3-0.3c0.4-0.4,0.7-0.7,1.1-1.1l0,0c0.1-0.1,0.1-0.2,0.2-0.3c0.1-0.2,0.3-0.3,0.4-0.5
			c0.1-0.2,0.2-0.3,0.4-0.5c0.1-0.2,0.3-0.4,0.4-0.6c0.1-0.2,0.3-0.4,0.4-0.6c0.1-0.1,0.1-0.2,0.1-0.3c0.1-0.1,0.1-0.3,0.2-0.4
			C2678.1,793,2678.2,792.9,2678.3,792.7z"/>
	</g>
	<path class="st15" d="M1653,1542.7c-0.1,0-0.2,0-0.3,0c-0.3,0-0.6,0-0.9,0s-0.6,0-0.9,0c-0.1,0-0.2,0-0.3,0h0.7c0.2,0,0.3,0,0.5,0
		s0.3,0,0.5,0H1653z"/>
	<path class="st15" d="M1663.7,1515.8c0.1,0.1,0.1,0.1,0.2,0.2l-0.5-0.5l-0.5-0.5l-0.4-0.4c0.1,0,0.1,0.1,0.2,0.1
		C1663,1515,1663.4,1515.4,1663.7,1515.8L1663.7,1515.8z"/>
	<path class="st15" d="M1690.7,1503.8c0,0.1,0,0.3,0,0.4v-0.8C1690.7,1503.5,1690.7,1503.6,1690.7,1503.8z"/>
	<path class="st15" d="M1695.4,1542.7c0,1.3-0.5,2.5-1.4,3.4s-2,1.4-3.4,1.4c-1.3,0-2.5-0.5-3.4-1.4s-1.4-2-1.4-3.4s0.5-2.5,1.4-3.4
		s2-1.4,3.4-1.4c1.3,0,2.5,0.5,3.4,1.4S1695.4,1541.4,1695.4,1542.7z"/>
	<path class="st15" d="M1690.7,1582.3v-1c0,0.1,0,0.2,0,0.2v0.1v0.2v0.1c0,0,0,0,0,0.1c0.1,8.8,7.3,16,16.2,16
		c8.9,0,16.2-7.3,16.2-16.2c0-4-1.5-7.7-3.9-10.5c-0.7-0.6-1.3-1.2-1.9-1.9c-0.1-0.1-0.2-0.2-0.2-0.3l0.6,0.6l1.3,1.3l0.5,0.5"/>
	<path class="st15" d="M1717.8,1515.6l-0.4,0.4c0-0.1,0.1-0.1,0.1-0.2c0.4-0.4,0.8-0.8,1.2-1.2l0,0l0.1-0.1l-0.3,0.3
		C1718.4,1515.1,1718.1,1515.3,1717.8,1515.6z"/>
	<path class="st15" d="M1728.1,1542.8L1728.1,1542.8L1728.1,1542.8C1728,1542.8,1728,1542.8,1728.1,1542.8z"/>
	<path class="st15" d="M1728.6,1542.8c-0.1,0-0.2,0-0.3,0C1728.4,1542.8,1728.4,1542.8,1728.6,1542.8
		C1728.5,1542.8,1728.5,1542.8,1728.6,1542.8z"/>
	<path class="st15" d="M1730.7,1542.7c-0.1,0-0.2,0-0.2,0l0,0c-0.3,0-0.6,0-0.9,0s-0.6,0-0.8,0l0,0c-0.1,0-0.2,0-0.3,0h0.8
		c0.1,0,0.3,0,0.5,0s0.3,0,0.5,0H1730.7z"/>
	<path class="st15" d="M1730.9,1542.8L1730.9,1542.8c-0.1,0-0.3,0-0.4,0C1730.6,1542.8,1730.8,1542.8,1730.9,1542.8L1730.9,1542.8z"
		/>
	<path class="st15" d="M1731.4,1542.8c-0.1,0-0.1,0-0.2,0l0,0c-0.1,0-0.1,0-0.2,0c0.1,0,0.1,0,0.2,0S1731.4,1542.8,1731.4,1542.8z"
		/>
	<path class="st15" d="M1744.8,1553.3c0-0.1,0-0.1-0.1-0.2c-0.1-0.2-0.2-0.4-0.2-0.6c-0.1-0.2-0.1-0.3-0.2-0.5
		c-0.1-0.1-0.1-0.3-0.2-0.4c0-0.1-0.1-0.2-0.1-0.3c0-0.1-0.1-0.2-0.2-0.3c0,0,0-0.1-0.1-0.1c-0.1-0.2-0.2-0.3-0.3-0.5
		c-0.1-0.2-0.2-0.3-0.3-0.5c-0.1-0.2-0.2-0.3-0.3-0.5l0,0c-0.1-0.2-0.2-0.3-0.4-0.5c-0.1-0.2-0.2-0.3-0.4-0.5
		c-0.1-0.1-0.2-0.3-0.4-0.4c0,0,0-0.1-0.1-0.1c-0.1-0.1-0.2-0.3-0.3-0.4l0,0c-0.1-0.1-0.3-0.3-0.4-0.4s-0.2-0.2-0.4-0.4
		c-0.2-0.2-0.3-0.3-0.5-0.5c-0.2-0.1-0.3-0.3-0.5-0.4s-0.4-0.3-0.6-0.4c-0.1-0.1-0.2-0.2-0.4-0.3c-0.1-0.1-0.2-0.1-0.3-0.2
		c-0.1-0.1-0.3-0.2-0.4-0.2c-0.2-0.1-0.4-0.3-0.7-0.4c-0.1-0.1-0.2-0.1-0.3-0.1c-0.2-0.1-0.3-0.2-0.5-0.2c-0.2-0.1-0.4-0.2-0.6-0.2
		c-0.1-0.1-0.3-0.1-0.5-0.2c-0.1-0.1-0.3-0.1-0.4-0.1c0,0-0.1,0-0.1-0.1c-0.1,0-0.2-0.1-0.3-0.1c-0.1,0-0.2-0.1-0.3-0.1
		c-0.1,0-0.2-0.1-0.3-0.1c-0.1,0-0.2-0.1-0.3-0.1c-0.1,0-0.1,0-0.2-0.1c-0.1,0-0.2-0.1-0.4-0.1c-0.3-0.1-0.5-0.1-0.8-0.2
		c-0.1,0-0.2,0-0.3,0c0.1,0,0.1,0,0.2,0l0,0c0.2,0,0.4,0.1,0.5,0.1s0.1,0,0.2,0l0,0l0,0c0.2,0,0.3,0.1,0.5,0.1c0.1,0,0.1,0,0.1,0
		c0.2,0,0.3,0.1,0.5,0.1c0.2,0.1,0.4,0.1,0.7,0.2c0.2,0.1,0.4,0.1,0.5,0.2c0.1,0,0.2,0.1,0.3,0.1c0.2,0.1,0.4,0.2,0.6,0.3
		c0.1,0,0.2,0.1,0.3,0.1c0.2,0.1,0.4,0.2,0.7,0.3l0,0c0.2,0.1,0.4,0.2,0.6,0.4c0.1,0.1,0.2,0.1,0.3,0.2c0.1,0.1,0.2,0.2,0.4,0.2
		c0.1,0.1,0.2,0.2,0.4,0.3c0.2,0.2,0.5,0.3,0.7,0.5c0.1,0.1,0.2,0.1,0.2,0.2l0,0c0.1,0.1,0.3,0.2,0.4,0.4c0.1,0.1,0.3,0.3,0.4,0.4
		l0,0c0.1,0.1,0.2,0.2,0.3,0.3c0.1,0.1,0.2,0.2,0.3,0.3c0.1,0.1,0.2,0.3,0.4,0.4c0.1,0.1,0.2,0.3,0.4,0.4c0.1,0.1,0.2,0.2,0.2,0.3
		l0,0c0.1,0.2,0.3,0.3,0.4,0.5c0.1,0.1,0.2,0.2,0.3,0.4c0.1,0.2,0.2,0.3,0.3,0.5c0.1,0.2,0.2,0.3,0.3,0.5c0.1,0.1,0.1,0.2,0.2,0.3
		c0.1,0.2,0.2,0.4,0.3,0.7c0.1,0.2,0.2,0.4,0.3,0.7c0.1,0.1,0.1,0.2,0.1,0.3c0.1,0.3,0.3,0.7,0.4,1c0,0.1,0.1,0.2,0.1,0.4
		c0,0.1,0.1,0.2,0.1,0.4c0.1,0.2,0.1,0.4,0.1,0.6l0,0c0,0.2,0.1,0.3,0.1,0.5c0,0.1,0,0.1,0,0.2c-0.1-0.4-0.2-0.8-0.3-1.2
		C1745.1,1554.1,1745,1553.7,1744.8,1553.3z"/>
	<line class="st15" x1="1730.2" y1="1542.7" x2="1729.2" y2="1542.7"/>
	<line class="st15" x1="1652.3" y1="1542.7" x2="1651.3" y2="1542.7"/>
	<line class="st15" x1="1663.4" y1="1515.5" x2="1662.8" y2="1514.9"/>
	<line class="st15" x1="1718.6" y1="1514.8" x2="1717.8" y2="1515.6"/>
	<path class="st15" d="M1690.7,1503.4v34.6c-1.3,0-2.5,0.5-3.4,1.4l-23.4-23.4c-0.1-0.1-0.1-0.1-0.2-0.2l0,0
		c-0.4-0.4-0.8-0.8-1.2-1.2c-2.6-2.9-4.2-6.7-4.2-10.9c0-8.9,7.2-16.1,16.1-16.1C1683.3,1487.6,1690.4,1494.6,1690.7,1503.4z"/>
	<path class="st15" d="M1663.7,1515.8c-0.1-0.1-0.2-0.2-0.3-0.3l-0.5-0.5c-0.1-0.1-0.2-0.2-0.3-0.3
		C1663,1515,1663.4,1515.4,1663.7,1515.8z"/>
	<path class="st15" d="M1690.7,1503.8c0,0.1,0,0.3,0,0.4v-0.8C1690.7,1503.5,1690.7,1503.6,1690.7,1503.8z"/>
	<path class="st15" d="M1718.8,1514.6c-0.1,0.1-0.1,0.1-0.2,0.2c-0.2,0.3-0.5,0.5-0.8,0.8c-0.1,0.1-0.2,0.1-0.2,0.2
		C1718,1515.4,1718.4,1515,1718.8,1514.6z"/>
	<path class="st15" d="M1690.7,1581.8c0-0.1,0-0.1,0-0.2V1581.8L1690.7,1581.8L1690.7,1581.8z"/>
	<path class="st15" d="M1719.2,1571.3c-0.7-0.6-1.3-1.2-1.9-1.9c0.1,0.1,0.2,0.2,0.4,0.3c0.1,0.1,0.3,0.2,0.4,0.3l0.2,0.2l0.1,0.1
		c0,0,0,0,0.1,0.1c0,0,0,0,0.1,0.1s0.3,0.3,0.4,0.4C1719,1571.1,1719.1,1571.2,1719.2,1571.3z"/>
	<path class="st15" d="M1690.7,1581.5v0.3v0.1c0,0,0,0,0,0.1s0,0.2,0,0.3v-1C1690.7,1581.4,1690.7,1581.4,1690.7,1581.5z"/>
	<path class="st15" d="M1728.6,1542.8c-0.1,0-0.2,0-0.3,0C1728.4,1542.8,1728.4,1542.8,1728.6,1542.8
		C1728.5,1542.8,1728.5,1542.8,1728.6,1542.8z"/>
	<path class="st15" d="M1643.7,1572.8c-0.1-0.1-0.2-0.1-0.4-0.2"/>
	<line class="st15" x1="1679.2" y1="1597.2" x2="1679.2" y2="1597.2"/>
	<path class="st15" d="M1653,1542.7c-0.1,0-0.2,0-0.3,0c-0.3,0-0.6,0-0.9,0s-0.6,0-0.9,0c-0.1,0-0.2,0-0.3,0h0.7c0.2,0,0.3,0,0.5,0
		s0.3,0,0.5,0H1653z"/>
	<path class="st15" d="M1663.9,1516l-0.5-0.5l-0.5-0.5l-0.4-0.4c0.1,0,0.1,0.1,0.2,0.1c0.4,0.4,0.8,0.7,1.2,1.2l0,0
		C1663.8,1515.9,1663.9,1515.9,1663.9,1516z"/>
	<g>
		<circle class="st2" cx="1695.4" cy="1534.1" r="61.5"/>
		<path class="st15" d="M1690.7,1604.2c17,0,32.4-6.9,43.5-18"/>
		<path class="st15" d="M1695.4,1542.7c0,1.3-0.5,2.5-1.4,3.4s-2,1.4-3.4,1.4c-1.3,0-2.5-0.5-3.4-1.4s-1.4-2-1.4-3.4
			s0.5-2.5,1.4-3.4s2-1.4,3.4-1.4c1.3,0,2.5,0.5,3.4,1.4S1695.4,1541.4,1695.4,1542.7z"/>
		<path class="st15" d="M1723,1503.8c0,4.2-1.6,8-4.2,10.9l0,0c-0.4,0.4-0.8,0.7-1.2,1.2c0,0.1-0.1,0.1-0.1,0.2l-23.4,23.4
			c-0.9-0.9-2-1.4-3.4-1.4v-33.8c0-0.1,0-0.3,0-0.4c0-8.9,7.2-16.1,16.1-16.1S1723,1494.8,1723,1503.8z"/>
		<path class="st15" d="M1723.1,1581.8c0,8.9-7.3,16.2-16.2,16.2c-8.9,0-16.1-7.1-16.2-16c0,0,0,0,0-0.1v-0.1v-0.3
			c0-0.1,0-0.2,0-0.2v-33.8c1.3,0,2.5-0.5,3.4-1.4l23,23c0.1,0.1,0.2,0.2,0.2,0.3c0.6,0.7,1.2,1.3,1.9,1.9
			C1721.6,1574.1,1723.1,1577.8,1723.1,1581.8z"/>
		<path class="st15" d="M1690.7,1604.2c-4.2,0-8.3-0.4-12.3-1.2l0,0c-12.1-2.4-22.9-8.4-31.2-16.8c-1.3-1.3-2.6-2.7-3.8-4.2
			c-2.1-2.6-4-5.3-5.7-8.2c-5.3-9.1-8.4-19.7-8.4-31c0-1.4,0.1-2.9,0.2-4.3c0.6-8.8,3.1-17.1,7-24.5l0,0
			c10.3-19.4,30.8-32.7,54.3-32.7c34,0,61.5,27.5,61.5,61.5c0,12.4-3.7,23.9-10,33.6c-2.3,3.6-5,6.9-8,9.9"/>
		<path class="st15" d="M1719.4,1571.5l-0.5-0.5l-1.3-1.3c0.1,0.1,0.2,0.2,0.4,0.3l0.4,0.4c0,0,0,0,0.1,0l0.1,0.1
			c0.1,0.1,0.3,0.3,0.5,0.4l0.1,0.1C1719.2,1571.2,1719.4,1571.3,1719.4,1571.5C1719.5,1571.5,1719.5,1571.5,1719.4,1571.5
			c0.3,0.1,0.4,0.3,0.6,0.4s0.3,0.3,0.5,0.4c0.1,0.1,0.2,0.1,0.3,0.2c0.1,0.1,0.2,0.1,0.3,0.2c0.1,0.1,0.2,0.1,0.3,0.2l0,0
			c0,0,0.1,0.1,0.2,0.1s0.2,0.1,0.3,0.2c0.3,0.2,0.6,0.3,0.9,0.5c0.1,0,0.2,0.1,0.3,0.2c0.1,0,0.2,0.1,0.3,0.1
			c0.4,0.2,0.9,0.3,1.3,0.5c0.1,0,0.2,0.1,0.4,0.1c0.2,0.1,0.5,0.1,0.8,0.2c0.1,0,0.3,0.1,0.4,0.1s0.2,0,0.3,0.1
			c0.1,0,0.2,0,0.3,0.1c0.2,0,0.4,0,0.6,0.1c0.1,0,0.2,0,0.3,0c0.1,0,0.2,0,0.2,0c0.1,0,0.2,0,0.3,0c0.2,0,0.5,0,0.7,0h0.9
			c0.3,0,0.5,0,0.8,0c0.1,0,0.1,0,0.2,0c0.2,0,0.4,0,0.6-0.1h0.1c0.1,0,0.2,0,0.4-0.1c0.3,0,0.5-0.1,0.8-0.1c0.1,0,0.3-0.1,0.4-0.1
			c0.2,0,0.3-0.1,0.5-0.1c0.1,0,0.1,0,0.2,0c0.2,0,0.3-0.1,0.5-0.1c0.1,0,0.3-0.1,0.4-0.1s0.1-0.1,0.2-0.1s0.3-0.1,0.5-0.2
			c0.1-0.1,0.2-0.1,0.4-0.2l0.4-0.2c0.1,0,0.2-0.1,0.3-0.1c0.1-0.1,0.3-0.1,0.4-0.2s0.2-0.1,0.3-0.2c0.1-0.1,0.2-0.1,0.3-0.2
			c0.1-0.1,0.2-0.1,0.4-0.2l0.3-0.2c0.1-0.1,0.2-0.1,0.3-0.2c0.1-0.1,0.2-0.1,0.3-0.2c0.2-0.1,0.4-0.3,0.6-0.4
			c0.1-0.1,0.2-0.2,0.3-0.2c0.1-0.1,0.2-0.2,0.3-0.2c0.1-0.1,0.2-0.2,0.3-0.2c0.1-0.1,0.2-0.2,0.3-0.3c0.1-0.1,0.2-0.2,0.3-0.3
			c0.4-0.4,0.7-0.7,1.1-1.1l0,0c0.1-0.1,0.2-0.2,0.2-0.3c0.1-0.2,0.2-0.3,0.4-0.5c0.1-0.2,0.2-0.3,0.3-0.5c0.1-0.2,0.3-0.4,0.4-0.6
			s0.3-0.4,0.4-0.6c0.1-0.1,0.1-0.2,0.2-0.3c0.1-0.1,0.1-0.2,0.2-0.4c0.1-0.2,0.1-0.3,0.2-0.4c0-0.1,0.1-0.2,0.1-0.3
			c0-0.1,0.1-0.2,0.1-0.3v-0.1c0-0.1,0.1-0.2,0.1-0.3v-0.1c0-0.1,0-0.1,0.1-0.2c0-0.1,0-0.1,0.1-0.2c0-0.1,0.1-0.2,0.1-0.3
			c0-0.1,0.1-0.2,0.1-0.3c0.1-0.1,0.1-0.3,0.1-0.4l0,0c0-0.1,0.1-0.3,0.1-0.4c0,0,0,0,0-0.1s0,0,0,0c0.1-0.2,0.1-0.4,0.2-0.7l0,0
			c0-0.1,0-0.1,0-0.2s0-0.2,0-0.2c0-0.1,0-0.2,0.1-0.4l0,0c0-0.1,0-0.2,0-0.4l0,0c0-0.1,0-0.1,0-0.1c0-0.1,0-0.1,0-0.1v-0.1v-0.1
			c0-0.1,0-0.2,0-0.2v-0.1c0-0.1,0-0.2,0-0.3v-0.1v-0.1c0-0.1,0-0.2,0-0.3c0-0.1,0-0.2,0-0.4c0-0.3,0-0.5,0-0.8c0-0.1,0-0.2,0-0.3
			c0-0.1,0-0.1,0-0.2s0-0.1,0-0.2l0,0c0-0.1,0-0.2,0-0.4c0,0,0,0,0-0.1c0-0.2-0.1-0.5-0.1-0.7c0-0.1,0-0.2,0-0.2
			c0-0.1,0-0.2-0.1-0.3c0-0.1,0-0.1,0-0.2c0-0.2-0.1-0.3-0.1-0.5l0,0c0-0.2-0.1-0.4-0.2-0.6c0-0.1-0.1-0.2-0.1-0.4
			c0-0.1-0.1-0.2-0.1-0.3c0-0.1-0.1-0.3-0.1-0.4c-0.1-0.2-0.2-0.4-0.2-0.7c0-0.1-0.1-0.2-0.1-0.3c-0.1-0.2-0.2-0.5-0.3-0.7
			c0,0,0-0.1-0.1-0.2s-0.1-0.2-0.2-0.3c0,0,0-0.1-0.1-0.1v-0.1c-0.1-0.1-0.1-0.2-0.2-0.3c-0.1-0.2-0.2-0.3-0.3-0.5
			c-0.1-0.2-0.2-0.3-0.3-0.5c-0.1-0.1-0.2-0.2-0.3-0.4c-0.1-0.2-0.2-0.3-0.4-0.5l0,0c-0.1-0.1-0.1-0.2-0.2-0.3
			c-0.1-0.1-0.2-0.3-0.4-0.4c-0.1-0.1-0.2-0.3-0.4-0.4c-0.1-0.1-0.2-0.2-0.2-0.3c-0.1-0.1-0.2-0.2-0.3-0.2l0,0
			c-0.1-0.1-0.3-0.3-0.4-0.4s-0.3-0.2-0.4-0.4c0,0,0,0-0.1,0c-0.1-0.1-0.2-0.1-0.2-0.2c-0.2-0.2-0.5-0.3-0.7-0.5
			c-0.1-0.1-0.2-0.2-0.4-0.2c-0.1-0.1-0.2-0.2-0.4-0.2c-0.1-0.1-0.2-0.1-0.3-0.2c-0.2-0.1-0.4-0.2-0.6-0.4l0,0
			c-0.1-0.1-0.3-0.1-0.4-0.2c-0.1,0-0.2-0.1-0.2-0.1c-0.1,0-0.1-0.1-0.2-0.1h-0.1c-0.2-0.1-0.3-0.1-0.5-0.2c0,0,0,0-0.1,0
			c0,0,0,0-0.1,0s-0.2-0.1-0.3-0.1c-0.2-0.1-0.4-0.1-0.5-0.2c-0.2-0.1-0.4-0.2-0.7-0.2c-0.1,0-0.1,0-0.2-0.1c-0.1,0-0.2-0.1-0.3-0.1
			h-0.1c-0.1,0-0.3-0.1-0.4-0.1h-0.1l0,0l0,0c-0.2,0-0.4-0.1-0.7-0.1h-0.1c-0.1,0-0.1,0-0.2,0l0,0l0,0c-0.1,0-0.2,0-0.3,0l0,0
			c-0.1,0-0.1,0-0.2,0s-0.1,0-0.2,0l0,0c-0.1,0-0.2,0-0.4,0l0,0c-0.1,0-0.2,0-0.4,0c0.1,0,0.2,0,0.2,0c8.4-0.6,15-7.6,15-16.1
			c0-8.9-7.2-16.2-16.1-16.2c-4.1,0-7.8,1.5-10.7,4l-0.1,0.1c2.6-2.9,4.2-6.7,4.2-10.8c0-8.9-7.2-16.2-16.1-16.2
			s-16.1,7.2-16.1,16.2c0-0.1,0-0.3,0-0.4c-0.2-8.7-7.4-15.7-16.1-15.7c-8.9,0-16.2,7.2-16.2,16.2c0,4.2,1.6,8,4.2,10.8
			c-0.1-0.1-0.1-0.1-0.2-0.1c-2.8-2.5-6.6-4-10.6-4c-8.9,0-16.1,7.2-16.1,16.2c0,0.3,0,0.7,0,1c0,0.1,0,0.1,0,0.2
			c0,0.2,0,0.5,0.1,0.7c0,0.5,0.1,1,0.2,1.5c0.1,0.2,0.1,0.5,0.2,0.8v0.1c0.1,0.2,0.1,0.5,0.2,0.7c0.2,0.8,0.5,1.5,0.9,2.2
			c0.1,0.2,0.2,0.4,0.3,0.6c0.2,0.3,0.3,0.6,0.5,0.9c0.1,0.2,0.3,0.4,0.4,0.6s0.3,0.4,0.4,0.6c0.2,0.3,0.5,0.6,0.8,0.9
			c0.2,0.3,0.5,0.6,0.8,0.8c0.1,0.1,0.2,0.2,0.4,0.3c0,0,0,0,0.1,0c0.2,0.2,0.4,0.4,0.6,0.5c0.3,0.2,0.5,0.4,0.8,0.6
			s0.6,0.4,0.8,0.6l0,0c0.2,0.2,0.5,0.3,0.7,0.4c0.9,0.5,1.8,0.9,2.8,1.2c0.3,0.1,0.6,0.2,0.8,0.2c0.3,0.1,0.5,0.1,0.8,0.2
			c0.2,0,0.3,0.1,0.4,0.1c0.2,0,0.5,0.1,0.7,0.1c0.3,0,0.6,0.1,0.9,0.1c0.1,0,0.2,0,0.3,0c-0.6,0-1.1,0.1-1.6,0.2"/>
		<path class="st15" d="M1687.3,1539.4c-0.9,0.9-1.4,2-1.4,3.4h-33.6c-0.2,0-0.3,0-0.5,0s-0.3,0-0.5,0h-0.7c-0.3,0-0.6-0.1-0.9-0.1
			c-0.2,0-0.5-0.1-0.7-0.1s-0.3-0.1-0.5-0.1c-0.3-0.1-0.5-0.1-0.8-0.2s-0.6-0.2-0.8-0.2c-1-0.3-1.9-0.7-2.8-1.2
			c-0.2-0.1-0.5-0.3-0.7-0.4l0,0c-0.3-0.2-0.6-0.4-0.8-0.6c-0.3-0.2-0.5-0.4-0.8-0.6c-0.2-0.2-0.4-0.3-0.6-0.5l0,0
			c-0.1-0.1-0.3-0.2-0.4-0.3c-0.3-0.3-0.6-0.5-0.8-0.8c-0.3-0.3-0.5-0.6-0.8-0.9c-0.1-0.2-0.3-0.4-0.4-0.6s-0.3-0.4-0.4-0.6
			c-0.2-0.3-0.4-0.6-0.5-0.9c-0.1-0.2-0.2-0.4-0.3-0.6c-0.3-0.7-0.6-1.4-0.9-2.2c-0.1-0.2-0.2-0.5-0.2-0.7v-0.1
			c-0.1-0.2-0.1-0.5-0.2-0.8c-0.1-0.5-0.2-1-0.2-1.5c0-0.2-0.1-0.5-0.1-0.7c0-0.1,0-0.1,0-0.2c0-0.3,0-0.7,0-1
			c0-8.9,7.2-16.2,16.1-16.2c4.1,0,7.8,1.5,10.6,4l0.4,0.4c0.2,0.2,0.4,0.4,0.6,0.5l0.6,0.6L1687.3,1539.4z"/>
		<path class="st15" d="M1745.7,1526.6c0,8.5-6.6,15.5-15,16.1h-0.6c-0.2,0-0.3,0-0.5,0s-0.3,0-0.5,0h-33.7c0-1.3-0.5-2.5-1.4-3.4
			l23.4-23.4l0.4-0.4c0.3-0.2,0.5-0.5,0.8-0.8l0.3-0.3c2.8-2.5,6.6-4,10.7-4C1738.5,1510.5,1745.7,1517.7,1745.7,1526.6z"/>
	</g>
	<g>
		<circle class="st2" cx="2335.7" cy="1606.1" r="61.5"/>
		<path class="st15" d="M2330.9,1676.2c17,0,32.4-6.9,43.5-18"/>
		<path class="st15" d="M2335.7,1614.7c0,1.3-0.5,2.5-1.4,3.4s-2,1.4-3.4,1.4c-1.3,0-2.5-0.5-3.4-1.4s-1.4-2-1.4-3.4
			c0-1.3,0.5-2.5,1.4-3.4s2-1.4,3.4-1.4c1.3,0,2.5,0.5,3.4,1.4C2335.1,1612.2,2335.7,1613.4,2335.7,1614.7z"/>
		<path class="st15" d="M2363.2,1575.8c0,4.2-1.6,8-4.2,10.9l0,0c-0.4,0.4-0.8,0.7-1.2,1.2c0,0.1-0.1,0.1-0.1,0.2l-23.4,23.4
			c-0.9-0.9-2-1.4-3.4-1.4v-33.8c0-0.1,0-0.3,0-0.4c0-8.9,7.2-16.1,16.1-16.1S2363.2,1566.8,2363.2,1575.8z"/>
		<path class="st15" d="M2363.3,1653.8c0,8.9-7.3,16.2-16.2,16.2s-16.1-7.1-16.2-16c0,0,0,0,0-0.1v-0.1v-0.3c0-0.1,0-0.2,0-0.2
			v-33.8c1.3,0,2.5-0.5,3.4-1.4l23,23c0.1,0.1,0.2,0.2,0.2,0.3c0.6,0.7,1.2,1.3,1.9,1.9C2361.8,1646.1,2363.3,1649.8,2363.3,1653.8z
			"/>
		<path class="st15" d="M2330.9,1676.2c-4.2,0-8.3-0.4-12.3-1.2l0,0c-12.1-2.4-22.9-8.4-31.2-16.8c-1.3-1.3-2.6-2.7-3.8-4.2
			c-2.1-2.5-4-5.3-5.7-8.2c-5.4-9.1-8.4-19.7-8.4-31c0-1.4,0-2.9,0.1-4.3c0.6-8.8,3.1-17.1,7-24.5l0,0
			c10.3-19.4,30.8-32.7,54.3-32.7c34,0,61.5,27.5,61.5,61.5c0,12.4-3.7,23.9-10,33.6c-2.3,3.6-5,6.9-8,9.9"/>
		<path class="st15" d="M2359.6,1643.5l-0.5-0.5l-1.3-1.3c0.1,0.1,0.2,0.2,0.4,0.3l0.4,0.4c0,0,0,0,0.1,0.1c0,0,0,0.1,0.1,0.1
			c0.2,0.1,0.3,0.3,0.5,0.4l0.1,0.1C2359.5,1643.2,2359.6,1643.3,2359.6,1643.5c0.1,0,0.1,0,0.1,0c0.2,0.1,0.3,0.3,0.5,0.4
			s0.4,0.3,0.5,0.4s0.2,0.1,0.3,0.2s0.2,0.1,0.3,0.2s0.2,0.1,0.3,0.2l0,0c0.1,0,0.1,0.1,0.2,0.1c0.1,0,0.2,0.1,0.3,0.2
			c0.3,0.2,0.6,0.3,0.9,0.5c0.1,0,0.2,0.1,0.4,0.2c0.1,0,0.2,0.1,0.3,0.1c0.4,0.2,0.9,0.3,1.3,0.5c0.1,0,0.2,0.1,0.4,0.1
			c0.2,0.1,0.5,0.1,0.8,0.2c0.1,0,0.3,0.1,0.4,0.1c0.1,0,0.2,0,0.3,0.1c0.1,0,0.2,0,0.3,0.1c0.2,0,0.4,0.1,0.6,0.1
			c0.1,0,0.2,0,0.3,0s0.2,0,0.2,0c0.1,0,0.2,0,0.3,0c0.2,0,0.5,0,0.7,0h0.9c0.3,0,0.5,0,0.8,0c0.1,0,0.1,0,0.2,0
			c0.2,0,0.4,0,0.6-0.1c0,0,0,0,0.1,0s0.2,0,0.4-0.1c0.3,0,0.5-0.1,0.8-0.1c0.1,0,0.3-0.1,0.4-0.1c0.2,0,0.3-0.1,0.5-0.1
			c0.1,0,0.1,0,0.2-0.1c0.1,0,0.3-0.1,0.5-0.1c0.1,0,0.3-0.1,0.4-0.1c0.1,0,0.1-0.1,0.2-0.1c0.2,0,0.3-0.1,0.5-0.2
			c0.1,0,0.2-0.1,0.4-0.1l0.4-0.2c0.1,0,0.2-0.1,0.3-0.1c0.1-0.1,0.3-0.1,0.4-0.2c0.1-0.1,0.2-0.1,0.3-0.2s0.2-0.1,0.3-0.2
			s0.2-0.1,0.4-0.2l0.3-0.2c0.1-0.1,0.2-0.1,0.3-0.2s0.2-0.1,0.3-0.2c0.2-0.1,0.4-0.3,0.6-0.4c0.1-0.1,0.2-0.2,0.3-0.2
			c0.1-0.1,0.2-0.2,0.3-0.2c0.1-0.1,0.2-0.2,0.3-0.2c0.1-0.1,0.2-0.2,0.3-0.3c0.1-0.1,0.2-0.2,0.3-0.3c0.4-0.4,0.7-0.7,1.1-1.1l0,0
			c0.1-0.1,0.2-0.2,0.2-0.3c0.1-0.2,0.2-0.3,0.4-0.5c0.1-0.2,0.2-0.3,0.4-0.5c0.1-0.2,0.3-0.4,0.4-0.6c0.1-0.2,0.3-0.4,0.4-0.6
			c0-0.1,0.1-0.2,0.1-0.3c0.1-0.1,0.1-0.2,0.2-0.4c0.1-0.1,0.1-0.3,0.2-0.4c0.1-0.1,0.1-0.2,0.2-0.3c0-0.1,0.1-0.2,0.1-0.3v-0.1
			c0-0.1,0.1-0.2,0.1-0.3v-0.1c0,0,0-0.1,0.1-0.2c0-0.1,0-0.1,0.1-0.2c0-0.1,0.1-0.2,0.1-0.3c0-0.1,0.1-0.2,0.1-0.3
			c0.1-0.1,0.1-0.3,0.1-0.4l0,0c0-0.1,0.1-0.3,0.1-0.4c0,0,0,0,0-0.1s0,0,0,0c0.1-0.2,0.1-0.4,0.2-0.7l0,0c0-0.1,0-0.1,0-0.2
			s0-0.2,0-0.2c0-0.1,0-0.2,0.1-0.4l0,0c0-0.1,0-0.2,0.1-0.4l0,0c0-0.1,0-0.1,0-0.1c0-0.1,0-0.1,0-0.1v-0.1v-0.1c0-0.1,0-0.2,0-0.2
			v-0.1c0-0.1,0-0.2,0-0.3v-0.1v-0.1c0-0.1,0-0.2,0-0.3c0-0.1,0-0.2,0-0.4c0-0.3,0-0.5,0-0.8c0-0.1,0-0.2,0-0.3c0-0.1,0-0.1,0-0.2
			s0-0.1,0-0.2l0,0c0-0.1,0-0.2,0-0.4c0,0,0,0,0-0.1c0-0.2-0.1-0.5-0.1-0.7c0-0.1,0-0.2,0-0.2c0-0.1,0-0.2-0.1-0.3
			c0-0.1,0-0.1,0-0.2c0-0.2-0.1-0.3-0.1-0.5l0,0c-0.1-0.2-0.1-0.4-0.1-0.6c0-0.1-0.1-0.2-0.1-0.4s-0.1-0.2-0.1-0.3
			c0-0.1-0.1-0.3-0.1-0.4c-0.1-0.2-0.2-0.4-0.2-0.7c-0.1-0.1-0.1-0.2-0.1-0.3c-0.1-0.2-0.2-0.5-0.3-0.7c0,0-0.1-0.1-0.1-0.2
			s-0.1-0.2-0.2-0.3l-0.1-0.1v-0.1c-0.1-0.1-0.1-0.2-0.2-0.3c-0.1-0.2-0.2-0.3-0.3-0.5s-0.2-0.3-0.3-0.5c-0.1-0.1-0.2-0.2-0.3-0.4
			c-0.1-0.2-0.2-0.3-0.4-0.5l0,0c-0.1-0.1-0.1-0.2-0.2-0.3c-0.1-0.1-0.2-0.3-0.4-0.4c-0.1-0.1-0.2-0.3-0.4-0.4
			c-0.1-0.1-0.2-0.2-0.2-0.3c-0.1-0.1-0.2-0.2-0.3-0.2l0,0c-0.1-0.1-0.3-0.3-0.4-0.4c-0.1-0.1-0.3-0.2-0.4-0.4l0,0
			c-0.1-0.1-0.2-0.1-0.2-0.2c-0.2-0.2-0.5-0.3-0.7-0.5c-0.1-0.1-0.2-0.2-0.4-0.2c-0.1-0.1-0.2-0.2-0.4-0.2c-0.1-0.1-0.2-0.1-0.3-0.2
			c-0.2-0.1-0.4-0.2-0.6-0.4l0,0c-0.1-0.1-0.3-0.1-0.4-0.2c-0.1,0-0.2-0.1-0.2-0.1c-0.1,0-0.1-0.1-0.2-0.1h-0.1
			c-0.1-0.1-0.3-0.1-0.5-0.2c0,0,0,0-0.1,0s0,0-0.1,0s-0.2-0.1-0.3-0.1c-0.2-0.1-0.4-0.1-0.5-0.2c-0.2-0.1-0.4-0.2-0.7-0.2
			c-0.1,0-0.1,0-0.2-0.1c-0.1,0-0.2-0.1-0.3-0.1s-0.1,0-0.1,0c-0.1,0-0.3-0.1-0.4-0.1h-0.1l0,0l0,0c-0.2,0-0.4-0.1-0.6-0.1h-0.1
			c-0.1,0-0.1,0-0.2,0l0,0l0,0c-0.1,0-0.2,0-0.3,0l0,0c-0.1,0-0.1,0-0.2,0c-0.1,0-0.1,0-0.2,0l0,0c-0.1,0-0.2,0-0.4,0l0,0
			c-0.1,0-0.2,0-0.4,0c0.1,0,0.2,0,0.2,0c8.4-0.6,15-7.6,15-16.1c0-8.9-7.2-16.2-16.1-16.2c-4.1,0-7.8,1.5-10.7,4l-0.1,0.1
			c2.6-2.9,4.2-6.7,4.2-10.8c0-8.9-7.2-16.2-16.1-16.2c-8.9,0-16.1,7.2-16.1,16.2c0-0.1,0-0.3,0-0.4c-0.2-8.7-7.4-15.7-16.1-15.7
			c-8.9,0-16.1,7.2-16.1,16.2c0,4.2,1.6,8,4.2,10.8c-0.1-0.1-0.1-0.1-0.2-0.1c-2.8-2.5-6.6-4-10.6-4c-8.9,0-16.1,7.2-16.1,16.2
			c0,0.3,0,0.7,0,1c0,0.1,0,0.1,0,0.2c0,0.2,0,0.5,0.1,0.7c0.1,0.5,0.1,1,0.2,1.5c0.1,0.2,0.1,0.5,0.2,0.8v0.1
			c0.1,0.2,0.1,0.5,0.2,0.7c0.2,0.8,0.5,1.5,0.9,2.2c0.1,0.2,0.2,0.4,0.3,0.6c0.2,0.3,0.3,0.6,0.5,0.9c0.1,0.2,0.3,0.4,0.4,0.6
			c0.1,0.2,0.3,0.4,0.4,0.6c0.2,0.3,0.5,0.6,0.8,0.9c0.2,0.3,0.5,0.6,0.8,0.8c0.1,0.1,0.2,0.2,0.4,0.3c0,0,0,0,0.1,0
			c0.2,0.2,0.4,0.4,0.6,0.5c0.3,0.2,0.5,0.4,0.8,0.6s0.5,0.4,0.8,0.6l0,0c0.2,0.2,0.5,0.3,0.7,0.4c0.9,0.5,1.8,0.9,2.8,1.2
			c0.3,0.1,0.6,0.2,0.8,0.2c0.3,0.1,0.5,0.1,0.8,0.2c0.2,0,0.3,0.1,0.5,0.1s0.5,0.1,0.7,0.1c0.3,0,0.6,0.1,0.9,0.1
			c0.1,0,0.2,0,0.3,0c-0.6,0-1.1,0.1-1.6,0.2"/>
		<path class="st15" d="M2327.5,1611.4c-0.9,0.9-1.4,2-1.4,3.4h-33.6c-0.2,0-0.3,0-0.5,0s-0.3,0-0.5,0h-0.7c-0.3,0-0.6-0.1-0.9-0.1
			c-0.2,0-0.5-0.1-0.7-0.1s-0.3,0-0.4-0.1c-0.3-0.1-0.5-0.1-0.8-0.2s-0.6-0.2-0.8-0.2c-1-0.3-1.9-0.7-2.8-1.2
			c-0.2-0.1-0.5-0.3-0.7-0.4l0,0c-0.3-0.2-0.6-0.4-0.8-0.6c-0.3-0.2-0.6-0.4-0.8-0.6s-0.4-0.3-0.6-0.5l0,0c-0.1-0.1-0.3-0.2-0.4-0.4
			c-0.3-0.3-0.6-0.5-0.8-0.8c-0.3-0.3-0.5-0.6-0.8-0.9c-0.1-0.2-0.3-0.4-0.4-0.6c-0.1-0.2-0.3-0.4-0.4-0.6c-0.2-0.3-0.4-0.6-0.5-0.9
			c-0.1-0.2-0.2-0.4-0.3-0.6c-0.3-0.7-0.6-1.4-0.9-2.2c-0.1-0.2-0.2-0.5-0.2-0.7v-0.1c-0.1-0.2-0.1-0.5-0.2-0.8
			c-0.1-0.5-0.2-1-0.2-1.5c0-0.2-0.1-0.5-0.1-0.7c0-0.1,0-0.1,0-0.2c0-0.3,0-0.7,0-1c0-8.9,7.2-16.2,16.1-16.2c4.1,0,7.8,1.5,10.6,4
			l0.4,0.4c0.2,0.2,0.4,0.4,0.6,0.5l0.6,0.6L2327.5,1611.4z"/>
		<path class="st15" d="M2385.9,1598.6c0,8.5-6.6,15.5-15,16.1h-0.6c-0.2,0-0.3,0-0.5,0s-0.3,0-0.5,0h-33.8c0-1.3-0.5-2.5-1.4-3.4
			l23.4-23.4l0.4-0.4c0.3-0.2,0.5-0.5,0.8-0.8l0.3-0.3c2.8-2.5,6.6-4,10.7-4C2378.7,1582.5,2385.9,1589.7,2385.9,1598.6z"/>
	</g>
	<path class="st15" d="M1718.8,1514.6L1718.8,1514.6l-0.2,0.2c-0.2,0.3-0.5,0.5-0.8,0.8l-0.4,0.4c0-0.1,0.1-0.1,0.1-0.2
		C1718,1515.4,1718.4,1515,1718.8,1514.6L1718.8,1514.6z"/>
	<path class="st15" d="M1730.7,1542.7c-0.1,0-0.2,0-0.2,0l0,0c-0.3,0-0.6,0-0.9,0s-0.6,0-0.8,0l0,0c-0.1,0-0.2,0-0.3,0h0.8
		c0.1,0,0.3,0,0.5,0s0.3,0,0.5,0H1730.7z"/>
	<path class="st15" d="M1652.7,1542.7c-0.3,0-0.6,0-0.9,0s-0.6,0-0.9,0c0.1,0,0.3,0,0.4,0c0.2,0,0.3,0,0.5,0s0.3,0,0.5,0
		C1652.4,1542.7,1652.5,1542.7,1652.7,1542.7z"/>
	<path class="st15" d="M1745.8,1558.1c0-0.1,0-0.2,0-0.3c0-0.1,0-0.1,0-0.2s0-0.1,0-0.2l0,0c0-0.1,0-0.2,0-0.4v-0.1
		c0-0.2-0.1-0.5-0.1-0.7c0-0.1,0-0.2,0-0.2c0-0.1,0-0.2-0.1-0.3c-0.1-0.4-0.2-0.8-0.3-1.2c-0.1-0.4-0.2-0.7-0.4-1.1c0,0,0,0,0-0.1
		c-0.1-0.2-0.2-0.4-0.3-0.7c-0.1-0.2-0.1-0.3-0.2-0.5c-0.1-0.1-0.1-0.3-0.2-0.4c0-0.1-0.1-0.2-0.1-0.3c-0.1-0.1-0.1-0.2-0.2-0.3
		l-0.1-0.1l0,0l0,0c-0.1-0.1-0.2-0.3-0.2-0.4c-0.1-0.2-0.2-0.3-0.3-0.5c-0.1-0.2-0.2-0.3-0.3-0.5l0,0c-0.1-0.2-0.2-0.3-0.4-0.5
		c-0.1-0.2-0.2-0.3-0.4-0.5c-0.1-0.1-0.2-0.3-0.4-0.4c0,0,0-0.1-0.1-0.1c-0.1-0.1-0.2-0.2-0.4-0.4l0,0c-0.1-0.1-0.3-0.3-0.4-0.4
		s-0.2-0.2-0.4-0.4c-0.2-0.2-0.3-0.3-0.5-0.5c-0.2-0.1-0.3-0.2-0.5-0.4c-0.2-0.1-0.4-0.3-0.6-0.4c-0.1-0.1-0.2-0.2-0.4-0.2
		c-0.1-0.1-0.2-0.1-0.3-0.2c-0.1-0.1-0.3-0.2-0.4-0.2c-0.2-0.1-0.4-0.2-0.7-0.4c-0.1,0-0.2-0.1-0.3-0.2c-0.1,0-0.2-0.1-0.2-0.1
		c-0.1,0-0.1-0.1-0.2-0.1l0,0c-0.2-0.1-0.4-0.2-0.6-0.2c0,0,0,0-0.1,0s-0.3-0.1-0.4-0.1c-0.1-0.1-0.3-0.1-0.4-0.1h-0.1
		c-0.1,0-0.2-0.1-0.3-0.1c-0.1,0-0.2-0.1-0.3-0.1c-0.1,0-0.2,0-0.2-0.1c-0.1,0-0.2-0.1-0.3-0.1c-0.1,0-0.2,0-0.2-0.1
		c-0.1,0-0.2-0.1-0.4-0.1h-0.1c0,0,0,0-0.1,0c-0.2-0.1-0.4-0.1-0.7-0.1h-0.1c-0.1,0-0.1,0-0.2,0l0,0l0,0c-0.1,0-0.2,0-0.3,0l0,0
		c-0.1,0-0.1,0-0.2,0s-0.1,0-0.2,0l0,0c-0.1,0-0.1,0-0.2,0s-0.1,0-0.2,0l0,0c-0.1,0-0.2,0-0.4,0l0,0c-0.3,0-0.6,0-0.9,0
		s-0.6,0-0.8,0l0,0l0,0c-0.1,0-0.2,0-0.3,0h-33c0,1.3-0.5,2.5-1.4,3.4l23,23l0.6,0.6c0.1,0.1,0.2,0.2,0.4,0.4l0.4,0.4
		c0,0,0,0,0.1,0.1c0,0,0,0.1,0.1,0.1c0.2,0.1,0.3,0.3,0.5,0.4l0.1,0.1c0.1,0.1,0.3,0.2,0.4,0.3l0,0c0.2,0.1,0.3,0.3,0.5,0.4
		s0.4,0.3,0.5,0.4s0.2,0.1,0.3,0.2c0.1,0.1,0.2,0.1,0.3,0.2c0.1,0.1,0.2,0.1,0.3,0.2l0,0c0.1,0,0.1,0.1,0.2,0.1
		c0.1,0.1,0.2,0.1,0.3,0.2c0.3,0.2,0.6,0.3,0.9,0.4c0.1,0.1,0.2,0.1,0.3,0.1c0.1,0.1,0.2,0.1,0.3,0.2c0.4,0.2,0.9,0.3,1.3,0.5
		c0.1,0,0.2,0.1,0.4,0.1c0.2,0.1,0.5,0.1,0.8,0.2c0.1,0,0.3,0.1,0.4,0.1s0.2,0,0.3,0.1c0.1,0,0.2,0,0.3,0.1c0.2,0,0.4,0,0.6,0.1
		c0.1,0,0.2,0,0.3,0c0.1,0,0.2,0,0.2,0c0.1,0,0.2,0,0.3,0c0.2,0,0.5,0,0.7,0h0.9c0.3,0,0.5,0,0.8,0c0.1,0,0.1,0,0.2,0
		c0.2,0,0.4,0,0.6-0.1c0,0,0,0,0.1,0s0.2,0,0.4-0.1c0.3,0,0.5-0.1,0.8-0.1c0.1,0,0.3-0.1,0.4-0.1c0.2,0,0.3-0.1,0.5-0.1
		c0.1,0,0.1,0,0.2-0.1c0.2,0,0.3-0.1,0.5-0.1c0.1,0,0.3-0.1,0.4-0.1s0.1,0,0.2-0.1c0.2,0,0.3-0.1,0.5-0.2c0.1,0,0.2-0.1,0.4-0.1
		l0.4-0.2c0.1,0,0.2-0.1,0.3-0.1c0.1-0.1,0.3-0.1,0.4-0.2s0.2-0.1,0.3-0.2c0.1,0,0.2-0.1,0.3-0.2c0.1-0.1,0.2-0.1,0.4-0.2l0.3-0.2
		c0.1-0.1,0.2-0.1,0.3-0.2c0.1-0.1,0.2-0.1,0.3-0.2c0.2-0.1,0.4-0.3,0.6-0.5c0.1-0.1,0.2-0.2,0.3-0.2c0.1-0.1,0.2-0.2,0.3-0.2
		c0.1-0.1,0.2-0.2,0.3-0.2c0.1-0.1,0.2-0.2,0.3-0.3c0.1-0.1,0.2-0.2,0.3-0.3c0.4-0.4,0.7-0.7,1.1-1.1l0,0c0.1-0.1,0.2-0.2,0.2-0.3
		c0.1-0.2,0.2-0.3,0.4-0.5c0.1-0.2,0.2-0.3,0.3-0.5c0.1-0.2,0.3-0.4,0.4-0.6c0.1-0.1,0.1-0.2,0.2-0.3c0.1-0.1,0.1-0.2,0.2-0.3
		c0-0.1,0.1-0.2,0.2-0.3l0,0c0,0,0-0.1,0.1-0.1c0-0.1,0.1-0.1,0.1-0.2c0.1-0.1,0.1-0.3,0.2-0.4s0.1-0.2,0.2-0.3
		c0-0.1,0.1-0.2,0.1-0.3c0,0,0,0,0-0.1s0.1-0.2,0.1-0.3v-0.1c0,0,0-0.1,0.1-0.2c0-0.1,0-0.1,0.1-0.2c0-0.1,0.1-0.2,0.1-0.3
		c0-0.1,0.1-0.2,0.1-0.3c0.1-0.1,0.1-0.3,0.1-0.4l0,0c0-0.1,0.1-0.3,0.1-0.4l0,0l0,0c0.1-0.2,0.1-0.4,0.2-0.7l0,0c0-0.1,0-0.1,0-0.2
		s0-0.1,0-0.2s0-0.2,0.1-0.4l0,0c0-0.1,0-0.2,0.1-0.4l0,0v-0.1c0-0.1,0-0.1,0-0.1v-0.1v-0.1c0-0.1,0-0.2,0-0.4c0-0.1,0-0.2,0-0.3
		v-0.1c0-0.1,0-0.1,0-0.1c0-0.1,0-0.2,0-0.3c0-0.1,0-0.2,0-0.4C1745.8,1558.6,1745.8,1558.4,1745.8,1558.1z"/>
	<path class="st15" d="M1727.5,1542.9c-0.2,0-0.4,0.1-0.7,0.1c0.1,0,0.2,0,0.3-0.1C1727.3,1542.9,1727.4,1542.9,1727.5,1542.9z"/>
	<path class="st15" d="M1728.6,1542.8c-0.1,0-0.2,0-0.3,0C1728.4,1542.8,1728.4,1542.8,1728.6,1542.8
		C1728.5,1542.8,1728.5,1542.8,1728.6,1542.8z"/>
	<path class="st15" d="M1728.7,1542.8C1728.7,1542.8,1728.6,1542.8,1728.7,1542.8C1728.6,1542.8,1728.7,1542.8,1728.7,1542.8
		L1728.7,1542.8z"/>
	<path class="st15" d="M1730.5,1542.7c-0.3,0-0.6,0-0.9,0s-0.6,0-0.8,0c0.1,0,0.3,0,0.4,0l0,0c0.1,0,0.3,0,0.5,0s0.3,0,0.5,0l0,0
		C1730.3,1542.7,1730.4,1542.7,1730.5,1542.7z"/>
	<path class="st15" d="M1744.3,1565.7c0.1-0.1,0.1-0.2,0.1-0.3c-2.5,5.7-8.2,9.7-14.8,9.7c-3.9,0-7.4-1.4-10.2-3.6
		c-0.1-0.1-0.1-0.1-0.2-0.2c-0.7-0.6-1.3-1.2-1.9-1.9c-0.1-0.1-0.2-0.2-0.2-0.3l0.6,0.6c0.1,0.1,0.3,0.2,0.4,0.3l0.2,0.2l0.1,0.1
		c0,0,0,0,0.1,0.1c0,0,0,0,0.1,0.1s0.3,0.3,0.5,0.4l0.1,0.1c0.1,0.1,0.3,0.2,0.4,0.3l0,0c0.2,0.1,0.3,0.3,0.5,0.4s0.4,0.3,0.5,0.4
		s0.2,0.1,0.3,0.2c0.1,0.1,0.2,0.1,0.3,0.2c0.1,0.1,0.2,0.1,0.3,0.2l0,0c0.1,0,0.1,0.1,0.2,0.1c0.1,0.1,0.2,0.1,0.3,0.2
		c0.3,0.2,0.6,0.3,0.9,0.4c0.1,0.1,0.2,0.1,0.3,0.2c0.1,0.1,0.2,0.1,0.4,0.1c0.4,0.2,0.9,0.3,1.3,0.5c0.1,0,0.3,0.1,0.4,0.1
		c0.3,0.1,0.5,0.1,0.8,0.2c0.1,0,0.3,0.1,0.4,0.1s0.2,0,0.3,0.1c0.1,0,0.2,0,0.3,0.1c0.2,0,0.4,0.1,0.6,0.1c0.1,0,0.2,0,0.3,0
		c0.1,0,0.2,0,0.2,0c0.1,0,0.2,0,0.3,0c0.2,0,0.5,0,0.7,0s0.3,0,0.5,0c0.1,0,0.3,0,0.4,0c0.3,0,0.5,0,0.8,0c0.1,0,0.1,0,0.2,0
		c0.2,0,0.4,0,0.6-0.1h0.1c0.1,0,0.3,0,0.4-0.1c0.3,0,0.5-0.1,0.8-0.1c0.1,0,0.3-0.1,0.4-0.1c0.2,0,0.3-0.1,0.5-0.1
		c0.1,0,0.1,0,0.2,0c0.2,0,0.3-0.1,0.5-0.1c0.1,0,0.3-0.1,0.4-0.1s0.1,0,0.2-0.1c0.2-0.1,0.3-0.1,0.5-0.2c0.1,0,0.2-0.1,0.4-0.1
		c0.1-0.1,0.2-0.1,0.4-0.2c0.1,0,0.2-0.1,0.3-0.1c0.1-0.1,0.3-0.1,0.4-0.2s0.2-0.1,0.3-0.2c0.1-0.1,0.2-0.1,0.3-0.2
		c0.1-0.1,0.3-0.1,0.4-0.2s0.2-0.1,0.3-0.2c0.1-0.1,0.2-0.1,0.3-0.2c0.1-0.1,0.2-0.1,0.3-0.2c0.2-0.1,0.4-0.3,0.6-0.5
		c0.1-0.1,0.2-0.2,0.3-0.2c0.1-0.1,0.2-0.2,0.3-0.2s0.2-0.2,0.3-0.3c0.1-0.1,0.2-0.2,0.3-0.3c0.1-0.1,0.2-0.2,0.3-0.3
		c0.4-0.4,0.7-0.7,1.1-1.1l0,0c0.1-0.1,0.1-0.2,0.2-0.3c0.1-0.2,0.3-0.3,0.4-0.5s0.2-0.3,0.4-0.5c0.1-0.2,0.3-0.4,0.4-0.6
		s0.3-0.4,0.4-0.6c0.1-0.1,0.1-0.2,0.1-0.3c0.1-0.1,0.1-0.3,0.2-0.4C1744.1,1566,1744.2,1565.9,1744.3,1565.7z"/>
	<path class="st3" d="M2708.7,922L2550,396.6c0,0-10.8-48.3-40.8,12.5s-55.3,110-55.3,110"/>
	<path class="st3" d="M2794.7,1846.5L2636,1321.2c0,0-10.8-48.3-40.8,12.5s-55.3,110-55.3,110"/>
	<path class="st15" d="M1645.6,1572.6c-0.6,0.1-1.2,0.2-1.9,0.3c-0.1,0-0.2,0-0.4,0.1c-1.9,0.3-3.8,0.6-5.8,0.9
		c-3.5,0.5-7.1,0.9-10.9,1.4c-22.2,2.5-49.1,4-78.2,4c-73.1,0-132.8-9.4-136.8-21.3l0,0v-0.1c-0.1-0.4-0.2-0.8-0.2-1.2
		c0-12.4,61.3-22.5,137-22.5c30.2,0,58.2,1.6,80.8,4.3c1.3,0.2,2.7,0.3,4,0.5c3.5,0.4,6.8,0.9,10,1.4l0,0c4.7,0.7,9,1.5,13,2.4
		c0.3,0.1,0.6,0.1,0.9,0.2h-7.9"/>
	<path class="st15" d="M1657.2,1542.9c17.8,3.8,28.3,8.6,28.3,13.7c0,0.4-0.1,0.8-0.2,1.2c0,0,0,0,0,0.1l0,0
		c-0.9,2.7-4.7,5.2-10.8,7.6c-4.5,1.8-10.4,3.4-17.3,4.9"/>
	<g>
		<path class="st15" d="M1653.9,2153.6c0.6,0.7,0.8,1.4,0.8,2.2c0,9.7-47.6,17.5-106.3,17.5c-58.7,0-106.3-7.8-106.3-17.5
			c0-0.7,0.3-1.5,0.8-2.2"/>
		<path class="st15" d="M1422.9,1632.4c-0.2-1.6-0.5-3.2-0.7-4.7"/>
		<path class="st15" d="M1429.1,1677.5c19.7,148.5,45.1,391.3,13.9,476c-0.3,0.7-0.5,1.5-0.8,2.2"/>
		<path class="st15" d="M1418.5,1602.1c-3.6-23.9-6.1-39.8-6.8-44.2l0,0v-0.1c-0.1-0.8-0.2-1.2-0.2-1.2"/>
		<path class="st15" d="M1641.7,2088.3c-0.3-3-0.5-6.1-0.7-9.3"/>
		<path class="st15" d="M1645.9,2121.9c2.1,12.1,4.8,22.8,8,31.7c0.3,0.7,0.6,1.5,0.8,2.2"/>
		<path class="st15" d="M1639.3,2020.9c0.2-139.4,26.1-331,39.1-417.9l0,0c0.3-2,0.6-3.9,0.8-5.7l0,0c0.1-0.4,0.1-0.9,0.2-1.3
			c0.1-0.8,0.2-1.6,0.4-2.4c2.9-19.2,4.9-31.8,5.6-35.7l0,0v-0.1c0.1-0.8,0.2-1.2,0.2-1.2"/>
	</g>
	<ellipse class="st5" cx="1548.5" cy="1616" rx="113.9" ry="18.7"/>
	<path class="st15" d="M1657.2,1570.4c-3.6,0.8-7.5,1.5-11.6,2.2"/>
	<polyline class="st15" points="1690.7,1582.3 1690.7,1582 1690.7,1574.1 	"/>
	<line class="st15" x1="1643.3" y1="1572.9" x2="1643.3" y2="1572.6"/>
	<path class="st11" d="M1551,1768.7l-51.7,12.9c-9.6,2.4-19.4-3.5-21.8-13.1l-12.4-49.5c-2.4-9.6,3.5-19.4,13.1-21.8l51.7-12.9
		c9.6-2.4,19.4,3.5,21.8,13.1l12.4,49.5C1566.5,1756.5,1560.6,1766.3,1551,1768.7z"/>
	<path class="st2" d="M1936.1,1687.5c0.2,0.4,0.4,0.8,0.6,1.1c30.3,54.6,97,94.9,171.4,94.9c75,0,142.2-40.8,172.1-96H1936.1z"/>
	<path class="st11" d="M1575.2,1868.8l-51.4-14.1c-9.5-2.6-15.2-12.6-12.6-22.1l13.5-49.2c2.6-9.5,12.6-15.2,22.1-12.6l51.4,14.1
		c9.5,2.6,15.2,12.6,12.6,22.1l-13.5,49.2C1594.7,1865.7,1584.7,1871.4,1575.2,1868.8z"/>
	<path class="st15" d="M2000.5,1607.5c-4.9,0.3-9.7,0.7-14.4,1"/>
	<path class="st15" d="M2211.4,1607.2c21.7,1.3,41.3,3.1,58,5.2c1.7,0.2,3.4,0.4,5.1,0.7c34.1,4.5,55,10.5,55.4,17
		c0,0.1,0,0.1,0,0.2c0,0.7-0.2,1.4-0.7,2c-3.2,4.9-17.9,9.4-41,13.1c-3.1,0.5-6.4,1-9.9,1.5c-33.9,4.7-82,8-136.7,9
		c-11,0.2-22.2,0.3-33.7,0.3c-116.7,0-212.4-10.5-221.2-23.9c-0.4-0.7-0.7-1.3-0.7-2c0-0.1,0-0.1,0-0.2c0.4-7.3,26.6-13.9,68.4-18.5
		"/>
	<path class="st15" d="M2044.5,1605.3c20.1-0.7,41.4-1.1,63.5-1.1c13.6,0,27,0.1,40,0.4"/>
	<ellipse class="st5" cx="2108.2" cy="1686.7" rx="172.2" ry="20"/>
	<path class="st15" d="M2093.2,2080.6c-67.1,0.9-119.3,7.5-119.3,15.6c0,5.2,22,9.9,55.8,12.7"/>
	<path class="st15" d="M2123,2080.6c67.1,0.9,119.3,7.5,119.3,15.6c0,8.7-60.1,15.7-134.2,15.7c-16.3,0-31.8-0.3-46.3-1"/>
	<path class="st15" d="M2130.1,1795.4c94.6-9,172.6-74.9,199.2-163.2c0.2-0.7,0.4-1.5,0.7-2.2"/>
	<path class="st15" d="M1886.2,1630c0.2,0.7,0.4,1.5,0.7,2.2c26.6,88.3,104.6,154.2,199.2,163.2"/>
	<g>
		<path class="st15" d="M2086,1795.4c6.2,7,16.8,32.4,16.2,123.5c-0.8,124.5,2.3,148.8-9.1,161.7"/>
		<path class="st15" d="M2114.1,2013.5c0-3.1,0-6.4,0-9.8"/>
		<path class="st15" d="M2114,1990.1c0-19.1,0-42.5-0.2-71.1c-0.6-91.2,10-116.5,16.2-123.5"/>
		<path class="st15" d="M2123,2080.6c-4.9-5.5-7.1-13.2-8.1-30.1"/>
	</g>
	<g>
		<circle class="st3" cx="2179.9" cy="1602.5" r="31.9"/>
		<line class="st3" x1="2218.7" y1="1546.4" x2="2077.5" y2="1747.2"/>
	</g>
	<line class="st9" x1="1211.4" y1="2576.8" x2="1212.6" y2="2613.6"/>
	<g>
		<path class="st5" d="M-1113.4,864.6c0,40.7,10.4,78.9,28.8,112.2c23.1,41.9,58.8,76,102,97c30.8,15,65.3,23.4,101.8,23.4
			c28.3,0,55.4-5,80.4-14.3c51.1-18.8,93.8-55.1,120.9-101.7c19.9-34.3,31.4-74.2,31.4-116.7"/>
		<path class="st9" d="M-1123,872.4c0,40.7,10.5,79,28.8,112.3c23.2,42,58.9,76.1,102.1,97.1c30.8,15,65.4,23.4,102,23.4
			c28.3,0,55.4-5,80.5-14.3c51.2-18.9,93.9-55.2,121-101.8c20-34.3,31.4-74.3,31.4-116.9"/>
		<polyline class="st9" points="-657.1,872.4 -696.7,872.4 -870.8,872.4 -890,872.4 -909.3,872.4 -1083.4,872.4 -1123,872.4 		"/>
		<path class="st9" d="M-870.8,872.4c0,3.5-0.9,6.8-2.6,9.7c-2.2,3.8-5.8,6.8-10,8.4c-2.1,0.8-4.3,1.2-6.6,1.2c-3,0-5.9-0.7-8.4-1.9
			c-3.6-1.7-6.5-4.6-8.4-8c-1.5-2.8-2.4-5.9-2.4-9.3"/>
		<line class="st9" x1="-906.9" y1="881.7" x2="-1059.5" y2="965.6"/>
		<line class="st9" x1="-722.7" y1="969.4" x2="-873.4" y2="882"/>
		<line class="st9" x1="-823.2" y1="1053.9" x2="-883.4" y2="890.4"/>
		<line class="st9" x1="-898.5" y1="889.7" x2="-974.7" y2="1046.3"/>
		<path class="st9" d="M-1087,872.4c0,108.8,88.2,196.9,196.9,196.9c108.8,0,196.9-88.2,196.9-196.9"/>
	</g>
	<g>
		<ellipse class="st3" cx="-936.6" cy="-617.6" rx="141.5" ry="12.5"/>
		<path class="st3" d="M-1077.9,31c-0.2,0.2-0.2,0.5-0.2,0.7s0.1,0.5,0.2,0.7c4.3,6.5,65.9,11.7,141.3,11.7
			c75.3,0,136.9-5.2,141.3-11.7c0.2-0.2,0.2-0.5,0.2-0.7s-0.1-0.5-0.2-0.7"/>
		<path class="st3" d="M-1077.9-53.2c-0.2,0.2-0.2,0.5-0.2,0.7s0.1,0.5,0.2,0.7c4.3,6.5,65.9,11.7,141.3,11.7
			c75.3,0,136.9-5.2,141.3-11.7c0.2-0.2,0.2-0.5,0.2-0.7s-0.1-0.5-0.2-0.7"/>
		<line class="st3" x1="-795.3" y1="-386.9" x2="-795.3" y2="-578.8"/>
		<polyline class="st3" points="-795.3,-280.8 -795.3,-53.3 -795.3,-51.8 -795.3,-34.2 		"/>
		<line class="st3" x1="-795.3" y1="33.5" x2="-795.3" y2="-0.5"/>
		<line class="st3" x1="-795.3" y1="-337.2" x2="-795.3" y2="-343"/>
		<polyline class="st3" points="-795.3,-606.4 -795.3,-614.1 -795.3,-616.9 		"/>
		<line class="st3" x1="-1077.9" y1="-553.5" x2="-1077.9" y2="-560.2"/>
		<polyline class="st3" points="-1077.9,-515.5 -1077.9,-53.2 -1077.9,-51.8 -1077.9,33.5 		"/>
		<polyline class="st3" points="-1077.9,-583.6 -1077.9,-616.9 -1077.9,-618.3 -1077.9,-618.3 		"/>
		<ellipse class="st5" cx="-936.6" cy="-534.2" rx="124.6" ry="11"/>
		<path class="st2" d="M-812-534.2c0,0-7.2,377-12,419.7c-3.1,28-37.8,43.4-71.7,51c-23.8,5.3-67,6.9-90.7,0.9
			c-26.4-6.6-55.2-21.2-61-53.1c-11.1-61.6-13.8-418.4-13.8-418.4c0,6.1,55.8,11,124.6,11C-867.8-523.3-812-528.2-812-534.2z"/>
		<circle class="st11" cx="-836.3" cy="-713.1" r="21.3"/>
		<line class="st3" x1="-845.9" y1="-694.3" x2="-1047.4" y2="-278.2"/>
		<path class="st11" d="M-889.6-154.2l-45.9,26.5c-8.6,4.9-19.6,2-24.6-6.6l-25.4-44c-4.9-8.6-2-19.6,6.6-24.6l45.9-26.5
			c8.6-4.9,19.6-2,24.6,6.6l25.4,44C-878-170.2-881-159.1-889.6-154.2z"/>
		<path class="st11" d="M-882.9-244.1l-52.9,4c-9.9,0.7-18.6-6.7-19.3-16.6l-3.8-50.7c-0.7-9.9,6.7-18.6,16.6-19.3l52.9-4
			c9.9-0.7,18.6,6.7,19.3,16.6l3.8,50.7C-865.6-253.5-873-244.8-882.9-244.1z"/>
		<path class="st11" d="M-880.4-333.7l-37.5,37.5c-7,7-18.5,7-25.5,0l-35.9-35.9c-7-7-7-18.5,0-25.5l37.5-37.5c7-7,18.5-7,25.5,0
			l35.9,35.9C-873.4-352.1-873.4-340.7-880.4-333.7z"/>
		<g>
			<path class="st5" d="M-924.8-504c-8.6,8.8-14.4,19.2-17.4,30.3c-3.9,13.9-3.3,28.8,1.5,42.4c3.5,9.7,9.1,18.8,17,26.5
				c6.1,6,13,10.6,20.4,13.9c15,6.7,31.8,7.9,47.5,3.6c11.5-3.2,22.4-9.4,31.4-18.6"/>
			<path class="st9" d="M-928.5-504.4c-8.6,8.8-14.4,19.2-17.5,30.3c-3.9,13.9-3.3,28.8,1.6,42.5c3.5,9.7,9.2,18.8,17,26.5
				c6.1,6,13,10.6,20.4,13.9c15,6.7,31.9,7.9,47.5,3.6c11.5-3.2,22.4-9.4,31.4-18.6"/>
			<polyline class="st9" points="-828.1,-406.2 -836.6,-414.5 -874.2,-451.2 -878.3,-455.3 -882.4,-459.3 -920,-496 -928.5,-504.4 
							"/>
			<path class="st9" d="M-874.2-451.2c-0.7,0.8-1.6,1.3-2.6,1.5c-1.3,0.4-2.7,0.3-3.9-0.3c-0.6-0.3-1.2-0.7-1.7-1.1
				c-0.7-0.6-1.1-1.4-1.4-2.2c-0.4-1.1-0.4-2.4-0.1-3.5c0.3-0.9,0.7-1.8,1.4-2.5"/>
			<line class="st9" x1="-883.9" y1="-456.8" x2="-934.5" y2="-470.9"/>
			<line class="st9" x1="-862.7" y1="-399.1" x2="-876.8" y2="-449.7"/>
			<line class="st9" x1="-902.1" y1="-402.1" x2="-880.7" y2="-450"/>
			<line class="st9" x1="-883.8" y1="-453.3" x2="-933.2" y2="-435.6"/>
			<path class="st9" d="M-920.8-496.8c-22.9,23.5-22.5,61,1,84c23.5,22.9,61,22.5,84-1"/>
		</g>
	</g>
	<path class="st2" d="M1662.3,1616.8c-70.9,490.3-44.6,490.3-37.6,509c1.8,4.8,0.5,8.2-2.3,10.6c-9,9.9-38.8,17.1-74.1,17.1
		c-34,0-62.9-6.8-73-16.1c-6.8-4.4-3.5-10.5-3.5-10.5c35.2-141.7-32.4-486.9-37-509.8c-0.1-0.8-0.2-1.2-0.2-1.2h227.8
		C1662.4,1616.2,1662.3,1616.5,1662.3,1616.8z"/>
</g>
<path class="st13" d="M741,169.4v112.8c0.1,3.2-2.5,5.9-5.8,5.9h-116"/>
</svg>
