<?xml version="1.0" encoding="utf-8"?>
<!-- Generator: Adobe Illustrator 24.3.0, SVG Export Plug-In . SVG Version: 6.00 Build 0)  -->
<svg version="1.1" id="Layer_1" xmlns="http://www.w3.org/2000/svg" xmlns:xlink="http://www.w3.org/1999/xlink" x="0px" y="0px"
	 viewBox="0 0 368.4 792" style="enable-background:new 0 0 368.4 792;" xml:space="preserve">
<style type="text/css">
	.st0{display:none;}
	.st1{display:inline;fill:#C5CAD6;}
	.st2{fill:#BC520A;}
	.st3{fill:none;stroke:#C5CAD6;stroke-width:7;stroke-linecap:round;stroke-miterlimit:10;}
	.st4{fill:none;stroke:#383735;stroke-width:7;stroke-linecap:round;stroke-miterlimit:10;}
	.st5{fill:none;stroke:#000000;stroke-width:5;stroke-miterlimit:10;}
	.st6{fill:#9B450B;}
	.st7{fill:#383735;}
	.st8{fill:#273244;}
	.st9{fill:#C5CAD6;}
	.st10{fill:none;stroke:#383735;stroke-width:7;stroke-linecap:round;stroke-linejoin:round;stroke-miterlimit:10;}
	.st11{fill:none;stroke:#383735;stroke-width:2;stroke-linecap:round;stroke-linejoin:round;stroke-miterlimit:10;}
	.st12{fill:none;stroke:#383735;stroke-width:7;stroke-miterlimit:10;}
	.st13{fill:none;stroke:#383735;stroke-width:6.9997;stroke-linecap:round;stroke-linejoin:round;stroke-miterlimit:9.9996;}
	.st14{fill:none;stroke:#383735;stroke-width:7.0001;stroke-linecap:round;stroke-miterlimit:10.0002;}
	.st15{fill:none;stroke:#C5CAD6;stroke-width:7;stroke-miterlimit:10;}
	.st16{fill:none;stroke:#383735;stroke-width:5;stroke-linecap:round;stroke-linejoin:round;stroke-miterlimit:10;}
</style>
<g id="Layer_2_1_" class="st0">
	<rect x="-228.5" y="-26.2" class="st1" width="664.1" height="842"/>
</g>
<path class="st2" d="M2289.7,251.2C2289.7,251.3,2289.7,251.3,2289.7,251.2c-1.1,0.9-37.1,30.2-73.2,59.5l0,0
	c-6.9,5.6-13.7,11.1-20.3,16.5c-24.4,19.9-45.6,37.1-51.4,41.8c-15.8,12.8-31.1,0-31.1,0L1981,261.3l-17-13.8c0,0-0.1,0-0.1-0.1
	h-0.1l-0.8-0.7l11.1,0.2l210.5,2.9l0,0L2289.7,251.2z"/>
<path class="st3" d="M-330.3,291h-116c-3.2,0-5.8-2.6-5.8-5.8V172.3c0-3.2,2.6-5.8,5.8-5.8h116c3.2,0,5.8,2.6,5.8,5.8v112.8
	C-324.4,288.3-327,291-330.3,291z"/>
<g>
	<circle class="st4" cx="-749" cy="201.8" r="28.3"/>
	<line class="st4" x1="-749.4" y1="141.2" x2="-749.4" y2="359.2"/>
</g>
<circle class="st4" cx="-853.6" cy="201.8" r="20.1"/>
<line class="st4" x1="-854.1" y1="141.2" x2="-854.1" y2="419.5"/>
<path class="st5" d="M-325.7,723.8c0,0.1,0,0.2,0.1,0.4c-0.1-0.3-0.1-0.6-0.2-0.9C-325.8,723.5-325.7,723.6-325.7,723.8z"/>
<path class="st5" d="M-325.5,725.3c-0.1-0.4-0.1-0.8-0.2-1.1c0,0.2,0.1,0.4,0.1,0.6C-325.5,725-325.5,725.1-325.5,725.3z"/>
<path class="st5" d="M-325.2,726.8c0-0.3-0.1-0.6-0.1-0.9c0,0.2,0.1,0.4,0.1,0.7C-325.3,726.7-325.2,726.7-325.2,726.8z"/>
<path class="st5" d="M-325.4,725.9c0-0.2-0.1-0.4-0.1-0.6C-325.4,725.5-325.4,725.7-325.4,725.9z"/>
<path class="st5" d="M-325.1,727.8c0-0.3-0.1-0.6-0.1-1c0,0.1,0,0.3,0,0.4C-325.2,727.4-325.2,727.6-325.1,727.8z"/>
<path class="st5" d="M-325,729.9c0-0.7-0.1-1.4-0.2-2.1c0,0.4,0.1,0.8,0.1,1.1c0,0.1,0,0.2,0,0.3C-325,729.5-325,729.7-325,729.9z"
	/>
<g>
	<circle class="st6" cx="-481.4" cy="687.5" r="164.7"/>
	<g>
		<path class="st4" d="M-543.4,759.7c-0.3,0.3-0.6,0.7-0.9,1c-0.5,0.6-1.1,1.2-1.6,1.7c-0.1,0.1-0.2,0.2-0.3,0.3
			c-0.5,0.5-1.1,1-1.6,1.5c-0.2,0.2-0.5,0.5-0.8,0.7l2.4-2.4L-543.4,759.7z"/>
		<path class="st4" d="M-575.1,688.8h1.8c-0.3,0-0.5,0-0.8,0c-0.8,0-1.6,0.1-2.4,0.1s-1.6,0-2.4-0.1c-0.3,0-0.5,0-0.8,0h1.8
			c0.5,0,0.9,0,1.3,0S-575.6,688.8-575.1,688.8z"/>
		<path class="st4" d="M-544.5,616.7c0.2,0.2,0.4,0.4,0.5,0.6l-1.5-1.5l-1.5-1.5l-1.2-1.2c0.2,0.1,0.3,0.3,0.4,0.4
			C-546.5,614.5-545.5,615.6-544.5,616.7L-544.5,616.7z"/>
		<path class="st4" d="M-472.4,584.5c0,0.4,0,0.7,0,1.1v-2.2C-472.4,583.8-472.4,584.2-472.4,584.5z"/>
		<path class="st4" d="M-459.7,688.8c0,3.5-1.4,6.7-3.7,9s-5.5,3.7-9,3.7s-6.7-1.4-9-3.7s-3.7-5.5-3.7-9s1.4-6.7,3.7-9
			c2.3-2.3,5.5-3.7,9-3.7s6.7,1.4,9,3.7C-461.2,682.1-459.7,685.3-459.7,688.8z"/>
		<path class="st4" d="M-472.5,794.6v-2.7c0,0.2,0,0.4,0,0.6v0.2v0.5c0,0.1,0,0.2,0,0.4c0,0.1,0,0.1,0,0.2
			c0.3,23.7,19.6,42.8,43.3,42.8c23.9,0,43.3-19.4,43.3-43.3c0-10.7-3.9-20.5-10.4-28.1c-1.8-1.5-3.5-3.2-5-5
			c-0.2-0.2-0.4-0.5-0.6-0.8l1.6,1.6l3.4,3.4l1.2,1.2"/>
		<path class="st4" d="M-472.5,853.2c45.4,0,86.5-18.4,116.3-48.2"/>
		<path class="st4" d="M-399.8,616.1l-1,1c0.1-0.2,0.2-0.3,0.4-0.4c1-1.1,2-2.1,3.1-3.1l0,0c0.1-0.1,0.2-0.2,0.3-0.3l-0.7,0.7
			C-398.4,614.7-399.1,615.4-399.8,616.1z"/>
		<path class="st4" d="M-372.4,689c-0.1,0-0.2,0-0.4,0l0,0C-372.7,689-372.5,689-372.4,689z"/>
		<path class="st4" d="M-371,688.9c-0.2,0-0.5,0-0.7,0c0.1,0,0.3,0,0.5,0C-371.2,688.9-371.1,688.9-371,688.9z"/>
		<path class="st4" d="M-365.3,688.8c-0.2,0-0.4,0-0.6,0h-0.1c-0.8,0.1-1.6,0.1-2.4,0.1s-1.5,0-2.2-0.1h-0.1c-0.3,0-0.6,0-0.9-0.1
			h2.1c0.4,0,0.8,0,1.2,0c0.5,0,0.9,0,1.3,0L-365.3,688.8L-365.3,688.8z"/>
		<path class="st4" d="M-364.9,688.9L-364.9,688.9c-0.4,0-0.7,0-1-0.1C-365.6,688.8-365.2,688.8-364.9,688.9L-364.9,688.9z"/>
		<path class="st4" d="M-363.4,689c-0.2,0-0.3,0-0.5-0.1l0,0c-0.2,0-0.4,0-0.5,0c0.2,0,0.4,0,0.6,0C-363.7,689-363.5,689-363.4,689z
			"/>
		<path class="st4" d="M-327.6,717.1c0-0.1-0.1-0.3-0.2-0.4c-0.2-0.5-0.4-1-0.6-1.5c-0.2-0.4-0.3-0.8-0.5-1.2s-0.3-0.8-0.5-1.2
			c-0.1-0.2-0.2-0.5-0.4-0.7c-0.1-0.3-0.3-0.5-0.4-0.8c-0.1-0.1-0.1-0.2-0.2-0.3c-0.2-0.4-0.5-0.9-0.7-1.3c-0.3-0.5-0.6-0.9-0.9-1.4
			s-0.6-0.9-0.9-1.3l0,0c-0.3-0.4-0.6-0.9-1-1.3s-0.7-0.8-1-1.2s-0.6-0.8-1-1.1c-0.1-0.1-0.1-0.2-0.2-0.2c-0.3-0.3-0.6-0.7-0.9-1
			c0,0,0-0.1-0.1-0.1c-0.4-0.4-0.7-0.7-1.1-1.1c-0.3-0.3-0.7-0.6-1-0.9c-0.5-0.4-0.9-0.8-1.4-1.2c-0.4-0.3-0.8-0.7-1.2-1
			c-0.5-0.4-1-0.8-1.5-1.1c-0.3-0.2-0.7-0.5-1-0.7s-0.6-0.4-0.9-0.6c-0.3-0.2-0.7-0.4-1-0.6c-0.6-0.4-1.2-0.7-1.8-1
			c-0.2-0.1-0.5-0.3-0.8-0.4c-0.4-0.2-0.8-0.4-1.3-0.6c-0.5-0.2-1-0.5-1.5-0.7c-0.4-0.2-0.8-0.3-1.2-0.5c-0.3-0.1-0.7-0.3-1-0.4
			c-0.1,0-0.3-0.1-0.4-0.1c-0.3-0.1-0.6-0.2-0.8-0.3c-0.2-0.1-0.5-0.2-0.7-0.2c-0.2-0.1-0.5-0.1-0.7-0.2c-0.3-0.1-0.6-0.2-0.9-0.2
			c-0.2-0.1-0.4-0.1-0.6-0.2c-0.3-0.1-0.6-0.2-1-0.2c-0.7-0.2-1.4-0.3-2.1-0.4c-0.3,0-0.6-0.1-0.9-0.1c0.2,0,0.4,0.1,0.6,0.1l0,0
			c0.5,0.1,1,0.2,1.4,0.3c0.2,0,0.4,0.1,0.6,0.1h0.1h0.1c0.5,0.1,0.9,0.2,1.4,0.3c0.1,0,0.3,0.1,0.4,0.1c0.5,0.1,0.9,0.2,1.4,0.4
			c0.6,0.2,1.2,0.4,1.8,0.6c0.5,0.2,1,0.3,1.5,0.5c0.3,0.1,0.6,0.2,0.8,0.3c0.5,0.2,1.1,0.5,1.6,0.7c0.3,0.1,0.5,0.2,0.8,0.4
			c0.6,0.3,1.2,0.6,1.7,0.9l0,0c0.6,0.3,1.1,0.6,1.7,1c0.3,0.2,0.6,0.3,0.8,0.5c0.3,0.2,0.7,0.4,1,0.6c0.3,0.2,0.7,0.4,1,0.7
			c0.6,0.5,1.3,0.9,1.9,1.4c0.2,0.2,0.4,0.3,0.6,0.5l0.1,0.1c0.4,0.3,0.8,0.6,1.1,1c0.4,0.3,0.8,0.7,1.1,1c0,0,0,0,0.1,0.1
			c0.2,0.2,0.5,0.4,0.7,0.7c0.2,0.2,0.5,0.5,0.7,0.7c0.3,0.4,0.7,0.7,1,1.1c0.3,0.4,0.6,0.7,0.9,1.1c0.2,0.2,0.4,0.5,0.6,0.8
			c0,0,0,0,0.1,0.1c0.3,0.4,0.7,0.9,1,1.3c0.2,0.3,0.5,0.7,0.7,1c0.3,0.4,0.5,0.8,0.8,1.2s0.5,0.8,0.8,1.2c0.2,0.3,0.3,0.6,0.5,0.9
			c0.3,0.6,0.6,1.1,0.9,1.7c0.3,0.6,0.6,1.2,0.8,1.8c0.1,0.3,0.3,0.6,0.4,0.9c0.4,0.9,0.7,1.8,1.1,2.8c0.1,0.3,0.2,0.6,0.3,1
			c0.1,0.3,0.2,0.6,0.3,1c0.1,0.5,0.3,1,0.4,1.5v0.1c0.1,0.5,0.2,0.9,0.3,1.4c0,0.1,0.1,0.3,0.1,0.4c-0.2-1.1-0.5-2.2-0.8-3.2
			C-326.9,719.1-327.2,718.1-327.6,717.1z"/>
		<path class="st4" d="M-459.7,688.8c0,3.5-1.4,6.7-3.7,9s-5.5,3.7-9,3.7s-6.7-1.4-9-3.7s-3.7-5.5-3.7-9s1.4-6.7,3.7-9
			c2.3-2.3,5.5-3.7,9-3.7s6.7,1.4,9,3.7C-461.2,682.1-459.7,685.3-459.7,688.8z"/>
		<line class="st4" x1="-366.8" y1="688.8" x2="-369.5" y2="688.8"/>
		<line class="st4" x1="-575.1" y1="688.8" x2="-577.8" y2="688.8"/>
		<line class="st4" x1="-545.4" y1="615.8" x2="-546.9" y2="614.3"/>
		<line class="st4" x1="-397.7" y1="614" x2="-399.8" y2="616.1"/>
		<path class="st4" d="M-472.5,583.4V676c-3.5,0-6.7,1.4-9,3.7l-62.5-62.5c-0.2-0.2-0.3-0.4-0.5-0.6l0,0c-1-1.1-2-2.1-3.1-3.1
			c-7-7.7-11.2-17.9-11.2-29c0-23.8,19.3-43.2,43.2-43.2C-492.1,541.3-473.1,560.1-472.5,583.4z"/>
		<path class="st4" d="M-544.5,616.7c-0.3-0.3-0.6-0.6-0.9-0.9l-1.5-1.5c-0.2-0.2-0.5-0.5-0.7-0.8
			C-546.5,614.5-545.5,615.6-544.5,616.7z"/>
		<path class="st4" d="M-472.4,584.5c0,0.4,0,0.7,0,1.1v-2.2C-472.4,583.8-472.4,584.2-472.4,584.5z"/>
		<path class="st4" d="M-386.1,584.5c0,11.2-4.2,21.4-11.2,29l0,0c-1.1,1-2.1,2-3.1,3.1c-0.1,0.1-0.3,0.3-0.4,0.4l-62.7,62.7
			c-2.3-2.3-5.5-3.7-9-3.7v-90.4c0-0.4,0-0.7,0-1.1c0-23.8,19.3-43.2,43.2-43.2S-386.1,560.7-386.1,584.5z"/>
		<path class="st4" d="M-397.3,613.6c-0.1,0.1-0.3,0.3-0.4,0.5c-0.6,0.7-1.3,1.4-2,2c-0.2,0.2-0.4,0.4-0.6,0.6
			C-399.4,615.6-398.4,614.5-397.3,613.6z"/>
		<path class="st4" d="M-385.8,793.3c0,23.9-19.4,43.3-43.3,43.3c-23.7,0-43-19.1-43.3-42.8c0-0.1,0-0.1,0-0.2c0-0.1,0-0.2,0-0.4
			v-0.7c0-0.2,0-0.4,0-0.6v-90.4c3.5,0,6.7-1.4,9-3.7l61.6,61.6c0.2,0.2,0.4,0.5,0.6,0.8c1.5,1.8,3.2,3.5,5,5
			C-389.7,772.7-385.8,782.5-385.8,793.3z"/>
		<path class="st4" d="M-472.4,793.3c0-0.2,0-0.4,0-0.6V793.3c0,0.1,0,0.2,0,0.4V793.3z"/>
		<path class="st4" d="M-396.2,765.2c-1.8-1.5-3.5-3.2-5-5c0.3,0.3,0.6,0.5,0.9,0.8s0.7,0.6,1,0.9l0.6,0.6c0.1,0.1,0.2,0.2,0.3,0.3
			c0,0,0.1,0.1,0.2,0.2c0.1,0.1,0.1,0.1,0.2,0.2c0.4,0.4,0.7,0.8,1.1,1.2C-396.6,764.6-396.4,764.9-396.2,765.2z"/>
		<path class="st4" d="M-472.4,792.5v0.7c0,0.1,0,0.2,0,0.4c0,0.1,0,0.1,0,0.2c0,0.3,0,0.5,0,0.8v-2.7
			C-472.4,792.1-472.4,792.3-472.4,792.5z"/>
		<path class="st4" d="M-472.5,701.5v93.1c-0.7,23.2-19.8,41.9-43.2,41.9c-23.9,0-43.2-19.3-43.2-43.2c0-11.9,4.8-22.6,12.6-30.4
			c0.1-0.1,0.2-0.2,0.3-0.3c0.6-0.6,1.1-1.1,1.6-1.7c0.3-0.3,0.6-0.7,0.9-1l62-62C-479.1,700.1-476,701.5-472.5,701.5z"/>
		<path class="st4" d="M-371,688.9c-0.2,0-0.5,0-0.7,0c0.1,0,0.3,0,0.5,0C-371.2,688.9-371.1,688.9-371,688.9z"/>
		<path class="st4" d="M-472.5,853.2c-90.8,0-164.5-73.6-164.5-164.5s73.6-164.5,164.5-164.5c90.8,0,164.5,73.6,164.5,164.5
			c0,45.4-18.4,86.5-48.2,116.3"/>
		<path class="st4" d="M-395.6,765.6l-1.2-1.2l-3.4-3.4c0.3,0.3,0.7,0.6,1,0.9l0.6,0.6c0.1,0.1,0.2,0.2,0.3,0.3
			c0.1,0,0.1,0.1,0.2,0.2c0.1,0.1,0.1,0.1,0.2,0.2c0.4,0.4,0.8,0.8,1.2,1.1c0.1,0.1,0.2,0.2,0.3,0.3c0.4,0.3,0.7,0.6,1.1,0.9
			c0,0,0,0,0.1,0.1c0.4,0.4,0.9,0.7,1.4,1c0.5,0.4,0.9,0.7,1.4,1c0.3,0.2,0.6,0.4,0.8,0.5c0.3,0.2,0.6,0.4,0.9,0.5
			c0.3,0.2,0.5,0.3,0.8,0.5l0,0c0.2,0.1,0.3,0.2,0.4,0.3c0.3,0.2,0.5,0.3,0.8,0.5c0.8,0.4,1.6,0.8,2.4,1.2c0.3,0.2,0.6,0.3,0.9,0.4
			c0.3,0.1,0.6,0.3,0.9,0.4c1.1,0.5,2.3,0.9,3.5,1.2c0.3,0.1,0.7,0.2,1,0.3c0.7,0.2,1.4,0.4,2.1,0.5c0.4,0.1,0.7,0.2,1,0.2
			c0.3,0.1,0.6,0.1,0.9,0.2c0.3,0,0.6,0.1,0.8,0.2c0.5,0.1,1,0.1,1.5,0.2c0.3,0,0.6,0.1,0.8,0.1c0.2,0,0.4,0,0.6,0.1
			c0.3,0,0.5,0,0.8,0.1c0.6,0,1.3,0.1,2,0.1c0.4,0,0.8,0,1.3,0c0.4,0,0.8,0,1.2,0c0.7,0,1.4-0.1,2.1-0.1c0.2,0,0.3,0,0.5,0
			c0.5,0,1-0.1,1.5-0.2c0.1,0,0.1,0,0.2,0c0.3,0,0.7-0.1,1-0.1c0.7-0.1,1.4-0.2,2.1-0.4c0.4-0.1,0.7-0.2,1.1-0.2
			c0.4-0.1,0.9-0.2,1.3-0.3c0.1,0,0.3-0.1,0.4-0.1c0.4-0.1,0.8-0.2,1.2-0.4c0.4-0.1,0.8-0.2,1.1-0.4c0.2-0.1,0.3-0.1,0.5-0.2
			c0.4-0.1,0.8-0.3,1.2-0.5c0.3-0.1,0.6-0.2,1-0.4c0.3-0.1,0.6-0.3,0.9-0.4c0.3-0.1,0.5-0.2,0.8-0.4c0.4-0.2,0.7-0.3,1.1-0.5
			c0.3-0.1,0.6-0.3,0.9-0.5c0.3-0.1,0.5-0.3,0.8-0.4c0.3-0.2,0.7-0.4,1-0.6c0.3-0.2,0.6-0.4,0.9-0.5s0.6-0.4,0.9-0.6
			c0.3-0.2,0.6-0.4,0.8-0.6c0.6-0.4,1.1-0.8,1.7-1.2c0.3-0.2,0.5-0.4,0.8-0.6c0.3-0.2,0.5-0.4,0.8-0.6c0.3-0.2,0.5-0.4,0.8-0.7
			c0.2-0.2,0.5-0.4,0.8-0.7c0.2-0.2,0.5-0.5,0.7-0.7c1-1,1.9-2,2.8-3l0,0c0.2-0.2,0.4-0.5,0.6-0.7c0.3-0.4,0.7-0.8,1-1.3
			c0.3-0.4,0.6-0.9,0.9-1.3c0.4-0.5,0.7-1,1-1.6c0.4-0.5,0.7-1.1,1-1.7c0.1-0.2,0.3-0.5,0.4-0.7c0.2-0.3,0.4-0.7,0.5-1
			c0.2-0.4,0.4-0.8,0.6-1.2c0.1-0.3,0.3-0.6,0.4-0.8s0.2-0.5,0.3-0.7c0-0.1,0.1-0.2,0.1-0.2c0.1-0.2,0.2-0.5,0.3-0.8l0,0
			c0-0.1,0.1-0.2,0.1-0.3s0.1-0.3,0.2-0.5c0.1-0.1,0.1-0.3,0.2-0.5c0.1-0.3,0.2-0.5,0.3-0.8c0.1-0.2,0.2-0.5,0.2-0.8
			c0.1-0.4,0.2-0.7,0.3-1.1c0-0.1,0-0.1,0-0.1c0.1-0.3,0.2-0.7,0.3-1v-0.1l0,0c0.2-0.6,0.3-1.2,0.4-1.8v-0.1c0-0.2,0.1-0.4,0.1-0.5
			c0.1-0.2,0.1-0.4,0.1-0.6c0-0.1,0-0.1,0-0.2c0-0.2,0.1-0.5,0.1-0.8l0,0c0.1-0.3,0.1-0.7,0.1-1l0,0c0-0.1,0-0.2,0-0.3s0-0.2,0-0.4
			c0-0.1,0-0.2,0-0.3s0-0.2,0-0.3c0-0.2,0-0.4,0.1-0.6c0-0.1,0-0.2,0-0.3c0-0.3,0.1-0.6,0.1-0.9c0-0.1,0-0.3,0-0.4
			c0-0.2,0-0.5,0-0.7c0-0.3,0-0.7,0-1c0-0.7,0-1.4-0.1-2.2c0-0.2,0-0.4,0-0.6c0-0.1,0-0.2,0-0.3c0-0.4-0.1-0.8-0.1-1.1v-0.1
			c0-0.2,0-0.4-0.1-0.5c0-0.1,0-0.3,0-0.4c0-0.1,0-0.1,0-0.2c-0.1-0.6-0.2-1.2-0.3-1.8c0-0.2-0.1-0.4-0.1-0.6c0-0.1,0-0.2-0.1-0.4
			c0-0.2-0.1-0.3-0.1-0.5c0-0.1,0-0.3-0.1-0.4c-0.1-0.5-0.2-0.9-0.3-1.4v-0.1c-0.1-0.5-0.3-1-0.4-1.5c-0.1-0.3-0.2-0.6-0.3-1
			s-0.2-0.6-0.3-1c-0.3-0.9-0.7-1.9-1.1-2.8c-0.1-0.3-0.3-0.6-0.4-0.9c-0.3-0.6-0.5-1.2-0.8-1.8s-0.6-1.2-0.9-1.7
			c-0.2-0.3-0.3-0.6-0.5-0.9c-0.2-0.4-0.5-0.8-0.8-1.2s-0.5-0.8-0.8-1.2c-0.2-0.3-0.4-0.7-0.7-1c-0.3-0.4-0.6-0.9-1-1.3
			c0,0,0,0-0.1-0.1c-0.2-0.3-0.4-0.5-0.6-0.8c-0.3-0.4-0.6-0.7-1-1.1c-0.3-0.4-0.6-0.7-1-1.1c-0.2-0.2-0.5-0.5-0.7-0.7
			s-0.5-0.5-0.7-0.7c0,0,0,0-0.1-0.1c-0.4-0.3-0.8-0.7-1.1-1c-0.4-0.3-0.7-0.6-1.1-1l-0.1-0.1c-0.2-0.2-0.4-0.3-0.6-0.5
			c-0.6-0.5-1.2-1-1.9-1.4c-0.3-0.2-0.6-0.5-1-0.7c-0.3-0.2-0.7-0.4-1-0.6c-0.3-0.2-0.6-0.3-0.8-0.5c-0.6-0.3-1.1-0.7-1.7-1l0,0
			c-0.6-0.3-1.1-0.6-1.7-0.9c-0.3-0.1-0.5-0.3-0.8-0.4c-0.5-0.2-1.1-0.5-1.6-0.7c-0.3-0.1-0.6-0.2-0.9-0.3c-0.5-0.2-1-0.4-1.5-0.5
			c-0.6-0.2-1.2-0.4-1.8-0.6c-0.4-0.1-0.9-0.3-1.4-0.4c-0.1,0-0.3-0.1-0.4-0.1c-0.5-0.1-0.9-0.2-1.4-0.3h-0.1h-0.1
			c-0.2,0-0.4-0.1-0.6-0.1h-0.1c-0.3-0.1-0.7-0.1-1.1-0.2c-0.1,0-0.2,0-0.2,0l0,0c-0.2,0-0.4-0.1-0.6-0.1h-0.1h-0.1
			c-0.3,0-0.5-0.1-0.8-0.1h-0.1c-0.1,0-0.3,0-0.4,0s-0.3,0-0.5-0.1c-0.3,0-0.7-0.1-1-0.1l0,0l0,0l0,0c-0.3,0-0.6,0-1-0.1
			c0.2,0,0.4,0,0.6,0c22.4-1.6,40-20.3,40-43.1c0-23.9-19.3-43.2-43.2-43.2c-10.9,0-20.9,4.1-28.6,10.8c-0.1,0.1-0.2,0.2-0.3,0.3
			c7-7.7,11.2-17.9,11.2-29c0-23.8-19.3-43.2-43.2-43.2s-43.2,19.3-43.2,43.2c0-0.4,0-0.7,0-1.1c-0.6-23.3-19.7-42.1-43.2-42.1
			c-23.9,0-43.2,19.3-43.2,43.2c0,11.2,4.2,21.4,11.2,29c-0.1-0.1-0.3-0.3-0.4-0.4c-7.6-6.7-17.6-10.7-28.4-10.7
			c-23.9,0-43.2,19.3-43.2,43.2c0,22.8,17.6,41.5,40,43.1c0.3,0,0.5,0,0.8,0c-22.8,1.2-40.8,20.1-40.8,43.1
			c0,23.8,19.3,43.2,43.2,43.2c10.6,0,20.3-3.8,27.8-10.1c0.3-0.2,0.5-0.4,0.8-0.7c0.6-0.5,1.1-1,1.6-1.5
			c-7.8,7.8-12.6,18.6-12.6,30.4c0,23.8,19.3,43.2,43.2,43.2c23.4,0,42.5-18.6,43.2-41.8"/>
		<path class="st4" d="M-544.3,760.8c-0.5,0.6-1.1,1.2-1.6,1.7c-0.1,0.1-0.2,0.2-0.3,0.3c-0.5,0.5-1.1,1-1.6,1.5
			c0.5-0.6,1.1-1.2,1.6-1.7C-545.6,762-545,761.3-544.3,760.8z"/>
		<path class="st4" d="M-481.4,679.8c-2.3,2.3-3.7,5.5-3.7,9h-90c-0.4,0-0.9,0-1.3,0s-0.9,0-1.3,0h-1.8c-22.4-1.6-40-20.3-40-43.1
			c0-23.9,19.3-43.2,43.2-43.2c10.9,0,20.8,4,28.4,10.7l1.2,1.2c0.5,0.5,1,1,1.5,1.5l1.5,1.5L-481.4,679.8z"/>
		<path class="st4" d="M-575.1,688.8h1.8c-0.3,0-0.5,0-0.8,0c-0.8,0-1.6,0.1-2.4,0.1s-1.6,0-2.4-0.1c-0.3,0-0.5,0-0.8,0h1.8
			c0.5,0,0.9,0,1.3,0S-575.6,688.8-575.1,688.8z"/>
		<path class="st4" d="M-544,617.3l-1.5-1.5l-1.5-1.5l-1.2-1.2c0.2,0.1,0.3,0.3,0.4,0.4c1.1,1,2.1,2,3.1,3.1l0,0
			C-544.3,616.9-544.1,617.1-544,617.3z"/>
		<path class="st4" d="M-325.2,645.7c0,22.8-17.6,41.5-40,43.1h-1.6c-0.5,0-0.9,0-1.3,0s-0.8,0-1.2,0h-90.3c0-3.5-1.4-6.7-3.7-9
			l62.7-62.7l1-1c0.7-0.7,1.4-1.3,2-2l0.7-0.7c7.6-6.7,17.6-10.8,28.6-10.8C-344.6,602.5-325.2,621.8-325.2,645.7z"/>
		<path class="st4" d="M-397.3,613.6c0.1-0.1,0.2-0.2,0.3-0.3l-0.7,0.7c-0.6,0.7-1.3,1.4-2,2l-1,1c0.1-0.2,0.2-0.3,0.4-0.4
			C-399.4,615.6-398.4,614.5-397.3,613.6L-397.3,613.6z"/>
		<path class="st4" d="M-365.3,688.8c-0.2,0-0.4,0-0.6,0h-0.1c-0.8,0.1-1.6,0.1-2.4,0.1s-1.5,0-2.2-0.1h-0.1c-0.3,0-0.6,0-0.9-0.1
			h2.1c0.4,0,0.8,0,1.2,0c0.5,0,0.9,0,1.3,0L-365.3,688.8L-365.3,688.8z"/>
		<path class="st4" d="M-481.4,697.8l-62,62l-2.8,2.9l-2.4,2.4c-7.5,6.3-17.2,10.1-27.8,10.1c-23.9,0-43.2-19.3-43.2-43.2
			c0-23.1,18.1-41.9,40.8-43.1c0.8,0,1.6,0.1,2.4,0.1s1.6,0,2.4-0.1c0.3,0,0.5,0,0.8,0h88.1C-485.2,692.3-483.7,695.5-481.4,697.8z"
			/>
		<path class="st4" d="M-574.1,688.8c-0.8,0-1.6,0.1-2.4,0.1s-1.6,0-2.4-0.1c0.3,0,0.7,0,1,0c0.5,0,0.9,0,1.3,0s0.9,0,1.3,0
			C-574.8,688.8-574.4,688.8-574.1,688.8z"/>
		<path class="st4" d="M-543.4,759.7c-0.3,0.3-0.6,0.7-0.9,1c-0.5,0.6-1.1,1.2-1.6,1.7c-0.1,0.1-0.2,0.2-0.3,0.3
			c-0.5,0.5-1.1,1-1.6,1.5c-0.2,0.2-0.5,0.5-0.8,0.7l2.4-2.4L-543.4,759.7z"/>
		<path class="st4" d="M-325,729.9c0-0.7-0.1-1.4-0.2-2.1v-0.1c0-0.3-0.1-0.6-0.1-1c-0.1-0.9-0.2-1.8-0.4-2.7
			c-0.1-0.3-0.1-0.6-0.2-0.9c-0.2-1.1-0.5-2.2-0.8-3.2s-0.6-2.1-1-3.1c-0.2-0.6-0.5-1.2-0.7-1.8c-0.2-0.4-0.3-0.8-0.5-1.2
			s-0.3-0.8-0.5-1.2c-0.1-0.2-0.2-0.5-0.4-0.7c-0.1-0.3-0.3-0.5-0.4-0.8c-0.1-0.1-0.1-0.2-0.2-0.3c-0.2-0.4-0.5-0.9-0.7-1.3
			c-0.3-0.5-0.6-0.9-0.9-1.4s-0.6-0.9-0.9-1.3l0,0c-0.3-0.4-0.6-0.9-1-1.3c-0.3-0.4-0.7-0.8-1-1.2s-0.6-0.8-1-1.1
			c-0.1-0.1-0.1-0.2-0.2-0.2c-0.3-0.3-0.6-0.7-0.9-1c0,0,0-0.1-0.1-0.1c-0.4-0.4-0.7-0.7-1.1-1.1c-0.3-0.3-0.7-0.6-1-0.9
			c-0.5-0.4-0.9-0.8-1.4-1.2c-0.4-0.3-0.8-0.7-1.2-1c-0.5-0.4-1-0.8-1.5-1.1c-0.3-0.2-0.7-0.5-1-0.7s-0.6-0.4-0.9-0.6
			c-0.3-0.2-0.7-0.4-1-0.6c-0.6-0.4-1.2-0.7-1.8-1c-0.2-0.1-0.5-0.3-0.8-0.4c-0.4-0.2-0.8-0.4-1.3-0.6c-0.5-0.2-1-0.4-1.5-0.7
			c-0.4-0.2-0.8-0.3-1.2-0.5c-0.3-0.1-0.7-0.3-1-0.4c-0.1,0-0.3-0.1-0.4-0.1c-0.3-0.1-0.6-0.2-0.8-0.3c-0.2-0.1-0.5-0.2-0.7-0.2
			c-0.2-0.1-0.5-0.1-0.7-0.2c-0.3-0.1-0.6-0.2-0.9-0.2c-0.2-0.1-0.4-0.1-0.6-0.2c-0.3-0.1-0.6-0.2-1-0.2c-0.7-0.2-1.4-0.3-2.1-0.4
			c-0.3,0-0.6-0.1-0.9-0.1h-0.1h-0.1c-0.3,0-0.5-0.1-0.8-0.1h-0.1c-0.2,0-0.3,0-0.5,0s-0.3,0-0.5-0.1l0,0c-0.2,0-0.4,0-0.5,0
			s-0.3,0-0.4,0h-0.1c-0.3,0-0.6,0-1-0.1h-0.1c-0.8,0.1-1.6,0.1-2.4,0.1s-1.5,0-2.2-0.1h-0.1c-0.1,0-0.2,0-0.3,0c0.1,0,0.1,0,0.2,0
			c-0.3,0-0.5,0-0.8-0.1h-88.2c0,3.5-1.4,6.7-3.7,9l61.6,61.6l1.6,1.6c0.3,0.3,0.7,0.6,1,0.9l0.6,0.6c0.1,0.1,0.2,0.2,0.3,0.3
			c0,0,0.1,0.1,0.2,0.2c0.1,0.1,0.1,0.1,0.2,0.2c0.4,0.4,0.8,0.8,1.2,1.1c0.1,0.1,0.2,0.2,0.3,0.3c0.3,0.3,0.7,0.6,1.1,0.9
			c0,0,0,0,0.1,0.1c0.5,0.4,0.9,0.7,1.4,1c0.5,0.4,0.9,0.7,1.4,1c0.3,0.2,0.5,0.4,0.8,0.5c0.3,0.2,0.6,0.4,0.9,0.5
			c0.3,0.2,0.5,0.3,0.8,0.5l0,0c0.2,0.1,0.3,0.2,0.4,0.3c0.3,0.2,0.5,0.3,0.8,0.5c0.8,0.4,1.6,0.8,2.4,1.2c0.3,0.2,0.6,0.3,0.9,0.4
			c0.3,0.1,0.6,0.3,0.9,0.4c1.1,0.5,2.3,0.9,3.5,1.2c0.3,0.1,0.7,0.2,1,0.3c0.7,0.2,1.4,0.4,2.1,0.5c0.3,0.1,0.7,0.2,1,0.2
			c0.3,0.1,0.6,0.1,0.9,0.2c0.3,0,0.6,0.1,0.8,0.2c0.5,0.1,1,0.1,1.5,0.2c0.3,0,0.6,0.1,0.8,0.1c0.2,0,0.4,0,0.6,0.1
			c0.3,0,0.5,0,0.8,0.1c0.7,0,1.3,0.1,2,0.1c0.4,0,0.8,0,1.3,0c0.4,0,0.8,0,1.2,0c0.7,0,1.4-0.1,2.1-0.1c0.2,0,0.3,0,0.5,0
			c0.5,0,1-0.1,1.5-0.2c0.1,0,0.1,0,0.2,0c0.3,0,0.7-0.1,1-0.1c0.7-0.1,1.4-0.2,2.1-0.4c0.4-0.1,0.7-0.2,1.1-0.2
			c0.4-0.1,0.9-0.2,1.3-0.3c0.1,0,0.3-0.1,0.4-0.1c0.4-0.1,0.8-0.2,1.2-0.4c0.4-0.1,0.8-0.2,1.1-0.4c0.2-0.1,0.3-0.1,0.5-0.2
			c0.4-0.1,0.8-0.3,1.2-0.5c0.3-0.1,0.6-0.2,1-0.4c0.3-0.1,0.6-0.3,1-0.4c0.3-0.1,0.5-0.2,0.8-0.4s0.7-0.3,1.1-0.5
			c0.3-0.1,0.6-0.3,0.9-0.5c0.3-0.1,0.5-0.3,0.8-0.4c0.3-0.2,0.7-0.4,1-0.6c0.3-0.2,0.6-0.4,0.9-0.5c0.3-0.2,0.6-0.4,0.9-0.6
			c0.3-0.2,0.6-0.4,0.8-0.6c0.6-0.4,1.1-0.8,1.7-1.2c0.3-0.2,0.5-0.4,0.8-0.6c0.3-0.2,0.5-0.4,0.8-0.6c0.3-0.2,0.5-0.4,0.8-0.7
			c0.2-0.2,0.5-0.4,0.8-0.7c0.2-0.2,0.5-0.5,0.7-0.7c1-1,1.9-2,2.8-3l0,0c0.2-0.2,0.4-0.5,0.6-0.7c0.3-0.4,0.7-0.8,1-1.3
			c0.3-0.4,0.6-0.9,0.9-1.3c0.4-0.5,0.7-1,1.1-1.6c0.3-0.5,0.7-1.1,1-1.7c0.1-0.2,0.3-0.5,0.4-0.7c0.2-0.3,0.4-0.7,0.5-1
			c0.2-0.4,0.4-0.8,0.6-1.2c0.1-0.3,0.3-0.6,0.4-0.8s0.2-0.5,0.3-0.7c0-0.1,0.1-0.2,0.1-0.2c0.1-0.2,0.2-0.5,0.3-0.8l0,0
			c0-0.1,0.1-0.2,0.1-0.3s0.1-0.3,0.2-0.5c0.1-0.1,0.1-0.3,0.2-0.5c0.1-0.3,0.2-0.5,0.3-0.8c0.1-0.2,0.2-0.5,0.2-0.8
			c0.1-0.4,0.2-0.8,0.3-1.1c0-0.1,0-0.1,0-0.1c0.1-0.3,0.2-0.7,0.3-1v-0.1l0,0c0.2-0.6,0.3-1.2,0.4-1.8v-0.1c0-0.2,0.1-0.4,0.1-0.5
			c0-0.2,0.1-0.4,0.1-0.6c0-0.3,0.1-0.6,0.2-1l0,0c0-0.3,0.1-0.7,0.1-1l0,0c0-0.1,0-0.2,0-0.3s0-0.2,0-0.4c0-0.1,0-0.2,0-0.3
			s0-0.2,0-0.3c0-0.6,0.1-1.1,0.1-1.7c0,0,0-0.1,0-0.2c0-0.1,0-0.3,0-0.4c0-0.2,0-0.5,0-0.7c0-0.3,0-0.7,0-1
			C-324.9,731.3-325,730.6-325,729.9z M-375.6,689.4c0.2,0,0.5-0.1,0.8-0.1c0.3-0.1,0.7-0.1,1-0.1
			C-374.4,689.2-375,689.3-375.6,689.4z M-372.8,689c-0.2,0-0.5,0-0.7,0.1C-373.3,689.1-373,689-372.8,689c0.1,0,0.2,0,0.4,0
			C-372.5,689-372.7,689-372.8,689z M-371.7,688.9c0.1,0,0.3,0,0.5,0c0.1,0,0.2,0,0.2,0C-371.3,688.9-371.5,688.9-371.7,688.9z"/>
		<path class="st4" d="M-373.8,689.1c-0.6,0.1-1.2,0.2-1.8,0.3c0.2,0,0.5-0.1,0.8-0.1C-374.5,689.2-374.2,689.2-373.8,689.1z"/>
		<path class="st4" d="M-371,688.9c-0.2,0-0.5,0-0.7,0c0.1,0,0.3,0,0.5,0C-371.2,688.9-371.1,688.9-371,688.9z"/>
		<path class="st4" d="M-370.7,688.8c-0.1,0-0.2,0-0.3,0C-370.9,688.8-370.8,688.8-370.7,688.8L-370.7,688.8z"/>
		<path class="st4" d="M-366,688.8c-0.8,0.1-1.6,0.1-2.4,0.1s-1.5,0-2.2-0.1c0.4,0,0.7,0,1.1-0.1h0.1c0.4,0,0.8,0,1.2,0
			c0.5,0,0.9,0,1.3,0h0.1C-366.5,688.8-366.3,688.8-366,688.8z"/>
		<path class="st4" d="M-329,750.3c0.1-0.3,0.3-0.6,0.4-0.8c-6.7,15.2-21.9,25.9-39.6,25.9c-10.4,0-19.9-3.7-27.3-9.7
			c-0.2-0.2-0.4-0.3-0.6-0.5c-1.8-1.5-3.5-3.2-5-5c-0.2-0.2-0.4-0.5-0.6-0.8l1.6,1.6c0.3,0.3,0.7,0.6,1,0.9l0.6,0.6
			c0.1,0.1,0.2,0.2,0.3,0.3c0,0,0.1,0.1,0.2,0.2c0.1,0.1,0.1,0.1,0.2,0.2c0.4,0.4,0.8,0.8,1.2,1.1c0.1,0.1,0.2,0.2,0.3,0.3
			c0.3,0.3,0.7,0.6,1.1,0.9c0,0,0,0,0.1,0.1c0.5,0.4,0.9,0.7,1.4,1c0.5,0.4,0.9,0.7,1.4,1c0.3,0.2,0.5,0.4,0.8,0.5
			c0.3,0.2,0.6,0.4,0.9,0.5c0.3,0.2,0.5,0.3,0.8,0.5l0,0c0.2,0.1,0.3,0.2,0.4,0.3c0.3,0.2,0.5,0.3,0.8,0.5c0.8,0.4,1.6,0.8,2.4,1.2
			c0.3,0.2,0.6,0.3,0.9,0.4c0.3,0.1,0.6,0.3,0.9,0.4c1.1,0.5,2.3,0.9,3.5,1.2c0.3,0.1,0.7,0.2,1,0.3c0.7,0.2,1.4,0.4,2.1,0.5
			c0.3,0.1,0.7,0.2,1,0.2c0.3,0.1,0.6,0.1,0.9,0.2c0.3,0,0.6,0.1,0.8,0.2c0.5,0.1,1,0.1,1.5,0.2c0.3,0,0.6,0.1,0.8,0.1
			c0.2,0,0.4,0,0.6,0.1c0.3,0,0.5,0,0.8,0.1c0.7,0,1.3,0.1,2,0.1c0.4,0,0.8,0,1.3,0c0.4,0,0.8,0,1.2,0c0.7,0,1.4-0.1,2.1-0.1
			c0.2,0,0.3,0,0.5,0c0.5,0,1-0.1,1.5-0.2c0.1,0,0.1,0,0.2,0c0.3,0,0.7-0.1,1-0.1c0.7-0.1,1.4-0.2,2.1-0.4c0.4-0.1,0.7-0.2,1.1-0.2
			c0.4-0.1,0.9-0.2,1.3-0.3c0.1,0,0.3-0.1,0.4-0.1c0.4-0.1,0.8-0.2,1.2-0.4c0.4-0.1,0.8-0.2,1.1-0.4c0.2-0.1,0.3-0.1,0.5-0.2
			c0.4-0.1,0.8-0.3,1.2-0.5c0.3-0.1,0.6-0.2,1-0.4c0.3-0.1,0.6-0.3,1-0.4c0.3-0.1,0.5-0.2,0.8-0.4s0.7-0.3,1.1-0.5
			c0.3-0.1,0.6-0.3,0.9-0.5c0.3-0.1,0.5-0.3,0.8-0.4c0.3-0.2,0.7-0.4,1-0.6c0.3-0.2,0.6-0.4,0.9-0.5c0.3-0.2,0.6-0.4,0.9-0.6
			c0.3-0.2,0.6-0.4,0.8-0.6c0.6-0.4,1.1-0.8,1.7-1.2c0.3-0.2,0.5-0.4,0.8-0.6c0.3-0.2,0.5-0.4,0.8-0.6c0.3-0.2,0.5-0.4,0.8-0.7
			c0.2-0.2,0.5-0.4,0.8-0.7c0.2-0.2,0.5-0.5,0.7-0.7c1-1,1.9-2,2.8-3l0,0c0.2-0.2,0.4-0.5,0.6-0.7c0.3-0.4,0.7-0.8,1-1.3
			c0.3-0.4,0.6-0.9,0.9-1.3c0.4-0.5,0.7-1,1.1-1.6c0.3-0.5,0.7-1.1,1-1.7c0.1-0.2,0.3-0.5,0.4-0.7c0.2-0.3,0.4-0.7,0.5-1
			C-329.4,751.1-329.2,750.7-329,750.3z"/>
	</g>
</g>
<path class="st4" d="M-943.7,735.5V131c0,0,4-54.4-47,0.2c-51,54.6-93.4,98.4-93.4,98.4"/>
<rect x="-1046.6" y="2271.2" class="st7" width="270.9" height="270.9"/>
<rect x="-1318.2" y="2271.2" class="st8" width="270.9" height="270.9"/>
<rect x="-775.7" y="2271.2" class="st2" width="270.9" height="270.9"/>
<rect x="-509.9" y="2268.6" class="st9" width="270.9" height="270.9"/>
<rect x="-1345.4" y="353.3" class="st10" width="9" height="415.9"/>
<line class="st10" x1="-1581" y1="428.6" x2="-1345.4" y2="358.7"/>
<line class="st10" x1="-1082.1" y1="428.7" x2="-1336.5" y2="358.7"/>
<line class="st10" x1="-1209.7" y1="433.8" x2="-1336.5" y2="358.7"/>
<line class="st10" x1="-1471.7" y1="433.8" x2="-1345.4" y2="358.7"/>
<line class="st10" x1="-1566.1" y1="424.1" x2="-1098.4" y2="424.1"/>
<line class="st11" x1="-1345.5" y1="358.7" x2="-1336.5" y2="358.7"/>
<g>
	<path class="st2" d="M-401.3-461.2c0,0,0,0.1,0,0.3l0,0c-1,11.2-26.6,298.5-35,361.1c-8.1,59.9-51.1,61.7-51.1,61.7
		s-101,8.7-132.8-4.4s-38.7-59.9-38.7-59.9l-39.3-358.5v-0.4"/>
	<path class="st4" d="M-675.6,55.2L-675.6,55.2C-675.6,55.3-675.6,55.3-675.6,55.2c0,6.2,55.9,11.1,124.9,11.1
		c19.6,0,38.2-0.4,54.7-1.1"/>
	<path class="st4" d="M-479.2,64.3c32.3-2,53.4-5.3,53.4-9v-0.1l0,0"/>
	<path class="st4" d="M-419.3-26.3v0.1c0,0.1,0,0.2,0,0.3l0,0c-1.8,5.9-59.9,10.7-131.3,10.7c-5.5,0-10.8,0-16.1-0.1"/>
	<path class="st4" d="M-604.3-16.2c-45-1.7-76.6-5.4-77.7-9.8l0,0c0-0.1,0-0.1,0-0.2v-0.1l0,0"/>
	<path class="st4" d="M-572.7-511.5c7.2,0.1,14.6,0.1,22,0.1c91.8,0,166.7-7.1,171.1-15.9c0.1-0.3,0.2-0.5,0.2-0.8
		c0-9.3-76.7-16.8-171.3-16.8c-53.5,0-101.2,2.4-132.6,6.1c-24.2,2.9-38.6,6.6-38.6,10.6c0,4.6,19.3,8.8,50.5,11.9
		c18.5,1.8,41.3,3.2,66.6,4"/>
	<ellipse class="st6" cx="-549.8" cy="-461.2" rx="148.5" ry="16.8"/>
	<circle class="st12" cx="-719.8" cy="-608.9" r="18.8"/>
	<line class="st4" x1="-711.5" y1="-592.3" x2="-521.4" y2="-231.2"/>
	<path class="st12" d="M-557.8-106.6l-36.9,21.3c-8.6,4.9-19.6,2-24.6-6.6l-20.3-35.2c-4.9-8.6-2-19.6,6.6-24.6l36.9-21.3
		c8.6-4.9,19.6-2,24.6,6.6l20.3,35.2C-546.3-122.6-549.3-111.6-557.8-106.6z"/>
	<path class="st12" d="M-552.2-186.9l-42.5,3.2c-9.9,0.7-18.6-6.7-19.3-16.6l-3-40.5c-0.7-9.9,6.7-18.6,16.6-19.3l42.5-3.2
		c9.9-0.7,18.6,6.7,19.3,16.6l3,40.5C-534.9-196.3-542.4-187.6-552.2-186.9z"/>
	<path class="st12" d="M-466.1-204.6l-42.5-3.5c-9.9-0.8-17.3-9.5-16.5-19.4l3.3-40.5c0.8-9.9,9.5-17.3,19.4-16.5l42.5,3.5
		c9.9,0.8,17.3,9.5,16.5,19.4l-3.3,40.5C-447.5-211.2-456.2-203.8-466.1-204.6z"/>
	<path class="st12" d="M-473.7-305.9l-20.4-1.7c-9.9-0.8-17.3-9.5-16.5-19.4l1.6-19c0.8-9.9,9.5-17.3,19.4-16.5l20.4,1.7
		c9.9,0.8,17.3,9.5,16.5,19.4l-1.6,19C-455.1-312.5-463.8-305.1-473.7-305.9z"/>
	<path class="st12" d="M-529.9-334.7l-19.8,5c-9.6,2.4-19.4-3.5-21.8-13.1l-4.6-18.5c-2.4-9.6,3.5-19.4,13.1-21.8l19.8-5
		c9.6-2.4,19.4,3.5,21.8,13.1l4.6,18.5C-514.4-346.9-520.2-337.1-529.9-334.7z"/>
	<path class="st12" d="M-628.4-378.6l-20.4-1.1c-9.9-0.5-17.5-9-17-18.9l1-19c0.5-9.9,9-17.5,18.9-17l20.4,1.1
		c9.9,0.5,17.5,9,17,18.9l-1,19C-610-385.7-618.5-378.1-628.4-378.6z"/>
	<path class="st12" d="M-549.4-264.6l-30.1,30.1c-7,7-18.5,7-25.5,0l-28.7-28.7c-7-7-7-18.5,0-25.5l30.1-30.1c7-7,18.5-7,25.5,0
		l28.7,28.7C-542.4-283.1-542.4-271.6-549.4-264.6z"/>
	<line class="st4" x1="-696.4" y1="-206.5" x2="-697.2" y2="-216.1"/>
	<polyline class="st4" points="-693.2,-166.3 -682.1,-26.3 -682.1,-26.3 -682,-26 -682,-26 -675.6,55.2 -675.6,55.2 	"/>
	<line class="st4" x1="-700.2" y1="-253.6" x2="-722" y2="-528.3"/>
	<polyline class="st4" points="-379.5,-528.4 -379.6,-527.3 -384.1,-471 	"/>
	<polyline class="st4" points="-425.8,55.4 -425.8,55.2 -425.8,55.2 -419.4,-25.9 -419.4,-25.9 -419.3,-26.3 -392.3,-367.1 	"/>
	<line class="st4" x1="-387.6" y1="-426.6" x2="-388.3" y2="-417.5"/>
	<g>
		
			<rect x="-653.7" y="-528.5" transform="matrix(0.2268 -0.9739 0.9739 0.2268 155.4579 -852.826)" class="st13" width="388.7" height="8.4"/>
		<line class="st10" x1="-649.8" y1="-696" x2="-420.6" y2="-709.7"/>
		<line class="st10" x1="-195.7" y1="-590.2" x2="-412.5" y2="-707.8"/>
		<line class="st10" x1="-313" y1="-612.6" x2="-412.5" y2="-707.8"/>
		<line class="st10" x1="-551.4" y1="-668.1" x2="-420.6" y2="-709.7"/>
		<line class="st10" x1="-635.2" y1="-697" x2="-209.6" y2="-597.8"/>
		<line class="st11" x1="-420.7" y1="-709.7" x2="-412.5" y2="-707.8"/>
	</g>
</g>
<g>
	<path class="st2" d="M335.7-440.4c0,0-0.3,1.3-0.9,3.7c-7.1,28.3-54.2,211.1-96.2,232c-24.4,12.1-75.7,16.9-128.4,10.7
		c-17.9-2.1-32.1-8.8-43.2-16.8c-16.8-12.2-29-29.8-35.1-49.7L-22-435.8l-1.4-4.6H335.7z"/>
	<path class="st12" d="M143.8-313.4l-47.5,11.9c-9.6,2.4-19.4-3.5-21.8-13.1L63.2-360c-2.4-9.6,3.5-19.4,13.1-21.8l47.5-11.9
		c9.6-2.4,19.4,3.5,21.8,13.1l11.3,45.4C159.3-325.7,153.4-315.8,143.8-313.4z"/>
	<path class="st10" d="M27-574.2c-3.8,0.6-7.4,1.3-11,2"/>
	<path class="st10" d="M76.2-580.4c23.8-2.1,49.7-3.2,76.7-3.2c65.5,0,124.1,6.7,163.3,17.3c30.7,8.3,49.5,19,50.3,30.6
		c0,0.3,0,0.5,0,0.8c0,0.9-0.1,1.7-0.3,2.6l0,0c-3.8,16.5-43.4,30.8-101.4,38.9c-32.6,4.6-70.9,7.2-111.9,7.2
		c-113.9,0-206.9-20.3-213.3-46l0,0c-0.2-0.9-0.4-1.8-0.4-2.8c0-9.6,12.3-18.6,33.4-26.2"/>
	<ellipse class="st6" cx="156.2" cy="-440.4" rx="179.6" ry="36.4"/>
	<path class="st10" d="M332.7-106.3L332.7-106.3c0.1,0.6,0.1,1.1,0.1,1.7c0,22.7-80.6,41.1-180,41.1s-180-18.4-180-41.1
		c0,0,0,0,0-0.1"/>
	<line class="st10" x1="-60.7" y1="-534.8" x2="-27.1" y2="-104.4"/>
	<line class="st10" x1="338.6" y1="-181.2" x2="332.5" y2="-103.8"/>
	<polyline class="st10" points="366.4,-535.6 366.2,-532.3 366.2,-532.2 348.3,-304.8 341.6,-219.5 341.6,-219.5 	"/>
	<line class="st10" x1="76.6" y1="-67.5" x2="72.1" y2="-138.2"/>
	<path class="st10" d="M69.6-178l-2.1-32.5l-5.7-90c-17.5-18.5-34.9-25.3-50.2-26.1c-28.6-1.4-50.5,18.2-54.3,21.8
		c-0.4,0.4-0.6,0.6-0.6,0.6"/>
	<path class="st10" d="M348.3-304.8c0,0-61.5-49.8-108.2,6.8L225.3-67.5"/>
	<path class="st10" d="M61.8-300.5c0,0,99-63.9,178.3,2.5"/>
	<g>
		<circle class="st4" cx="356.5" cy="-622.6" r="39"/>
		<line class="st4" x1="404" y1="-691.3" x2="231.2" y2="-445.6"/>
	</g>
</g>
<path class="st2" d="M1599.7,1011.3c0,0-0.3,1.1-0.7,3c-5.8,23.1-15.1,236.9-44,262.1c-19.8,17.3-90,22.1-134.5,20.8
	c-14.7-0.4-45.3-8.6-55.6-12.9c-22-9.1-29.7-26.2-35.1-42.9c-2.7-8.1-5.4-21.8-6.1-30.3l-15.9-192.2c-0.2-2.6-0.7-5.1-1.5-7.6l0,0
	H1599.7z"/>
<path class="st12" d="M1420,1133.6l-51.7,12.9c-9.6,2.4-19.4-3.5-21.8-13.1l-12.4-49.5c-2.4-9.6,3.5-19.4,13.1-21.8l51.7-12.9
	c9.6-2.4,19.4,3.5,21.8,13.1l12.4,49.5C1435.5,1121.4,1429.6,1131.2,1420,1133.6z"/>
<path class="st12" d="M1444.2,1233.6l-51.4-14.1c-9.5-2.6-15.2-12.6-12.6-22.1l13.5-49.2c2.6-9.5,12.6-15.2,22.1-12.6l51.4,14.1
	c9.5,2.6,15.2,12.6,12.6,22.1l-13.5,49.2C1463.7,1230.6,1453.8,1236.3,1444.2,1233.6z"/>
<path class="st12" d="M1544.2,1180.1h-53.3c-9.9,0-18-8.1-18-18v-51c0-9.9,8.1-18,18-18h53.3c9.9,0,18,8.1,18,18v51
	C1562.2,1172,1554.1,1180.1,1544.2,1180.1z"/>
<path class="st10" d="M1353.1,901c-2.9,0.5-5.8,0.9-8.5,1.4"/>
<path class="st10" d="M1302.2,912.9c-16.8,6.1-26.6,13.4-26.6,21.1c0,0.8,0.1,1.5,0.3,2.2l0,0c5.2,20.9,81.2,37.6,174.3,37.6
	c33.6,0,64.9-2.2,91.5-5.9c11.4-1.6,21.9-3.5,31.3-5.6"/>
<path class="st10" d="M1595.4,956.2c17-5.8,27.5-12.6,29.2-20c0.2-0.7,0.2-1.4,0.2-2.1c0-0.2,0-0.5,0-0.7
	c-0.7-9.5-16.1-18.2-41.1-25c-32-8.7-79.9-14.1-133.4-14.1c-21.5,0-42,0.9-61,2.5"/>
<ellipse class="st6" cx="1453" cy="1011.3" rx="146.8" ry="29.7"/>
<path class="st10" d="M1597.2,1284.3L1597.2,1284.3c0.1,0.5,0.1,0.9,0.1,1.4c0,18.5-65.9,33.6-147.1,33.6s-147.1-15-147.1-33.6
	c0,0,0,0,0-0.1"/>
<line class="st10" x1="1275.7" y1="934.1" x2="1303.2" y2="1285.9"/>
<line class="st10" x1="1603.8" y1="1201.3" x2="1603.2" y2="1208.8"/>
<line class="st10" x1="1598.8" y1="1264.1" x2="1597.1" y2="1286.3"/>
<polyline class="st10" points="1607,1160.6 1624.6,936.2 1624.8,933.4 "/>
<circle class="st4" cx="1616.7" cy="862.3" r="26.1"/>
<line class="st4" x1="1655.6" y1="806.2" x2="1442" y2="1109.9"/>
<path class="st2" d="M2852.9,1548.5c0,0-0.3,1.4-0.7,3.9c-5.8,30.1-15.1,308.6-44,341.4c-19.8,22.5-90,28.8-134.5,27.1
	c-14.7-0.6-45.3-11.2-55.6-16.8c-22-11.9-29.7-34.1-35.1-55.8c-2.7-10.6-5.4-28.4-6.1-39.5l-15.9-250.4c-0.2-3.4-0.7-6.7-1.5-9.9
	l0,0L2852.9,1548.5L2852.9,1548.5z"/>
<path class="st12" d="M2668.5,1670.5l-51.7,12.9c-9.6,2.4-19.4-3.5-21.8-13.1l-12.4-49.5c-2.4-9.6,3.5-19.4,13.1-21.8l51.7-12.9
	c9.6-2.4,19.4,3.5,21.8,13.1l12.4,49.5C2684,1658.2,2678.1,1668.1,2668.5,1670.5z"/>
<path class="st12" d="M2672.6,1868.8l-51.4-14.1c-9.5-2.6-15.2-12.6-12.6-22.1l13.5-49.2c2.6-9.5,12.6-15.2,22.1-12.6l51.4,14.1
	c9.5,2.6,15.2,12.6,12.6,22.1l-13.5,49.2C2692.1,1865.7,2682.2,1871.4,2672.6,1868.8z"/>
<path class="st12" d="M2786.8,1806h-53.3c-9.9,0-18-8.1-18-18v-51c0-9.9,8.1-18,18-18h53.3c9.9,0,18,8.1,18,18v51
	C2804.8,1797.9,2796.7,1806,2786.8,1806z"/>
<path class="st10" d="M2606.2,1404.9c-2.9,0.6-5.8,1.2-8.5,1.8"/>
<path class="st10" d="M2555.3,1420.5c-16.8,8-26.6,17.4-26.6,27.5c0,1,0.1,1.9,0.3,2.9v0.1c5.2,27.3,81.2,48.9,174.3,48.9
	c33.5,0,64.9-2.8,91.5-7.7c11.4-2.1,21.9-4.5,31.3-7.3"/>
<path class="st10" d="M2848.5,1476.9c17-7.5,27.5-16.5,29.2-26.1c0.2-0.9,0.2-1.8,0.2-2.8c0-0.3,0-0.6,0-0.9
	c-0.7-12.4-16-23.8-41.1-32.6c-32-11.3-79.9-18.4-133.4-18.4c-21.5,0-42,1.1-61,3.3"/>
<ellipse class="st6" cx="2706.1" cy="1542.3" rx="146.8" ry="32.4"/>
<path class="st10" d="M2850.4,1904.2L2850.4,1904.2c0.1,0.6,0.1,1.2,0.1,1.8c0,24.2-65.9,43.7-147.1,43.7
	c-81.2,0-147.1-19.6-147.1-43.7c0,0,0,0,0-0.1"/>
<line class="st10" x1="2528.9" y1="1448" x2="2556.3" y2="1906.3"/>
<line class="st10" x1="2861.8" y1="1693" x2="2860.9" y2="1702.4"/>
<line class="st10" x1="2856.3" y1="1762.5" x2="2850.5" y2="1866.5"/>
<line class="st10" x1="2878" y1="1448" x2="2861.8" y2="1677.1"/>
<line class="st10" x1="2877.3" y1="1443.5" x2="2877.3" y2="1443.4"/>
<path class="st6" d="M2300.1,242c0,3.3-3.7,6.4-10.4,9.3c-18.2,7.9-58.9,14-109.8,16.5c-1.4,0.1-2.9,0.1-4.4,0.2
	c-7.7,0.3-15.6,0.6-23.7,0.8c-7.1,0.2-14.3,0.2-21.7,0.2c-65.6,0-122.6-5.9-150.9-14.5c-7-2.1-12.2-4.4-15.4-6.8c0,0-0.1,0-0.1-0.1
	c-0.3-0.2-0.6-0.5-0.9-0.7c-1.2-1.1-2-2.1-2.4-3.2c-0.2-0.5-0.3-1-0.3-1.5c0-8.6,25.2-16.2,64.4-21.1c29-3.6,65.6-5.8,105.4-5.8
	c25.1,0,49,0.9,70.5,2.4c12.4,0.9,23.9,2,34.5,3.3C2274.7,225.7,2300.1,233.4,2300.1,242z"/>
<path class="st4" d="M2227.2,804.2c1.2,0.7,1.9,1.5,1.9,2.3c0,6.4-44.2,11.6-98.7,11.6s-98.7-5.2-98.7-11.6c0-0.5,0.3-1.1,0.9-1.6
	c0,0,0,0,0.1,0l0.2-0.2"/>
<line class="st4" x1="2221.8" y1="799.8" x2="2221.8" y2="799.8"/>
<path class="st4" d="M2052.6,801.8c15.2,2.4,38.4,4.2,65.1,4.6"/>
<polyline class="st10" points="2031.7,806.5 2032.6,804.9 2032.6,804.9 2032.7,804.8 2032.8,804.7 2033.5,804.2 2039.8,799 
	2043.1,796.3 2130.3,726 2137.8,732.1 "/>
<polyline class="st10" points="2180.3,766.3 2221.8,799.8 2221.8,799.8 2227.2,804.2 2228.6,805.3 2229.1,806.5 "/>
<line class="st10" x1="2155.8" y1="746.5" x2="2153.5" y2="744.7"/>
<line class="st12" x1="2129.2" y1="398.9" x2="2129.2" y2="726"/>
<g>
	<line class="st4" x1="2281" y1="56.3" x2="2126" y2="367.4"/>
	
		<ellipse transform="matrix(0.4459 -0.8951 0.8951 0.4459 930.7697 2099.0356)" class="st14" cx="2160.7" cy="297.8" rx="35.9" ry="26.5"/>
</g>
<ellipse class="st4" cx="2129.4" cy="193.9" rx="251.4" ry="29.6"/>
<polyline class="st10" points="1878,193.9 1880.3,198 1880.4,198 1881,198.5 1925.4,234.3 "/>
<polyline class="st10" points="1977.1,276 2129.2,398.9 2168.2,367.4 "/>
<polyline class="st10" points="2232,315.9 2376,199.7 2376,199.7 2379.5,196.9 2380.8,193.9 "/>
<line class="st10" x1="2198" y1="343.3" x2="2193.6" y2="346.9"/>
<line class="st10" x1="1949.3" y1="253.6" x2="1944.5" y2="249.7"/>
<path class="st4" d="M1759,975.1c-1.2-1-2.4-2.1-3.6-3.2"/>
<path class="st3" d="M191.6,56.1L191.6,56.1c-2,0-4.1,0-6.1,0c-82.7,0-149.7-8.5-149.7-18.9c0-5,15.2-9.5,40.1-12.9"/>
<path class="st3" d="M107.9,21c22.6-1.7,49.2-2.7,77.6-2.7c82.7,0,149.7,8.5,149.7,19c0,0.2,0,0.3-0.1,0.5c0,0.1-0.1,0.3-0.1,0.4
	v0.1c-0.1,0.1-0.1,0.2-0.2,0.4c-0.4,0.7-1,1.3-1.9,2c-0.2,0.2-0.5,0.3-0.7,0.5c-0.5,0.3-1.1,0.7-1.8,1c-0.3,0.1-0.5,0.2-0.8,0.4
	s-0.7,0.3-1,0.4c-0.4,0.1-0.7,0.3-1.1,0.4c-0.4,0.1-0.8,0.3-1.2,0.4c-0.2,0.1-0.4,0.1-0.6,0.2c-0.7,0.2-1.4,0.4-2.1,0.7
	c-0.9,0.3-2,0.6-3,0.8c-0.5,0.1-1,0.3-1.6,0.4c-0.5,0.1-1,0.3-1.6,0.4c-1.9,0.4-4,0.9-6.2,1.3c-0.9,0.2-1.8,0.4-2.8,0.5
	c-1.3,0.2-2.5,0.4-3.9,0.7c-1.1,0.2-2.2,0.4-3.4,0.6c-2.3,0.3-4.7,0.7-7.2,1c-0.6,0.1-1.2,0.2-1.8,0.2c-5.3,0.7-11,1.3-17.1,1.9
	c-0.9,0.1-1.9,0.2-2.8,0.2c-5.9,0.5-12.2,1-18.7,1.4c-2.1,0.1-4.2,0.3-6.3,0.4c-0.4,0-0.8,0.1-1.2,0.1c-1.5,0.1-3,0.2-4.5,0.2
	c-3,0.2-6.1,0.3-9.2,0.4"/>
<path class="st3" d="M245,746.9c-1.8-0.1-3.5-0.2-5.3-0.3"/>
<path class="st3" d="M279.2,749.5c34.2,3.5,56,8.8,56,14.8c0,10.5-67,18.9-149.7,18.9s-149.7-8.5-149.7-18.9
	c0-9.8,58.4-17.8,133.4-18.8"/>
<path class="st3" d="M216.7,745.8c-4.7-0.1-9.5-0.2-14.3-0.3"/>
<path class="st3" d="M154.9,390.9c-23.4-4.2-45.1-13-64.2-25.6l0,0"/>
<path class="st3" d="M57.3,336.7c-27.8-30.7-44.7-71.4-44.7-116c0-8.6,0.6-17.1,1.9-25.4l21.4-158c0,10.5,67,18.9,149.7,18.9
	c2,0,4.1,0,6.1,0l0,0"/>
<path class="st3" d="M216.6,390.8L216.6,390.8c80.7-14.7,141.8-85.2,141.8-170.1c0-8.6-0.6-17.1-1.9-25.4l0,0l-21.4-158
	c0,0.2,0,0.3-0.1,0.5c0,0.1-0.1,0.3-0.1,0.4v0.1c-0.1,0.1-0.1,0.2-0.2,0.4c-0.4,0.7-1,1.3-1.9,2c-0.2,0.2-0.5,0.3-0.7,0.5
	c-0.5,0.3-1.1,0.7-1.8,1c-0.3,0.1-0.5,0.2-0.8,0.4s-0.7,0.3-1,0.4c-0.4,0.1-0.7,0.3-1.1,0.4c-0.4,0.1-0.8,0.3-1.2,0.4
	c-0.2,0.1-0.4,0.1-0.6,0.2c-0.7,0.2-1.4,0.4-2.1,0.7c-0.9,0.3-2,0.6-3,0.8c-0.5,0.1-1.1,0.3-1.6,0.4c-0.5,0.1-1,0.3-1.6,0.4
	c-1.9,0.4-4,0.9-6.2,1.3c-0.9,0.2-1.8,0.4-2.8,0.5c-1.3,0.2-2.5,0.4-3.9,0.7c-1.1,0.2-2.2,0.4-3.4,0.6c-2.3,0.3-4.7,0.7-7.2,1
	c-0.6,0.1-1.2,0.2-1.8,0.2c-5.3,0.7-11,1.3-17.1,1.9c-0.9,0.1-1.9,0.2-2.8,0.2c-5.9,0.5-12.2,1-18.7,1.4c-2.1,0.1-4.2,0.3-6.3,0.4
	c-0.4,0-0.8,0.1-1.2,0.1c-1.5,0.1-3,0.2-4.5,0.2c-3,0.2-6.1,0.3-9.2,0.4"/>
<path class="st3" d="M178.9,475.8c0-2.5,0-5,0-7.5"/>
<path class="st3" d="M178.9,507.7c-0.1,93.5-1.5,218.9-1.5,218.9s-0.2,8-8.2,18.9c-0.1,0.1-0.2,0.3-0.3,0.4"/>
<path class="st3" d="M154.9,390.9c5.6,2.2,19.8,8.7,22.5,17.3c0.7,2.2,1.1,16.2,1.3,37.4"/>
<path class="st15" d="M202.6,745.9c-9-11.1-8.9-19.3-8.9-19.3s-3.4-307.7,0-318.4c2.7-8.7,17.4-15.2,22.9-17.4l0,0"/>
<path class="st2" d="M327.5,86.4c0,0,12.6,71.4,19.3,124.6c6.7,53.3-25.2,88.6-42,111s-50.4,46.5-81.3,54.9c-30.8,8.4-62.2,0-62.2,0
	s-66.2-18.5-107.1-66.7C13.3,262.1,25,204.9,25,204.9L41.1,86.4H327.5z"/>
<ellipse class="st6" cx="184.3" cy="86.4" rx="143.2" ry="18.9"/>
<path class="st10" d="M2578.8,478.4c-2.9-0.2-5.8-0.4-8.8-0.5"/>
<path class="st10" d="M2543.9,477.2c-0.2,0-0.5,0-0.7,0c-13.4,0-26.2,0.5-38.1,1.4c-43.7,3.3-75,12.2-75,22.6c0,0.9,0.2,1.8,0.7,2.6
	c0.1,0.2,0.2,0.4,0.3,0.6c0,0,0,0,0,0.1c0.1,0.2,0.2,0.3,0.4,0.5c0.1,0.1,0.2,0.3,0.3,0.4l0,0c0.1,0.1,0.2,0.2,0.3,0.3
	c0.1,0.1,0.2,0.2,0.3,0.3c0.2,0.2,0.4,0.4,0.6,0.5c0.1,0.1,0.3,0.2,0.4,0.4c0.1,0.1,0.3,0.2,0.4,0.4c0.2,0.1,0.3,0.2,0.5,0.4
	c0.8,0.6,1.7,1.2,2.8,1.8c0.2,0.1,0.4,0.2,0.6,0.3c1,0.5,2,1.1,3.2,1.6c0.3,0.1,0.6,0.3,0.9,0.4c0.3,0.1,0.6,0.3,1,0.4
	c0.4,0.2,0.8,0.3,1.2,0.5c1.1,0.4,2.3,0.9,3.5,1.3c0.4,0.1,0.8,0.3,1.2,0.4c0.5,0.2,1,0.3,1.5,0.5s1,0.3,1.6,0.5
	c0.2,0.1,0.4,0.1,0.6,0.2c0.4,0.1,0.9,0.2,1.3,0.4c0.4,0.1,0.9,0.2,1.4,0.4c0.4,0.1,0.8,0.2,1.2,0.3c0.9,0.2,1.7,0.4,2.6,0.6
	c0.9,0.2,1.7,0.4,2.6,0.6h0.1c0.1,0,0.2,0,0.4,0.1c0.6,0.1,1.2,0.2,1.8,0.4l0,0c0.6,0.1,1.2,0.2,1.8,0.4c0.5,0.1,1,0.2,1.5,0.3
	s1,0.2,1.5,0.3s1.1,0.2,1.6,0.3c0.4,0.1,0.7,0.1,1.1,0.2c0.7,0.1,1.3,0.2,2,0.3c4,0.7,8.2,1.3,12.6,1.8c0.7,0.1,1.5,0.2,2.2,0.3
	c0.8,0.1,1.5,0.2,2.2,0.3c0.8,0.1,1.5,0.2,2.3,0.2c0.8,0.1,1.5,0.2,2.3,0.2c0.8,0.1,1.6,0.2,2.3,0.2s1.6,0.2,2.4,0.2
	c1.5,0.1,3,0.3,4.5,0.4c2.6,0.2,5.1,0.4,7.8,0.5c0.2,0,0.5,0,0.7,0c1.2,0.1,2.3,0.1,3.5,0.2c1,0,2,0.1,3,0.2c0.1,0,0.2,0,0.3,0
	c1.7,0.1,3.4,0.1,5.2,0.2c0.6,0,1.1,0,1.7,0.1c2.6,0.1,5.3,0.2,8,0.2c1,0,1.9,0,2.9,0c2.1,0,4.1,0,6.2,0
	c58.1,0,105.9-9.3,112.4-21.2c0.5-0.9,0.8-1.8,0.8-2.8c0-8.7-21.9-16.3-54.6-20.5l0,0"/>
<path class="st10" d="M2622.6,1049.3c-2.7,1.6-5.4,3.1-8.2,4.6"/>
<path class="st10" d="M2434.6,727.7c-5.3,36.2-15.2,79-32.8,128.2c-8.1,18.8-12.7,39.5-12.7,61.3c0,80.4,61.5,146.4,140.1,153.5"/>
<path class="st10" d="M2439.3,685.1c3.4-49.9-1.4-81.8-0.3-94.6c1.9-21.3-6.3-74.4-8.2-86.8c0.1,0.2,0.2,0.4,0.3,0.6c0,0,0,0,0,0.1
	c0.1,0.2,0.2,0.3,0.4,0.5c0.1,0.1,0.2,0.3,0.3,0.4l0,0c0.1,0.1,0.2,0.2,0.3,0.3c0.1,0.1,0.2,0.2,0.3,0.3c0.2,0.2,0.4,0.4,0.6,0.5
	c0.1,0.1,0.3,0.2,0.4,0.4c0.1,0.1,0.3,0.2,0.4,0.4c0.2,0.1,0.3,0.2,0.5,0.4c0.8,0.6,1.7,1.2,2.8,1.8c0.2,0.1,0.4,0.2,0.6,0.3
	c1,0.5,2,1.1,3.2,1.6c0.6,0.3,1.2,0.5,1.9,0.8c0.4,0.2,0.8,0.3,1.2,0.5c1.1,0.4,2.3,0.9,3.5,1.3c0.4,0.1,0.8,0.3,1.2,0.4
	c0.5,0.2,1,0.3,1.5,0.5s1.1,0.3,1.6,0.5c0.2,0.1,0.4,0.1,0.6,0.2c0.4,0.1,0.9,0.2,1.3,0.4c0.4,0.1,0.9,0.2,1.4,0.4
	c0.4,0.1,0.8,0.2,1.2,0.3c1.7,0.4,3.5,0.9,5.4,1.3c0.7,0.2,1.4,0.3,2.2,0.5c0.6,0.1,1.2,0.2,1.8,0.4c0.5,0.1,1,0.2,1.5,0.3
	s1,0.2,1.5,0.3s1.1,0.2,1.6,0.3c0.4,0.1,0.7,0.1,1.1,0.2c0.7,0.1,1.3,0.2,2,0.3c4,0.7,8.2,1.3,12.6,1.8c0.7,0.1,1.5,0.2,2.2,0.3
	c0.8,0.1,1.5,0.2,2.2,0.3c0.8,0.1,1.5,0.2,2.3,0.2c0.8,0.1,1.5,0.2,2.3,0.2c0.8,0.1,1.6,0.2,2.3,0.2s1.6,0.2,2.4,0.2
	c1.5,0.1,3,0.3,4.5,0.4c2.6,0.2,5.1,0.4,7.8,0.5c0.2,0,0.5,0,0.7,0c1.2,0.1,2.3,0.1,3.5,0.2c1,0,2,0.1,3,0.2c0.1,0,0.2,0,0.3,0
	c1.7,0.1,3.4,0.1,5.2,0.2c0.6,0,1.1,0,1.7,0.1c2.6,0.1,5.3,0.2,8,0.2c1,0,1.9,0,2.9,0c2.1,0,4.1,0,6.2,0
	c58.1,0,105.9-9.3,112.4-21.2c-2,12.7-10.1,65.4-8.2,86.6c2.1,23.9-16.8,114.3,36.9,264.5c8.4,19,13,40,13,62.1
	c0,43.5-18.1,82.9-47.1,110.9"/>
<path class="st10" d="M2590.3,1064c-10.6,3.4-21.6,5.7-33.1,6.7"/>
<path class="st12" d="M-729.6,1722.1c-0.7,2-1.4,3.9-2.1,5.9"/>
<path class="st10" d="M2430.7,503.8c-0.3-1.7-0.4-2.6-0.4-2.6"/>
<path class="st12" d="M2686.2,860.4c-0.6-1.8-1.3-3.6-1.9-5.3"/>
<path class="st10" d="M2656.1,501.2c0,0-0.2,1-0.4,2.8"/>
<line class="st10" x1="2642.2" y1="1171.8" x2="2642.2" y2="1171.8"/>
<line class="st10" x1="2444.2" y1="1171.8" x2="2444.2" y2="1171.8"/>
<path class="st10" d="M2575.2,1151.4c38.3,2.9,66,10.9,67,20.4h-198c1-9.5,28.7-17.5,66.9-20.4"/>
<g>
	<path class="st12" d="M2529.2,1070.7c2.8,27.1,3,70.8-18.8,81.1"/>
	<path class="st12" d="M2575.7,1151.7c-21.7-10.3-21.3-53.9-18.5-81"/>
</g>
<g>
	<g>
		<path class="st2" d="M2449.2,572L2449.2,572c-0.1-0.5-0.2-1-0.3-1.5L2449.2,572z"/>
		<path class="st2" d="M2679.2,894.3c0,67.8-51.1,131.6-116.9,139.1c-4.1,1.5-10,2.1-16.4,1.9c-0.8,0-1.6,0.1-2.4,0.1
			c-5.7,0-11.1-0.8-15.9-2.3c-64.3-8.5-112.4-53.7-112.4-120.4c0-18.7,3.9-54.7,10.9-70.8c46.2-129.1,29-197,28.6-217.7
			c-0.2-7.5-0.8-15.7-1.6-23.6c-1.2-11.3-2.8-21.8-3.9-28.5l0,0l4.2-1.9h185.8c-0.1,0.6-0.2,1.3-0.4,2.1l0,0
			c-2.1,12-7.8,37.1-6.3,54.2c1.8,20.5-10.4,86,35.5,214.7C2675.2,857.3,2679.2,875.3,2679.2,894.3z"/>
		<path class="st2" d="M2453,600.5l-3.9-28.5C2450.2,578.7,2451.8,589.2,2453,600.5z"/>
	</g>
</g>
<path class="st6" d="M2639.2,570.1c0,0.9-0.2,1.9-0.6,2.8c-5.5,12-45.7,21.2-94.5,21.2c-49.1,0-89.5-9.4-94.6-21.4
	c-0.4-0.9-0.6-1.7-0.6-2.6c0-13.3,42.6-24,95.2-24C2596.6,546,2639.2,556.8,2639.2,570.1z"/>
<path class="st12" d="M2525.3,897.3l-45.4,11.3c-9.6,2.4-19.4-3.5-21.8-13.1l-10.8-43.4c-2.4-9.6,3.5-19.4,13.1-21.8l45.4-11.3
	c9.6-2.4,19.4,3.5,21.8,13.1l10.8,43.4C2540.8,885.1,2534.9,894.9,2525.3,897.3z"/>
<path class="st12" d="M2547.8,989.4l-45.1-12.4c-9.5-2.6-15.2-12.6-12.6-22.1l11.9-43.1c2.6-9.5,12.6-15.2,22.1-12.6l45.1,12.4
	c9.5,2.6,15.2,12.6,12.6,22.1l-11.9,43.1C2567.3,986.4,2557.3,992.1,2547.8,989.4z"/>
<path class="st12" d="M2640.5,940.1h-46.8c-9.9,0-18-8.1-18-18v-44.7c0-9.9,8.1-18,18-18h46.8c9.9,0,18,8.1,18,18v44.7
	C2658.5,932,2650.4,940.1,2640.5,940.1z"/>
<ellipse transform="matrix(2.499638e-02 -0.9997 0.9997 2.499638e-02 1717.3356 3294.3479)" class="st6" cx="2547.5" cy="766.8" rx="64" ry="62.3"/>
<g>
	<path class="st16" d="M2528.5,796.3c-0.1,0.1-0.2,0.3-0.3,0.4c-0.2,0.2-0.4,0.4-0.6,0.6l-0.1,0.1c-0.2,0.2-0.4,0.4-0.6,0.6
		c-0.1,0.1-0.2,0.2-0.3,0.3l0.9-0.9L2528.5,796.3z"/>
	<path class="st16" d="M2516.6,769.7h0.7c-0.1,0-0.2,0-0.3,0c-0.3,0-0.6,0-0.9,0s-0.6,0-0.9,0c-0.1,0-0.2,0-0.3,0h0.7
		c0.2,0,0.3,0,0.5,0S2516.5,769.7,2516.6,769.7z"/>
	<path class="st16" d="M2528.1,742.8c0.1,0.1,0.1,0.1,0.2,0.2l-0.5-0.5l-0.5-0.5l-0.4-0.4c0.1,0,0.1,0.1,0.2,0.1
		C2527.3,742,2527.7,742.4,2528.1,742.8L2528.1,742.8z"/>
	<path class="st16" d="M2555,730.8c0,0.1,0,0.3,0,0.4v-0.8C2555,730.5,2555,730.6,2555,730.8z"/>
	<path class="st16" d="M2559.8,769.7c0,1.3-0.5,2.5-1.4,3.4s-2,1.4-3.4,1.4c-1.3,0-2.5-0.5-3.4-1.4s-1.4-2-1.4-3.4
		c0-1.3,0.5-2.5,1.4-3.4s2-1.4,3.4-1.4c1.3,0,2.5,0.5,3.4,1.4C2559.2,767.2,2559.8,768.4,2559.8,769.7z"/>
	<path class="st16" d="M2555,809.3v-1c0,0.1,0,0.2,0,0.2v0.1v0.2v0.1c0,0,0,0,0,0.1c0.1,8.8,7.3,16,16.2,16s16.2-7.3,16.2-16.2
		c0-4-1.5-7.7-3.9-10.5c-0.7-0.6-1.3-1.2-1.9-1.9c-0.1-0.1-0.2-0.2-0.2-0.3l0.6,0.6l1.3,1.3l0.5,0.5"/>
	<path class="st16" d="M2555,831.2c17,0,32.4-6.9,43.5-18"/>
	<path class="st16" d="M2582.2,742.6l-0.4,0.4c0-0.1,0.1-0.1,0.1-0.2c0.4-0.4,0.8-0.8,1.2-1.2l0,0l0.1-0.1l-0.3,0.3
		C2582.7,742,2582.5,742.3,2582.2,742.6z"/>
	<path class="st16" d="M2592.4,769.8h-0.1l0,0C2592.3,769.8,2592.4,769.8,2592.4,769.8z"/>
	<path class="st16" d="M2592.9,769.8c-0.1,0-0.2,0-0.3,0C2592.7,769.8,2592.8,769.8,2592.9,769.8L2592.9,769.8z"/>
	<path class="st16" d="M2595.1,769.7c-0.1,0-0.2,0-0.2,0l0,0c-0.3,0-0.6,0-0.9,0c-0.3,0-0.6,0-0.8,0l0,0c-0.1,0-0.2,0-0.3,0h0.8
		c0.1,0,0.3,0,0.5,0s0.3,0,0.5,0H2595.1z"/>
	<path class="st16" d="M2595.2,769.8L2595.2,769.8c-0.1,0-0.3,0-0.4,0C2595,769.7,2595.1,769.8,2595.2,769.8L2595.2,769.8z"/>
	<path class="st16" d="M2595.8,769.8c-0.1,0-0.1,0-0.2,0l0,0c-0.1,0-0.1,0-0.2,0c0.1,0,0.1,0,0.2,0S2595.7,769.8,2595.8,769.8z"/>
	<path class="st16" d="M2609.2,780.3c0-0.1,0-0.1-0.1-0.2c-0.1-0.2-0.2-0.4-0.2-0.6c-0.1-0.2-0.1-0.3-0.2-0.5
		c-0.1-0.1-0.1-0.3-0.2-0.4c0-0.1-0.1-0.2-0.1-0.3s-0.1-0.2-0.2-0.3c0,0,0-0.1-0.1-0.1c-0.1-0.2-0.2-0.3-0.3-0.5s-0.2-0.3-0.3-0.5
		s-0.2-0.3-0.3-0.5l0,0c-0.1-0.2-0.2-0.3-0.4-0.5s-0.2-0.3-0.4-0.5c-0.1-0.1-0.2-0.3-0.4-0.4c0,0,0-0.1-0.1-0.1
		c-0.1-0.1-0.2-0.3-0.3-0.4l0,0c-0.1-0.1-0.3-0.3-0.4-0.4c-0.1-0.1-0.2-0.2-0.4-0.4s-0.3-0.3-0.5-0.5c-0.2-0.1-0.3-0.3-0.5-0.4
		c-0.2-0.1-0.4-0.3-0.6-0.4c-0.1-0.1-0.2-0.2-0.4-0.3c-0.1-0.1-0.2-0.1-0.3-0.2c-0.1-0.1-0.3-0.2-0.4-0.2c-0.2-0.1-0.4-0.3-0.7-0.4
		c-0.1-0.1-0.2-0.1-0.3-0.1c-0.2-0.1-0.3-0.2-0.5-0.2c-0.2-0.1-0.4-0.2-0.6-0.2c-0.1-0.1-0.3-0.1-0.5-0.2c-0.1-0.1-0.3-0.1-0.4-0.1
		c0,0-0.1,0-0.1-0.1c-0.1,0-0.2-0.1-0.3-0.1s-0.2-0.1-0.3-0.1s-0.2-0.1-0.3-0.1s-0.2-0.1-0.3-0.1s-0.1,0-0.2-0.1
		c-0.1,0-0.2-0.1-0.4-0.1c-0.3-0.1-0.5-0.1-0.8-0.2c-0.1,0-0.2,0-0.3,0c0.1,0,0.1,0,0.2,0l0,0c0.2,0,0.4,0.1,0.5,0.1s0.1,0,0.2,0
		l0,0l0,0c0.2,0,0.3,0.1,0.5,0.1c0.1,0,0.1,0,0.1,0c0.2,0,0.3,0.1,0.5,0.1c0.2,0.1,0.4,0.1,0.7,0.2c0.2,0.1,0.4,0.1,0.5,0.2
		c0.1,0,0.2,0.1,0.3,0.1c0.2,0.1,0.4,0.2,0.6,0.3c0.1,0,0.2,0.1,0.3,0.1c0.2,0.1,0.4,0.2,0.7,0.3l0,0c0.2,0.1,0.4,0.2,0.6,0.4
		c0.1,0.1,0.2,0.1,0.3,0.2c0.1,0.1,0.2,0.2,0.4,0.2c0.1,0.1,0.2,0.2,0.4,0.3c0.2,0.2,0.5,0.3,0.7,0.5c0.1,0.1,0.2,0.1,0.2,0.2l0,0
		c0.1,0.1,0.3,0.2,0.4,0.4c0.1,0.1,0.3,0.3,0.4,0.4l0,0c0.1,0.1,0.2,0.2,0.3,0.3s0.2,0.2,0.3,0.3s0.2,0.3,0.4,0.4
		c0.1,0.1,0.2,0.3,0.4,0.4c0.1,0.1,0.2,0.2,0.2,0.3l0,0c0.1,0.2,0.3,0.3,0.4,0.5c0.1,0.1,0.2,0.2,0.3,0.4s0.2,0.3,0.3,0.5
		s0.2,0.3,0.3,0.5c0.1,0.1,0.1,0.2,0.2,0.3c0.1,0.2,0.2,0.4,0.3,0.7c0.1,0.2,0.2,0.4,0.3,0.7c0.1,0.1,0.1,0.2,0.1,0.3
		c0.1,0.3,0.3,0.7,0.4,1c0,0.1,0.1,0.2,0.1,0.4c0,0.1,0.1,0.2,0.1,0.4c0.1,0.2,0.1,0.4,0.1,0.6l0,0c0,0.2,0.1,0.3,0.1,0.5
		c0,0.1,0,0.1,0,0.2c-0.1-0.4-0.2-0.8-0.3-1.2C2609.4,781.1,2609.3,780.7,2609.2,780.3z"/>
	<path class="st16" d="M2559.8,769.7c0,1.3-0.5,2.5-1.4,3.4s-2,1.4-3.4,1.4c-1.3,0-2.5-0.5-3.4-1.4s-1.4-2-1.4-3.4
		c0-1.3,0.5-2.5,1.4-3.4s2-1.4,3.4-1.4c1.3,0,2.5,0.5,3.4,1.4C2559.2,767.2,2559.8,768.4,2559.8,769.7z"/>
	<line class="st16" x1="2594.5" y1="769.7" x2="2593.5" y2="769.7"/>
	<line class="st16" x1="2516.6" y1="769.7" x2="2515.6" y2="769.7"/>
	<line class="st16" x1="2527.7" y1="742.4" x2="2527.2" y2="741.9"/>
	<line class="st16" x1="2583" y1="741.8" x2="2582.2" y2="742.6"/>
	<path class="st16" d="M2555,730.3V765c-1.3,0-2.5,0.5-3.4,1.4l-23.4-23.4c-0.1-0.1-0.1-0.1-0.2-0.2l0,0c-0.4-0.4-0.8-0.8-1.2-1.2
		c-2.6-2.9-4.2-6.7-4.2-10.9c0-8.9,7.2-16.1,16.1-16.1C2547.7,714.6,2554.8,721.6,2555,730.3z"/>
	<path class="st16" d="M2528.1,742.8c-0.1-0.1-0.2-0.2-0.3-0.3l-0.5-0.5c-0.1-0.1-0.2-0.2-0.3-0.3
		C2527.3,742,2527.7,742.4,2528.1,742.8z"/>
	<path class="st16" d="M2555,730.8c0,0.1,0,0.3,0,0.4v-0.8C2555,730.5,2555,730.6,2555,730.8z"/>
	<path class="st16" d="M2587.3,730.8c0,4.2-1.6,8-4.2,10.9l0,0c-0.4,0.4-0.8,0.7-1.2,1.2c0,0.1-0.1,0.1-0.1,0.2l-23.4,23.4
		c-0.9-0.9-2-1.4-3.4-1.4v-33.8c0-0.1,0-0.3,0-0.4c0-8.9,7.2-16.1,16.1-16.1S2587.3,721.8,2587.3,730.8z"/>
	<path class="st16" d="M2583.1,741.6c-0.1,0.1-0.1,0.1-0.2,0.2c-0.2,0.3-0.5,0.5-0.8,0.8c-0.1,0.1-0.2,0.1-0.2,0.2
		C2582.3,742.4,2582.7,742,2583.1,741.6z"/>
	<path class="st16" d="M2587.4,808.8c0,8.9-7.3,16.2-16.2,16.2s-16.1-7.1-16.2-16c0,0,0,0,0-0.1v-0.1v-0.3c0-0.1,0-0.2,0-0.2v-33.8
		c1.3,0,2.5-0.5,3.4-1.4l23,23c0.1,0.1,0.2,0.2,0.2,0.3c0.6,0.7,1.2,1.3,1.9,1.9C2586,801.1,2587.4,804.8,2587.4,808.8z"/>
	<path class="st16" d="M2555,808.8c0-0.1,0-0.1,0-0.2V808.8L2555,808.8L2555,808.8z"/>
	<path class="st16" d="M2583.5,798.3c-0.7-0.6-1.3-1.2-1.9-1.9c0.1,0.1,0.2,0.2,0.4,0.3c0.1,0.1,0.3,0.2,0.4,0.3l0.2,0.2l0.1,0.1
		c0,0,0,0,0.1,0.1c0,0,0,0,0.1,0.1s0.3,0.3,0.4,0.4C2583.4,798.1,2583.5,798.2,2583.5,798.3z"/>
	<path class="st16" d="M2555,808.5v0.3v0.1c0,0,0,0,0,0.1s0,0.2,0,0.3v-1C2555,808.4,2555,808.4,2555,808.5z"/>
	<path class="st16" d="M2555,774.5v34.8c-0.3,8.7-7.4,15.6-16.1,15.6c-8.9,0-16.1-7.2-16.1-16.1c0-4.4,1.8-8.5,4.7-11.4l0.1-0.1
		c0.2-0.2,0.4-0.4,0.6-0.6c0.1-0.1,0.2-0.3,0.3-0.4l23.2-23.2C2552.5,773.9,2553.7,774.5,2555,774.5z"/>
	<path class="st16" d="M2592.9,769.8c-0.1,0-0.2,0-0.3,0C2592.7,769.8,2592.8,769.8,2592.9,769.8L2592.9,769.8z"/>
	<path class="st16" d="M2555,831.2c-34,0-61.5-27.5-61.5-61.5s27.5-61.5,61.5-61.5s61.5,27.5,61.5,61.5c0,17-6.9,32.3-18,43.5"/>
	<path class="st16" d="M2583.8,798.5l-0.5-0.5l-1.3-1.3c0.1,0.1,0.3,0.2,0.4,0.3l0.2,0.2l0.1,0.1c0,0,0,0,0.1,0.1c0,0,0,0,0.1,0.1
		s0.3,0.3,0.5,0.4l0.1,0.1c0.1,0.1,0.3,0.2,0.4,0.3l0,0c0.2,0.1,0.3,0.3,0.5,0.4c0.2,0.1,0.4,0.3,0.5,0.4c0.1,0.1,0.2,0.1,0.3,0.2
		c0.1,0.1,0.2,0.1,0.3,0.2c0.1,0.1,0.2,0.1,0.3,0.2l0,0c0.1,0,0.1,0.1,0.2,0.1c0.1,0.1,0.2,0.1,0.3,0.2c0.3,0.2,0.6,0.3,0.9,0.4
		c0.1,0.1,0.2,0.1,0.3,0.2c0.1,0.1,0.2,0.1,0.4,0.1c0.4,0.2,0.9,0.3,1.3,0.5c0.1,0,0.3,0.1,0.4,0.1c0.3,0.1,0.5,0.1,0.8,0.2
		c0.1,0,0.3,0.1,0.4,0.1c0.1,0,0.2,0,0.3,0.1c0.1,0,0.2,0,0.3,0.1c0.2,0,0.4,0.1,0.6,0.1c0.1,0,0.2,0,0.3,0s0.2,0,0.2,0
		c0.1,0,0.2,0,0.3,0c0.2,0,0.5,0,0.7,0s0.3,0,0.5,0c0.1,0,0.3,0,0.4,0c0.3,0,0.5,0,0.8,0c0.1,0,0.1,0,0.2,0c0.2,0,0.4,0,0.6-0.1h0.1
		c0.1,0,0.3,0,0.4-0.1c0.3,0,0.5-0.1,0.8-0.1c0.1,0,0.3-0.1,0.4-0.1c0.2,0,0.3-0.1,0.5-0.1c0.1,0,0.1,0,0.2,0c0.2,0,0.3-0.1,0.5-0.1
		c0.1,0,0.3-0.1,0.4-0.1c0.1,0,0.1,0,0.2-0.1c0.2-0.1,0.3-0.1,0.5-0.2c0.1,0,0.2-0.1,0.4-0.1c0.1-0.1,0.2-0.1,0.4-0.2
		c0.1,0,0.2-0.1,0.3-0.1c0.1-0.1,0.3-0.1,0.4-0.2c0.1-0.1,0.2-0.1,0.3-0.2c0.1-0.1,0.2-0.1,0.3-0.2c0.1-0.1,0.3-0.1,0.4-0.2
		c0.1-0.1,0.2-0.1,0.3-0.2c0.1-0.1,0.2-0.1,0.3-0.2c0.1-0.1,0.2-0.1,0.3-0.2c0.2-0.1,0.4-0.3,0.6-0.5c0.1-0.1,0.2-0.2,0.3-0.2
		c0.1-0.1,0.2-0.2,0.3-0.2c0.1-0.1,0.2-0.2,0.3-0.3s0.2-0.2,0.3-0.3s0.2-0.2,0.3-0.3c0.4-0.4,0.7-0.7,1.1-1.1l0,0
		c0.1-0.1,0.1-0.2,0.2-0.3c0.1-0.2,0.3-0.3,0.4-0.5c0.1-0.2,0.2-0.3,0.4-0.5c0.1-0.2,0.3-0.4,0.4-0.6c0.1-0.2,0.3-0.4,0.4-0.6
		c0.1-0.1,0.1-0.2,0.1-0.3c0.1-0.1,0.1-0.3,0.2-0.4c0.1-0.1,0.1-0.3,0.2-0.4c0.1-0.1,0.1-0.2,0.1-0.3s0.1-0.2,0.1-0.3v-0.1
		c0-0.1,0.1-0.2,0.1-0.3l0,0v-0.1c0-0.1,0-0.1,0.1-0.2c0-0.1,0-0.1,0.1-0.2c0-0.1,0.1-0.2,0.1-0.3s0.1-0.2,0.1-0.3s0.1-0.3,0.1-0.4
		c0,0,0,0,0-0.1s0.1-0.3,0.1-0.4c0,0,0,0,0-0.1l0,0c0.1-0.2,0.1-0.5,0.2-0.7l0,0c0-0.1,0-0.1,0-0.2c0-0.1,0-0.2,0-0.2v-0.1
		c0-0.1,0-0.2,0-0.3l0,0c0-0.1,0-0.3,0.1-0.4l0,0v-0.1v-0.1v-0.1v-0.1c0-0.1,0-0.2,0-0.2v-0.1c0-0.1,0-0.2,0-0.3s0-0.1,0-0.2
		c0-0.1,0-0.2,0-0.3s0-0.2,0-0.4c0-0.3,0-0.5,0-0.8c0-0.1,0-0.2,0-0.2v-0.1c0-0.1,0-0.3,0-0.4l0,0c0-0.1,0-0.1,0-0.2
		c0-0.1,0-0.1,0-0.2c0,0,0,0,0-0.1c0-0.2-0.1-0.5-0.1-0.7c0-0.1,0-0.2,0-0.2v-0.1c0-0.1,0-0.1,0-0.2c0-0.1,0-0.1,0-0.2
		c0-0.2-0.1-0.3-0.1-0.5l0,0c0-0.2-0.1-0.4-0.1-0.6c0-0.1-0.1-0.2-0.1-0.4c0-0.1-0.1-0.2-0.1-0.4c-0.1-0.4-0.3-0.7-0.4-1
		c0-0.1-0.1-0.2-0.1-0.3c-0.1-0.2-0.2-0.4-0.3-0.7c-0.1-0.2-0.2-0.4-0.3-0.7c-0.1-0.1-0.1-0.2-0.2-0.3c-0.1-0.2-0.2-0.3-0.3-0.5
		s-0.2-0.3-0.3-0.5c-0.1-0.1-0.2-0.2-0.3-0.4s-0.2-0.3-0.4-0.5l0,0c-0.1-0.1-0.2-0.2-0.2-0.3c-0.1-0.1-0.2-0.3-0.4-0.4
		c-0.1-0.1-0.2-0.3-0.4-0.4c-0.1-0.1-0.2-0.2-0.3-0.3s-0.2-0.2-0.3-0.3l0,0c-0.1-0.1-0.3-0.3-0.4-0.4c-0.1-0.1-0.3-0.2-0.4-0.4l0,0
		c-0.1-0.1-0.2-0.1-0.2-0.2c-0.2-0.2-0.5-0.4-0.7-0.5c-0.1-0.1-0.2-0.2-0.4-0.3c-0.1-0.1-0.2-0.2-0.4-0.2c-0.1-0.1-0.2-0.1-0.3-0.2
		c-0.2-0.1-0.4-0.2-0.6-0.4l0,0c-0.2-0.1-0.4-0.2-0.7-0.3c-0.1-0.1-0.2-0.1-0.3-0.1c-0.2-0.1-0.4-0.2-0.6-0.3
		c-0.1,0-0.2-0.1-0.3-0.1c-0.2-0.1-0.4-0.1-0.5-0.2c-0.2-0.1-0.4-0.1-0.7-0.2c-0.2-0.1-0.3-0.1-0.5-0.1h-0.1c-0.2,0-0.3-0.1-0.5-0.1
		l0,0l0,0c-0.1,0-0.1,0-0.2,0l0,0c-0.1,0-0.3,0-0.4-0.1h-0.1l0,0c-0.1,0-0.1,0-0.2,0l0,0l0,0c-0.1,0-0.2,0-0.3,0l0,0
		c-0.1,0-0.1,0-0.2,0c-0.1,0-0.1,0-0.2,0c-0.1,0-0.2,0-0.4,0l0,0l0,0l0,0c-0.1,0-0.2,0-0.4,0c0.1,0,0.2,0,0.2,0
		c8.4-0.6,15-7.6,15-16.1c0-8.9-7.2-16.1-16.1-16.1c-4.1,0-7.8,1.5-10.7,4l-0.1,0.1c2.6-2.9,4.2-6.7,4.2-10.9
		c0-8.9-7.2-16.1-16.1-16.1s-16.1,7.2-16.1,16.1c0-0.1,0-0.3,0-0.4c-0.2-8.7-7.4-15.7-16.1-15.7c-8.9,0-16.1,7.2-16.1,16.1
		c0,4.2,1.6,8,4.2,10.9c-0.1,0-0.1-0.1-0.2-0.1c-2.8-2.5-6.6-4-10.6-4c-8.9,0-16.1,7.2-16.1,16.1c0,8.5,6.6,15.5,15,16.1
		c0.1,0,0.2,0,0.3,0c-8.5,0.5-15.3,7.5-15.3,16.1c0,8.9,7.2,16.1,16.1,16.1c4,0,7.6-1.4,10.4-3.8c0.1-0.1,0.2-0.2,0.3-0.3
		c0.2-0.2,0.4-0.4,0.6-0.6c-2.9,2.9-4.7,6.9-4.7,11.4c0,8.9,7.2,16.1,16.1,16.1c8.8,0,15.9-7,16.1-15.6"/>
	<path class="st16" d="M2528.2,796.6c-0.2,0.2-0.4,0.4-0.6,0.6l-0.1,0.1c-0.2,0.2-0.4,0.4-0.6,0.6c0.2-0.2,0.4-0.4,0.6-0.6
		S2527.9,796.9,2528.2,796.6z"/>
	<path class="st16" d="M2551.7,766.4c-0.9,0.9-1.4,2-1.4,3.4h-33.6c-0.2,0-0.3,0-0.5,0s-0.3,0-0.5,0h-0.7c-8.4-0.6-15-7.6-15-16.1
		c0-8.9,7.2-16.1,16.1-16.1c4.1,0,7.8,1.5,10.6,4l0.4,0.4c0.2,0.2,0.4,0.4,0.5,0.5l0.5,0.5L2551.7,766.4z"/>
	<path class="st16" d="M2516.6,769.7h0.7c-0.1,0-0.2,0-0.3,0c-0.3,0-0.6,0-0.9,0s-0.6,0-0.9,0c-0.1,0-0.2,0-0.3,0h0.7
		c0.2,0,0.3,0,0.5,0S2516.5,769.7,2516.6,769.7z"/>
	<path class="st16" d="M2528.3,743l-0.5-0.5l-0.5-0.5l-0.4-0.4c0.1,0,0.1,0.1,0.2,0.1c0.4,0.4,0.8,0.7,1.2,1.2l0,0
		C2528.2,742.8,2528.2,742.9,2528.3,743z"/>
	<path class="st16" d="M2610.1,753.6c0,8.5-6.6,15.5-15,16.1h-0.6c-0.2,0-0.3,0-0.5,0s-0.3,0-0.5,0h-33.8c0-1.3-0.5-2.5-1.4-3.4
		l23.4-23.4l0.4-0.4c0.3-0.2,0.5-0.5,0.8-0.8l0.3-0.3c2.8-2.5,6.6-4,10.7-4C2602.8,737.5,2610.1,744.7,2610.1,753.6z"/>
	<path class="st16" d="M2583.1,741.6l0.1-0.1l-0.3,0.3c-0.2,0.3-0.5,0.5-0.8,0.8l-0.4,0.4c0-0.1,0.1-0.1,0.1-0.2
		C2582.3,742.4,2582.7,742,2583.1,741.6L2583.1,741.6z"/>
	<path class="st16" d="M2595.1,769.7c-0.1,0-0.2,0-0.2,0l0,0c-0.3,0-0.6,0-0.9,0c-0.3,0-0.6,0-0.8,0l0,0c-0.1,0-0.2,0-0.3,0h0.8
		c0.1,0,0.3,0,0.5,0s0.3,0,0.5,0H2595.1z"/>
	<path class="st16" d="M2551.7,773.1l-23.2,23.2l-1.1,1.1l-0.9,0.9c-2.8,2.4-6.4,3.8-10.4,3.8c-8.9,0-16.1-7.2-16.1-16.1
		c0-8.6,6.8-15.7,15.3-16.1c0.3,0,0.6,0,0.9,0s0.6,0,0.9,0c0.1,0,0.2,0,0.3,0h32.9C2550.3,771,2550.8,772.2,2551.7,773.1z"/>
	<path class="st16" d="M2517,769.7c-0.3,0-0.6,0-0.9,0s-0.6,0-0.9,0c0.1,0,0.3,0,0.4,0c0.2,0,0.3,0,0.5,0s0.3,0,0.5,0
		S2516.9,769.7,2517,769.7z"/>
	<path class="st16" d="M2528.5,796.3c-0.1,0.1-0.2,0.3-0.3,0.4c-0.2,0.2-0.4,0.4-0.6,0.6l-0.1,0.1c-0.2,0.2-0.4,0.4-0.6,0.6
		c-0.1,0.1-0.2,0.2-0.3,0.3l0.9-0.9L2528.5,796.3z"/>
	<path class="st16" d="M2610.2,785.1c0-0.3,0-0.5-0.1-0.8l0,0c0-0.1,0-0.2,0-0.4c0-0.3-0.1-0.7-0.1-1c0-0.1,0-0.2-0.1-0.3
		c-0.1-0.4-0.2-0.8-0.3-1.2s-0.2-0.8-0.4-1.2c-0.1-0.2-0.2-0.4-0.3-0.7c-0.1-0.2-0.1-0.3-0.2-0.5c-0.1-0.1-0.1-0.3-0.2-0.4
		c0-0.1-0.1-0.2-0.1-0.3s-0.1-0.2-0.2-0.3c0,0,0-0.1-0.1-0.1c-0.1-0.2-0.2-0.3-0.3-0.5s-0.2-0.3-0.3-0.5s-0.2-0.3-0.3-0.5l0,0
		c-0.1-0.2-0.2-0.3-0.4-0.5c-0.1-0.2-0.2-0.3-0.4-0.5c-0.1-0.1-0.2-0.3-0.4-0.4c0,0,0-0.1-0.1-0.1c-0.1-0.1-0.2-0.3-0.3-0.4l0,0
		c-0.1-0.1-0.3-0.3-0.4-0.4c-0.1-0.1-0.2-0.2-0.4-0.4s-0.3-0.3-0.5-0.5c-0.2-0.1-0.3-0.3-0.5-0.4c-0.2-0.1-0.4-0.3-0.6-0.4
		c-0.1-0.1-0.2-0.2-0.4-0.3c-0.1-0.1-0.2-0.1-0.3-0.2c-0.1-0.1-0.3-0.2-0.4-0.2c-0.2-0.1-0.4-0.3-0.7-0.4c-0.1-0.1-0.2-0.1-0.3-0.1
		c-0.2-0.1-0.3-0.2-0.5-0.2c-0.2-0.1-0.4-0.2-0.6-0.2c-0.1-0.1-0.3-0.1-0.5-0.2c-0.1-0.1-0.3-0.1-0.4-0.1c0,0-0.1,0-0.1-0.1
		c-0.1,0-0.2-0.1-0.3-0.1s-0.2-0.1-0.3-0.1s-0.2-0.1-0.3-0.1s-0.2-0.1-0.3-0.1s-0.1,0-0.2-0.1c-0.1,0-0.2-0.1-0.4-0.1
		c-0.3-0.1-0.5-0.1-0.8-0.2c-0.1,0-0.2,0-0.3,0l0,0l0,0c-0.1,0-0.2,0-0.3,0l0,0c-0.1,0-0.1,0-0.2,0c-0.1,0-0.1,0-0.2,0l0,0
		c-0.1,0-0.1,0-0.2,0c-0.1,0-0.1,0-0.2,0l0,0c-0.1,0-0.2,0-0.4,0l0,0c-0.3,0-0.6,0-0.9,0c-0.3,0-0.6,0-0.8,0l0,0h-0.1c0,0,0,0,0.1,0
		c-0.1,0-0.2,0-0.3,0h-33c0,1.3-0.5,2.5-1.4,3.4l23,23l0.6,0.6c0.1,0.1,0.3,0.2,0.4,0.3l0.2,0.2l0.1,0.1c0,0,0,0,0.1,0.1
		c0,0,0,0,0.1,0.1s0.3,0.3,0.5,0.4l0.1,0.1c0.1,0.1,0.3,0.2,0.4,0.3l0,0c0.2,0.1,0.3,0.3,0.5,0.4c0.2,0.1,0.4,0.3,0.5,0.4
		c0.1,0.1,0.2,0.1,0.3,0.2c0.1,0.1,0.2,0.1,0.3,0.2c0.1,0.1,0.2,0.1,0.3,0.2l0,0c0.1,0,0.1,0.1,0.2,0.1c0.1,0.1,0.2,0.1,0.3,0.2
		c0.3,0.2,0.6,0.3,0.9,0.4c0.1,0.1,0.2,0.1,0.3,0.2c0.1,0.1,0.2,0.1,0.4,0.1c0.4,0.2,0.9,0.3,1.3,0.5c0.1,0,0.3,0.1,0.4,0.1
		c0.3,0.1,0.5,0.1,0.8,0.2c0.1,0,0.3,0.1,0.4,0.1c0.1,0,0.2,0,0.3,0.1c0.1,0,0.2,0,0.3,0.1c0.2,0,0.4,0.1,0.6,0.1c0.1,0,0.2,0,0.3,0
		s0.2,0,0.2,0c0.1,0,0.2,0,0.3,0c0.2,0,0.5,0,0.7,0s0.3,0,0.5,0c0.1,0,0.3,0,0.4,0c0.3,0,0.5,0,0.8,0c0.1,0,0.1,0,0.2,0
		c0.2,0,0.4,0,0.6-0.1h0.1c0.1,0,0.3,0,0.4-0.1c0.3,0,0.5-0.1,0.8-0.1c0.1,0,0.3-0.1,0.4-0.1c0.2,0,0.3-0.1,0.5-0.1
		c0.1,0,0.1,0,0.2,0c0.2,0,0.3-0.1,0.5-0.1c0.1,0,0.3-0.1,0.4-0.1c0.1,0,0.1,0,0.2-0.1c0.2-0.1,0.3-0.1,0.5-0.2
		c0.1,0,0.2-0.1,0.4-0.1c0.1-0.1,0.2-0.1,0.4-0.2c0.1,0,0.2-0.1,0.3-0.1c0.1-0.1,0.3-0.1,0.4-0.2c0.1-0.1,0.2-0.1,0.3-0.2
		c0.1-0.1,0.2-0.1,0.3-0.2c0.1-0.1,0.3-0.1,0.4-0.2c0.1-0.1,0.2-0.1,0.3-0.2c0.1-0.1,0.2-0.1,0.3-0.2c0.1-0.1,0.2-0.1,0.3-0.2
		c0.2-0.1,0.4-0.3,0.6-0.5c0.1-0.1,0.2-0.2,0.3-0.2c0.1-0.1,0.2-0.2,0.3-0.2c0.1-0.1,0.2-0.2,0.3-0.3s0.2-0.2,0.3-0.3
		s0.2-0.2,0.3-0.3c0.4-0.4,0.7-0.7,1.1-1.1l0,0c0.1-0.1,0.1-0.2,0.2-0.3c0.1-0.2,0.3-0.3,0.4-0.5c0.1-0.2,0.2-0.3,0.4-0.5
		c0.1-0.2,0.3-0.4,0.4-0.6c0.1-0.2,0.3-0.4,0.4-0.6c0.1-0.1,0.1-0.2,0.1-0.3c0.1-0.1,0.1-0.3,0.2-0.4c0.1-0.1,0.1-0.3,0.2-0.4
		c0.1-0.1,0.1-0.2,0.1-0.3s0.1-0.2,0.1-0.3v-0.1c0-0.1,0.1-0.2,0.1-0.3l0,0v-0.1c0-0.1,0-0.1,0.1-0.2c0-0.1,0-0.1,0.1-0.2
		c0-0.1,0.1-0.2,0.1-0.3s0.1-0.2,0.1-0.3s0.1-0.3,0.1-0.4c0,0,0,0,0-0.1s0.1-0.3,0.1-0.4c0,0,0,0,0-0.1l0,0c0.1-0.2,0.1-0.5,0.2-0.7
		l0,0c0-0.1,0-0.1,0-0.2c0-0.1,0-0.2,0-0.2c0-0.1,0-0.2,0.1-0.4l0,0c0-0.1,0-0.3,0.1-0.4l0,0v-0.1v-0.1v-0.1v-0.1c0-0.2,0-0.4,0-0.6
		c0,0,0,0,0-0.1s0-0.1,0-0.2c0-0.1,0-0.2,0-0.3s0-0.2,0-0.4C2610.2,785.6,2610.2,785.4,2610.2,785.1z M2591.2,770
		c0.1,0,0.2,0,0.3-0.1c0.1,0,0.3,0,0.4-0.1C2591.7,769.9,2591.4,769.9,2591.2,770z M2592.3,769.8c-0.1,0-0.2,0-0.3,0
		C2592.1,769.8,2592.2,769.8,2592.3,769.8h0.1C2592.4,769.8,2592.3,769.8,2592.3,769.8z M2592.7,769.8c0.1,0,0.1,0,0.2,0h0.1
		C2592.8,769.8,2592.8,769.8,2592.7,769.8z"/>
	<path class="st16" d="M2591.9,769.9c-0.2,0-0.4,0.1-0.7,0.1c0.1,0,0.2,0,0.3-0.1C2591.6,769.9,2591.8,769.9,2591.9,769.9z"/>
	<path class="st16" d="M2592.9,769.8c-0.1,0-0.2,0-0.3,0C2592.7,769.8,2592.8,769.8,2592.9,769.8L2592.9,769.8z"/>
	<path class="st16" d="M2593.1,769.7C2593,769.8,2593,769.8,2593.1,769.7C2593,769.8,2593,769.7,2593.1,769.7L2593.1,769.7z"/>
	<path class="st16" d="M2594.8,769.7c-0.3,0-0.6,0-0.9,0c-0.3,0-0.6,0-0.8,0c0.1,0,0.3,0,0.4,0l0,0c0.1,0,0.3,0,0.5,0s0.3,0,0.5,0
		l0,0C2594.6,769.7,2594.7,769.7,2594.8,769.7z"/>
	<path class="st16" d="M2608.6,792.7c0.1-0.1,0.1-0.2,0.1-0.3c-2.5,5.7-8.2,9.7-14.8,9.7c-3.9,0-7.4-1.4-10.2-3.6
		c-0.1-0.1-0.1-0.1-0.2-0.2c-0.7-0.6-1.3-1.2-1.9-1.9c-0.1-0.1-0.2-0.2-0.2-0.3l0.6,0.6c0.1,0.1,0.3,0.2,0.4,0.3l0.2,0.2l0.1,0.1
		c0,0,0,0,0.1,0.1c0,0,0,0,0.1,0.1s0.3,0.3,0.5,0.4l0.1,0.1c0.1,0.1,0.3,0.2,0.4,0.3l0,0c0.2,0.1,0.3,0.3,0.5,0.4
		c0.2,0.1,0.4,0.3,0.5,0.4c0.1,0.1,0.2,0.1,0.3,0.2c0.1,0.1,0.2,0.1,0.3,0.2c0.1,0.1,0.2,0.1,0.3,0.2l0,0c0.1,0,0.1,0.1,0.2,0.1
		c0.1,0.1,0.2,0.1,0.3,0.2c0.3,0.2,0.6,0.3,0.9,0.4c0.1,0.1,0.2,0.1,0.3,0.2c0.1,0.1,0.2,0.1,0.4,0.1c0.4,0.2,0.9,0.3,1.3,0.5
		c0.1,0,0.3,0.1,0.4,0.1c0.3,0.1,0.5,0.1,0.8,0.2c0.1,0,0.3,0.1,0.4,0.1c0.1,0,0.2,0,0.3,0.1c0.1,0,0.2,0,0.3,0.1
		c0.2,0,0.4,0.1,0.6,0.1c0.1,0,0.2,0,0.3,0s0.2,0,0.2,0c0.1,0,0.2,0,0.3,0c0.2,0,0.5,0,0.7,0s0.3,0,0.5,0c0.1,0,0.3,0,0.4,0
		c0.3,0,0.5,0,0.8,0c0.1,0,0.1,0,0.2,0c0.2,0,0.4,0,0.6-0.1h0.1c0.1,0,0.3,0,0.4-0.1c0.3,0,0.5-0.1,0.8-0.1c0.1,0,0.3-0.1,0.4-0.1
		c0.2,0,0.3-0.1,0.5-0.1c0.1,0,0.1,0,0.2,0c0.2,0,0.3-0.1,0.5-0.1c0.1,0,0.3-0.1,0.4-0.1c0.1,0,0.1,0,0.2-0.1
		c0.2-0.1,0.3-0.1,0.5-0.2c0.1,0,0.2-0.1,0.4-0.1c0.1-0.1,0.2-0.1,0.4-0.2c0.1,0,0.2-0.1,0.3-0.1c0.1-0.1,0.3-0.1,0.4-0.2
		c0.1-0.1,0.2-0.1,0.3-0.2c0.1-0.1,0.2-0.1,0.3-0.2c0.1-0.1,0.3-0.1,0.4-0.2c0.1-0.1,0.2-0.1,0.3-0.2c0.1-0.1,0.2-0.1,0.3-0.2
		c0.1-0.1,0.2-0.1,0.3-0.2c0.2-0.1,0.4-0.3,0.6-0.5c0.1-0.1,0.2-0.2,0.3-0.2c0.1-0.1,0.2-0.2,0.3-0.2c0.1-0.1,0.2-0.2,0.3-0.3
		s0.2-0.2,0.3-0.3s0.2-0.2,0.3-0.3c0.4-0.4,0.7-0.7,1.1-1.1l0,0c0.1-0.1,0.1-0.2,0.2-0.3c0.1-0.2,0.3-0.3,0.4-0.5
		c0.1-0.2,0.2-0.3,0.4-0.5c0.1-0.2,0.3-0.4,0.4-0.6c0.1-0.2,0.3-0.4,0.4-0.6c0.1-0.1,0.1-0.2,0.1-0.3c0.1-0.1,0.1-0.3,0.2-0.4
		C2608.5,793,2608.6,792.9,2608.6,792.7z"/>
</g>
<path class="st16" d="M1583.3,1542.7c-0.1,0-0.2,0-0.3,0c-0.3,0-0.6,0-0.9,0s-0.6,0-0.9,0c-0.1,0-0.2,0-0.3,0h0.7c0.2,0,0.3,0,0.5,0
	s0.3,0,0.5,0H1583.3z"/>
<path class="st16" d="M1594.1,1515.8c0.1,0.1,0.1,0.1,0.2,0.2l-0.5-0.5l-0.5-0.5l-0.4-0.4c0.1,0,0.1,0.1,0.2,0.1
	C1593.4,1515,1593.7,1515.4,1594.1,1515.8L1594.1,1515.8z"/>
<path class="st16" d="M1621,1503.8c0,0.1,0,0.3,0,0.4v-0.8C1621,1503.5,1621,1503.6,1621,1503.8z"/>
<path class="st16" d="M1625.8,1542.7c0,1.3-0.5,2.5-1.4,3.4s-2,1.4-3.4,1.4c-1.3,0-2.5-0.5-3.4-1.4s-1.4-2-1.4-3.4s0.5-2.5,1.4-3.4
	s2-1.4,3.4-1.4c1.3,0,2.5,0.5,3.4,1.4S1625.8,1541.4,1625.8,1542.7z"/>
<path class="st16" d="M1621,1582.3v-1c0,0.1,0,0.2,0,0.2v0.1v0.2v0.1c0,0,0,0,0,0.1c0.1,8.8,7.3,16,16.2,16
	c8.9,0,16.2-7.3,16.2-16.2c0-4-1.5-7.7-3.9-10.5c-0.7-0.6-1.3-1.2-1.9-1.9c-0.1-0.1-0.2-0.2-0.2-0.3l0.6,0.6l1.3,1.3l0.5,0.5"/>
<path class="st16" d="M1648.2,1515.6l-0.4,0.4c0-0.1,0.1-0.1,0.1-0.2c0.4-0.4,0.8-0.8,1.2-1.2l0,0l0.1-0.1l-0.3,0.3
	C1648.7,1515.1,1648.5,1515.3,1648.2,1515.6z"/>
<path class="st16" d="M1658.4,1542.8L1658.4,1542.8L1658.4,1542.8L1658.4,1542.8z"/>
<path class="st16" d="M1659,1542.8c-0.1,0-0.2,0-0.3,0C1658.7,1542.8,1658.8,1542.8,1659,1542.8
	C1658.9,1542.8,1658.9,1542.8,1659,1542.8z"/>
<path class="st16" d="M1661.1,1542.7c-0.1,0-0.2,0-0.2,0l0,0c-0.3,0-0.6,0-0.9,0s-0.6,0-0.8,0l0,0c-0.1,0-0.2,0-0.3,0h0.8
	c0.1,0,0.3,0,0.5,0s0.3,0,0.5,0H1661.1z"/>
<path class="st16" d="M1661.3,1542.8L1661.3,1542.8c-0.1,0-0.3,0-0.4,0C1661,1542.8,1661.1,1542.8,1661.3,1542.8
	C1661.2,1542.8,1661.3,1542.8,1661.3,1542.8z"/>
<path class="st16" d="M1661.8,1542.8c-0.1,0-0.1,0-0.2,0l0,0c-0.1,0-0.1,0-0.2,0c0.1,0,0.1,0,0.2,0
	C1661.7,1542.8,1661.8,1542.8,1661.8,1542.8z"/>
<path class="st16" d="M1675.2,1553.3c0-0.1,0-0.1-0.1-0.2c-0.1-0.2-0.2-0.4-0.2-0.6c-0.1-0.2-0.1-0.3-0.2-0.5
	c-0.1-0.1-0.1-0.3-0.2-0.4c0-0.1-0.1-0.2-0.1-0.3c0-0.1-0.1-0.2-0.2-0.3c0,0,0-0.1-0.1-0.1c-0.1-0.2-0.2-0.3-0.3-0.5
	c-0.1-0.2-0.2-0.3-0.3-0.5c-0.1-0.2-0.2-0.3-0.3-0.5l0,0c-0.1-0.2-0.2-0.3-0.4-0.5c-0.1-0.2-0.2-0.3-0.4-0.5
	c-0.1-0.1-0.2-0.3-0.4-0.4c0,0,0-0.1-0.1-0.1c-0.1-0.1-0.2-0.3-0.3-0.4l0,0c-0.1-0.1-0.3-0.3-0.4-0.4s-0.2-0.2-0.4-0.4
	c-0.2-0.2-0.3-0.3-0.5-0.5c-0.2-0.1-0.3-0.3-0.5-0.4s-0.4-0.3-0.6-0.4c-0.1-0.1-0.2-0.2-0.4-0.3c-0.1-0.1-0.2-0.1-0.3-0.2
	c-0.1-0.1-0.3-0.2-0.4-0.2c-0.2-0.1-0.4-0.3-0.7-0.4c-0.1-0.1-0.2-0.1-0.3-0.1c-0.2-0.1-0.3-0.2-0.5-0.2c-0.2-0.1-0.4-0.2-0.6-0.2
	c-0.1-0.1-0.3-0.1-0.5-0.2c-0.1-0.1-0.3-0.1-0.4-0.1c0,0-0.1,0-0.1-0.1c-0.1,0-0.2-0.1-0.3-0.1c-0.1,0-0.2-0.1-0.3-0.1
	c-0.1,0-0.2-0.1-0.3-0.1c-0.1,0-0.2-0.1-0.3-0.1c-0.1,0-0.1,0-0.2-0.1c-0.1,0-0.2-0.1-0.4-0.1c-0.3-0.1-0.5-0.1-0.8-0.2
	c-0.1,0-0.2,0-0.3,0c0.1,0,0.1,0,0.2,0l0,0c0.2,0,0.4,0.1,0.5,0.1s0.1,0,0.2,0l0,0l0,0c0.2,0,0.3,0.1,0.5,0.1c0.1,0,0.1,0,0.1,0
	c0.2,0,0.3,0.1,0.5,0.1c0.2,0.1,0.4,0.1,0.7,0.2c0.2,0.1,0.4,0.1,0.5,0.2c0.1,0,0.2,0.1,0.3,0.1c0.2,0.1,0.4,0.2,0.6,0.3
	c0.1,0,0.2,0.1,0.3,0.1c0.2,0.1,0.4,0.2,0.7,0.3l0,0c0.2,0.1,0.4,0.2,0.6,0.4c0.1,0.1,0.2,0.1,0.3,0.2c0.1,0.1,0.2,0.2,0.4,0.2
	c0.1,0.1,0.2,0.2,0.4,0.3c0.2,0.2,0.5,0.3,0.7,0.5c0.1,0.1,0.2,0.1,0.2,0.2l0,0c0.1,0.1,0.3,0.2,0.4,0.4c0.1,0.1,0.3,0.3,0.4,0.4
	l0,0c0.1,0.1,0.2,0.2,0.3,0.3c0.1,0.1,0.2,0.2,0.3,0.3c0.1,0.1,0.2,0.3,0.4,0.4c0.1,0.1,0.2,0.3,0.4,0.4c0.1,0.1,0.2,0.2,0.2,0.3
	l0,0c0.1,0.2,0.3,0.3,0.4,0.5c0.1,0.1,0.2,0.2,0.3,0.4c0.1,0.2,0.2,0.3,0.3,0.5c0.1,0.2,0.2,0.3,0.3,0.5c0.1,0.1,0.1,0.2,0.2,0.3
	c0.1,0.2,0.2,0.4,0.3,0.7c0.1,0.2,0.2,0.4,0.3,0.7c0.1,0.1,0.1,0.2,0.1,0.3c0.1,0.3,0.3,0.7,0.4,1c0,0.1,0.1,0.2,0.1,0.4
	s0.1,0.2,0.1,0.4c0.1,0.2,0.1,0.4,0.1,0.6l0,0c0,0.2,0.1,0.3,0.1,0.5c0,0.1,0,0.1,0,0.2c-0.1-0.4-0.2-0.8-0.3-1.2
	C1675.5,1554.1,1675.3,1553.7,1675.2,1553.3z"/>
<line class="st16" x1="1660.5" y1="1542.7" x2="1659.5" y2="1542.7"/>
<line class="st16" x1="1582.7" y1="1542.7" x2="1581.7" y2="1542.7"/>
<line class="st16" x1="1593.8" y1="1515.5" x2="1593.2" y2="1514.9"/>
<line class="st16" x1="1649" y1="1514.8" x2="1648.2" y2="1515.6"/>
<path class="st16" d="M1621,1503.4v34.6c-1.3,0-2.5,0.5-3.4,1.4l-23.4-23.4c-0.1-0.1-0.1-0.1-0.2-0.2l0,0c-0.4-0.4-0.8-0.8-1.2-1.2
	c-2.6-2.9-4.2-6.7-4.2-10.9c0-8.9,7.2-16.1,16.1-16.1C1613.7,1487.6,1620.8,1494.6,1621,1503.4z"/>
<path class="st16" d="M1594.1,1515.8c-0.1-0.1-0.2-0.2-0.3-0.3l-0.5-0.5c-0.1-0.1-0.2-0.2-0.3-0.3
	C1593.4,1515,1593.7,1515.4,1594.1,1515.8z"/>
<path class="st16" d="M1621,1503.8c0,0.1,0,0.3,0,0.4v-0.8C1621,1503.5,1621,1503.6,1621,1503.8z"/>
<path class="st16" d="M1649.1,1514.6c-0.1,0.1-0.1,0.1-0.2,0.2c-0.2,0.3-0.5,0.5-0.8,0.8c-0.1,0.1-0.2,0.1-0.2,0.2
	C1648.3,1515.4,1648.7,1515,1649.1,1514.6z"/>
<path class="st16" d="M1621,1581.8c0-0.1,0-0.1,0-0.2V1581.8L1621,1581.8L1621,1581.8z"/>
<path class="st16" d="M1649.6,1571.3c-0.7-0.6-1.3-1.2-1.9-1.9c0.1,0.1,0.2,0.2,0.4,0.3c0.1,0.1,0.3,0.2,0.4,0.3l0.2,0.2l0.1,0.1
	c0,0,0,0,0.1,0.1c0,0,0,0,0.1,0.1s0.3,0.3,0.4,0.4C1649.4,1571.1,1649.5,1571.2,1649.6,1571.3z"/>
<path class="st16" d="M1621,1581.5v0.3v0.1c0,0,0,0,0,0.1s0,0.2,0,0.3v-1C1621,1581.4,1621,1581.4,1621,1581.5z"/>
<path class="st16" d="M1659,1542.8c-0.1,0-0.2,0-0.3,0C1658.7,1542.8,1658.8,1542.8,1659,1542.8
	C1658.9,1542.8,1658.9,1542.8,1659,1542.8z"/>
<path class="st16" d="M1574.1,1572.8c-0.1-0.1-0.2-0.1-0.4-0.2"/>
<line class="st16" x1="1609.6" y1="1597.2" x2="1609.6" y2="1597.2"/>
<path class="st16" d="M1583.3,1542.7c-0.1,0-0.2,0-0.3,0c-0.3,0-0.6,0-0.9,0s-0.6,0-0.9,0c-0.1,0-0.2,0-0.3,0h0.7c0.2,0,0.3,0,0.5,0
	s0.3,0,0.5,0H1583.3z"/>
<path class="st16" d="M1594.3,1516l-0.5-0.5l-0.5-0.5l-0.4-0.4c0.1,0,0.1,0.1,0.2,0.1c0.4,0.4,0.8,0.7,1.2,1.2l0,0
	C1594.2,1515.9,1594.2,1515.9,1594.3,1516z"/>
<g>
	<circle class="st2" cx="1625.8" cy="1534.1" r="61.5"/>
	<path class="st16" d="M1621,1604.2c17,0,32.4-6.9,43.5-18"/>
	<path class="st16" d="M1625.8,1542.7c0,1.3-0.5,2.5-1.4,3.4s-2,1.4-3.4,1.4c-1.3,0-2.5-0.5-3.4-1.4s-1.4-2-1.4-3.4s0.5-2.5,1.4-3.4
		s2-1.4,3.4-1.4c1.3,0,2.5,0.5,3.4,1.4S1625.8,1541.4,1625.8,1542.7z"/>
	<path class="st16" d="M1653.3,1503.8c0,4.2-1.6,8-4.2,10.9l0,0c-0.4,0.4-0.8,0.7-1.2,1.2c0,0.1-0.1,0.1-0.1,0.2l-23.4,23.4
		c-0.9-0.9-2-1.4-3.4-1.4v-33.8c0-0.1,0-0.3,0-0.4c0-8.9,7.2-16.1,16.1-16.1C1646.1,1487.6,1653.3,1494.8,1653.3,1503.8z"/>
	<path class="st16" d="M1653.4,1581.8c0,8.9-7.3,16.2-16.2,16.2c-8.9,0-16.1-7.1-16.2-16c0,0,0,0,0-0.1v-0.1v-0.3c0-0.1,0-0.2,0-0.2
		v-33.8c1.3,0,2.5-0.5,3.4-1.4l23,23c0.1,0.1,0.2,0.2,0.2,0.3c0.6,0.7,1.2,1.3,1.9,1.9C1652,1574.1,1653.4,1577.8,1653.4,1581.8z"/>
	<path class="st16" d="M1621,1604.2c-4.2,0-8.3-0.4-12.3-1.2l0,0c-12.1-2.4-22.9-8.4-31.2-16.8c-1.3-1.3-2.6-2.7-3.8-4.2
		c-2.1-2.6-4-5.3-5.7-8.2c-5.3-9.1-8.4-19.7-8.4-31c0-1.4,0.1-2.9,0.2-4.3c0.6-8.8,3.1-17.1,7-24.5l0,0
		c10.3-19.4,30.8-32.7,54.3-32.7c34,0,61.5,27.5,61.5,61.5c0,12.4-3.7,23.9-10,33.6c-2.3,3.6-5,6.9-8,9.9"/>
	<path class="st16" d="M1649.8,1571.5l-0.5-0.5l-1.3-1.3c0.1,0.1,0.2,0.2,0.4,0.3l0.4,0.4c0,0,0,0,0.1,0c0,0,0,0.1,0.1,0.1
		c0.2,0.1,0.3,0.3,0.5,0.4l0.1,0.1C1649.6,1571.2,1649.7,1571.3,1649.8,1571.5C1649.9,1571.5,1649.9,1571.5,1649.8,1571.5
		c0.3,0.1,0.4,0.3,0.6,0.4s0.3,0.3,0.5,0.4c0.1,0.1,0.2,0.1,0.3,0.2c0.1,0.1,0.2,0.1,0.3,0.2c0.1,0.1,0.2,0.1,0.3,0.2l0,0
		c0.1,0,0.1,0.1,0.2,0.1s0.2,0.1,0.3,0.2c0.3,0.2,0.6,0.3,0.9,0.5c0.1,0,0.2,0.1,0.3,0.2c0.1,0,0.2,0.1,0.3,0.1
		c0.4,0.2,0.9,0.3,1.3,0.5c0.1,0,0.2,0.1,0.4,0.1c0.2,0.1,0.5,0.1,0.8,0.2c0.1,0,0.3,0.1,0.4,0.1s0.2,0,0.3,0.1c0.1,0,0.2,0,0.3,0.1
		c0.2,0,0.4,0,0.6,0.1c0.1,0,0.2,0,0.3,0c0.1,0,0.2,0,0.2,0c0.1,0,0.2,0,0.3,0c0.2,0,0.5,0,0.7,0h0.9c0.3,0,0.5,0,0.8,0
		c0.1,0,0.1,0,0.2,0c0.2,0,0.4,0,0.6-0.1h0.1c0.1,0,0.2,0,0.4-0.1c0.3,0,0.5-0.1,0.8-0.1c0.1,0,0.3-0.1,0.4-0.1
		c0.2,0,0.3-0.1,0.5-0.1c0.1,0,0.1,0,0.2,0c0.2,0,0.3-0.1,0.5-0.1c0.1,0,0.3-0.1,0.4-0.1s0.1-0.1,0.2-0.1c0.2,0,0.3-0.1,0.5-0.2
		c0.1-0.1,0.2-0.1,0.4-0.2l0.4-0.2c0.1,0,0.2-0.1,0.3-0.1c0.1-0.1,0.3-0.1,0.4-0.2s0.2-0.1,0.3-0.2c0.1-0.1,0.2-0.1,0.3-0.2
		c0.1-0.1,0.2-0.1,0.4-0.2l0.3-0.2c0.1-0.1,0.2-0.1,0.3-0.2c0.1-0.1,0.2-0.1,0.3-0.2c0.2-0.1,0.4-0.3,0.6-0.4
		c0.1-0.1,0.2-0.2,0.3-0.2c0.1-0.1,0.2-0.2,0.3-0.2c0.1-0.1,0.2-0.2,0.3-0.2c0.1-0.1,0.2-0.2,0.3-0.3c0.1-0.1,0.2-0.2,0.3-0.3
		c0.4-0.4,0.7-0.7,1.1-1.1l0,0c0.1-0.1,0.2-0.2,0.2-0.3c0.1-0.2,0.2-0.3,0.4-0.5c0.1-0.2,0.2-0.3,0.3-0.5c0.1-0.2,0.3-0.4,0.4-0.6
		s0.3-0.4,0.4-0.6c0-0.1,0.1-0.2,0.2-0.3c0.1-0.1,0.1-0.2,0.2-0.4c0.1-0.2,0.1-0.3,0.2-0.4s0.1-0.2,0.2-0.3c0-0.1,0.1-0.2,0.1-0.3
		v-0.1c0-0.1,0.1-0.2,0.1-0.3v-0.1c0-0.1,0-0.1,0.1-0.2c0-0.1,0-0.1,0.1-0.2c0-0.1,0.1-0.2,0.1-0.3c0-0.1,0.1-0.2,0.1-0.3
		c0.1-0.1,0.1-0.3,0.1-0.4l0,0c0-0.1,0.1-0.3,0.1-0.4c0,0,0,0,0-0.1s0,0,0,0c0.1-0.2,0.1-0.4,0.2-0.7l0,0c0-0.1,0-0.1,0-0.2
		s0-0.2,0-0.2c0-0.1,0-0.2,0.1-0.4l0,0c0-0.1,0-0.2,0.1-0.4l0,0c0-0.1,0-0.1,0-0.1c0-0.1,0-0.1,0-0.1v-0.1v-0.1c0-0.1,0-0.2,0-0.2
		v-0.1c0-0.1,0-0.2,0-0.3v-0.1v-0.1c0-0.1,0-0.2,0-0.3c0-0.1,0-0.2,0-0.4c0-0.3,0-0.5,0-0.8c0-0.1,0-0.2,0-0.3c0-0.1,0-0.1,0-0.2
		s0-0.1,0-0.2l0,0c0-0.1,0-0.2,0-0.4c0,0,0,0,0-0.1c0-0.2-0.1-0.5-0.1-0.7c0-0.1,0-0.2,0-0.2c0-0.1,0-0.2-0.1-0.3c0-0.1,0-0.1,0-0.2
		c0-0.2-0.1-0.3-0.1-0.5l0,0c-0.1-0.2-0.1-0.4-0.2-0.6c0-0.1-0.1-0.2-0.1-0.4s-0.1-0.2-0.1-0.3c0-0.1-0.1-0.3-0.1-0.4
		c-0.1-0.2-0.2-0.4-0.2-0.7c-0.1-0.1-0.1-0.2-0.2-0.3c-0.1-0.2-0.2-0.5-0.3-0.7c0,0-0.1-0.1-0.1-0.2s-0.1-0.2-0.2-0.3l-0.1-0.1v-0.1
		c-0.1-0.1-0.1-0.2-0.2-0.3c-0.1-0.2-0.2-0.3-0.3-0.5c-0.1-0.2-0.2-0.3-0.3-0.5c-0.1-0.1-0.2-0.2-0.3-0.4c-0.1-0.2-0.2-0.3-0.4-0.5
		l0,0c-0.1-0.1-0.2-0.2-0.2-0.3c-0.1-0.1-0.2-0.3-0.4-0.4c-0.1-0.1-0.2-0.3-0.4-0.4c-0.1-0.1-0.2-0.2-0.2-0.3
		c-0.1-0.1-0.2-0.2-0.3-0.2l0,0c-0.1-0.1-0.3-0.3-0.4-0.4s-0.3-0.2-0.4-0.4c0,0,0,0-0.1,0c-0.1-0.1-0.2-0.1-0.2-0.2
		c-0.2-0.2-0.5-0.3-0.7-0.5c-0.1-0.1-0.2-0.2-0.4-0.2c-0.1-0.1-0.2-0.2-0.4-0.2c-0.1-0.1-0.2-0.1-0.3-0.2c-0.2-0.1-0.4-0.2-0.6-0.4
		l0,0c-0.1-0.1-0.3-0.1-0.4-0.2c-0.1,0-0.2-0.1-0.2-0.1c-0.1,0-0.1-0.1-0.2-0.1h-0.1c-0.2-0.1-0.3-0.1-0.5-0.2c0,0,0,0-0.1,0
		c0,0,0,0-0.1,0s-0.2-0.1-0.3-0.1c-0.2-0.1-0.4-0.1-0.5-0.2c-0.2-0.1-0.4-0.2-0.7-0.2c-0.1,0-0.1,0-0.2-0.1c-0.1,0-0.2-0.1-0.3-0.1
		c-0.1,0-0.1,0-0.1,0c-0.2,0-0.3-0.1-0.4-0.1c0,0,0,0-0.1,0l0,0l0,0c-0.2,0-0.4-0.1-0.7-0.1h-0.1c-0.1,0-0.1,0-0.2,0l0,0l0,0
		c-0.1,0-0.2,0-0.3,0l0,0c-0.1,0-0.1,0-0.2,0s-0.1,0-0.2,0l0,0c-0.1,0-0.2,0-0.4,0l0,0c-0.1,0-0.2,0-0.4,0c0.1,0,0.2,0,0.2,0
		c8.4-0.6,15-7.6,15-16.1c0-8.9-7.2-16.2-16.1-16.2c-4.1,0-7.8,1.5-10.7,4l-0.1,0.1c2.6-2.9,4.2-6.7,4.2-10.8
		c0-8.9-7.2-16.2-16.1-16.2s-16.2,7.2-16.2,16.2c0-0.1,0-0.3,0-0.4c-0.2-8.7-7.4-15.7-16.1-15.7c-8.9,0-16.2,7.2-16.2,16.2
		c0,4.2,1.6,8,4.2,10.8c-0.1-0.1-0.1-0.1-0.2-0.1c-2.8-2.5-6.6-4-10.6-4c-8.9,0-16.1,7.2-16.1,16.2c0,0.3,0,0.7,0,1
		c0,0.1,0,0.1,0,0.2c0,0.2,0,0.5,0.1,0.7c0.1,0.5,0.1,1,0.2,1.5c0.1,0.2,0.1,0.5,0.2,0.8v0.1c0.1,0.2,0.1,0.5,0.2,0.7
		c0.2,0.8,0.5,1.5,0.9,2.2c0.1,0.2,0.2,0.4,0.3,0.6c0.2,0.3,0.4,0.6,0.5,0.9c0.1,0.2,0.3,0.4,0.4,0.6s0.3,0.4,0.4,0.6
		c0.2,0.3,0.5,0.6,0.8,0.9c0.2,0.3,0.5,0.6,0.8,0.8c0.1,0.1,0.2,0.2,0.4,0.3l0,0c0.2,0.2,0.4,0.4,0.6,0.5c0.3,0.2,0.5,0.4,0.8,0.6
		s0.5,0.4,0.8,0.6l0,0c0.2,0.2,0.5,0.3,0.7,0.4c0.9,0.5,1.8,0.9,2.8,1.2c0.3,0.1,0.5,0.2,0.8,0.2c0.3,0.1,0.5,0.1,0.8,0.2
		c0.1,0,0.3,0.1,0.4,0.1c0.2,0,0.5,0.1,0.7,0.1c0.3,0,0.6,0.1,0.9,0.1c0.1,0,0.2,0,0.3,0c-0.5,0-1.1,0.1-1.6,0.2"/>
	<path class="st16" d="M1617.7,1539.4c-0.9,0.9-1.4,2-1.4,3.4h-33.6c-0.2,0-0.3,0-0.5,0s-0.3,0-0.5,0h-0.7c-0.3,0-0.6-0.1-0.9-0.1
		c-0.2,0-0.5-0.1-0.7-0.1s-0.3-0.1-0.5-0.1c-0.3-0.1-0.5-0.1-0.8-0.2s-0.6-0.2-0.8-0.2c-1-0.3-1.9-0.7-2.8-1.2
		c-0.2-0.1-0.5-0.3-0.7-0.4l0,0c-0.3-0.2-0.6-0.4-0.8-0.6c-0.3-0.2-0.5-0.4-0.8-0.6c-0.2-0.2-0.4-0.3-0.6-0.5l0,0
		c-0.1-0.1-0.3-0.2-0.4-0.3c-0.3-0.3-0.6-0.5-0.8-0.8c-0.3-0.3-0.5-0.6-0.8-0.9c-0.1-0.2-0.3-0.4-0.4-0.6s-0.3-0.4-0.4-0.6
		c-0.2-0.3-0.4-0.6-0.5-0.9c-0.1-0.2-0.2-0.4-0.3-0.6c-0.3-0.7-0.6-1.4-0.9-2.2c-0.1-0.2-0.2-0.5-0.2-0.7v-0.1
		c-0.1-0.2-0.1-0.5-0.2-0.8c-0.1-0.5-0.2-1-0.2-1.5c0-0.2-0.1-0.5-0.1-0.7c0-0.1,0-0.1,0-0.2c0-0.3,0-0.7,0-1
		c0-8.9,7.2-16.2,16.1-16.2c4.1,0,7.8,1.5,10.6,4l0.4,0.4c0.2,0.2,0.4,0.4,0.6,0.5l0.6,0.6L1617.7,1539.4z"/>
	<path class="st16" d="M1676.1,1526.6c0,8.5-6.6,15.5-15,16.1h-0.6c-0.2,0-0.3,0-0.5,0s-0.3,0-0.5,0h-33.7c0-1.3-0.5-2.5-1.4-3.4
		l23.4-23.4l0.4-0.4c0.3-0.2,0.5-0.5,0.8-0.8l0.3-0.3c2.8-2.5,6.6-4,10.7-4C1668.8,1510.5,1676.1,1517.7,1676.1,1526.6z"/>
</g>
<g>
	<circle class="st2" cx="2266" cy="1606.1" r="61.5"/>
	<path class="st16" d="M2261.3,1676.2c17,0,32.4-6.9,43.5-18"/>
	<path class="st16" d="M2266,1614.7c0,1.3-0.5,2.5-1.4,3.4s-2,1.4-3.4,1.4c-1.3,0-2.5-0.5-3.4-1.4s-1.4-2-1.4-3.4
		c0-1.3,0.5-2.5,1.4-3.4s2-1.4,3.4-1.4c1.3,0,2.5,0.5,3.4,1.4S2266,1613.4,2266,1614.7z"/>
	<path class="st16" d="M2293.6,1575.8c0,4.2-1.6,8-4.2,10.9l0,0c-0.4,0.4-0.8,0.7-1.2,1.2c0,0.1-0.1,0.1-0.1,0.2l-23.4,23.4
		c-0.9-0.9-2-1.4-3.4-1.4v-33.8c0-0.1,0-0.3,0-0.4c0-8.9,7.2-16.1,16.1-16.1S2293.6,1566.8,2293.6,1575.8z"/>
	<path class="st16" d="M2293.7,1653.8c0,8.9-7.3,16.2-16.2,16.2s-16.1-7.1-16.2-16c0,0,0,0,0-0.1v-0.1v-0.3c0-0.1,0-0.2,0-0.2v-33.8
		c1.3,0,2.5-0.5,3.4-1.4l23,23c0.1,0.1,0.2,0.2,0.2,0.3c0.6,0.7,1.2,1.3,1.9,1.9C2292.2,1646.1,2293.7,1649.8,2293.7,1653.8z"/>
	<path class="st16" d="M2261.3,1676.2c-4.2,0-8.3-0.4-12.3-1.2l0,0c-12.1-2.4-22.9-8.4-31.2-16.8c-1.3-1.3-2.6-2.7-3.8-4.2
		c-2.1-2.5-4-5.3-5.7-8.2c-5.4-9.1-8.4-19.7-8.4-31c0-1.4,0.1-2.9,0.2-4.3c0.6-8.8,3.1-17.1,7-24.5l0,0
		c10.3-19.4,30.8-32.7,54.3-32.7c34,0,61.5,27.5,61.5,61.5c0,12.4-3.7,23.9-10,33.6c-2.3,3.6-5,6.9-8,9.9"/>
	<path class="st16" d="M2290,1643.5l-0.5-0.5l-1.3-1.3c0.1,0.1,0.2,0.2,0.4,0.3l0.4,0.4c0,0,0,0,0.1,0.1l0.1,0.1
		c0.1,0.1,0.3,0.3,0.5,0.4l0.1,0.1C2289.8,1643.2,2290,1643.3,2290,1643.5c0.1,0,0.1,0,0.1,0c0.2,0.1,0.3,0.3,0.5,0.4
		s0.4,0.3,0.5,0.4s0.2,0.1,0.3,0.2s0.2,0.1,0.3,0.2s0.2,0.1,0.3,0.2l0,0c0.1,0,0.1,0.1,0.2,0.1c0.1,0,0.2,0.1,0.3,0.2
		c0.3,0.2,0.6,0.3,0.9,0.5c0.1,0,0.2,0.1,0.3,0.2c0.1,0,0.2,0.1,0.4,0.1c0.4,0.2,0.9,0.3,1.3,0.5c0.1,0,0.2,0.1,0.4,0.1
		c0.2,0.1,0.5,0.1,0.8,0.2c0.1,0,0.3,0.1,0.4,0.1c0.1,0,0.2,0,0.3,0.1c0.1,0,0.2,0,0.3,0.1c0.2,0,0.4,0.1,0.6,0.1c0.1,0,0.2,0,0.3,0
		s0.2,0,0.2,0c0.1,0,0.2,0,0.3,0c0.2,0,0.5,0,0.7,0h0.9c0.3,0,0.5,0,0.8,0c0.1,0,0.1,0,0.2,0c0.2,0,0.4,0,0.6-0.1h0.1
		c0.1,0,0.2,0,0.4-0.1c0.3,0,0.5-0.1,0.8-0.1c0.1,0,0.3-0.1,0.4-0.1c0.2,0,0.3-0.1,0.5-0.1c0.1,0,0.1,0,0.2-0.1
		c0.2,0,0.3-0.1,0.5-0.1c0.1,0,0.3-0.1,0.4-0.1c0.1,0,0.1-0.1,0.2-0.1c0.1,0,0.3-0.1,0.5-0.2c0.1,0,0.2-0.1,0.4-0.1l0.4-0.2
		c0.1,0,0.2-0.1,0.3-0.1c0.1-0.1,0.3-0.1,0.4-0.2c0.1-0.1,0.2-0.1,0.3-0.2s0.2-0.1,0.3-0.2s0.2-0.1,0.4-0.2l0.3-0.2
		c0.1-0.1,0.2-0.1,0.3-0.2s0.2-0.1,0.3-0.2c0.2-0.1,0.4-0.3,0.6-0.4c0.1-0.1,0.2-0.2,0.3-0.2c0.1-0.1,0.2-0.2,0.3-0.2
		c0.1-0.1,0.2-0.2,0.3-0.2c0.1-0.1,0.2-0.2,0.3-0.3c0.1-0.1,0.2-0.2,0.3-0.3c0.4-0.4,0.7-0.7,1.1-1.1l0,0c0.1-0.1,0.2-0.2,0.2-0.3
		c0.1-0.2,0.2-0.3,0.4-0.5c0.1-0.2,0.2-0.3,0.3-0.5s0.3-0.4,0.4-0.6c0.1-0.2,0.3-0.4,0.4-0.6c0.1-0.1,0.1-0.2,0.2-0.3
		c0.1-0.1,0.1-0.2,0.2-0.4c0.1-0.1,0.1-0.3,0.2-0.4c0.1-0.1,0.1-0.2,0.1-0.3c0-0.1,0.1-0.2,0.1-0.3v-0.1c0-0.1,0.1-0.2,0.1-0.3v-0.1
		c0,0,0-0.1,0.1-0.2c0-0.1,0-0.1,0.1-0.2c0-0.1,0.1-0.2,0.1-0.3c0-0.1,0.1-0.2,0.1-0.3c0.1-0.1,0.1-0.3,0.1-0.4l0,0
		c0-0.1,0.1-0.3,0.1-0.4c0,0,0,0,0-0.1s0,0,0,0c0.1-0.2,0.1-0.4,0.2-0.7l0,0c0-0.1,0-0.1,0-0.2s0-0.2,0-0.2c0-0.1,0-0.2,0.1-0.4l0,0
		c0-0.1,0-0.2,0-0.4l0,0c0-0.1,0-0.1,0-0.1c0-0.1,0-0.1,0-0.1v-0.1v-0.1c0-0.1,0-0.2,0-0.2v-0.1c0-0.1,0-0.2,0-0.3v-0.1v-0.1
		c0-0.1,0-0.2,0-0.3c0-0.1,0-0.2,0-0.4c0-0.3,0-0.5,0-0.8c0-0.1,0-0.2,0-0.3c0-0.1,0-0.1,0-0.2s0-0.1,0-0.2l0,0c0-0.1,0-0.2,0-0.4
		c0,0,0,0,0-0.1c0-0.2-0.1-0.5-0.1-0.7c0-0.1,0-0.2,0-0.2c0-0.1,0-0.2-0.1-0.3c0-0.1,0-0.1,0-0.2c0-0.2-0.1-0.3-0.1-0.5l0,0
		c-0.1-0.2-0.1-0.4-0.2-0.6c0-0.1-0.1-0.2-0.1-0.4s-0.1-0.2-0.1-0.3c0-0.1-0.1-0.3-0.1-0.4c-0.1-0.2-0.2-0.4-0.2-0.7
		c-0.1-0.1-0.1-0.2-0.1-0.3c-0.1-0.2-0.2-0.5-0.3-0.7c0,0-0.1-0.1-0.1-0.2c-0.1-0.1-0.1-0.2-0.2-0.3l-0.1-0.1v-0.1
		c-0.1-0.1-0.1-0.2-0.2-0.3c-0.1-0.2-0.2-0.3-0.3-0.5s-0.2-0.3-0.3-0.5c-0.1-0.1-0.2-0.2-0.3-0.4c-0.1-0.2-0.2-0.3-0.4-0.5l0,0
		c-0.1-0.1-0.1-0.2-0.2-0.3c-0.1-0.1-0.2-0.3-0.4-0.4c-0.1-0.1-0.2-0.3-0.4-0.4c-0.1-0.1-0.2-0.2-0.2-0.3c-0.1-0.1-0.2-0.2-0.3-0.2
		l0,0c-0.1-0.1-0.3-0.3-0.4-0.4c-0.1-0.1-0.3-0.2-0.4-0.4c0,0,0,0-0.1,0c-0.1-0.1-0.2-0.1-0.2-0.2c-0.2-0.2-0.5-0.3-0.7-0.5
		c-0.1-0.1-0.2-0.2-0.4-0.2c-0.1-0.1-0.2-0.2-0.4-0.2c-0.1-0.1-0.2-0.1-0.3-0.2c-0.2-0.1-0.4-0.2-0.6-0.4l0,0
		c-0.1-0.1-0.3-0.1-0.4-0.2c-0.1,0-0.2-0.1-0.2-0.1c-0.1,0-0.1-0.1-0.2-0.1h-0.1c-0.2-0.1-0.3-0.1-0.5-0.2c0,0,0,0-0.1,0s0,0-0.1,0
		s-0.2-0.1-0.3-0.1c-0.2-0.1-0.4-0.1-0.5-0.2c-0.2-0.1-0.4-0.2-0.7-0.2c-0.1,0-0.1,0-0.2-0.1c-0.1,0-0.2-0.1-0.3-0.1h-0.1
		c-0.1,0-0.3-0.1-0.4-0.1h-0.1l0,0l0,0c-0.2,0-0.4-0.1-0.6-0.1h-0.1c-0.1,0-0.1,0-0.2,0l0,0l0,0c-0.1,0-0.2,0-0.3,0l0,0
		c-0.1,0-0.1,0-0.2,0c-0.1,0-0.1,0-0.2,0l0,0c-0.1,0-0.2,0-0.4,0l0,0c-0.1,0-0.2,0-0.4,0c0.1,0,0.2,0,0.2,0c8.4-0.6,15-7.6,15-16.1
		c0-8.9-7.2-16.2-16.1-16.2c-4.1,0-7.8,1.5-10.7,4l-0.1,0.1c2.6-2.9,4.2-6.7,4.2-10.8c0-8.9-7.2-16.2-16.1-16.2
		c-8.9,0-16.1,7.2-16.1,16.2c0-0.1,0-0.3,0-0.4c-0.2-8.7-7.4-15.7-16.1-15.7c-8.9,0-16.1,7.2-16.1,16.2c0,4.2,1.6,8,4.2,10.8
		c-0.1-0.1-0.1-0.1-0.2-0.1c-2.8-2.5-6.6-4-10.6-4c-8.9,0-16.1,7.2-16.1,16.2c0,0.3,0,0.7,0,1c0,0.1,0,0.1,0,0.2
		c0,0.2,0,0.5,0.1,0.7c0.1,0.5,0.1,1,0.2,1.5c0.1,0.2,0.1,0.5,0.2,0.8v0.1c0.1,0.2,0.1,0.5,0.2,0.7c0.2,0.8,0.5,1.5,0.9,2.2
		c0.1,0.2,0.2,0.4,0.3,0.6c0.2,0.3,0.3,0.6,0.5,0.9c0.1,0.2,0.3,0.4,0.4,0.6c0.1,0.2,0.3,0.4,0.4,0.6c0.2,0.3,0.5,0.6,0.8,0.9
		c0.2,0.3,0.5,0.6,0.8,0.8c0.1,0.1,0.2,0.2,0.4,0.3c0,0,0,0,0.1,0c0.2,0.2,0.4,0.4,0.6,0.5c0.3,0.2,0.5,0.4,0.8,0.6s0.6,0.4,0.8,0.6
		l0,0c0.2,0.2,0.5,0.3,0.7,0.4c0.9,0.5,1.8,0.9,2.8,1.2c0.3,0.1,0.6,0.2,0.8,0.2c0.3,0.1,0.5,0.1,0.8,0.2c0.2,0,0.3,0.1,0.4,0.1
		c0.2,0,0.5,0.1,0.7,0.1c0.3,0,0.6,0.1,0.9,0.1c0.1,0,0.2,0,0.3,0c-0.6,0-1.1,0.1-1.6,0.2"/>
	<path class="st16" d="M2257.9,1611.4c-0.9,0.9-1.4,2-1.4,3.4h-33.6c-0.2,0-0.3,0-0.5,0s-0.3,0-0.5,0h-0.7c-0.3,0-0.6-0.1-0.9-0.1
		c-0.2,0-0.5-0.1-0.7-0.1s-0.3,0-0.5-0.1c-0.3-0.1-0.5-0.1-0.8-0.2s-0.6-0.2-0.8-0.2c-1-0.3-1.9-0.7-2.8-1.2
		c-0.2-0.1-0.5-0.3-0.7-0.4l0,0c-0.3-0.2-0.6-0.4-0.8-0.6c-0.3-0.2-0.5-0.4-0.8-0.6c-0.2-0.2-0.4-0.3-0.6-0.5h-0.1
		c-0.1-0.1-0.3-0.2-0.4-0.4c-0.3-0.3-0.6-0.5-0.8-0.8c-0.3-0.3-0.5-0.6-0.8-0.9c-0.1-0.2-0.3-0.4-0.4-0.6c-0.1-0.2-0.3-0.4-0.4-0.6
		c-0.2-0.3-0.4-0.6-0.5-0.9c-0.1-0.2-0.2-0.4-0.3-0.6c-0.4-0.7-0.6-1.4-0.9-2.2c-0.1-0.2-0.2-0.5-0.2-0.7v-0.1
		c-0.1-0.2-0.1-0.5-0.2-0.8c-0.1-0.5-0.2-1-0.2-1.5c0-0.2-0.1-0.5-0.1-0.7c0-0.1,0-0.1,0-0.2c0-0.3,0-0.7,0-1
		c0-8.9,7.2-16.2,16.1-16.2c4.1,0,7.8,1.5,10.6,4l0.4,0.4c0.2,0.2,0.4,0.4,0.6,0.5l0.6,0.6L2257.9,1611.4z"/>
	<path class="st16" d="M2316.3,1598.6c0,8.5-6.6,15.5-15,16.1h-0.6c-0.2,0-0.3,0-0.5,0s-0.3,0-0.5,0H2266c0-1.3-0.5-2.5-1.4-3.4
		l23.4-23.4l0.4-0.4c0.3-0.2,0.5-0.5,0.8-0.8l0.3-0.3c2.8-2.5,6.6-4,10.7-4C2309.1,1582.5,2316.3,1589.7,2316.3,1598.6z"/>
</g>
<path class="st16" d="M1649.1,1514.6L1649.1,1514.6l-0.2,0.2c-0.2,0.3-0.5,0.5-0.8,0.8l-0.4,0.4c0-0.1,0.1-0.1,0.1-0.2
	C1648.3,1515.4,1648.7,1515,1649.1,1514.6L1649.1,1514.6z"/>
<path class="st16" d="M1661.1,1542.7c-0.1,0-0.2,0-0.2,0l0,0c-0.3,0-0.6,0-0.9,0s-0.6,0-0.8,0l0,0c-0.1,0-0.2,0-0.3,0h0.8
	c0.1,0,0.3,0,0.5,0s0.3,0,0.5,0H1661.1z"/>
<path class="st16" d="M1583,1542.7c-0.3,0-0.6,0-0.9,0s-0.6,0-0.9,0c0.1,0,0.3,0,0.4,0c0.2,0,0.3,0,0.5,0s0.3,0,0.5,0
	C1582.8,1542.7,1582.9,1542.7,1583,1542.7z"/>
<path class="st16" d="M1676.2,1558.1c0-0.1,0-0.2,0-0.3c0-0.1,0-0.1,0-0.2s0-0.1,0-0.2l0,0c0-0.1,0-0.2,0-0.4v-0.1
	c0-0.2-0.1-0.5-0.1-0.7c0-0.1,0-0.2,0-0.2c0-0.1,0-0.2-0.1-0.3c-0.1-0.4-0.2-0.8-0.3-1.2c-0.1-0.4-0.2-0.7-0.4-1.1c0,0,0,0,0-0.1
	c-0.1-0.2-0.2-0.4-0.3-0.7c-0.1-0.2-0.1-0.3-0.2-0.5c-0.1-0.1-0.1-0.3-0.2-0.4c0-0.1-0.1-0.2-0.1-0.3c-0.1-0.1-0.1-0.2-0.2-0.3
	l-0.1-0.1l0,0l0,0c-0.1-0.1-0.2-0.3-0.2-0.4c-0.1-0.2-0.2-0.3-0.3-0.5c-0.1-0.2-0.2-0.3-0.3-0.5l0,0c-0.1-0.2-0.2-0.3-0.4-0.5
	c-0.1-0.2-0.2-0.3-0.4-0.5c-0.1-0.1-0.2-0.3-0.4-0.4c0,0,0-0.1-0.1-0.1c-0.1-0.1-0.2-0.2-0.4-0.4l0,0c-0.1-0.1-0.3-0.3-0.4-0.4
	s-0.2-0.2-0.4-0.4c-0.2-0.2-0.3-0.3-0.5-0.5c-0.2-0.1-0.3-0.2-0.5-0.4c-0.2-0.1-0.4-0.3-0.6-0.4c-0.1-0.1-0.2-0.2-0.4-0.2
	c-0.1-0.1-0.2-0.1-0.3-0.2c-0.1-0.1-0.3-0.2-0.4-0.2c-0.2-0.1-0.4-0.2-0.7-0.4c-0.1,0-0.2-0.1-0.3-0.2c-0.1,0-0.2-0.1-0.2-0.1
	c-0.1,0-0.1-0.1-0.2-0.1l0,0c-0.2-0.1-0.4-0.2-0.6-0.2c0,0,0,0-0.1,0s-0.3-0.1-0.4-0.1c-0.1-0.1-0.3-0.1-0.4-0.1h-0.1
	c-0.1,0-0.2-0.1-0.3-0.1c-0.1,0-0.2-0.1-0.3-0.1c-0.1,0-0.2,0-0.2-0.1c-0.1,0-0.2-0.1-0.3-0.1c-0.1,0-0.2,0-0.2-0.1
	c-0.1,0-0.2-0.1-0.4-0.1h-0.1c0,0,0,0-0.1,0c-0.2-0.1-0.4-0.1-0.7-0.1h-0.1c-0.1,0-0.1,0-0.2,0l0,0l0,0c-0.1,0-0.2,0-0.3,0l0,0
	c-0.1,0-0.1,0-0.2,0s-0.1,0-0.2,0l0,0c-0.1,0-0.1,0-0.2,0s-0.1,0-0.2,0l0,0c-0.1,0-0.2,0-0.4,0l0,0c-0.3,0-0.6,0-0.9,0s-0.6,0-0.8,0
	l0,0l0,0c-0.1,0-0.2,0-0.3,0h-33c0,1.3-0.5,2.5-1.4,3.4l23,23l0.6,0.6c0.1,0.1,0.2,0.2,0.4,0.4l0.4,0.4c0,0,0,0,0.1,0.1
	c0,0,0,0.1,0.1,0.1c0.2,0.1,0.3,0.3,0.5,0.4l0.1,0.1c0.1,0.1,0.3,0.2,0.4,0.3l0,0c0.2,0.1,0.3,0.3,0.5,0.4s0.4,0.3,0.5,0.4
	s0.2,0.1,0.3,0.2c0.1,0.1,0.2,0.1,0.3,0.2c0.1,0.1,0.2,0.1,0.3,0.2l0,0c0.1,0,0.1,0.1,0.2,0.1c0.1,0.1,0.2,0.1,0.3,0.2
	c0.3,0.2,0.6,0.3,0.9,0.4c0.1,0.1,0.2,0.1,0.3,0.1c0.1,0.1,0.2,0.1,0.3,0.2c0.4,0.2,0.9,0.3,1.3,0.5c0.1,0,0.2,0.1,0.4,0.1
	c0.2,0.1,0.5,0.1,0.8,0.2c0.1,0,0.3,0.1,0.4,0.1s0.2,0,0.3,0.1c0.1,0,0.2,0,0.3,0.1c0.2,0,0.4,0,0.6,0.1c0.1,0,0.2,0,0.3,0
	c0.1,0,0.2,0,0.2,0c0.1,0,0.2,0,0.3,0c0.2,0,0.5,0,0.7,0h0.9c0.3,0,0.5,0,0.8,0c0.1,0,0.1,0,0.2,0c0.2,0,0.4,0,0.6-0.1
	c0,0,0,0,0.1,0s0.2,0,0.4-0.1c0.3,0,0.5-0.1,0.8-0.1c0.1,0,0.3-0.1,0.4-0.1c0.2,0,0.3-0.1,0.5-0.1c0.1,0,0.1,0,0.2-0.1
	c0.2,0,0.3-0.1,0.5-0.1c0.1,0,0.3-0.1,0.4-0.1s0.1,0,0.2-0.1c0.2,0,0.3-0.1,0.5-0.2c0.1,0,0.2-0.1,0.4-0.1l0.4-0.2
	c0.1,0,0.2-0.1,0.3-0.1c0.1-0.1,0.3-0.1,0.4-0.2s0.2-0.1,0.3-0.2c0.1,0,0.2-0.1,0.3-0.2c0.1-0.1,0.2-0.1,0.4-0.2l0.3-0.2
	c0.1-0.1,0.2-0.1,0.3-0.2c0.1-0.1,0.2-0.1,0.3-0.2c0.2-0.1,0.4-0.3,0.6-0.5c0.1-0.1,0.2-0.2,0.3-0.2c0.1-0.1,0.2-0.2,0.3-0.2
	c0.1-0.1,0.2-0.2,0.3-0.2c0.1-0.1,0.2-0.2,0.3-0.3c0.1-0.1,0.2-0.2,0.3-0.3c0.4-0.4,0.7-0.7,1.1-1.1l0,0c0.1-0.1,0.2-0.2,0.2-0.3
	c0.1-0.2,0.2-0.3,0.4-0.5c0.1-0.2,0.2-0.3,0.3-0.5c0.1-0.2,0.3-0.4,0.4-0.6c0.1-0.1,0.1-0.2,0.2-0.3c0.1-0.1,0.1-0.2,0.2-0.3
	c0-0.1,0.1-0.2,0.2-0.3l0,0c0,0,0-0.1,0.1-0.1c0-0.1,0.1-0.1,0.1-0.2c0.1-0.1,0.1-0.3,0.2-0.4s0.1-0.2,0.2-0.3
	c0-0.1,0.1-0.2,0.1-0.3c0,0,0,0,0-0.1s0.1-0.2,0.1-0.3v-0.1c0,0,0-0.1,0.1-0.2c0-0.1,0-0.1,0.1-0.2c0-0.1,0.1-0.2,0.1-0.3
	c0-0.1,0.1-0.2,0.1-0.3c0.1-0.1,0.1-0.3,0.1-0.4l0,0c0-0.1,0.1-0.3,0.1-0.4l0,0l0,0c0.1-0.2,0.1-0.4,0.2-0.7l0,0c0-0.1,0-0.1,0-0.2
	s0-0.1,0-0.2s0-0.2,0.1-0.4l0,0c0-0.1,0-0.2,0.1-0.4l0,0v-0.1c0-0.1,0-0.1,0-0.1v-0.1v-0.1c0-0.1,0-0.2,0-0.4c0-0.1,0-0.2,0-0.3
	v-0.1c0-0.1,0-0.1,0-0.1c0-0.1,0-0.2,0-0.3c0-0.1,0-0.2,0-0.4C1676.2,1558.6,1676.2,1558.4,1676.2,1558.1z"/>
<path class="st16" d="M1657.9,1542.9c-0.2,0-0.4,0.1-0.7,0.1c0.1,0,0.2,0,0.3-0.1C1657.7,1542.9,1657.8,1542.9,1657.9,1542.9z"/>
<path class="st16" d="M1659,1542.8c-0.1,0-0.2,0-0.3,0C1658.7,1542.8,1658.8,1542.8,1659,1542.8
	C1658.9,1542.8,1658.9,1542.8,1659,1542.8z"/>
<path class="st16" d="M1659.1,1542.8C1659,1542.8,1659,1542.8,1659.1,1542.8C1659,1542.8,1659,1542.8,1659.1,1542.8L1659.1,1542.8z"
	/>
<path class="st16" d="M1660.8,1542.7c-0.3,0-0.6,0-0.9,0s-0.6,0-0.8,0c0.1,0,0.3,0,0.4,0l0,0c0.1,0,0.3,0,0.5,0s0.3,0,0.5,0l0,0
	C1660.6,1542.7,1660.7,1542.7,1660.8,1542.7z"/>
<path class="st16" d="M1674.7,1565.7c0.1-0.1,0.1-0.2,0.1-0.3c-2.5,5.7-8.2,9.7-14.8,9.7c-3.9,0-7.4-1.4-10.2-3.6
	c-0.1-0.1-0.1-0.1-0.2-0.2c-0.7-0.6-1.3-1.2-1.9-1.9c-0.1-0.1-0.2-0.2-0.2-0.3l0.6,0.6c0.1,0.1,0.3,0.2,0.4,0.3l0.2,0.2l0.1,0.1
	c0,0,0,0,0.1,0.1c0,0,0,0,0.1,0.1s0.3,0.3,0.5,0.4l0.1,0.1c0.1,0.1,0.3,0.2,0.4,0.3l0,0c0.2,0.1,0.3,0.3,0.5,0.4s0.4,0.3,0.5,0.4
	s0.2,0.1,0.3,0.2c0.1,0.1,0.2,0.1,0.3,0.2c0.1,0.1,0.2,0.1,0.3,0.2l0,0c0.1,0,0.1,0.1,0.2,0.1c0.1,0.1,0.2,0.1,0.3,0.2
	c0.3,0.2,0.6,0.3,0.9,0.4c0.1,0.1,0.2,0.1,0.3,0.2c0.1,0.1,0.2,0.1,0.4,0.1c0.4,0.2,0.9,0.3,1.3,0.5c0.1,0,0.3,0.1,0.4,0.1
	c0.3,0.1,0.5,0.1,0.8,0.2c0.1,0,0.3,0.1,0.4,0.1s0.2,0,0.3,0.1c0.1,0,0.2,0,0.3,0.1c0.2,0,0.4,0.1,0.6,0.1c0.1,0,0.2,0,0.3,0
	c0.1,0,0.2,0,0.2,0c0.1,0,0.2,0,0.3,0c0.2,0,0.5,0,0.7,0s0.3,0,0.5,0c0.1,0,0.3,0,0.4,0c0.3,0,0.5,0,0.8,0c0.1,0,0.1,0,0.2,0
	c0.2,0,0.4,0,0.6-0.1h0.1c0.1,0,0.3,0,0.4-0.1c0.3,0,0.5-0.1,0.8-0.1c0.1,0,0.3-0.1,0.4-0.1c0.2,0,0.3-0.1,0.5-0.1
	c0.1,0,0.1,0,0.2,0c0.2,0,0.3-0.1,0.5-0.1c0.1,0,0.3-0.1,0.4-0.1s0.1,0,0.2-0.1c0.2-0.1,0.3-0.1,0.5-0.2c0.1,0,0.2-0.1,0.4-0.1
	c0.1-0.1,0.2-0.1,0.4-0.2c0.1,0,0.2-0.1,0.3-0.1c0.1-0.1,0.3-0.1,0.4-0.2s0.2-0.1,0.3-0.2c0.1-0.1,0.2-0.1,0.3-0.2
	c0.1-0.1,0.3-0.1,0.4-0.2s0.2-0.1,0.3-0.2s0.2-0.1,0.3-0.2c0.1-0.1,0.2-0.1,0.3-0.2c0.2-0.1,0.4-0.3,0.6-0.5
	c0.1-0.1,0.2-0.2,0.3-0.2c0.1-0.1,0.2-0.2,0.3-0.2c0.1-0.1,0.2-0.2,0.3-0.3c0.1-0.1,0.2-0.2,0.3-0.3c0.1-0.1,0.2-0.2,0.3-0.3
	c0.4-0.4,0.7-0.7,1.1-1.1l0,0c0.1-0.1,0.1-0.2,0.2-0.3c0.1-0.2,0.3-0.3,0.4-0.5s0.2-0.3,0.4-0.5c0.1-0.2,0.3-0.4,0.4-0.6
	s0.3-0.4,0.4-0.6c0.1-0.1,0.1-0.2,0.1-0.3c0.1-0.1,0.1-0.3,0.2-0.4C1674.5,1566,1674.6,1565.9,1674.7,1565.7z"/>
<path class="st4" d="M2639.1,922l-158.7-525.3c0,0-10.8-48.3-40.8,12.5s-55.3,110-55.3,110"/>
<path class="st4" d="M2725,1846.5l-158.7-525.3c0,0-10.8-48.3-40.8,12.5s-55.3,110-55.3,110"/>
<path class="st16" d="M1576,1572.6c-0.6,0.1-1.2,0.2-1.9,0.3c-0.1,0-0.2,0-0.4,0.1c-1.9,0.3-3.8,0.6-5.8,0.9
	c-3.5,0.5-7.1,0.9-10.9,1.4c-22.2,2.5-49.1,4-78.2,4c-73.1,0-132.8-9.4-136.8-21.3l0,0v-0.1c-0.1-0.4-0.2-0.8-0.2-1.2
	c0-12.4,61.3-22.5,137-22.5c30.2,0,58.2,1.6,80.8,4.3c1.3,0.2,2.7,0.3,4,0.5c3.5,0.4,6.8,0.9,10,1.4l0,0c4.7,0.7,9,1.5,13,2.4
	c0.3,0.1,0.6,0.1,0.9,0.2h-7.9"/>
<path class="st16" d="M1587.6,1542.9c17.8,3.8,28.3,8.6,28.3,13.7c0,0.4-0.1,0.8-0.2,1.2c0,0,0,0,0,0.1l0,0
	c-0.9,2.7-4.7,5.2-10.8,7.6c-4.5,1.8-10.4,3.4-17.3,4.9"/>
<g>
	<path class="st16" d="M1584.3,2153.6c0.6,0.7,0.8,1.4,0.8,2.2c0,9.7-47.6,17.5-106.3,17.5c-58.7,0-106.3-7.8-106.3-17.5
		c0-0.7,0.3-1.5,0.8-2.2"/>
	<path class="st16" d="M1353.3,1632.4c-0.2-1.6-0.5-3.2-0.7-4.7"/>
	<path class="st16" d="M1359.5,1677.5c19.7,148.5,45.1,391.3,13.9,476c-0.3,0.7-0.6,1.5-0.8,2.2"/>
	<path class="st16" d="M1348.9,1602.1c-3.5-23.9-6.1-39.8-6.8-44.2l0,0v-0.1c-0.1-0.8-0.2-1.2-0.2-1.2"/>
	<path class="st16" d="M1572.1,2088.3c-0.3-3-0.5-6.1-0.7-9.3"/>
	<path class="st16" d="M1576.3,2121.9c2.1,12.1,4.8,22.8,8,31.7c0.3,0.7,0.6,1.5,0.8,2.2"/>
	<path class="st16" d="M1569.7,2020.9c0.2-139.4,26.1-331,39.1-417.9l0,0c0.3-2,0.6-3.9,0.8-5.7l0,0c0.1-0.4,0.1-0.9,0.2-1.3
		c0.1-0.8,0.2-1.6,0.4-2.4c2.9-19.2,4.9-31.8,5.6-35.7l0,0v-0.1c0.1-0.8,0.2-1.2,0.2-1.2"/>
</g>
<ellipse class="st6" cx="1478.9" cy="1616" rx="113.9" ry="18.7"/>
<path class="st16" d="M1587.6,1570.4c-3.6,0.8-7.5,1.5-11.6,2.2"/>
<polyline class="st16" points="1621,1582.3 1621,1582 1621,1574.1 "/>
<line class="st16" x1="1573.7" y1="1572.9" x2="1573.7" y2="1572.6"/>
<path class="st12" d="M1481.3,1768.7l-51.7,12.9c-9.6,2.4-19.4-3.5-21.8-13.1l-12.4-49.5c-2.4-9.6,3.5-19.4,13.1-21.8l51.7-12.9
	c9.6-2.4,19.4,3.5,21.8,13.1l12.4,49.5C1496.8,1756.5,1490.9,1766.3,1481.3,1768.7z"/>
<path class="st2" d="M1866.5,1687.5c0.2,0.4,0.4,0.8,0.6,1.1c30.3,54.6,97,94.9,171.4,94.9c75,0,142.2-40.8,172.1-96H1866.5z"/>
<path class="st12" d="M1505.5,1868.8l-51.4-14.1c-9.5-2.6-15.2-12.6-12.6-22.1l13.5-49.2c2.6-9.5,12.6-15.2,22.1-12.6l51.4,14.1
	c9.5,2.6,15.2,12.6,12.6,22.1l-13.5,49.2C1525,1865.7,1515.1,1871.4,1505.5,1868.8z"/>
<path class="st16" d="M1930.8,1607.5c-4.9,0.3-9.7,0.7-14.4,1"/>
<path class="st16" d="M2141.8,1607.2c21.7,1.3,41.3,3.1,58,5.2c1.7,0.2,3.4,0.4,5.1,0.7c34.2,4.5,55,10.5,55.4,17c0,0.1,0,0.1,0,0.2
	c0,0.7-0.2,1.4-0.7,2c-3.2,4.9-17.9,9.4-41,13.1c-3.1,0.5-6.4,1-9.9,1.5c-33.9,4.7-82,8-136.7,9c-11,0.2-22.2,0.3-33.7,0.3
	c-116.7,0-212.4-10.5-221.2-23.9c-0.5-0.7-0.7-1.3-0.7-2c0-0.1,0-0.1,0-0.2c0.4-7.3,26.6-13.9,68.4-18.5"/>
<path class="st16" d="M1974.9,1605.3c20.1-0.7,41.5-1.1,63.5-1.1c13.7,0,27,0.1,40,0.4"/>
<ellipse class="st6" cx="2038.5" cy="1686.7" rx="172.2" ry="20"/>
<path class="st16" d="M2023.6,2080.6c-67.1,0.9-119.3,7.5-119.3,15.6c0,5.2,22,9.9,55.8,12.7"/>
<path class="st16" d="M2053.3,2080.6c67.1,0.9,119.3,7.5,119.3,15.6c0,8.7-60.1,15.7-134.2,15.7c-16.3,0-31.8-0.3-46.3-1"/>
<path class="st16" d="M2060.5,1795.4c94.6-9,172.6-74.9,199.2-163.2c0.2-0.7,0.4-1.5,0.7-2.2"/>
<path class="st16" d="M1816.6,1630c0.2,0.7,0.4,1.5,0.7,2.2c26.6,88.3,104.6,154.2,199.2,163.2"/>
<g>
	<path class="st16" d="M2016.4,1795.4c6.2,7,16.8,32.4,16.2,123.5c-0.8,124.5,2.3,148.8-9.1,161.7"/>
	<path class="st16" d="M2044.4,2013.5c0-3.1,0-6.4,0-9.8"/>
	<path class="st16" d="M2044.4,1990.1c0-19.1,0-42.5-0.2-71.1c-0.6-91.2,10-116.5,16.2-123.5"/>
	<path class="st16" d="M2053.3,2080.6c-4.9-5.5-7.1-13.2-8.1-30.1"/>
</g>
<g>
	<circle class="st4" cx="2110.2" cy="1602.5" r="31.9"/>
	<line class="st4" x1="2149.1" y1="1546.4" x2="2007.9" y2="1747.2"/>
</g>
<line class="st10" x1="1141.8" y1="2576.8" x2="1142.9" y2="2613.6"/>
<g>
	<path class="st6" d="M-1183.1,864.6c0,40.7,10.4,78.9,28.8,112.2c23.1,41.9,58.8,76,102,97c30.8,15,65.3,23.4,101.8,23.4
		c28.3,0,55.4-5,80.4-14.3c51.1-18.8,93.8-55.1,120.9-101.7c19.9-34.3,31.4-74.2,31.4-116.7"/>
	<path class="st10" d="M-1192.6,872.4c0,40.7,10.5,79,28.8,112.3c23.2,42,58.9,76.1,102.1,97.1c30.8,15,65.4,23.4,102,23.4
		c28.3,0,55.4-5,80.5-14.3c51.2-18.9,93.9-55.2,121-101.8c20-34.3,31.4-74.3,31.4-116.9"/>
	<polyline class="st10" points="-726.7,872.4 -766.3,872.4 -940.4,872.4 -959.7,872.4 -978.9,872.4 -1153,872.4 -1192.6,872.4 	"/>
	<path class="st10" d="M-940.4,872.4c0,3.5-0.9,6.8-2.6,9.7c-2.2,3.8-5.8,6.8-10,8.4c-2.1,0.8-4.3,1.2-6.6,1.2c-3,0-5.9-0.7-8.4-1.9
		c-3.6-1.7-6.5-4.6-8.4-8c-1.5-2.8-2.4-5.9-2.4-9.3"/>
	<line class="st10" x1="-976.5" y1="881.7" x2="-1129.1" y2="965.6"/>
	<line class="st10" x1="-792.4" y1="969.4" x2="-943" y2="882"/>
	<line class="st10" x1="-892.8" y1="1053.9" x2="-953" y2="890.4"/>
	<line class="st10" x1="-968.1" y1="889.7" x2="-1044.3" y2="1046.3"/>
	<path class="st10" d="M-1156.6,872.4c0,108.8,88.2,196.9,197,196.9s196.9-88.2,196.9-196.9"/>
</g>
<g>
	<ellipse class="st4" cx="-1006.2" cy="-617.6" rx="141.5" ry="12.5"/>
	<path class="st4" d="M-1147.5,31c-0.2,0.2-0.2,0.5-0.2,0.7s0.1,0.5,0.2,0.7c4.3,6.5,65.9,11.7,141.3,11.7
		c75.3,0,136.9-5.2,141.3-11.7c0.2-0.2,0.2-0.5,0.2-0.7s-0.1-0.5-0.2-0.7"/>
	<path class="st4" d="M-1147.5-53.2c-0.2,0.2-0.2,0.5-0.2,0.7s0.1,0.5,0.2,0.7c4.3,6.5,65.9,11.7,141.3,11.7
		c75.3,0,136.9-5.2,141.3-11.7c0.2-0.2,0.2-0.5,0.2-0.7s-0.1-0.5-0.2-0.7"/>
	<line class="st4" x1="-864.9" y1="-386.9" x2="-864.9" y2="-578.8"/>
	<polyline class="st4" points="-864.9,-280.8 -864.9,-53.3 -864.9,-51.8 -864.9,-34.2 	"/>
	<line class="st4" x1="-864.9" y1="33.5" x2="-864.9" y2="-0.5"/>
	<line class="st4" x1="-864.9" y1="-337.2" x2="-864.9" y2="-343"/>
	<polyline class="st4" points="-864.9,-606.4 -864.9,-614.1 -864.9,-616.9 	"/>
	<line class="st4" x1="-1147.5" y1="-553.5" x2="-1147.5" y2="-560.2"/>
	<polyline class="st4" points="-1147.5,-515.5 -1147.5,-53.2 -1147.5,-51.8 -1147.5,33.5 	"/>
	<polyline class="st4" points="-1147.5,-583.6 -1147.5,-616.9 -1147.5,-618.3 -1147.5,-618.3 	"/>
	<ellipse class="st6" cx="-1006.2" cy="-534.2" rx="124.6" ry="11"/>
	<path class="st2" d="M-881.6-534.2c0,0-7.2,377-12,419.7c-3.1,28-37.8,43.4-71.7,51c-23.8,5.3-67,6.9-90.7,0.9
		c-26.4-6.6-55.2-21.2-61-53.1c-11.1-61.6-13.8-418.4-13.8-418.4c0,6.1,55.8,11,124.6,11S-881.6-528.2-881.6-534.2z"/>
	<circle class="st12" cx="-905.9" cy="-713.1" r="21.3"/>
	<line class="st4" x1="-915.5" y1="-694.3" x2="-1117" y2="-278.2"/>
	<path class="st12" d="M-959.2-154.2l-45.9,26.5c-8.6,4.9-19.6,2-24.6-6.6l-25.4-44c-4.9-8.6-2-19.6,6.6-24.6l45.9-26.5
		c8.6-4.9,19.6-2,24.6,6.6l25.4,44C-947.7-170.2-950.6-159.1-959.2-154.2z"/>
	<path class="st12" d="M-952.5-244.1l-52.9,4c-9.9,0.7-18.6-6.7-19.3-16.6l-3.8-50.7c-0.7-9.9,6.7-18.6,16.6-19.3l52.9-4
		c9.9-0.7,18.6,6.7,19.3,16.6l3.8,50.7C-935.2-253.5-942.7-244.8-952.5-244.1z"/>
	<path class="st12" d="M-950-333.7l-37.5,37.5c-7,7-18.5,7-25.5,0l-35.9-35.9c-7-7-7-18.5,0-25.5l37.5-37.5c7-7,18.5-7,25.5,0
		l35.9,35.9C-943-352.1-943-340.7-950-333.7z"/>
	<g>
		<path class="st6" d="M-994.5-504c-8.6,8.8-14.4,19.2-17.4,30.3c-3.9,13.9-3.3,28.8,1.5,42.4c3.5,9.7,9.1,18.8,17,26.5
			c6.1,6,13,10.6,20.4,13.9c15,6.7,31.8,7.9,47.5,3.6c11.5-3.2,22.4-9.4,31.4-18.6"/>
		<path class="st10" d="M-998.2-504.4c-8.6,8.8-14.4,19.2-17.5,30.3c-3.9,13.9-3.3,28.8,1.6,42.5c3.5,9.7,9.2,18.8,17,26.5
			c6.1,6,13,10.6,20.4,13.9c15,6.7,31.9,7.9,47.5,3.6c11.5-3.2,22.4-9.4,31.4-18.6"/>
		<polyline class="st10" points="-897.7,-406.2 -906.2,-414.5 -943.8,-451.2 -947.9,-455.3 -952.1,-459.3 -989.6,-496 
			-998.2,-504.4 		"/>
		<path class="st10" d="M-943.8-451.2c-0.7,0.8-1.6,1.3-2.6,1.5c-1.3,0.4-2.7,0.3-3.9-0.3c-0.6-0.3-1.2-0.7-1.7-1.1
			c-0.7-0.6-1.1-1.4-1.4-2.2c-0.4-1.1-0.4-2.4-0.1-3.5c0.3-0.9,0.7-1.8,1.4-2.5"/>
		<line class="st10" x1="-953.5" y1="-456.8" x2="-1004.1" y2="-470.9"/>
		<line class="st10" x1="-932.3" y1="-399.1" x2="-946.4" y2="-449.7"/>
		<line class="st10" x1="-971.8" y1="-402.1" x2="-950.3" y2="-450"/>
		<line class="st10" x1="-953.4" y1="-453.3" x2="-1002.8" y2="-435.6"/>
		<path class="st10" d="M-990.4-496.8c-22.9,23.5-22.5,61,1,84c23.5,22.9,61,22.5,84-1"/>
	</g>
</g>
<path class="st2" d="M1592.7,1616.8c-70.9,490.3-44.6,490.3-37.6,509c1.8,4.8,0.5,8.2-2.3,10.6c-9,9.9-38.8,17.1-74.1,17.1
	c-34,0-62.9-6.8-73-16.1c-6.8-4.4-3.5-10.5-3.5-10.5c35.2-141.7-32.4-486.9-37-509.8c-0.1-0.8-0.2-1.2-0.2-1.2h227.8
	C1592.7,1616.2,1592.7,1616.5,1592.7,1616.8z"/>
</svg>
